<svg xmlns="http://www.w3.org/2000/svg" viewBox="0 0 65.5 65.5"><defs><style>.cls-1{fill:#a3d4ff;}.cls-2{fill:#fff;}.cls-3{fill:#2b5185;}</style></defs><title>features_Asset 1</title><g id="Layer_2" data-name="Layer 2"><g id="Layer_2-2" data-name="Layer 2"><path class="cls-1" d="M14.75,2.75v60a2,2,0,0,0,2,2h6a2,2,0,0,0,2-2v-3h30v3a2,2,0,0,0,2,2h6a2,2,0,0,0,2-2v-60a2,2,0,0,0-2-2h-46A2,2,0,0,0,14.75,2.75Z"/><path class="cls-2" d="M14.75,4.75v58a2,2,0,0,0,2,2h6a2,2,0,0,0,2-2v-3h30v3a2,2,0,0,0,2,2h4v-58a2,2,0,0,0-2-2Z"/><path class="cls-3" d="M62.75,65.5h-6A2.75,2.75,0,0,1,54,62.75V60.5H25.5v2.25a2.75,2.75,0,0,1-2.75,2.75h-6A2.75,2.75,0,0,1,14,62.75v-60A2.75,2.75,0,0,1,16.75,0h46A2.75,2.75,0,0,1,65.5,2.75v60A2.75,2.75,0,0,1,62.75,65.5Zm-38-6.5h30a.75.75,0,0,1,.75.75v3A1.25,1.25,0,0,0,56.75,64h6A1.25,1.25,0,0,0,64,62.75v-60A1.25,1.25,0,0,0,62.75,1.5h-46A1.25,1.25,0,0,0,15.5,2.75v60A1.25,1.25,0,0,0,16.75,64h6A1.25,1.25,0,0,0,24,62.75v-3A.76.76,0,0,1,24.75,59Z"/><rect class="cls-1" x="21.75" y="7.75" width="36" height="40"/><path class="cls-2" d="M21.75,11.75h31a1,1,0,0,1,1,1v35a0,0,0,0,1,0,0h-32a0,0,0,0,1,0,0v-36A0,0,0,0,1,21.75,11.75Z"/><path class="cls-3" d="M57.75,48.5h-36a.76.76,0,0,1-.75-.75v-40A.76.76,0,0,1,21.75,7h36a.75.75,0,0,1,.75.75v40A.75.75,0,0,1,57.75,48.5ZM22.5,47H57V8.5H22.5Z"/><polygon class="cls-1" points="21.75 47.75 7.75 54.75 7.75 0.75 21.75 7.75 21.75 47.75"/><path class="cls-2" d="M17.75,49.75l-10,5v-48l9.37,3.75a1,1,0,0,1,.63.93Z"/><path class="cls-3" d="M7.75,55.5a.77.77,0,0,1-.39-.11A.74.74,0,0,1,7,54.75V.75A.74.74,0,0,1,7.36.11a.76.76,0,0,1,.73,0l14,7a.75.75,0,0,1,.42.67v40a.75.75,0,0,1-.42.67l-14,7A.84.84,0,0,1,7.75,55.5ZM8.5,2V53.54L21,47.29V8.21ZM21.75,47.75h0Z"/><rect class="cls-2" x="0.75" y="0.75" width="7" height="54"/><path class="cls-3" d="M7.75,55.5h-7A.76.76,0,0,1,0,54.75V.75A.76.76,0,0,1,.75,0h7A.76.76,0,0,1,8.5.75v54A.76.76,0,0,1,7.75,55.5ZM1.5,54H7V1.5H1.5Z"/><path class="cls-3" d="M4.25,18.5a.75.75,0,0,1-.53-.22.73.73,0,0,1-.22-.53.75.75,0,0,1,1.5,0,.75.75,0,0,1-.75.75Z"/><path class="cls-3" d="M3.5,31.09a.75.75,0,0,1,.75-.75h0a.75.75,0,0,1,.75.75H5a.75.75,0,0,1-.75.74h0A.75.75,0,0,1,3.5,31.09Zm0-6.67a.75.75,0,0,1,.75-.75h0a.75.75,0,0,1,.75.75H5a.76.76,0,0,1-.75.75h0A.76.76,0,0,1,3.5,24.42Z"/><path class="cls-3" d="M4.25,38.5a.75.75,0,0,1-.75-.75.75.75,0,0,1,1.5,0,.75.75,0,0,1-.75.75Z"/><rect class="cls-2" x="30.58" y="42.25" width="18" height="5.5" rx="1"/><path class="cls-3" d="M47.58,48.5h-16a1.76,1.76,0,0,1-1.75-1.75v-3.5a1.76,1.76,0,0,1,1.75-1.75h16a1.75,1.75,0,0,1,1.75,1.75v3.5A1.75,1.75,0,0,1,47.58,48.5Zm-16-5.5a.25.25,0,0,0-.25.25v3.5a.25.25,0,0,0,.25.25h16a.25.25,0,0,0,.25-.25v-3.5a.25.25,0,0,0-.25-.25Z"/><path class="cls-3" d="M36.08,48.5a.76.76,0,0,1-.75-.75v-5.5a.75.75,0,0,1,1.5,0v5.5A.75.75,0,0,1,36.08,48.5Z"/><path class="cls-3" d="M43.08,48.5a.76.76,0,0,1-.75-.75v-5.5a.75.75,0,0,1,1.5,0v5.5A.75.75,0,0,1,43.08,48.5Z"/><rect class="cls-2" x="30.58" y="36.75" width="18" height="5.5" rx="1"/><path class="cls-3" d="M47.58,43h-16a1.76,1.76,0,0,1-1.75-1.75v-3.5A1.75,1.75,0,0,1,31.58,36h16a1.75,1.75,0,0,1,1.75,1.75v3.5A1.75,1.75,0,0,1,47.58,43Zm-16-5.5a.25.25,0,0,0-.25.25v3.5a.25.25,0,0,0,.25.25h16a.25.25,0,0,0,.25-.25v-3.5a.25.25,0,0,0-.25-.25Z"/><path class="cls-3" d="M37.08,43a.76.76,0,0,1-.75-.75v-5.5a.75.75,0,0,1,1.5,0v5.5A.75.75,0,0,1,37.08,43Z"/><path class="cls-3" d="M44.08,43a.76.76,0,0,1-.75-.75v-5.5a.75.75,0,0,1,1.5,0v5.5A.75.75,0,0,1,44.08,43Z"/><rect class="cls-2" x="30.58" y="31.25" width="18" height="5.5" rx="1"/><path class="cls-3" d="M47.58,37.5h-16a1.76,1.76,0,0,1-1.75-1.75v-3.5a1.75,1.75,0,0,1,1.75-1.75h16a1.75,1.75,0,0,1,1.75,1.75v3.5A1.75,1.75,0,0,1,47.58,37.5Zm-16-5.5a.25.25,0,0,0-.25.25v3.5a.26.26,0,0,0,.25.25h16a.25.25,0,0,0,.25-.25v-3.5a.25.25,0,0,0-.25-.25Z"/><path class="cls-3" d="M36.08,37.5a.76.76,0,0,1-.75-.75v-5.5a.75.75,0,0,1,1.5,0v5.5A.75.75,0,0,1,36.08,37.5Z"/><path class="cls-3" d="M43.08,37.5a.76.76,0,0,1-.75-.75v-5.5a.75.75,0,0,1,1.5,0v5.5A.75.75,0,0,1,43.08,37.5Z"/><rect class="cls-2" x="29.58" y="25.75" width="18" height="5.5" rx="1"/><path class="cls-3" d="M46.58,32h-16a1.75,1.75,0,0,1-1.75-1.75v-3.5A1.76,1.76,0,0,1,30.58,25h16a1.75,1.75,0,0,1,1.75,1.75v3.5A1.75,1.75,0,0,1,46.58,32Zm-16-5.5a.25.25,0,0,0-.25.25v3.5a.25.25,0,0,0,.25.25h16a.25.25,0,0,0,.25-.25v-3.5a.25.25,0,0,0-.25-.25Z"/><path class="cls-3" d="M35.08,32a.75.75,0,0,1-.75-.75v-5.5a.75.75,0,0,1,1.5,0v5.5A.74.74,0,0,1,35.08,32Z"/><path class="cls-3" d="M42.08,32a.75.75,0,0,1-.75-.75v-5.5a.75.75,0,0,1,1.5,0v5.5A.74.74,0,0,1,42.08,32Z"/><rect class="cls-2" x="30.58" y="20.25" width="18" height="5.5" rx="1"/><path class="cls-3" d="M47.58,26.5h-16a1.75,1.75,0,0,1-1.75-1.75v-3.5a1.76,1.76,0,0,1,1.75-1.75h16a1.75,1.75,0,0,1,1.75,1.75v3.5A1.75,1.75,0,0,1,47.58,26.5Zm-16-5.5a.25.25,0,0,0-.25.25v3.5a.25.25,0,0,0,.25.25h16a.25.25,0,0,0,.25-.25v-3.5a.25.25,0,0,0-.25-.25Z"/><path class="cls-3" d="M36.08,26.5a.75.75,0,0,1-.75-.75v-5.5a.75.75,0,0,1,1.5,0v5.5A.74.74,0,0,1,36.08,26.5Z"/><path class="cls-3" d="M43.08,26.5a.75.75,0,0,1-.75-.75v-5.5a.75.75,0,0,1,1.5,0v5.5A.74.74,0,0,1,43.08,26.5Z"/><rect class="cls-2" x="30.58" y="14.75" width="18" height="5.5" rx="1"/><path class="cls-3" d="M47.58,21h-16a1.76,1.76,0,0,1-1.75-1.75v-3.5A1.76,1.76,0,0,1,31.58,14h16a1.75,1.75,0,0,1,1.75,1.75v3.5A1.75,1.75,0,0,1,47.58,21Zm-16-5.5a.25.25,0,0,0-.25.25v3.5a.25.25,0,0,0,.25.25h16a.25.25,0,0,0,.25-.25v-3.5a.25.25,0,0,0-.25-.25Z"/><path class="cls-3" d="M37.08,21a.76.76,0,0,1-.75-.75v-5.5a.75.75,0,0,1,1.5,0v5.5A.75.75,0,0,1,37.08,21Z"/><path class="cls-3" d="M44.08,21a.76.76,0,0,1-.75-.75v-5.5a.75.75,0,0,1,1.5,0v5.5A.75.75,0,0,1,44.08,21Z"/><path class="cls-3" d="M38.54,52.5H24.75a.75.75,0,0,1,0-1.5H38.54a.75.75,0,0,1,0,1.5Z"/><path class="cls-3" d="M44.75,52.5H42.54a.75.75,0,1,1,0-1.5h2.21a.75.75,0,0,1,0,1.5Z"/><path class="cls-3" d="M11.75,41.5a.76.76,0,0,1-.75-.75V29a.75.75,0,0,1,1.5,0V40.75A.76.76,0,0,1,11.75,41.5Z"/><path class="cls-3" d="M11.75,25.71A.75.75,0,0,1,11,25V22.75a.75.75,0,0,1,1.5,0V25A.75.75,0,0,1,11.75,25.71Z"/></g></g></svg>