<svg xmlns="http://www.w3.org/2000/svg" viewBox="0 0 65.5 65.5"><defs><style>.cls-1{fill:#a3d4ff;}.cls-2{fill:#fff;}.cls-3{fill:#2b5185;}</style></defs><title>features_Asset 1</title><g id="Layer_2" data-name="Layer 2"><g id="Layer_2-2" data-name="Layer 2"><rect class="cls-1" x="0.75" y="0.75" width="64" height="64" rx="16"/><path class="cls-2" d="M32.75,4.75h16a16,16,0,0,1,16,16v28a16,16,0,0,1-16,16h-4a34,34,0,0,1-34-34v-4a22,22,0,0,1,22-22Z"/><path class="cls-3" d="M48.75,65.5h-32A16.76,16.76,0,0,1,0,48.75v-32A16.76,16.76,0,0,1,16.75,0h32A16.76,16.76,0,0,1,65.5,16.75v32A16.76,16.76,0,0,1,48.75,65.5Zm-32-64A15.27,15.27,0,0,0,1.5,16.75v32A15.27,15.27,0,0,0,16.75,64h32A15.27,15.27,0,0,0,64,48.75v-32A15.27,15.27,0,0,0,48.75,1.5Z"/><path class="cls-2" d="M52.05,47.05l-7.26-1.26a5.83,5.83,0,0,1-1.42-.43H22.14a5.77,5.77,0,0,1-1.43.43l-7.25,1.26a9.29,9.29,0,0,0-7.71,9.14v4.16a16,16,0,0,0,11,4.4h32a15.87,15.87,0,0,0,11-4.41V56.19A9.28,9.28,0,0,0,52.05,47.05Z"/><path class="cls-1" d="M59.75,56.19a9.28,9.28,0,0,0-7.7-9.14l-7.26-1.26a5.83,5.83,0,0,1-1.42-.43h-4.1l2.78.48A9.28,9.28,0,0,1,49.75,55V64.7a15.9,15.9,0,0,0,10-4.36Z"/><path class="cls-3" d="M48.75,65.5h-32A16.66,16.66,0,0,1,5.24,60.9.75.75,0,0,1,5,60.35V56.19a10,10,0,0,1,8.32-9.88l7.26-1.26a4.82,4.82,0,0,0,1.24-.38.85.85,0,0,1,.31-.06H43.37a.85.85,0,0,1,.31.06,4.82,4.82,0,0,0,1.24.38l7.26,1.26a10,10,0,0,1,8.32,9.88v4.15a.75.75,0,0,1-.23.55A16.68,16.68,0,0,1,48.75,65.5ZM6.51,60a15.16,15.16,0,0,0,10.24,4h32A15.15,15.15,0,0,0,59,60V56.19a8.5,8.5,0,0,0-7.07-8.4h0l-7.26-1.26a6.77,6.77,0,0,1-1.46-.42H22.29a6.53,6.53,0,0,1-1.45.42l-7.26,1.26a8.5,8.5,0,0,0-7.07,8.4Zm53.24.31h0Z"/><path class="cls-2" d="M26.28,38.34l-.76,3a6,6,0,0,1-3.38,4l10.62,5.08,10.61-5.08a6,6,0,0,1-3.38-4l-.76-3Z"/><path class="cls-1" d="M38.76,47.57l4.61-2.21a6,6,0,0,1-3.38-4l-.76-3H35l1.5,5.38A8.08,8.08,0,0,0,38.76,47.57Z"/><path class="cls-3" d="M32.76,51.19a.71.71,0,0,1-.32-.07L21.82,46a.76.76,0,0,1-.43-.69.78.78,0,0,1,.44-.68,5.22,5.22,0,0,0,3-3.52l.75-3a.76.76,0,0,1,.73-.56H39.23a.76.76,0,0,1,.73.56l.75,3a5.22,5.22,0,0,0,3,3.52.76.76,0,0,1,0,1.37L33.08,51.12A.71.71,0,0,1,32.76,51.19Zm-9-5.9,9,4.32,9-4.32a6.75,6.75,0,0,1-2.52-3.77l-.61-2.43H26.86l-.61,2.43A6.79,6.79,0,0,1,23.74,45.29Z"/><path class="cls-2" d="M45.41,26c0,8.62-5.66,15.61-12.66,15.61S20.1,34.61,20.1,26s5.66-13.18,12.65-13.18S45.41,17.36,45.41,26Z"/><path class="cls-1" d="M32.75,12.81A15.29,15.29,0,0,0,30.5,13c5.92.88,10.41,5.32,10.41,13S36.42,40,30.5,41.34a10.64,10.64,0,0,0,2.25.26c7,0,12.66-7,12.66-15.61S39.75,12.81,32.75,12.81Z"/><path class="cls-3" d="M32.76,42.35C25.36,42.35,19.35,35,19.35,26c0-8.33,5.39-13.93,13.41-13.93s13.4,5.6,13.4,13.93C46.16,35,40.15,42.35,32.76,42.35Zm0-28.79c-7.24,0-11.91,4.88-11.91,12.43,0,8.19,5.34,14.86,11.91,14.86S44.66,34.18,44.66,26C44.66,18.44,40,13.56,32.76,13.56Z"/><path class="cls-3" d="M49.76,65.47a.75.75,0,0,1-.75-.75V56.86a.75.75,0,0,1,1.5,0v7.86A.76.76,0,0,1,49.76,65.47Z"/><path class="cls-3" d="M15.76,65.47a.75.75,0,0,1-.75-.75V56.86a.75.75,0,0,1,1.5,0v7.86A.76.76,0,0,1,15.76,65.47Z"/><polygon class="cls-2" points="32.76 50.44 24.8 54.12 22.14 45.36 32.76 50.44"/><path class="cls-3" d="M24.8,54.87a.63.63,0,0,1-.3-.07.79.79,0,0,1-.42-.46l-2.66-8.76a.75.75,0,0,1,1-.9l10.62,5.08a.75.75,0,0,1,0,1.36L25.12,54.8A.71.71,0,0,1,24.8,54.87Zm-1.45-8.1,1.92,6.31L31,50.43Z"/><polygon class="cls-2" points="32.75 50.44 40.73 54.13 43.37 45.36 32.75 50.44"/><path class="cls-3" d="M40.73,54.88a.7.7,0,0,1-.31-.07l-8-3.69a.75.75,0,0,1,0-1.36l10.62-5.08a.75.75,0,0,1,1,.9l-2.64,8.77a.76.76,0,0,1-.41.47A.81.81,0,0,1,40.73,54.88Zm-6.22-4.45,5.75,2.66,1.9-6.32Z"/><polygon class="cls-1" points="35.15 56.05 30.35 56.05 28.25 64.75 37.25 64.75 35.15 56.05"/><path class="cls-3" d="M37.25,65.5h-9a.75.75,0,0,1-.59-.29.77.77,0,0,1-.14-.64l2.11-8.69a.75.75,0,0,1,.72-.58h4.8a.75.75,0,0,1,.72.57L38,64.57a.77.77,0,0,1-.14.64A.75.75,0,0,1,37.25,65.5Zm-8-1.5h7.1l-1.74-7.2H30.94Z"/><polygon class="cls-1" points="35.15 56.05 37.36 52.57 32.75 50.44 28.18 52.56 30.35 56.05 35.15 56.05"/><path class="cls-3" d="M30.35,56.8a.73.73,0,0,1-.63-.35L27.54,53a.79.79,0,0,1-.08-.62.76.76,0,0,1,.4-.46l4.57-2.12a.77.77,0,0,1,.63,0l4.61,2.13a.74.74,0,0,1,.41.47A.73.73,0,0,1,38,53l-2.21,3.48a.75.75,0,0,1-.63.35Zm4.8-.75h0Zm-5.89-3.17,1.51,2.42h4l1.54-2.41-3.52-1.62Z"/><path class="cls-2" d="M20.45,12.79v7.86C20.45,22.53,26,24,32.82,24S45.2,22.53,45.2,20.65V12.79Z"/><path class="cls-1" d="M41.82,12.79v6.74c0,1.87-5.54,3.39-12.37,3.39a36.74,36.74,0,0,1-7.64-.73c2,1.1,6.2,1.85,11,1.85,6.84,0,12.38-1.51,12.38-3.39V12.79Z"/><path class="cls-3" d="M32.82,24.79c-6.32,0-13.12-1.29-13.12-4.14V12.79a.75.75,0,0,1,.75-.75H45.2a.76.76,0,0,1,.75.75v7.86C46,23.5,39.14,24.79,32.82,24.79ZM21.2,13.54v7.11c0,.9,4.1,2.64,11.62,2.64s11.63-1.74,11.63-2.64V13.54Z"/><polygon class="cls-1" points="32.82 8.19 10.32 13.25 32.82 18.31 55.32 13.25 32.82 8.19"/><path class="cls-2" d="M29.12,9l-18.8,4.23L29,17.45,41.7,13.73a.5.5,0,0,0,0-1Z"/><path class="cls-3" d="M32.82,19.06a.44.44,0,0,1-.16,0L10.16,14a.75.75,0,0,1-.59-.73.76.76,0,0,1,.59-.73l22.5-5.06a.62.62,0,0,1,.33,0l22.5,5.06a.75.75,0,0,1,.58.73.74.74,0,0,1-.58.73L33,19A.5.5,0,0,1,32.82,19.06ZM13.74,13.25l19.08,4.29,19.09-4.29L32.82,9Z"/><path class="cls-3" d="M26.82,28.4a.76.76,0,0,1-.75-.75V17a.75.75,0,0,1,.32-.61l5.93-4.17a.75.75,0,0,1,.86,1.23l-5.61,3.94v10.3A.75.75,0,0,1,26.82,28.4Z"/><path class="cls-3" d="M25.41,27.65a1.41,1.41,0,1,0,1.41-1.41A1.41,1.41,0,0,0,25.41,27.65Z"/><circle class="cls-2" cx="51.51" cy="36.34" r="2"/><path class="cls-3" d="M51.51,39.09a2.75,2.75,0,1,1,2.75-2.75A2.75,2.75,0,0,1,51.51,39.09Zm0-4a1.25,1.25,0,1,0,1.25,1.25A1.25,1.25,0,0,0,51.51,35.09Z"/><circle class="cls-2" cx="56.39" cy="22.21" r="2"/><path class="cls-3" d="M56.38,25a2.75,2.75,0,1,1,2.75-2.75A2.76,2.76,0,0,1,56.38,25Zm0-4a1.25,1.25,0,1,0,1.25,1.25A1.26,1.26,0,0,0,56.38,21Z"/><circle class="cls-2" cx="10.89" cy="27.75" r="2"/><path class="cls-3" d="M10.88,30.5a2.75,2.75,0,1,1,2.75-2.75A2.75,2.75,0,0,1,10.88,30.5Zm0-4a1.25,1.25,0,1,0,1.25,1.25A1.26,1.26,0,0,0,10.88,26.5Z"/><circle class="cls-2" cx="7.26" cy="41.6" r="2"/><path class="cls-3" d="M7.26,44.35A2.75,2.75,0,1,1,10,41.6,2.75,2.75,0,0,1,7.26,44.35Zm0-4A1.25,1.25,0,1,0,8.51,41.6,1.25,1.25,0,0,0,7.26,40.35Z"/></g></g></svg>