<svg xmlns="http://www.w3.org/2000/svg" viewBox="0 0 65.5 65.5"><defs><style>.cls-1{fill:#fff;}.cls-2{fill:#a3d4ff;}.cls-3{fill:#2b5185;}</style></defs><title>features_Asset 3</title><g id="Layer_2" data-name="Layer 2"><g id="icon"><circle class="cls-1" cx="32.75" cy="32.75" r="32"/><path class="cls-2" d="M53.82,8.68A32,32,0,0,1,8.68,53.82,32,32,0,1,0,53.82,8.68Z"/><path class="cls-3" d="M32.75,65.5A32.75,32.75,0,1,1,65.5,32.75,32.79,32.79,0,0,1,32.75,65.5Zm0-64A31.25,31.25,0,1,0,64,32.75,31.29,31.29,0,0,0,32.75,1.5Z"/><path class="cls-1" d="M46.89,27.58H64.33A32,32,0,0,0,54.69,9.47h-7.8Z"/><path class="cls-2" d="M46.89,22.58v5H64.33a31.78,31.78,0,0,0-1.24-5Z"/><path class="cls-3" d="M64.33,28.33H46.89a.75.75,0,0,1-.75-.75V9.47a.75.75,0,0,1,.75-.75h7.8a.77.77,0,0,1,.52.2,33,33,0,0,1,9.86,18.53.79.79,0,0,1-.17.61A.74.74,0,0,1,64.33,28.33Zm-16.69-1.5H63.43a31.32,31.32,0,0,0-9-16.61H47.64Z"/><path class="cls-1" d="M54.5,46.89V43.4a3.38,3.38,0,0,1,1-2.37l2.18-2.2A4.27,4.27,0,0,0,58.75,36V29a2.33,2.33,0,0,0-1.68-2.34,2.18,2.18,0,0,0-2.57,2.26V20a2,2,0,0,0-1.58-2,1.91,1.91,0,0,0-2.23,1.87h0V17a1.9,1.9,0,0,0-2.21-1.87,2,2,0,0,0-1.59,2V18a1.91,1.91,0,0,0-2.22-1.88,2,2,0,0,0-1.59,2v2.75h0A1.91,1.91,0,0,0,40.86,19a2,2,0,0,0-1.58,2v9.77a50.74,50.74,0,0,0,.77,8.79l1.32,7.35Z"/><path class="cls-2" d="M43.86,39.54l1.31,7.35h-3.8l-1.32-7.35a50.74,50.74,0,0,1-.77-8.79V21a2,2,0,0,1,1.58-2,1.91,1.91,0,0,1,2.22,1.88h0v9.88A49.79,49.79,0,0,0,43.86,39.54Z"/><path class="cls-3" d="M54.5,47.64H41.37a.74.74,0,0,1-.74-.62l-1.31-7.35a50.4,50.4,0,0,1-.79-8.92V21a2.65,2.65,0,0,1,3.8-2.5v-.36a2.65,2.65,0,0,1,4.12-2.32A2.61,2.61,0,0,1,50.51,15a2.64,2.64,0,0,1,.93,2v.46A2.67,2.67,0,0,1,55.25,20v6.29a2.75,2.75,0,0,1,2-.3A3.08,3.08,0,0,1,59.5,29V36a5,5,0,0,1-1.3,3.39L56,41.56a2.6,2.6,0,0,0-.76,1.84v3.49A.76.76,0,0,1,54.5,47.64ZM42,46.14H53.75V43.4a4.06,4.06,0,0,1,1.19-2.89l2.18-2.21A3.52,3.52,0,0,0,58,36V29a1.6,1.6,0,0,0-1.09-1.61,1.28,1.28,0,0,0-1.08.26,1.64,1.64,0,0,0-.58,1.27.76.76,0,0,1-.75.75h0a.76.76,0,0,1-.75-.75V20a1.22,1.22,0,0,0-1-1.24,1.15,1.15,0,0,0-.95.25,1.17,1.17,0,0,0-.41.88h0a.75.75,0,0,1-1.5,0V17a1.14,1.14,0,0,0-.4-.87,1.11,1.11,0,0,0-.94-.26,1.23,1.23,0,0,0-1,1.24V18a.75.75,0,1,1-1.5,0,1.15,1.15,0,0,0-.41-.88,1.17,1.17,0,0,0-.94-.26,1.22,1.22,0,0,0-1,1.25v2.75a.74.74,0,0,1-.75.75h0a.75.75,0,0,1-.75-.75v-.05a1.16,1.16,0,0,0-.4-.83,1.19,1.19,0,0,0-1-.26A1.25,1.25,0,0,0,40,21v9.77a49.34,49.34,0,0,0,.76,8.66Z"/><path class="cls-3" d="M50.69,27.51a.76.76,0,0,1-.75-.75V19.85a.75.75,0,1,1,1.5,0v6.91A.75.75,0,0,1,50.69,27.51Z"/><path class="cls-3" d="M43.08,28.69a.75.75,0,0,1-.75-.75V20.87a.75.75,0,0,1,1.5,0v7.07A.74.74,0,0,1,43.08,28.69Z"/><path class="cls-3" d="M53.13,35.81a.7.7,0,0,1-.51-.2.74.74,0,0,1,0-1.06l.85-.92a1.28,1.28,0,0,0,.32-.86V28.94a.75.75,0,0,1,.75-.75h0a.74.74,0,0,1,.75.75v3.83a2.77,2.77,0,0,1-.72,1.88l-.85.92A.75.75,0,0,1,53.13,35.81Z"/><path class="cls-3" d="M46.89,28.1a.75.75,0,0,1-.75-.75V18a.75.75,0,0,1,1.5,0v9.34A.76.76,0,0,1,46.89,28.1Z"/><path class="cls-1" d="M37.92,46.89V64.33A32,32,0,0,0,56,54.69v-7.8Z"/><path class="cls-2" d="M37.92,46.89V64.33a31.11,31.11,0,0,0,5-1.25V46.89Z"/><path class="cls-3" d="M37.92,65.08a.76.76,0,0,1-.75-.75V46.89a.75.75,0,0,1,.75-.75H56a.75.75,0,0,1,.75.75v7.8a.77.77,0,0,1-.2.52,33,33,0,0,1-18.53,9.86Zm.75-17.44V63.43a31.32,31.32,0,0,0,16.61-9V47.64Z"/><path class="cls-1" d="M18.61,54.5H22.1a3.38,3.38,0,0,1,2.37,1l2.2,2.18a4.27,4.27,0,0,0,2.88,1.1h6.93a2.33,2.33,0,0,0,2.34-1.69,2.18,2.18,0,0,0-2.26-2.56h9a2,2,0,0,0,2-1.58,1.89,1.89,0,0,0-1.87-2.22H48.5a1.9,1.9,0,0,0,1.87-2.21,2,2,0,0,0-2-1.59h-.9a1.91,1.91,0,0,0,1.88-2.22,2,2,0,0,0-2-1.59H44.63a1.91,1.91,0,0,0,1.88-2.22,2,2,0,0,0-2-1.58H34.75a50.74,50.74,0,0,0-8.79.77l-7.35,1.32Z"/><path class="cls-2" d="M26,43.86l-7.35,1.31v-3.8L26,40.05a50.74,50.74,0,0,1,8.79-.77h9.77a2,2,0,0,1,2,1.58,1.91,1.91,0,0,1-1.88,2.22H34.75A49.79,49.79,0,0,0,26,43.86Z"/><path class="cls-3" d="M36.48,59.5H29.55a5,5,0,0,1-3.39-1.3L23.94,56a2.6,2.6,0,0,0-1.84-.76H18.61a.76.76,0,0,1-.75-.75V41.37a.74.74,0,0,1,.62-.74l7.35-1.31a50.4,50.4,0,0,1,8.92-.79h9.77a2.65,2.65,0,0,1,2.5,3.8h.36a2.73,2.73,0,0,1,2.73,2.23,2.66,2.66,0,0,1-.41,1.89,2.61,2.61,0,0,1,.81,4.06,2.64,2.64,0,0,1-2,.93H48a2.67,2.67,0,0,1-2.5,3.81H39.25a2.75,2.75,0,0,1,.3,2A3.08,3.08,0,0,1,36.48,59.5ZM19.36,53.75H22.1A4.06,4.06,0,0,1,25,54.94l2.21,2.18a3.52,3.52,0,0,0,2.35.88h6.93a1.6,1.6,0,0,0,1.61-1.09,1.28,1.28,0,0,0-.26-1.08,1.64,1.64,0,0,0-1.27-.58.75.75,0,0,1,0-1.5h9a1.22,1.22,0,0,0,1.24-1,1.14,1.14,0,0,0-1.13-1.35h0a.75.75,0,0,1,0-1.5H48.5a1.14,1.14,0,0,0,.87-.4,1.11,1.11,0,0,0,.26-.94,1.23,1.23,0,0,0-1.24-1h-.9a.75.75,0,1,1,0-1.5,1.15,1.15,0,0,0,.88-.41,1.17,1.17,0,0,0,.26-.94,1.24,1.24,0,0,0-1.25-1H44.63a.74.74,0,0,1-.75-.75h0a.75.75,0,0,1,.75-.75h0a1.18,1.18,0,0,0,.84-.4,1.2,1.2,0,0,0,.26-1A1.23,1.23,0,0,0,44.52,40H34.75a49.23,49.23,0,0,0-8.65.76L19.36,42Z"/><path class="cls-3" d="M45.65,51.45H38.74a.75.75,0,1,1,0-1.5h6.91a.75.75,0,0,1,0,1.5Z"/><path class="cls-3" d="M44.63,43.83H37.56a.75.75,0,0,1,0-1.5h7.07a.75.75,0,1,1,0,1.5Z"/><path class="cls-3" d="M36.56,55.25H32.73a2.77,2.77,0,0,1-1.88-.72l-.92-.85a.76.76,0,0,1,0-1.06.74.74,0,0,1,1.06,0l.92.85a1.28,1.28,0,0,0,.86.32h3.83a.75.75,0,0,1,0,1.5Z"/><path class="cls-3" d="M47.49,47.64H38.15a.75.75,0,1,1,0-1.5h9.34a.75.75,0,0,1,0,1.5Z"/><path class="cls-1" d="M18.61,37.92H1.17A32,32,0,0,0,10.81,56h7.8Z"/><path class="cls-2" d="M2.42,42.92H18.61v-5H1.17A30.73,30.73,0,0,0,2.42,42.92Z"/><path class="cls-3" d="M18.61,56.78h-7.8a.77.77,0,0,1-.52-.2A33,33,0,0,1,.43,38a.78.78,0,0,1,.17-.6.74.74,0,0,1,.57-.27H18.61a.75.75,0,0,1,.75.75V56A.75.75,0,0,1,18.61,56.78Zm-7.5-1.5h6.75V38.67H2.07A31.32,31.32,0,0,0,11.11,55.28Z"/><path class="cls-1" d="M11,18.61V22.1a3.38,3.38,0,0,1-1,2.37l-2.18,2.2a4.27,4.27,0,0,0-1.1,2.88v6.93a2.33,2.33,0,0,0,1.69,2.34A2.18,2.18,0,0,0,11,36.56v9a2,2,0,0,0,1.58,2,1.91,1.91,0,0,0,2.23-1.87h0V48.5A1.9,1.9,0,0,0,17,50.37a2,2,0,0,0,1.59-2v-.9a1.92,1.92,0,0,0,2.22,1.88,2,2,0,0,0,1.59-2V44.63h0a1.91,1.91,0,0,0,2.22,1.88,2,2,0,0,0,1.59-2V34.75A50.74,50.74,0,0,0,25.45,26l-1.32-7.35Z"/><path class="cls-2" d="M21.64,26l-1.31-7.35h3.8L25.45,26a50.74,50.74,0,0,1,.77,8.79v9.77a2,2,0,0,1-1.59,2,1.91,1.91,0,0,1-2.22-1.88h0V34.75A49.79,49.79,0,0,0,21.64,26Z"/><path class="cls-3" d="M16.72,51.15A2.61,2.61,0,0,1,15,50.51a2.64,2.64,0,0,1-.93-2V48a2.67,2.67,0,0,1-3.81-2.5V39.25a2.76,2.76,0,0,1-2,.3A3.08,3.08,0,0,1,6,36.48V29.55a5,5,0,0,1,1.3-3.39l2.19-2.22a2.6,2.6,0,0,0,.76-1.84V18.61a.76.76,0,0,1,.75-.75H24.13a.74.74,0,0,1,.74.62l1.32,7.35A51.34,51.34,0,0,1,27,34.75v9.77a2.72,2.72,0,0,1-2.22,2.73A2.75,2.75,0,0,1,23.17,47v.36a2.73,2.73,0,0,1-2.23,2.73A2.7,2.7,0,0,1,19,49.7a2.62,2.62,0,0,1-1.9,1.42A3,3,0,0,1,16.72,51.15Zm-1.16-5.43V48.5a1.15,1.15,0,0,0,1.34,1.13,1.21,1.21,0,0,0,1-1.24v-.9h0a.75.75,0,0,1,.75-.75h0a.74.74,0,0,1,.75.75h0a1.15,1.15,0,0,0,.41.88,1.17,1.17,0,0,0,.94.26,1.24,1.24,0,0,0,1-1.25V44.63a.74.74,0,0,1,.75-.75h0a.75.75,0,0,1,.75.75v0a1.15,1.15,0,0,0,1.35,1.09,1.23,1.23,0,0,0,.95-1.25V34.75a49.14,49.14,0,0,0-.76-8.65l-1.2-6.74H11.75V22.1A4.06,4.06,0,0,1,10.56,25L8.38,27.2a3.52,3.52,0,0,0-.88,2.35v6.93a1.6,1.6,0,0,0,1.09,1.61,1.28,1.28,0,0,0,1.08-.26,1.64,1.64,0,0,0,.58-1.27.75.75,0,0,1,1.5,0v9a1.22,1.22,0,0,0,.95,1.24,1.15,1.15,0,0,0,1.36-1.13h0a.75.75,0,0,1,1.5,0Z"/><path class="cls-3" d="M14.8,46.4a.76.76,0,0,1-.75-.75v-6.9a.75.75,0,0,1,1.5,0v6.9A.75.75,0,0,1,14.8,46.4Z"/><path class="cls-3" d="M22.42,45.38a.75.75,0,0,1-.75-.75V37.56a.75.75,0,0,1,1.5,0v7.07A.76.76,0,0,1,22.42,45.38Z"/><path class="cls-3" d="M11,37.31a.75.75,0,0,1-.75-.75V32.73A2.77,2.77,0,0,1,11,30.85l.85-.92a.76.76,0,0,1,1.06,0,.74.74,0,0,1,0,1.06l-.85.92a1.28,1.28,0,0,0-.32.86v3.83A.75.75,0,0,1,11,37.31Z"/><path class="cls-3" d="M18.61,48.24a.76.76,0,0,1-.75-.75V38.15a.75.75,0,0,1,1.5,0v9.34A.75.75,0,0,1,18.61,48.24Z"/><path class="cls-1" d="M27.58,18.61V1.17A32,32,0,0,0,9.47,10.81v7.8Z"/><path class="cls-2" d="M22.57,18.61h5V1.17a32.17,32.17,0,0,0-5,1.24Z"/><path class="cls-3" d="M27.58,19.36H9.47a.75.75,0,0,1-.75-.75v-7.8a.77.77,0,0,1,.2-.52A33,33,0,0,1,27.45.43a.79.79,0,0,1,.61.17.74.74,0,0,1,.27.57V18.61A.75.75,0,0,1,27.58,19.36Zm-17.36-1.5H26.83V2.07a31.32,31.32,0,0,0-16.61,9Z"/><path class="cls-1" d="M40.86,19a1.91,1.91,0,0,1,2.22,1.88h0V18.12a2,2,0,0,1,1.59-2A1.91,1.91,0,0,1,46.89,18v-.9h0V11H43.4A3.4,3.4,0,0,1,41,10l-2.2-2.18A4.27,4.27,0,0,0,36,6.75H29a2.33,2.33,0,0,0-2.34,1.69A2.18,2.18,0,0,0,28.94,11H20a2,2,0,0,0-2,1.58,1.89,1.89,0,0,0,1.87,2.22H17A1.9,1.9,0,0,0,15.13,17a2,2,0,0,0,2,1.59H18a1.91,1.91,0,0,0-1.88,2.22,2,2,0,0,0,2,1.59h2.75A1.91,1.91,0,0,0,19,24.63a2,2,0,0,0,2,1.59h9.77a50.81,50.81,0,0,0,8.53-.73V21A2,2,0,0,1,40.86,19Z"/><path class="cls-2" d="M30.75,22.42H20.87A1.91,1.91,0,0,0,19,24.64a2,2,0,0,0,2,1.58h9.77a50.81,50.81,0,0,0,8.53-.73V21.68A49.8,49.8,0,0,1,30.75,22.42Z"/><path class="cls-3" d="M30.75,27H21a2.65,2.65,0,0,1-2.5-3.8h-.36A2.66,2.66,0,0,1,15.8,19a2.63,2.63,0,0,1,1.2-5h.46A2.67,2.67,0,0,1,20,10.25h6.29a2.75,2.75,0,0,1-.3-2A3.08,3.08,0,0,1,29,6H36a5,5,0,0,1,3.39,1.3l2.22,2.2a2.63,2.63,0,0,0,1.84.75h3.49a.76.76,0,0,1,.75.75v7a.75.75,0,1,1-1.5,0,1.15,1.15,0,0,0-.41-.88,1.17,1.17,0,0,0-.94-.26,1.22,1.22,0,0,0-1,1.25v2.75a.74.74,0,0,1-.75.75h0a.75.75,0,0,1-.75-.75v-.05a1.16,1.16,0,0,0-.4-.83,1.19,1.19,0,0,0-1-.26h0A1.23,1.23,0,0,0,40,21v4.51a.77.77,0,0,1-.63.74A51.55,51.55,0,0,1,30.75,27Zm-9.94-3.8a1.17,1.17,0,0,0-.82.4,1.2,1.2,0,0,0-.26.95,1.23,1.23,0,0,0,1.25.95h9.77a48.67,48.67,0,0,0,7.78-.62V21a2.73,2.73,0,0,1,2.22-2.73h0a2.66,2.66,0,0,1,1.58.23v-.36a2.73,2.73,0,0,1,2.23-2.73,2.77,2.77,0,0,1,1.58.23V11.75H43.4a4.06,4.06,0,0,1-2.89-1.19L38.3,8.38A3.52,3.52,0,0,0,36,7.5H29a1.6,1.6,0,0,0-1.61,1.09,1.28,1.28,0,0,0,.26,1.08,1.64,1.64,0,0,0,1.27.58.75.75,0,0,1,0,1.5H20a1.22,1.22,0,0,0-1.24.95,1.15,1.15,0,0,0,1.13,1.36h0a.74.74,0,0,1,.75.75.77.77,0,0,1-.82.75H17a1.14,1.14,0,0,0-.87.4,1.11,1.11,0,0,0-.26.94,1.23,1.23,0,0,0,1.24,1H18a.75.75,0,1,1,0,1.5h0a1.15,1.15,0,0,0-.88.41,1.17,1.17,0,0,0-.26.94,1.24,1.24,0,0,0,1.25,1h2.75a.74.74,0,0,1,.75.75h0a.75.75,0,0,1-.75.75h-.06ZM40.86,19h0Z"/><path class="cls-3" d="M26.76,15.55H19.85a.75.75,0,0,1,0-1.5h6.91a.75.75,0,0,1,0,1.5Z"/><path class="cls-3" d="M27.94,23.17H20.87a.75.75,0,0,1,0-1.5h7.07a.75.75,0,0,1,0,1.5Z"/><path class="cls-3" d="M35.06,13.12a.73.73,0,0,1-.51-.2l-.92-.85a1.28,1.28,0,0,0-.86-.32H28.94a.75.75,0,1,1,0-1.5h3.83a2.77,2.77,0,0,1,1.88.72l.92.85a.75.75,0,0,1-.51,1.3Z"/><path class="cls-3" d="M18,19.36a.75.75,0,0,1,0-1.5h9.34a.75.75,0,0,1,0,1.5Z"/><circle class="cls-1" cx="5.75" cy="5.75" r="2"/><path class="cls-3" d="M5.75,8.5A2.75,2.75,0,1,1,8.5,5.75,2.75,2.75,0,0,1,5.75,8.5Zm0-4A1.25,1.25,0,1,0,7,5.75,1.25,1.25,0,0,0,5.75,4.5Z"/><circle class="cls-1" cx="56.75" cy="2.75" r="2"/><path class="cls-3" d="M56.75,5.5A2.75,2.75,0,1,1,59.5,2.75,2.75,2.75,0,0,1,56.75,5.5Zm0-4A1.25,1.25,0,1,0,58,2.75,1.25,1.25,0,0,0,56.75,1.5Z"/><circle class="cls-1" cx="62.75" cy="9.75" r="2"/><path class="cls-3" d="M62.75,12.5A2.75,2.75,0,1,1,65.5,9.75,2.75,2.75,0,0,1,62.75,12.5Zm0-4A1.25,1.25,0,1,0,64,9.75,1.25,1.25,0,0,0,62.75,8.5Z"/><circle class="cls-1" cx="2.75" cy="56.75" r="2"/><path class="cls-3" d="M2.75,59.5A2.75,2.75,0,1,1,5.5,56.75,2.75,2.75,0,0,1,2.75,59.5Zm0-4A1.25,1.25,0,1,0,4,56.75,1.25,1.25,0,0,0,2.75,55.5Z"/><circle class="cls-1" cx="10.75" cy="62.75" r="2"/><path class="cls-3" d="M10.75,65.5a2.75,2.75,0,1,1,2.75-2.75A2.75,2.75,0,0,1,10.75,65.5Zm0-4A1.25,1.25,0,1,0,12,62.75,1.25,1.25,0,0,0,10.75,61.5Z"/><circle class="cls-1" cx="61.75" cy="57.75" r="2"/><path class="cls-3" d="M61.75,60.5a2.75,2.75,0,1,1,2.75-2.75A2.75,2.75,0,0,1,61.75,60.5Zm0-4A1.25,1.25,0,1,0,63,57.75,1.25,1.25,0,0,0,61.75,56.5Z"/></g></g></svg>