<svg xmlns="http://www.w3.org/2000/svg" xmlns:xlink="http://www.w3.org/1999/xlink" width="1024" height="454" viewBox="0 0 1024 454">
  <defs>
    <style>
      .cls-1 {
        fill: #2090e6;
      }

      .cls-2 {
        clip-path: url(#clip-Wireframe_2);
      }

      .cls-12, .cls-14, .cls-15, .cls-3, .cls-6 {
        fill: none;
      }

      .cls-4 {
        fill: #343a40;
      }

      .cls-5 {
        fill: #aab0b6;
      }

      .cls-6 {
        stroke: #f3f4f5;
      }

      .cls-15, .cls-6 {
        stroke-width: 2px;
        stroke-dasharray: 7;
      }

      .cls-7 {
        stroke: #dc6362;
        fill: url(#linear-gradient);
      }

      .cls-7, .cls-8 {
        stroke-width: 4px;
      }

      .cls-8 {
        stroke: #a3e272;
        fill: url(#linear-gradient-2);
      }

      .cls-9 {
        fill: #fff;
      }

      .cls-10, .cls-20 {
        fill: #fff0f0;
      }

      .cls-11 {
        clip-path: url(#clip-path);
      }

      .cls-12 {
        stroke: #cd201f;
      }

      .cls-12, .cls-14 {
        stroke-linecap: round;
        stroke-linejoin: round;
        stroke-width: 2.971px;
      }

      .cls-13, .cls-21 {
        fill: #cfeab3;
      }

      .cls-14 {
        stroke: #8ecf4d;
      }

      .cls-15 {
        stroke: #aab0b6;
      }

      .cls-16 {
        fill: #354052;
      }

      .cls-17, .cls-22 {
        fill: #dc6362;
      }

      .cls-18, .cls-19, .cls-20, .cls-21, .cls-22 {
        stroke: none;
      }

      .cls-19 {
        fill: rgba(0,40,100,0.12);
      }

      .cls-23 {
        filter: url(#Rectangle_650-2);
      }

      .cls-24 {
        filter: url(#Rectangle_650);
      }
    </style>
    <linearGradient id="linear-gradient" x1="0.5" y1="-0.247" x2="0.5" y2="1" gradientUnits="objectBoundingBox">
      <stop offset="0" stop-color="#cd201f" stop-opacity="0.745"/>
      <stop offset="1" stop-color="#fff" stop-opacity="0"/>
    </linearGradient>
    <linearGradient id="linear-gradient-2" x1="0.5" y1="1.247" x2="0.5" gradientUnits="objectBoundingBox">
      <stop offset="0" stop-color="#5eba00" stop-opacity="0.749"/>
      <stop offset="1" stop-color="#fff" stop-opacity="0"/>
    </linearGradient>
    <filter id="Rectangle_650" x="46" y="219" width="208" height="98" filterUnits="userSpaceOnUse">
      <feOffset dy="3" input="SourceAlpha"/>
      <feGaussianBlur stdDeviation="3" result="blur"/>
      <feFlood flood-opacity="0.161"/>
      <feComposite operator="in" in2="blur"/>
      <feComposite in="SourceGraphic"/>
    </filter>
    <clipPath id="clip-path">
      <rect id="Rectangle_83" data-name="Rectangle 83" class="cls-1" width="18" height="18" transform="translate(77 100)"/>
    </clipPath>
    <filter id="Rectangle_650-2" x="754" y="119" width="208" height="98" filterUnits="userSpaceOnUse">
      <feOffset dy="3" input="SourceAlpha"/>
      <feGaussianBlur stdDeviation="3" result="blur-2"/>
      <feFlood flood-opacity="0.161"/>
      <feComposite operator="in" in2="blur-2"/>
      <feComposite in="SourceGraphic"/>
    </filter>
    <clipPath id="clip-Wireframe_2">
      <rect width="1024" height="454"/>
    </clipPath>
  </defs>
  <g id="Wireframe_2" data-name="Wireframe – 2" class="cls-2">
    <rect class="cls-9" width="1024" height="454"/>
    <g id="bg" class="cls-3">
      <path class="cls-18" d="M0,0H1024V454H0Z"/>
      <path class="cls-19" d="M 1 0.999969482421875 L 1 453 L 1023 453 L 1023 0.999969482421875 L 1 0.999969482421875 M 0 -3.0517578125e-05 L 1024 -3.0517578125e-05 L 1024 454 L 0 454 L 0 -3.0517578125e-05 Z"/>
    </g>
    <path id="Path_1536" data-name="Path 1536" class="cls-4" d="M2.407,0V-18.966H8.468a13.851,13.851,0,0,1,2.712.247,6.869,6.869,0,0,1,2.146.783A3.821,3.821,0,0,1,14.746-16.5a4.424,4.424,0,0,1,.508,2.2,4.815,4.815,0,0,1-.7,2.523,3.586,3.586,0,0,1-1.943,1.595v.116a4.875,4.875,0,0,1,2.6,1.464A4.3,4.3,0,0,1,16.24-5.568,5.211,5.211,0,0,1,15.689-3.1a4.967,4.967,0,0,1-1.523,1.74A6.709,6.709,0,0,1,11.861-.333,11.939,11.939,0,0,1,8.961,0ZM5.771-11.136H8.178a4.561,4.561,0,0,0,2.885-.725,2.383,2.383,0,0,0,.884-1.943,2.141,2.141,0,0,0-.928-1.972,5.336,5.336,0,0,0-2.784-.58H5.771Zm0,8.526H8.613a5.7,5.7,0,0,0,3.219-.768,2.66,2.66,0,0,0,1.131-2.364,2.38,2.38,0,0,0-1.1-2.189,6.252,6.252,0,0,0-3.248-.681H5.771ZM23.664.348a3.813,3.813,0,0,1-3.335-1.465,7.155,7.155,0,0,1-1.044-4.191v-8.932H22.62v8.5a4.431,4.431,0,0,0,.522,2.494,1.931,1.931,0,0,0,1.682.725,2.929,2.929,0,0,0,1.639-.464,6.7,6.7,0,0,0,1.523-1.508v-9.744H31.32V0H28.594l-.261-2.088h-.087A8.367,8.367,0,0,1,26.23-.319,4.811,4.811,0,0,1,23.664.348ZM41.644,0V-18.966h3.364v7.627h7.685v-7.627h3.364V0H52.693V-8.41H45.008V0ZM64.032.348A4.146,4.146,0,0,1,60.987-.8a4.068,4.068,0,0,1-1.16-3.031,4.168,4.168,0,0,1,.479-2.016,4.125,4.125,0,0,1,1.508-1.523,10.014,10.014,0,0,1,2.61-1.073,23.865,23.865,0,0,1,3.785-.667,5.375,5.375,0,0,0-.16-1.058,2.433,2.433,0,0,0-.435-.9,2.023,2.023,0,0,0-.8-.609A3.017,3.017,0,0,0,65.6-11.89a5.392,5.392,0,0,0-2.044.406A13.749,13.749,0,0,0,61.6-10.5l-1.218-2.233a14.265,14.265,0,0,1,2.668-1.305,9.065,9.065,0,0,1,3.19-.551,4.9,4.9,0,0,1,3.988,1.581,6.955,6.955,0,0,1,1.319,4.568V0H68.788l-.232-1.566H68.44A10.462,10.462,0,0,1,66.4-.2,5.154,5.154,0,0,1,64.032.348Zm1.073-2.61a3.129,3.129,0,0,0,1.58-.406,8.486,8.486,0,0,0,1.522-1.16v-3.19a15.223,15.223,0,0,0-2.436.464,7.041,7.041,0,0,0-1.6.652,2.325,2.325,0,0,0-.87.827,1.98,1.98,0,0,0-.261.986,1.626,1.626,0,0,0,.58,1.392A2.4,2.4,0,0,0,65.105-2.262ZM76.125,0V-11.6H74.211v-2.494l1.914-.145v-1.479a7.638,7.638,0,0,1,.261-2.045,4.2,4.2,0,0,1,.841-1.624,3.892,3.892,0,0,1,1.464-1.059,5.508,5.508,0,0,1,2.161-.377,6.884,6.884,0,0,1,1.435.145,6.856,6.856,0,0,1,1.174.348l-.638,2.494a3.828,3.828,0,0,0-1.566-.348q-1.8,0-1.8,2.407v1.537h4.9l.406-3.886h2.755v3.886h3.654V-11.6H87.522v6.786q0,2.494,2.03,2.494a3.536,3.536,0,0,0,.769-.087,3.6,3.6,0,0,0,.711-.232l.58,2.465a11.1,11.1,0,0,1-1.319.362,7.635,7.635,0,0,1-1.61.159,5.127,5.127,0,0,1-2.073-.377,3.564,3.564,0,0,1-1.392-1.059,4.382,4.382,0,0,1-.783-1.624,8.312,8.312,0,0,1-.246-2.1V-11.6H79.46V0ZM97,.348A4.146,4.146,0,0,1,93.96-.8,4.068,4.068,0,0,1,92.8-3.828a4.168,4.168,0,0,1,.479-2.016,4.125,4.125,0,0,1,1.508-1.523A10.014,10.014,0,0,1,97.4-8.439a23.865,23.865,0,0,1,3.785-.667,5.375,5.375,0,0,0-.16-1.058,2.433,2.433,0,0,0-.435-.9,2.023,2.023,0,0,0-.8-.609,3.017,3.017,0,0,0-1.218-.218,5.392,5.392,0,0,0-2.045.406,13.749,13.749,0,0,0-1.957.986l-1.218-2.233a14.265,14.265,0,0,1,2.668-1.305,9.065,9.065,0,0,1,3.19-.551,4.9,4.9,0,0,1,3.987,1.581,6.955,6.955,0,0,1,1.32,4.568V0h-2.755l-.232-1.566h-.116A10.462,10.462,0,0,1,99.368-.2,5.154,5.154,0,0,1,97,.348Zm1.073-2.61a3.129,3.129,0,0,0,1.58-.406,8.486,8.486,0,0,0,1.523-1.16v-3.19a15.223,15.223,0,0,0-2.436.464,7.041,7.041,0,0,0-1.6.652,2.325,2.325,0,0,0-.87.827,1.98,1.98,0,0,0-.261.986A1.626,1.626,0,0,0,96.6-2.7,2.4,2.4,0,0,0,98.078-2.262ZM108.518,0V-14.239h2.755l.232,1.914h.116a11.289,11.289,0,0,1,2.074-1.595,4.964,4.964,0,0,1,2.6-.667,3.813,3.813,0,0,1,3.335,1.465,7.155,7.155,0,0,1,1.044,4.19V0h-3.335V-8.5a4.431,4.431,0,0,0-.522-2.494,1.964,1.964,0,0,0-1.711-.725,3,3,0,0,0-1.638.45,10.453,10.453,0,0,0-1.61,1.32V0Zm16.24,0V-14.239h3.335V0Zm7.6,0V-14.239h2.755l.232,1.914h.116a11.289,11.289,0,0,1,2.074-1.595,4.964,4.964,0,0,1,2.6-.667,3.813,3.813,0,0,1,3.335,1.465,7.155,7.155,0,0,1,1.044,4.19V0h-3.335V-8.5a4.431,4.431,0,0,0-.522-2.494,1.964,1.964,0,0,0-1.711-.725,3,3,0,0,0-1.639.45,10.453,10.453,0,0,0-1.609,1.32V0Zm30.276.348A9.706,9.706,0,0,1,159.08-.29a7.868,7.868,0,0,1-2.842-1.885,8.608,8.608,0,0,1-1.87-3.074,12.133,12.133,0,0,1-.667-4.176,11.7,11.7,0,0,1,.7-4.161,9.241,9.241,0,0,1,1.9-3.117,8.014,8.014,0,0,1,2.842-1.943,9.255,9.255,0,0,1,3.523-.667,7.311,7.311,0,0,1,3.436.74,9.024,9.024,0,0,1,2.306,1.668l-1.8,2.175A7.393,7.393,0,0,0,165-15.906a4.624,4.624,0,0,0-2.219-.479,5.405,5.405,0,0,0-2.305.479,5.063,5.063,0,0,0-1.769,1.363,6.305,6.305,0,0,0-1.146,2.161,9.448,9.448,0,0,0-.406,2.871,7.973,7.973,0,0,0,1.465,5.089,5.206,5.206,0,0,0,4.335,1.842,5.322,5.322,0,0,0,1.537-.217,3.155,3.155,0,0,0,1.189-.623V-7.511h-3.6v-2.755h6.612v8.352A7.684,7.684,0,0,1,166.156-.3,9.152,9.152,0,0,1,162.632.348Zm16.066,0a7.386,7.386,0,0,1-2.755-.507,6.542,6.542,0,0,1-2.233-1.465,6.681,6.681,0,0,1-1.493-2.334,8.623,8.623,0,0,1-.536-3.147,8.449,8.449,0,0,1,.551-3.132,7.185,7.185,0,0,1,1.464-2.349,6.488,6.488,0,0,1,2.1-1.479,6,6,0,0,1,2.436-.522,6.2,6.2,0,0,1,2.552.493,4.979,4.979,0,0,1,1.842,1.392,6.123,6.123,0,0,1,1.117,2.146,9.386,9.386,0,0,1,.377,2.726q0,.493-.044.928a6.184,6.184,0,0,1-.1.7h-9.048a4.6,4.6,0,0,0,1.349,2.944,4.049,4.049,0,0,0,2.856,1.029,5.25,5.25,0,0,0,1.725-.275,7.668,7.668,0,0,0,1.581-.769l1.131,2.088a10.24,10.24,0,0,1-2.262,1.1A7.867,7.867,0,0,1,178.7.348Zm-3.8-8.816h6.322a4.224,4.224,0,0,0-.71-2.6,2.565,2.565,0,0,0-2.189-.943,3.159,3.159,0,0,0-2.233.9A4.262,4.262,0,0,0,174.9-8.468ZM190.559.348a2.821,2.821,0,0,1-2.523-1.073,5.17,5.17,0,0,1-.725-2.929v-16.82h3.335V-3.48a1.241,1.241,0,0,0,.232.856.676.676,0,0,0,.493.246h.217a1.23,1.23,0,0,0,.3-.058l.435,2.494A4.5,4.5,0,0,1,190.559.348ZM195.17,0V-14.239H198.5V0Zm1.682-16.733a2.127,2.127,0,0,1-1.479-.522,1.747,1.747,0,0,1-.58-1.363,1.792,1.792,0,0,1,.58-1.377,2.093,2.093,0,0,1,1.479-.537,2.093,2.093,0,0,1,1.479.537,1.792,1.792,0,0,1,.58,1.377,1.747,1.747,0,0,1-.58,1.363A2.127,2.127,0,0,1,196.852-16.733ZM202.768,0V-14.239h2.755l.232,2.523h.116a5.978,5.978,0,0,1,1.827-2.131,3.84,3.84,0,0,1,2.2-.74,3.816,3.816,0,0,1,1.624.29l-.58,2.9a6.089,6.089,0,0,0-.7-.174,4.469,4.469,0,0,0-.783-.058,3.107,3.107,0,0,0-1.769.652A5.041,5.041,0,0,0,206.1-8.7V0Zm8.207,4.64,6.757-25.23h2.262L213.237,4.64ZM230.666.348a9.706,9.706,0,0,1-3.552-.638,7.868,7.868,0,0,1-2.842-1.885,8.608,8.608,0,0,1-1.87-3.074,12.133,12.133,0,0,1-.667-4.176,11.7,11.7,0,0,1,.7-4.161,9.241,9.241,0,0,1,1.9-3.117,8.014,8.014,0,0,1,2.842-1.943,9.255,9.255,0,0,1,3.523-.667,7.311,7.311,0,0,1,3.436.74,9.024,9.024,0,0,1,2.306,1.668l-1.8,2.175a7.393,7.393,0,0,0-1.609-1.174,4.624,4.624,0,0,0-2.219-.479,5.405,5.405,0,0,0-2.305.479,5.063,5.063,0,0,0-1.769,1.363,6.305,6.305,0,0,0-1.146,2.161,9.448,9.448,0,0,0-.406,2.871,7.973,7.973,0,0,0,1.465,5.089,5.206,5.206,0,0,0,4.335,1.842,5.322,5.322,0,0,0,1.537-.217,3.155,3.155,0,0,0,1.189-.623V-7.511h-3.6v-2.755h6.612v8.352A7.684,7.684,0,0,1,234.189-.3,9.152,9.152,0,0,1,230.666.348ZM240.642,0V-14.239h3.335V0Zm1.682-16.733a2.127,2.127,0,0,1-1.479-.522,1.747,1.747,0,0,1-.58-1.363,1.792,1.792,0,0,1,.58-1.377,2.093,2.093,0,0,1,1.479-.537A2.093,2.093,0,0,1,243.8-20a1.792,1.792,0,0,1,.58,1.377,1.747,1.747,0,0,1-.58,1.363A2.127,2.127,0,0,1,242.324-16.733ZM253.228.348a5.208,5.208,0,0,1-4.277-1.958,8.533,8.533,0,0,1-1.581-5.5,9.1,9.1,0,0,1,.508-3.132,7.3,7.3,0,0,1,1.348-2.349,6.025,6.025,0,0,1,1.928-1.479,5.137,5.137,0,0,1,2.248-.522,4.571,4.571,0,0,1,2.059.421,8.244,8.244,0,0,1,1.682,1.146l-.116-2.291v-5.162h3.335V0h-2.755l-.232-1.537h-.116A7.538,7.538,0,0,1,255.432-.2,4.657,4.657,0,0,1,253.228.348Zm.812-2.755A3.979,3.979,0,0,0,257.027-4v-6.641a4.717,4.717,0,0,0-1.465-.928,4.135,4.135,0,0,0-1.436-.261,2.889,2.889,0,0,0-2.349,1.218,5.524,5.524,0,0,0-.957,3.48,6.222,6.222,0,0,0,.827,3.524A2.723,2.723,0,0,0,254.04-2.407ZM270.686.348a7.387,7.387,0,0,1-2.755-.507A6.542,6.542,0,0,1,265.7-1.624,6.681,6.681,0,0,1,264.2-3.958a8.623,8.623,0,0,1-.536-3.147,8.449,8.449,0,0,1,.551-3.132,7.185,7.185,0,0,1,1.465-2.349,6.489,6.489,0,0,1,2.1-1.479,6,6,0,0,1,2.436-.522,6.2,6.2,0,0,1,2.552.493,4.979,4.979,0,0,1,1.841,1.392,6.123,6.123,0,0,1,1.116,2.146,9.385,9.385,0,0,1,.377,2.726q0,.493-.044.928a6.181,6.181,0,0,1-.1.7h-9.048a4.6,4.6,0,0,0,1.348,2.944,4.049,4.049,0,0,0,2.857,1.029,5.25,5.25,0,0,0,1.725-.275,7.668,7.668,0,0,0,1.581-.769l1.131,2.088a10.24,10.24,0,0,1-2.262,1.1A7.867,7.867,0,0,1,270.686.348Zm-3.8-8.816h6.322a4.224,4.224,0,0,0-.711-2.6,2.565,2.565,0,0,0-2.19-.943,3.159,3.159,0,0,0-2.233.9A4.262,4.262,0,0,0,266.887-8.468ZM279.3,0V-14.239h2.755l.232,2.523h.116a5.977,5.977,0,0,1,1.827-2.131,3.84,3.84,0,0,1,2.2-.74,3.816,3.816,0,0,1,1.624.29l-.58,2.9a6.089,6.089,0,0,0-.7-.174,4.469,4.469,0,0,0-.783-.058,3.107,3.107,0,0,0-1.769.652,5.041,5.041,0,0,0-1.6,2.276V0Zm24.853.348A9.706,9.706,0,0,1,300.6-.29a7.868,7.868,0,0,1-2.842-1.885,8.608,8.608,0,0,1-1.87-3.074,12.132,12.132,0,0,1-.667-4.176,11.7,11.7,0,0,1,.7-4.161,9.24,9.24,0,0,1,1.9-3.117,8.014,8.014,0,0,1,2.842-1.943,9.255,9.255,0,0,1,3.523-.667,7.311,7.311,0,0,1,3.437.74,9.024,9.024,0,0,1,2.305,1.668l-1.8,2.175a7.392,7.392,0,0,0-1.609-1.174,4.624,4.624,0,0,0-2.219-.479,5.405,5.405,0,0,0-2.305.479,5.063,5.063,0,0,0-1.769,1.363,6.3,6.3,0,0,0-1.145,2.161,9.449,9.449,0,0,0-.406,2.871,7.973,7.973,0,0,0,1.464,5.089,5.206,5.206,0,0,0,4.336,1.842,5.321,5.321,0,0,0,1.537-.217,3.155,3.155,0,0,0,1.189-.623V-7.511h-3.6v-2.755h6.612v8.352A7.684,7.684,0,0,1,307.676-.3,9.152,9.152,0,0,1,304.152.348ZM314.128,0V-14.239h2.755l.232,2.523h.116a5.977,5.977,0,0,1,1.827-2.131,3.84,3.84,0,0,1,2.2-.74,3.816,3.816,0,0,1,1.624.29l-.58,2.9a6.089,6.089,0,0,0-.7-.174,4.469,4.469,0,0,0-.783-.058,3.107,3.107,0,0,0-1.769.652,5.041,5.041,0,0,0-1.6,2.276V0Zm13.514.348A4.146,4.146,0,0,1,324.6-.8a4.068,4.068,0,0,1-1.16-3.031,4.168,4.168,0,0,1,.478-2.016,4.125,4.125,0,0,1,1.508-1.523,10.014,10.014,0,0,1,2.61-1.073,23.865,23.865,0,0,1,3.784-.667,5.373,5.373,0,0,0-.159-1.058,2.433,2.433,0,0,0-.435-.9,2.023,2.023,0,0,0-.8-.609,3.017,3.017,0,0,0-1.218-.218,5.392,5.392,0,0,0-2.044.406,13.748,13.748,0,0,0-1.958.986l-1.218-2.233a14.265,14.265,0,0,1,2.668-1.305,9.065,9.065,0,0,1,3.19-.551,4.9,4.9,0,0,1,3.987,1.581,6.955,6.955,0,0,1,1.32,4.568V0H332.4l-.232-1.566h-.116A10.462,10.462,0,0,1,330.005-.2,5.154,5.154,0,0,1,327.642.348Zm1.073-2.61a3.129,3.129,0,0,0,1.581-.406,8.486,8.486,0,0,0,1.522-1.16v-3.19a15.222,15.222,0,0,0-2.436.464,7.04,7.04,0,0,0-1.6.652,2.325,2.325,0,0,0-.87.827,1.981,1.981,0,0,0-.261.986,1.627,1.627,0,0,0,.58,1.392A2.4,2.4,0,0,0,328.715-2.262ZM339.735,0V-11.6h-1.914v-2.494l1.914-.145v-1.479A7.638,7.638,0,0,1,340-17.763a4.194,4.194,0,0,1,.841-1.624,3.892,3.892,0,0,1,1.464-1.059,5.508,5.508,0,0,1,2.161-.377,6.884,6.884,0,0,1,1.435.145,6.857,6.857,0,0,1,1.174.348l-.638,2.494a3.828,3.828,0,0,0-1.566-.348q-1.8,0-1.8,2.407v1.537h2.784V-11.6H343.07V0Zm8.613,0V-14.239h3.335V0Zm1.682-16.733a2.127,2.127,0,0,1-1.479-.522,1.747,1.747,0,0,1-.58-1.363,1.792,1.792,0,0,1,.58-1.377,2.093,2.093,0,0,1,1.479-.537,2.093,2.093,0,0,1,1.479.537,1.792,1.792,0,0,1,.58,1.377,1.747,1.747,0,0,1-.58,1.363A2.127,2.127,0,0,1,350.03-16.733ZM360.9,6.293a11.329,11.329,0,0,1-2.363-.232,6.178,6.178,0,0,1-1.87-.7,3.651,3.651,0,0,1-1.233-1.16,2.927,2.927,0,0,1-.449-1.624,2.909,2.909,0,0,1,.522-1.668,4.881,4.881,0,0,1,1.508-1.378V-.58a2.89,2.89,0,0,1-.914-.928,2.689,2.689,0,0,1-.362-1.45,2.588,2.588,0,0,1,.478-1.522A4.6,4.6,0,0,1,357.309-5.6v-.116a5.1,5.1,0,0,1-1.29-1.523,4.386,4.386,0,0,1-.566-2.247,4.923,4.923,0,0,1,.464-2.175,4.866,4.866,0,0,1,1.232-1.609,5.26,5.26,0,0,1,1.784-.986,6.831,6.831,0,0,1,2.146-.334,6,6,0,0,1,1.116.1,7.478,7.478,0,0,1,.972.247h5.1v2.465h-2.61a3.375,3.375,0,0,1,.58,1.029,3.922,3.922,0,0,1,.232,1.377,4.88,4.88,0,0,1-.421,2.088,4.342,4.342,0,0,1-1.146,1.508,5.039,5.039,0,0,1-1.711.928,6.838,6.838,0,0,1-2.117.319,5.5,5.5,0,0,1-.957-.087,4.758,4.758,0,0,1-.986-.29,3.027,3.027,0,0,0-.508.58,1.422,1.422,0,0,0-.189.783,1.1,1.1,0,0,0,.508.957,3.4,3.4,0,0,0,1.813.348h2.523a7.435,7.435,0,0,1,3.9.826,2.924,2.924,0,0,1,1.32,2.683,3.878,3.878,0,0,1-.536,1.972,4.87,4.87,0,0,1-1.523,1.595A8.139,8.139,0,0,1,364.052,5.9,11.73,11.73,0,0,1,360.9,6.293Zm.174-12.9a2.35,2.35,0,0,0,1.74-.74,2.92,2.92,0,0,0,.725-2.131,2.871,2.871,0,0,0-.711-2.073,2.336,2.336,0,0,0-1.754-.74,2.407,2.407,0,0,0-1.769.725,2.827,2.827,0,0,0-.725,2.088,2.92,2.92,0,0,0,.725,2.131A2.383,2.383,0,0,0,361.079-6.612Zm.348,10.73a5.1,5.1,0,0,0,2.8-.681,1.932,1.932,0,0,0,1.058-1.61A1.116,1.116,0,0,0,364.632.7a4.76,4.76,0,0,0-1.87-.29h-1.943a7.881,7.881,0,0,1-1.943-.2,2.379,2.379,0,0,0-1.1,1.885,1.648,1.648,0,0,0,.971,1.493A5.59,5.59,0,0,0,361.427,4.118Zm.348-20.677a5.418,5.418,0,0,1-2.088-.363,3.958,3.958,0,0,1-1.436-.986,4.233,4.233,0,0,1-.855-1.436,6.26,6.26,0,0,1-.348-1.711l1.972-.319a4.934,4.934,0,0,0,.275,1,2.552,2.552,0,0,0,.536.841,2.868,2.868,0,0,0,.827.594,2.532,2.532,0,0,0,1.117.232,2.531,2.531,0,0,0,1.116-.232,2.868,2.868,0,0,0,.827-.594,2.552,2.552,0,0,0,.536-.841,4.934,4.934,0,0,0,.275-1l1.972.319a6.26,6.26,0,0,1-.348,1.711,4.233,4.233,0,0,1-.855,1.436,3.958,3.958,0,0,1-1.436.986A5.418,5.418,0,0,1,361.775-16.559ZM371.026,0V-14.239h3.335V0Zm1.682-16.733a2.127,2.127,0,0,1-1.479-.522,1.747,1.747,0,0,1-.58-1.363,1.792,1.792,0,0,1,.58-1.377,2.093,2.093,0,0,1,1.479-.537,2.093,2.093,0,0,1,1.479.537,1.792,1.792,0,0,1,.58,1.377,1.747,1.747,0,0,1-.58,1.363A2.127,2.127,0,0,1,372.708-16.733Z" transform="translate(20 49)"/>
    <path id="Path_1537" data-name="Path 1537" class="cls-5" d="M1.406,0V-1.786H4.1V-9.728H1.881V-11.1A10.132,10.132,0,0,0,3.449-11.5a7.028,7.028,0,0,0,1.226-.58H6.308v10.3H8.683V0Zm12.9.228a5.5,5.5,0,0,1-2.47-.494A5.4,5.4,0,0,1,10.2-1.482l1.045-1.406a5.6,5.6,0,0,0,1.254.941,3.277,3.277,0,0,0,1.615.389,2.525,2.525,0,0,0,1.606-.484,1.608,1.608,0,0,0,.618-1.339,2.061,2.061,0,0,0-.171-.855,1.518,1.518,0,0,0-.579-.646A3.206,3.206,0,0,0,14.5-5.291a8.582,8.582,0,0,0-1.71-.143v-1.6a6.572,6.572,0,0,0,1.491-.142,2.863,2.863,0,0,0,.969-.4,1.493,1.493,0,0,0,.532-.618,1.886,1.886,0,0,0,.162-.779,1.516,1.516,0,0,0-.475-1.187,1.889,1.889,0,0,0-1.311-.427,2.691,2.691,0,0,0-1.3.313,5.529,5.529,0,0,0-1.13.826L10.6-10.792a7.151,7.151,0,0,1,1.663-1.1,4.541,4.541,0,0,1,1.967-.418,5.728,5.728,0,0,1,1.6.209,3.536,3.536,0,0,1,1.235.618,2.819,2.819,0,0,1,.8,1.007,3.122,3.122,0,0,1,.285,1.359,2.609,2.609,0,0,1-.561,1.71,3.636,3.636,0,0,1-1.549,1.064v.076a3.689,3.689,0,0,1,1.8,1.045,2.746,2.746,0,0,1,.712,1.957,3.193,3.193,0,0,1-.333,1.482A3.229,3.229,0,0,1,17.3-.693,4.232,4.232,0,0,1,15.95-.01,5.544,5.544,0,0,1,14.307.228Zm15.39,0a5.424,5.424,0,0,1-2.223-.447A4.813,4.813,0,0,1,25.745-1.51a6.051,6.051,0,0,1-1.121-2.043,8.573,8.573,0,0,1-.4-2.717,8.419,8.419,0,0,1,.4-2.688,5.75,5.75,0,0,1,1.121-2,4.862,4.862,0,0,1,1.729-1.254,5.526,5.526,0,0,1,2.223-.437,5.526,5.526,0,0,1,2.223.437,4.954,4.954,0,0,1,1.739,1.254,5.667,5.667,0,0,1,1.131,2,8.419,8.419,0,0,1,.4,2.688,8.573,8.573,0,0,1-.4,2.717A5.961,5.961,0,0,1,33.659-1.51,4.9,4.9,0,0,1,31.92-.219,5.424,5.424,0,0,1,29.7.228Zm0-1.919a2.72,2.72,0,0,0,1.33-.323,2.962,2.962,0,0,0,1.007-.921,4.586,4.586,0,0,0,.646-1.444,7.262,7.262,0,0,0,.228-1.891,5.474,5.474,0,0,0-.864-3.277A2.751,2.751,0,0,0,29.7-10.735a2.751,2.751,0,0,0-2.347,1.188,5.474,5.474,0,0,0-.865,3.277,7.262,7.262,0,0,0,.228,1.891,4.586,4.586,0,0,0,.646,1.444,2.962,2.962,0,0,0,1.007.921A2.72,2.72,0,0,0,29.7-1.691ZM41.382.228a4.837,4.837,0,0,1-1.777-.323,4,4,0,0,1-1.435-.95,4.393,4.393,0,0,1-.95-1.539,5.869,5.869,0,0,1-.342-2.071,5.342,5.342,0,0,1,.38-2.071,4.553,4.553,0,0,1,1.026-1.539,4.467,4.467,0,0,1,1.491-.959,4.81,4.81,0,0,1,1.777-.333,3.7,3.7,0,0,1,1.568.3,5.1,5.1,0,0,1,1.168.741L43.225-7.087a3.618,3.618,0,0,0-.75-.5,1.819,1.819,0,0,0-.807-.181,2.281,2.281,0,0,0-1.843.846,3.44,3.44,0,0,0-.7,2.27A3.44,3.44,0,0,0,39.814-2.4a2.215,2.215,0,0,0,1.8.845A2.321,2.321,0,0,0,42.646-1.8a4.653,4.653,0,0,0,.883-.561l.893,1.444a4.65,4.65,0,0,1-1.453.855A4.638,4.638,0,0,1,41.382.228Zm6.954,0a2.716,2.716,0,0,1-1.995-.75,2.666,2.666,0,0,1-.76-1.985,2.731,2.731,0,0,1,.313-1.321,2.7,2.7,0,0,1,.988-1,6.561,6.561,0,0,1,1.71-.7,15.636,15.636,0,0,1,2.479-.437,3.521,3.521,0,0,0-.1-.693,1.594,1.594,0,0,0-.285-.589,1.325,1.325,0,0,0-.522-.4,1.977,1.977,0,0,0-.8-.142,3.533,3.533,0,0,0-1.34.266,9.008,9.008,0,0,0-1.283.646l-.8-1.463A9.346,9.346,0,0,1,47.69-9.2a5.939,5.939,0,0,1,2.09-.361,3.209,3.209,0,0,1,2.612,1.035,4.557,4.557,0,0,1,.865,2.993V0H51.452L51.3-1.026h-.076a6.854,6.854,0,0,1-1.34.893A3.377,3.377,0,0,1,48.336.228Zm.7-1.71a2.05,2.05,0,0,0,1.035-.266,5.56,5.56,0,0,0,1-.76V-4.6a9.973,9.973,0,0,0-1.6.3,4.613,4.613,0,0,0-1.045.428,1.523,1.523,0,0,0-.57.542,1.3,1.3,0,0,0-.171.646,1.066,1.066,0,0,0,.38.912A1.571,1.571,0,0,0,49.039-1.482ZM55.879,0V-13.414h2.147v8.379h.057l3.458-4.294h2.394l-3.192,3.8L64.258,0H61.883L59.489-4.047,58.026-2.375V0ZM65.93,3.458l-.475-1.2a3.418,3.418,0,0,0,1.435-.969,1.955,1.955,0,0,0,.484-1.33H67.2a1.5,1.5,0,0,1-.979-.352,1.218,1.218,0,0,1-.427-1,1.231,1.231,0,0,1,.427-.979,1.527,1.527,0,0,1,1.035-.37,1.4,1.4,0,0,1,1.207.589,2.774,2.774,0,0,1,.427,1.653,3.939,3.939,0,0,1-.77,2.432A4.489,4.489,0,0,1,65.93,3.458ZM75.164,0V-12.426h3.914a9.078,9.078,0,0,1,1.91.19,4.122,4.122,0,0,1,1.53.646A3.114,3.114,0,0,1,83.524-10.4a4.08,4.08,0,0,1,.361,1.814A4.123,4.123,0,0,1,83.524-6.8a3.5,3.5,0,0,1-1,1.264,4.167,4.167,0,0,1-1.5.741,7.044,7.044,0,0,1-1.871.238H77.368V0Zm2.2-6.327h1.615q2.736,0,2.736-2.261a1.764,1.764,0,0,0-.712-1.625,4,4,0,0,0-2.1-.446H77.368ZM89.319.228a3.413,3.413,0,0,1-1.378-.247,2.335,2.335,0,0,1-.912-.694,2.871,2.871,0,0,1-.513-1.064,5.446,5.446,0,0,1-.161-1.377V-7.6h-1.33V-9.234l1.444-.095.266-2.546h1.824v2.546h2.375V-7.6H88.559v4.446q0,1.634,1.311,1.634a2.317,2.317,0,0,0,.5-.057,2.361,2.361,0,0,0,.465-.152l.38,1.615a7.272,7.272,0,0,1-.864.238A4.905,4.905,0,0,1,89.319.228Zm5.985,0a5.17,5.17,0,0,1-1.91-.37,6.178,6.178,0,0,1-1.624-.922L92.8-2.47a5.931,5.931,0,0,0,1.244.769,3.25,3.25,0,0,0,1.34.275A1.68,1.68,0,0,0,96.5-1.738a1.02,1.02,0,0,0,.361-.808.794.794,0,0,0-.171-.5,1.643,1.643,0,0,0-.456-.389,4.383,4.383,0,0,0-.646-.314q-.361-.143-.722-.294-.456-.171-.931-.4A3.743,3.743,0,0,1,93.09-5a2.779,2.779,0,0,1-.608-.751,2.062,2.062,0,0,1-.238-1.016,2.526,2.526,0,0,1,.912-2.014,3.708,3.708,0,0,1,2.489-.779,4.3,4.3,0,0,1,1.748.342,6.507,6.507,0,0,1,1.349.779l-1.007,1.33a5.211,5.211,0,0,0-1-.579A2.621,2.621,0,0,0,95.684-7.9a1.532,1.532,0,0,0-1.035.295.938.938,0,0,0-.333.732.745.745,0,0,0,.161.484,1.5,1.5,0,0,0,.428.352,4.352,4.352,0,0,0,.618.285q.351.133.731.266.475.171.95.39a3.9,3.9,0,0,1,.865.542,2.469,2.469,0,0,1,.627.788,2.419,2.419,0,0,1,.238,1.112A2.7,2.7,0,0,1,98.7-1.53,2.611,2.611,0,0,1,98-.617,3.378,3.378,0,0,1,96.862,0,4.918,4.918,0,0,1,95.3.228Z" transform="translate(20 429)"/>
    <path id="Path_1538" data-name="Path 1538" class="cls-5" d="M1.406,0V-1.786H4.1V-9.728H1.881V-11.1A10.132,10.132,0,0,0,3.449-11.5a7.028,7.028,0,0,0,1.226-.58H6.308v10.3H8.683V0ZM15.428,0V-3.116H10.089V-4.6l4.788-7.486h2.6v7.277H19v1.691H17.48V0ZM12.255-4.807h3.173V-7.543q0-.532.029-1.254t.066-1.254h-.076q-.228.475-.475.931l-.513.95ZM29.7.228a5.424,5.424,0,0,1-2.223-.447A4.813,4.813,0,0,1,25.745-1.51a6.051,6.051,0,0,1-1.121-2.043,8.573,8.573,0,0,1-.4-2.717,8.419,8.419,0,0,1,.4-2.688,5.75,5.75,0,0,1,1.121-2,4.862,4.862,0,0,1,1.729-1.254,5.526,5.526,0,0,1,2.223-.437,5.526,5.526,0,0,1,2.223.437,4.954,4.954,0,0,1,1.739,1.254,5.667,5.667,0,0,1,1.131,2,8.419,8.419,0,0,1,.4,2.688,8.573,8.573,0,0,1-.4,2.717A5.961,5.961,0,0,1,33.659-1.51,4.9,4.9,0,0,1,31.92-.219,5.424,5.424,0,0,1,29.7.228Zm0-1.919a2.72,2.72,0,0,0,1.33-.323,2.962,2.962,0,0,0,1.007-.921,4.586,4.586,0,0,0,.646-1.444,7.262,7.262,0,0,0,.228-1.891,5.474,5.474,0,0,0-.864-3.277A2.751,2.751,0,0,0,29.7-10.735a2.751,2.751,0,0,0-2.347,1.188,5.474,5.474,0,0,0-.865,3.277,7.262,7.262,0,0,0,.228,1.891,4.586,4.586,0,0,0,.646,1.444,2.962,2.962,0,0,0,1.007.921A2.72,2.72,0,0,0,29.7-1.691ZM41.382.228a4.837,4.837,0,0,1-1.777-.323,4,4,0,0,1-1.435-.95,4.393,4.393,0,0,1-.95-1.539,5.869,5.869,0,0,1-.342-2.071,5.342,5.342,0,0,1,.38-2.071,4.553,4.553,0,0,1,1.026-1.539,4.467,4.467,0,0,1,1.491-.959,4.81,4.81,0,0,1,1.777-.333,3.7,3.7,0,0,1,1.568.3,5.1,5.1,0,0,1,1.168.741L43.225-7.087a3.618,3.618,0,0,0-.75-.5,1.819,1.819,0,0,0-.807-.181,2.281,2.281,0,0,0-1.843.846,3.44,3.44,0,0,0-.7,2.27A3.44,3.44,0,0,0,39.814-2.4a2.215,2.215,0,0,0,1.8.845A2.321,2.321,0,0,0,42.646-1.8a4.653,4.653,0,0,0,.883-.561l.893,1.444a4.65,4.65,0,0,1-1.453.855A4.638,4.638,0,0,1,41.382.228Zm6.954,0a2.716,2.716,0,0,1-1.995-.75,2.666,2.666,0,0,1-.76-1.985,2.731,2.731,0,0,1,.313-1.321,2.7,2.7,0,0,1,.988-1,6.561,6.561,0,0,1,1.71-.7,15.636,15.636,0,0,1,2.479-.437,3.521,3.521,0,0,0-.1-.693,1.594,1.594,0,0,0-.285-.589,1.325,1.325,0,0,0-.522-.4,1.977,1.977,0,0,0-.8-.142,3.533,3.533,0,0,0-1.34.266,9.008,9.008,0,0,0-1.283.646l-.8-1.463A9.346,9.346,0,0,1,47.69-9.2a5.939,5.939,0,0,1,2.09-.361,3.209,3.209,0,0,1,2.612,1.035,4.557,4.557,0,0,1,.865,2.993V0H51.452L51.3-1.026h-.076a6.854,6.854,0,0,1-1.34.893A3.377,3.377,0,0,1,48.336.228Zm.7-1.71a2.05,2.05,0,0,0,1.035-.266,5.56,5.56,0,0,0,1-.76V-4.6a9.973,9.973,0,0,0-1.6.3,4.613,4.613,0,0,0-1.045.428,1.523,1.523,0,0,0-.57.542,1.3,1.3,0,0,0-.171.646,1.066,1.066,0,0,0,.38.912A1.571,1.571,0,0,0,49.039-1.482ZM55.879,0V-13.414h2.147v8.379h.057l3.458-4.294h2.394l-3.192,3.8L64.258,0H61.883L59.489-4.047,58.026-2.375V0ZM65.93,3.458l-.475-1.2a3.418,3.418,0,0,0,1.435-.969,1.955,1.955,0,0,0,.484-1.33H67.2a1.5,1.5,0,0,1-.979-.352,1.218,1.218,0,0,1-.427-1,1.231,1.231,0,0,1,.427-.979,1.527,1.527,0,0,1,1.035-.37,1.4,1.4,0,0,1,1.207.589,2.774,2.774,0,0,1,.427,1.653,3.939,3.939,0,0,1-.77,2.432A4.489,4.489,0,0,1,65.93,3.458ZM78.793.228A6.374,6.374,0,0,1,76.37-.247,6.321,6.321,0,0,1,74.309-1.6L75.6-3.1a5.554,5.554,0,0,0,1.52,1.017,4.1,4.1,0,0,0,1.71.389,2.557,2.557,0,0,0,1.615-.437A1.406,1.406,0,0,0,81-3.287a1.352,1.352,0,0,0-.142-.646,1.463,1.463,0,0,0-.4-.465,3.437,3.437,0,0,0-.608-.37q-.352-.171-.77-.342l-1.71-.741a5.886,5.886,0,0,1-.9-.475,3.954,3.954,0,0,1-.808-.684,3.167,3.167,0,0,1-.579-.931,3.179,3.179,0,0,1-.218-1.216,3.075,3.075,0,0,1,.313-1.377,3.5,3.5,0,0,1,.864-1.111,4,4,0,0,1,1.321-.741,5.116,5.116,0,0,1,1.682-.266,5.3,5.3,0,0,1,2.09.428,5.4,5.4,0,0,1,1.729,1.149L81.738-9.671a5.536,5.536,0,0,0-1.254-.779,3.54,3.54,0,0,0-1.444-.285,2.361,2.361,0,0,0-1.425.389,1.257,1.257,0,0,0-.532,1.073,1.135,1.135,0,0,0,.161.618,1.652,1.652,0,0,0,.437.456,3.563,3.563,0,0,0,.637.361q.361.161.741.313l1.691.7a5.824,5.824,0,0,1,1.007.532,3.663,3.663,0,0,1,.789.7,3.057,3.057,0,0,1,.522.922,3.522,3.522,0,0,1,.19,1.206,3.387,3.387,0,0,1-.3,1.425A3.422,3.422,0,0,1,82.07-.864a4.336,4.336,0,0,1-1.406.8A5.554,5.554,0,0,1,78.793.228Zm8.8,0a2.716,2.716,0,0,1-2-.75,2.666,2.666,0,0,1-.76-1.985,2.731,2.731,0,0,1,.313-1.321,2.7,2.7,0,0,1,.988-1,6.561,6.561,0,0,1,1.71-.7,15.636,15.636,0,0,1,2.479-.437,3.522,3.522,0,0,0-.1-.693,1.594,1.594,0,0,0-.285-.589,1.325,1.325,0,0,0-.522-.4,1.977,1.977,0,0,0-.8-.142,3.533,3.533,0,0,0-1.34.266,9.008,9.008,0,0,0-1.283.646l-.8-1.463A9.346,9.346,0,0,1,86.944-9.2a5.939,5.939,0,0,1,2.09-.361,3.209,3.209,0,0,1,2.612,1.035,4.557,4.557,0,0,1,.865,2.993V0H90.706l-.152-1.026h-.076a6.854,6.854,0,0,1-1.34.893A3.377,3.377,0,0,1,87.59.228Zm.7-1.71a2.05,2.05,0,0,0,1.035-.266,5.56,5.56,0,0,0,1-.76V-4.6a9.973,9.973,0,0,0-1.6.3,4.613,4.613,0,0,0-1.045.428,1.523,1.523,0,0,0-.57.542,1.3,1.3,0,0,0-.171.646,1.066,1.066,0,0,0,.38.912A1.571,1.571,0,0,0,88.293-1.482ZM97.261.228a1.849,1.849,0,0,1-1.653-.7,3.387,3.387,0,0,1-.475-1.919v-11.02h2.185V-2.28a.813.813,0,0,0,.152.561.443.443,0,0,0,.323.161h.143a.806.806,0,0,0,.2-.038L98.42.038A2.949,2.949,0,0,1,97.261.228Z" transform="translate(165 429)"/>
    <path id="Path_1527" data-name="Path 1527" class="cls-5" d="M1.406,0V-1.786H4.1V-9.728H1.881V-11.1A10.132,10.132,0,0,0,3.449-11.5a7.028,7.028,0,0,0,1.226-.58H6.308v10.3H8.683V0Zm12.92.228a5.424,5.424,0,0,1-2.461-.5A6.414,6.414,0,0,1,10.2-1.444L11.21-2.85a6.587,6.587,0,0,0,1.235.9,3.17,3.17,0,0,0,1.6.389,2.375,2.375,0,0,0,1.681-.608,2.217,2.217,0,0,0,.656-1.71,2.22,2.22,0,0,0-.608-1.672,2.222,2.222,0,0,0-1.615-.589,2.644,2.644,0,0,0-.988.161,5.736,5.736,0,0,0-.95.523l-1.045-.665.361-5.966h6.46v1.843h-4.56l-.247,2.926a4.276,4.276,0,0,1,.751-.295,3.12,3.12,0,0,1,.845-.1,4.685,4.685,0,0,1,1.472.228,3.309,3.309,0,0,1,1.206.694,3.325,3.325,0,0,1,.817,1.178,4.263,4.263,0,0,1,.3,1.681,4.252,4.252,0,0,1-.352,1.767,3.9,3.9,0,0,1-.94,1.311,4.032,4.032,0,0,1-1.359.808A4.727,4.727,0,0,1,14.326.228ZM29.7.228a5.424,5.424,0,0,1-2.223-.447A4.813,4.813,0,0,1,25.745-1.51a6.051,6.051,0,0,1-1.121-2.043,8.573,8.573,0,0,1-.4-2.717,8.419,8.419,0,0,1,.4-2.688,5.75,5.75,0,0,1,1.121-2,4.862,4.862,0,0,1,1.729-1.254,5.526,5.526,0,0,1,2.223-.437,5.526,5.526,0,0,1,2.223.437,4.954,4.954,0,0,1,1.739,1.254,5.667,5.667,0,0,1,1.131,2,8.419,8.419,0,0,1,.4,2.688,8.573,8.573,0,0,1-.4,2.717A5.961,5.961,0,0,1,33.659-1.51,4.9,4.9,0,0,1,31.92-.219,5.424,5.424,0,0,1,29.7.228Zm0-1.919a2.72,2.72,0,0,0,1.33-.323,2.962,2.962,0,0,0,1.007-.921,4.586,4.586,0,0,0,.646-1.444,7.262,7.262,0,0,0,.228-1.891,5.474,5.474,0,0,0-.864-3.277A2.751,2.751,0,0,0,29.7-10.735a2.751,2.751,0,0,0-2.347,1.188,5.474,5.474,0,0,0-.865,3.277,7.262,7.262,0,0,0,.228,1.891,4.586,4.586,0,0,0,.646,1.444,2.962,2.962,0,0,0,1.007.921A2.72,2.72,0,0,0,29.7-1.691ZM41.382.228a4.837,4.837,0,0,1-1.777-.323,4,4,0,0,1-1.435-.95,4.393,4.393,0,0,1-.95-1.539,5.869,5.869,0,0,1-.342-2.071,5.342,5.342,0,0,1,.38-2.071,4.553,4.553,0,0,1,1.026-1.539,4.467,4.467,0,0,1,1.491-.959,4.81,4.81,0,0,1,1.777-.333,3.7,3.7,0,0,1,1.568.3,5.1,5.1,0,0,1,1.168.741L43.225-7.087a3.618,3.618,0,0,0-.75-.5,1.819,1.819,0,0,0-.807-.181,2.281,2.281,0,0,0-1.843.846,3.44,3.44,0,0,0-.7,2.27A3.44,3.44,0,0,0,39.814-2.4a2.215,2.215,0,0,0,1.8.845A2.321,2.321,0,0,0,42.646-1.8a4.653,4.653,0,0,0,.883-.561l.893,1.444a4.65,4.65,0,0,1-1.453.855A4.638,4.638,0,0,1,41.382.228Zm6.954,0a2.716,2.716,0,0,1-1.995-.75,2.666,2.666,0,0,1-.76-1.985,2.731,2.731,0,0,1,.313-1.321,2.7,2.7,0,0,1,.988-1,6.561,6.561,0,0,1,1.71-.7,15.636,15.636,0,0,1,2.479-.437,3.521,3.521,0,0,0-.1-.693,1.594,1.594,0,0,0-.285-.589,1.325,1.325,0,0,0-.522-.4,1.977,1.977,0,0,0-.8-.142,3.533,3.533,0,0,0-1.34.266,9.008,9.008,0,0,0-1.283.646l-.8-1.463A9.346,9.346,0,0,1,47.69-9.2a5.939,5.939,0,0,1,2.09-.361,3.209,3.209,0,0,1,2.612,1.035,4.557,4.557,0,0,1,.865,2.993V0H51.452L51.3-1.026h-.076a6.854,6.854,0,0,1-1.34.893A3.377,3.377,0,0,1,48.336.228Zm.7-1.71a2.05,2.05,0,0,0,1.035-.266,5.56,5.56,0,0,0,1-.76V-4.6a9.973,9.973,0,0,0-1.6.3,4.613,4.613,0,0,0-1.045.428,1.523,1.523,0,0,0-.57.542,1.3,1.3,0,0,0-.171.646,1.066,1.066,0,0,0,.38.912A1.571,1.571,0,0,0,49.039-1.482ZM55.879,0V-13.414h2.147v8.379h.057l3.458-4.294h2.394l-3.192,3.8L64.258,0H61.883L59.489-4.047,58.026-2.375V0ZM65.93,3.458l-.475-1.2a3.418,3.418,0,0,0,1.435-.969,1.955,1.955,0,0,0,.484-1.33H67.2a1.5,1.5,0,0,1-.979-.352,1.218,1.218,0,0,1-.427-1,1.231,1.231,0,0,1,.427-.979,1.527,1.527,0,0,1,1.035-.37,1.4,1.4,0,0,1,1.207.589,2.774,2.774,0,0,1,.427,1.653,3.939,3.939,0,0,1-.77,2.432A4.489,4.489,0,0,1,65.93,3.458ZM80.123.228a5.785,5.785,0,0,1-2.2-.418,4.888,4.888,0,0,1-1.776-1.235,5.953,5.953,0,0,1-1.188-2.014,7.949,7.949,0,0,1-.437-2.736A7.816,7.816,0,0,1,74.965-8.9a6.1,6.1,0,0,1,1.216-2.042,5.148,5.148,0,0,1,1.805-1.273,5.634,5.634,0,0,1,2.214-.437,4.459,4.459,0,0,1,2.09.475,5.555,5.555,0,0,1,1.5,1.1L82.612-9.652a4.29,4.29,0,0,0-1.064-.788,2.773,2.773,0,0,0-1.292-.294,3.117,3.117,0,0,0-1.4.313,3.239,3.239,0,0,0-1.1.893,4.2,4.2,0,0,0-.722,1.416,6.4,6.4,0,0,0-.257,1.881A5.377,5.377,0,0,0,77.7-2.9a2.978,2.978,0,0,0,2.5,1.207,3.051,3.051,0,0,0,1.482-.352,4.644,4.644,0,0,0,1.178-.921l1.178,1.387A5.326,5.326,0,0,1,82.3-.237,5,5,0,0,1,80.123.228Zm-1.748,4.2-.19-.95A5.038,5.038,0,0,0,79.771,3.2a.651.651,0,0,0,.427-.618.625.625,0,0,0-.3-.532,2.922,2.922,0,0,0-1.159-.323L79.61-.057h1.33l-.551,1.235a2.6,2.6,0,0,1,1.054.485,1.116,1.116,0,0,1,.37.9,1.425,1.425,0,0,1-.893,1.349A6.644,6.644,0,0,1,78.375,4.427Zm9.8-4.2a2.716,2.716,0,0,1-2-.75,2.666,2.666,0,0,1-.76-1.985,2.731,2.731,0,0,1,.313-1.321,2.7,2.7,0,0,1,.988-1,6.561,6.561,0,0,1,1.71-.7,15.636,15.636,0,0,1,2.479-.437,3.522,3.522,0,0,0-.1-.693,1.594,1.594,0,0,0-.285-.589,1.325,1.325,0,0,0-.522-.4,1.977,1.977,0,0,0-.8-.142,3.533,3.533,0,0,0-1.34.266,9.008,9.008,0,0,0-1.283.646l-.8-1.463A9.346,9.346,0,0,1,87.533-9.2a5.939,5.939,0,0,1,2.09-.361,3.209,3.209,0,0,1,2.612,1.035A4.557,4.557,0,0,1,93.1-5.529V0H91.295l-.152-1.026h-.076a6.854,6.854,0,0,1-1.34.893A3.377,3.377,0,0,1,88.179.228Zm.7-1.71a2.05,2.05,0,0,0,1.035-.266,5.56,5.56,0,0,0,1-.76V-4.6a9.973,9.973,0,0,0-1.6.3,4.613,4.613,0,0,0-1.045.428,1.523,1.523,0,0,0-.57.542,1.3,1.3,0,0,0-.171.646,1.066,1.066,0,0,0,.38.912A1.571,1.571,0,0,0,88.882-1.482ZM95.722,0V-9.329h1.805l.152,1.653h.076a3.916,3.916,0,0,1,1.2-1.4,2.516,2.516,0,0,1,1.444-.484,2.5,2.5,0,0,1,1.064.19l-.38,1.9a3.989,3.989,0,0,0-.456-.114,2.928,2.928,0,0,0-.513-.038,2.036,2.036,0,0,0-1.159.427A3.3,3.3,0,0,0,97.907-5.7V0Z" transform="translate(309 429)"/>
    <path id="Path_1522" data-name="Path 1522" class="cls-5" d="M1.406,0V-1.786H4.1V-9.728H1.881V-11.1A10.132,10.132,0,0,0,3.449-11.5a7.028,7.028,0,0,0,1.226-.58H6.308v10.3H8.683V0ZM14.972.228a4.149,4.149,0,0,1-1.691-.352,3.786,3.786,0,0,1-1.4-1.074,5.375,5.375,0,0,1-.95-1.843,8.862,8.862,0,0,1-.351-2.641,10.036,10.036,0,0,1,.4-3.021,6.127,6.127,0,0,1,1.055-2.052,4.11,4.11,0,0,1,1.51-1.178,4.351,4.351,0,0,1,1.786-.38,4.145,4.145,0,0,1,1.89.4,4.951,4.951,0,0,1,1.34.969l-1.178,1.33a2.464,2.464,0,0,0-.846-.656,2.41,2.41,0,0,0-1.073-.257,2.572,2.572,0,0,0-1.073.228,2.242,2.242,0,0,0-.884.751,4.288,4.288,0,0,0-.618,1.377,9.029,9.029,0,0,0-.276,2.109,3.99,3.99,0,0,1,1.245-1.045,2.923,2.923,0,0,1,1.377-.38,4.34,4.34,0,0,1,1.435.228,2.915,2.915,0,0,1,1.121.694A3.151,3.151,0,0,1,18.515-5.4a4.821,4.821,0,0,1,.257,1.653,4.246,4.246,0,0,1-.3,1.644,3.8,3.8,0,0,1-.817,1.244,3.647,3.647,0,0,1-1.207.8A3.836,3.836,0,0,1,14.972.228Zm-.038-1.672a1.649,1.649,0,0,0,1.282-.589,2.5,2.5,0,0,0,.523-1.71,2.3,2.3,0,0,0-.494-1.615,1.824,1.824,0,0,0-1.406-.532,2.255,2.255,0,0,0-1.083.313A3.274,3.274,0,0,0,12.673-4.5a4.413,4.413,0,0,0,.769,2.337A1.861,1.861,0,0,0,14.934-1.444ZM29.7.228a5.424,5.424,0,0,1-2.223-.447A4.813,4.813,0,0,1,25.745-1.51a6.051,6.051,0,0,1-1.121-2.043,8.573,8.573,0,0,1-.4-2.717,8.419,8.419,0,0,1,.4-2.688,5.75,5.75,0,0,1,1.121-2,4.862,4.862,0,0,1,1.729-1.254,5.526,5.526,0,0,1,2.223-.437,5.526,5.526,0,0,1,2.223.437,4.954,4.954,0,0,1,1.739,1.254,5.667,5.667,0,0,1,1.131,2,8.419,8.419,0,0,1,.4,2.688,8.573,8.573,0,0,1-.4,2.717A5.961,5.961,0,0,1,33.659-1.51,4.9,4.9,0,0,1,31.92-.219,5.424,5.424,0,0,1,29.7.228Zm0-1.919a2.72,2.72,0,0,0,1.33-.323,2.962,2.962,0,0,0,1.007-.921,4.586,4.586,0,0,0,.646-1.444,7.262,7.262,0,0,0,.228-1.891,5.474,5.474,0,0,0-.864-3.277A2.751,2.751,0,0,0,29.7-10.735a2.751,2.751,0,0,0-2.347,1.188,5.474,5.474,0,0,0-.865,3.277,7.262,7.262,0,0,0,.228,1.891,4.586,4.586,0,0,0,.646,1.444,2.962,2.962,0,0,0,1.007.921A2.72,2.72,0,0,0,29.7-1.691ZM41.382.228a4.837,4.837,0,0,1-1.777-.323,4,4,0,0,1-1.435-.95,4.393,4.393,0,0,1-.95-1.539,5.869,5.869,0,0,1-.342-2.071,5.342,5.342,0,0,1,.38-2.071,4.553,4.553,0,0,1,1.026-1.539,4.467,4.467,0,0,1,1.491-.959,4.81,4.81,0,0,1,1.777-.333,3.7,3.7,0,0,1,1.568.3,5.1,5.1,0,0,1,1.168.741L43.225-7.087a3.618,3.618,0,0,0-.75-.5,1.819,1.819,0,0,0-.807-.181,2.281,2.281,0,0,0-1.843.846,3.44,3.44,0,0,0-.7,2.27A3.44,3.44,0,0,0,39.814-2.4a2.215,2.215,0,0,0,1.8.845A2.321,2.321,0,0,0,42.646-1.8a4.653,4.653,0,0,0,.883-.561l.893,1.444a4.65,4.65,0,0,1-1.453.855A4.638,4.638,0,0,1,41.382.228Zm6.954,0a2.716,2.716,0,0,1-1.995-.75,2.666,2.666,0,0,1-.76-1.985,2.731,2.731,0,0,1,.313-1.321,2.7,2.7,0,0,1,.988-1,6.561,6.561,0,0,1,1.71-.7,15.636,15.636,0,0,1,2.479-.437,3.521,3.521,0,0,0-.1-.693,1.594,1.594,0,0,0-.285-.589,1.325,1.325,0,0,0-.522-.4,1.977,1.977,0,0,0-.8-.142,3.533,3.533,0,0,0-1.34.266,9.008,9.008,0,0,0-1.283.646l-.8-1.463A9.346,9.346,0,0,1,47.69-9.2a5.939,5.939,0,0,1,2.09-.361,3.209,3.209,0,0,1,2.612,1.035,4.557,4.557,0,0,1,.865,2.993V0H51.452L51.3-1.026h-.076a6.854,6.854,0,0,1-1.34.893A3.377,3.377,0,0,1,48.336.228Zm.7-1.71a2.05,2.05,0,0,0,1.035-.266,5.56,5.56,0,0,0,1-.76V-4.6a9.973,9.973,0,0,0-1.6.3,4.613,4.613,0,0,0-1.045.428,1.523,1.523,0,0,0-.57.542,1.3,1.3,0,0,0-.171.646,1.066,1.066,0,0,0,.38.912A1.571,1.571,0,0,0,49.039-1.482ZM55.879,0V-13.414h2.147v8.379h.057l3.458-4.294h2.394l-3.192,3.8L64.258,0H61.883L59.489-4.047,58.026-2.375V0ZM65.93,3.458l-.475-1.2a3.418,3.418,0,0,0,1.435-.969,1.955,1.955,0,0,0,.484-1.33H67.2a1.5,1.5,0,0,1-.979-.352,1.218,1.218,0,0,1-.427-1,1.231,1.231,0,0,1,.427-.979,1.527,1.527,0,0,1,1.035-.37,1.4,1.4,0,0,1,1.207.589,2.774,2.774,0,0,1,.427,1.653,3.939,3.939,0,0,1-.77,2.432A4.489,4.489,0,0,1,65.93,3.458ZM75.164,0V-12.426h3.914a9.078,9.078,0,0,1,1.91.19,4.122,4.122,0,0,1,1.53.646A3.114,3.114,0,0,1,83.524-10.4a4.08,4.08,0,0,1,.361,1.814A4.123,4.123,0,0,1,83.524-6.8a3.5,3.5,0,0,1-1,1.264,4.167,4.167,0,0,1-1.5.741,7.044,7.044,0,0,1-1.871.238H77.368V0Zm2.2-6.327h1.615q2.736,0,2.736-2.261a1.764,1.764,0,0,0-.712-1.625,4,4,0,0,0-2.1-.446H77.368ZM89.6.228A4.839,4.839,0,0,1,87.8-.1a4.286,4.286,0,0,1-1.463-.96,4.377,4.377,0,0,1-.979-1.53,5.649,5.649,0,0,1-.352-2.062,5.536,5.536,0,0,1,.361-2.052,4.707,4.707,0,0,1,.96-1.539A4.251,4.251,0,0,1,87.7-9.215a3.933,3.933,0,0,1,1.6-.342,4.059,4.059,0,0,1,1.672.323,3.262,3.262,0,0,1,1.206.912,4.012,4.012,0,0,1,.731,1.406,6.149,6.149,0,0,1,.247,1.786q0,.323-.029.608a4.049,4.049,0,0,1-.066.456H87.134a3.012,3.012,0,0,0,.883,1.928,2.653,2.653,0,0,0,1.872.675,3.44,3.44,0,0,0,1.131-.181,5.024,5.024,0,0,0,1.035-.5L92.8-.779a6.709,6.709,0,0,1-1.482.722A5.154,5.154,0,0,1,89.6.228ZM87.115-5.548h4.142a2.767,2.767,0,0,0-.465-1.7,1.68,1.68,0,0,0-1.435-.618,2.07,2.07,0,0,0-1.463.589A2.792,2.792,0,0,0,87.115-5.548ZM95.247,0V-9.329h1.805L97.2-7.676h.076a3.916,3.916,0,0,1,1.2-1.4,2.516,2.516,0,0,1,1.444-.484,2.5,2.5,0,0,1,1.064.19l-.38,1.9a3.989,3.989,0,0,0-.456-.114,2.928,2.928,0,0,0-.513-.038,2.036,2.036,0,0,0-1.159.427A3.3,3.3,0,0,0,97.432-5.7V0Z" transform="translate(456 429)"/>
    <path id="Path_1516" data-name="Path 1516" class="cls-5" d="M1.406,0V-1.786H4.1V-9.728H1.881V-11.1A10.132,10.132,0,0,0,3.449-11.5a7.028,7.028,0,0,0,1.226-.58H6.308v10.3H8.683V0ZM12.939,0a27.7,27.7,0,0,1,.285-2.954,16.914,16.914,0,0,1,.6-2.555,14.534,14.534,0,0,1,1-2.365A20.491,20.491,0,0,1,16.3-10.241H10.583v-1.843H18.7v1.33a17.241,17.241,0,0,0-1.719,2.5,12.7,12.7,0,0,0-1.035,2.432,14.875,14.875,0,0,0-.542,2.65Q15.238-1.767,15.162,0ZM29.7.228a5.424,5.424,0,0,1-2.223-.447A4.813,4.813,0,0,1,25.745-1.51a6.051,6.051,0,0,1-1.121-2.043,8.573,8.573,0,0,1-.4-2.717,8.419,8.419,0,0,1,.4-2.688,5.75,5.75,0,0,1,1.121-2,4.862,4.862,0,0,1,1.729-1.254,5.526,5.526,0,0,1,2.223-.437,5.526,5.526,0,0,1,2.223.437,4.954,4.954,0,0,1,1.739,1.254,5.667,5.667,0,0,1,1.131,2,8.419,8.419,0,0,1,.4,2.688,8.573,8.573,0,0,1-.4,2.717A5.961,5.961,0,0,1,33.659-1.51,4.9,4.9,0,0,1,31.92-.219,5.424,5.424,0,0,1,29.7.228Zm0-1.919a2.72,2.72,0,0,0,1.33-.323,2.962,2.962,0,0,0,1.007-.921,4.586,4.586,0,0,0,.646-1.444,7.262,7.262,0,0,0,.228-1.891,5.474,5.474,0,0,0-.864-3.277A2.751,2.751,0,0,0,29.7-10.735a2.751,2.751,0,0,0-2.347,1.188,5.474,5.474,0,0,0-.865,3.277,7.262,7.262,0,0,0,.228,1.891,4.586,4.586,0,0,0,.646,1.444,2.962,2.962,0,0,0,1.007.921A2.72,2.72,0,0,0,29.7-1.691ZM41.382.228a4.837,4.837,0,0,1-1.777-.323,4,4,0,0,1-1.435-.95,4.393,4.393,0,0,1-.95-1.539,5.869,5.869,0,0,1-.342-2.071,5.342,5.342,0,0,1,.38-2.071,4.553,4.553,0,0,1,1.026-1.539,4.467,4.467,0,0,1,1.491-.959,4.81,4.81,0,0,1,1.777-.333,3.7,3.7,0,0,1,1.568.3,5.1,5.1,0,0,1,1.168.741L43.225-7.087a3.618,3.618,0,0,0-.75-.5,1.819,1.819,0,0,0-.807-.181,2.281,2.281,0,0,0-1.843.846,3.44,3.44,0,0,0-.7,2.27A3.44,3.44,0,0,0,39.814-2.4a2.215,2.215,0,0,0,1.8.845A2.321,2.321,0,0,0,42.646-1.8a4.653,4.653,0,0,0,.883-.561l.893,1.444a4.65,4.65,0,0,1-1.453.855A4.638,4.638,0,0,1,41.382.228Zm6.954,0a2.716,2.716,0,0,1-1.995-.75,2.666,2.666,0,0,1-.76-1.985,2.731,2.731,0,0,1,.313-1.321,2.7,2.7,0,0,1,.988-1,6.561,6.561,0,0,1,1.71-.7,15.636,15.636,0,0,1,2.479-.437,3.521,3.521,0,0,0-.1-.693,1.594,1.594,0,0,0-.285-.589,1.325,1.325,0,0,0-.522-.4,1.977,1.977,0,0,0-.8-.142,3.533,3.533,0,0,0-1.34.266,9.008,9.008,0,0,0-1.283.646l-.8-1.463A9.346,9.346,0,0,1,47.69-9.2a5.939,5.939,0,0,1,2.09-.361,3.209,3.209,0,0,1,2.612,1.035,4.557,4.557,0,0,1,.865,2.993V0H51.452L51.3-1.026h-.076a6.854,6.854,0,0,1-1.34.893A3.377,3.377,0,0,1,48.336.228Zm.7-1.71a2.05,2.05,0,0,0,1.035-.266,5.56,5.56,0,0,0,1-.76V-4.6a9.973,9.973,0,0,0-1.6.3,4.613,4.613,0,0,0-1.045.428,1.523,1.523,0,0,0-.57.542,1.3,1.3,0,0,0-.171.646,1.066,1.066,0,0,0,.38.912A1.571,1.571,0,0,0,49.039-1.482ZM55.879,0V-13.414h2.147v8.379h.057l3.458-4.294h2.394l-3.192,3.8L64.258,0H61.883L59.489-4.047,58.026-2.375V0ZM65.93,3.458l-.475-1.2a3.418,3.418,0,0,0,1.435-.969,1.955,1.955,0,0,0,.484-1.33H67.2a1.5,1.5,0,0,1-.979-.352,1.218,1.218,0,0,1-.427-1,1.231,1.231,0,0,1,.427-.979,1.527,1.527,0,0,1,1.035-.37,1.4,1.4,0,0,1,1.207.589,2.774,2.774,0,0,1,.427,1.653,3.939,3.939,0,0,1-.77,2.432A4.489,4.489,0,0,1,65.93,3.458ZM80.123.228a5.785,5.785,0,0,1-2.2-.418,4.888,4.888,0,0,1-1.776-1.235,5.953,5.953,0,0,1-1.188-2.014,7.949,7.949,0,0,1-.437-2.736A7.816,7.816,0,0,1,74.965-8.9a6.1,6.1,0,0,1,1.216-2.042,5.148,5.148,0,0,1,1.805-1.273,5.634,5.634,0,0,1,2.214-.437,4.459,4.459,0,0,1,2.09.475,5.555,5.555,0,0,1,1.5,1.1L82.612-9.652a4.29,4.29,0,0,0-1.064-.788,2.773,2.773,0,0,0-1.292-.294,3.117,3.117,0,0,0-1.4.313,3.239,3.239,0,0,0-1.1.893,4.2,4.2,0,0,0-.722,1.416,6.4,6.4,0,0,0-.257,1.881A5.377,5.377,0,0,0,77.7-2.9a2.978,2.978,0,0,0,2.5,1.207,3.051,3.051,0,0,0,1.482-.352,4.644,4.644,0,0,0,1.178-.921l1.178,1.387A5.326,5.326,0,0,1,82.3-.237,5,5,0,0,1,80.123.228Zm8.379,0a2.5,2.5,0,0,1-2.185-.959,4.687,4.687,0,0,1-.684-2.746V-9.329h2.185v5.567a2.9,2.9,0,0,0,.342,1.634,1.265,1.265,0,0,0,1.1.475,1.919,1.919,0,0,0,1.074-.3,4.389,4.389,0,0,0,1-.988V-9.329h2.185V0H91.732l-.171-1.368H91.5A5.482,5.482,0,0,1,90.184-.209,3.152,3.152,0,0,1,88.5.228ZM96.292,0V-9.329H98.1l.152,1.273h.076A6.546,6.546,0,0,1,99.607-9.12a2.878,2.878,0,0,1,1.568-.437,2.79,2.79,0,0,1,1.643.437,2.713,2.713,0,0,1,.941,1.235,7.5,7.5,0,0,1,1.387-1.2,2.874,2.874,0,0,1,1.615-.475,2.528,2.528,0,0,1,2.185.96,4.591,4.591,0,0,1,.7,2.746V0h-2.2V-5.567a2.839,2.839,0,0,0-.352-1.634,1.248,1.248,0,0,0-1.074-.475,2.938,2.938,0,0,0-1.957,1.159V0h-2.185V-5.567a2.839,2.839,0,0,0-.352-1.634,1.269,1.269,0,0,0-1.092-.475,2.938,2.938,0,0,0-1.957,1.159V0Z" transform="translate(602 429)"/>
    <path id="Path_1517" data-name="Path 1517" class="cls-5" d="M1.406,0V-1.786H4.1V-9.728H1.881V-11.1A10.132,10.132,0,0,0,3.449-11.5a7.028,7.028,0,0,0,1.226-.58H6.308v10.3H8.683V0ZM14.63.228a5.231,5.231,0,0,1-1.643-.247A4.051,4.051,0,0,1,11.694-.7a3.237,3.237,0,0,1-.855-1.045A2.9,2.9,0,0,1,10.526-3.1a2.843,2.843,0,0,1,.181-1.036,3.191,3.191,0,0,1,.484-.845,4.17,4.17,0,0,1,.693-.684,5.4,5.4,0,0,1,.826-.532V-6.27a4.88,4.88,0,0,1-1.187-1.178A2.786,2.786,0,0,1,11.039-9.1a3.1,3.1,0,0,1,.276-1.33,2.983,2.983,0,0,1,.76-1.007,3.436,3.436,0,0,1,1.159-.646,4.511,4.511,0,0,1,1.453-.228,4.3,4.3,0,0,1,1.473.238,3.293,3.293,0,0,1,1.121.665,2.851,2.851,0,0,1,.713,1.026,3.481,3.481,0,0,1,.247,1.339,2.606,2.606,0,0,1-.142.865,3.523,3.523,0,0,1-.371.76,3.953,3.953,0,0,1-.522.646,5.052,5.052,0,0,1-.58.5v.076a5.96,5.96,0,0,1,.8.523A3.529,3.529,0,0,1,18.088-5a3.249,3.249,0,0,1,.456.855,3.186,3.186,0,0,1,.171,1.083,2.907,2.907,0,0,1-.295,1.3,3.2,3.2,0,0,1-.826,1.045A3.821,3.821,0,0,1,16.3-.019,5.385,5.385,0,0,1,14.63.228Zm.8-7.049a3.924,3.924,0,0,0,.75-1.007,2.39,2.39,0,0,0,.257-1.083,1.911,1.911,0,0,0-.465-1.321,1.676,1.676,0,0,0-1.32-.522,1.7,1.7,0,0,0-1.178.427A1.564,1.564,0,0,0,13-9.1a1.617,1.617,0,0,0,.19.8,1.949,1.949,0,0,0,.523.6,4.692,4.692,0,0,0,.769.475A9.513,9.513,0,0,0,15.428-6.821Zm-.76,5.491A2.142,2.142,0,0,0,16.1-1.8a1.648,1.648,0,0,0,.56-1.33,1.52,1.52,0,0,0-.228-.845,2.318,2.318,0,0,0-.618-.627,5.014,5.014,0,0,0-.921-.5q-.532-.228-1.14-.475a3.763,3.763,0,0,0-.94.988,2.286,2.286,0,0,0-.371,1.273,1.8,1.8,0,0,0,.646,1.454A2.373,2.373,0,0,0,14.668-1.33ZM29.7.228a5.424,5.424,0,0,1-2.223-.447A4.813,4.813,0,0,1,25.745-1.51a6.051,6.051,0,0,1-1.121-2.043,8.573,8.573,0,0,1-.4-2.717,8.419,8.419,0,0,1,.4-2.688,5.75,5.75,0,0,1,1.121-2,4.862,4.862,0,0,1,1.729-1.254,5.526,5.526,0,0,1,2.223-.437,5.526,5.526,0,0,1,2.223.437,4.954,4.954,0,0,1,1.739,1.254,5.667,5.667,0,0,1,1.131,2,8.419,8.419,0,0,1,.4,2.688,8.573,8.573,0,0,1-.4,2.717A5.961,5.961,0,0,1,33.659-1.51,4.9,4.9,0,0,1,31.92-.219,5.424,5.424,0,0,1,29.7.228Zm0-1.919a2.72,2.72,0,0,0,1.33-.323,2.962,2.962,0,0,0,1.007-.921,4.586,4.586,0,0,0,.646-1.444,7.262,7.262,0,0,0,.228-1.891,5.474,5.474,0,0,0-.864-3.277A2.751,2.751,0,0,0,29.7-10.735a2.751,2.751,0,0,0-2.347,1.188,5.474,5.474,0,0,0-.865,3.277,7.262,7.262,0,0,0,.228,1.891,4.586,4.586,0,0,0,.646,1.444,2.962,2.962,0,0,0,1.007.921A2.72,2.72,0,0,0,29.7-1.691ZM41.382.228a4.837,4.837,0,0,1-1.777-.323,4,4,0,0,1-1.435-.95,4.393,4.393,0,0,1-.95-1.539,5.869,5.869,0,0,1-.342-2.071,5.342,5.342,0,0,1,.38-2.071,4.553,4.553,0,0,1,1.026-1.539,4.467,4.467,0,0,1,1.491-.959,4.81,4.81,0,0,1,1.777-.333,3.7,3.7,0,0,1,1.568.3,5.1,5.1,0,0,1,1.168.741L43.225-7.087a3.618,3.618,0,0,0-.75-.5,1.819,1.819,0,0,0-.807-.181,2.281,2.281,0,0,0-1.843.846,3.44,3.44,0,0,0-.7,2.27A3.44,3.44,0,0,0,39.814-2.4a2.215,2.215,0,0,0,1.8.845A2.321,2.321,0,0,0,42.646-1.8a4.653,4.653,0,0,0,.883-.561l.893,1.444a4.65,4.65,0,0,1-1.453.855A4.638,4.638,0,0,1,41.382.228Zm6.954,0a2.716,2.716,0,0,1-1.995-.75,2.666,2.666,0,0,1-.76-1.985,2.731,2.731,0,0,1,.313-1.321,2.7,2.7,0,0,1,.988-1,6.561,6.561,0,0,1,1.71-.7,15.636,15.636,0,0,1,2.479-.437,3.521,3.521,0,0,0-.1-.693,1.594,1.594,0,0,0-.285-.589,1.325,1.325,0,0,0-.522-.4,1.977,1.977,0,0,0-.8-.142,3.533,3.533,0,0,0-1.34.266,9.008,9.008,0,0,0-1.283.646l-.8-1.463A9.346,9.346,0,0,1,47.69-9.2a5.939,5.939,0,0,1,2.09-.361,3.209,3.209,0,0,1,2.612,1.035,4.557,4.557,0,0,1,.865,2.993V0H51.452L51.3-1.026h-.076a6.854,6.854,0,0,1-1.34.893A3.377,3.377,0,0,1,48.336.228Zm.7-1.71a2.05,2.05,0,0,0,1.035-.266,5.56,5.56,0,0,0,1-.76V-4.6a9.973,9.973,0,0,0-1.6.3,4.613,4.613,0,0,0-1.045.428,1.523,1.523,0,0,0-.57.542,1.3,1.3,0,0,0-.171.646,1.066,1.066,0,0,0,.38.912A1.571,1.571,0,0,0,49.039-1.482ZM55.879,0V-13.414h2.147v8.379h.057l3.458-4.294h2.394l-3.192,3.8L64.258,0H61.883L59.489-4.047,58.026-2.375V0ZM65.93,3.458l-.475-1.2a3.418,3.418,0,0,0,1.435-.969,1.955,1.955,0,0,0,.484-1.33H67.2a1.5,1.5,0,0,1-.979-.352,1.218,1.218,0,0,1-.427-1,1.231,1.231,0,0,1,.427-.979,1.527,1.527,0,0,1,1.035-.37,1.4,1.4,0,0,1,1.207.589,2.774,2.774,0,0,1,.427,1.653,3.939,3.939,0,0,1-.77,2.432A4.489,4.489,0,0,1,65.93,3.458ZM80.123.228a5.785,5.785,0,0,1-2.2-.418,4.888,4.888,0,0,1-1.776-1.235,5.953,5.953,0,0,1-1.188-2.014,7.949,7.949,0,0,1-.437-2.736A7.816,7.816,0,0,1,74.965-8.9a6.1,6.1,0,0,1,1.216-2.042,5.148,5.148,0,0,1,1.805-1.273,5.634,5.634,0,0,1,2.214-.437,4.459,4.459,0,0,1,2.09.475,5.555,5.555,0,0,1,1.5,1.1L82.612-9.652a4.29,4.29,0,0,0-1.064-.788,2.773,2.773,0,0,0-1.292-.294,3.117,3.117,0,0,0-1.4.313,3.239,3.239,0,0,0-1.1.893,4.2,4.2,0,0,0-.722,1.416,6.4,6.4,0,0,0-.257,1.881A5.377,5.377,0,0,0,77.7-2.9a2.978,2.978,0,0,0,2.5,1.207,3.051,3.051,0,0,0,1.482-.352,4.644,4.644,0,0,0,1.178-.921l1.178,1.387A5.326,5.326,0,0,1,82.3-.237,5,5,0,0,1,80.123.228Zm8.474,0a3.413,3.413,0,0,1-1.378-.247,2.335,2.335,0,0,1-.912-.694,2.871,2.871,0,0,1-.513-1.064,5.446,5.446,0,0,1-.161-1.377V-7.6H84.3V-9.234l1.444-.095.266-2.546h1.824v2.546h2.375V-7.6H87.837v4.446q0,1.634,1.311,1.634a2.317,2.317,0,0,0,.5-.057,2.361,2.361,0,0,0,.465-.152L90.5-.114a7.272,7.272,0,0,1-.864.238A4.905,4.905,0,0,1,88.6.228Zm5.985,0a5.17,5.17,0,0,1-1.91-.37,6.178,6.178,0,0,1-1.624-.922L92.074-2.47a5.931,5.931,0,0,0,1.244.769,3.25,3.25,0,0,0,1.34.275,1.68,1.68,0,0,0,1.121-.313,1.02,1.02,0,0,0,.361-.808.794.794,0,0,0-.171-.5,1.643,1.643,0,0,0-.456-.389,4.383,4.383,0,0,0-.646-.314q-.361-.143-.722-.294-.456-.171-.931-.4A3.743,3.743,0,0,1,92.368-5a2.779,2.779,0,0,1-.608-.751,2.062,2.062,0,0,1-.238-1.016,2.526,2.526,0,0,1,.912-2.014,3.708,3.708,0,0,1,2.489-.779,4.3,4.3,0,0,1,1.748.342,6.507,6.507,0,0,1,1.349.779l-1.007,1.33a5.211,5.211,0,0,0-1-.579A2.621,2.621,0,0,0,94.962-7.9a1.532,1.532,0,0,0-1.035.295.938.938,0,0,0-.333.732.745.745,0,0,0,.161.484,1.5,1.5,0,0,0,.428.352,4.352,4.352,0,0,0,.618.285q.351.133.731.266.475.171.95.39a3.9,3.9,0,0,1,.865.542,2.469,2.469,0,0,1,.627.788,2.419,2.419,0,0,1,.238,1.112,2.7,2.7,0,0,1-.238,1.131,2.611,2.611,0,0,1-.694.912A3.378,3.378,0,0,1,96.14,0,4.918,4.918,0,0,1,94.582.228Z" transform="translate(758 429)"/>
    <path id="Path_1515" data-name="Path 1515" class="cls-5" d="M1.406,0V-1.786H4.1V-9.728H1.881V-11.1A10.132,10.132,0,0,0,3.449-11.5a7.028,7.028,0,0,0,1.226-.58H6.308v10.3H8.683V0ZM14.383-6.194a2.237,2.237,0,0,0,1.112-.332A3.167,3.167,0,0,0,16.549-7.6a4.265,4.265,0,0,0-.788-2.318,1.9,1.9,0,0,0-1.491-.722A1.658,1.658,0,0,0,13-10.051a2.439,2.439,0,0,0-.532,1.691,2.311,2.311,0,0,0,.5,1.624A1.837,1.837,0,0,0,14.383-6.194ZM13.87.228a4.159,4.159,0,0,1-1.881-.4A4.905,4.905,0,0,1,10.64-1.14l1.178-1.33a2.67,2.67,0,0,0,.865.655,2.41,2.41,0,0,0,1.073.256,2.572,2.572,0,0,0,1.074-.228,2.242,2.242,0,0,0,.883-.751,4.288,4.288,0,0,0,.618-1.378,9.029,9.029,0,0,0,.275-2.109,3.842,3.842,0,0,1-1.254,1.036,3.037,3.037,0,0,1-1.387.37,4.257,4.257,0,0,1-1.425-.228,2.926,2.926,0,0,1-1.112-.694,3.151,3.151,0,0,1-.722-1.168A4.821,4.821,0,0,1,10.45-8.36a4.246,4.246,0,0,1,.3-1.644,3.8,3.8,0,0,1,.817-1.245,3.528,3.528,0,0,1,1.207-.788,3.951,3.951,0,0,1,1.472-.276,4.1,4.1,0,0,1,1.672.352,3.786,3.786,0,0,1,1.4,1.073,5.384,5.384,0,0,1,.95,1.833,8.767,8.767,0,0,1,.351,2.632A10.265,10.265,0,0,1,18.23-3.4,6.115,6.115,0,0,1,17.185-1.34a4.052,4.052,0,0,1-1.52,1.188A4.416,4.416,0,0,1,13.87.228ZM29.7.228a5.424,5.424,0,0,1-2.223-.447A4.813,4.813,0,0,1,25.745-1.51a6.051,6.051,0,0,1-1.121-2.043,8.573,8.573,0,0,1-.4-2.717,8.419,8.419,0,0,1,.4-2.688,5.75,5.75,0,0,1,1.121-2,4.862,4.862,0,0,1,1.729-1.254,5.526,5.526,0,0,1,2.223-.437,5.526,5.526,0,0,1,2.223.437,4.954,4.954,0,0,1,1.739,1.254,5.667,5.667,0,0,1,1.131,2,8.419,8.419,0,0,1,.4,2.688,8.573,8.573,0,0,1-.4,2.717A5.961,5.961,0,0,1,33.659-1.51,4.9,4.9,0,0,1,31.92-.219,5.424,5.424,0,0,1,29.7.228Zm0-1.919a2.72,2.72,0,0,0,1.33-.323,2.962,2.962,0,0,0,1.007-.921,4.586,4.586,0,0,0,.646-1.444,7.262,7.262,0,0,0,.228-1.891,5.474,5.474,0,0,0-.864-3.277A2.751,2.751,0,0,0,29.7-10.735a2.751,2.751,0,0,0-2.347,1.188,5.474,5.474,0,0,0-.865,3.277,7.262,7.262,0,0,0,.228,1.891,4.586,4.586,0,0,0,.646,1.444,2.962,2.962,0,0,0,1.007.921A2.72,2.72,0,0,0,29.7-1.691ZM41.382.228a4.837,4.837,0,0,1-1.777-.323,4,4,0,0,1-1.435-.95,4.393,4.393,0,0,1-.95-1.539,5.869,5.869,0,0,1-.342-2.071,5.342,5.342,0,0,1,.38-2.071,4.553,4.553,0,0,1,1.026-1.539,4.467,4.467,0,0,1,1.491-.959,4.81,4.81,0,0,1,1.777-.333,3.7,3.7,0,0,1,1.568.3,5.1,5.1,0,0,1,1.168.741L43.225-7.087a3.618,3.618,0,0,0-.75-.5,1.819,1.819,0,0,0-.807-.181,2.281,2.281,0,0,0-1.843.846,3.44,3.44,0,0,0-.7,2.27A3.44,3.44,0,0,0,39.814-2.4a2.215,2.215,0,0,0,1.8.845A2.321,2.321,0,0,0,42.646-1.8a4.653,4.653,0,0,0,.883-.561l.893,1.444a4.65,4.65,0,0,1-1.453.855A4.638,4.638,0,0,1,41.382.228Zm6.954,0a2.716,2.716,0,0,1-1.995-.75,2.666,2.666,0,0,1-.76-1.985,2.731,2.731,0,0,1,.313-1.321,2.7,2.7,0,0,1,.988-1,6.561,6.561,0,0,1,1.71-.7,15.636,15.636,0,0,1,2.479-.437,3.521,3.521,0,0,0-.1-.693,1.594,1.594,0,0,0-.285-.589,1.325,1.325,0,0,0-.522-.4,1.977,1.977,0,0,0-.8-.142,3.533,3.533,0,0,0-1.34.266,9.008,9.008,0,0,0-1.283.646l-.8-1.463A9.346,9.346,0,0,1,47.69-9.2a5.939,5.939,0,0,1,2.09-.361,3.209,3.209,0,0,1,2.612,1.035,4.557,4.557,0,0,1,.865,2.993V0H51.452L51.3-1.026h-.076a6.854,6.854,0,0,1-1.34.893A3.377,3.377,0,0,1,48.336.228Zm.7-1.71a2.05,2.05,0,0,0,1.035-.266,5.56,5.56,0,0,0,1-.76V-4.6a9.973,9.973,0,0,0-1.6.3,4.613,4.613,0,0,0-1.045.428,1.523,1.523,0,0,0-.57.542,1.3,1.3,0,0,0-.171.646,1.066,1.066,0,0,0,.38.912A1.571,1.571,0,0,0,49.039-1.482ZM55.879,0V-13.414h2.147v8.379h.057l3.458-4.294h2.394l-3.192,3.8L64.258,0H61.883L59.489-4.047,58.026-2.375V0ZM65.93,3.458l-.475-1.2a3.418,3.418,0,0,0,1.435-.969,1.955,1.955,0,0,0,.484-1.33H67.2a1.5,1.5,0,0,1-.979-.352,1.218,1.218,0,0,1-.427-1,1.231,1.231,0,0,1,.427-.979,1.527,1.527,0,0,1,1.035-.37,1.4,1.4,0,0,1,1.207.589,2.774,2.774,0,0,1,.427,1.653,3.939,3.939,0,0,1-.77,2.432A4.489,4.489,0,0,1,65.93,3.458ZM75.164,0V-12.426h3.914a9.078,9.078,0,0,1,1.91.19,4.122,4.122,0,0,1,1.53.646A3.114,3.114,0,0,1,83.524-10.4a4.08,4.08,0,0,1,.361,1.814A4.123,4.123,0,0,1,83.524-6.8a3.5,3.5,0,0,1-1,1.264,4.167,4.167,0,0,1-1.5.741,7.044,7.044,0,0,1-1.871.238H77.368V0Zm2.2-6.327h1.615q2.736,0,2.736-2.261a1.764,1.764,0,0,0-.712-1.625,4,4,0,0,0-2.1-.446H77.368ZM87.571.228a2.716,2.716,0,0,1-2-.75,2.666,2.666,0,0,1-.76-1.985,2.731,2.731,0,0,1,.313-1.321,2.7,2.7,0,0,1,.988-1,6.561,6.561,0,0,1,1.71-.7,15.636,15.636,0,0,1,2.479-.437,3.522,3.522,0,0,0-.1-.693,1.594,1.594,0,0,0-.285-.589,1.325,1.325,0,0,0-.522-.4,1.977,1.977,0,0,0-.8-.142,3.533,3.533,0,0,0-1.34.266,9.008,9.008,0,0,0-1.283.646l-.8-1.463A9.346,9.346,0,0,1,86.925-9.2a5.939,5.939,0,0,1,2.09-.361,3.209,3.209,0,0,1,2.612,1.035,4.557,4.557,0,0,1,.865,2.993V0H90.687l-.152-1.026h-.076a6.854,6.854,0,0,1-1.34.893A3.377,3.377,0,0,1,87.571.228Zm.7-1.71a2.05,2.05,0,0,0,1.035-.266,5.56,5.56,0,0,0,1-.76V-4.6a9.973,9.973,0,0,0-1.6.3,4.613,4.613,0,0,0-1.045.428,1.523,1.523,0,0,0-.57.542,1.3,1.3,0,0,0-.171.646,1.066,1.066,0,0,0,.38.912A1.571,1.571,0,0,0,88.274-1.482ZM94.373,0V-1.178L98.781-7.6H94.867V-9.329h6.65V-8.17L97.128-1.748h4.541V0Z" transform="translate(902 429)"/>
    <path id="Path_1518" data-name="Path 1518" class="cls-6" d="M0,0H984" transform="translate(21 287)"/>
    <path id="Path_1523" data-name="Path 1523" class="cls-6" d="M0,0H984" transform="translate(21 237)"/>
    <path id="Path_1524" data-name="Path 1524" class="cls-6" d="M0,0H984" transform="translate(21 187)"/>
    <path id="Path_1528" data-name="Path 1528" class="cls-6" d="M0,0H984" transform="translate(20 137)"/>
    <path id="Path_1539" data-name="Path 1539" class="cls-6" d="M0,0H984" transform="translate(20 87)"/>
    <path id="Path_1543" data-name="Path 1543" class="cls-6" d="M0,0H58" transform="translate(21 287)"/>
    <path id="Path_1519" data-name="Path 1519" class="cls-6" d="M0,0H984" transform="translate(21 337)"/>
    <path id="Path_1520" data-name="Path 1520" class="cls-6" d="M0,0H984" transform="translate(21 388)"/>
    <path id="Path_1544" data-name="Path 1544" class="cls-6" d="M0,0H30" transform="translate(21 237)"/>
    <path id="Path_1228" data-name="Path 1228" class="cls-7" d="M3744.841,4473.217s80.887-309.926,173.828-319.161,117.048,248.856,194.884,243,69.272-198.714,144.387-194.108,66.976,251.958,151,251.958,110.181-212.259,185.1-251.958,94.94,62.7,183.423,226.578" transform="translate(-3750.94 -4067.137)"/>
    <path id="Path_1229" data-name="Path 1229" class="cls-8" d="M0,0S203.253,244.314,290.4,223.833,412.93,51.49,521.93,47.274s153.968,165.833,285,143.609S1046.057,0,1046.057,0" transform="translate(1028.93 387.766) rotate(180)"/>
    <g class="cls-24" transform="matrix(1, 0, 0, 1, 0, 0)">
      <rect id="Rectangle_650-3" data-name="Rectangle 650" class="cls-9" width="190" height="80" rx="5" transform="translate(55 225)"/>
    </g>
    <path id="Path_1540" data-name="Path 1540" class="cls-5" d="M6.069.2A5.69,5.69,0,0,1,3.987-.17,4.612,4.612,0,0,1,2.32-1.275a5.046,5.046,0,0,1-1.1-1.8A7.112,7.112,0,0,1,.833-5.525a6.861,6.861,0,0,1,.408-2.44A5.417,5.417,0,0,1,2.355-9.792,4.7,4.7,0,0,1,4.02-10.931a5.425,5.425,0,0,1,2.066-.391,4.286,4.286,0,0,1,2.015.434,5.29,5.29,0,0,1,1.351.977L8.4-8.636a4.334,4.334,0,0,0-.944-.688,2.711,2.711,0,0,0-1.3-.28,3.169,3.169,0,0,0-1.352.28,2.968,2.968,0,0,0-1.037.8,3.7,3.7,0,0,0-.671,1.267,5.539,5.539,0,0,0-.238,1.683,4.674,4.674,0,0,0,.859,2.984A3.052,3.052,0,0,0,6.256-1.513a3.12,3.12,0,0,0,.9-.128,1.849,1.849,0,0,0,.7-.365V-4.4H5.746V-6.018H9.622v4.9a4.5,4.5,0,0,1-1.487.943A5.365,5.365,0,0,1,6.069.2ZM12.087,0V-11.118h1.972V0Zm.986-12.019a1.227,1.227,0,0,1-.867-.314,1.051,1.051,0,0,1-.34-.807,1.024,1.024,0,0,1,.34-.8,1.247,1.247,0,0,1,.867-.306,1.247,1.247,0,0,1,.867.306,1.024,1.024,0,0,1,.34.8,1.051,1.051,0,0,1-.34.807A1.227,1.227,0,0,1,13.073-12.019ZM16.881,0V-11.118h2.975a5.494,5.494,0,0,1,3.978,1.377A5.489,5.489,0,0,1,25.262-5.61,7.41,7.41,0,0,1,24.9-3.179a4.663,4.663,0,0,1-1.054,1.76A4.4,4.4,0,0,1,22.177-.357,6.439,6.439,0,0,1,19.958,0Zm1.972-1.6h.867a3.389,3.389,0,0,0,2.609-.978,4.337,4.337,0,0,0,.91-3.035,4.12,4.12,0,0,0-.918-2.975,3.48,3.48,0,0,0-2.6-.935h-.867ZM27.506,0V-11.118h6.7v1.666H29.478v2.839h4v1.666h-4v3.281h4.9V0Zm9.146,0V-11.118h3.757a7.28,7.28,0,0,1,1.615.17,3.612,3.612,0,0,1,1.292.552,2.672,2.672,0,0,1,.858,1.012,3.479,3.479,0,0,1,.315,1.564,3.275,3.275,0,0,1-.6,2.057,3.321,3.321,0,0,1-1.607,1.122L44.931,0h-2.21l-2.4-4.352h-1.7V0Zm1.972-5.916h1.581a2.763,2.763,0,0,0,1.743-.476,1.708,1.708,0,0,0,.6-1.428,1.452,1.452,0,0,0-.6-1.343,3.332,3.332,0,0,0-1.743-.374H38.624Z" transform="translate(125 257)"/>
    <path id="Path_1541" data-name="Path 1541" class="cls-4" d="M.966-4.83V-6.762H6.44V-4.83ZM12.926.276a6.657,6.657,0,0,1-2.99-.6A6.538,6.538,0,0,1,7.958-1.794L9.223-3.5a6.781,6.781,0,0,0,1.518,1.138,3.967,3.967,0,0,0,1.955.472,3.057,3.057,0,0,0,1.943-.587,1.947,1.947,0,0,0,.748-1.621,2.5,2.5,0,0,0-.207-1.035,1.838,1.838,0,0,0-.7-.782,3.881,3.881,0,0,0-1.323-.495,10.388,10.388,0,0,0-2.07-.173V-8.51a7.956,7.956,0,0,0,1.806-.172,3.465,3.465,0,0,0,1.173-.483,1.807,1.807,0,0,0,.644-.748,2.283,2.283,0,0,0,.2-.943,1.835,1.835,0,0,0-.575-1.437,2.287,2.287,0,0,0-1.587-.517,3.257,3.257,0,0,0-1.576.38,6.693,6.693,0,0,0-1.368,1L8.441-13.064A8.657,8.657,0,0,1,10.453-14.4a5.5,5.5,0,0,1,2.38-.506,6.934,6.934,0,0,1,1.932.253,4.28,4.28,0,0,1,1.495.748,3.413,3.413,0,0,1,.966,1.219,3.779,3.779,0,0,1,.345,1.645,3.158,3.158,0,0,1-.678,2.07,4.4,4.4,0,0,1-1.875,1.288v.092a4.465,4.465,0,0,1,2.174,1.265,3.325,3.325,0,0,1,.862,2.369,3.865,3.865,0,0,1-.4,1.794,3.909,3.909,0,0,1-1.1,1.322,5.123,5.123,0,0,1-1.633.828A6.711,6.711,0,0,1,12.926.276Zm9.453,0a1.651,1.651,0,0,1-1.23-.506,1.767,1.767,0,0,1-.495-1.288,1.767,1.767,0,0,1,.495-1.288,1.651,1.651,0,0,1,1.23-.506,1.614,1.614,0,0,1,1.219.506,1.79,1.79,0,0,1,.483,1.288A1.79,1.79,0,0,1,23.6-.23,1.614,1.614,0,0,1,22.379.276Zm8.694,0a6.565,6.565,0,0,1-2.978-.609,7.764,7.764,0,0,1-2.013-1.414L27.3-3.45a7.974,7.974,0,0,0,1.5,1.092,3.837,3.837,0,0,0,1.932.472,2.875,2.875,0,0,0,2.035-.736,2.684,2.684,0,0,0,.793-2.07,2.688,2.688,0,0,0-.736-2.024,2.69,2.69,0,0,0-1.955-.713,3.2,3.2,0,0,0-1.2.2,6.943,6.943,0,0,0-1.15.633l-1.265-.805.437-7.222h7.82V-12.4h-5.52l-.3,3.542a5.176,5.176,0,0,1,.909-.357,3.777,3.777,0,0,1,1.023-.126,5.671,5.671,0,0,1,1.783.276,4.006,4.006,0,0,1,1.46.84A4.025,4.025,0,0,1,35.857-6.8a5.161,5.161,0,0,1,.368,2.036A5.147,5.147,0,0,1,35.8-2.622a4.725,4.725,0,0,1-1.138,1.587,4.881,4.881,0,0,1-1.645.978A5.722,5.722,0,0,1,31.073.276Zm12.144,0a4.173,4.173,0,0,1-3.634-1.967,10.125,10.125,0,0,1-1.334-5.693,9.775,9.775,0,0,1,1.334-5.623,4.213,4.213,0,0,1,3.634-1.9,4.206,4.206,0,0,1,3.634,1.909,9.784,9.784,0,0,1,1.334,5.612,10.125,10.125,0,0,1-1.334,5.693A4.173,4.173,0,0,1,43.217.276Zm0-2.07a1.776,1.776,0,0,0,.978-.288,2.259,2.259,0,0,0,.77-.954,6.636,6.636,0,0,0,.506-1.725,15.665,15.665,0,0,0,.184-2.622,15.286,15.286,0,0,0-.184-2.587,6.259,6.259,0,0,0-.506-1.691,2.1,2.1,0,0,0-.77-.909,1.89,1.89,0,0,0-.978-.264,1.89,1.89,0,0,0-.978.264,2.1,2.1,0,0,0-.771.909,6.259,6.259,0,0,0-.506,1.691,15.286,15.286,0,0,0-.184,2.587,15.665,15.665,0,0,0,.184,2.622,6.637,6.637,0,0,0,.506,1.725,2.259,2.259,0,0,0,.771.954A1.776,1.776,0,0,0,43.217-1.794Zm11.8,2.07a4.173,4.173,0,0,1-3.634-1.967,10.125,10.125,0,0,1-1.334-5.693,9.775,9.775,0,0,1,1.334-5.623,4.213,4.213,0,0,1,3.634-1.9,4.206,4.206,0,0,1,3.634,1.909,9.784,9.784,0,0,1,1.334,5.612A10.125,10.125,0,0,1,58.65-1.691,4.173,4.173,0,0,1,55.016.276Zm0-2.07a1.776,1.776,0,0,0,.978-.288,2.259,2.259,0,0,0,.771-.954,6.636,6.636,0,0,0,.506-1.725,15.665,15.665,0,0,0,.184-2.622A15.286,15.286,0,0,0,57.27-9.97a6.259,6.259,0,0,0-.506-1.691,2.1,2.1,0,0,0-.771-.909,1.89,1.89,0,0,0-.978-.264,1.89,1.89,0,0,0-.978.264,2.1,2.1,0,0,0-.771.909,6.259,6.259,0,0,0-.506,1.691,15.286,15.286,0,0,0-.184,2.587,15.665,15.665,0,0,0,.184,2.622,6.637,6.637,0,0,0,.506,1.725,2.259,2.259,0,0,0,.771.954A1.776,1.776,0,0,0,55.016-1.794Zm7.567,5.98-.575-1.449a4.137,4.137,0,0,0,1.736-1.173,2.367,2.367,0,0,0,.587-1.61h-.207a1.813,1.813,0,0,1-1.185-.426,1.475,1.475,0,0,1-.518-1.208,1.491,1.491,0,0,1,.518-1.184,1.848,1.848,0,0,1,1.254-.448,1.7,1.7,0,0,1,1.46.713,3.359,3.359,0,0,1,.518,2,4.768,4.768,0,0,1-.931,2.944A5.434,5.434,0,0,1,62.583,4.186ZM73.14.276a4.173,4.173,0,0,1-3.634-1.967,10.125,10.125,0,0,1-1.334-5.693,9.775,9.775,0,0,1,1.334-5.623,4.213,4.213,0,0,1,3.634-1.9,4.206,4.206,0,0,1,3.634,1.909,9.784,9.784,0,0,1,1.334,5.612,10.125,10.125,0,0,1-1.334,5.693A4.173,4.173,0,0,1,73.14.276Zm0-2.07a1.776,1.776,0,0,0,.978-.288,2.259,2.259,0,0,0,.771-.954,6.636,6.636,0,0,0,.506-1.725,15.665,15.665,0,0,0,.184-2.622,15.285,15.285,0,0,0-.184-2.587,6.258,6.258,0,0,0-.506-1.691,2.1,2.1,0,0,0-.771-.909,1.89,1.89,0,0,0-.978-.264,1.89,1.89,0,0,0-.978.264,2.1,2.1,0,0,0-.771.909,6.258,6.258,0,0,0-.506,1.691A15.285,15.285,0,0,0,70.7-7.383a15.665,15.665,0,0,0,.184,2.622,6.636,6.636,0,0,0,.506,1.725,2.259,2.259,0,0,0,.771.954A1.776,1.776,0,0,0,73.14-1.794Zm11.8,2.07a4.173,4.173,0,0,1-3.634-1.967,10.125,10.125,0,0,1-1.334-5.693,9.775,9.775,0,0,1,1.334-5.623,4.213,4.213,0,0,1,3.634-1.9,4.206,4.206,0,0,1,3.634,1.909,9.784,9.784,0,0,1,1.334,5.612,10.125,10.125,0,0,1-1.334,5.693A4.173,4.173,0,0,1,84.939.276Zm0-2.07a1.776,1.776,0,0,0,.978-.288,2.259,2.259,0,0,0,.771-.954,6.636,6.636,0,0,0,.506-1.725,15.665,15.665,0,0,0,.184-2.622,15.286,15.286,0,0,0-.184-2.587,6.258,6.258,0,0,0-.506-1.691,2.1,2.1,0,0,0-.771-.909,1.89,1.89,0,0,0-.978-.264,1.89,1.89,0,0,0-.978.264,2.1,2.1,0,0,0-.771.909,6.258,6.258,0,0,0-.506,1.691A15.285,15.285,0,0,0,82.5-7.383a15.665,15.665,0,0,0,.184,2.622,6.636,6.636,0,0,0,.506,1.725,2.259,2.259,0,0,0,.771.954A1.776,1.776,0,0,0,84.939-1.794ZM93.2.276v-5.8L91.264-4.508V-6.049L93.2-7.061V-8.51L91.264-7.5V-9.039L93.2-10.074v-4.554h2.668v3.266l3.565-1.886v1.541L95.864-9.821v1.449l3.565-1.886v1.541L95.864-6.831v4.623a5.214,5.214,0,0,0,1.38-.287,3.937,3.937,0,0,0,1.219-.679,3.615,3.615,0,0,0,.863-1.035,2.738,2.738,0,0,0,.333-1.357q0-.161-.011-.356a2.635,2.635,0,0,0-.08-.472l2.208-.552a5.822,5.822,0,0,1,.161,1.265,5.462,5.462,0,0,1-.621,2.656,5.236,5.236,0,0,1-1.76,1.886,8.192,8.192,0,0,1-2.76,1.1A15.144,15.144,0,0,1,93.2.276Z" transform="translate(125 284)"/>
    <g id="Path_1542" data-name="Path 1542" class="cls-10" transform="translate(75 245)">
      <path class="cls-18" d="M 20 39.5 C 17.36730003356934 39.5 14.8136100769043 38.98448944091797 12.40987968444824 37.96780014038086 C 10.08788967132568 36.98567962646484 8.002429962158203 35.57958984375 6.211420059204102 33.78858184814453 C 4.42041015625 31.99757957458496 3.014319896697998 29.9121208190918 2.03220009803772 27.59012985229492 C 1.015509963035583 25.1863899230957 0.5 22.63269996643066 0.5 20 C 0.5 17.36730003356934 1.015509963035583 14.8136100769043 2.03220009803772 12.40987968444824 C 3.014319896697998 10.08788967132568 4.42041015625 8.002429962158203 6.211420059204102 6.211420059204102 C 8.002429962158203 4.42041015625 10.08788967132568 3.014319896697998 12.40987968444824 2.03220009803772 C 14.8136100769043 1.015509963035583 17.36730003356934 0.5 20 0.5 C 22.63269996643066 0.5 25.1863899230957 1.015509963035583 27.59012985229492 2.03220009803772 C 29.9121208190918 3.014319896697998 31.99757957458496 4.42041015625 33.78858184814453 6.211420059204102 C 35.57958984375 8.002429962158203 36.98567962646484 10.08788967132568 37.96780014038086 12.40987968444824 C 38.98448944091797 14.8136100769043 39.5 17.36730003356934 39.5 20 C 39.5 22.63269996643066 38.98448944091797 25.1863899230957 37.96780014038086 27.59012985229492 C 36.98567962646484 29.9121208190918 35.57958984375 31.99757957458496 33.78858184814453 33.78858184814453 C 31.99757957458496 35.57958984375 29.9121208190918 36.98567962646484 27.59012985229492 37.96780014038086 C 25.1863899230957 38.98448944091797 22.63269996643066 39.5 20 39.5 Z"/>
      <path class="cls-20" d="M 20 1 C 17.4345703125 1 14.94642066955566 1.502220153808594 12.60465049743652 2.492698669433594 C 10.34226036071777 3.449611663818359 8.310220718383789 4.819721221923828 6.564968109130859 6.564968109130859 C 4.819721221923828 8.310220718383789 3.449611663818359 10.34226036071777 2.492698669433594 12.60465049743652 C 1.502220153808594 14.94642066955566 1 17.4345703125 1 20 C 1 22.5654296875 1.502220153808594 25.05358123779297 2.492698669433594 27.39535140991211 C 3.449611663818359 29.65773963928223 4.819721221923828 31.68978118896484 6.564968109130859 33.43502807617188 C 8.310220718383789 35.18027877807617 10.34226036071777 36.55038833618164 12.60465049743652 37.50730133056641 C 14.94642066955566 38.49777984619141 17.4345703125 39 20 39 C 22.5654296875 39 25.05358123779297 38.49777984619141 27.39535140991211 37.50730133056641 C 29.65773963928223 36.55038833618164 31.68978118896484 35.18027877807617 33.43502807617188 33.43502807617188 C 35.18027877807617 31.68978118896484 36.55038833618164 29.65773963928223 37.50730133056641 27.39535140991211 C 38.49777984619141 25.05358123779297 39 22.5654296875 39 20 C 39 17.4345703125 38.49777984619141 14.94642066955566 37.50730133056641 12.60465049743652 C 36.55038833618164 10.34226036071777 35.18027877807617 8.310220718383789 33.43502807617188 6.564968109130859 C 31.68978118896484 4.819721221923828 29.65773963928223 3.449611663818359 27.39535140991211 2.492698669433594 C 25.05358123779297 1.502220153808594 22.5654296875 1 20 1 M 20 0 C 31.04570007324219 0 40 8.954299926757812 40 20 C 40 31.04570007324219 31.04570007324219 40 20 40 C 8.954299926757812 40 0 31.04570007324219 0 20 C 0 8.954299926757812 8.954299926757812 0 20 0 Z"/>
    </g>
    <g id="Mask_Group_44" data-name="Mask Group 44" class="cls-11" transform="translate(233.614 280.992) rotate(135)">
      <g id="arrow-left" transform="translate(78.513 101.513)">
        <line id="Line_29" data-name="Line 29" class="cls-12" x1="14.975" transform="translate(0 7.487)"/>
        <path id="Path_21" data-name="Path 21" class="cls-12" d="M14.915,22.4,7.428,14.915l7.487-7.487" transform="translate(-7.428 -7.428)"/>
      </g>
    </g>
    <g class="cls-23" transform="matrix(1, 0, 0, 1, 0, 0)">
      <rect id="Rectangle_650-4" data-name="Rectangle 650" class="cls-9" width="190" height="80" rx="5" transform="translate(763 125)"/>
    </g>
    <path id="Path_1529" data-name="Path 1529" class="cls-5" d="M6.069.2A5.69,5.69,0,0,1,3.987-.17,4.612,4.612,0,0,1,2.32-1.275a5.046,5.046,0,0,1-1.1-1.8A7.112,7.112,0,0,1,.833-5.525a6.861,6.861,0,0,1,.408-2.44A5.417,5.417,0,0,1,2.355-9.792,4.7,4.7,0,0,1,4.02-10.931a5.425,5.425,0,0,1,2.066-.391,4.286,4.286,0,0,1,2.015.434,5.29,5.29,0,0,1,1.351.977L8.4-8.636a4.334,4.334,0,0,0-.944-.688,2.711,2.711,0,0,0-1.3-.28,3.169,3.169,0,0,0-1.352.28,2.968,2.968,0,0,0-1.037.8,3.7,3.7,0,0,0-.671,1.267,5.539,5.539,0,0,0-.238,1.683,4.674,4.674,0,0,0,.859,2.984A3.052,3.052,0,0,0,6.256-1.513a3.12,3.12,0,0,0,.9-.128,1.849,1.849,0,0,0,.7-.365V-4.4H5.746V-6.018H9.622v4.9a4.5,4.5,0,0,1-1.487.943A5.365,5.365,0,0,1,6.069.2ZM12.087,0V-11.118h6.7v1.666H14.059v2.839h3.995v1.666H14.059v3.281h4.9V0Zm9.146,0V-11.118H23.2v9.452h4.624V0Zm8.534,0V-11.118h1.972V0Zm.986-12.019a1.227,1.227,0,0,1-.867-.314,1.051,1.051,0,0,1-.34-.807,1.024,1.024,0,0,1,.34-.8,1.247,1.247,0,0,1,.867-.306,1.247,1.247,0,0,1,.867.306,1.024,1.024,0,0,1,.34.8,1.051,1.051,0,0,1-.34.807A1.227,1.227,0,0,1,30.753-12.019ZM34.561,0V-11.118h3.757a7.28,7.28,0,0,1,1.615.17,3.612,3.612,0,0,1,1.292.552,2.672,2.672,0,0,1,.859,1.012A3.479,3.479,0,0,1,42.4-7.82a3.275,3.275,0,0,1-.6,2.057,3.321,3.321,0,0,1-1.606,1.122L42.84,0H40.63l-2.4-4.352h-1.7V0Zm1.972-5.916h1.581a2.763,2.763,0,0,0,1.743-.476,1.708,1.708,0,0,0,.6-1.428,1.452,1.452,0,0,0-.6-1.343,3.332,3.332,0,0,0-1.743-.374H36.533Z" transform="translate(833 157)"/>
    <path id="Path_1525" data-name="Path 1525" class="cls-4" d="M5.543.276A6.565,6.565,0,0,1,2.565-.333,7.764,7.764,0,0,1,.552-1.748l1.219-1.7a7.974,7.974,0,0,0,1.5,1.092A3.837,3.837,0,0,0,5.2-1.886a2.875,2.875,0,0,0,2.036-.736,2.684,2.684,0,0,0,.794-2.07,2.688,2.688,0,0,0-.736-2.024,2.69,2.69,0,0,0-1.955-.713,3.2,3.2,0,0,0-1.2.2A6.943,6.943,0,0,0,2.99-6.6L1.725-7.406l.437-7.222h7.82V-12.4H4.462l-.3,3.542a5.177,5.177,0,0,1,.909-.357,3.777,3.777,0,0,1,1.023-.126,5.671,5.671,0,0,1,1.783.276,4.006,4.006,0,0,1,1.46.84A4.024,4.024,0,0,1,10.327-6.8a5.161,5.161,0,0,1,.368,2.036,5.147,5.147,0,0,1-.425,2.139A4.725,4.725,0,0,1,9.131-1.035a4.881,4.881,0,0,1-1.645.978A5.722,5.722,0,0,1,5.543.276Zm12.144,0a4.173,4.173,0,0,1-3.634-1.967,10.125,10.125,0,0,1-1.334-5.693,9.775,9.775,0,0,1,1.334-5.623,4.213,4.213,0,0,1,3.634-1.9,4.206,4.206,0,0,1,3.634,1.909,9.784,9.784,0,0,1,1.334,5.612,10.125,10.125,0,0,1-1.334,5.693A4.173,4.173,0,0,1,17.687.276Zm0-2.07a1.776,1.776,0,0,0,.977-.288,2.259,2.259,0,0,0,.771-.954,6.636,6.636,0,0,0,.506-1.725,15.665,15.665,0,0,0,.184-2.622,15.286,15.286,0,0,0-.184-2.587,6.259,6.259,0,0,0-.506-1.691,2.1,2.1,0,0,0-.771-.909,1.89,1.89,0,0,0-.977-.264,1.89,1.89,0,0,0-.978.264,2.1,2.1,0,0,0-.77.909,6.259,6.259,0,0,0-.506,1.691,15.286,15.286,0,0,0-.184,2.587,15.665,15.665,0,0,0,.184,2.622,6.636,6.636,0,0,0,.506,1.725,2.259,2.259,0,0,0,.77.954A1.776,1.776,0,0,0,17.687-1.794Zm11.8,2.07a4.173,4.173,0,0,1-3.634-1.967,10.125,10.125,0,0,1-1.334-5.693,9.775,9.775,0,0,1,1.334-5.623,4.213,4.213,0,0,1,3.634-1.9,4.206,4.206,0,0,1,3.634,1.909,9.784,9.784,0,0,1,1.334,5.612A10.125,10.125,0,0,1,33.12-1.691,4.173,4.173,0,0,1,29.486.276Zm0-2.07a1.776,1.776,0,0,0,.977-.288,2.259,2.259,0,0,0,.771-.954,6.636,6.636,0,0,0,.506-1.725,15.665,15.665,0,0,0,.184-2.622A15.286,15.286,0,0,0,31.74-9.97a6.259,6.259,0,0,0-.506-1.691,2.1,2.1,0,0,0-.771-.909,1.89,1.89,0,0,0-.977-.264,1.89,1.89,0,0,0-.978.264,2.1,2.1,0,0,0-.771.909,6.259,6.259,0,0,0-.506,1.691,15.286,15.286,0,0,0-.184,2.587,15.665,15.665,0,0,0,.184,2.622,6.636,6.636,0,0,0,.506,1.725,2.259,2.259,0,0,0,.771.954A1.776,1.776,0,0,0,29.486-1.794Zm7.567,5.98-.575-1.449a4.137,4.137,0,0,0,1.736-1.173A2.367,2.367,0,0,0,38.8-.046h-.207A1.813,1.813,0,0,1,37.41-.472a1.475,1.475,0,0,1-.518-1.208,1.491,1.491,0,0,1,.518-1.184,1.848,1.848,0,0,1,1.253-.448,1.7,1.7,0,0,1,1.461.713,3.359,3.359,0,0,1,.517,2,4.768,4.768,0,0,1-.931,2.944A5.434,5.434,0,0,1,37.053,4.186ZM47.61.276a4.173,4.173,0,0,1-3.634-1.967,10.125,10.125,0,0,1-1.334-5.693,9.775,9.775,0,0,1,1.334-5.623,4.213,4.213,0,0,1,3.634-1.9,4.206,4.206,0,0,1,3.634,1.909,9.784,9.784,0,0,1,1.334,5.612,10.125,10.125,0,0,1-1.334,5.693A4.173,4.173,0,0,1,47.61.276Zm0-2.07a1.776,1.776,0,0,0,.978-.288,2.259,2.259,0,0,0,.771-.954,6.636,6.636,0,0,0,.506-1.725,15.665,15.665,0,0,0,.184-2.622,15.286,15.286,0,0,0-.184-2.587,6.259,6.259,0,0,0-.506-1.691,2.1,2.1,0,0,0-.771-.909,1.89,1.89,0,0,0-.978-.264,1.89,1.89,0,0,0-.978.264,2.1,2.1,0,0,0-.771.909,6.259,6.259,0,0,0-.506,1.691,15.286,15.286,0,0,0-.184,2.587,15.665,15.665,0,0,0,.184,2.622,6.637,6.637,0,0,0,.506,1.725,2.259,2.259,0,0,0,.771.954A1.776,1.776,0,0,0,47.61-1.794Zm11.8,2.07a4.173,4.173,0,0,1-3.634-1.967,10.125,10.125,0,0,1-1.334-5.693,9.775,9.775,0,0,1,1.334-5.623,4.213,4.213,0,0,1,3.634-1.9,4.206,4.206,0,0,1,3.634,1.909,9.784,9.784,0,0,1,1.334,5.612,10.125,10.125,0,0,1-1.334,5.693A4.173,4.173,0,0,1,59.409.276Zm0-2.07a1.776,1.776,0,0,0,.978-.288,2.259,2.259,0,0,0,.77-.954,6.636,6.636,0,0,0,.506-1.725,15.665,15.665,0,0,0,.184-2.622,15.286,15.286,0,0,0-.184-2.587,6.259,6.259,0,0,0-.506-1.691,2.1,2.1,0,0,0-.77-.909,1.89,1.89,0,0,0-.978-.264,1.89,1.89,0,0,0-.978.264,2.1,2.1,0,0,0-.771.909,6.259,6.259,0,0,0-.506,1.691,15.286,15.286,0,0,0-.184,2.587,15.665,15.665,0,0,0,.184,2.622,6.637,6.637,0,0,0,.506,1.725,2.259,2.259,0,0,0,.771.954A1.776,1.776,0,0,0,59.409-1.794ZM67.666.276v-5.8L65.734-4.508V-6.049l1.932-1.012V-8.51L65.734-7.5V-9.039l1.932-1.035v-4.554h2.668v3.266L73.9-13.248v1.541L70.334-9.821v1.449L73.9-10.258v1.541L70.334-6.831v4.623a5.214,5.214,0,0,0,1.38-.287,3.937,3.937,0,0,0,1.219-.679A3.615,3.615,0,0,0,73.8-4.209a2.738,2.738,0,0,0,.333-1.357q0-.161-.011-.356a2.635,2.635,0,0,0-.08-.472l2.208-.552a5.822,5.822,0,0,1,.161,1.265,5.462,5.462,0,0,1-.621,2.656,5.236,5.236,0,0,1-1.76,1.886,8.192,8.192,0,0,1-2.76,1.1A15.144,15.144,0,0,1,67.666.276Z" transform="translate(833 184)"/>
    <g id="Path_1526" data-name="Path 1526" class="cls-13" transform="translate(783 145)">
      <path class="cls-18" d="M 20 39.5 C 17.36730003356934 39.5 14.8136100769043 38.98448944091797 12.40987968444824 37.96780014038086 C 10.08788967132568 36.98567962646484 8.002429962158203 35.57958984375 6.211420059204102 33.78858184814453 C 4.42041015625 31.99757957458496 3.014319896697998 29.9121208190918 2.03220009803772 27.59012985229492 C 1.015509963035583 25.1863899230957 0.5 22.63269996643066 0.5 20 C 0.5 17.36730003356934 1.015509963035583 14.8136100769043 2.03220009803772 12.40987968444824 C 3.014319896697998 10.08788967132568 4.42041015625 8.002429962158203 6.211420059204102 6.211420059204102 C 8.002429962158203 4.42041015625 10.08788967132568 3.014319896697998 12.40987968444824 2.03220009803772 C 14.8136100769043 1.015509963035583 17.36730003356934 0.5 20 0.5 C 22.63269996643066 0.5 25.1863899230957 1.015509963035583 27.59012985229492 2.03220009803772 C 29.9121208190918 3.014319896697998 31.99757957458496 4.42041015625 33.78858184814453 6.211420059204102 C 35.57958984375 8.002429962158203 36.98567962646484 10.08788967132568 37.96780014038086 12.40987968444824 C 38.98448944091797 14.8136100769043 39.5 17.36730003356934 39.5 20 C 39.5 22.63269996643066 38.98448944091797 25.1863899230957 37.96780014038086 27.59012985229492 C 36.98567962646484 29.9121208190918 35.57958984375 31.99757957458496 33.78858184814453 33.78858184814453 C 31.99757957458496 35.57958984375 29.9121208190918 36.98567962646484 27.59012985229492 37.96780014038086 C 25.1863899230957 38.98448944091797 22.63269996643066 39.5 20 39.5 Z"/>
      <path class="cls-21" d="M 20 1 C 17.4345703125 1 14.94642066955566 1.502220153808594 12.60465049743652 2.492698669433594 C 10.34226036071777 3.449611663818359 8.310220718383789 4.819721221923828 6.564968109130859 6.564968109130859 C 4.819721221923828 8.310220718383789 3.449611663818359 10.34226036071777 2.492698669433594 12.60465049743652 C 1.502220153808594 14.94642066955566 1 17.4345703125 1 20 C 1 22.5654296875 1.502220153808594 25.05358123779297 2.492698669433594 27.39535140991211 C 3.449611663818359 29.65773963928223 4.819721221923828 31.68978118896484 6.564968109130859 33.43502807617188 C 8.310220718383789 35.18027877807617 10.34226036071777 36.55038833618164 12.60465049743652 37.50730133056641 C 14.94642066955566 38.49777984619141 17.4345703125 39 20 39 C 22.5654296875 39 25.05358123779297 38.49777984619141 27.39535140991211 37.50730133056641 C 29.65773963928223 36.55038833618164 31.68978118896484 35.18027877807617 33.43502807617188 33.43502807617188 C 35.18027877807617 31.68978118896484 36.55038833618164 29.65773963928223 37.50730133056641 27.39535140991211 C 38.49777984619141 25.05358123779297 39 22.5654296875 39 20 C 39 17.4345703125 38.49777984619141 14.94642066955566 37.50730133056641 12.60465049743652 C 36.55038833618164 10.34226036071777 35.18027877807617 8.310220718383789 33.43502807617188 6.564968109130859 C 31.68978118896484 4.819721221923828 29.65773963928223 3.449611663818359 27.39535140991211 2.492698669433594 C 25.05358123779297 1.502220153808594 22.5654296875 1 20 1 M 20 0 C 31.04570007324219 0 40 8.954299926757812 40 20 C 40 31.04570007324219 31.04570007324219 40 20 40 C 8.954299926757812 40 0 31.04570007324219 0 20 C 0 8.954299926757812 8.954299926757812 0 20 0 Z"/>
    </g>
    <g id="Mask_Group_44-2" data-name="Mask Group 44" class="cls-11" transform="translate(664.842 148.464) rotate(-45)">
      <g id="arrow-left-2" data-name="arrow-left" transform="translate(78.513 101.513)">
        <line id="Line_29-2" data-name="Line 29" class="cls-14" x1="14.975" transform="translate(0 7.487)"/>
        <path id="Path_21-2" data-name="Path 21" class="cls-14" d="M14.915,22.4,7.428,14.915l7.487-7.487" transform="translate(-7.428 -7.428)"/>
      </g>
    </g>
    <path id="Path_1521" data-name="Path 1521" class="cls-15" d="M0,0V301" transform="translate(658 82.5)"/>
    <path id="Path_1530" data-name="Path 1530" class="cls-16" d="M5,0H145a5,5,0,0,1,5,5V75a5,5,0,0,1-5,5H5a5,5,0,0,1-5-5V5A5,5,0,0,1,5,0Z" transform="translate(492 88)"/>
    <path id="Path_1535" data-name="Path 1535" class="cls-9" d="M1.184,0V-1.5H3.456V-8.192H1.584V-9.344A8.532,8.532,0,0,0,2.9-9.688a5.919,5.919,0,0,0,1.032-.488H5.312V-1.5h2V0ZM10.9,0a23.326,23.326,0,0,1,.24-2.488,14.243,14.243,0,0,1,.5-2.152,12.239,12.239,0,0,1,.84-1.992,17.256,17.256,0,0,1,1.248-1.992H8.912v-1.552h6.832v1.12a14.519,14.519,0,0,0-1.448,2.1A10.694,10.694,0,0,0,13.424-4.9a12.526,12.526,0,0,0-.456,2.232q-.136,1.184-.2,2.672ZM25.008.192a4.567,4.567,0,0,1-1.872-.376A4.053,4.053,0,0,1,21.68-1.272a5.1,5.1,0,0,1-.944-1.72A7.219,7.219,0,0,1,20.4-5.28a7.089,7.089,0,0,1,.336-2.264,4.842,4.842,0,0,1,.944-1.688,4.094,4.094,0,0,1,1.456-1.056,4.653,4.653,0,0,1,1.872-.368,4.653,4.653,0,0,1,1.872.368,4.171,4.171,0,0,1,1.464,1.056A4.772,4.772,0,0,1,29.3-7.544a7.089,7.089,0,0,1,.336,2.264A7.219,7.219,0,0,1,29.3-2.992a5.02,5.02,0,0,1-.952,1.72A4.128,4.128,0,0,1,26.88-.184,4.567,4.567,0,0,1,25.008.192Zm0-1.616a2.29,2.29,0,0,0,1.12-.272,2.494,2.494,0,0,0,.848-.776,3.862,3.862,0,0,0,.544-1.216,6.115,6.115,0,0,0,.192-1.592,4.61,4.61,0,0,0-.728-2.76,2.317,2.317,0,0,0-1.976-1,2.317,2.317,0,0,0-1.976,1A4.61,4.61,0,0,0,22.3-5.28,6.115,6.115,0,0,0,22.5-3.688a3.862,3.862,0,0,0,.544,1.216,2.494,2.494,0,0,0,.848.776A2.29,2.29,0,0,0,25.008-1.424ZM34.848.192a4.073,4.073,0,0,1-1.5-.272,3.371,3.371,0,0,1-1.208-.8,3.7,3.7,0,0,1-.8-1.3,4.942,4.942,0,0,1-.288-1.744,4.5,4.5,0,0,1,.32-1.744,3.834,3.834,0,0,1,.864-1.3A3.761,3.761,0,0,1,33.5-7.768a4.051,4.051,0,0,1,1.5-.28,3.117,3.117,0,0,1,1.32.256,4.292,4.292,0,0,1,.984.624l-.9,1.2a3.047,3.047,0,0,0-.632-.424,1.532,1.532,0,0,0-.68-.152,1.921,1.921,0,0,0-1.552.712,2.9,2.9,0,0,0-.592,1.912,2.9,2.9,0,0,0,.584,1.9,1.865,1.865,0,0,0,1.512.712,1.955,1.955,0,0,0,.872-.2,3.918,3.918,0,0,0,.744-.472l.752,1.216a3.916,3.916,0,0,1-1.224.72A3.906,3.906,0,0,1,34.848.192Zm5.856,0a2.288,2.288,0,0,1-1.68-.632,2.245,2.245,0,0,1-.64-1.672,2.3,2.3,0,0,1,.264-1.112,2.276,2.276,0,0,1,.832-.84,5.525,5.525,0,0,1,1.44-.592,13.167,13.167,0,0,1,2.088-.368,2.965,2.965,0,0,0-.088-.584,1.342,1.342,0,0,0-.24-.5,1.116,1.116,0,0,0-.44-.336,1.665,1.665,0,0,0-.672-.12,2.975,2.975,0,0,0-1.128.224,7.586,7.586,0,0,0-1.08.544l-.672-1.232a7.87,7.87,0,0,1,1.472-.72,5,5,0,0,1,1.76-.3,2.7,2.7,0,0,1,2.2.872,3.837,3.837,0,0,1,.728,2.52V0h-1.52L43.2-.864h-.064a5.772,5.772,0,0,1-1.128.752A2.844,2.844,0,0,1,40.7.192Zm.592-1.44a1.726,1.726,0,0,0,.872-.224,4.682,4.682,0,0,0,.84-.64v-1.76a8.4,8.4,0,0,0-1.344.256,3.885,3.885,0,0,0-.88.36,1.283,1.283,0,0,0-.48.456,1.093,1.093,0,0,0-.144.544.9.9,0,0,0,.32.768A1.323,1.323,0,0,0,41.3-1.248ZM47.056,0V-11.3h1.808V-4.24h.048l2.912-3.616H53.84l-2.688,3.2L54.112,0h-2L50.1-3.408,48.864-2V0ZM55.52,2.912,55.12,1.9a2.878,2.878,0,0,0,1.208-.816,1.647,1.647,0,0,0,.408-1.12h-.144a1.261,1.261,0,0,1-.824-.3,1.026,1.026,0,0,1-.36-.84,1.037,1.037,0,0,1,.36-.824A1.286,1.286,0,0,1,56.64-2.3a1.182,1.182,0,0,1,1.016.5,2.336,2.336,0,0,1,.36,1.392,3.317,3.317,0,0,1-.648,2.048A3.78,3.78,0,0,1,55.52,2.912ZM67.472.192A4.872,4.872,0,0,1,65.616-.16a4.116,4.116,0,0,1-1.5-1.04,5.013,5.013,0,0,1-1-1.7,6.694,6.694,0,0,1-.368-2.3,6.582,6.582,0,0,1,.376-2.3,5.138,5.138,0,0,1,1.024-1.72,4.335,4.335,0,0,1,1.52-1.072,4.744,4.744,0,0,1,1.864-.368,3.755,3.755,0,0,1,1.76.4,4.678,4.678,0,0,1,1.264.928l-.992,1.2a3.613,3.613,0,0,0-.9-.664,2.336,2.336,0,0,0-1.088-.248,2.625,2.625,0,0,0-1.176.264,2.728,2.728,0,0,0-.928.752,3.538,3.538,0,0,0-.608,1.192,5.392,5.392,0,0,0-.216,1.584,4.528,4.528,0,0,0,.776,2.808,2.507,2.507,0,0,0,2.1,1.016,2.569,2.569,0,0,0,1.248-.3,3.911,3.911,0,0,0,.992-.776l.992,1.168A4.485,4.485,0,0,1,69.3-.2,4.21,4.21,0,0,1,67.472.192Zm7.056,0a2.1,2.1,0,0,1-1.84-.808,3.947,3.947,0,0,1-.576-2.312V-7.856h1.84v4.688a2.445,2.445,0,0,0,.288,1.376,1.065,1.065,0,0,0,.928.4,1.616,1.616,0,0,0,.9-.256,3.7,3.7,0,0,0,.84-.832V-7.856h1.84V0h-1.5L77.1-1.152h-.048a4.616,4.616,0,0,1-1.112.976A2.655,2.655,0,0,1,74.528.192ZM81.088,0V-7.856h1.52l.128,1.072H82.8a5.512,5.512,0,0,1,1.08-.9,2.424,2.424,0,0,1,1.32-.368,2.35,2.35,0,0,1,1.384.368,2.285,2.285,0,0,1,.792,1.04,6.32,6.32,0,0,1,1.168-1.008,2.421,2.421,0,0,1,1.36-.4,2.129,2.129,0,0,1,1.84.808,3.866,3.866,0,0,1,.592,2.312V0H90.48V-4.688a2.391,2.391,0,0,0-.3-1.376,1.051,1.051,0,0,0-.9-.4,2.474,2.474,0,0,0-1.648.976V0h-1.84V-4.688a2.391,2.391,0,0,0-.3-1.376,1.069,1.069,0,0,0-.92-.4,2.474,2.474,0,0,0-1.648.976V0Z" transform="translate(502 114)"/>
    <path id="Path_1531" data-name="Path 1531" class="cls-9" d="M4.176.144A3.651,3.651,0,0,1,2.742-.132,3.113,3.113,0,0,1,1.62-.93,3.721,3.721,0,0,1,.888-2.214,5.242,5.242,0,0,1,.624-3.936a5.044,5.044,0,0,1,.27-1.7,3.765,3.765,0,0,1,.75-1.284,3.233,3.233,0,0,1,1.146-.81,3.67,3.67,0,0,1,1.446-.282,3.143,3.143,0,0,1,.75.084,3.1,3.1,0,0,1,.624.222,2.831,2.831,0,0,1,.5.312,3.406,3.406,0,0,1,.39.354L5.952-6.4a2.854,2.854,0,0,0-.7-.528,2.063,2.063,0,0,0-1-.216,2.543,2.543,0,0,0-1.08.222,2.26,2.26,0,0,0-.816.636,3.013,3.013,0,0,0-.522,1,4.367,4.367,0,0,0-.186,1.32A4.757,4.757,0,0,0,1.83-2.622a2.975,2.975,0,0,0,.5,1.014A2.226,2.226,0,0,0,3.15-.96a2.614,2.614,0,0,0,1.122.228,2.507,2.507,0,0,0,.8-.126A1.727,1.727,0,0,0,5.688-1.2V-3.252H4.02V-4.08H6.6V-.768a2.953,2.953,0,0,1-1.008.654A3.677,3.677,0,0,1,4.176.144Zm6.576,0a2.855,2.855,0,0,1-1.1-.21,2.6,2.6,0,0,1-.888-.6,2.778,2.778,0,0,1-.594-.954A3.571,3.571,0,0,1,7.956-2.9a3.532,3.532,0,0,1,.222-1.29,3.019,3.019,0,0,1,.588-.966A2.551,2.551,0,0,1,9.6-5.766a2.349,2.349,0,0,1,.972-.21,2.442,2.442,0,0,1,.99.192,1.931,1.931,0,0,1,.732.552,2.533,2.533,0,0,1,.45.864A3.807,3.807,0,0,1,12.9-3.24q0,.156-.006.306a1.478,1.478,0,0,1-.03.258H8.928A2.278,2.278,0,0,0,9.51-1.194a1.8,1.8,0,0,0,1.362.546,2.293,2.293,0,0,0,.774-.126,3.425,3.425,0,0,0,.678-.33l.348.648a4.968,4.968,0,0,1-.852.42A2.96,2.96,0,0,1,10.752.144ZM8.916-3.384h3.12a2.089,2.089,0,0,0-.378-1.35A1.3,1.3,0,0,0,10.6-5.2a1.5,1.5,0,0,0-.594.12,1.564,1.564,0,0,0-.51.354,1.94,1.94,0,0,0-.378.57A2.573,2.573,0,0,0,8.916-3.384ZM15.384.144a.92.92,0,0,1-.8-.336,1.685,1.685,0,0,1-.24-.984V-8.544h.984V-1.1a.515.515,0,0,0,.084.336.25.25,0,0,0,.192.1h.09A.509.509,0,0,0,15.816-.7l.132.744A.849.849,0,0,1,15.72.12,1.934,1.934,0,0,1,15.384.144ZM17.4,0V-5.832h.984V0Zm.5-7.032a.7.7,0,0,1-.486-.18.589.589,0,0,1-.2-.456.585.585,0,0,1,.2-.462A.71.71,0,0,1,17.9-8.3a.71.71,0,0,1,.486.174.585.585,0,0,1,.2.462.589.589,0,0,1-.2.456A.7.7,0,0,1,17.9-7.032ZM20.352,0V-5.832h.816l.084,1.056h.036a2.7,2.7,0,0,1,.726-.876,1.5,1.5,0,0,1,.93-.324,1.55,1.55,0,0,1,.624.12l-.192.864a2.219,2.219,0,0,0-.264-.072,1.567,1.567,0,0,0-.3-.024,1.307,1.307,0,0,0-.774.3,2.387,2.387,0,0,0-.7,1.044V0Zm4.98-4.188a.694.694,0,0,1-.51-.21.723.723,0,0,1-.21-.534.754.754,0,0,1,.21-.558.694.694,0,0,1,.51-.21.681.681,0,0,1,.5.21.754.754,0,0,1,.21.558.723.723,0,0,1-.21.534A.681.681,0,0,1,25.332-4.188Zm0,4.332a.694.694,0,0,1-.51-.21.723.723,0,0,1-.21-.534.754.754,0,0,1,.21-.558.694.694,0,0,1,.51-.21.681.681,0,0,1,.5.21.754.754,0,0,1,.21.558.723.723,0,0,1-.21.534A.681.681,0,0,1,25.332.144Zm6.78,0a3.425,3.425,0,0,1-1.554-.318,4.051,4.051,0,0,1-1.05-.738l.636-.888a4.16,4.16,0,0,0,.78.57,2,2,0,0,0,1.008.246,1.5,1.5,0,0,0,1.062-.384,1.4,1.4,0,0,0,.414-1.08A1.4,1.4,0,0,0,33.024-3.5,1.4,1.4,0,0,0,32-3.876a1.67,1.67,0,0,0-.624.1,3.623,3.623,0,0,0-.6.33l-.66-.42.228-3.768h4.08v1.164h-2.88L31.392-4.62a2.7,2.7,0,0,1,.474-.186,1.97,1.97,0,0,1,.534-.066,2.959,2.959,0,0,1,.93.144,2.09,2.09,0,0,1,.762.438,2.1,2.1,0,0,1,.516.744A2.693,2.693,0,0,1,34.8-2.484a2.685,2.685,0,0,1-.222,1.116,2.465,2.465,0,0,1-.594.828,2.547,2.547,0,0,1-.858.51A2.986,2.986,0,0,1,32.112.144Zm6.336,0a2.177,2.177,0,0,1-1.9-1.026,5.283,5.283,0,0,1-.7-2.97,5.1,5.1,0,0,1,.7-2.934,2.2,2.2,0,0,1,1.9-.99,2.194,2.194,0,0,1,1.9,1,5.1,5.1,0,0,1,.7,2.928,5.283,5.283,0,0,1-.7,2.97A2.177,2.177,0,0,1,38.448.144Zm0-1.08a.927.927,0,0,0,.51-.15,1.179,1.179,0,0,0,.4-.5,3.462,3.462,0,0,0,.264-.9,8.173,8.173,0,0,0,.1-1.368,7.975,7.975,0,0,0-.1-1.35,3.265,3.265,0,0,0-.264-.882,1.1,1.1,0,0,0-.4-.474.986.986,0,0,0-.51-.138.986.986,0,0,0-.51.138,1.1,1.1,0,0,0-.4.474,3.265,3.265,0,0,0-.264.882,7.975,7.975,0,0,0-.1,1.35,8.173,8.173,0,0,0,.1,1.368,3.462,3.462,0,0,0,.264.9,1.179,1.179,0,0,0,.4.5A.927.927,0,0,0,38.448-.936ZM44.6.144a2.177,2.177,0,0,1-1.9-1.026,5.283,5.283,0,0,1-.7-2.97,5.1,5.1,0,0,1,.7-2.934,2.2,2.2,0,0,1,1.9-.99,2.194,2.194,0,0,1,1.9,1,5.1,5.1,0,0,1,.7,2.928,5.283,5.283,0,0,1-.7,2.97A2.177,2.177,0,0,1,44.6.144Zm0-1.08a.927.927,0,0,0,.51-.15,1.179,1.179,0,0,0,.4-.5,3.462,3.462,0,0,0,.264-.9,8.173,8.173,0,0,0,.1-1.368,7.976,7.976,0,0,0-.1-1.35,3.265,3.265,0,0,0-.264-.882,1.1,1.1,0,0,0-.4-.474A.986.986,0,0,0,44.6-6.7a.986.986,0,0,0-.51.138,1.1,1.1,0,0,0-.4.474,3.265,3.265,0,0,0-.264.882,7.975,7.975,0,0,0-.1,1.35,8.173,8.173,0,0,0,.1,1.368,3.462,3.462,0,0,0,.264.9,1.179,1.179,0,0,0,.4.5A.927.927,0,0,0,44.6-.936Zm3.948,3.12-.3-.756a2.159,2.159,0,0,0,.906-.612,1.235,1.235,0,0,0,.306-.84h-.108a.946.946,0,0,1-.618-.222.77.77,0,0,1-.27-.63.778.778,0,0,1,.27-.618.964.964,0,0,1,.654-.234.886.886,0,0,1,.762.372,1.752,1.752,0,0,1,.27,1.044,2.488,2.488,0,0,1-.486,1.536A2.835,2.835,0,0,1,48.552,2.184ZM54.06.144a2.177,2.177,0,0,1-1.9-1.026,5.283,5.283,0,0,1-.7-2.97,5.1,5.1,0,0,1,.7-2.934,2.2,2.2,0,0,1,1.9-.99,2.194,2.194,0,0,1,1.9,1,5.1,5.1,0,0,1,.7,2.928,5.283,5.283,0,0,1-.7,2.97A2.177,2.177,0,0,1,54.06.144Zm0-1.08a.927.927,0,0,0,.51-.15,1.179,1.179,0,0,0,.4-.5,3.462,3.462,0,0,0,.264-.9,8.173,8.173,0,0,0,.1-1.368,7.975,7.975,0,0,0-.1-1.35,3.265,3.265,0,0,0-.264-.882,1.1,1.1,0,0,0-.4-.474.986.986,0,0,0-.51-.138.986.986,0,0,0-.51.138,1.1,1.1,0,0,0-.4.474,3.265,3.265,0,0,0-.264.882,7.975,7.975,0,0,0-.1,1.35,8.173,8.173,0,0,0,.1,1.368,3.462,3.462,0,0,0,.264.9,1.179,1.179,0,0,0,.4.5A.927.927,0,0,0,54.06-.936ZM60.216.144a2.177,2.177,0,0,1-1.9-1.026,5.283,5.283,0,0,1-.7-2.97,5.1,5.1,0,0,1,.7-2.934,2.2,2.2,0,0,1,1.9-.99,2.194,2.194,0,0,1,1.9,1,5.1,5.1,0,0,1,.7,2.928,5.283,5.283,0,0,1-.7,2.97A2.177,2.177,0,0,1,60.216.144Zm0-1.08a.927.927,0,0,0,.51-.15,1.179,1.179,0,0,0,.4-.5,3.462,3.462,0,0,0,.264-.9,8.173,8.173,0,0,0,.1-1.368,7.976,7.976,0,0,0-.1-1.35,3.265,3.265,0,0,0-.264-.882,1.1,1.1,0,0,0-.4-.474.986.986,0,0,0-.51-.138.986.986,0,0,0-.51.138,1.1,1.1,0,0,0-.4.474,3.265,3.265,0,0,0-.264.882,7.975,7.975,0,0,0-.1,1.35,8.173,8.173,0,0,0,.1,1.368,3.462,3.462,0,0,0,.264.9,1.179,1.179,0,0,0,.4.5A.927.927,0,0,0,60.216-.936ZM66.924.144V-2.88l-1.008.528v-.8l1.008-.528V-4.44l-1.008.528v-.8l1.008-.54V-7.632h1.392v1.7l1.86-.984v.8l-1.86.984v.756l1.86-.984v.8l-1.86.984v2.412a2.72,2.72,0,0,0,.72-.15,2.054,2.054,0,0,0,.636-.354,1.886,1.886,0,0,0,.45-.54A1.429,1.429,0,0,0,70.3-2.9q0-.084-.006-.186a1.375,1.375,0,0,0-.042-.246L71.4-3.624a3.037,3.037,0,0,1,.084.66,2.85,2.85,0,0,1-.324,1.386,2.732,2.732,0,0,1-.918.984,4.274,4.274,0,0,1-1.44.576A7.9,7.9,0,0,1,66.924.144Z" transform="translate(519 135)"/>
    <path id="Path_1532" data-name="Path 1532" class="cls-9" d="M4.176.144A3.651,3.651,0,0,1,2.742-.132,3.113,3.113,0,0,1,1.62-.93,3.721,3.721,0,0,1,.888-2.214,5.242,5.242,0,0,1,.624-3.936a5.044,5.044,0,0,1,.27-1.7,3.765,3.765,0,0,1,.75-1.284,3.233,3.233,0,0,1,1.146-.81,3.67,3.67,0,0,1,1.446-.282,3.143,3.143,0,0,1,.75.084,3.1,3.1,0,0,1,.624.222,2.831,2.831,0,0,1,.5.312,3.406,3.406,0,0,1,.39.354L5.952-6.4a2.854,2.854,0,0,0-.7-.528,2.063,2.063,0,0,0-1-.216,2.543,2.543,0,0,0-1.08.222,2.26,2.26,0,0,0-.816.636,3.013,3.013,0,0,0-.522,1,4.367,4.367,0,0,0-.186,1.32A4.757,4.757,0,0,0,1.83-2.622a2.975,2.975,0,0,0,.5,1.014A2.226,2.226,0,0,0,3.15-.96a2.614,2.614,0,0,0,1.122.228,2.507,2.507,0,0,0,.8-.126A1.727,1.727,0,0,0,5.688-1.2V-3.252H4.02V-4.08H6.6V-.768a2.953,2.953,0,0,1-1.008.654A3.677,3.677,0,0,1,4.176.144ZM8.388,0V-5.832h.984V0Zm.5-7.032a.7.7,0,0,1-.486-.18.589.589,0,0,1-.2-.456.585.585,0,0,1,.2-.462A.71.71,0,0,1,8.892-8.3a.71.71,0,0,1,.486.174.585.585,0,0,1,.2.462.589.589,0,0,1-.2.456A.7.7,0,0,1,8.892-7.032ZM13.332.144a2.162,2.162,0,0,1-1.758-.792A3.455,3.455,0,0,1,10.92-2.9a3.676,3.676,0,0,1,.21-1.278,3.035,3.035,0,0,1,.558-.966,2.472,2.472,0,0,1,.8-.612,2.216,2.216,0,0,1,.96-.216,1.991,1.991,0,0,1,.876.18,3.913,3.913,0,0,1,.756.492l-.048-1V-8.544h1V0h-.816l-.084-.684H15.1a3.688,3.688,0,0,1-.8.582A1.983,1.983,0,0,1,13.332.144Zm.216-.828a1.569,1.569,0,0,0,.768-.2,2.762,2.762,0,0,0,.72-.606V-4.536a2.479,2.479,0,0,0-.714-.474,1.86,1.86,0,0,0-.7-.138,1.377,1.377,0,0,0-.654.162,1.651,1.651,0,0,0-.534.456,2.278,2.278,0,0,0-.36.7,2.954,2.954,0,0,0-.132.912,2.791,2.791,0,0,0,.42,1.644A1.374,1.374,0,0,0,13.548-.684Zm6.816.828a2.855,2.855,0,0,1-1.1-.21,2.6,2.6,0,0,1-.888-.6,2.778,2.778,0,0,1-.594-.954A3.571,3.571,0,0,1,17.568-2.9a3.532,3.532,0,0,1,.222-1.29,3.019,3.019,0,0,1,.588-.966,2.551,2.551,0,0,1,.834-.606,2.349,2.349,0,0,1,.972-.21,2.442,2.442,0,0,1,.99.192,1.931,1.931,0,0,1,.732.552,2.533,2.533,0,0,1,.45.864,3.807,3.807,0,0,1,.156,1.128q0,.156-.006.306a1.478,1.478,0,0,1-.03.258H18.54a2.278,2.278,0,0,0,.582,1.482,1.8,1.8,0,0,0,1.362.546,2.293,2.293,0,0,0,.774-.126,3.425,3.425,0,0,0,.678-.33l.348.648a4.968,4.968,0,0,1-.852.42A2.96,2.96,0,0,1,20.364.144ZM18.528-3.384h3.12a2.089,2.089,0,0,0-.378-1.35A1.3,1.3,0,0,0,20.208-5.2a1.5,1.5,0,0,0-.594.12,1.564,1.564,0,0,0-.51.354,1.94,1.94,0,0,0-.378.57A2.573,2.573,0,0,0,18.528-3.384ZM23.952,0V-5.832h.816l.084,1.056h.036a2.7,2.7,0,0,1,.726-.876,1.5,1.5,0,0,1,.93-.324,1.55,1.55,0,0,1,.624.12l-.192.864a2.219,2.219,0,0,0-.264-.072,1.567,1.567,0,0,0-.3-.024,1.307,1.307,0,0,0-.774.3,2.387,2.387,0,0,0-.7,1.044V0Zm4.98-4.188a.694.694,0,0,1-.51-.21.723.723,0,0,1-.21-.534.754.754,0,0,1,.21-.558.694.694,0,0,1,.51-.21.681.681,0,0,1,.5.21.754.754,0,0,1,.21.558.723.723,0,0,1-.21.534A.681.681,0,0,1,28.932-4.188Zm0,4.332a.694.694,0,0,1-.51-.21.723.723,0,0,1-.21-.534.754.754,0,0,1,.21-.558.694.694,0,0,1,.51-.21.681.681,0,0,1,.5.21.754.754,0,0,1,.21.558.723.723,0,0,1-.21.534A.681.681,0,0,1,28.932.144Zm6.768,0a3.473,3.473,0,0,1-1.56-.312,3.411,3.411,0,0,1-1.032-.768l.66-.888a3.538,3.538,0,0,0,.792.594,2.07,2.07,0,0,0,1.02.246,1.6,1.6,0,0,0,1.014-.306,1.016,1.016,0,0,0,.39-.846,1.3,1.3,0,0,0-.108-.54.959.959,0,0,0-.366-.408,2.025,2.025,0,0,0-.69-.258,5.42,5.42,0,0,0-1.08-.09V-4.44a4.151,4.151,0,0,0,.942-.09,1.808,1.808,0,0,0,.612-.252.943.943,0,0,0,.336-.39,1.191,1.191,0,0,0,.1-.492.957.957,0,0,0-.3-.75,1.193,1.193,0,0,0-.828-.27,1.7,1.7,0,0,0-.822.2,3.492,3.492,0,0,0-.714.522l-.708-.852a4.517,4.517,0,0,1,1.05-.7,2.868,2.868,0,0,1,1.242-.264,3.617,3.617,0,0,1,1.008.132,2.233,2.233,0,0,1,.78.39,1.78,1.78,0,0,1,.5.636,1.972,1.972,0,0,1,.18.858,1.648,1.648,0,0,1-.354,1.08,2.3,2.3,0,0,1-.978.672v.048a2.33,2.33,0,0,1,1.134.66,1.735,1.735,0,0,1,.45,1.236,2.016,2.016,0,0,1-.21.936,2.04,2.04,0,0,1-.576.69,2.673,2.673,0,0,1-.852.432A3.5,3.5,0,0,1,35.7.144Zm4.932,0A.861.861,0,0,1,39.99-.12a.922.922,0,0,1-.258-.672.922.922,0,0,1,.258-.672.861.861,0,0,1,.642-.264.842.842,0,0,1,.636.264.934.934,0,0,1,.252.672.934.934,0,0,1-.252.672A.842.842,0,0,1,40.632.144Zm4.536,0a3.425,3.425,0,0,1-1.554-.318,4.051,4.051,0,0,1-1.05-.738L43.2-1.8a4.16,4.16,0,0,0,.78.57,2,2,0,0,0,1.008.246,1.5,1.5,0,0,0,1.062-.384,1.4,1.4,0,0,0,.414-1.08A1.4,1.4,0,0,0,46.08-3.5a1.4,1.4,0,0,0-1.02-.372,1.67,1.67,0,0,0-.624.1,3.623,3.623,0,0,0-.6.33l-.66-.42L43.4-7.632h4.08v1.164H44.6L44.448-4.62a2.7,2.7,0,0,1,.474-.186,1.971,1.971,0,0,1,.534-.066,2.959,2.959,0,0,1,.93.144,2.09,2.09,0,0,1,.762.438,2.1,2.1,0,0,1,.516.744,2.693,2.693,0,0,1,.192,1.062,2.685,2.685,0,0,1-.222,1.116,2.465,2.465,0,0,1-.594.828,2.547,2.547,0,0,1-.858.51A2.986,2.986,0,0,1,45.168.144Zm6.336,0a2.177,2.177,0,0,1-1.9-1.026,5.283,5.283,0,0,1-.7-2.97,5.1,5.1,0,0,1,.7-2.934,2.2,2.2,0,0,1,1.9-.99,2.194,2.194,0,0,1,1.9,1,5.1,5.1,0,0,1,.7,2.928,5.283,5.283,0,0,1-.7,2.97A2.177,2.177,0,0,1,51.5.144Zm0-1.08a.927.927,0,0,0,.51-.15,1.179,1.179,0,0,0,.4-.5,3.462,3.462,0,0,0,.264-.9,8.173,8.173,0,0,0,.1-1.368,7.975,7.975,0,0,0-.1-1.35,3.265,3.265,0,0,0-.264-.882,1.1,1.1,0,0,0-.4-.474A.986.986,0,0,0,51.5-6.7a.986.986,0,0,0-.51.138,1.1,1.1,0,0,0-.4.474,3.265,3.265,0,0,0-.264.882,7.975,7.975,0,0,0-.1,1.35,8.173,8.173,0,0,0,.1,1.368,3.462,3.462,0,0,0,.264.9,1.179,1.179,0,0,0,.4.5A.927.927,0,0,0,51.5-.936ZM57.66.144a2.177,2.177,0,0,1-1.9-1.026,5.283,5.283,0,0,1-.7-2.97,5.1,5.1,0,0,1,.7-2.934,2.2,2.2,0,0,1,1.9-.99,2.194,2.194,0,0,1,1.9,1,5.1,5.1,0,0,1,.7,2.928,5.283,5.283,0,0,1-.7,2.97A2.177,2.177,0,0,1,57.66.144Zm0-1.08a.927.927,0,0,0,.51-.15,1.179,1.179,0,0,0,.4-.5,3.462,3.462,0,0,0,.264-.9,8.173,8.173,0,0,0,.1-1.368,7.976,7.976,0,0,0-.1-1.35,3.265,3.265,0,0,0-.264-.882,1.1,1.1,0,0,0-.4-.474.986.986,0,0,0-.51-.138.986.986,0,0,0-.51.138,1.1,1.1,0,0,0-.4.474,3.265,3.265,0,0,0-.264.882,7.975,7.975,0,0,0-.1,1.35,8.173,8.173,0,0,0,.1,1.368,3.462,3.462,0,0,0,.264.9,1.179,1.179,0,0,0,.4.5A.927.927,0,0,0,57.66-.936Zm3.948,3.12-.3-.756a2.159,2.159,0,0,0,.906-.612,1.235,1.235,0,0,0,.306-.84h-.108a.946.946,0,0,1-.618-.222.77.77,0,0,1-.27-.63.778.778,0,0,1,.27-.618.964.964,0,0,1,.654-.234.886.886,0,0,1,.762.372,1.752,1.752,0,0,1,.27,1.044,2.488,2.488,0,0,1-.486,1.536A2.835,2.835,0,0,1,61.608,2.184ZM67.116.144a2.177,2.177,0,0,1-1.9-1.026,5.283,5.283,0,0,1-.7-2.97,5.1,5.1,0,0,1,.7-2.934,2.2,2.2,0,0,1,1.9-.99,2.194,2.194,0,0,1,1.9,1,5.1,5.1,0,0,1,.7,2.928,5.283,5.283,0,0,1-.7,2.97A2.177,2.177,0,0,1,67.116.144Zm0-1.08a.927.927,0,0,0,.51-.15,1.179,1.179,0,0,0,.4-.5,3.463,3.463,0,0,0,.264-.9,8.173,8.173,0,0,0,.1-1.368,7.975,7.975,0,0,0-.1-1.35,3.265,3.265,0,0,0-.264-.882,1.1,1.1,0,0,0-.4-.474.986.986,0,0,0-.51-.138.986.986,0,0,0-.51.138,1.1,1.1,0,0,0-.4.474,3.265,3.265,0,0,0-.264.882,7.975,7.975,0,0,0-.1,1.35,8.173,8.173,0,0,0,.1,1.368,3.462,3.462,0,0,0,.264.9,1.179,1.179,0,0,0,.4.5A.927.927,0,0,0,67.116-.936ZM73.272.144a2.177,2.177,0,0,1-1.9-1.026,5.283,5.283,0,0,1-.7-2.97,5.1,5.1,0,0,1,.7-2.934,2.2,2.2,0,0,1,1.9-.99,2.194,2.194,0,0,1,1.9,1,5.1,5.1,0,0,1,.7,2.928,5.283,5.283,0,0,1-.7,2.97A2.177,2.177,0,0,1,73.272.144Zm0-1.08a.927.927,0,0,0,.51-.15,1.179,1.179,0,0,0,.4-.5,3.463,3.463,0,0,0,.264-.9,8.173,8.173,0,0,0,.1-1.368,7.975,7.975,0,0,0-.1-1.35,3.265,3.265,0,0,0-.264-.882,1.1,1.1,0,0,0-.4-.474.986.986,0,0,0-.51-.138.986.986,0,0,0-.51.138,1.1,1.1,0,0,0-.4.474A3.265,3.265,0,0,0,72.1-5.2a7.975,7.975,0,0,0-.1,1.35,8.173,8.173,0,0,0,.1,1.368,3.462,3.462,0,0,0,.264.9,1.179,1.179,0,0,0,.4.5A.927.927,0,0,0,73.272-.936ZM79.98.144V-2.88l-1.008.528v-.8l1.008-.528V-4.44l-1.008.528v-.8l1.008-.54V-7.632h1.392v1.7l1.86-.984v.8l-1.86.984v.756l1.86-.984v.8l-1.86.984v2.412a2.72,2.72,0,0,0,.72-.15,2.054,2.054,0,0,0,.636-.354,1.886,1.886,0,0,0,.45-.54,1.429,1.429,0,0,0,.174-.708q0-.084-.006-.186a1.375,1.375,0,0,0-.042-.246l1.152-.288a3.037,3.037,0,0,1,.084.66,2.85,2.85,0,0,1-.324,1.386,2.732,2.732,0,0,1-.918.984,4.274,4.274,0,0,1-1.44.576A7.9,7.9,0,0,1,79.98.144Z" transform="translate(519 152)"/>
    <g id="Path_1533" data-name="Path 1533" class="cls-13" transform="translate(502 125)">
      <path class="cls-18" d="M 6 11.5 C 2.967289924621582 11.5 0.5 9.032710075378418 0.5 6 C 0.5 2.967289924621582 2.967289924621582 0.5 6 0.5 C 9.032710075378418 0.5 11.5 2.967289924621582 11.5 6 C 11.5 9.032710075378418 9.032710075378418 11.5 6 11.5 Z"/>
      <path class="cls-21" d="M 6 1 C 3.242989540100098 1 1 3.242989540100098 1 6 C 1 8.757009506225586 3.242989540100098 11 6 11 C 8.757009506225586 11 11 8.757009506225586 11 6 C 11 3.242989540100098 8.757009506225586 1 6 1 M 6 0 C 9.31371021270752 0 12 2.68628978729248 12 6 C 12 9.31371021270752 9.31371021270752 12 6 12 C 2.68628978729248 12 0 9.31371021270752 0 6 C 0 2.68628978729248 2.68628978729248 0 6 0 Z"/>
    </g>
    <g id="Path_1534" data-name="Path 1534" class="cls-17" transform="translate(502 142)">
      <path class="cls-18" d="M 6 11.5 C 2.967289924621582 11.5 0.5 9.032710075378418 0.5 6 C 0.5 2.967289924621582 2.967289924621582 0.5 6 0.5 C 9.032710075378418 0.5 11.5 2.967289924621582 11.5 6 C 11.5 9.032710075378418 9.032710075378418 11.5 6 11.5 Z"/>
      <path class="cls-22" d="M 6 1 C 3.242989540100098 1 1 3.242989540100098 1 6 C 1 8.757009506225586 3.242989540100098 11 6 11 C 8.757009506225586 11 11 8.757009506225586 11 6 C 11 3.242989540100098 8.757009506225586 1 6 1 M 6 0 C 9.31371021270752 0 12 2.68628978729248 12 6 C 12 9.31371021270752 9.31371021270752 12 6 12 C 2.68628978729248 12 0 9.31371021270752 0 6 C 0 2.68628978729248 2.68628978729248 0 6 0 Z"/>
    </g>
  </g>
</svg>
