<svg xmlns="http://www.w3.org/2000/svg" xmlns:xlink="http://www.w3.org/1999/xlink" width="530" height="588" viewBox="0 0 530 588">
  <defs>
    <style>
      .cls-1 {
        fill: #495057;
      }

      .cls-15, .cls-2, .cls-9 {
        fill: #fff;
      }

      .cls-3 {
        fill: #fd9644;
      }

      .cls-4 {
        fill: #5bc000;
      }

      .cls-5 {
        fill: #467fcf;
      }

      .cls-6 {
        fill: #cb201f;
      }

      .cls-7 {
        clip-path: url(#clip-İletişim_Merkezi_2);
      }

      .cls-14, .cls-43, .cls-8 {
        fill: #343a40;
      }

      .cls-10 {
        fill: #f8f9fb;
      }

      .cls-11, .cls-13, .cls-42 {
        fill: #9ba0ab;
      }

      .cls-12 {
        fill: #5eba00;
      }

      .cls-15 {
        stroke: rgba(0,40,100,0.12);
      }

      .cls-16 {
        clip-path: url(#clip-path);
      }

      .cls-17, .cls-21, .cls-39 {
        fill: none;
      }

      .cls-17 {
        stroke: #495057;
      }

      .cls-17, .cls-21 {
        stroke-linecap: round;
        stroke-linejoin: round;
      }

      .cls-18 {
        fill: #fee0c7;
      }

      .cls-19, .cls-35, .cls-44 {
        fill: #fc9744;
      }

      .cls-20 {
        clip-path: url(#clip-path-2);
      }

      .cls-21 {
        stroke: #fff;
      }

      .cls-22 {
        fill: #dbdde0;
      }

      .cls-23 {
        fill: #497dcf;
      }

      .cls-24 {
        clip-path: url(#clip-path-3);
      }

      .cls-25 {
        clip-path: url(#clip-path-4);
      }

      .cls-26 {
        fill: #cc201f;
      }

      .cls-27 {
        fill: #cfeab3;
      }

      .cls-28 {
        clip-path: url(#clip-path-6);
      }

      .cls-29 {
        fill: #5cbe00;
      }

      .cls-30 {
        fill: #c8d9f1;
      }

      .cls-31 {
        fill: #eec40d;
      }

      .cls-32 {
        clip-path: url(#clip-path-12);
      }

      .cls-33 {
        fill: #f0bcbc;
      }

      .cls-34 {
        clip-path: url(#clip-path-14);
      }

      .cls-36 {
        clip-path: url(#clip-path-18);
      }

      .cls-37 {
        fill: #cfebb3;
      }

      .cls-38 {
        clip-path: url(#clip-path-20);
      }

      .cls-40, .cls-41, .cls-42, .cls-43, .cls-44 {
        stroke: none;
      }

      .cls-41 {
        fill: rgba(0,40,100,0.12);
      }

      .cls-45 {
        fill: #f5f7fb;
      }

      .cls-46 {
        filter: url(#Path_1291);
      }

      .cls-47 {
        filter: url(#Path_1287);
      }

      .cls-48 {
        filter: url(#Path_1294);
      }

      .cls-49 {
        filter: url(#Path_1306);
      }

      .cls-50 {
        filter: url(#Path_1299);
      }

      .cls-51 {
        filter: url(#Path_1314);
      }

      .cls-52 {
        filter: url(#Path_1321);
      }

      .cls-53 {
        filter: url(#_4);
      }
    </style>
    <filter id="_4" x="375.5" y="21.5" width="139" height="39" filterUnits="userSpaceOnUse">
      <feOffset dy="2" input="SourceAlpha"/>
      <feGaussianBlur stdDeviation="1.5" result="blur"/>
      <feFlood flood-opacity="0.161"/>
      <feComposite operator="in" in2="blur"/>
      <feComposite in="SourceGraphic"/>
    </filter>
    <filter id="Path_1321" x="367" y="130" width="39" height="31" filterUnits="userSpaceOnUse">
      <feOffset dy="1" input="SourceAlpha"/>
      <feGaussianBlur stdDeviation="0.5" result="blur-2"/>
      <feFlood flood-opacity="0.051"/>
      <feComposite operator="in" in2="blur-2"/>
      <feComposite in="SourceGraphic"/>
    </filter>
    <clipPath id="clip-path">
      <rect id="Rectangle_800" data-name="Rectangle 800" class="cls-1" width="16" height="16" transform="translate(840 338)"/>
    </clipPath>
    <clipPath id="clip-path-2">
      <rect id="Rectangle_803" data-name="Rectangle 803" class="cls-2" width="13" height="13" transform="translate(118 191)"/>
    </clipPath>
    <clipPath id="clip-path-3">
      <rect id="Rectangle_806" data-name="Rectangle 806" class="cls-2" width="13" height="13" transform="translate(885 2667)"/>
    </clipPath>
    <clipPath id="clip-path-4">
      <rect id="Rectangle_668" data-name="Rectangle 668" class="cls-3" width="12" height="12" transform="translate(291 20)"/>
    </clipPath>
    <filter id="Path_1314" x="367" y="195" width="39" height="31" filterUnits="userSpaceOnUse">
      <feOffset dy="1" input="SourceAlpha"/>
      <feGaussianBlur stdDeviation="0.5" result="blur-3"/>
      <feFlood flood-opacity="0.051"/>
      <feComposite operator="in" in2="blur-3"/>
      <feComposite in="SourceGraphic"/>
    </filter>
    <clipPath id="clip-path-6">
      <rect id="Rectangle_603" data-name="Rectangle 603" class="cls-4" width="12" height="12" transform="translate(162 255)"/>
    </clipPath>
    <filter id="Path_1299" x="367" y="260" width="39" height="31" filterUnits="userSpaceOnUse">
      <feOffset dy="1" input="SourceAlpha"/>
      <feGaussianBlur stdDeviation="0.5" result="blur-4"/>
      <feFlood flood-opacity="0.051"/>
      <feComposite operator="in" in2="blur-4"/>
      <feComposite in="SourceGraphic"/>
    </filter>
    <filter id="Path_1306" x="367" y="325" width="39" height="31" filterUnits="userSpaceOnUse">
      <feOffset dy="1" input="SourceAlpha"/>
      <feGaussianBlur stdDeviation="0.5" result="blur-5"/>
      <feFlood flood-opacity="0.051"/>
      <feComposite operator="in" in2="blur-5"/>
      <feComposite in="SourceGraphic"/>
    </filter>
    <clipPath id="clip-path-12">
      <rect id="Rectangle_817" data-name="Rectangle 817" class="cls-5" width="12" height="11" transform="translate(49 169)"/>
    </clipPath>
    <filter id="Path_1294" x="367" y="390" width="39" height="31" filterUnits="userSpaceOnUse">
      <feOffset dy="1" input="SourceAlpha"/>
      <feGaussianBlur stdDeviation="0.5" result="blur-6"/>
      <feFlood flood-opacity="0.051"/>
      <feComposite operator="in" in2="blur-6"/>
      <feComposite in="SourceGraphic"/>
    </filter>
    <clipPath id="clip-path-14">
      <rect id="Rectangle_818" data-name="Rectangle 818" class="cls-6" width="12" height="12" transform="translate(48 169)"/>
    </clipPath>
    <filter id="Path_1287" x="367" y="455" width="39" height="31" filterUnits="userSpaceOnUse">
      <feOffset dy="1" input="SourceAlpha"/>
      <feGaussianBlur stdDeviation="0.5" result="blur-7"/>
      <feFlood flood-opacity="0.051"/>
      <feComposite operator="in" in2="blur-7"/>
      <feComposite in="SourceGraphic"/>
    </filter>
    <clipPath id="clip-path-18">
      <rect id="Rectangle_816" data-name="Rectangle 816" class="cls-2" width="11" height="11" transform="translate(933 2647)"/>
    </clipPath>
    <filter id="Path_1291" x="367" y="520" width="39" height="31" filterUnits="userSpaceOnUse">
      <feOffset dy="1" input="SourceAlpha"/>
      <feGaussianBlur stdDeviation="0.5" result="blur-8"/>
      <feFlood flood-opacity="0.051"/>
      <feComposite operator="in" in2="blur-8"/>
      <feComposite in="SourceGraphic"/>
    </filter>
    <clipPath id="clip-path-20">
      <rect id="Rectangle_819" data-name="Rectangle 819" class="cls-4" width="12" height="12" transform="translate(49 169)"/>
    </clipPath>
    <clipPath id="clip-İletişim_Merkezi_2">
      <rect width="530" height="588"/>
    </clipPath>
  </defs>
  <g id="İletişim_Merkezi_2" data-name="İletişim Merkezi – 2" class="cls-7">
    <rect class="cls-45" width="530" height="588"/>
    <path id="Path_1328" data-name="Path 1328" class="cls-8" d="M2.407,0V-18.966H5.771V0ZM4.089-20.5a2.093,2.093,0,0,1-1.479-.536,1.792,1.792,0,0,1-.58-1.378,1.747,1.747,0,0,1,.58-1.363A2.127,2.127,0,0,1,4.089-24.3a2.127,2.127,0,0,1,1.479.522,1.747,1.747,0,0,1,.58,1.363,1.792,1.792,0,0,1-.58,1.378A2.093,2.093,0,0,1,4.089-20.5ZM13.543.348A2.821,2.821,0,0,1,11.02-.725,5.17,5.17,0,0,1,10.3-3.654v-16.82H13.63V-3.48a1.241,1.241,0,0,0,.232.856.676.676,0,0,0,.493.246h.217a1.23,1.23,0,0,0,.3-.058L15.312.058A4.5,4.5,0,0,1,13.543.348Zm10.7,0A7.386,7.386,0,0,1,21.489-.16a6.542,6.542,0,0,1-2.233-1.465,6.681,6.681,0,0,1-1.493-2.334,8.623,8.623,0,0,1-.537-3.147,8.449,8.449,0,0,1,.551-3.132,7.185,7.185,0,0,1,1.465-2.349,6.488,6.488,0,0,1,2.1-1.479,6,6,0,0,1,2.436-.522,6.2,6.2,0,0,1,2.552.493A4.979,4.979,0,0,1,28.174-12.7a6.123,6.123,0,0,1,1.117,2.146,9.385,9.385,0,0,1,.377,2.726q0,.493-.043.928a6.182,6.182,0,0,1-.1.7H20.474a4.6,4.6,0,0,0,1.348,2.944,4.049,4.049,0,0,0,2.857,1.029A5.25,5.25,0,0,0,26.4-2.508a7.668,7.668,0,0,0,1.581-.769l1.131,2.088a10.24,10.24,0,0,1-2.262,1.1A7.867,7.867,0,0,1,24.244.348Zm-3.8-8.816h6.322a4.223,4.223,0,0,0-.711-2.6,2.565,2.565,0,0,0-2.189-.943,3.159,3.159,0,0,0-2.233.9A4.262,4.262,0,0,0,20.445-8.468ZM37.584.348a5.209,5.209,0,0,1-2.1-.377A3.564,3.564,0,0,1,34.09-1.088a4.382,4.382,0,0,1-.783-1.624,8.312,8.312,0,0,1-.246-2.1V-11.6H31.03v-2.494l2.2-.145.406-3.886h2.784v3.886h3.625V-11.6H36.424v6.786q0,2.494,2,2.494a3.536,3.536,0,0,0,.768-.087,3.6,3.6,0,0,0,.71-.232l.58,2.465a11.1,11.1,0,0,1-1.319.362A7.487,7.487,0,0,1,37.584.348ZM43.036,0V-14.239h3.335V0Zm1.682-16.733a2.127,2.127,0,0,1-1.479-.522,1.747,1.747,0,0,1-.58-1.363A1.792,1.792,0,0,1,43.239-20a2.093,2.093,0,0,1,1.479-.537A2.093,2.093,0,0,1,46.2-20a1.792,1.792,0,0,1,.58,1.377,1.747,1.747,0,0,1-.58,1.363A2.127,2.127,0,0,1,44.718-16.733ZM54.607.348a7.891,7.891,0,0,1-2.915-.565,9.43,9.43,0,0,1-2.479-1.407L50.779-3.77a9.053,9.053,0,0,0,1.9,1.174,4.96,4.96,0,0,0,2.045.42,2.565,2.565,0,0,0,1.711-.478,1.558,1.558,0,0,0,.551-1.233,1.212,1.212,0,0,0-.261-.768,2.507,2.507,0,0,0-.7-.594,6.691,6.691,0,0,0-.986-.479q-.551-.217-1.1-.45-.7-.261-1.421-.609a5.712,5.712,0,0,1-1.29-.841A4.242,4.242,0,0,1,50.3-8.773a3.147,3.147,0,0,1-.362-1.552A3.855,3.855,0,0,1,51.33-13.4a5.659,5.659,0,0,1,3.8-1.189,6.57,6.57,0,0,1,2.668.522,9.932,9.932,0,0,1,2.059,1.189l-1.537,2.03a7.954,7.954,0,0,0-1.523-.884,4,4,0,0,0-1.61-.333,2.338,2.338,0,0,0-1.58.45A1.431,1.431,0,0,0,53.1-10.5a1.138,1.138,0,0,0,.246.739A2.283,2.283,0,0,0,54-9.222a6.643,6.643,0,0,0,.943.435q.536.2,1.117.406.725.261,1.45.595a5.954,5.954,0,0,1,1.32.826,3.769,3.769,0,0,1,.957,1.2,3.692,3.692,0,0,1,.362,1.7,4.12,4.12,0,0,1-.362,1.725A3.985,3.985,0,0,1,58.725-.942,5.155,5.155,0,0,1,56.985,0,7.506,7.506,0,0,1,54.607.348ZM52.432,6.757l-.29-1.45a7.69,7.69,0,0,0,2.422-.42.994.994,0,0,0,.653-.943.954.954,0,0,0-.464-.812,4.46,4.46,0,0,0-1.769-.493L54.317-.087h2.03L55.506,1.8a3.961,3.961,0,0,1,1.61.739,1.7,1.7,0,0,1,.566,1.378,2.174,2.174,0,0,1-1.363,2.059A10.141,10.141,0,0,1,52.432,6.757ZM63.133,0V-14.239h3.335V0Zm1.682-16.733a2.127,2.127,0,0,1-1.479-.522,1.747,1.747,0,0,1-.58-1.363A1.792,1.792,0,0,1,63.336-20a2.093,2.093,0,0,1,1.479-.537A2.093,2.093,0,0,1,66.294-20a1.792,1.792,0,0,1,.58,1.377,1.747,1.747,0,0,1-.58,1.363A2.127,2.127,0,0,1,64.815-16.733ZM70.731,0V-14.239h2.755l.232,1.943h.116a9.991,9.991,0,0,1,1.957-1.624,4.393,4.393,0,0,1,2.393-.667,4.259,4.259,0,0,1,2.508.667,4.141,4.141,0,0,1,1.436,1.885,11.455,11.455,0,0,1,2.117-1.827,4.387,4.387,0,0,1,2.465-.725,3.859,3.859,0,0,1,3.335,1.465,7.007,7.007,0,0,1,1.073,4.19V0H87.754V-8.5a4.334,4.334,0,0,0-.536-2.494,1.905,1.905,0,0,0-1.639-.725,4.485,4.485,0,0,0-2.987,1.769V0H79.257V-8.5a4.334,4.334,0,0,0-.536-2.494,1.938,1.938,0,0,0-1.667-.725,4.485,4.485,0,0,0-2.987,1.769V0Zm30.537,0V-18.966h3.8l3.364,9.28q.319.9.609,1.841t.609,1.871h.116q.319-.928.594-1.871t.595-1.841l3.277-9.28h3.828V0h-3.1V-8.671q0-.667.043-1.45t.1-1.58q.058-.8.145-1.566t.145-1.436h-.116L113.738-10.3l-3.1,8.526h-2L105.5-10.3,103.994-14.7h-.116q.058.667.131,1.436t.145,1.566q.072.8.116,1.58t.044,1.45V0Zm27.405.348a7.387,7.387,0,0,1-2.755-.507,6.542,6.542,0,0,1-2.233-1.465,6.681,6.681,0,0,1-1.493-2.334,8.623,8.623,0,0,1-.536-3.147,8.449,8.449,0,0,1,.551-3.132,7.185,7.185,0,0,1,1.465-2.349,6.488,6.488,0,0,1,2.1-1.479,6,6,0,0,1,2.436-.522,6.2,6.2,0,0,1,2.552.493A4.979,4.979,0,0,1,132.6-12.7a6.123,6.123,0,0,1,1.117,2.146A9.386,9.386,0,0,1,134.1-7.83q0,.493-.044.928a6.184,6.184,0,0,1-.1.7H124.9a4.6,4.6,0,0,0,1.349,2.944,4.049,4.049,0,0,0,2.856,1.029,5.25,5.25,0,0,0,1.725-.275,7.668,7.668,0,0,0,1.581-.769l1.131,2.088a10.24,10.24,0,0,1-2.262,1.1A7.867,7.867,0,0,1,128.673.348Zm-3.8-8.816H131.2a4.224,4.224,0,0,0-.71-2.6,2.565,2.565,0,0,0-2.189-.943,3.159,3.159,0,0,0-2.233.9A4.262,4.262,0,0,0,124.874-8.468ZM137.286,0V-14.239h2.755l.232,2.523h.116a5.978,5.978,0,0,1,1.827-2.131,3.84,3.84,0,0,1,2.2-.74,3.816,3.816,0,0,1,1.624.29l-.58,2.9a6.089,6.089,0,0,0-.7-.174,4.469,4.469,0,0,0-.783-.058,3.107,3.107,0,0,0-1.769.652,5.041,5.041,0,0,0-1.6,2.276V0ZM148.1,0V-20.474h3.277V-7.685h.087l5.278-6.554H160.4l-4.872,5.8L160.892,0h-3.625l-3.654-6.177L151.38-3.625V0Zm20.561.348a7.386,7.386,0,0,1-2.755-.507,6.542,6.542,0,0,1-2.233-1.465,6.681,6.681,0,0,1-1.493-2.334,8.623,8.623,0,0,1-.536-3.147,8.449,8.449,0,0,1,.551-3.132,7.185,7.185,0,0,1,1.464-2.349,6.488,6.488,0,0,1,2.1-1.479,6,6,0,0,1,2.436-.522,6.2,6.2,0,0,1,2.552.493,4.979,4.979,0,0,1,1.842,1.392,6.123,6.123,0,0,1,1.117,2.146,9.386,9.386,0,0,1,.377,2.726q0,.493-.044.928a6.184,6.184,0,0,1-.1.7h-9.048a4.6,4.6,0,0,0,1.349,2.944A4.049,4.049,0,0,0,169.1-2.233a5.25,5.25,0,0,0,1.725-.275,7.668,7.668,0,0,0,1.581-.769l1.131,2.088a10.24,10.24,0,0,1-2.262,1.1A7.867,7.867,0,0,1,168.664.348Zm-3.8-8.816h6.322a4.224,4.224,0,0,0-.71-2.6,2.565,2.565,0,0,0-2.189-.943,3.159,3.159,0,0,0-2.233.9A4.262,4.262,0,0,0,164.865-8.468ZM176.03,0V-1.8l6.728-9.8h-5.974v-2.639h10.15v1.769l-6.7,9.8h6.931V0Zm13.978,0V-14.239h3.335V0Zm1.682-16.733a2.127,2.127,0,0,1-1.479-.522,1.747,1.747,0,0,1-.58-1.363,1.792,1.792,0,0,1,.58-1.377,2.093,2.093,0,0,1,1.479-.537,2.093,2.093,0,0,1,1.479.537,1.792,1.792,0,0,1,.58,1.377,1.747,1.747,0,0,1-.58,1.363A2.127,2.127,0,0,1,191.69-16.733Z" transform="translate(20 49)"/>
    <g id="bg" class="cls-9" transform="translate(20 77)">
      <path class="cls-40" d="M2,0H488a2,2,0,0,1,2,2V489a2,2,0,0,1-2,2H2a2,2,0,0,1-2-2V2A2,2,0,0,1,2,0Z"/>
      <path class="cls-41" d="M 2 1 C 1.448638916015625 1 1 1.448638916015625 1 2 L 1 489 C 1 489.5513610839844 1.448638916015625 490 2 490 L 488 490 C 488.5513610839844 490 489 489.5513610839844 489 489 L 489 2 C 489 1.448638916015625 488.5513610839844 1 488 1 L 2 1 M 2 0 L 488 0 C 489.1045532226562 0 490 0.89544677734375 490 2 L 490 489 C 490 490.1045532226562 489.1045532226562 491 488 491 L 2 491 C 0.89544677734375 491 0 490.1045532226562 0 489 L 0 2 C 0 0.89544677734375 0.89544677734375 0 2 0 Z"/>
    </g>
    <g id="Adsoyadbg" class="cls-10" transform="translate(20 77)">
      <path class="cls-40" d="M2,0H488a2,2,0,0,1,2,2V35H0V2A2,2,0,0,1,2,0Z"/>
      <path class="cls-41" d="M 2 1 C 1.448638916015625 1 1 1.448623657226562 1 2 L 1 34 L 489 34 L 489 2 C 489 1.448623657226562 488.5513610839844 1 488 1 L 2 1 M 2 0 L 488 0 C 489.1045532226562 0 490 0.8954391479492188 490 2 L 490 35 L 0 35 L 0 2 C 0 0.8954391479492188 0.89544677734375 0 2 0 Z"/>
    </g>
    <path id="Path_1325" data-name="Path 1325" class="cls-11" d="M.913,0V-7.194H2.354L3.63-3.674q.121.341.231.7t.231.71h.044q.121-.352.226-.71t.226-.7L5.83-7.194H7.282V0H6.105V-3.289q0-.253.016-.55t.038-.6q.022-.3.055-.594t.055-.544H6.226L5.643-3.9,4.466-.671H3.707L2.519-3.9,1.947-5.577H1.9q.022.253.05.544t.055.594q.027.3.044.6t.016.55V0ZM9.108,0V-7.194h4.334v1.078H10.384v1.837h2.585V-3.2H10.384v2.123h3.168V0Zm8.019.132a3.69,3.69,0,0,1-1.4-.275,3.66,3.66,0,0,1-1.193-.781l.748-.869a3.216,3.216,0,0,0,.88.589,2.371,2.371,0,0,0,.99.225,1.48,1.48,0,0,0,.935-.253A.814.814,0,0,0,18.4-1.9a.783.783,0,0,0-.083-.374.847.847,0,0,0-.231-.27,1.99,1.99,0,0,0-.352-.214q-.2-.1-.445-.2l-.99-.429a3.408,3.408,0,0,1-.523-.275,2.289,2.289,0,0,1-.467-.4,1.833,1.833,0,0,1-.336-.539,1.84,1.84,0,0,1-.126-.7,1.78,1.78,0,0,1,.181-.8,2.023,2.023,0,0,1,.5-.643,2.314,2.314,0,0,1,.764-.429,2.962,2.962,0,0,1,.974-.154,3.066,3.066,0,0,1,1.21.248,3.124,3.124,0,0,1,1,.665l-.649.814a3.2,3.2,0,0,0-.726-.451,2.05,2.05,0,0,0-.836-.165,1.367,1.367,0,0,0-.825.226.728.728,0,0,0-.308.622.657.657,0,0,0,.094.358.956.956,0,0,0,.253.264,2.063,2.063,0,0,0,.368.209q.209.093.429.181l.979.407a3.372,3.372,0,0,1,.583.308,2.121,2.121,0,0,1,.456.407,1.77,1.77,0,0,1,.3.533,2.039,2.039,0,0,1,.11.7,1.961,1.961,0,0,1-.176.825,1.981,1.981,0,0,1-.511.677,2.51,2.51,0,0,1-.814.462A3.215,3.215,0,0,1,17.127.132Zm5.368-3.96-.253.88h1.837l-.253-.88Q23.65-4.4,23.49-5.005t-.313-1.2h-.044q-.154.6-.308,1.2T22.495-3.828ZM20.086,0l2.343-7.194h1.5L26.268,0H24.926l-.561-1.947h-2.42L21.384,0Zm8.569.132a2.484,2.484,0,0,1-1.281-.308,2.389,2.389,0,0,1-.864-.913l.88-.649a1.558,1.558,0,0,0,.506.578,1.129,1.129,0,0,0,.616.181.925.925,0,0,0,.759-.308,1.734,1.734,0,0,0,.253-1.078V-7.194H30.8v4.939a3.452,3.452,0,0,1-.121.929,2.064,2.064,0,0,1-.385.759,1.84,1.84,0,0,1-.671.512A2.3,2.3,0,0,1,28.655.132Zm7.612-3.96-.253.88h1.837l-.253-.88q-.176-.572-.335-1.177t-.313-1.2h-.044q-.154.6-.308,1.2T36.267-3.828ZM33.858,0,36.2-7.194h1.5L40.04,0H38.7l-.561-1.947h-2.42L35.156,0Zm7.073,0V-7.194h1.925A3.555,3.555,0,0,1,45.43-6.3a3.551,3.551,0,0,1,.924,2.673,4.8,4.8,0,0,1-.236,1.573,3.017,3.017,0,0,1-.682,1.139,2.848,2.848,0,0,1-1.078.687A4.166,4.166,0,0,1,42.922,0Zm1.276-1.034h.561a2.193,2.193,0,0,0,1.688-.633,2.806,2.806,0,0,0,.589-1.964,2.666,2.666,0,0,0-.594-1.925,2.252,2.252,0,0,0-1.683-.605h-.561ZM47.806,0V-7.194h1.276V0Z" transform="translate(40 99)"/>
    <path id="Path_1326" data-name="Path 1326" class="cls-11" d="M.913,0V-7.194H2.838A3.555,3.555,0,0,1,5.412-6.3,3.551,3.551,0,0,1,6.336-3.63,4.794,4.794,0,0,1,6.1-2.057,3.017,3.017,0,0,1,5.418-.918a2.848,2.848,0,0,1-1.078.687A4.166,4.166,0,0,1,2.9,0ZM2.189-1.034H2.75a2.193,2.193,0,0,0,1.688-.633A2.806,2.806,0,0,0,5.027-3.63a2.666,2.666,0,0,0-.594-1.925A2.252,2.252,0,0,0,2.75-6.16H2.189ZM10.483.132A3.291,3.291,0,0,1,9.356-.049,2.107,2.107,0,0,1,8.5-.627a2.675,2.675,0,0,1-.55-1.018,5.162,5.162,0,0,1-.193-1.513V-7.194H9.031v4.136a3.968,3.968,0,0,0,.1.985,1.72,1.72,0,0,0,.3.643,1.094,1.094,0,0,0,.457.346,1.6,1.6,0,0,0,.594.1,1.69,1.69,0,0,0,.6-.1,1.118,1.118,0,0,0,.473-.346,1.726,1.726,0,0,0,.308-.643,3.779,3.779,0,0,0,.11-.985V-7.194H13.2v4.037a5.3,5.3,0,0,1-.187,1.513,2.619,2.619,0,0,1-.545,1.018,2.107,2.107,0,0,1-.858.577A3.291,3.291,0,0,1,10.483.132ZM14.993,0V-7.194h2.431a4.71,4.71,0,0,1,1.045.11,2.337,2.337,0,0,1,.836.357,1.729,1.729,0,0,1,.556.655,2.251,2.251,0,0,1,.2,1.012,2.119,2.119,0,0,1-.39,1.331A2.149,2.149,0,0,1,18.634-3L20.35,0H18.92L17.369-2.816h-1.1V0Zm1.276-3.828h1.023a1.788,1.788,0,0,0,1.128-.308,1.105,1.105,0,0,0,.39-.924.94.94,0,0,0-.39-.869,2.156,2.156,0,0,0-1.128-.242H16.269ZM24.2.132a3.291,3.291,0,0,1-1.128-.181,2.107,2.107,0,0,1-.858-.577,2.675,2.675,0,0,1-.55-1.018,5.162,5.162,0,0,1-.193-1.513V-7.194h1.276v4.136a3.968,3.968,0,0,0,.1.985,1.72,1.72,0,0,0,.3.643,1.094,1.094,0,0,0,.456.346,1.6,1.6,0,0,0,.594.1,1.69,1.69,0,0,0,.6-.1,1.118,1.118,0,0,0,.473-.346,1.726,1.726,0,0,0,.308-.643,3.779,3.779,0,0,0,.11-.985V-7.194h1.221v4.037a5.3,5.3,0,0,1-.187,1.513,2.619,2.619,0,0,1-.545,1.018,2.107,2.107,0,0,1-.858.577A3.291,3.291,0,0,1,24.2.132ZM28.71,0V-7.194h1.441l1.276,3.52q.121.341.231.7t.231.71h.044q.121-.352.226-.71t.226-.7l1.243-3.52h1.452V0H33.9V-3.289q0-.253.017-.55t.038-.6q.022-.3.055-.594t.055-.544h-.044L33.44-3.9,32.263-.671H31.5L30.316-3.9l-.572-1.672H29.7q.022.253.049.544t.055.594q.028.3.044.6t.017.55V0Z" transform="translate(244 99)"/>
    <path id="Path_1327" data-name="Path 1327" class="cls-11" d="M.913,0V-7.194H2.189V0Zm.638-7.777a.794.794,0,0,1-.561-.2A.68.68,0,0,1,.77-8.5.663.663,0,0,1,.99-9.02a.807.807,0,0,1,.561-.2.807.807,0,0,1,.561.2.663.663,0,0,1,.22.517.68.68,0,0,1-.22.523A.794.794,0,0,1,1.551-7.777ZM6.116.132a3.69,3.69,0,0,1-1.4-.275A3.66,3.66,0,0,1,3.52-.924l.748-.869a3.216,3.216,0,0,0,.88.589,2.371,2.371,0,0,0,.99.225,1.48,1.48,0,0,0,.935-.253A.814.814,0,0,0,7.392-1.9a.783.783,0,0,0-.083-.374.847.847,0,0,0-.231-.27,1.99,1.99,0,0,0-.352-.214q-.2-.1-.445-.2l-.99-.429a3.408,3.408,0,0,1-.523-.275,2.289,2.289,0,0,1-.467-.4A1.833,1.833,0,0,1,3.965-4.6a1.84,1.84,0,0,1-.126-.7,1.78,1.78,0,0,1,.182-.8,2.023,2.023,0,0,1,.5-.643,2.314,2.314,0,0,1,.765-.429,2.962,2.962,0,0,1,.973-.154,3.066,3.066,0,0,1,1.21.248,3.124,3.124,0,0,1,1,.665L7.821-5.6A3.2,3.2,0,0,0,7.1-6.05a2.05,2.05,0,0,0-.836-.165,1.367,1.367,0,0,0-.825.226.728.728,0,0,0-.308.622.657.657,0,0,0,.093.358.956.956,0,0,0,.253.264,2.063,2.063,0,0,0,.369.209q.209.093.429.181l.979.407a3.372,3.372,0,0,1,.583.308,2.121,2.121,0,0,1,.457.407,1.77,1.77,0,0,1,.3.533A2.039,2.039,0,0,1,8.7-2a1.961,1.961,0,0,1-.176.825A1.981,1.981,0,0,1,8.014-.5,2.51,2.51,0,0,1,7.2-.038,3.215,3.215,0,0,1,6.116.132ZM5.1,2.563l-.11-.55a2.917,2.917,0,0,0,.918-.159A.377.377,0,0,0,6.16,1.5a.362.362,0,0,0-.176-.308A1.692,1.692,0,0,0,5.313,1L5.819-.033h.77L6.27.682a1.5,1.5,0,0,1,.611.28.646.646,0,0,1,.215.523.825.825,0,0,1-.517.781A3.847,3.847,0,0,1,5.1,2.563ZM10.01,0V-7.194h1.276v6.116h2.992V0Zm5.522,0V-7.194h4.334v1.078H16.808v1.837h2.585V-3.2H16.808v2.123h3.168V0ZM21.45,0V-7.194h1.441l1.276,3.52q.121.341.231.7t.231.71h.044q.121-.352.226-.71t.226-.7l1.243-3.52h1.452V0H26.642V-3.289q0-.253.017-.55t.038-.6q.022-.3.055-.594t.055-.544h-.044L26.18-3.9,25-.671h-.759L23.056-3.9l-.572-1.672H22.44q.022.253.049.544t.055.594q.028.3.044.6t.016.55V0Z" transform="translate(369 99)"/>
    <g class="cls-53" transform="matrix(1, 0, 0, 1, 0, 0)">
      <path id="_4-2" data-name="4" class="cls-12" d="M3,0H127a3,3,0,0,1,3,3V27a3,3,0,0,1-3,3H3a3,3,0,0,1-3-3V3A3,3,0,0,1,3,0Z" transform="translate(380 24)"/>
    </g>
    <path id="Path_1329" data-name="Path 1329" class="cls-2" d="M2.3,0V-2.916L-.048-7.848H1.44l.852,2q.168.444.336.858t.36.87h.048q.192-.456.372-.87t.348-.858l.852-2H6.06L3.7-2.916V0ZM8.832.144a3.056,3.056,0,0,1-1.14-.21,2.707,2.707,0,0,1-.924-.606,2.764,2.764,0,0,1-.618-.966,3.568,3.568,0,0,1-.222-1.3,3.5,3.5,0,0,1,.228-1.3,2.973,2.973,0,0,1,.606-.972,2.685,2.685,0,0,1,.87-.612A2.484,2.484,0,0,1,8.64-6.036a2.564,2.564,0,0,1,1.056.2,2.06,2.06,0,0,1,.762.576,2.534,2.534,0,0,1,.462.888,3.884,3.884,0,0,1,.156,1.128q0,.2-.018.384a2.558,2.558,0,0,1-.042.288H7.272A1.9,1.9,0,0,0,7.83-1.35a1.675,1.675,0,0,0,1.182.426,2.173,2.173,0,0,0,.714-.114,3.173,3.173,0,0,0,.654-.318l.468.864a4.237,4.237,0,0,1-.936.456A3.255,3.255,0,0,1,8.832.144ZM7.26-3.5H9.876a1.748,1.748,0,0,0-.294-1.074,1.061,1.061,0,0,0-.906-.39,1.307,1.307,0,0,0-.924.372A1.764,1.764,0,0,0,7.26-3.5ZM12.4,0V-5.892h1.14l.1.792h.048a4.671,4.671,0,0,1,.858-.66,2.054,2.054,0,0,1,1.074-.276,1.578,1.578,0,0,1,1.38.606A2.96,2.96,0,0,1,17.424-3.7V0h-1.38V-3.516a1.833,1.833,0,0,0-.216-1.032.813.813,0,0,0-.708-.3,1.241,1.241,0,0,0-.678.186,4.325,4.325,0,0,0-.666.546V0Zm6.72,0V-5.892H20.5V0Zm.7-6.924A.88.88,0,0,1,19.2-7.14a.723.723,0,0,1-.24-.564.742.742,0,0,1,.24-.57.866.866,0,0,1,.612-.222.866.866,0,0,1,.612.222.742.742,0,0,1,.24.57.723.723,0,0,1-.24.564A.88.88,0,0,1,19.812-6.924ZM24.78,0V-7.848h1.572l1.392,3.84q.132.372.252.762t.252.774H28.3q.132-.384.246-.774t.246-.762l1.356-3.84h1.584V0H30.444V-3.588q0-.276.018-.6t.042-.654q.024-.33.06-.648t.06-.594h-.048L29.94-4.26,28.656-.732h-.828l-1.3-3.528-.624-1.824H25.86q.024.276.054.594t.06.648q.03.33.048.654t.018.6V0ZM36.12.144a3.056,3.056,0,0,1-1.14-.21,2.707,2.707,0,0,1-.924-.606,2.764,2.764,0,0,1-.618-.966,3.568,3.568,0,0,1-.222-1.3,3.5,3.5,0,0,1,.228-1.3,2.973,2.973,0,0,1,.606-.972,2.685,2.685,0,0,1,.87-.612,2.484,2.484,0,0,1,1.008-.216,2.564,2.564,0,0,1,1.056.2,2.06,2.06,0,0,1,.762.576,2.534,2.534,0,0,1,.462.888,3.884,3.884,0,0,1,.156,1.128q0,.2-.018.384a2.559,2.559,0,0,1-.042.288H34.56a1.9,1.9,0,0,0,.558,1.218A1.675,1.675,0,0,0,36.3-.924a2.173,2.173,0,0,0,.714-.114,3.173,3.173,0,0,0,.654-.318l.468.864a4.237,4.237,0,0,1-.936.456A3.255,3.255,0,0,1,36.12.144ZM34.548-3.5h2.616a1.748,1.748,0,0,0-.294-1.074,1.061,1.061,0,0,0-.906-.39,1.307,1.307,0,0,0-.924.372A1.764,1.764,0,0,0,34.548-3.5ZM41.328.144A3.265,3.265,0,0,1,40.122-.09,3.9,3.9,0,0,1,39.1-.672l.648-.888a3.746,3.746,0,0,0,.786.486,2.053,2.053,0,0,0,.846.174,1.061,1.061,0,0,0,.708-.2.644.644,0,0,0,.228-.51.5.5,0,0,0-.108-.318,1.038,1.038,0,0,0-.288-.246,2.768,2.768,0,0,0-.408-.2q-.228-.09-.456-.186-.288-.108-.588-.252a2.364,2.364,0,0,1-.534-.348,1.755,1.755,0,0,1-.384-.474,1.3,1.3,0,0,1-.15-.642,1.6,1.6,0,0,1,.576-1.272,2.342,2.342,0,0,1,1.572-.492,2.719,2.719,0,0,1,1.1.216,4.11,4.11,0,0,1,.852.492l-.636.84a3.291,3.291,0,0,0-.63-.366,1.656,1.656,0,0,0-.666-.138.967.967,0,0,0-.654.186.592.592,0,0,0-.21.462.471.471,0,0,0,.1.306.945.945,0,0,0,.27.222,2.749,2.749,0,0,0,.39.18q.222.084.462.168.3.108.6.246a2.464,2.464,0,0,1,.546.342,1.56,1.56,0,0,1,.4.5,1.528,1.528,0,0,1,.15.7,1.7,1.7,0,0,1-.15.714,1.649,1.649,0,0,1-.438.576,2.133,2.133,0,0,1-.72.39A3.106,3.106,0,0,1,41.328.144Zm4.956,0a1.716,1.716,0,0,1-1.26-.474,1.683,1.683,0,0,1-.48-1.254,1.725,1.725,0,0,1,.2-.834,1.707,1.707,0,0,1,.624-.63,4.144,4.144,0,0,1,1.08-.444,9.875,9.875,0,0,1,1.566-.276,2.224,2.224,0,0,0-.066-.438,1.007,1.007,0,0,0-.18-.372.837.837,0,0,0-.33-.252,1.249,1.249,0,0,0-.5-.09,2.231,2.231,0,0,0-.846.168,5.689,5.689,0,0,0-.81.408l-.5-.924a5.9,5.9,0,0,1,1.1-.54,3.751,3.751,0,0,1,1.32-.228,2.027,2.027,0,0,1,1.65.654,2.878,2.878,0,0,1,.546,1.89V0h-1.14l-.1-.648h-.048a4.329,4.329,0,0,1-.846.564A2.133,2.133,0,0,1,46.284.144Zm.444-1.08a1.3,1.3,0,0,0,.654-.168,3.512,3.512,0,0,0,.63-.48V-2.9A6.3,6.3,0,0,0,47-2.712a2.914,2.914,0,0,0-.66.27.962.962,0,0,0-.36.342.819.819,0,0,0-.108.408.673.673,0,0,0,.24.576A.992.992,0,0,0,46.728-.936ZM50.58,2.472a2.815,2.815,0,0,1-.558-.048,3,3,0,0,1-.4-.108l.264-1.032q.12.036.246.066a1.11,1.11,0,0,0,.258.03.542.542,0,0,0,.534-.27A1.774,1.774,0,0,0,51.06.324V-5.892h1.392V.3a3.664,3.664,0,0,1-.1.864,1.855,1.855,0,0,1-.318.69,1.469,1.469,0,0,1-.582.456A2.128,2.128,0,0,1,50.58,2.472Zm1.176-9.4a.886.886,0,0,1-.606-.216A.715.715,0,0,1,50.9-7.7a.733.733,0,0,1,.246-.57.871.871,0,0,1,.606-.222.888.888,0,0,1,.618.222.733.733,0,0,1,.246.57.715.715,0,0,1-.246.564A.9.9,0,0,1,51.756-6.924ZM59.772.144a3.426,3.426,0,0,1-1.4-.282,3.04,3.04,0,0,1-1.092-.816,3.822,3.822,0,0,1-.708-1.29,5.414,5.414,0,0,1-.252-1.716,5.317,5.317,0,0,1,.252-1.7,3.631,3.631,0,0,1,.708-1.266,3.071,3.071,0,0,1,1.092-.792,3.49,3.49,0,0,1,1.4-.276,3.49,3.49,0,0,1,1.4.276,3.129,3.129,0,0,1,1.1.792,3.579,3.579,0,0,1,.714,1.266,5.317,5.317,0,0,1,.252,1.7,5.414,5.414,0,0,1-.252,1.716,3.765,3.765,0,0,1-.714,1.29,3.1,3.1,0,0,1-1.1.816A3.426,3.426,0,0,1,59.772.144Zm0-1.212a1.718,1.718,0,0,0,.84-.2,1.871,1.871,0,0,0,.636-.582,2.9,2.9,0,0,0,.408-.912A4.586,4.586,0,0,0,61.8-3.96a3.458,3.458,0,0,0-.546-2.07,1.738,1.738,0,0,0-1.482-.75,1.738,1.738,0,0,0-1.482.75,3.457,3.457,0,0,0-.546,2.07,4.586,4.586,0,0,0,.144,1.194,2.9,2.9,0,0,0,.408.912,1.871,1.871,0,0,0,.636.582A1.718,1.718,0,0,0,59.772-1.068ZM66.036.144A1.167,1.167,0,0,1,64.992-.3a2.139,2.139,0,0,1-.3-1.212v-6.96h1.38V-1.44a.514.514,0,0,0,.1.354.28.28,0,0,0,.2.1h.09a.509.509,0,0,0,.126-.024l.18,1.032A1.862,1.862,0,0,1,66.036.144Zm3.66,0a1.578,1.578,0,0,1-1.38-.606A2.96,2.96,0,0,1,67.884-2.2v-3.7h1.38v3.516a1.833,1.833,0,0,0,.216,1.032.8.8,0,0,0,.7.3,1.212,1.212,0,0,0,.678-.192,2.772,2.772,0,0,0,.63-.624V-5.892h1.38V0H71.736l-.108-.864h-.036a3.462,3.462,0,0,1-.834.732A1.991,1.991,0,0,1,69.7.144Zm6.564,0A3.265,3.265,0,0,1,75.054-.09a3.9,3.9,0,0,1-1.026-.582l.648-.888a3.746,3.746,0,0,0,.786.486,2.053,2.053,0,0,0,.846.174,1.061,1.061,0,0,0,.708-.2.644.644,0,0,0,.228-.51.5.5,0,0,0-.108-.318,1.037,1.037,0,0,0-.288-.246,2.769,2.769,0,0,0-.408-.2q-.228-.09-.456-.186-.288-.108-.588-.252a2.364,2.364,0,0,1-.534-.348,1.755,1.755,0,0,1-.384-.474,1.3,1.3,0,0,1-.15-.642A1.6,1.6,0,0,1,74.9-5.544a2.342,2.342,0,0,1,1.572-.492,2.719,2.719,0,0,1,1.1.216,4.11,4.11,0,0,1,.852.492l-.636.84a3.291,3.291,0,0,0-.63-.366,1.656,1.656,0,0,0-.666-.138.967.967,0,0,0-.654.186.592.592,0,0,0-.21.462.471.471,0,0,0,.1.306.945.945,0,0,0,.27.222,2.749,2.749,0,0,0,.39.18q.222.084.462.168.3.108.6.246a2.464,2.464,0,0,1,.546.342,1.56,1.56,0,0,1,.4.5,1.528,1.528,0,0,1,.15.7,1.7,1.7,0,0,1-.15.714,1.649,1.649,0,0,1-.438.576,2.133,2.133,0,0,1-.72.39A3.106,3.106,0,0,1,76.26.144ZM75.36,2.8l-.12-.6a3.182,3.182,0,0,0,1-.174.411.411,0,0,0,.27-.39A.4.4,0,0,0,76.32,1.3a1.846,1.846,0,0,0-.732-.2L76.14-.036h.84l-.348.78a1.639,1.639,0,0,1,.666.306.705.705,0,0,1,.234.57.9.9,0,0,1-.564.852A4.2,4.2,0,0,1,75.36,2.8ZM81.624.144a2.156,2.156,0,0,1-.87-.156,1.475,1.475,0,0,1-.576-.438,1.813,1.813,0,0,1-.324-.672,3.439,3.439,0,0,1-.1-.87V-4.8h-.84V-5.832l.912-.06L79.992-7.5h1.152v1.608h1.5V-4.8h-1.5v2.808q0,1.032.828,1.032A1.463,1.463,0,0,0,82.29-1a1.491,1.491,0,0,0,.294-.1l.24,1.02a4.593,4.593,0,0,1-.546.15A3.1,3.1,0,0,1,81.624.144Zm4.008,0a1.578,1.578,0,0,1-1.38-.606A2.96,2.96,0,0,1,83.82-2.2v-3.7H85.2v3.516a1.833,1.833,0,0,0,.216,1.032.8.8,0,0,0,.7.3,1.212,1.212,0,0,0,.678-.192,2.772,2.772,0,0,0,.63-.624V-5.892H88.8V0H87.672l-.108-.864h-.036a3.462,3.462,0,0,1-.834.732A1.991,1.991,0,0,1,85.632.144ZM90.552,0V-5.892h1.14l.1,1.044h.048a2.474,2.474,0,0,1,.756-.882,1.589,1.589,0,0,1,.912-.306,1.579,1.579,0,0,1,.672.12l-.24,1.2a2.52,2.52,0,0,0-.288-.072,1.849,1.849,0,0,0-.324-.024,1.286,1.286,0,0,0-.732.27,2.086,2.086,0,0,0-.66.942V0Z" transform="translate(398 44)"/>
    <g id="Path_1318" data-name="Path 1318" class="cls-9" transform="translate(20 111)">
      <path class="cls-40" d="M0,0H490V66H0Z"/>
      <path class="cls-41" d="M 1 1 L 1 65 L 489 65 L 489 1 L 1 1 M 0 0 L 490 0 L 490 66 L 0 66 L 0 0 Z"/>
    </g>
    <g id="Path_1319" data-name="Path 1319" class="cls-13" transform="translate(412 131)">
      <path class="cls-40" d="M 33 26.5 L 2 26.5 C 1.172899961471558 26.5 0.5 25.82710075378418 0.5 25 L 0.5 2 C 0.5 1.172899961471558 1.172899961471558 0.5 2 0.5 L 33 0.5 C 33.82709884643555 0.5 34.5 1.172899961471558 34.5 2 L 34.5 25 C 34.5 25.82710075378418 33.82709884643555 26.5 33 26.5 Z"/>
      <path class="cls-42" d="M 2 1 C 1.448600769042969 1 1 1.448600769042969 1 2 L 1 25 C 1 25.55139923095703 1.448600769042969 26 2 26 L 33 26 C 33.55139923095703 26 34 25.55139923095703 34 25 L 34 2 C 34 1.448600769042969 33.55139923095703 1 33 1 L 2 1 M 2 0 L 33 0 C 34.10456848144531 0 35 0.8954296112060547 35 2 L 35 25 C 35 26.10457038879395 34.10456848144531 27 33 27 L 2 27 C 0.8954315185546875 27 0 26.10457038879395 0 25 L 0 2 C 0 0.8954296112060547 0.8954315185546875 0 2 0 Z"/>
    </g>
    <g id="Path_1320" data-name="Path 1320" class="cls-14" transform="translate(455 131)">
      <path class="cls-40" d="M 33 26.5 L 2 26.5 C 1.172899961471558 26.5 0.5 25.82710075378418 0.5 25 L 0.5 2 C 0.5 1.172899961471558 1.172899961471558 0.5 2 0.5 L 33 0.5 C 33.82709884643555 0.5 34.5 1.172899961471558 34.5 2 L 34.5 25 C 34.5 25.82710075378418 33.82709884643555 26.5 33 26.5 Z"/>
      <path class="cls-43" d="M 2 1 C 1.448600769042969 1 1 1.448600769042969 1 2 L 1 25 C 1 25.55139923095703 1.448600769042969 26 2 26 L 33 26 C 33.55139923095703 26 34 25.55139923095703 34 25 L 34 2 C 34 1.448600769042969 33.55139923095703 1 33 1 L 2 1 M 2 0 L 33 0 C 34.10456848144531 0 35 0.8954296112060547 35 2 L 35 25 C 35 26.10457038879395 34.10456848144531 27 33 27 L 2 27 C 0.8954315185546875 27 0 26.10457038879395 0 25 L 0 2 C 0 0.8954296112060547 0.8954315185546875 0 2 0 Z"/>
    </g>
    <g class="cls-52" transform="matrix(1, 0, 0, 1, 0, 0)">
      <path id="Path_1321-2" data-name="Path 1321" class="cls-15" d="M2,0H33a2,2,0,0,1,2,2V25a2,2,0,0,1-2,2H2a2,2,0,0,1-2-2V2A2,2,0,0,1,2,0Z" transform="translate(369 131)"/>
    </g>
    <g id="Mask_Group_152" data-name="Mask Group 152" class="cls-16" transform="translate(-461 -201)">
      <g id="eye" transform="translate(840.667 340.667)">
        <path id="Path_1238" data-name="Path 1238" class="cls-17" d="M.417,7S3.083,1.667,7.75,1.667,15.083,7,15.083,7s-2.667,5.333-7.333,5.333S.417,7,.417,7Z" transform="translate(-0.417 -1.667)"/>
        <circle id="Ellipse_90" data-name="Ellipse 90" class="cls-17" cx="2" cy="2" r="2" transform="translate(5.333 3.333)"/>
      </g>
    </g>
    <path id="Path_1322" data-name="Path 1322" class="cls-18" d="M13,0A13,13,0,1,1,0,13,13,13,0,0,1,13,0Z" transform="translate(40 131)"/>
    <path id="Path_1323" data-name="Path 1323" class="cls-19" d="M2,0H78a2,2,0,0,1,2,2V18a2,2,0,0,1-2,2H2a2,2,0,0,1-2-2V2A2,2,0,0,1,2,0Z" transform="translate(244 134)"/>
    <path id="Path_1324" data-name="Path 1324" class="cls-2" d="M.913,0V-7.194H2.838A3.555,3.555,0,0,1,5.412-6.3,3.551,3.551,0,0,1,6.336-3.63,4.794,4.794,0,0,1,6.1-2.057,3.017,3.017,0,0,1,5.418-.918a2.848,2.848,0,0,1-1.078.687A4.166,4.166,0,0,1,2.9,0ZM2.189-1.034H2.75a2.193,2.193,0,0,0,1.688-.633A2.806,2.806,0,0,0,5.027-3.63a2.666,2.666,0,0,0-.594-1.925A2.252,2.252,0,0,0,2.75-6.16H2.189ZM7.788,0V-7.194h4.334v1.078H9.064v1.837h2.585V-3.2H9.064v2.123h3.168V0Zm7.2,0L12.749-7.194H14.1l1.012,3.619q.176.616.313,1.166t.325,1.177H15.8q.187-.627.325-1.177t.3-1.166l1-3.619h1.309L16.5,0ZM20.9-3.828l-.253.88h1.837l-.253-.88Q22.055-4.4,21.9-5.005t-.313-1.2h-.044q-.154.6-.308,1.2T20.9-3.828ZM18.491,0l2.343-7.194h1.5L24.673,0H23.331L22.77-1.947H20.35L19.789,0Zm7.073,0V-7.194H27l1.276,3.52q.121.341.231.7t.231.71h.044q.121-.352.226-.71t.226-.7l1.243-3.52h1.452V0H30.756V-3.289q0-.253.017-.55t.038-.6q.022-.3.055-.594t.055-.544h-.044L30.294-3.9,29.117-.671h-.759L27.17-3.9,26.6-5.577h-.044q.022.253.049.544t.055.594q.028.3.044.6t.016.55V0Zm10.4,0V-7.194h4.334v1.078H37.235v1.837H39.82V-3.2H37.235v2.123H40.4V0Zm5.918,0V-7.194H43.8a3.555,3.555,0,0,1,2.574.891A3.551,3.551,0,0,1,47.3-3.63a4.8,4.8,0,0,1-.236,1.573,3.017,3.017,0,0,1-.682,1.139A2.848,2.848,0,0,1,45.3-.231,4.166,4.166,0,0,1,43.868,0Zm1.276-1.034h.561A2.193,2.193,0,0,0,45.4-1.666a2.806,2.806,0,0,0,.589-1.964A2.666,2.666,0,0,0,45.4-5.555a2.252,2.252,0,0,0-1.683-.605h-.561ZM48.752,0V-7.194h1.276V0Zm.638-7.777a.794.794,0,0,1-.561-.2.68.68,0,0,1-.22-.523.663.663,0,0,1,.22-.517.807.807,0,0,1,.561-.2.807.807,0,0,1,.561.2.663.663,0,0,1,.22.517.68.68,0,0,1-.22.523A.794.794,0,0,1,49.39-7.777ZM53.053,0V-2.673L50.9-7.194h1.364l.781,1.837q.154.407.308.786t.33.8h.044q.176-.418.341-.8t.319-.786l.781-1.837H56.5L54.329-2.673V0Zm6.93.132A3.14,3.14,0,0,1,58.7-.126a2.786,2.786,0,0,1-1-.748,3.5,3.5,0,0,1-.649-1.183,4.963,4.963,0,0,1-.231-1.573,4.874,4.874,0,0,1,.231-1.556,3.329,3.329,0,0,1,.649-1.161,2.815,2.815,0,0,1,1-.726,3.2,3.2,0,0,1,1.287-.253,3.2,3.2,0,0,1,1.287.253,2.868,2.868,0,0,1,1.007.726,3.281,3.281,0,0,1,.654,1.161,4.874,4.874,0,0,1,.231,1.556,4.963,4.963,0,0,1-.231,1.573,3.451,3.451,0,0,1-.654,1.183,2.838,2.838,0,0,1-1.007.748A3.14,3.14,0,0,1,59.983.132Zm0-1.111a1.575,1.575,0,0,0,.77-.187,1.715,1.715,0,0,0,.583-.533,2.655,2.655,0,0,0,.374-.836,4.2,4.2,0,0,0,.132-1.095,3.169,3.169,0,0,0-.5-1.9,1.593,1.593,0,0,0-1.358-.687,1.593,1.593,0,0,0-1.359.688,3.169,3.169,0,0,0-.5,1.9,4.2,4.2,0,0,0,.132,1.095,2.655,2.655,0,0,0,.374.836,1.715,1.715,0,0,0,.583.533A1.575,1.575,0,0,0,59.983-.979ZM64.6,0V-7.194h2.431a4.71,4.71,0,0,1,1.045.11,2.337,2.337,0,0,1,.836.357,1.729,1.729,0,0,1,.555.655,2.251,2.251,0,0,1,.2,1.012,2.119,2.119,0,0,1-.39,1.331A2.149,2.149,0,0,1,68.244-3L69.96,0H68.53L66.979-2.816h-1.1V0Zm1.276-3.828H66.9a1.788,1.788,0,0,0,1.127-.308,1.1,1.1,0,0,0,.391-.924.94.94,0,0,0-.391-.869A2.156,2.156,0,0,0,66.9-6.171H65.879Z" transform="translate(249 148)"/>
    <g id="Mask_Group_153" data-name="Mask Group 153" class="cls-20" transform="translate(348 -53)">
      <g id="x" transform="translate(119.24 192.24)">
        <line id="Line_152" data-name="Line 152" class="cls-21" x1="10.52" y2="10.52" transform="translate(0)"/>
        <line id="Line_153" data-name="Line 153" class="cls-21" x2="10.52" y2="10.52" transform="translate(0)"/>
      </g>
    </g>
    <path id="_1_ile_3_arasındaki" data-name="1 ile 3 arasındaki" class="cls-22" d="M4,0H74a4,4,0,0,1,0,8H4A4,4,0,0,1,4,0Z" transform="translate(126 140)"/>
    <path id="_1_ile_3_arasındaki-2" data-name="1 ile 3 arasındaki" class="cls-23" d="M4,0H36a4,4,0,0,1,0,8H4A4,4,0,0,1,4,0Z" transform="translate(81 140)"/>
    <g id="Mask_Group_155" data-name="Mask Group 155" class="cls-24" transform="translate(-462 -2529)">
      <g id="pause" transform="translate(886.878 2667.722)">
        <rect id="Rectangle_807" data-name="Rectangle 807" class="cls-21" width="3.081" height="11.556" transform="translate(0)"/>
        <rect id="Rectangle_808" data-name="Rectangle 808" class="cls-21" width="3.081" height="11.556" transform="translate(6.163)"/>
      </g>
    </g>
    <g id="Mask_Group_122" data-name="Mask Group 122" class="cls-25" transform="translate(-244 118)">
      <path id="birthday-cake-solid" class="cls-3" d="M10.5,9c-.657,0-.733-.75-1.746-.75S7.656,9,7,9s-.737-.75-1.752-.75S4.143,9,3.5,9c-.66,0-.731-.75-1.752-.75S.659,9,0,9V7.125A1.125,1.125,0,0,1,1.125,6H1.5V2.625H3V6H4.5V2.625H6V6H7.5V2.625H9V6h.375A1.125,1.125,0,0,1,10.5,7.125Zm0,3H0V9.75C1.016,9.75,1.1,9,1.752,9s.732.75,1.752.75c1,0,1.107-.75,1.746-.75.66,0,.731.75,1.752.75S8.1,9,8.754,9s.732.75,1.746.75ZM2.25,2.25A.748.748,0,0,1,1.5,1.5c0-.727.75-.539.75-1.5C2.531,0,3,.691,3,1.313S2.666,2.25,2.25,2.25Zm3,0A.748.748,0,0,1,4.5,1.5c0-.727.75-.539.75-1.5C5.531,0,6,.691,6,1.313S5.666,2.25,5.25,2.25Zm3,0A.748.748,0,0,1,7.5,1.5c0-.727.75-.539.75-1.5C8.531,0,9,.691,9,1.313S8.666,2.25,8.25,2.25Z" transform="translate(291.75 20)"/>
    </g>
    <g id="Path_1313" data-name="Path 1313" class="cls-9" transform="translate(20 176)">
      <path class="cls-40" d="M0,0H490V66H0Z"/>
      <path class="cls-41" d="M 1 1 L 1 65 L 489 65 L 489 1 L 1 1 M 0 0 L 490 0 L 490 66 L 0 66 L 0 0 Z"/>
    </g>
    <g class="cls-51" transform="matrix(1, 0, 0, 1, 0, 0)">
      <path id="Path_1314-2" data-name="Path 1314" class="cls-15" d="M2,0H33a2,2,0,0,1,2,2V25a2,2,0,0,1-2,2H2a2,2,0,0,1-2-2V2A2,2,0,0,1,2,0Z" transform="translate(369 196)"/>
    </g>
    <g id="Mask_Group_152-2" data-name="Mask Group 152" class="cls-16" transform="translate(-461 -136)">
      <g id="eye-2" data-name="eye" transform="translate(840.667 340.667)">
        <path id="Path_1238-2" data-name="Path 1238" class="cls-17" d="M.417,7S3.083,1.667,7.75,1.667,15.083,7,15.083,7s-2.667,5.333-7.333,5.333S.417,7,.417,7Z" transform="translate(-0.417 -1.667)"/>
        <circle id="Ellipse_90-2" data-name="Ellipse 90" class="cls-17" cx="2" cy="2" r="2" transform="translate(5.333 3.333)"/>
      </g>
    </g>
    <path id="Path_1315" data-name="Path 1315" class="cls-26" d="M2,0H89a2,2,0,0,1,2,2V18a2,2,0,0,1-2,2H2a2,2,0,0,1-2-2V2A2,2,0,0,1,2,0Z" transform="translate(244 199)"/>
    <path id="Path_1316" data-name="Path 1316" class="cls-2" d="M2.112,0V-2.673L-.044-7.194H1.32L2.1-5.357q.154.407.308.786t.33.8h.044q.176-.418.341-.8t.319-.786l.781-1.837H5.555L3.388-2.673V0ZM6.424,0V-7.194h4.334v1.078H7.7v1.837h2.585V-3.2H7.7v2.123h3.168V0Zm7.37,0V-6.116H11.715V-7.194h5.434v1.078H15.07V0Zm4.554,0V-7.194h4.334v1.078H19.624v1.837h2.585V-3.2H19.624v2.123h3.168V0Zm5.918,0V-7.194H26.7a4.71,4.71,0,0,1,1.045.11,2.337,2.337,0,0,1,.836.357,1.729,1.729,0,0,1,.556.655,2.251,2.251,0,0,1,.2,1.012,2.119,2.119,0,0,1-.391,1.331A2.149,2.149,0,0,1,27.907-3l1.716,3h-1.43L26.642-2.816h-1.1V0Zm1.276-3.828h1.023a1.788,1.788,0,0,0,1.128-.308,1.105,1.105,0,0,0,.39-.924.94.94,0,0,0-.39-.869,2.156,2.156,0,0,0-1.128-.242H25.542ZM32.725.132a3.69,3.69,0,0,1-1.4-.275,3.66,3.66,0,0,1-1.194-.781l.748-.869a3.216,3.216,0,0,0,.88.589,2.371,2.371,0,0,0,.99.225,1.48,1.48,0,0,0,.935-.253A.814.814,0,0,0,34-1.9a.783.783,0,0,0-.083-.374.847.847,0,0,0-.231-.27,1.99,1.99,0,0,0-.352-.214q-.2-.1-.445-.2l-.99-.429a3.408,3.408,0,0,1-.523-.275,2.289,2.289,0,0,1-.468-.4,1.833,1.833,0,0,1-.335-.539,1.84,1.84,0,0,1-.127-.7,1.78,1.78,0,0,1,.182-.8,2.023,2.023,0,0,1,.5-.643,2.314,2.314,0,0,1,.764-.429,2.962,2.962,0,0,1,.973-.154,3.066,3.066,0,0,1,1.21.248,3.124,3.124,0,0,1,1,.665L34.43-5.6A3.205,3.205,0,0,0,33.7-6.05a2.05,2.05,0,0,0-.836-.165,1.367,1.367,0,0,0-.825.226.728.728,0,0,0-.308.622.657.657,0,0,0,.094.358.956.956,0,0,0,.253.264,2.063,2.063,0,0,0,.368.209q.209.093.429.181l.979.407a3.372,3.372,0,0,1,.583.308,2.121,2.121,0,0,1,.456.407,1.77,1.77,0,0,1,.3.533,2.039,2.039,0,0,1,.11.7,1.961,1.961,0,0,1-.176.825,1.981,1.981,0,0,1-.511.677,2.51,2.51,0,0,1-.814.462A3.215,3.215,0,0,1,32.725.132ZM36.619,0V-7.194H37.9V0Zm.638-7.777a.794.794,0,0,1-.561-.2.68.68,0,0,1-.22-.523.663.663,0,0,1,.22-.517.807.807,0,0,1,.561-.2.807.807,0,0,1,.561.2.663.663,0,0,1,.22.517.68.68,0,0,1-.22.523A.794.794,0,0,1,37.257-7.777ZM39.248,0V-.77l3.476-5.346H39.567V-7.194h4.741v.77L40.821-1.078H44.33V0Zm8.613,0V-7.194h2.3a5.254,5.254,0,0,1,1.028.093A2.606,2.606,0,0,1,52-6.8a1.449,1.449,0,0,1,.539.545,1.678,1.678,0,0,1,.193.836,1.826,1.826,0,0,1-.264.957,1.36,1.36,0,0,1-.737.605v.044a1.849,1.849,0,0,1,.985.556,1.63,1.63,0,0,1,.39,1.149,1.977,1.977,0,0,1-.209.935,1.884,1.884,0,0,1-.577.66,2.545,2.545,0,0,1-.875.39,4.529,4.529,0,0,1-1.1.126Zm1.276-4.224h.913A1.73,1.73,0,0,0,51.145-4.5a.9.9,0,0,0,.336-.737.812.812,0,0,0-.352-.748,2.024,2.024,0,0,0-1.056-.22h-.935Zm0,3.234h1.078a2.162,2.162,0,0,0,1.221-.291,1.009,1.009,0,0,0,.429-.9.9.9,0,0,0-.418-.83,2.371,2.371,0,0,0-1.232-.259H49.137ZM55.9-3.828l-.253.88h1.837l-.253-.88Q57.057-4.4,56.9-5.005t-.313-1.2H56.54q-.154.6-.308,1.2T55.9-3.828ZM53.493,0l2.343-7.194h1.5L59.675,0H58.333l-.561-1.947h-2.42L54.791,0Zm7.073,0V-7.194h1.276v3.267h.033l2.563-3.267h1.419l-2.211,2.8L66.231,0H64.823L62.876-3.388,61.842-2.1V0Zm6.567,0V-7.194h1.276V0Zm.638-7.777a.794.794,0,0,1-.561-.2.68.68,0,0,1-.22-.523.663.663,0,0,1,.22-.517.807.807,0,0,1,.561-.2.807.807,0,0,1,.561.2.663.663,0,0,1,.22.517.68.68,0,0,1-.22.523A.794.794,0,0,1,67.771-7.777ZM71.434,0V-2.673L69.278-7.194h1.364l.781,1.837q.154.407.308.786t.33.8H72.1q.176-.418.341-.8t.319-.786l.781-1.837h1.331L72.71-2.673V0Zm4.312,0V-7.194H80.08v1.078H77.022v1.837h2.585V-3.2H77.022v2.123H80.19V0Z" transform="translate(249 213)"/>
    <path id="_1_ile_3_arasındaki-3" data-name="1 ile 3 arasındaki" class="cls-22" d="M4,0H58a4,4,0,0,1,0,8H4A4,4,0,0,1,4,0Z" transform="translate(81 205)"/>
    <path id="Path_1317" data-name="Path 1317" class="cls-27" d="M13,0A13,13,0,1,1,0,13,13,13,0,0,1,13,0Z" transform="translate(40 196)"/>
    <g id="el" class="cls-28" transform="translate(-115 -52)">
      <path id="hand-holding-usd-solid" class="cls-4" d="M4.765,3.382l.954.335a.2.2,0,0,1,.117.19.182.182,0,0,1-.16.2H5.049a.415.415,0,0,1-.2-.052.2.2,0,0,0-.269.047l-.334.41a.269.269,0,0,0-.04.062.346.346,0,0,0-.024.2.275.275,0,0,0,.092.166,1.243,1.243,0,0,0,.607.27v.415A.347.347,0,0,0,5.19,6H5.5A.347.347,0,0,0,5.8,5.625V5.213a1.286,1.286,0,0,0,.94-1.477,1.31,1.31,0,0,0-.818-1.118l-.954-.335a.2.2,0,0,1-.117-.19.182.182,0,0,1,.16-.2h.626a.415.415,0,0,1,.2.052A.2.2,0,0,0,6.1,1.9l.334-.41a.262.262,0,0,0,.038-.061.346.346,0,0,0,.024-.2A.275.275,0,0,0,6.41,1.06,1.243,1.243,0,0,0,5.8.79V.375A.347.347,0,0,0,5.5,0H5.192a.347.347,0,0,0-.305.375V.788a1.287,1.287,0,0,0-.941,1.477A1.311,1.311,0,0,0,4.765,3.382ZM9.936,7.69a.476.476,0,0,0-.749,0L7.563,9.422a.961.961,0,0,1-.7.328H4.781c-.155,0-.281-.168-.281-.375S4.626,9,4.781,9H6.157a.651.651,0,0,0,.584-.623.97.97,0,0,0,.008-.128c0-.414-.252-.749-.562-.749H3.375a1.781,1.781,0,0,0-1.3.616L1.255,9H.281C.126,9,0,9.168,0,9.375v2.25c0,.207.126.375.281.375H6.553a.966.966,0,0,0,.7-.328L9.914,8.836a.858.858,0,0,0,.211-.566.882.882,0,0,0-.188-.58Z" transform="translate(162.937 255)"/>
    </g>
    <g id="Path_1298" data-name="Path 1298" class="cls-9" transform="translate(20 241)">
      <path class="cls-40" d="M0,0H490V66H0Z"/>
      <path class="cls-41" d="M 1 1 L 1 65 L 489 65 L 489 1 L 1 1 M 0 0 L 490 0 L 490 66 L 0 66 L 0 0 Z"/>
    </g>
    <g class="cls-50" transform="matrix(1, 0, 0, 1, 0, 0)">
      <path id="Path_1299-2" data-name="Path 1299" class="cls-15" d="M2,0H33a2,2,0,0,1,2,2V25a2,2,0,0,1-2,2H2a2,2,0,0,1-2-2V2A2,2,0,0,1,2,0Z" transform="translate(369 261)"/>
    </g>
    <g id="Mask_Group_152-3" data-name="Mask Group 152" class="cls-16" transform="translate(-461 -71)">
      <g id="eye-3" data-name="eye" transform="translate(840.667 340.667)">
        <path id="Path_1238-3" data-name="Path 1238" class="cls-17" d="M.417,7S3.083,1.667,7.75,1.667,15.083,7,15.083,7s-2.667,5.333-7.333,5.333S.417,7,.417,7Z" transform="translate(-0.417 -1.667)"/>
        <circle id="Ellipse_90-3" data-name="Ellipse 90" class="cls-17" cx="2" cy="2" r="2" transform="translate(5.333 3.333)"/>
      </g>
    </g>
    <path id="Path_1300" data-name="Path 1300" class="cls-18" d="M13,0A13,13,0,1,1,0,13,13,13,0,0,1,13,0Z" transform="translate(40 261)"/>
    <path id="Path_1301" data-name="Path 1301" class="cls-29" d="M2,0H71a2,2,0,0,1,2,2V18a2,2,0,0,1-2,2H2a2,2,0,0,1-2-2V2A2,2,0,0,1,2,0Z" transform="translate(244 264)"/>
    <path id="Path_1302" data-name="Path 1302" class="cls-2" d="M2.365,0V-6.116H.286V-7.194H5.72v1.078H3.641V0ZM7.953-3.828l-.253.88H9.537l-.253-.88Q9.108-4.4,8.948-5.005T8.635-6.2H8.591q-.154.6-.308,1.2T7.953-3.828ZM5.544,0,7.887-7.194h1.5L11.726,0H10.384L9.823-1.947H7.4L6.842,0Zm7.073,0V-7.194h1.441l1.276,3.52q.121.341.231.7t.231.71h.044q.121-.352.226-.71t.226-.7l1.243-3.52h1.452V0H17.809V-3.289q0-.253.017-.55t.038-.6q.022-.3.055-.594t.055-.544H17.93L17.347-3.9,16.17-.671h-.759L14.223-3.9l-.572-1.672h-.044q.022.253.05.544t.055.594q.028.3.044.6t.016.55V0Zm9.669-3.828-.253.88H23.87l-.253-.88q-.176-.572-.336-1.177t-.313-1.2h-.044q-.154.6-.308,1.2T22.286-3.828ZM19.877,0,22.22-7.194h1.5L26.059,0H24.717l-.561-1.947h-2.42L21.175,0ZM26.95,0V-7.194h1.441l1.276,3.52q.121.341.231.7t.231.71h.044q.121-.352.226-.71t.226-.7l1.243-3.52h1.452V0H32.142V-3.289q0-.253.016-.55t.038-.6q.022-.3.055-.594t.055-.544h-.044L31.68-3.9,30.5-.671h-.759L28.556-3.9l-.572-1.672H27.94q.022.253.049.544t.055.594q.028.3.044.6t.016.55V0Zm8.195,0V-7.194h1.276v6.116h2.992V0Zm7-3.828-.253.88h1.837l-.253-.88Q43.3-4.4,43.137-5.005t-.313-1.2h-.044q-.154.6-.308,1.2T42.141-3.828ZM39.732,0l2.343-7.194h1.5L45.914,0H44.572l-.561-1.947h-2.42L41.03,0ZM46.8,0V-7.194h1.309l2.244,4.048.737,1.529h.044q-.044-.561-.1-1.2T50.974-4.07V-7.194h1.221V0H50.886L48.642-4.048,47.9-5.577h-.044q.044.572.1,1.2t.06,1.232V0Zm7.216,0V-7.194h1.925A3.555,3.555,0,0,1,58.52-6.3a3.551,3.551,0,0,1,.924,2.673,4.8,4.8,0,0,1-.236,1.573,3.017,3.017,0,0,1-.682,1.139,2.848,2.848,0,0,1-1.078.687A4.166,4.166,0,0,1,56.012,0ZM55.3-1.034h.561a2.193,2.193,0,0,0,1.688-.633,2.806,2.806,0,0,0,.589-1.964,2.666,2.666,0,0,0-.594-1.925,2.252,2.252,0,0,0-1.683-.605H55.3ZM60.9,0V-7.194h1.276V0Z" transform="translate(249 278)"/>
    <path id="_1_ile_3_arasındaki-4" data-name="1 ile 3 arasındaki" class="cls-22" d="M4,0H83a4,4,0,0,1,0,8H4A4,4,0,0,1,4,0Z" transform="translate(81 270)"/>
    <g id="Mask_Group_122-2" data-name="Mask Group 122" class="cls-25" transform="translate(-244 248)">
      <path id="birthday-cake-solid-2" data-name="birthday-cake-solid" class="cls-3" d="M10.5,9c-.657,0-.733-.75-1.746-.75S7.656,9,7,9s-.737-.75-1.752-.75S4.143,9,3.5,9c-.66,0-.731-.75-1.752-.75S.659,9,0,9V7.125A1.125,1.125,0,0,1,1.125,6H1.5V2.625H3V6H4.5V2.625H6V6H7.5V2.625H9V6h.375A1.125,1.125,0,0,1,10.5,7.125Zm0,3H0V9.75C1.016,9.75,1.1,9,1.752,9s.732.75,1.752.75c1,0,1.107-.75,1.746-.75.66,0,.731.75,1.752.75S8.1,9,8.754,9s.732.75,1.746.75ZM2.25,2.25A.748.748,0,0,1,1.5,1.5c0-.727.75-.539.75-1.5C2.531,0,3,.691,3,1.313S2.666,2.25,2.25,2.25Zm3,0A.748.748,0,0,1,4.5,1.5c0-.727.75-.539.75-1.5C5.531,0,6,.691,6,1.313S5.666,2.25,5.25,2.25Zm3,0A.748.748,0,0,1,7.5,1.5c0-.727.75-.539.75-1.5C8.531,0,9,.691,9,1.313S8.666,2.25,8.25,2.25Z" transform="translate(291.75 20)"/>
    </g>
    <g id="Path_1303" data-name="Path 1303" class="cls-9" transform="translate(20 306)">
      <path class="cls-40" d="M0,0H490V66H0Z"/>
      <path class="cls-41" d="M 1 1 L 1 65 L 489 65 L 489 1 L 1 1 M 0 0 L 490 0 L 490 66 L 0 66 L 0 0 Z"/>
    </g>
    <g id="Path_1304" data-name="Path 1304" class="cls-13" transform="translate(412 326)">
      <path class="cls-40" d="M 33 26.5 L 2 26.5 C 1.172899961471558 26.5 0.5 25.82710075378418 0.5 25 L 0.5 2 C 0.5 1.172899961471558 1.172899961471558 0.5 2 0.5 L 33 0.5 C 33.82709884643555 0.5 34.5 1.172899961471558 34.5 2 L 34.5 25 C 34.5 25.82710075378418 33.82709884643555 26.5 33 26.5 Z"/>
      <path class="cls-42" d="M 2 1 C 1.448600769042969 1 1 1.448600769042969 1 2 L 1 25 C 1 25.55139923095703 1.448600769042969 26 2 26 L 33 26 C 33.55139923095703 26 34 25.55139923095703 34 25 L 34 2 C 34 1.448600769042969 33.55139923095703 1 33 1 L 2 1 M 2 0 L 33 0 C 34.10456848144531 0 35 0.8954296112060547 35 2 L 35 25 C 35 26.10457038879395 34.10456848144531 27 33 27 L 2 27 C 0.8954315185546875 27 0 26.10457038879395 0 25 L 0 2 C 0 0.8954296112060547 0.8954315185546875 0 2 0 Z"/>
    </g>
    <g id="Path_1305" data-name="Path 1305" class="cls-14" transform="translate(455 326)">
      <path class="cls-40" d="M 33 26.5 L 2 26.5 C 1.172899961471558 26.5 0.5 25.82710075378418 0.5 25 L 0.5 2 C 0.5 1.172899961471558 1.172899961471558 0.5 2 0.5 L 33 0.5 C 33.82709884643555 0.5 34.5 1.172899961471558 34.5 2 L 34.5 25 C 34.5 25.82710075378418 33.82709884643555 26.5 33 26.5 Z"/>
      <path class="cls-43" d="M 2 1 C 1.448600769042969 1 1 1.448600769042969 1 2 L 1 25 C 1 25.55139923095703 1.448600769042969 26 2 26 L 33 26 C 33.55139923095703 26 34 25.55139923095703 34 25 L 34 2 C 34 1.448600769042969 33.55139923095703 1 33 1 L 2 1 M 2 0 L 33 0 C 34.10456848144531 0 35 0.8954296112060547 35 2 L 35 25 C 35 26.10457038879395 34.10456848144531 27 33 27 L 2 27 C 0.8954315185546875 27 0 26.10457038879395 0 25 L 0 2 C 0 0.8954296112060547 0.8954315185546875 0 2 0 Z"/>
    </g>
    <g class="cls-49" transform="matrix(1, 0, 0, 1, 0, 0)">
      <path id="Path_1306-2" data-name="Path 1306" class="cls-15" d="M2,0H33a2,2,0,0,1,2,2V25a2,2,0,0,1-2,2H2a2,2,0,0,1-2-2V2A2,2,0,0,1,2,0Z" transform="translate(369 326)"/>
    </g>
    <g id="Mask_Group_152-4" data-name="Mask Group 152" class="cls-16" transform="translate(-461 -6)">
      <g id="eye-4" data-name="eye" transform="translate(840.667 340.667)">
        <path id="Path_1238-4" data-name="Path 1238" class="cls-17" d="M.417,7S3.083,1.667,7.75,1.667,15.083,7,15.083,7s-2.667,5.333-7.333,5.333S.417,7,.417,7Z" transform="translate(-0.417 -1.667)"/>
        <circle id="Ellipse_90-4" data-name="Ellipse 90" class="cls-17" cx="2" cy="2" r="2" transform="translate(5.333 3.333)"/>
      </g>
    </g>
    <path id="Path_1307" data-name="Path 1307" class="cls-30" d="M13,0A13,13,0,1,1,0,13,13,13,0,0,1,13,0Z" transform="translate(40 326)"/>
    <path id="Path_1308" data-name="Path 1308" class="cls-31" d="M2,0H59a2,2,0,0,1,2,2V18a2,2,0,0,1-2,2H2a2,2,0,0,1-2-2V2A2,2,0,0,1,2,0Z" transform="translate(244 329)"/>
    <path id="Path_1309" data-name="Path 1309" class="cls-2" d="M.913,0V-7.194H2.189v3.267h.033L4.785-7.194H6.2l-2.211,2.8L6.578,0H5.17L3.223-3.388,2.189-2.1V0ZM10,.132A3.291,3.291,0,0,1,8.872-.049a2.107,2.107,0,0,1-.858-.577,2.675,2.675,0,0,1-.55-1.018,5.162,5.162,0,0,1-.193-1.513V-7.194H8.547v4.136a3.968,3.968,0,0,0,.1.985,1.72,1.72,0,0,0,.3.643,1.094,1.094,0,0,0,.457.346,1.6,1.6,0,0,0,.594.1,1.69,1.69,0,0,0,.605-.1,1.118,1.118,0,0,0,.473-.346,1.726,1.726,0,0,0,.308-.643,3.779,3.779,0,0,0,.11-.985V-7.194h1.221v4.037a5.3,5.3,0,0,1-.187,1.513,2.619,2.619,0,0,1-.545,1.018,2.107,2.107,0,0,1-.858.577A3.291,3.291,0,0,1,10,.132ZM15.532,0V-2.673L13.376-7.194H14.74l.781,1.837q.154.407.308.786t.33.8H16.2q.176-.418.341-.8t.319-.786l.781-1.837h1.331L16.808-2.673V0Zm4.312,0V-7.194h2.431a4.71,4.71,0,0,1,1.045.11,2.337,2.337,0,0,1,.836.357,1.729,1.729,0,0,1,.556.655,2.251,2.251,0,0,1,.2,1.012,2.119,2.119,0,0,1-.391,1.331A2.149,2.149,0,0,1,23.485-3L25.2,0h-1.43L22.22-2.816h-1.1V0ZM21.12-3.828h1.023a1.788,1.788,0,0,0,1.128-.308,1.105,1.105,0,0,0,.39-.924.94.94,0,0,0-.39-.869,2.156,2.156,0,0,0-1.128-.242H21.12ZM29.051.132a3.291,3.291,0,0,1-1.128-.181,2.107,2.107,0,0,1-.858-.577,2.675,2.675,0,0,1-.55-1.018,5.162,5.162,0,0,1-.193-1.513V-7.194H27.6v4.136a3.968,3.968,0,0,0,.1.985,1.72,1.72,0,0,0,.3.643,1.094,1.094,0,0,0,.456.346,1.6,1.6,0,0,0,.594.1,1.69,1.69,0,0,0,.6-.1,1.118,1.118,0,0,0,.473-.346,1.726,1.726,0,0,0,.308-.643,3.779,3.779,0,0,0,.11-.985V-7.194h1.221v4.037a5.3,5.3,0,0,1-.187,1.513,2.619,2.619,0,0,1-.545,1.018,2.107,2.107,0,0,1-.858.577A3.291,3.291,0,0,1,29.051.132ZM33.561,0V-7.194h1.276v3.267h.033l2.563-3.267h1.419l-2.211,2.8L39.226,0H37.818L35.871-3.388,34.837-2.1V0Zm7.777,0V-6.116H39.259V-7.194h5.434v1.078H42.614V0Zm5.588-3.828-.253.88H48.51l-.253-.88q-.176-.572-.335-1.177t-.313-1.2h-.044q-.154.6-.308,1.2T46.926-3.828ZM44.517,0,46.86-7.194h1.5L50.7,0H49.357L48.8-1.947h-2.42L45.815,0Z" transform="translate(249 343)"/>
    <g id="Mask_Group_153-2" data-name="Mask Group 153" class="cls-20" transform="translate(348 142)">
      <g id="x-2" data-name="x" transform="translate(119.24 192.24)">
        <line id="Line_152-2" data-name="Line 152" class="cls-21" x1="10.52" y2="10.52" transform="translate(0)"/>
        <line id="Line_153-2" data-name="Line 153" class="cls-21" x2="10.52" y2="10.52" transform="translate(0)"/>
      </g>
    </g>
    <path id="_1_ile_3_arasındaki-5" data-name="1 ile 3 arasındaki" class="cls-22" d="M4,0H119a4,4,0,0,1,0,8H4A4,4,0,0,1,4,0Z" transform="translate(81 335)"/>
    <g id="Mask_Group_155-2" data-name="Mask Group 155" class="cls-24" transform="translate(-462 -2334)">
      <g id="pause-2" data-name="pause" transform="translate(886.878 2667.722)">
        <rect id="Rectangle_807-2" data-name="Rectangle 807" class="cls-21" width="3.081" height="11.556" transform="translate(0)"/>
        <rect id="Rectangle_808-2" data-name="Rectangle 808" class="cls-21" width="3.081" height="11.556" transform="translate(6.163)"/>
      </g>
    </g>
    <g id="Mask_Group_157" data-name="Mask Group 157" class="cls-32" transform="translate(-2 165)">
      <path id="info-solid" class="cls-5" d="M.43,9.114h.43v-3.1H.43A.43.43,0,0,1,0,5.581V4.555a.43.43,0,0,1,.43-.43H2.836a.43.43,0,0,1,.43.43v4.56H3.7a.43.43,0,0,1,.43.43V10.57A.43.43,0,0,1,3.7,11H.43A.43.43,0,0,1,0,10.57V9.544A.43.43,0,0,1,.43,9.114ZM2.063,0A1.547,1.547,0,1,0,3.609,1.547,1.547,1.547,0,0,0,2.063,0Z" transform="translate(52.938 169)"/>
    </g>
    <g id="Path_1293" data-name="Path 1293" class="cls-9" transform="translate(20 371)">
      <path class="cls-40" d="M0,0H490V66H0Z"/>
      <path class="cls-41" d="M 1 1 L 1 65 L 489 65 L 489 1 L 1 1 M 0 0 L 490 0 L 490 66 L 0 66 L 0 0 Z"/>
    </g>
    <g class="cls-48" transform="matrix(1, 0, 0, 1, 0, 0)">
      <path id="Path_1294-2" data-name="Path 1294" class="cls-15" d="M2,0H33a2,2,0,0,1,2,2V25a2,2,0,0,1-2,2H2a2,2,0,0,1-2-2V2A2,2,0,0,1,2,0Z" transform="translate(369 391)"/>
    </g>
    <g id="Mask_Group_152-5" data-name="Mask Group 152" class="cls-16" transform="translate(-461 59)">
      <g id="eye-5" data-name="eye" transform="translate(840.667 340.667)">
        <path id="Path_1238-5" data-name="Path 1238" class="cls-17" d="M.417,7S3.083,1.667,7.75,1.667,15.083,7,15.083,7s-2.667,5.333-7.333,5.333S.417,7,.417,7Z" transform="translate(-0.417 -1.667)"/>
        <circle id="Ellipse_90-5" data-name="Ellipse 90" class="cls-17" cx="2" cy="2" r="2" transform="translate(5.333 3.333)"/>
      </g>
    </g>
    <path id="Path_1310" data-name="Path 1310" class="cls-33" d="M13,0A13,13,0,1,1,0,13,13,13,0,0,1,13,0Z" transform="translate(40 391)"/>
    <path id="Path_1295" data-name="Path 1295" class="cls-6" d="M2,0H57a2,2,0,0,1,2,2V18a2,2,0,0,1-2,2H2a2,2,0,0,1-2-2V2A2,2,0,0,1,2,0Z" transform="translate(244 394)"/>
    <path id="Path_1296" data-name="Path 1296" class="cls-2" d="M.913,0V-7.194h2.3A5.254,5.254,0,0,1,4.24-7.1a2.606,2.606,0,0,1,.814.3,1.449,1.449,0,0,1,.539.545,1.678,1.678,0,0,1,.193.836,1.826,1.826,0,0,1-.264.957,1.36,1.36,0,0,1-.737.605v.044a1.849,1.849,0,0,1,.985.556,1.63,1.63,0,0,1,.39,1.149,1.976,1.976,0,0,1-.209.935,1.884,1.884,0,0,1-.578.66,2.545,2.545,0,0,1-.874.39A4.529,4.529,0,0,1,3.4,0ZM2.189-4.224H3.1A1.73,1.73,0,0,0,4.2-4.5a.9.9,0,0,0,.336-.737.812.812,0,0,0-.352-.748A2.024,2.024,0,0,0,3.124-6.2H2.189Zm0,3.234H3.267a2.162,2.162,0,0,0,1.221-.291,1.009,1.009,0,0,0,.429-.9.9.9,0,0,0-.418-.83,2.371,2.371,0,0,0-1.232-.259H2.189ZM8.954-3.828l-.253.88h1.837l-.253-.88Q10.109-4.4,9.95-5.005T9.636-6.2H9.592q-.154.6-.308,1.2T8.954-3.828ZM6.545,0,8.888-7.194h1.5L12.727,0H11.385l-.561-1.947H8.4L7.843,0Zm9.174.132a3.69,3.69,0,0,1-1.4-.275,3.66,3.66,0,0,1-1.193-.781l.748-.869a3.216,3.216,0,0,0,.88.589,2.371,2.371,0,0,0,.99.225,1.48,1.48,0,0,0,.935-.253.814.814,0,0,0,.319-.671.783.783,0,0,0-.082-.374.847.847,0,0,0-.231-.27,1.99,1.99,0,0,0-.352-.214q-.2-.1-.446-.2l-.99-.429a3.408,3.408,0,0,1-.523-.275,2.289,2.289,0,0,1-.467-.4,1.833,1.833,0,0,1-.336-.539,1.84,1.84,0,0,1-.127-.7,1.78,1.78,0,0,1,.182-.8,2.023,2.023,0,0,1,.5-.643,2.314,2.314,0,0,1,.765-.429,2.962,2.962,0,0,1,.973-.154,3.066,3.066,0,0,1,1.21.248,3.124,3.124,0,0,1,1,.665l-.649.814A3.2,3.2,0,0,0,16.7-6.05a2.05,2.05,0,0,0-.836-.165,1.367,1.367,0,0,0-.825.226.728.728,0,0,0-.308.622.657.657,0,0,0,.094.358.956.956,0,0,0,.253.264,2.063,2.063,0,0,0,.368.209q.209.093.429.181l.979.407a3.372,3.372,0,0,1,.583.308,2.121,2.121,0,0,1,.457.407,1.77,1.77,0,0,1,.3.533,2.039,2.039,0,0,1,.11.7,1.961,1.961,0,0,1-.176.825,1.981,1.981,0,0,1-.511.677,2.51,2.51,0,0,1-.814.462A3.215,3.215,0,0,1,15.719.132ZM14.707,2.563l-.11-.55a2.917,2.917,0,0,0,.918-.159.377.377,0,0,0,.248-.358.362.362,0,0,0-.176-.308A1.692,1.692,0,0,0,14.916,1l.506-1.034h.77l-.319.715a1.5,1.5,0,0,1,.611.28.646.646,0,0,1,.215.523.825.825,0,0,1-.517.781A3.847,3.847,0,0,1,14.707,2.563Zm6.38-6.391-.253.88h1.837l-.253-.88q-.176-.572-.336-1.177t-.313-1.2h-.044q-.154.6-.308,1.2T21.087-3.828ZM18.678,0l2.343-7.194h1.5L24.86,0H23.518l-.561-1.947h-2.42L19.976,0Zm7.073,0V-7.194h2.431a4.71,4.71,0,0,1,1.045.11,2.337,2.337,0,0,1,.836.357,1.729,1.729,0,0,1,.556.655,2.251,2.251,0,0,1,.2,1.012,2.119,2.119,0,0,1-.39,1.331A2.149,2.149,0,0,1,29.392-3l1.716,3h-1.43L28.127-2.816h-1.1V0Zm1.276-3.828H28.05a1.788,1.788,0,0,0,1.128-.308,1.105,1.105,0,0,0,.39-.924.94.94,0,0,0-.39-.869,2.156,2.156,0,0,0-1.128-.242H27.027ZM32.263,0V-7.194h1.276V0Zm5.2.132a3.69,3.69,0,0,1-1.4-.275A3.66,3.66,0,0,1,34.87-.924l.748-.869a3.216,3.216,0,0,0,.88.589,2.371,2.371,0,0,0,.99.225,1.48,1.48,0,0,0,.935-.253.814.814,0,0,0,.319-.671.783.783,0,0,0-.083-.374.847.847,0,0,0-.231-.27,1.99,1.99,0,0,0-.352-.214q-.2-.1-.445-.2l-.99-.429a3.408,3.408,0,0,1-.522-.275,2.289,2.289,0,0,1-.467-.4,1.834,1.834,0,0,1-.336-.539,1.84,1.84,0,0,1-.126-.7,1.78,1.78,0,0,1,.181-.8,2.023,2.023,0,0,1,.5-.643,2.314,2.314,0,0,1,.764-.429,2.962,2.962,0,0,1,.974-.154,3.066,3.066,0,0,1,1.21.248,3.124,3.124,0,0,1,1,.665l-.649.814a3.2,3.2,0,0,0-.726-.451,2.05,2.05,0,0,0-.836-.165,1.367,1.367,0,0,0-.825.226.728.728,0,0,0-.308.622.657.657,0,0,0,.094.358.956.956,0,0,0,.253.264,2.063,2.063,0,0,0,.368.209q.209.093.429.181l.979.407a3.372,3.372,0,0,1,.583.308,2.121,2.121,0,0,1,.457.407,1.77,1.77,0,0,1,.3.533,2.039,2.039,0,0,1,.11.7,1.961,1.961,0,0,1-.176.825,1.981,1.981,0,0,1-.512.677,2.51,2.51,0,0,1-.814.462A3.215,3.215,0,0,1,37.466.132ZM41.36,0V-7.194h1.276V0Zm2.629,0V-.77l3.476-5.346H44.308V-7.194h4.741v.77L45.562-1.078h3.509V0Z" transform="translate(249 408)"/>
    <path id="_1_ile_3_arasındaki-6" data-name="1 ile 3 arasındaki" class="cls-22" d="M4,0H41a4,4,0,0,1,0,8H4A4,4,0,0,1,4,0Z" transform="translate(81 400)"/>
    <g id="Mask_Group_158" data-name="Mask Group 158" class="cls-34" transform="translate(-1 229)">
      <path id="business-time-solid" class="cls-6" d="M9.3,4.2A2.7,2.7,0,1,0,12,6.9,2.7,2.7,0,0,0,9.3,4.2Zm1.2,2.818a.183.183,0,0,1-.182.182H9.182A.183.183,0,0,1,9,7.018V5.582A.183.183,0,0,1,9.182,5.4h.236a.183.183,0,0,1,.182.182V6.6h.718a.183.183,0,0,1,.182.182ZM9.3,3.6c.1,0,.2.006.3.015V2.7a.923.923,0,0,0-.9-.9H7.2V.9A.923.923,0,0,0,6.3,0h-3a.923.923,0,0,0-.9.9v.9H.9a.923.923,0,0,0-.9.9V4.2H7.409A3.28,3.28,0,0,1,9.3,3.6ZM6,1.8H3.6V1.2H6ZM6.128,6H3.9a.3.3,0,0,1-.3-.3V4.8H0V7.5a.923.923,0,0,0,.9.9H6.364A3.256,3.256,0,0,1,6.128,6Z" transform="translate(48 170.2)"/>
    </g>
    <g id="Path_1285" data-name="Path 1285" class="cls-9" transform="translate(20 436)">
      <path class="cls-40" d="M0,0H490V66H0Z"/>
      <path class="cls-41" d="M 1 1 L 1 65 L 489 65 L 489 1 L 1 1 M 0 0 L 490 0 L 490 66 L 0 66 L 0 0 Z"/>
    </g>
    <g id="Path_1286" data-name="Path 1286" class="cls-14" transform="translate(455 456)">
      <path class="cls-40" d="M 33 26.5 L 2 26.5 C 1.172899961471558 26.5 0.5 25.82710075378418 0.5 25 L 0.5 2 C 0.5 1.172899961471558 1.172899961471558 0.5 2 0.5 L 33 0.5 C 33.82709884643555 0.5 34.5 1.172899961471558 34.5 2 L 34.5 25 C 34.5 25.82710075378418 33.82709884643555 26.5 33 26.5 Z"/>
      <path class="cls-43" d="M 2 1 C 1.448600769042969 1 1 1.448600769042969 1 2 L 1 25 C 1 25.55139923095703 1.448600769042969 26 2 26 L 33 26 C 33.55139923095703 26 34 25.55139923095703 34 25 L 34 2 C 34 1.448600769042969 33.55139923095703 1 33 1 L 2 1 M 2 0 L 33 0 C 34.10456848144531 0 35 0.8954296112060547 35 2 L 35 25 C 35 26.10457038879395 34.10456848144531 27 33 27 L 2 27 C 0.8954315185546875 27 0 26.10457038879395 0 25 L 0 2 C 0 0.8954296112060547 0.8954315185546875 0 2 0 Z"/>
    </g>
    <g class="cls-47" transform="matrix(1, 0, 0, 1, 0, 0)">
      <path id="Path_1287-2" data-name="Path 1287" class="cls-15" d="M2,0H33a2,2,0,0,1,2,2V25a2,2,0,0,1-2,2H2a2,2,0,0,1-2-2V2A2,2,0,0,1,2,0Z" transform="translate(369 456)"/>
    </g>
    <g id="Mask_Group_152-6" data-name="Mask Group 152" class="cls-16" transform="translate(-461 124)">
      <g id="eye-6" data-name="eye" transform="translate(840.667 340.667)">
        <path id="Path_1238-6" data-name="Path 1238" class="cls-17" d="M.417,7S3.083,1.667,7.75,1.667,15.083,7,15.083,7s-2.667,5.333-7.333,5.333S.417,7,.417,7Z" transform="translate(-0.417 -1.667)"/>
        <circle id="Ellipse_90-6" data-name="Ellipse 90" class="cls-17" cx="2" cy="2" r="2" transform="translate(5.333 3.333)"/>
      </g>
    </g>
    <path id="Path_1311" data-name="Path 1311" class="cls-18" d="M13,0A13,13,0,1,1,0,13,13,13,0,0,1,13,0Z" transform="translate(40 456)"/>
    <path id="Path_1288" data-name="Path 1288" class="cls-11" d="M2,0H76a2,2,0,0,1,2,2V18a2,2,0,0,1-2,2H2a2,2,0,0,1-2-2V2A2,2,0,0,1,2,0Z" transform="translate(244 459)"/>
    <path id="Path_1289" data-name="Path 1289" class="cls-2" d="M.913,0V-7.194H2.838A3.555,3.555,0,0,1,5.412-6.3,3.551,3.551,0,0,1,6.336-3.63,4.794,4.794,0,0,1,6.1-2.057,3.017,3.017,0,0,1,5.418-.918a2.848,2.848,0,0,1-1.078.687A4.166,4.166,0,0,1,2.9,0ZM2.189-1.034H2.75a2.193,2.193,0,0,0,1.688-.633A2.806,2.806,0,0,0,5.027-3.63a2.666,2.666,0,0,0-.594-1.925A2.252,2.252,0,0,0,2.75-6.16H2.189ZM10.483.132A3.291,3.291,0,0,1,9.356-.049,2.107,2.107,0,0,1,8.5-.627a2.675,2.675,0,0,1-.55-1.018,5.162,5.162,0,0,1-.193-1.513V-7.194H9.031v4.136a3.968,3.968,0,0,0,.1.985,1.72,1.72,0,0,0,.3.643,1.094,1.094,0,0,0,.457.346,1.6,1.6,0,0,0,.594.1,1.69,1.69,0,0,0,.6-.1,1.118,1.118,0,0,0,.473-.346,1.726,1.726,0,0,0,.308-.643,3.779,3.779,0,0,0,.11-.985V-7.194H13.2v4.037a5.3,5.3,0,0,1-.187,1.513,2.619,2.619,0,0,1-.545,1.018,2.107,2.107,0,0,1-.858.577A3.291,3.291,0,0,1,10.483.132ZM14.993,0V-7.194h2.431a4.71,4.71,0,0,1,1.045.11,2.337,2.337,0,0,1,.836.357,1.729,1.729,0,0,1,.556.655,2.251,2.251,0,0,1,.2,1.012,2.119,2.119,0,0,1-.39,1.331A2.149,2.149,0,0,1,18.634-3L20.35,0H18.92L17.369-2.816h-1.1V0Zm1.276-3.828h1.023a1.788,1.788,0,0,0,1.128-.308,1.105,1.105,0,0,0,.39-.924.94.94,0,0,0-.39-.869,2.156,2.156,0,0,0-1.128-.242H16.269ZM21.5,0V-7.194H23.43A3.555,3.555,0,0,1,26-6.3a3.551,3.551,0,0,1,.924,2.673,4.794,4.794,0,0,1-.236,1.573,3.017,3.017,0,0,1-.682,1.139,2.848,2.848,0,0,1-1.078.687A4.166,4.166,0,0,1,23.5,0Zm1.276-1.034h.561a2.193,2.193,0,0,0,1.688-.633,2.806,2.806,0,0,0,.589-1.964,2.666,2.666,0,0,0-.594-1.925,2.252,2.252,0,0,0-1.683-.605h-.561ZM31.075.132a3.291,3.291,0,0,1-1.128-.181,2.107,2.107,0,0,1-.858-.577,2.675,2.675,0,0,1-.55-1.018,5.162,5.162,0,0,1-.193-1.513V-7.194h1.276v4.136a3.968,3.968,0,0,0,.1.985,1.72,1.72,0,0,0,.3.643,1.094,1.094,0,0,0,.456.346,1.6,1.6,0,0,0,.594.1,1.69,1.69,0,0,0,.6-.1,1.118,1.118,0,0,0,.473-.346,1.726,1.726,0,0,0,.308-.643,3.779,3.779,0,0,0,.11-.985V-7.194h1.221v4.037A5.3,5.3,0,0,1,33.6-1.645,2.619,2.619,0,0,1,33.06-.627a2.107,2.107,0,0,1-.858.577A3.291,3.291,0,0,1,31.075.132ZM35.585,0V-7.194h2.431a4.71,4.71,0,0,1,1.045.11,2.337,2.337,0,0,1,.836.357,1.729,1.729,0,0,1,.556.655,2.251,2.251,0,0,1,.2,1.012,2.119,2.119,0,0,1-.391,1.331A2.149,2.149,0,0,1,39.226-3l1.716,3h-1.43L37.961-2.816h-1.1V0Zm1.276-3.828h1.023a1.788,1.788,0,0,0,1.127-.308,1.1,1.1,0,0,0,.39-.924.94.94,0,0,0-.39-.869,2.156,2.156,0,0,0-1.127-.242H36.861ZM44.792.132a3.291,3.291,0,0,1-1.128-.181,2.107,2.107,0,0,1-.858-.577,2.675,2.675,0,0,1-.55-1.018,5.162,5.162,0,0,1-.192-1.513V-7.194H43.34v4.136a3.968,3.968,0,0,0,.1.985,1.72,1.72,0,0,0,.3.643,1.094,1.094,0,0,0,.457.346,1.6,1.6,0,0,0,.594.1,1.69,1.69,0,0,0,.6-.1,1.118,1.118,0,0,0,.473-.346,1.726,1.726,0,0,0,.308-.643,3.779,3.779,0,0,0,.11-.985V-7.194h1.221v4.037a5.3,5.3,0,0,1-.187,1.513,2.619,2.619,0,0,1-.545,1.018,2.107,2.107,0,0,1-.858.577A3.291,3.291,0,0,1,44.792.132ZM49.3,0V-7.194h1.276v6.116H53.57V0Zm5.522,0V-7.194h1.925a3.555,3.555,0,0,1,2.574.891,3.551,3.551,0,0,1,.924,2.673,4.8,4.8,0,0,1-.236,1.573,3.017,3.017,0,0,1-.682,1.139,2.848,2.848,0,0,1-1.078.687A4.166,4.166,0,0,1,56.815,0ZM56.1-1.034h.561a2.193,2.193,0,0,0,1.688-.633,2.806,2.806,0,0,0,.589-1.964,2.666,2.666,0,0,0-.594-1.925,2.252,2.252,0,0,0-1.683-.605H56.1ZM64.394.132a3.291,3.291,0,0,1-1.127-.181,2.107,2.107,0,0,1-.858-.577,2.675,2.675,0,0,1-.55-1.018,5.162,5.162,0,0,1-.192-1.513V-7.194h1.276v4.136a3.968,3.968,0,0,0,.1.985,1.72,1.72,0,0,0,.3.643,1.094,1.094,0,0,0,.457.346,1.6,1.6,0,0,0,.594.1,1.69,1.69,0,0,0,.605-.1,1.118,1.118,0,0,0,.473-.346,1.726,1.726,0,0,0,.308-.643,3.779,3.779,0,0,0,.11-.985V-7.194h1.221v4.037a5.3,5.3,0,0,1-.187,1.513A2.619,2.619,0,0,1,66.38-.627a2.107,2.107,0,0,1-.858.577A3.291,3.291,0,0,1,64.394.132Z" transform="translate(249 473)"/>
    <g id="Mask_Group_153-3" data-name="Mask Group 153" class="cls-20" transform="translate(348 272)">
      <g id="x-3" data-name="x" transform="translate(119.24 192.24)">
        <line id="Line_152-3" data-name="Line 152" class="cls-21" x1="10.52" y2="10.52" transform="translate(0)"/>
        <line id="Line_153-3" data-name="Line 153" class="cls-21" x2="10.52" y2="10.52" transform="translate(0)"/>
      </g>
    </g>
    <g id="Mask_Group_122-3" data-name="Mask Group 122" class="cls-25" transform="translate(-244 443)">
      <path id="birthday-cake-solid-3" data-name="birthday-cake-solid" class="cls-3" d="M10.5,9c-.657,0-.733-.75-1.746-.75S7.656,9,7,9s-.737-.75-1.752-.75S4.143,9,3.5,9c-.66,0-.731-.75-1.752-.75S.659,9,0,9V7.125A1.125,1.125,0,0,1,1.125,6H1.5V2.625H3V6H4.5V2.625H6V6H7.5V2.625H9V6h.375A1.125,1.125,0,0,1,10.5,7.125Zm0,3H0V9.75C1.016,9.75,1.1,9,1.752,9s.732.75,1.752.75c1,0,1.107-.75,1.746-.75.66,0,.731.75,1.752.75S8.1,9,8.754,9s.732.75,1.746.75ZM2.25,2.25A.748.748,0,0,1,1.5,1.5c0-.727.75-.539.75-1.5C2.531,0,3,.691,3,1.313S2.666,2.25,2.25,2.25Zm3,0A.748.748,0,0,1,4.5,1.5c0-.727.75-.539.75-1.5C5.531,0,6,.691,6,1.313S5.666,2.25,5.25,2.25Zm3,0A.748.748,0,0,1,7.5,1.5c0-.727.75-.539.75-1.5C8.531,0,9,.691,9,1.313S8.666,2.25,8.25,2.25Z" transform="translate(291.75 20)"/>
    </g>
    <g id="Path_1290" data-name="Path 1290" class="cls-35" transform="translate(412 456)">
      <path class="cls-40" d="M 33 26.5 L 2 26.5 C 1.172899961471558 26.5 0.5 25.82710075378418 0.5 25 L 0.5 2 C 0.5 1.172899961471558 1.172899961471558 0.5 2 0.5 L 33 0.5 C 33.82709884643555 0.5 34.5 1.172899961471558 34.5 2 L 34.5 25 C 34.5 25.82710075378418 33.82709884643555 26.5 33 26.5 Z"/>
      <path class="cls-44" d="M 2 1 C 1.448600769042969 1 1 1.448600769042969 1 2 L 1 25 C 1 25.55139923095703 1.448600769042969 26 2 26 L 33 26 C 33.55139923095703 26 34 25.55139923095703 34 25 L 34 2 C 34 1.448600769042969 33.55139923095703 1 33 1 L 2 1 M 2 0 L 33 0 C 34.10456848144531 0 35 0.8954296112060547 35 2 L 35 25 C 35 26.10457038879395 34.10456848144531 27 33 27 L 2 27 C 0.8954315185546875 27 0 26.10457038879395 0 25 L 0 2 C 0 0.8954296112060547 0.8954315185546875 0 2 0 Z"/>
    </g>
    <g id="Mask_Group_156" data-name="Mask Group 156" class="cls-36" transform="translate(-509 -2183)">
      <path id="play" class="cls-21" d="M3.75,2.25l7.7,4.95-7.7,4.95Z" transform="translate(930.9 2645.3)"/>
    </g>
    <path id="_1_ile_3_arasındaki-7" data-name="1 ile 3 arasındaki" class="cls-22" d="M4,0H74a4,4,0,0,1,0,8H4A4,4,0,0,1,4,0Z" transform="translate(126 465)"/>
    <path id="_1_ile_3_arasındaki-8" data-name="1 ile 3 arasındaki" class="cls-23" d="M4,0H36a4,4,0,0,1,0,8H4A4,4,0,0,1,4,0Z" transform="translate(81 465)"/>
    <g class="cls-46" transform="matrix(1, 0, 0, 1, 0, 0)">
      <path id="Path_1291-2" data-name="Path 1291" class="cls-15" d="M2,0H33a2,2,0,0,1,2,2V25a2,2,0,0,1-2,2H2a2,2,0,0,1-2-2V2A2,2,0,0,1,2,0Z" transform="translate(369 521)"/>
    </g>
    <g id="Mask_Group_152-7" data-name="Mask Group 152" class="cls-16" transform="translate(-461 189)">
      <g id="eye-7" data-name="eye" transform="translate(840.667 340.667)">
        <path id="Path_1238-7" data-name="Path 1238" class="cls-17" d="M.417,7S3.083,1.667,7.75,1.667,15.083,7,15.083,7s-2.667,5.333-7.333,5.333S.417,7,.417,7Z" transform="translate(-0.417 -1.667)"/>
        <circle id="Ellipse_90-7" data-name="Ellipse 90" class="cls-17" cx="2" cy="2" r="2" transform="translate(5.333 3.333)"/>
      </g>
    </g>
    <path id="Path_1312" data-name="Path 1312" class="cls-37" d="M13,0A13,13,0,1,1,0,13,13,13,0,0,1,13,0Z" transform="translate(40 521)"/>
    <path id="Path_1292" data-name="Path 1292" class="cls-8" d="M2,0H35a2,2,0,0,1,2,2V18a2,2,0,0,1-2,2H2a2,2,0,0,1-2-2V2A2,2,0,0,1,2,0Z" transform="translate(244 524)"/>
    <path id="Path_1297" data-name="Path 1297" class="cls-2" d="M.913,0V-7.194H2.189V0Zm.638-7.777a.794.794,0,0,1-.561-.2A.68.68,0,0,1,.77-8.5.663.663,0,0,1,.99-9.02a.807.807,0,0,1,.561-.2.807.807,0,0,1,.561.2.663.663,0,0,1,.22.517.68.68,0,0,1-.22.523A.794.794,0,0,1,1.551-7.777ZM4.015,0V-7.194H6.281a5.256,5.256,0,0,1,1.106.11,2.386,2.386,0,0,1,.885.374,1.8,1.8,0,0,1,.583.688,2.362,2.362,0,0,1,.209,1.05,2.387,2.387,0,0,1-.209,1.034,2.026,2.026,0,0,1-.578.732,2.413,2.413,0,0,1-.869.429,4.078,4.078,0,0,1-1.083.138H5.291V0ZM5.291-3.663h.935q1.584,0,1.584-1.309A1.021,1.021,0,0,0,7.4-5.913a2.314,2.314,0,0,0-1.215-.258H5.291ZM11.66,0V-6.116H9.581V-7.194h5.434v1.078H12.936V0Zm5.588-3.828L17-2.948h1.837l-.253-.88Q18.4-4.4,18.243-5.005T17.93-6.2h-.044q-.154.6-.308,1.2T17.248-3.828ZM14.839,0l2.343-7.194h1.5L21.021,0H19.679l-.561-1.947H16.7L16.137,0Zm7.073,0V-7.194h1.276v6.116H26.18V0Z" transform="translate(249 538)"/>
    <path id="_1_ile_3_arasındaki-9" data-name="1 ile 3 arasındaki" class="cls-22" d="M4,0H71a4,4,0,0,1,0,8H4A4,4,0,0,1,4,0Z" transform="translate(81 530)"/>
    <g id="Mask_Group_159" data-name="Mask Group 159" class="cls-38" transform="translate(-2 359)">
      <path id="clock-solid" class="cls-4" d="M6.194.194a6,6,0,1,0,6,6A6,6,0,0,0,6.194.194Zm1.381,8.47L5.441,7.113a.292.292,0,0,1-.119-.235V2.806a.291.291,0,0,1,.29-.29H6.774a.291.291,0,0,1,.29.29V6.138L8.6,7.256a.29.29,0,0,1,.063.406L7.981,8.6a.292.292,0,0,1-.406.063Z" transform="translate(48.806 168.806)"/>
    </g>
    <g id="Path_1284" data-name="Path 1284" class="cls-39">
      <path class="cls-40" d="M0,0H530V588H0Z"/>
      <path class="cls-41" d="M 1 1 L 1 587 L 529 587 L 529 1 L 1 1 M 0 0 L 530 0 L 530 588 L 0 588 L 0 0 Z"/>
    </g>
  </g>
</svg>
