<svg xmlns="http://www.w3.org/2000/svg" xmlns:xlink="http://www.w3.org/1999/xlink" width="420" height="426" viewBox="0 0 420 426">
  <defs>
    <style>
      .cls-1 {
        fill: #fd9644;
      }

      .cls-2 {
        fill: #dc6362;
      }

      .cls-3 {
        fill: #aab0b6;
      }

      .cls-4 {
        fill: #467fcf;
      }

      .cls-5 {
        clip-path: url(#clip-Doğum_Günü_1);
      }

      .cls-15, .cls-21, .cls-6 {
        fill: none;
      }

      .cls-6 {
        stroke: rgba(0,40,100,0.12);
      }

      .cls-7 {
        fill: #cfd4da;
      }

      .cls-8 {
        fill: #888e95;
      }

      .cls-9 {
        fill: #dbdde0;
      }

      .cls-10 {
        fill: #343a40;
      }

      .cls-11 {
        clip-path: url(#clip-path);
      }

      .cls-12 {
        clip-path: url(#clip-path-2);
      }

      .cls-13, .cls-22 {
        fill: #fff;
      }

      .cls-14 {
        clip-path: url(#clip-path-5);
      }

      .cls-15 {
        stroke: #aab0b6;
        stroke-linecap: round;
        stroke-linejoin: round;
        stroke-width: 1.667px;
      }

      .cls-16 {
        clip-path: url(#clip-path-7);
      }

      .cls-17 {
        clip-path: url(#clip-path-8);
      }

      .cls-18 {
        clip-path: url(#clip-path-9);
      }

      .cls-19, .cls-20 {
        stroke: none;
      }

      .cls-20 {
        fill: rgba(0,40,100,0.12);
      }

      .cls-23 {
        filter: url(#Path_1642);
      }

      .cls-24 {
        filter: url(#Path_1635);
      }
    </style>
    <filter id="Path_1635" x="-1.5" y="92" width="423" height="4" filterUnits="userSpaceOnUse">
      <feOffset dy="1" input="SourceAlpha"/>
      <feGaussianBlur stdDeviation="0.5" result="blur"/>
      <feFlood flood-opacity="0.122"/>
      <feComposite operator="in" in2="blur"/>
      <feComposite in="SourceGraphic"/>
    </filter>
    <clipPath id="clip-path">
      <rect id="Rectangle_668" data-name="Rectangle 668" class="cls-1" width="40" height="40" transform="translate(291 20)"/>
    </clipPath>
    <clipPath id="clip-path-2">
      <rect id="Rectangle_208" data-name="Rectangle 208" class="cls-2" width="13" height="13" transform="translate(129 314)"/>
    </clipPath>
    <filter id="Path_1642" x="205" y="195" width="198" height="128" filterUnits="userSpaceOnUse">
      <feOffset dy="3" input="SourceAlpha"/>
      <feGaussianBlur stdDeviation="3" result="blur-2"/>
      <feFlood flood-opacity="0.161"/>
      <feComposite operator="in" in2="blur-2"/>
      <feComposite in="SourceGraphic"/>
    </filter>
    <clipPath id="clip-path-5">
      <rect id="Rectangle_604" data-name="Rectangle 604" class="cls-3" width="15" height="15" transform="translate(157 253)"/>
    </clipPath>
    <clipPath id="clip-path-7">
      <rect id="Rectangle_120" data-name="Rectangle 120" class="cls-4" width="15" height="15" transform="translate(-0.417)"/>
    </clipPath>
    <clipPath id="clip-path-8">
      <rect id="Rectangle_626" data-name="Rectangle 626" class="cls-3" width="15" height="15" transform="translate(318 433)"/>
    </clipPath>
    <clipPath id="clip-path-9">
      <rect id="Rectangle_671" data-name="Rectangle 671" class="cls-3" width="13" height="13" transform="translate(129 314)"/>
    </clipPath>
    <clipPath id="clip-Doğum_Günü_1">
      <rect width="420" height="426"/>
    </clipPath>
  </defs>
  <g id="Doğum_Günü_1" data-name="Doğum Günü – 1" class="cls-5">
    <rect class="cls-22" width="420" height="426"/>
    <g class="cls-24" transform="matrix(1, 0, 0, 1, 0, 0)">
      <path id="Path_1635-2" data-name="Path 1635" class="cls-6" d="M0,0H420" transform="translate(0 93)"/>
    </g>
    <path id="Path_1636" data-name="Path 1636" class="cls-3" d="M6.066.216A5.138,5.138,0,0,1,3.96-.207,4.56,4.56,0,0,1,2.322-1.431,5.733,5.733,0,0,1,1.26-3.366,8.122,8.122,0,0,1,.882-5.94,7.976,7.976,0,0,1,1.26-8.487a5.447,5.447,0,0,1,1.062-1.9A4.606,4.606,0,0,1,3.96-11.574a5.235,5.235,0,0,1,2.106-.414,5.235,5.235,0,0,1,2.106.414,4.693,4.693,0,0,1,1.647,1.188,5.369,5.369,0,0,1,1.071,1.9,7.976,7.976,0,0,1,.378,2.547,8.122,8.122,0,0,1-.378,2.574A5.647,5.647,0,0,1,9.819-1.431,4.643,4.643,0,0,1,8.172-.207,5.138,5.138,0,0,1,6.066.216Zm0-1.818a2.577,2.577,0,0,0,1.26-.306,2.806,2.806,0,0,0,.954-.873,4.345,4.345,0,0,0,.612-1.368A6.879,6.879,0,0,0,9.108-5.94a5.186,5.186,0,0,0-.819-3.105A2.606,2.606,0,0,0,6.066-10.17,2.606,2.606,0,0,0,3.843-9.045,5.186,5.186,0,0,0,3.024-5.94,6.879,6.879,0,0,0,3.24-4.149a4.345,4.345,0,0,0,.612,1.368,2.806,2.806,0,0,0,.954.873A2.577,2.577,0,0,0,6.066-1.6ZM4.14-12.744a1.035,1.035,0,0,1-.765-.3,1.035,1.035,0,0,1-.3-.765,1.066,1.066,0,0,1,.3-.774,1.019,1.019,0,0,1,.765-.306,1.049,1.049,0,0,1,.774.306,1.049,1.049,0,0,1,.306.774,1.019,1.019,0,0,1-.306.765A1.066,1.066,0,0,1,4.14-12.744Zm3.852,0a1.066,1.066,0,0,1-.774-.3,1.019,1.019,0,0,1-.306-.765,1.049,1.049,0,0,1,.306-.774,1.049,1.049,0,0,1,.774-.306,1.019,1.019,0,0,1,.765.306,1.066,1.066,0,0,1,.3.774,1.035,1.035,0,0,1-.3.765A1.035,1.035,0,0,1,7.992-12.744Zm8.532,16.65a7.032,7.032,0,0,1-1.467-.144A3.835,3.835,0,0,1,13.9,3.33a2.266,2.266,0,0,1-.765-.72A1.817,1.817,0,0,1,12.852,1.6,1.805,1.805,0,0,1,13.176.567a3.03,3.03,0,0,1,.936-.855V-.36a1.794,1.794,0,0,1-.567-.576,1.669,1.669,0,0,1-.225-.9,1.606,1.606,0,0,1,.3-.945,2.858,2.858,0,0,1,.675-.693v-.072a3.162,3.162,0,0,1-.8-.945,2.722,2.722,0,0,1-.351-1.395,3.056,3.056,0,0,1,.288-1.35,3.02,3.02,0,0,1,.765-1A3.265,3.265,0,0,1,15.3-8.847a4.24,4.24,0,0,1,1.332-.207,3.721,3.721,0,0,1,.693.063,4.641,4.641,0,0,1,.6.153H21.1v1.53h-1.62a2.1,2.1,0,0,1,.36.639,2.435,2.435,0,0,1,.144.855,3.029,3.029,0,0,1-.261,1.3,2.7,2.7,0,0,1-.711.936,3.127,3.127,0,0,1-1.062.576,4.244,4.244,0,0,1-1.314.2,3.416,3.416,0,0,1-.594-.054,2.954,2.954,0,0,1-.612-.18,1.879,1.879,0,0,0-.315.36.883.883,0,0,0-.117.486.682.682,0,0,0,.315.594,2.108,2.108,0,0,0,1.125.216H18a4.615,4.615,0,0,1,2.421.513A1.815,1.815,0,0,1,21.24.792a2.407,2.407,0,0,1-.333,1.224,3.023,3.023,0,0,1-.945.99,5.052,5.052,0,0,1-1.485.657A7.281,7.281,0,0,1,16.524,3.906Zm.108-8.01a1.459,1.459,0,0,0,1.08-.459,1.812,1.812,0,0,0,.45-1.323,1.782,1.782,0,0,0-.441-1.287,1.45,1.45,0,0,0-1.089-.459,1.494,1.494,0,0,0-1.1.45,1.754,1.754,0,0,0-.45,1.3,1.812,1.812,0,0,0,.45,1.323A1.479,1.479,0,0,0,16.632-4.1Zm.216,6.66a3.168,3.168,0,0,0,1.737-.423,1.2,1.2,0,0,0,.657-1,.693.693,0,0,0-.405-.7,2.954,2.954,0,0,0-1.161-.18H16.47A4.892,4.892,0,0,1,15.264.126,1.476,1.476,0,0,0,14.58,1.3a1.023,1.023,0,0,0,.6.927A3.47,3.47,0,0,0,16.848,2.556Zm.216-12.834a3.363,3.363,0,0,1-1.3-.225,2.457,2.457,0,0,1-.891-.612,2.627,2.627,0,0,1-.531-.891,3.885,3.885,0,0,1-.216-1.062l1.224-.2a3.063,3.063,0,0,0,.171.621,1.584,1.584,0,0,0,.333.522,1.78,1.78,0,0,0,.513.369,1.571,1.571,0,0,0,.693.144,1.571,1.571,0,0,0,.693-.144,1.78,1.78,0,0,0,.513-.369,1.584,1.584,0,0,0,.333-.522,3.063,3.063,0,0,0,.171-.621l1.224.2a3.885,3.885,0,0,1-.216,1.062,2.627,2.627,0,0,1-.531.891,2.457,2.457,0,0,1-.891.612A3.363,3.363,0,0,1,17.064-10.278ZM22.806,0V-8.838h1.71l.144,1.566h.072A3.71,3.71,0,0,1,25.866-8.6a2.383,2.383,0,0,1,1.368-.459,2.369,2.369,0,0,1,1.008.18l-.36,1.8a3.779,3.779,0,0,0-.432-.108,2.774,2.774,0,0,0-.486-.036,1.929,1.929,0,0,0-1.1.4,3.129,3.129,0,0,0-.99,1.413V0ZM33.12.216A4.585,4.585,0,0,1,31.41-.1a4.061,4.061,0,0,1-1.386-.909A4.147,4.147,0,0,1,29.1-2.457a5.352,5.352,0,0,1-.333-1.953,5.244,5.244,0,0,1,.342-1.944,4.459,4.459,0,0,1,.909-1.458A4.027,4.027,0,0,1,31.32-8.73a3.726,3.726,0,0,1,1.512-.324,3.846,3.846,0,0,1,1.584.306,3.09,3.09,0,0,1,1.143.864,3.8,3.8,0,0,1,.693,1.332,5.825,5.825,0,0,1,.234,1.692q0,.306-.027.576a3.838,3.838,0,0,1-.063.432H30.78a2.854,2.854,0,0,0,.837,1.827,2.513,2.513,0,0,0,1.773.639,3.259,3.259,0,0,0,1.071-.171,4.76,4.76,0,0,0,.981-.477l.7,1.3a6.356,6.356,0,0,1-1.4.684A4.883,4.883,0,0,1,33.12.216ZM30.762-5.256h3.924a2.621,2.621,0,0,0-.441-1.611,1.592,1.592,0,0,0-1.359-.585,1.961,1.961,0,0,0-1.386.558A2.645,2.645,0,0,0,30.762-5.256ZM38.466,0V-8.838h1.71L40.32-7.65h.072a7.007,7.007,0,0,1,1.287-.99,3.081,3.081,0,0,1,1.611-.414,2.367,2.367,0,0,1,2.07.909,4.441,4.441,0,0,1,.648,2.6V0h-2.07V-5.274a2.75,2.75,0,0,0-.324-1.548,1.219,1.219,0,0,0-1.062-.45,1.861,1.861,0,0,0-1.017.279,6.488,6.488,0,0,0-1,.819V0Zm13.77.216A4.583,4.583,0,0,1,50.553-.09a3.793,3.793,0,0,1-1.359-.9,4.162,4.162,0,0,1-.9-1.458A5.56,5.56,0,0,1,47.97-4.41a5.061,5.061,0,0,1,.36-1.962A4.314,4.314,0,0,1,49.3-7.83a4.232,4.232,0,0,1,1.413-.909A4.557,4.557,0,0,1,52.4-9.054a3.506,3.506,0,0,1,1.485.288,4.828,4.828,0,0,1,1.107.7l-1.008,1.35a3.428,3.428,0,0,0-.711-.477,1.723,1.723,0,0,0-.765-.171,2.161,2.161,0,0,0-1.746.8,3.259,3.259,0,0,0-.666,2.151,3.259,3.259,0,0,0,.657,2.133,2.1,2.1,0,0,0,1.7.8,2.2,2.2,0,0,0,.981-.225,4.408,4.408,0,0,0,.837-.531l.846,1.368a4.406,4.406,0,0,1-1.377.81A4.394,4.394,0,0,1,52.236.216ZM56.862,0V-8.838h2.07V0Zm1.044-10.386a1.32,1.32,0,0,1-.918-.324,1.085,1.085,0,0,1-.36-.846,1.112,1.112,0,0,1,.36-.855,1.3,1.3,0,0,1,.918-.333,1.3,1.3,0,0,1,.918.333,1.112,1.112,0,0,1,.36.855,1.085,1.085,0,0,1-.36.846A1.32,1.32,0,0,1,57.906-10.386ZM63.594.216A1.751,1.751,0,0,1,62.028-.45a3.209,3.209,0,0,1-.45-1.818v-10.44h2.07V-2.16a.771.771,0,0,0,.144.531.42.42,0,0,0,.306.153h.135a.763.763,0,0,0,.189-.036l.27,1.548A2.793,2.793,0,0,1,63.594.216Zm6.642,0A4.585,4.585,0,0,1,68.526-.1a4.061,4.061,0,0,1-1.386-.909,4.147,4.147,0,0,1-.927-1.449A5.352,5.352,0,0,1,65.88-4.41a5.244,5.244,0,0,1,.342-1.944,4.459,4.459,0,0,1,.909-1.458,4.027,4.027,0,0,1,1.305-.918,3.726,3.726,0,0,1,1.512-.324,3.846,3.846,0,0,1,1.584.306,3.09,3.09,0,0,1,1.143.864,3.8,3.8,0,0,1,.693,1.332A5.825,5.825,0,0,1,73.6-4.86q0,.306-.027.576a3.838,3.838,0,0,1-.063.432H67.9a2.854,2.854,0,0,0,.837,1.827,2.513,2.513,0,0,0,1.773.639,3.259,3.259,0,0,0,1.071-.171,4.76,4.76,0,0,0,.981-.477l.7,1.3a6.356,6.356,0,0,1-1.4.684A4.883,4.883,0,0,1,70.236.216ZM67.878-5.256H71.8a2.621,2.621,0,0,0-.441-1.611A1.592,1.592,0,0,0,70-7.452a1.961,1.961,0,0,0-1.386.558A2.645,2.645,0,0,0,67.878-5.256ZM75.582,0V-8.838h1.71l.144,1.566h.072A3.71,3.71,0,0,1,78.642-8.6a2.383,2.383,0,0,1,1.368-.459,2.369,2.369,0,0,1,1.008.18l-.36,1.8a3.779,3.779,0,0,0-.432-.108,2.774,2.774,0,0,0-.486-.036,1.929,1.929,0,0,0-1.1.4,3.129,3.129,0,0,0-.99,1.413V0Z" transform="translate(20 131)"/>
    <path id="Path_1651" data-name="Path 1651" class="cls-3" d="M1.494,0V-11.772H5.2a8.6,8.6,0,0,1,1.809.18,3.905,3.905,0,0,1,1.449.612,2.95,2.95,0,0,1,.954,1.125,3.866,3.866,0,0,1,.342,1.719,3.906,3.906,0,0,1-.342,1.692,3.316,3.316,0,0,1-.945,1.2,3.948,3.948,0,0,1-1.422.7,6.673,6.673,0,0,1-1.773.225H3.582V0ZM3.582-5.994h1.53Q7.7-5.994,7.7-8.136a1.671,1.671,0,0,0-.675-1.539A3.787,3.787,0,0,0,5.04-10.1H3.582ZM15.174.216A4.585,4.585,0,0,1,13.464-.1a4.06,4.06,0,0,1-1.386-.909,4.147,4.147,0,0,1-.927-1.449,5.352,5.352,0,0,1-.333-1.953,5.244,5.244,0,0,1,.342-1.944,4.459,4.459,0,0,1,.909-1.458,4.027,4.027,0,0,1,1.3-.918,3.726,3.726,0,0,1,1.512-.324,3.846,3.846,0,0,1,1.584.306,3.09,3.09,0,0,1,1.143.864,3.8,3.8,0,0,1,.693,1.332A5.825,5.825,0,0,1,18.54-4.86q0,.306-.027.576a3.837,3.837,0,0,1-.063.432H12.834a2.854,2.854,0,0,0,.837,1.827,2.513,2.513,0,0,0,1.773.639,3.259,3.259,0,0,0,1.071-.171,4.76,4.76,0,0,0,.981-.477l.7,1.3a6.356,6.356,0,0,1-1.4.684A4.883,4.883,0,0,1,15.174.216ZM12.816-5.256H16.74A2.621,2.621,0,0,0,16.3-6.867a1.592,1.592,0,0,0-1.359-.585,1.961,1.961,0,0,0-1.386.558A2.645,2.645,0,0,0,12.816-5.256ZM20.52,0V-8.838h1.71l.144,1.566h.072A3.71,3.71,0,0,1,23.58-8.6a2.383,2.383,0,0,1,1.368-.459,2.369,2.369,0,0,1,1.008.18l-.36,1.8a3.779,3.779,0,0,0-.432-.108,2.774,2.774,0,0,0-.486-.036,1.929,1.929,0,0,0-1.1.4A3.129,3.129,0,0,0,22.59-5.4V0Zm9.072.216a4.9,4.9,0,0,1-1.809-.351,5.853,5.853,0,0,1-1.539-.873l.972-1.332a5.619,5.619,0,0,0,1.179.729,3.079,3.079,0,0,0,1.269.261,1.592,1.592,0,0,0,1.062-.3.967.967,0,0,0,.342-.765.752.752,0,0,0-.162-.477,1.556,1.556,0,0,0-.432-.369,4.153,4.153,0,0,0-.612-.3q-.342-.135-.684-.279Q28.746-4,28.3-4.212a3.546,3.546,0,0,1-.8-.522,2.633,2.633,0,0,1-.576-.711,1.953,1.953,0,0,1-.225-.963,2.393,2.393,0,0,1,.864-1.908,3.513,3.513,0,0,1,2.358-.738,4.078,4.078,0,0,1,1.656.324,6.165,6.165,0,0,1,1.278.738L31.9-6.732a4.937,4.937,0,0,0-.945-.549,2.483,2.483,0,0,0-1-.207,1.451,1.451,0,0,0-.981.279.888.888,0,0,0-.315.693.706.706,0,0,0,.153.459,1.417,1.417,0,0,0,.405.333,4.123,4.123,0,0,0,.585.27q.333.126.693.252.45.162.9.369a3.7,3.7,0,0,1,.819.513,2.339,2.339,0,0,1,.594.747A2.292,2.292,0,0,1,33.03-2.52a2.557,2.557,0,0,1-.225,1.071,2.474,2.474,0,0,1-.657.864A3.2,3.2,0,0,1,31.068,0,4.659,4.659,0,0,1,29.592.216Zm8.91,0A4.182,4.182,0,0,1,36.918-.09a3.941,3.941,0,0,1-1.341-.9,4.306,4.306,0,0,1-.927-1.458,5.3,5.3,0,0,1-.342-1.962,5.3,5.3,0,0,1,.342-1.962,4.306,4.306,0,0,1,.927-1.458,4.055,4.055,0,0,1,1.341-.909A4.078,4.078,0,0,1,38.5-9.054a4.144,4.144,0,0,1,1.593.315,3.936,3.936,0,0,1,1.341.909,4.5,4.5,0,0,1,.927,1.458,5.176,5.176,0,0,1,.351,1.962,5.176,5.176,0,0,1-.351,1.962A4.5,4.5,0,0,1,41.436-.99a3.829,3.829,0,0,1-1.341.9A4.251,4.251,0,0,1,38.5.216Zm0-1.692a1.767,1.767,0,0,0,1.53-.8A3.665,3.665,0,0,0,40.59-4.41a3.7,3.7,0,0,0-.558-2.151,1.767,1.767,0,0,0-1.53-.8,1.744,1.744,0,0,0-1.521.8,3.746,3.746,0,0,0-.549,2.151,3.71,3.71,0,0,0,.549,2.133A1.744,1.744,0,0,0,38.5-1.476ZM44.766,0V-8.838h1.71L46.62-7.65h.072a7.007,7.007,0,0,1,1.287-.99,3.081,3.081,0,0,1,1.611-.414,2.367,2.367,0,0,1,2.07.909,4.441,4.441,0,0,1,.648,2.6V0h-2.07V-5.274a2.75,2.75,0,0,0-.324-1.548,1.219,1.219,0,0,0-1.062-.45,1.861,1.861,0,0,0-1.017.279,6.488,6.488,0,0,0-1,.819V0Zm13.86.216A4.585,4.585,0,0,1,56.916-.1a4.06,4.06,0,0,1-1.386-.909A4.147,4.147,0,0,1,54.6-2.457,5.352,5.352,0,0,1,54.27-4.41a5.244,5.244,0,0,1,.342-1.944,4.459,4.459,0,0,1,.909-1.458,4.027,4.027,0,0,1,1.305-.918,3.726,3.726,0,0,1,1.512-.324,3.846,3.846,0,0,1,1.584.306,3.09,3.09,0,0,1,1.143.864,3.8,3.8,0,0,1,.693,1.332,5.825,5.825,0,0,1,.234,1.692q0,.306-.027.576a3.836,3.836,0,0,1-.063.432H56.286a2.854,2.854,0,0,0,.837,1.827,2.513,2.513,0,0,0,1.773.639,3.259,3.259,0,0,0,1.071-.171,4.76,4.76,0,0,0,.981-.477l.7,1.3a6.356,6.356,0,0,1-1.4.684A4.883,4.883,0,0,1,58.626.216ZM56.268-5.256h3.924a2.621,2.621,0,0,0-.441-1.611,1.592,1.592,0,0,0-1.359-.585,1.961,1.961,0,0,0-1.386.558A2.645,2.645,0,0,0,56.268-5.256ZM65.988.216A1.751,1.751,0,0,1,64.422-.45a3.209,3.209,0,0,1-.45-1.818v-10.44h2.07V-2.16a.771.771,0,0,0,.144.531.42.42,0,0,0,.306.153h.135a.763.763,0,0,0,.189-.036l.27,1.548A2.793,2.793,0,0,1,65.988.216Zm4.878,0A1.751,1.751,0,0,1,69.3-.45a3.209,3.209,0,0,1-.45-1.818v-10.44h2.07V-2.16a.771.771,0,0,0,.144.531.42.42,0,0,0,.306.153h.135a.763.763,0,0,0,.189-.036l.27,1.548A2.793,2.793,0,0,1,70.866.216Zm6.642,0A4.585,4.585,0,0,1,75.8-.1a4.061,4.061,0,0,1-1.386-.909,4.147,4.147,0,0,1-.927-1.449,5.352,5.352,0,0,1-.333-1.953,5.244,5.244,0,0,1,.342-1.944A4.459,4.459,0,0,1,74.4-7.812a4.027,4.027,0,0,1,1.305-.918,3.726,3.726,0,0,1,1.512-.324,3.846,3.846,0,0,1,1.584.306,3.09,3.09,0,0,1,1.143.864,3.8,3.8,0,0,1,.693,1.332,5.825,5.825,0,0,1,.234,1.692q0,.306-.027.576a3.838,3.838,0,0,1-.063.432H75.168a2.854,2.854,0,0,0,.837,1.827,2.513,2.513,0,0,0,1.773.639,3.259,3.259,0,0,0,1.071-.171,4.76,4.76,0,0,0,.981-.477l.7,1.3a6.356,6.356,0,0,1-1.4.684A4.883,4.883,0,0,1,77.508.216ZM75.15-5.256h3.924a2.621,2.621,0,0,0-.441-1.611,1.592,1.592,0,0,0-1.359-.585,1.961,1.961,0,0,0-1.386.558A2.645,2.645,0,0,0,75.15-5.256ZM82.854,0V-8.838h1.71l.144,1.566h.072A3.71,3.71,0,0,1,85.914-8.6a2.383,2.383,0,0,1,1.368-.459,2.369,2.369,0,0,1,1.008.18l-.36,1.8a3.779,3.779,0,0,0-.432-.108,2.774,2.774,0,0,0-.486-.036,1.929,1.929,0,0,0-1.1.4,3.129,3.129,0,0,0-.99,1.413V0Z" transform="translate(20 338)"/>
    <path id="Path_1637" data-name="Path 1637" class="cls-7" d="M20,0A20,20,0,1,1,0,20,20,20,0,0,1,20,0Z" transform="translate(20 168)"/>
    <path id="Path_1638" data-name="Path 1638" class="cls-8" d="M1.162,0V-9.156h5.53v1.372H2.786v2.59H6.118v1.372H2.786V0Zm10.57.168A4.189,4.189,0,0,1,10.3-.063,2.681,2.681,0,0,1,9.2-.8a3.4,3.4,0,0,1-.7-1.295A6.57,6.57,0,0,1,8.26-4.018V-9.156H9.884v5.264a5.051,5.051,0,0,0,.133,1.253,2.189,2.189,0,0,0,.378.819,1.392,1.392,0,0,0,.581.441,2.039,2.039,0,0,0,.756.133,2.151,2.151,0,0,0,.77-.133,1.423,1.423,0,0,0,.6-.441,2.2,2.2,0,0,0,.392-.819,4.809,4.809,0,0,0,.14-1.253V-9.156H15.19v5.138a6.751,6.751,0,0,1-.238,1.925A3.334,3.334,0,0,1,14.259-.8a2.681,2.681,0,0,1-1.092.735A4.189,4.189,0,0,1,11.732.168Z" transform="translate(32 193)"/>
    <path id="Path_1645" data-name="Path 1645" class="cls-3" d="M5,0H68a5,5,0,0,1,0,10H5A5,5,0,0,1,5,0Z" transform="translate(70 241)"/>
    <path id="Path_1646" data-name="Path 1646" class="cls-9" d="M20,0A20,20,0,1,1,0,20,20,20,0,0,1,20,0Z" transform="translate(20 238)"/>
    <path id="Path_1647" data-name="Path 1647" class="cls-9" d="M5,0H68a5,5,0,0,1,0,10H5A5,5,0,0,1,5,0Z" transform="translate(70 256)"/>
    <path id="Path_1648" data-name="Path 1648" class="cls-9" d="M5,0H98a5,5,0,0,1,0,10H5A5,5,0,0,1,5,0Z" transform="translate(88 271)"/>
    <path id="Path_1652" data-name="Path 1652" class="cls-3" d="M5,0H68a5,5,0,0,1,0,10H5A5,5,0,0,1,5,0Z" transform="translate(70 366)"/>
    <path id="Path_1653" data-name="Path 1653" class="cls-9" d="M20,0A20,20,0,1,1,0,20,20,20,0,0,1,20,0Z" transform="translate(20 363)"/>
    <path id="Path_1654" data-name="Path 1654" class="cls-9" d="M5,0H68a5,5,0,0,1,0,10H5A5,5,0,0,1,5,0Z" transform="translate(70 381)"/>
    <path id="Path_1655" data-name="Path 1655" class="cls-9" d="M5,0H98a5,5,0,0,1,0,10H5A5,5,0,0,1,5,0Z" transform="translate(88 396)"/>
    <path id="Path_1633" data-name="Path 1633" class="cls-10" d="M2.075,0V-16.35H6.45a8.079,8.079,0,0,1,5.85,2.025Q14.4-12.3,14.4-8.25a10.9,10.9,0,0,1-.538,3.575,6.858,6.858,0,0,1-1.55,2.588A6.472,6.472,0,0,1,9.862-.525,9.469,9.469,0,0,1,6.6,0Zm2.9-2.35H6.25a4.984,4.984,0,0,0,3.837-1.438A6.378,6.378,0,0,0,11.425-8.25a6.059,6.059,0,0,0-1.35-4.375A5.118,5.118,0,0,0,6.25-14H4.975ZM22.475.3a5.809,5.809,0,0,1-2.2-.425,5.474,5.474,0,0,1-1.862-1.25A5.98,5.98,0,0,1,17.125-3.4a7.356,7.356,0,0,1-.475-2.725,7.356,7.356,0,0,1,.475-2.725,5.98,5.98,0,0,1,1.288-2.025,5.632,5.632,0,0,1,1.862-1.262,5.664,5.664,0,0,1,2.2-.438,5.756,5.756,0,0,1,2.212.438,5.467,5.467,0,0,1,1.862,1.262A6.245,6.245,0,0,1,27.837-8.85a7.188,7.188,0,0,1,.488,2.725A7.188,7.188,0,0,1,27.837-3.4,6.245,6.245,0,0,1,26.55-1.375a5.318,5.318,0,0,1-1.862,1.25A5.9,5.9,0,0,1,22.475.3Zm0-2.35A2.454,2.454,0,0,0,24.6-3.162a5.09,5.09,0,0,0,.775-2.963A5.138,5.138,0,0,0,24.6-9.112a2.454,2.454,0,0,0-2.125-1.113,2.423,2.423,0,0,0-2.113,1.113A5.2,5.2,0,0,0,19.6-6.125a5.153,5.153,0,0,0,.762,2.963A2.423,2.423,0,0,0,22.475-2.05ZM35.45,5.425a9.766,9.766,0,0,1-2.038-.2,5.326,5.326,0,0,1-1.612-.6,3.147,3.147,0,0,1-1.062-1,2.523,2.523,0,0,1-.388-1.4A2.508,2.508,0,0,1,30.8.788,4.208,4.208,0,0,1,32.1-.4V-.5a2.492,2.492,0,0,1-.787-.8A2.318,2.318,0,0,1,31-2.55a2.231,2.231,0,0,1,.413-1.312,3.97,3.97,0,0,1,.937-.963v-.1a4.392,4.392,0,0,1-1.112-1.313,3.781,3.781,0,0,1-.488-1.937,4.244,4.244,0,0,1,.4-1.875,4.2,4.2,0,0,1,1.063-1.387,4.535,4.535,0,0,1,1.537-.85,5.889,5.889,0,0,1,1.85-.288,5.169,5.169,0,0,1,.963.088,6.446,6.446,0,0,1,.838.213h4.4v2.125H39.55a2.909,2.909,0,0,1,.5.887,3.382,3.382,0,0,1,.2,1.187,4.207,4.207,0,0,1-.362,1.8,3.743,3.743,0,0,1-.987,1.3,4.343,4.343,0,0,1-1.475.8A5.9,5.9,0,0,1,35.6-3.9a4.745,4.745,0,0,1-.825-.075,4.1,4.1,0,0,1-.85-.25,2.609,2.609,0,0,0-.437.5,1.226,1.226,0,0,0-.162.675.948.948,0,0,0,.438.825,2.928,2.928,0,0,0,1.563.3H37.5a6.409,6.409,0,0,1,3.362.712A2.521,2.521,0,0,1,42,1.1a3.343,3.343,0,0,1-.463,1.7,4.2,4.2,0,0,1-1.312,1.375,7.016,7.016,0,0,1-2.062.913A10.112,10.112,0,0,1,35.45,5.425ZM35.6-5.7a2.026,2.026,0,0,0,1.5-.638,2.517,2.517,0,0,0,.625-1.837,2.475,2.475,0,0,0-.612-1.787A2.014,2.014,0,0,0,35.6-10.6a2.075,2.075,0,0,0-1.525.625,2.437,2.437,0,0,0-.625,1.8,2.517,2.517,0,0,0,.625,1.837A2.054,2.054,0,0,0,35.6-5.7Zm.3,9.25a4.4,4.4,0,0,0,2.412-.588,1.665,1.665,0,0,0,.912-1.388A.962.962,0,0,0,38.662.6,4.1,4.1,0,0,0,37.05.35H35.375A6.794,6.794,0,0,1,33.7.175,2.05,2.05,0,0,0,32.75,1.8a1.421,1.421,0,0,0,.838,1.287A4.819,4.819,0,0,0,35.9,3.55Zm.3-17.825a4.671,4.671,0,0,1-1.8-.313,3.412,3.412,0,0,1-1.238-.85,3.649,3.649,0,0,1-.737-1.237,5.4,5.4,0,0,1-.3-1.475l1.7-.275a4.254,4.254,0,0,0,.237.862,2.2,2.2,0,0,0,.463.725,2.472,2.472,0,0,0,.712.512,2.182,2.182,0,0,0,.963.2,2.182,2.182,0,0,0,.962-.2,2.472,2.472,0,0,0,.713-.512,2.2,2.2,0,0,0,.463-.725,4.254,4.254,0,0,0,.237-.862l1.7.275a5.4,5.4,0,0,1-.3,1.475,3.649,3.649,0,0,1-.737,1.237,3.412,3.412,0,0,1-1.237.85A4.671,4.671,0,0,1,36.2-14.275ZM47.825.3A3.287,3.287,0,0,1,44.95-.962a6.168,6.168,0,0,1-.9-3.612v-7.7h2.875V-4.95a3.82,3.82,0,0,0,.45,2.15,1.664,1.664,0,0,0,1.45.625,2.525,2.525,0,0,0,1.413-.4,5.775,5.775,0,0,0,1.313-1.3v-8.4h2.875V0h-2.35L51.85-1.8h-.075A7.213,7.213,0,0,1,50.037-.275,4.148,4.148,0,0,1,47.825.3ZM58.075,0V-12.275H60.45l.2,1.675h.1A8.613,8.613,0,0,1,62.438-12a3.787,3.787,0,0,1,2.063-.575A3.671,3.671,0,0,1,66.662-12,3.57,3.57,0,0,1,67.9-10.375a9.875,9.875,0,0,1,1.825-1.575,3.782,3.782,0,0,1,2.125-.625,3.327,3.327,0,0,1,2.875,1.263A6.04,6.04,0,0,1,75.65-7.7V0h-2.9V-7.325a3.736,3.736,0,0,0-.463-2.15,1.642,1.642,0,0,0-1.412-.625A3.866,3.866,0,0,0,68.3-8.575V0H65.425V-7.325a3.736,3.736,0,0,0-.463-2.15,1.67,1.67,0,0,0-1.437-.625A3.866,3.866,0,0,0,60.95-8.575V0ZM91.25.3a8.368,8.368,0,0,1-3.062-.55,6.783,6.783,0,0,1-2.45-1.625,7.421,7.421,0,0,1-1.612-2.65,10.459,10.459,0,0,1-.575-3.6,10.09,10.09,0,0,1,.6-3.587A7.966,7.966,0,0,1,85.787-14.4a6.908,6.908,0,0,1,2.45-1.675,7.978,7.978,0,0,1,3.037-.575,6.3,6.3,0,0,1,2.963.637,7.779,7.779,0,0,1,1.988,1.438L94.675-12.7a6.373,6.373,0,0,0-1.387-1.012,3.986,3.986,0,0,0-1.912-.413,4.66,4.66,0,0,0-1.988.413,4.365,4.365,0,0,0-1.525,1.175,5.436,5.436,0,0,0-.987,1.863,8.145,8.145,0,0,0-.35,2.475,6.873,6.873,0,0,0,1.263,4.387,4.488,4.488,0,0,0,3.737,1.587,4.588,4.588,0,0,0,1.325-.187,2.72,2.72,0,0,0,1.025-.537V-6.475h-3.1V-8.85h5.7v7.2A6.624,6.624,0,0,1,94.287-.262,7.89,7.89,0,0,1,91.25.3ZM103.5.3a3.287,3.287,0,0,1-2.875-1.262,6.168,6.168,0,0,1-.9-3.612v-7.7H102.6V-4.95a3.82,3.82,0,0,0,.45,2.15,1.664,1.664,0,0,0,1.45.625,2.525,2.525,0,0,0,1.412-.4,5.775,5.775,0,0,0,1.313-1.3v-8.4H110.1V0h-2.35l-.225-1.8h-.075a7.213,7.213,0,0,1-1.738,1.525A4.148,4.148,0,0,1,103.5.3Zm-1.075-14.75a1.476,1.476,0,0,1-1.088-.437,1.476,1.476,0,0,1-.437-1.088,1.476,1.476,0,0,1,.438-1.087,1.476,1.476,0,0,1,1.088-.437,1.466,1.466,0,0,1,1.1.438,1.5,1.5,0,0,1,.425,1.087,1.5,1.5,0,0,1-.425,1.088A1.466,1.466,0,0,1,102.425-14.45Zm5.15,0a1.466,1.466,0,0,1-1.1-.437,1.5,1.5,0,0,1-.425-1.088,1.5,1.5,0,0,1,.425-1.087,1.466,1.466,0,0,1,1.1-.437,1.476,1.476,0,0,1,1.087.438,1.476,1.476,0,0,1,.438,1.087,1.476,1.476,0,0,1-.437,1.088A1.476,1.476,0,0,1,107.575-14.45ZM113.75,0V-12.275h2.375l.2,1.65h.1A9.731,9.731,0,0,1,118.213-12a4.279,4.279,0,0,1,2.238-.575,3.287,3.287,0,0,1,2.875,1.263,6.168,6.168,0,0,1,.9,3.613V0H121.35V-7.325a3.82,3.82,0,0,0-.45-2.15,1.693,1.693,0,0,0-1.475-.625,2.585,2.585,0,0,0-1.412.387,9.011,9.011,0,0,0-1.388,1.138V0ZM131.4.3a3.287,3.287,0,0,1-2.875-1.262,6.168,6.168,0,0,1-.9-3.612v-7.7H130.5V-4.95a3.82,3.82,0,0,0,.45,2.15,1.664,1.664,0,0,0,1.45.625,2.525,2.525,0,0,0,1.412-.4,5.775,5.775,0,0,0,1.313-1.3v-8.4H138V0h-2.35l-.225-1.8h-.075a7.213,7.213,0,0,1-1.738,1.525A4.148,4.148,0,0,1,131.4.3Zm-1.075-14.75a1.476,1.476,0,0,1-1.087-.437,1.476,1.476,0,0,1-.437-1.088,1.476,1.476,0,0,1,.438-1.087,1.476,1.476,0,0,1,1.087-.437,1.466,1.466,0,0,1,1.1.438,1.5,1.5,0,0,1,.425,1.087,1.5,1.5,0,0,1-.425,1.088A1.466,1.466,0,0,1,130.325-14.45Zm5.15,0a1.466,1.466,0,0,1-1.1-.437,1.5,1.5,0,0,1-.425-1.088,1.5,1.5,0,0,1,.425-1.087,1.466,1.466,0,0,1,1.1-.437,1.476,1.476,0,0,1,1.087.438A1.476,1.476,0,0,1,137-15.975a1.476,1.476,0,0,1-.437,1.088A1.476,1.476,0,0,1,135.475-14.45Z" transform="translate(20 45)"/>
    <path id="Path_1634" data-name="Path 1634" class="cls-3" d="M1.328,0V-10.464h2.1L5.28-5.344q.176.5.336,1.016T5.952-3.3h.064q.176-.512.328-1.032t.328-1.016l1.808-5.12h2.112V0H8.88V-4.784q0-.368.024-.8t.056-.872q.032-.44.08-.864t.08-.792H9.056L8.208-5.68,6.5-.976h-1.1L3.664-5.68,2.832-8.112H2.768q.032.368.072.792t.08.864q.04.44.064.872t.024.8V0Zm14.1.192a2.1,2.1,0,0,1-1.84-.808,3.947,3.947,0,0,1-.576-2.312V-7.856h1.84v4.688a2.445,2.445,0,0,0,.288,1.376,1.065,1.065,0,0,0,.928.4,1.616,1.616,0,0,0,.9-.256,3.7,3.7,0,0,0,.84-.832V-7.856h1.84V0h-1.5L18-1.152h-.048a4.616,4.616,0,0,1-1.112.976A2.655,2.655,0,0,1,15.424.192Zm9.328,0a2.874,2.874,0,0,1-1.16-.208A1.967,1.967,0,0,1,22.824-.6a2.418,2.418,0,0,1-.432-.9,4.586,4.586,0,0,1-.136-1.16V-6.4h-1.12V-7.776l1.216-.08L22.576-10h1.536v2.144h2V-6.4h-2v3.744q0,1.376,1.1,1.376a1.951,1.951,0,0,0,.424-.048,1.988,1.988,0,0,0,.392-.128l.32,1.36a6.124,6.124,0,0,1-.728.2A4.131,4.131,0,0,1,24.752.192Zm4.8,0A1.557,1.557,0,0,1,28.16-.4a2.852,2.852,0,0,1-.4-1.616V-11.3H29.6V-1.92a.685.685,0,0,0,.128.472A.373.373,0,0,0,30-1.312h.12a.678.678,0,0,0,.168-.032l.24,1.376A2.483,2.483,0,0,1,29.552.192Zm4.88,0a2.1,2.1,0,0,1-1.84-.808,3.947,3.947,0,0,1-.576-2.312V-7.856h1.84v4.688a2.445,2.445,0,0,0,.288,1.376,1.065,1.065,0,0,0,.928.4,1.616,1.616,0,0,0,.9-.256,3.7,3.7,0,0,0,.84-.832V-7.856h1.84V0h-1.5l-.144-1.152H36.96a4.616,4.616,0,0,1-1.112.976A2.654,2.654,0,0,1,34.432.192ZM46.1,0V-3.888L42.96-10.464h1.984L46.08-7.792q.224.592.448,1.144t.48,1.16h.064q.256-.608.5-1.16t.464-1.144l1.136-2.672H51.1L47.952-3.888V0Zm5.472,0V-7.856h1.84V0Zm5.984.192A1.557,1.557,0,0,1,56.16-.4a2.852,2.852,0,0,1-.4-1.616V-11.3H57.6V-1.92a.685.685,0,0,0,.128.472A.373.373,0,0,0,58-1.312h.12a.678.678,0,0,0,.168-.032l.24,1.376A2.483,2.483,0,0,1,57.552.192Zm4.336,0A1.557,1.557,0,0,1,60.5-.4a2.852,2.852,0,0,1-.4-1.616V-11.3h1.84V-1.92a.685.685,0,0,0,.128.472.373.373,0,0,0,.272.136h.12a.678.678,0,0,0,.168-.032l.24,1.376A2.483,2.483,0,0,1,61.888.192Zm4.448,0a2.288,2.288,0,0,1-1.68-.632,2.245,2.245,0,0,1-.64-1.672,2.3,2.3,0,0,1,.264-1.112,2.276,2.276,0,0,1,.832-.84,5.525,5.525,0,0,1,1.44-.592,13.167,13.167,0,0,1,2.088-.368,2.965,2.965,0,0,0-.088-.584,1.342,1.342,0,0,0-.24-.5,1.116,1.116,0,0,0-.44-.336,1.665,1.665,0,0,0-.672-.12,2.975,2.975,0,0,0-1.128.224,7.585,7.585,0,0,0-1.08.544L64.32-7.024a7.87,7.87,0,0,1,1.472-.72,5,5,0,0,1,1.76-.3,2.7,2.7,0,0,1,2.2.872,3.837,3.837,0,0,1,.728,2.52V0H68.96l-.128-.864h-.064a5.772,5.772,0,0,1-1.128.752A2.844,2.844,0,0,1,66.336.192Zm.592-1.44a1.726,1.726,0,0,0,.872-.224,4.682,4.682,0,0,0,.84-.64v-1.76a8.4,8.4,0,0,0-1.344.256,3.885,3.885,0,0,0-.88.36,1.283,1.283,0,0,0-.48.456,1.093,1.093,0,0,0-.144.544.9.9,0,0,0,.32.768A1.323,1.323,0,0,0,66.928-1.248ZM72.688,0V-7.856h1.52l.128,1.392H74.4A3.3,3.3,0,0,1,75.408-7.64a2.119,2.119,0,0,1,1.216-.408,2.105,2.105,0,0,1,.9.16l-.32,1.6a3.359,3.359,0,0,0-.384-.1,2.466,2.466,0,0,0-.432-.032,1.714,1.714,0,0,0-.976.36,2.781,2.781,0,0,0-.88,1.256V0Z" transform="translate(20 69)"/>
    <g id="Mask_Group_122" data-name="Mask Group 122" class="cls-11" transform="translate(69 7)">
      <path id="birthday-cake-solid" class="cls-1" d="M35,30c-2.189,0-2.442-2.5-5.82-2.5S25.521,30,23.34,30c-2.164,0-2.457-2.5-5.84-2.5-3.347,0-3.689,2.5-5.82,2.5-2.2,0-2.438-2.5-5.84-2.5S2.2,30,0,30V23.75A3.751,3.751,0,0,1,3.75,20H5V8.75h5V20h5V8.75h5V20h5V8.75h5V20h1.25A3.751,3.751,0,0,1,35,23.75Zm0,10H0V32.5c3.387,0,3.654-2.5,5.84-2.5s2.442,2.5,5.84,2.5c3.347,0,3.689-2.5,5.82-2.5,2.2,0,2.438,2.5,5.84,2.5S26.994,30,29.18,30c2.148,0,2.442,2.5,5.82,2.5ZM7.5,7.5A2.492,2.492,0,0,1,5,5C5,2.578,7.5,3.2,7.5,0,8.438,0,10,2.3,10,4.375S8.887,7.5,7.5,7.5Zm10,0A2.492,2.492,0,0,1,15,5c0-2.422,2.5-1.8,2.5-5C18.438,0,20,2.3,20,4.375S18.887,7.5,17.5,7.5Zm10,0A2.492,2.492,0,0,1,25,5c0-2.422,2.5-1.8,2.5-5C28.438,0,30,2.3,30,4.375S28.887,7.5,27.5,7.5Z" transform="translate(293.5 20)"/>
    </g>
    <g id="Mask_Group_100" data-name="Mask Group 100" class="cls-12" transform="translate(-59 -109)">
      <path id="gift-solid" class="cls-2" d="M.813,11.375a.812.812,0,0,0,.813.813H5.688V8.125H.813Zm6.5.813h4.063a.812.812,0,0,0,.813-.812V8.125H7.313Zm4.875-8.125H11.119a2.214,2.214,0,0,0,.256-1.016A2.238,2.238,0,0,0,9.141.813c-1.056,0-1.739.541-2.615,1.734C5.649,1.353,4.966.813,3.91.813A2.238,2.238,0,0,0,1.676,3.047a2.183,2.183,0,0,0,.256,1.016H.813A.812.812,0,0,0,0,4.875V6.906a.407.407,0,0,0,.406.406H12.594A.407.407,0,0,0,13,6.906V4.875A.812.812,0,0,0,12.188,4.063Zm-8.28,0a1.016,1.016,0,0,1,0-2.031c.505,0,.879.084,2.186,2.031Zm5.233,0H6.954C8.26,2.12,8.623,2.031,9.141,2.031a1.016,1.016,0,0,1,0,2.031Z" transform="translate(129 314)"/>
    </g>
    <g id="Mask_Group_128" data-name="Mask Group 128" class="cls-12" transform="translate(-59 -45)">
      <path id="gift-solid-2" data-name="gift-solid" class="cls-2" d="M.813,11.375a.812.812,0,0,0,.813.813H5.688V8.125H.813Zm6.5.813h4.063a.812.812,0,0,0,.813-.812V8.125H7.313Zm4.875-8.125H11.119a2.214,2.214,0,0,0,.256-1.016A2.238,2.238,0,0,0,9.141.813c-1.056,0-1.739.541-2.615,1.734C5.649,1.353,4.966.813,3.91.813A2.238,2.238,0,0,0,1.676,3.047a2.183,2.183,0,0,0,.256,1.016H.813A.812.812,0,0,0,0,4.875V6.906a.407.407,0,0,0,.406.406H12.594A.407.407,0,0,0,13,6.906V4.875A.812.812,0,0,0,12.188,4.063Zm-8.28,0a1.016,1.016,0,0,1,0-2.031c.505,0,.879.084,2.186,2.031Zm5.233,0H6.954C8.26,2.12,8.623,2.031,9.141,2.031a1.016,1.016,0,0,1,0,2.031Z" transform="translate(129 314)"/>
    </g>
    <g id="Mask_Group_130" data-name="Mask Group 130" class="cls-12" transform="translate(-59 80)">
      <path id="gift-solid-3" data-name="gift-solid" class="cls-2" d="M.813,11.375a.812.812,0,0,0,.813.813H5.688V8.125H.813Zm6.5.813h4.063a.812.812,0,0,0,.813-.812V8.125H7.313Zm4.875-8.125H11.119a2.214,2.214,0,0,0,.256-1.016A2.238,2.238,0,0,0,9.141.813c-1.056,0-1.739.541-2.615,1.734C5.649,1.353,4.966.813,3.91.813A2.238,2.238,0,0,0,1.676,3.047a2.183,2.183,0,0,0,.256,1.016H.813A.812.812,0,0,0,0,4.875V6.906a.407.407,0,0,0,.406.406H12.594A.407.407,0,0,0,13,6.906V4.875A.812.812,0,0,0,12.188,4.063Zm-8.28,0a1.016,1.016,0,0,1,0-2.031c.505,0,.879.084,2.186,2.031Zm5.233,0H6.954C8.26,2.12,8.623,2.031,9.141,2.031a1.016,1.016,0,0,1,0,2.031Z" transform="translate(129 314)"/>
    </g>
    <path id="Path_1639" data-name="Path 1639" class="cls-10" d="M1.328,0V-10.464h6.32V-8.9H3.184v2.96H6.992v1.568H3.184V0Zm9.328.192A2.288,2.288,0,0,1,8.976-.44a2.245,2.245,0,0,1-.64-1.672A2.3,2.3,0,0,1,8.6-3.224a2.276,2.276,0,0,1,.832-.84,5.525,5.525,0,0,1,1.44-.592,13.167,13.167,0,0,1,2.088-.368,2.965,2.965,0,0,0-.088-.584,1.342,1.342,0,0,0-.24-.5,1.116,1.116,0,0,0-.44-.336,1.665,1.665,0,0,0-.672-.12,2.975,2.975,0,0,0-1.128.224,7.586,7.586,0,0,0-1.08.544L8.64-7.024a7.87,7.87,0,0,1,1.472-.72,5,5,0,0,1,1.76-.3,2.7,2.7,0,0,1,2.2.872,3.837,3.837,0,0,1,.728,2.52V0H13.28l-.128-.864h-.064a5.772,5.772,0,0,1-1.128.752A2.844,2.844,0,0,1,10.656.192Zm.592-1.44a1.726,1.726,0,0,0,.872-.224,4.682,4.682,0,0,0,.84-.64v-1.76a8.4,8.4,0,0,0-1.344.256,3.885,3.885,0,0,0-.88.36,1.283,1.283,0,0,0-.48.456,1.093,1.093,0,0,0-.144.544.9.9,0,0,0,.32.768A1.323,1.323,0,0,0,11.248-1.248ZM19.52.192a2.874,2.874,0,0,1-1.16-.208A1.967,1.967,0,0,1,17.592-.6a2.418,2.418,0,0,1-.432-.9,4.586,4.586,0,0,1-.136-1.16V-6.4H15.9V-7.776l1.216-.08L17.344-10H18.88v2.144h2V-6.4h-2v3.744q0,1.376,1.1,1.376a1.951,1.951,0,0,0,.424-.048,1.988,1.988,0,0,0,.392-.128L21.12-.1a6.124,6.124,0,0,1-.728.2A4.131,4.131,0,0,1,19.52.192ZM22.528,0V-7.856h1.84V0Zm.928-9.232a1.174,1.174,0,0,1-.816-.288.964.964,0,0,1-.32-.752.989.989,0,0,1,.32-.76,1.155,1.155,0,0,1,.816-.3,1.155,1.155,0,0,1,.816.3.989.989,0,0,1,.32.76.964.964,0,0,1-.32.752A1.174,1.174,0,0,1,23.456-9.232ZM26.72,0V-11.3h1.84v2.912L28.5-6.864a6.474,6.474,0,0,1,1.1-.824,2.7,2.7,0,0,1,1.416-.36,2.1,2.1,0,0,1,1.84.808,3.947,3.947,0,0,1,.576,2.312V0h-1.84V-4.688A2.445,2.445,0,0,0,31.3-6.064a1.084,1.084,0,0,0-.944-.4,1.655,1.655,0,0,0-.9.248,5.767,5.767,0,0,0-.888.728V0ZM42.928.192a4.787,4.787,0,0,1-1.64-.264,3.065,3.065,0,0,1-1.248-.84,3.891,3.891,0,0,1-.8-1.48,7.508,7.508,0,0,1-.28-2.2v-5.872h1.856v6.016a5.772,5.772,0,0,0,.152,1.432,2.5,2.5,0,0,0,.432.936,1.591,1.591,0,0,0,.664.5,2.331,2.331,0,0,0,.864.152,2.459,2.459,0,0,0,.88-.152,1.626,1.626,0,0,0,.688-.5,2.511,2.511,0,0,0,.448-.936,5.5,5.5,0,0,0,.16-1.432v-6.016H46.88v5.872a7.716,7.716,0,0,1-.272,2.2,3.81,3.81,0,0,1-.792,1.48,3.065,3.065,0,0,1-1.248.84A4.787,4.787,0,0,1,42.928.192ZM48.7,0V-.992L52.416-6.4h-3.3V-7.856h5.6v.976l-3.7,5.408h3.824V0Zm9.888.192a2.1,2.1,0,0,1-1.84-.808,3.947,3.947,0,0,1-.576-2.312V-7.856h1.84v4.688A2.445,2.445,0,0,0,58.3-1.792a1.065,1.065,0,0,0,.928.4,1.616,1.616,0,0,0,.9-.256,3.7,3.7,0,0,0,.84-.832V-7.856h1.84V0h-1.5l-.144-1.152H61.12a4.616,4.616,0,0,1-1.112.976A2.655,2.655,0,0,1,58.592.192ZM65.152,0V-7.856h1.52L66.8-6.8h.064a6.228,6.228,0,0,1,1.144-.88,2.739,2.739,0,0,1,1.432-.368,2.1,2.1,0,0,1,1.84.808,3.947,3.947,0,0,1,.576,2.312V0h-1.84V-4.688a2.445,2.445,0,0,0-.288-1.376,1.084,1.084,0,0,0-.944-.4,1.655,1.655,0,0,0-.9.248,5.767,5.767,0,0,0-.888.728V0Z" transform="translate(70 172)"/>
    <path id="Path_1640" data-name="Path 1640" class="cls-3" d="M.962,0V-1.222H2.808V-6.656H1.287v-.936a6.932,6.932,0,0,0,1.072-.28,4.809,4.809,0,0,0,.839-.4H4.316v7.046H5.941V0Zm9.594,0V-2.132H6.9V-3.146l3.276-5.122H11.96v4.979H13v1.157H11.96V0ZM8.385-3.289h2.171V-5.161q0-.364.02-.858t.045-.858h-.052q-.156.325-.325.637l-.351.65ZM20.319.156A3.711,3.711,0,0,1,18.8-.149a3.293,3.293,0,0,1-1.183-.884,4.141,4.141,0,0,1-.767-1.4,5.866,5.866,0,0,1-.273-1.859,5.76,5.76,0,0,1,.273-1.839A3.934,3.934,0,0,1,17.615-7.5,3.327,3.327,0,0,1,18.8-8.359a3.781,3.781,0,0,1,1.521-.3,3.781,3.781,0,0,1,1.521.3,3.389,3.389,0,0,1,1.189.858A3.878,3.878,0,0,1,23.8-6.129a5.76,5.76,0,0,1,.273,1.839A5.866,5.866,0,0,1,23.8-2.431a4.079,4.079,0,0,1-.774,1.4,3.354,3.354,0,0,1-1.189.884A3.711,3.711,0,0,1,20.319.156Zm0-1.313a1.861,1.861,0,0,0,.91-.221,2.026,2.026,0,0,0,.689-.63A3.138,3.138,0,0,0,22.36-3a4.969,4.969,0,0,0,.156-1.293,3.746,3.746,0,0,0-.591-2.242,1.882,1.882,0,0,0-1.605-.812,1.882,1.882,0,0,0-1.606.813,3.746,3.746,0,0,0-.591,2.242A4.968,4.968,0,0,0,18.278-3a3.138,3.138,0,0,0,.442.988,2.026,2.026,0,0,0,.689.63A1.861,1.861,0,0,0,20.319-1.157Zm8,1.313A3.31,3.31,0,0,1,27.1-.065a2.739,2.739,0,0,1-.982-.65,3.006,3.006,0,0,1-.65-1.053,4.015,4.015,0,0,1-.234-1.417,3.655,3.655,0,0,1,.26-1.417,3.115,3.115,0,0,1,.7-1.053,3.056,3.056,0,0,1,1.02-.656,3.291,3.291,0,0,1,1.215-.228,2.532,2.532,0,0,1,1.073.208,3.487,3.487,0,0,1,.8.507l-.728.975a2.476,2.476,0,0,0-.514-.345,1.244,1.244,0,0,0-.552-.123,1.561,1.561,0,0,0-1.261.579,2.353,2.353,0,0,0-.481,1.553,2.354,2.354,0,0,0,.475,1.541,1.515,1.515,0,0,0,1.229.578,1.588,1.588,0,0,0,.708-.163,3.184,3.184,0,0,0,.6-.383l.611.988a3.182,3.182,0,0,1-.994.585A3.174,3.174,0,0,1,28.314.156Zm4.758,0a1.859,1.859,0,0,1-1.365-.513,1.824,1.824,0,0,1-.52-1.358,1.868,1.868,0,0,1,.215-.9,1.849,1.849,0,0,1,.676-.683,4.489,4.489,0,0,1,1.17-.481,10.7,10.7,0,0,1,1.7-.3,2.409,2.409,0,0,0-.071-.474,1.091,1.091,0,0,0-.195-.4.907.907,0,0,0-.358-.273,1.353,1.353,0,0,0-.546-.1,2.417,2.417,0,0,0-.917.182,6.163,6.163,0,0,0-.878.442l-.546-1a6.4,6.4,0,0,1,1.2-.585,4.064,4.064,0,0,1,1.43-.247,2.2,2.2,0,0,1,1.787.709,3.118,3.118,0,0,1,.591,2.048V0H35.2l-.1-.7h-.052a4.69,4.69,0,0,1-.917.611A2.311,2.311,0,0,1,33.072.156Zm.481-1.17a1.4,1.4,0,0,0,.708-.182,3.8,3.8,0,0,0,.682-.52v-1.43a6.824,6.824,0,0,0-1.092.208,3.156,3.156,0,0,0-.715.293,1.042,1.042,0,0,0-.39.371.888.888,0,0,0-.117.442.729.729,0,0,0,.26.624A1.075,1.075,0,0,0,33.553-1.014ZM38.233,0V-9.178H39.7v5.733h.039l2.366-2.938h1.638l-2.184,2.6L43.966,0H42.341L40.7-2.769l-1,1.144V0ZM45.11,2.366l-.325-.819a2.338,2.338,0,0,0,.981-.663,1.338,1.338,0,0,0,.332-.91h-.117a1.025,1.025,0,0,1-.669-.24.834.834,0,0,1-.292-.683.843.843,0,0,1,.292-.669,1.045,1.045,0,0,1,.708-.253.96.96,0,0,1,.826.4,1.9,1.9,0,0,1,.292,1.131,2.7,2.7,0,0,1-.527,1.664A3.071,3.071,0,0,1,45.11,2.366Zm8.8-2.21a4.361,4.361,0,0,1-1.658-.325,4.325,4.325,0,0,1-1.41-.923l.884-1.027a3.8,3.8,0,0,0,1.04.7,2.8,2.8,0,0,0,1.17.266,1.749,1.749,0,0,0,1.1-.3.962.962,0,0,0,.377-.793.925.925,0,0,0-.1-.442,1,1,0,0,0-.273-.319,2.352,2.352,0,0,0-.416-.253q-.241-.117-.527-.234L52.936-4a4.028,4.028,0,0,1-.617-.325,2.706,2.706,0,0,1-.553-.468,2.167,2.167,0,0,1-.4-.637,2.175,2.175,0,0,1-.15-.832,2.1,2.1,0,0,1,.215-.943,2.391,2.391,0,0,1,.591-.76,2.735,2.735,0,0,1,.9-.507,3.5,3.5,0,0,1,1.15-.182,3.624,3.624,0,0,1,1.43.293,3.692,3.692,0,0,1,1.183.786l-.767.962a3.788,3.788,0,0,0-.858-.533,2.422,2.422,0,0,0-.988-.195,1.615,1.615,0,0,0-.975.266.86.86,0,0,0-.364.734.777.777,0,0,0,.111.422,1.13,1.13,0,0,0,.3.312,2.438,2.438,0,0,0,.436.247q.247.11.507.214l1.157.481a3.985,3.985,0,0,1,.689.364,2.506,2.506,0,0,1,.54.481,2.092,2.092,0,0,1,.357.631,2.41,2.41,0,0,1,.13.826,2.317,2.317,0,0,1-.208.975,2.342,2.342,0,0,1-.6.8,2.967,2.967,0,0,1-.962.546A3.8,3.8,0,0,1,53.911.156Zm6.019,0a1.859,1.859,0,0,1-1.365-.513,1.824,1.824,0,0,1-.52-1.358,1.868,1.868,0,0,1,.215-.9,1.849,1.849,0,0,1,.676-.683,4.489,4.489,0,0,1,1.17-.481,10.7,10.7,0,0,1,1.7-.3,2.409,2.409,0,0,0-.071-.474,1.091,1.091,0,0,0-.195-.4.907.907,0,0,0-.358-.273,1.353,1.353,0,0,0-.546-.1,2.417,2.417,0,0,0-.917.182,6.163,6.163,0,0,0-.878.442l-.546-1a6.4,6.4,0,0,1,1.2-.585,4.064,4.064,0,0,1,1.43-.247,2.2,2.2,0,0,1,1.787.709A3.118,3.118,0,0,1,63.3-3.783V0H62.062l-.1-.7h-.052a4.69,4.69,0,0,1-.917.611A2.311,2.311,0,0,1,59.93.156Zm.481-1.17a1.4,1.4,0,0,0,.708-.182,3.8,3.8,0,0,0,.682-.52v-1.43a6.824,6.824,0,0,0-1.092.208,3.156,3.156,0,0,0-.715.293,1.042,1.042,0,0,0-.39.371.888.888,0,0,0-.117.442.729.729,0,0,0,.26.624A1.075,1.075,0,0,0,60.411-1.014ZM66.547.156a1.265,1.265,0,0,1-1.131-.481,2.317,2.317,0,0,1-.325-1.313v-7.54h1.5V-1.56a.557.557,0,0,0,.1.383.3.3,0,0,0,.221.11h.1a.551.551,0,0,0,.136-.026L67.34.026A2.018,2.018,0,0,1,66.547.156ZM68.614,0V-6.383h1.5V0Z" transform="translate(70 194)"/>
    <path id="Path_1641" data-name="Path 1641" class="cls-3" d="M.494,0V-.871Q1.352-1.7,2.047-2.4T3.23-3.7a6.191,6.191,0,0,0,.747-1.118,2.214,2.214,0,0,0,.26-.988,1.491,1.491,0,0,0-.351-1.046,1.305,1.305,0,0,0-1.014-.384A1.513,1.513,0,0,0,2-6.968a4.137,4.137,0,0,0-.735.65L.429-7.15a4.783,4.783,0,0,1,1.176-.942,3,3,0,0,1,1.463-.332,3.03,3.03,0,0,1,1.079.182,2.33,2.33,0,0,1,.819.513,2.316,2.316,0,0,1,.527.8,2.76,2.76,0,0,1,.188,1.04,2.826,2.826,0,0,1-.24,1.111,6.17,6.17,0,0,1-.65,1.144,13.517,13.517,0,0,1-.955,1.19q-.546.611-1.157,1.261l.7-.059q.377-.032.676-.032H6.084V0ZM9.8.156A3.711,3.711,0,0,1,8.118-.188a4.388,4.388,0,0,1-1.137-.8L7.67-1.95a4.507,4.507,0,0,0,.845.618,2.169,2.169,0,0,0,1.092.266,1.625,1.625,0,0,0,1.15-.416,1.517,1.517,0,0,0,.449-1.17A1.519,1.519,0,0,0,10.79-3.8a1.521,1.521,0,0,0-1.105-.4,1.809,1.809,0,0,0-.676.111,3.925,3.925,0,0,0-.65.358l-.715-.455.247-4.082h4.42v1.261H9.191l-.169,2a2.926,2.926,0,0,1,.514-.2,2.135,2.135,0,0,1,.578-.071,3.206,3.206,0,0,1,1.007.156,2.264,2.264,0,0,1,.826.474,2.275,2.275,0,0,1,.559.806,2.917,2.917,0,0,1,.208,1.151,2.909,2.909,0,0,1-.241,1.209,2.671,2.671,0,0,1-.644.9,2.759,2.759,0,0,1-.929.553A3.234,3.234,0,0,1,9.8.156Zm5.33,0a.933.933,0,0,1-.7-.286,1,1,0,0,1-.28-.728,1,1,0,0,1,.28-.728.933.933,0,0,1,.7-.286.912.912,0,0,1,.689.286,1.012,1.012,0,0,1,.273.728,1.012,1.012,0,0,1-.273.728A.912.912,0,0,1,15.132.156ZM22.009,0V-3.159L19.461-8.5h1.612L22-6.331q.182.481.364.93t.39.942H22.8q.208-.494.4-.942t.377-.93L24.505-8.5h1.573L23.517-3.159V0Zm5.577.156a1.859,1.859,0,0,1-1.365-.513,1.824,1.824,0,0,1-.52-1.358,1.868,1.868,0,0,1,.215-.9,1.849,1.849,0,0,1,.676-.683,4.489,4.489,0,0,1,1.17-.481,10.7,10.7,0,0,1,1.7-.3,2.409,2.409,0,0,0-.071-.474,1.091,1.091,0,0,0-.2-.4.907.907,0,0,0-.358-.273,1.353,1.353,0,0,0-.546-.1,2.417,2.417,0,0,0-.917.182,6.163,6.163,0,0,0-.878.442l-.546-1a6.4,6.4,0,0,1,1.2-.585,4.064,4.064,0,0,1,1.43-.247,2.2,2.2,0,0,1,1.787.709,3.118,3.118,0,0,1,.591,2.048V0H29.718l-.1-.7h-.052a4.69,4.69,0,0,1-.917.611A2.311,2.311,0,0,1,27.586.156Zm.481-1.17a1.4,1.4,0,0,0,.708-.182,3.8,3.8,0,0,0,.683-.52v-1.43a6.824,6.824,0,0,0-1.092.208,3.156,3.156,0,0,0-.715.293,1.042,1.042,0,0,0-.39.371.888.888,0,0,0-.117.442.729.729,0,0,0,.26.624A1.075,1.075,0,0,0,28.067-1.014ZM34.528.156A3.537,3.537,0,0,1,33.222-.1,4.227,4.227,0,0,1,32.11-.728l.7-.962a4.058,4.058,0,0,0,.852.526,2.224,2.224,0,0,0,.917.189,1.15,1.15,0,0,0,.767-.214.7.7,0,0,0,.247-.553.543.543,0,0,0-.117-.345,1.124,1.124,0,0,0-.312-.266,3,3,0,0,0-.442-.215q-.247-.1-.494-.2-.312-.117-.637-.273a2.561,2.561,0,0,1-.578-.377,1.9,1.9,0,0,1-.416-.513,1.411,1.411,0,0,1-.162-.7,1.728,1.728,0,0,1,.624-1.378,2.537,2.537,0,0,1,1.7-.533,2.945,2.945,0,0,1,1.2.234,4.452,4.452,0,0,1,.923.533l-.689.91a3.566,3.566,0,0,0-.683-.4,1.794,1.794,0,0,0-.721-.149,1.048,1.048,0,0,0-.708.2.642.642,0,0,0-.228.5.51.51,0,0,0,.111.332,1.024,1.024,0,0,0,.292.24,2.978,2.978,0,0,0,.423.195q.24.091.5.182.325.117.65.266a2.669,2.669,0,0,1,.592.371,1.69,1.69,0,0,1,.429.539,1.655,1.655,0,0,1,.163.761,1.847,1.847,0,0,1-.163.774,1.787,1.787,0,0,1-.474.624,2.311,2.311,0,0,1-.78.422A3.365,3.365,0,0,1,34.528.156Zm-.975,2.873-.13-.65a3.447,3.447,0,0,0,1.085-.188.446.446,0,0,0,.292-.422.428.428,0,0,0-.208-.364,2,2,0,0,0-.793-.221l.6-1.222h.91l-.377.845a1.775,1.775,0,0,1,.722.331.764.764,0,0,1,.254.618.975.975,0,0,1-.611.923A4.546,4.546,0,0,1,33.553,3.029ZM38.35,0V-6.383h1.495V0Zm3.406,0V-6.383h1.235l.1.858h.052a5.06,5.06,0,0,1,.93-.715,2.225,2.225,0,0,1,1.163-.3,1.709,1.709,0,0,1,1.5.657A3.207,3.207,0,0,1,47.2-4V0H45.708V-3.809a1.986,1.986,0,0,0-.234-1.118.88.88,0,0,0-.767-.325,1.344,1.344,0,0,0-.735.2,4.686,4.686,0,0,0-.722.591V0Zm7.28,0V-6.383h1.495V0Zm6.136,0V-8.5H56.68v3.861h.039L59.748-8.5h1.677L58.812-5.187,61.867,0H60.2L57.9-4,56.68-2.483V0Zm9.373.156A1.709,1.709,0,0,1,63.05-.5a3.207,3.207,0,0,1-.468-1.878v-4h1.5v3.809a1.986,1.986,0,0,0,.234,1.118.865.865,0,0,0,.754.325,1.313,1.313,0,0,0,.734-.208,3,3,0,0,0,.683-.676V-6.383h1.5V0H66.755l-.117-.936H66.6a3.751,3.751,0,0,1-.9.793A2.157,2.157,0,0,1,64.545.156Zm7.579,0a2.335,2.335,0,0,1-.942-.169,1.6,1.6,0,0,1-.624-.475,1.964,1.964,0,0,1-.351-.728,3.726,3.726,0,0,1-.111-.942V-5.2h-.91V-6.318l.988-.065.182-1.742H71.6v1.742h1.625V-5.2H71.6v3.042q0,1.118.9,1.118a1.585,1.585,0,0,0,.345-.039,1.615,1.615,0,0,0,.318-.1l.26,1.1a4.976,4.976,0,0,1-.591.163A3.356,3.356,0,0,1,72.124.156Zm3.9,0a1.265,1.265,0,0,1-1.131-.481,2.317,2.317,0,0,1-.325-1.313v-7.54h1.5V-1.56a.557.557,0,0,0,.1.383.3.3,0,0,0,.221.11h.1a.551.551,0,0,0,.136-.026L76.817.026A2.018,2.018,0,0,1,76.024.156Zm3.614,0a1.859,1.859,0,0,1-1.365-.513,1.824,1.824,0,0,1-.52-1.358,1.868,1.868,0,0,1,.215-.9,1.849,1.849,0,0,1,.676-.683,4.489,4.489,0,0,1,1.17-.481,10.7,10.7,0,0,1,1.7-.3,2.409,2.409,0,0,0-.071-.474,1.091,1.091,0,0,0-.195-.4.907.907,0,0,0-.357-.273,1.353,1.353,0,0,0-.546-.1,2.417,2.417,0,0,0-.916.182,6.163,6.163,0,0,0-.878.442l-.546-1a6.4,6.4,0,0,1,1.2-.585,4.064,4.064,0,0,1,1.43-.247,2.2,2.2,0,0,1,1.787.709A3.118,3.118,0,0,1,83-3.783V0H81.77l-.1-.7h-.052a4.69,4.69,0,0,1-.917.611A2.31,2.31,0,0,1,79.638.156Zm.481-1.17a1.4,1.4,0,0,0,.709-.182,3.8,3.8,0,0,0,.682-.52v-1.43a6.824,6.824,0,0,0-1.092.208,3.156,3.156,0,0,0-.715.293,1.042,1.042,0,0,0-.39.371.888.888,0,0,0-.117.442.729.729,0,0,0,.26.624A1.075,1.075,0,0,0,80.119-1.014ZM84.8,0V-6.383h1.235l.1,1.131h.052a2.68,2.68,0,0,1,.819-.955A1.721,1.721,0,0,1,88-6.539a1.711,1.711,0,0,1,.728.13l-.26,1.3a2.729,2.729,0,0,0-.312-.078,2,2,0,0,0-.351-.026,1.393,1.393,0,0,0-.793.292A2.26,2.26,0,0,0,86.294-3.9V0Zm4.849,0V-6.383h1.5V0Zm2.9,0V-.806L95.563-5.2H92.885V-6.383h4.55v.793l-3,4.394h3.107V0Zm6.864-2.8L99.2-7.228,99.164-8.71h1.508l-.052,1.482L100.412-2.8ZM99.918.156a.933.933,0,0,1-.7-.286,1,1,0,0,1-.279-.728,1,1,0,0,1,.279-.728.933.933,0,0,1,.7-.286.912.912,0,0,1,.689.286,1.012,1.012,0,0,1,.273.728,1.012,1.012,0,0,1-.273.728A.912.912,0,0,1,99.918.156Z" transform="translate(88 216)"/>
    <g class="cls-23" transform="matrix(1, 0, 0, 1, 0, 0)">
      <g id="Path_1642-2" data-name="Path 1642" class="cls-13" transform="translate(214 201)">
        <path class="cls-19" d="M0,0H180V110H0Z"/>
        <path class="cls-20" d="M 1 1 L 1 109 L 179 109 L 179 1 L 1 1 M 0 0 L 180 0 L 180 110 L 0 110 L 0 0 Z"/>
      </g>
    </g>
    <g id="Mask_Group_109" data-name="Mask Group 109" class="cls-14" transform="translate(228 -72)">
      <g id="more-vertical" transform="translate(154.5 250.5)">
        <circle id="Ellipse_70" data-name="Ellipse 70" class="cls-15" cx="0.833" cy="0.833" r="0.833" transform="translate(9.167 9.167)"/>
        <circle id="Ellipse_71" data-name="Ellipse 71" class="cls-15" cx="0.833" cy="0.833" r="0.833" transform="translate(9.167 3.333)"/>
        <circle id="Ellipse_72" data-name="Ellipse 72" class="cls-15" cx="0.833" cy="0.833" r="0.833" transform="translate(9.167 15)"/>
      </g>
    </g>
    <g id="Mask_Group_125" data-name="Mask Group 125" class="cls-14" transform="translate(226 124)">
      <g id="more-vertical-2" data-name="more-vertical" transform="translate(154.5 250.5)">
        <circle id="Ellipse_80" data-name="Ellipse 80" class="cls-15" cx="0.833" cy="0.833" r="0.833" transform="translate(9.167 9.167)"/>
        <circle id="Ellipse_81" data-name="Ellipse 81" class="cls-15" cx="0.833" cy="0.833" r="0.833" transform="translate(9.167 3.333)"/>
        <circle id="Ellipse_82" data-name="Ellipse 82" class="cls-15" cx="0.833" cy="0.833" r="0.833" transform="translate(9.167 15)"/>
      </g>
    </g>
    <g id="Mask_Group_69" data-name="Mask Group 69" class="cls-16" transform="translate(224.417 211)">
      <path id="user-solid" class="cls-4" d="M6.563,7.5a3.75,3.75,0,1,0-3.75-3.75A3.75,3.75,0,0,0,6.563,7.5Zm2.625.937H8.7a5.1,5.1,0,0,1-4.271,0H3.938A3.939,3.939,0,0,0,0,12.375v1.219A1.407,1.407,0,0,0,1.406,15H11.719a1.407,1.407,0,0,0,1.406-1.406V12.375A3.939,3.939,0,0,0,9.188,8.438Z" transform="translate(0.632 -0.046)"/>
    </g>
    <path id="Path_1643" data-name="Path 1643" class="cls-4" d="M5,0H68a5,5,0,0,1,0,10H5A5,5,0,0,1,5,0Z" transform="translate(249 215)"/>
    <path id="Path_1649" data-name="Path 1649" class="cls-3" d="M2.938,0V-7.618H.364v-.91H6.6v.91H4.03V0ZM9.282.156A1.713,1.713,0,0,1,7.806-.468a3.084,3.084,0,0,1-.462-1.846v-4H8.424v3.861A2.3,2.3,0,0,0,8.7-1.164a1.028,1.028,0,0,0,.9.4,1.524,1.524,0,0,0,.871-.254,4.087,4.087,0,0,0,.832-.812V-6.318h1.066V0h-.884L11.4-.988h-.039a4.214,4.214,0,0,1-.929.832A2.088,2.088,0,0,1,9.282.156ZM8.658-7.631a.622.622,0,0,1-.468-.188.639.639,0,0,1-.182-.462.639.639,0,0,1,.182-.462.622.622,0,0,1,.468-.188.606.606,0,0,1,.455.188.639.639,0,0,1,.182.462.639.639,0,0,1-.182.462A.606.606,0,0,1,8.658-7.631Zm2.5,0a.606.606,0,0,1-.455-.188.639.639,0,0,1-.182-.462.639.639,0,0,1,.182-.462.606.606,0,0,1,.455-.188.622.622,0,0,1,.468.188.639.639,0,0,1,.182.462.639.639,0,0,1-.182.462A.622.622,0,0,1,11.154-7.631ZM14.508,0V-6.318h.884l.091.91h.039a4.366,4.366,0,0,1,.9-.76,1.958,1.958,0,0,1,1.059-.306,1.812,1.812,0,0,1,1.138.318,1.848,1.848,0,0,1,.6.891,5.332,5.332,0,0,1,.994-.878,1.927,1.927,0,0,1,1.086-.332,1.7,1.7,0,0,1,1.449.624A3.02,3.02,0,0,1,23.231-4V0H22.165V-3.861a2.258,2.258,0,0,0-.286-1.294,1.017,1.017,0,0,0-.884-.4,2.344,2.344,0,0,0-1.586.975V0H18.343V-3.861a2.258,2.258,0,0,0-.286-1.294,1.031,1.031,0,0,0-.9-.4,2.344,2.344,0,0,0-1.586.975V0ZM27.989,0V-8.528h2.535a5.62,5.62,0,0,1,1.19.117,2.778,2.778,0,0,1,.923.364,1.739,1.739,0,0,1,.6.643,1.982,1.982,0,0,1,.215.956,2.138,2.138,0,0,1-.319,1.15,1.639,1.639,0,0,1-.93.709v.052a2.24,2.24,0,0,1,1.261.65A1.939,1.939,0,0,1,33.943-2.5,2.412,2.412,0,0,1,33.709-1.4a2.13,2.13,0,0,1-.663.78,3.026,3.026,0,0,1-1.027.468A5.2,5.2,0,0,1,30.706,0Zm1.079-4.9h1.261A2.574,2.574,0,0,0,31.9-5.278a1.235,1.235,0,0,0,.481-1.027,1.143,1.143,0,0,0-.5-1.053,2.884,2.884,0,0,0-1.5-.312H29.068Zm0,4.043H30.55a3.063,3.063,0,0,0,1.716-.409,1.419,1.419,0,0,0,.611-1.267,1.269,1.269,0,0,0-.6-1.164,3.308,3.308,0,0,0-1.729-.37H29.068ZM35.529,0V-6.318H36.6V0Zm.546-7.618a.754.754,0,0,1-.527-.195.639.639,0,0,1-.215-.494.633.633,0,0,1,.215-.5A.769.769,0,0,1,36.075-9a.769.769,0,0,1,.527.188.633.633,0,0,1,.215.5.639.639,0,0,1-.215.494A.754.754,0,0,1,36.075-7.618ZM39.858.156a1,1,0,0,1-.871-.364,1.825,1.825,0,0,1-.26-1.066V-9.256h1.066V-1.2a.558.558,0,0,0,.091.364.271.271,0,0,0,.208.1h.1a.551.551,0,0,0,.137-.026l.143.806a.92.92,0,0,1-.247.078A2.1,2.1,0,0,1,39.858.156Zm4.316,2.756A4.767,4.767,0,0,1,43.108,2.8a2.593,2.593,0,0,1-.826-.331,1.647,1.647,0,0,1-.533-.533,1.38,1.38,0,0,1-.188-.728,1.344,1.344,0,0,1,.247-.767,2.6,2.6,0,0,1,.676-.663V-.273a1.237,1.237,0,0,1-.4-.4,1.146,1.146,0,0,1-.162-.631,1.149,1.149,0,0,1,.221-.7,1.993,1.993,0,0,1,.468-.468v-.052a2.585,2.585,0,0,1-.566-.7A1.966,1.966,0,0,1,41.8-4.225a2.243,2.243,0,0,1,.188-.936A2.115,2.115,0,0,1,42.5-5.87a2.265,2.265,0,0,1,.761-.448,2.7,2.7,0,0,1,.917-.156,2.484,2.484,0,0,1,.487.045,2.93,2.93,0,0,1,.41.111h2.2V-5.5h-1.3a1.822,1.822,0,0,1,.37.559,1.811,1.811,0,0,1,.15.741,2.233,2.233,0,0,1-.182.917,2,2,0,0,1-.494.689,2.262,2.262,0,0,1-.734.435,2.588,2.588,0,0,1-.9.156,2.084,2.084,0,0,1-.481-.058,2.389,2.389,0,0,1-.468-.163,1.524,1.524,0,0,0-.286.318.768.768,0,0,0-.117.436.616.616,0,0,0,.234.494,1.442,1.442,0,0,0,.884.2h1.222a3.088,3.088,0,0,1,1.658.357A1.268,1.268,0,0,1,47.372.728a1.7,1.7,0,0,1-.221.838,2.145,2.145,0,0,1-.637.7,3.341,3.341,0,0,1-1.007.475A4.681,4.681,0,0,1,44.174,2.912Zm0-5.629a1.28,1.28,0,0,0,.513-.1,1.323,1.323,0,0,0,.429-.3,1.35,1.35,0,0,0,.292-.474,1.8,1.8,0,0,0,.1-.631,1.454,1.454,0,0,0-.39-1.085,1.3,1.3,0,0,0-.949-.384,1.3,1.3,0,0,0-.949.384,1.454,1.454,0,0,0-.39,1.085,1.8,1.8,0,0,0,.1.631,1.35,1.35,0,0,0,.292.474,1.323,1.323,0,0,0,.429.3A1.28,1.28,0,0,0,44.174-2.717Zm.156,4.888a2.883,2.883,0,0,0,.826-.111,2.293,2.293,0,0,0,.631-.286,1.34,1.34,0,0,0,.4-.41.911.911,0,0,0,.143-.481.627.627,0,0,0-.325-.611A2.112,2.112,0,0,0,45.058.1H43.966q-.182,0-.4-.02A2.028,2.028,0,0,1,43.147,0a1.726,1.726,0,0,0-.494.52,1.092,1.092,0,0,0-.156.546.91.91,0,0,0,.487.806A2.57,2.57,0,0,0,44.33,2.171ZM48.594,0V-6.318H49.66V0Zm.546-7.618a.754.754,0,0,1-.527-.195.639.639,0,0,1-.215-.494.633.633,0,0,1,.215-.5A.769.769,0,0,1,49.14-9a.769.769,0,0,1,.527.188.633.633,0,0,1,.215.5.639.639,0,0,1-.215.494A.754.754,0,0,1,49.14-7.618ZM52.923.156a1,1,0,0,1-.871-.364,1.825,1.825,0,0,1-.26-1.066V-9.256h1.066V-1.2a.558.558,0,0,0,.091.364.271.271,0,0,0,.208.1h.1a.551.551,0,0,0,.137-.026l.143.806a.92.92,0,0,1-.247.078A2.1,2.1,0,0,1,52.923.156Zm4.745,0a3.093,3.093,0,0,1-1.189-.228,2.819,2.819,0,0,1-.962-.65,3.01,3.01,0,0,1-.643-1.034,3.869,3.869,0,0,1-.234-1.391,3.827,3.827,0,0,1,.241-1.4,3.271,3.271,0,0,1,.637-1.047,2.764,2.764,0,0,1,.9-.656,2.545,2.545,0,0,1,1.053-.227,2.646,2.646,0,0,1,1.073.208,2.091,2.091,0,0,1,.793.6,2.744,2.744,0,0,1,.487.936,4.124,4.124,0,0,1,.169,1.222q0,.169-.006.332a1.6,1.6,0,0,1-.033.279H55.692a2.467,2.467,0,0,0,.631,1.606A1.949,1.949,0,0,0,57.8-.7a2.484,2.484,0,0,0,.839-.136,3.71,3.71,0,0,0,.735-.358l.377.7a5.382,5.382,0,0,1-.923.455A3.206,3.206,0,0,1,57.668.156ZM55.679-3.666h3.38a2.263,2.263,0,0,0-.41-1.462,1.4,1.4,0,0,0-1.151-.5,1.627,1.627,0,0,0-.644.13,1.694,1.694,0,0,0-.552.384,2.1,2.1,0,0,0-.41.618A2.788,2.788,0,0,0,55.679-3.666ZM61.555,0V-6.318h.884l.091,1.144h.039a2.919,2.919,0,0,1,.786-.949,1.629,1.629,0,0,1,1.007-.351,1.679,1.679,0,0,1,.676.13l-.208.936a2.4,2.4,0,0,0-.286-.078,1.7,1.7,0,0,0-.325-.026,1.416,1.416,0,0,0-.839.325,2.586,2.586,0,0,0-.761,1.131V0Zm4.511,0V-6.318h1.066V0Zm.546-7.618a.754.754,0,0,1-.526-.195.639.639,0,0,1-.215-.494.633.633,0,0,1,.215-.5A.769.769,0,0,1,66.612-9a.769.769,0,0,1,.526.188.633.633,0,0,1,.215.5.639.639,0,0,1-.215.494A.754.754,0,0,1,66.612-7.618Z" transform="translate(249 297)"/>
    <g id="Mask_Group_117" data-name="Mask Group 117" class="cls-17" transform="translate(-94 -148)">
      <path id="info-circle-solid" class="cls-3" d="M7.742.242a7.5,7.5,0,1,0,7.5,7.5A7.5,7.5,0,0,0,7.742.242Zm0,3.327a1.27,1.27,0,1,1-1.27,1.27A1.27,1.27,0,0,1,7.742,3.569ZM9.435,11.25a.363.363,0,0,1-.363.363H6.411a.363.363,0,0,1-.363-.363v-.726a.363.363,0,0,1,.363-.363h.363V8.226H6.411a.363.363,0,0,1-.363-.363V7.137a.363.363,0,0,1,.363-.363H8.347a.363.363,0,0,1,.363.363v3.024h.363a.363.363,0,0,1,.363.363Z" transform="translate(317.758 432.758)"/>
    </g>
    <g id="Path_1644" data-name="Path 1644" class="cls-13" transform="translate(202 236)">
      <path class="cls-19" d="M0,0H198V39H0Z"/>
      <path class="cls-20" d="M 1 1 L 1 38 L 197 38 L 197 1 L 1 1 M 0 0 L 198 0 L 198 39 L 0 39 L 0 0 Z"/>
    </g>
    <g id="Mask_Group_123" data-name="Mask Group 123" class="cls-18" transform="translate(83 -66)">
      <path id="gift-solid-4" data-name="gift-solid" class="cls-3" d="M.813,11.375a.812.812,0,0,0,.813.813H5.688V8.125H.813Zm6.5.813h4.063a.812.812,0,0,0,.813-.812V8.125H7.313Zm4.875-8.125H11.119a2.214,2.214,0,0,0,.256-1.016A2.238,2.238,0,0,0,9.141.813c-1.056,0-1.739.541-2.615,1.734C5.649,1.353,4.966.813,3.91.813A2.238,2.238,0,0,0,1.676,3.047a2.183,2.183,0,0,0,.256,1.016H.813A.812.812,0,0,0,0,4.875V6.906a.407.407,0,0,0,.406.406H12.594A.407.407,0,0,0,13,6.906V4.875A.812.812,0,0,0,12.188,4.063Zm-8.28,0a1.016,1.016,0,0,1,0-2.031c.505,0,.879.084,2.186,2.031Zm5.233,0H6.954C8.26,2.12,8.623,2.031,9.141,2.031a1.016,1.016,0,0,1,0,2.031Z" transform="translate(129 314)"/>
    </g>
    <path id="Path_1650" data-name="Path 1650" class="cls-3" d="M1.17,0V-8.528H3.3a3.926,3.926,0,0,1,3,1.092A4.4,4.4,0,0,1,7.332-4.3a5.854,5.854,0,0,1-.26,1.814,3.627,3.627,0,0,1-.767,1.352,3.32,3.32,0,0,1-1.248.845A4.614,4.614,0,0,1,3.354,0ZM2.249-.884h.975a2.752,2.752,0,0,0,2.243-.9A3.831,3.831,0,0,0,6.214-4.3a3.672,3.672,0,0,0-.747-2.483,2.815,2.815,0,0,0-2.243-.858H2.249ZM11.518.156a2.843,2.843,0,0,1-1.111-.221,2.738,2.738,0,0,1-.929-.643,3.133,3.133,0,0,1-.644-1.04,3.827,3.827,0,0,1-.241-1.4,3.865,3.865,0,0,1,.241-1.411A3.209,3.209,0,0,1,9.477-5.6a2.7,2.7,0,0,1,.929-.65,2.843,2.843,0,0,1,1.111-.221,2.843,2.843,0,0,1,1.111.221,2.7,2.7,0,0,1,.93.65A3.209,3.209,0,0,1,14.2-4.556a3.865,3.865,0,0,1,.241,1.411,3.827,3.827,0,0,1-.241,1.4,3.133,3.133,0,0,1-.643,1.04,2.738,2.738,0,0,1-.93.643A2.843,2.843,0,0,1,11.518.156Zm0-.884A1.584,1.584,0,0,0,12.259-.9a1.7,1.7,0,0,0,.578-.494,2.348,2.348,0,0,0,.371-.76,3.5,3.5,0,0,0,.13-.988,3.566,3.566,0,0,0-.13-.995,2.42,2.42,0,0,0-.371-.773,1.676,1.676,0,0,0-.578-.5,1.584,1.584,0,0,0-.741-.175,1.584,1.584,0,0,0-.741.175,1.676,1.676,0,0,0-.579.5,2.42,2.42,0,0,0-.37.773,3.566,3.566,0,0,0-.13.995,3.5,3.5,0,0,0,.13.988,2.348,2.348,0,0,0,.37.76,1.7,1.7,0,0,0,.579.494A1.584,1.584,0,0,0,11.518-.728Zm6.721,3.64A4.767,4.767,0,0,1,17.173,2.8a2.593,2.593,0,0,1-.826-.331,1.647,1.647,0,0,1-.533-.533,1.38,1.38,0,0,1-.189-.728,1.344,1.344,0,0,1,.247-.767,2.6,2.6,0,0,1,.676-.663V-.273a1.237,1.237,0,0,1-.4-.4A1.146,1.146,0,0,1,15.99-1.3a1.149,1.149,0,0,1,.221-.7,1.993,1.993,0,0,1,.468-.468v-.052a2.585,2.585,0,0,1-.566-.7,1.966,1.966,0,0,1-.253-1.007,2.243,2.243,0,0,1,.188-.936,2.115,2.115,0,0,1,.514-.708,2.265,2.265,0,0,1,.76-.448,2.7,2.7,0,0,1,.917-.156,2.484,2.484,0,0,1,.487.045,2.93,2.93,0,0,1,.41.111h2.2V-5.5h-1.3a1.822,1.822,0,0,1,.37.559,1.811,1.811,0,0,1,.15.741,2.233,2.233,0,0,1-.182.917,2,2,0,0,1-.494.689,2.262,2.262,0,0,1-.735.435,2.588,2.588,0,0,1-.9.156,2.084,2.084,0,0,1-.481-.058,2.389,2.389,0,0,1-.468-.163A1.524,1.524,0,0,0,17-1.9a.768.768,0,0,0-.117.436.616.616,0,0,0,.234.494,1.442,1.442,0,0,0,.884.2h1.222a3.088,3.088,0,0,1,1.657.357A1.268,1.268,0,0,1,21.437.728a1.7,1.7,0,0,1-.221.838,2.145,2.145,0,0,1-.637.7,3.341,3.341,0,0,1-1.007.475A4.681,4.681,0,0,1,18.239,2.912Zm0-5.629a1.28,1.28,0,0,0,.514-.1,1.323,1.323,0,0,0,.429-.3,1.35,1.35,0,0,0,.293-.474,1.8,1.8,0,0,0,.1-.631,1.454,1.454,0,0,0-.39-1.085,1.3,1.3,0,0,0-.949-.384,1.3,1.3,0,0,0-.949.384,1.454,1.454,0,0,0-.39,1.085,1.8,1.8,0,0,0,.1.631,1.35,1.35,0,0,0,.293.474,1.323,1.323,0,0,0,.429.3A1.28,1.28,0,0,0,18.239-2.717ZM18.4,2.171a2.883,2.883,0,0,0,.826-.111,2.293,2.293,0,0,0,.63-.286,1.34,1.34,0,0,0,.4-.41A.911.911,0,0,0,20.4.884a.627.627,0,0,0-.325-.611A2.112,2.112,0,0,0,19.123.1H18.031q-.182,0-.4-.02A2.028,2.028,0,0,1,17.212,0a1.726,1.726,0,0,0-.494.52,1.092,1.092,0,0,0-.156.546.91.91,0,0,0,.487.806A2.57,2.57,0,0,0,18.4,2.171Zm.117-9.594a2.18,2.18,0,0,1-.9-.169A1.737,1.737,0,0,1,17-8.04a1.95,1.95,0,0,1-.364-.63,2.732,2.732,0,0,1-.149-.715l.663-.1A2.213,2.213,0,0,0,17.284-9a1.549,1.549,0,0,0,.267.436,1.271,1.271,0,0,0,.409.312,1.248,1.248,0,0,0,.553.117,1.248,1.248,0,0,0,.552-.117,1.271,1.271,0,0,0,.41-.312A1.549,1.549,0,0,0,19.741-9a2.213,2.213,0,0,0,.136-.488l.663.1a2.732,2.732,0,0,1-.149.715,1.892,1.892,0,0,1-.371.63,1.817,1.817,0,0,1-.618.448A2.134,2.134,0,0,1,18.512-7.423ZM24.505.156A1.713,1.713,0,0,1,23.03-.468a3.084,3.084,0,0,1-.462-1.846v-4h1.079v3.861a2.3,2.3,0,0,0,.279,1.293,1.028,1.028,0,0,0,.9.4,1.524,1.524,0,0,0,.871-.254,4.087,4.087,0,0,0,.832-.812V-6.318H27.6V0h-.884l-.091-.988h-.039a4.214,4.214,0,0,1-.93.832A2.088,2.088,0,0,1,24.505.156ZM29.731,0V-6.318h.884l.091.91h.039a4.366,4.366,0,0,1,.9-.76,1.958,1.958,0,0,1,1.059-.306,1.812,1.812,0,0,1,1.138.318,1.848,1.848,0,0,1,.6.891,5.332,5.332,0,0,1,.994-.878,1.927,1.927,0,0,1,1.086-.332,1.7,1.7,0,0,1,1.449.624A3.02,3.02,0,0,1,38.454-4V0H37.388V-3.861A2.258,2.258,0,0,0,37.1-5.155a1.017,1.017,0,0,0-.884-.4,2.344,2.344,0,0,0-1.586.975V0H33.566V-3.861a2.258,2.258,0,0,0-.286-1.294,1.031,1.031,0,0,0-.9-.4,2.344,2.344,0,0,0-1.586.975V0ZM46.566.156a3.955,3.955,0,0,1-1.553-.3A3.373,3.373,0,0,1,43.8-1.008,4.031,4.031,0,0,1,43-2.4a5.678,5.678,0,0,1-.286-1.865A5.464,5.464,0,0,1,43.01-6.11,4.078,4.078,0,0,1,43.823-7.5a3.5,3.5,0,0,1,1.242-.877,3.976,3.976,0,0,1,1.567-.306,3.4,3.4,0,0,1,.813.091,3.354,3.354,0,0,1,.676.241,3.067,3.067,0,0,1,.546.338,3.69,3.69,0,0,1,.423.384l-.6.7a3.091,3.091,0,0,0-.754-.572,2.234,2.234,0,0,0-1.079-.234,2.755,2.755,0,0,0-1.17.241,2.449,2.449,0,0,0-.884.689,3.264,3.264,0,0,0-.566,1.086,4.731,4.731,0,0,0-.2,1.43,5.154,5.154,0,0,0,.188,1.449,3.223,3.223,0,0,0,.546,1.1,2.411,2.411,0,0,0,.884.7,2.832,2.832,0,0,0,1.215.247,2.716,2.716,0,0,0,.865-.137A1.871,1.871,0,0,0,48.2-1.3V-3.523H46.4v-.9h2.8V-.832A3.2,3.2,0,0,1,48.1-.123,3.984,3.984,0,0,1,46.566.156Zm6.409,0A1.713,1.713,0,0,1,51.5-.468a3.084,3.084,0,0,1-.462-1.846v-4h1.079v3.861A2.3,2.3,0,0,0,52.4-1.164a1.028,1.028,0,0,0,.9.4,1.524,1.524,0,0,0,.871-.254A4.087,4.087,0,0,0,55-1.833V-6.318h1.066V0h-.884l-.091-.988h-.039a4.214,4.214,0,0,1-.93.832A2.088,2.088,0,0,1,52.975.156Zm-.624-7.787a.622.622,0,0,1-.468-.188.639.639,0,0,1-.182-.462.639.639,0,0,1,.182-.462.622.622,0,0,1,.468-.188.606.606,0,0,1,.455.188.639.639,0,0,1,.182.462.639.639,0,0,1-.182.462A.606.606,0,0,1,52.351-7.631Zm2.5,0a.606.606,0,0,1-.455-.188.639.639,0,0,1-.182-.462.639.639,0,0,1,.182-.462.606.606,0,0,1,.455-.188.622.622,0,0,1,.468.188.639.639,0,0,1,.182.462.639.639,0,0,1-.182.462A.622.622,0,0,1,54.847-7.631ZM58.2,0V-6.318h.884l.091.91h.039a5.147,5.147,0,0,1,.956-.76,2.188,2.188,0,0,1,1.164-.306A1.7,1.7,0,0,1,62.8-5.85,3.084,3.084,0,0,1,63.258-4V0H62.192V-3.861a2.258,2.258,0,0,0-.286-1.294,1.046,1.046,0,0,0-.91-.4,1.553,1.553,0,0,0-.871.247,5.65,5.65,0,0,0-.858.728V0Zm8.957.156a1.713,1.713,0,0,1-1.476-.624,3.084,3.084,0,0,1-.462-1.846v-4H66.3v3.861a2.3,2.3,0,0,0,.279,1.293,1.028,1.028,0,0,0,.9.4,1.524,1.524,0,0,0,.871-.254,4.087,4.087,0,0,0,.832-.812V-6.318h1.066V0h-.884l-.091-.988h-.039a4.214,4.214,0,0,1-.929.832A2.088,2.088,0,0,1,67.158.156Zm-.624-7.787a.622.622,0,0,1-.468-.188.639.639,0,0,1-.182-.462.639.639,0,0,1,.182-.462.622.622,0,0,1,.468-.188.606.606,0,0,1,.455.188.639.639,0,0,1,.182.462.639.639,0,0,1-.182.462A.606.606,0,0,1,66.534-7.631Zm2.5,0a.606.606,0,0,1-.455-.188.639.639,0,0,1-.182-.462.639.639,0,0,1,.182-.462.606.606,0,0,1,.455-.188.622.622,0,0,1,.468.188.639.639,0,0,1,.182.462.639.639,0,0,1-.182.462A.622.622,0,0,1,69.03-7.631ZM75.088,0V-8.528h1.3l1.638,4.55q.156.442.305.891t.306.89h.052q.156-.442.292-.89t.293-.891l1.612-4.55H82.2V0H81.185V-4.693q0-.572.052-1.261t.091-1.261h-.052L80.6-5.278,78.988-.858h-.715l-1.612-4.42-.676-1.937h-.052q.039.572.085,1.261t.045,1.261V0ZM87,.156a3.093,3.093,0,0,1-1.189-.228,2.819,2.819,0,0,1-.962-.65A3.01,3.01,0,0,1,84.2-1.755a3.869,3.869,0,0,1-.234-1.391,3.827,3.827,0,0,1,.241-1.4,3.27,3.27,0,0,1,.637-1.047,2.764,2.764,0,0,1,.9-.656A2.545,2.545,0,0,1,86.8-6.474a2.646,2.646,0,0,1,1.073.208,2.091,2.091,0,0,1,.793.6,2.744,2.744,0,0,1,.488.936,4.124,4.124,0,0,1,.169,1.222q0,.169-.007.332a1.6,1.6,0,0,1-.033.279H85.02a2.467,2.467,0,0,0,.631,1.606A1.949,1.949,0,0,0,87.126-.7a2.484,2.484,0,0,0,.838-.136A3.71,3.71,0,0,0,88.7-1.2l.377.7a5.382,5.382,0,0,1-.923.455A3.206,3.206,0,0,1,87,.156ZM85.007-3.666h3.38a2.263,2.263,0,0,0-.41-1.462,1.4,1.4,0,0,0-1.15-.5,1.627,1.627,0,0,0-.644.13,1.694,1.694,0,0,0-.552.384,2.1,2.1,0,0,0-.41.618A2.788,2.788,0,0,0,85.007-3.666ZM92.534.156a3.4,3.4,0,0,1-1.287-.247,4.015,4.015,0,0,1-1.066-.624l.533-.715a4.277,4.277,0,0,0,.851.546,2.312,2.312,0,0,0,1.007.208,1.344,1.344,0,0,0,.936-.286.915.915,0,0,0,.312-.7.719.719,0,0,0-.13-.429,1.293,1.293,0,0,0-.331-.319,2.428,2.428,0,0,0-.462-.24l-.52-.208q-.338-.117-.676-.267a2.7,2.7,0,0,1-.6-.364,1.841,1.841,0,0,1-.436-.5,1.331,1.331,0,0,1-.169-.689,1.7,1.7,0,0,1,.149-.708,1.631,1.631,0,0,1,.429-.572,2.032,2.032,0,0,1,.682-.377,2.828,2.828,0,0,1,.91-.136,2.835,2.835,0,0,1,1.1.208,3.418,3.418,0,0,1,.864.507l-.507.676a3.4,3.4,0,0,0-.676-.4,1.867,1.867,0,0,0-.767-.156,1.217,1.217,0,0,0-.878.273.863.863,0,0,0-.279.637.639.639,0,0,0,.117.383,1.108,1.108,0,0,0,.312.286,2.543,2.543,0,0,0,.448.221l.527.2q.338.13.682.273a2.617,2.617,0,0,1,.618.358,1.757,1.757,0,0,1,.449.526,1.516,1.516,0,0,1,.175.754A1.779,1.779,0,0,1,94.7-1a1.733,1.733,0,0,1-.442.6,2.113,2.113,0,0,1-.728.409A3.056,3.056,0,0,1,92.534.156Zm5.252,0a1.913,1.913,0,0,1-1.32-.468,1.681,1.681,0,0,1-.526-1.326,1.754,1.754,0,0,1,.923-1.592A7.622,7.622,0,0,1,99.814-4a2.912,2.912,0,0,0-.059-.585,1.463,1.463,0,0,0-.2-.507,1.059,1.059,0,0,0-.4-.358,1.349,1.349,0,0,0-.644-.137,2.56,2.56,0,0,0-1.027.208,5.01,5.01,0,0,0-.858.468l-.416-.741a6.9,6.9,0,0,1,1.079-.552,3.6,3.6,0,0,1,1.4-.266,1.941,1.941,0,0,1,1.677.708,3.127,3.127,0,0,1,.52,1.891V0h-.884l-.091-.754h-.039a5.346,5.346,0,0,1-.975.643A2.416,2.416,0,0,1,97.786.156ZM98.1-.7a1.8,1.8,0,0,0,.858-.215,4.3,4.3,0,0,0,.858-.631V-3.3a10.785,10.785,0,0,0-1.333.247,3.512,3.512,0,0,0-.871.338,1.31,1.31,0,0,0-.481.448,1.068,1.068,0,0,0-.149.553.9.9,0,0,0,.325.78A1.321,1.321,0,0,0,98.1-.7Zm4.134,3.523a2.469,2.469,0,0,1-.533-.052,2.866,2.866,0,0,1-.4-.117l.221-.806a2.455,2.455,0,0,0,.273.071,1.59,1.59,0,0,0,.325.033.623.623,0,0,0,.624-.325,2.148,2.148,0,0,0,.156-.91V-6.318h1.066V.715a2.681,2.681,0,0,1-.39,1.534A1.5,1.5,0,0,1,102.232,2.821Zm1.209-10.439a.754.754,0,0,1-.526-.195.639.639,0,0,1-.215-.494.633.633,0,0,1,.215-.5A.769.769,0,0,1,103.441-9a.752.752,0,0,1,.513.188.633.633,0,0,1,.215.5.639.639,0,0,1-.215.494A.737.737,0,0,1,103.441-7.618ZM106.093,0V-6.318h1.066V0Zm9.256.156a3.955,3.955,0,0,1-1.554-.3,3.373,3.373,0,0,1-1.215-.865,4.031,4.031,0,0,1-.793-1.391,5.678,5.678,0,0,1-.286-1.865,5.464,5.464,0,0,1,.292-1.846,4.078,4.078,0,0,1,.813-1.391,3.5,3.5,0,0,1,1.242-.877,3.976,3.976,0,0,1,1.566-.306,3.4,3.4,0,0,1,.813.091,3.354,3.354,0,0,1,.676.241,3.066,3.066,0,0,1,.546.338,3.69,3.69,0,0,1,.423.384l-.6.7a3.091,3.091,0,0,0-.754-.572,2.234,2.234,0,0,0-1.079-.234,2.755,2.755,0,0,0-1.17.241,2.449,2.449,0,0,0-.884.689,3.264,3.264,0,0,0-.565,1.086,4.731,4.731,0,0,0-.2,1.43,5.154,5.154,0,0,0,.188,1.449,3.223,3.223,0,0,0,.546,1.1,2.411,2.411,0,0,0,.884.7,2.832,2.832,0,0,0,1.215.247,2.716,2.716,0,0,0,.865-.137,1.871,1.871,0,0,0,.67-.371V-3.523H115.18v-.9h2.795V-.832a3.2,3.2,0,0,1-1.092.709A3.984,3.984,0,0,1,115.349.156Zm7.02,0a2.843,2.843,0,0,1-1.112-.221,2.738,2.738,0,0,1-.929-.643,3.133,3.133,0,0,1-.644-1.04,3.827,3.827,0,0,1-.241-1.4,3.865,3.865,0,0,1,.241-1.411,3.209,3.209,0,0,1,.644-1.046,2.7,2.7,0,0,1,.929-.65,2.843,2.843,0,0,1,1.112-.221,2.843,2.843,0,0,1,1.111.221,2.7,2.7,0,0,1,.93.65,3.209,3.209,0,0,1,.643,1.046,3.865,3.865,0,0,1,.241,1.411,3.827,3.827,0,0,1-.241,1.4,3.133,3.133,0,0,1-.643,1.04,2.738,2.738,0,0,1-.93.643A2.843,2.843,0,0,1,122.369.156Zm0-.884A1.584,1.584,0,0,0,123.11-.9a1.7,1.7,0,0,0,.578-.494,2.348,2.348,0,0,0,.37-.76,3.5,3.5,0,0,0,.13-.988,3.565,3.565,0,0,0-.13-.995,2.42,2.42,0,0,0-.37-.773,1.676,1.676,0,0,0-.578-.5,1.584,1.584,0,0,0-.741-.175,1.584,1.584,0,0,0-.741.175,1.676,1.676,0,0,0-.578.5,2.42,2.42,0,0,0-.37.773,3.566,3.566,0,0,0-.13.995,3.5,3.5,0,0,0,.13.988,2.348,2.348,0,0,0,.37.76,1.7,1.7,0,0,0,.578.494A1.584,1.584,0,0,0,122.369-.728Zm-1.248-6.9a.622.622,0,0,1-.468-.188.639.639,0,0,1-.182-.462.639.639,0,0,1,.182-.462.622.622,0,0,1,.468-.188.606.606,0,0,1,.455.188.639.639,0,0,1,.182.462.639.639,0,0,1-.182.462A.606.606,0,0,1,121.121-7.631Zm2.5,0a.606.606,0,0,1-.455-.188.639.639,0,0,1-.182-.462.639.639,0,0,1,.182-.462.606.606,0,0,1,.455-.188.622.622,0,0,1,.468.188.639.639,0,0,1,.182.462.639.639,0,0,1-.182.462A.622.622,0,0,1,123.617-7.631ZM126.958,0V-6.318h.884l.091.91h.039a5.147,5.147,0,0,1,.956-.76,2.188,2.188,0,0,1,1.163-.306,1.7,1.7,0,0,1,1.462.624A3.084,3.084,0,0,1,132.015-4V0h-1.066V-3.861a2.258,2.258,0,0,0-.286-1.294,1.046,1.046,0,0,0-.91-.4,1.553,1.553,0,0,0-.871.247,5.651,5.651,0,0,0-.858.728V0Zm9.269.156a2.342,2.342,0,0,1-1.9-.858,3.743,3.743,0,0,1-.709-2.444,3.982,3.982,0,0,1,.228-1.385,3.288,3.288,0,0,1,.6-1.046,2.679,2.679,0,0,1,.871-.663,2.4,2.4,0,0,1,1.04-.234,2.157,2.157,0,0,1,.949.195,4.239,4.239,0,0,1,.819.533l-.052-1.079V-9.256h1.079V0h-.884l-.091-.741h-.039a4,4,0,0,1-.865.63A2.148,2.148,0,0,1,136.227.156Zm.234-.9a1.7,1.7,0,0,0,.832-.215,2.992,2.992,0,0,0,.78-.656v-3.3a2.685,2.685,0,0,0-.773-.513,2.015,2.015,0,0,0-.76-.149,1.492,1.492,0,0,0-.708.175,1.788,1.788,0,0,0-.579.494,2.469,2.469,0,0,0-.39.76,3.2,3.2,0,0,0-.143.988,3.024,3.024,0,0,0,.455,1.781A1.489,1.489,0,0,0,136.461-.741Zm7.384.9a3.093,3.093,0,0,1-1.189-.228,2.819,2.819,0,0,1-.962-.65,3.01,3.01,0,0,1-.643-1.034,3.869,3.869,0,0,1-.234-1.391,3.827,3.827,0,0,1,.24-1.4,3.27,3.27,0,0,1,.637-1.047,2.764,2.764,0,0,1,.9-.656,2.545,2.545,0,0,1,1.053-.227,2.646,2.646,0,0,1,1.072.208,2.091,2.091,0,0,1,.793.6,2.744,2.744,0,0,1,.488.936,4.124,4.124,0,0,1,.169,1.222q0,.169-.007.332a1.6,1.6,0,0,1-.033.279h-4.264a2.467,2.467,0,0,0,.63,1.606,1.949,1.949,0,0,0,1.476.591,2.484,2.484,0,0,0,.839-.136,3.71,3.71,0,0,0,.734-.358l.377.7A5.382,5.382,0,0,1,145-.039,3.206,3.206,0,0,1,143.845.156Zm-1.989-3.822h3.38a2.263,2.263,0,0,0-.41-1.462,1.4,1.4,0,0,0-1.151-.5,1.627,1.627,0,0,0-.643.13,1.694,1.694,0,0,0-.553.384,2.1,2.1,0,0,0-.41.618A2.788,2.788,0,0,0,141.856-3.666ZM147.732,0V-6.318h.884l.091,1.144h.039a2.919,2.919,0,0,1,.786-.949,1.629,1.629,0,0,1,1.007-.351,1.679,1.679,0,0,1,.676.13l-.208.936a2.4,2.4,0,0,0-.286-.078,1.7,1.7,0,0,0-.325-.026,1.416,1.416,0,0,0-.839.325,2.586,2.586,0,0,0-.76,1.131V0Z" transform="translate(235 260)"/>
    <g id="Rectangle_1066" data-name="Rectangle 1066" class="cls-6">
      <rect class="cls-19" width="420" height="426"/>
      <rect class="cls-21" x="0.5" y="0.5" width="419" height="425"/>
    </g>
  </g>
</svg>
