<svg xmlns="http://www.w3.org/2000/svg" viewBox="0 0 65.5 65.5"><defs><style>.cls-1{fill:#2b5185;}.cls-2{fill:#a3d4ff;}.cls-3{fill:#fff;}</style></defs><title>features_Asset 1</title><g id="Layer_2" data-name="Layer 2"><g id="Layer_2-2" data-name="Layer 2"><path class="cls-1" d="M64.75,65.5H.75A.76.76,0,0,1,0,64.75V.75A.76.76,0,0,1,.75,0,.76.76,0,0,1,1.5.75V64H64.75a.75.75,0,0,1,0,1.5Z"/><rect class="cls-2" x="48.75" y="30.75" width="10" height="34"/><path class="cls-3" d="M48.75,30.75h6a0,0,0,0,1,0,0v29a1,1,0,0,1-1,1h-5a0,0,0,0,1,0,0v-30A0,0,0,0,1,48.75,30.75Z"/><path class="cls-1" d="M58.75,65.5h-10a.75.75,0,0,1-.75-.75v-34a.75.75,0,0,1,.75-.75h10a.76.76,0,0,1,.75.75v34A.76.76,0,0,1,58.75,65.5ZM49.5,64H58V31.5H49.5Z"/><rect class="cls-2" x="38.75" y="39.75" width="10" height="25"/><path class="cls-3" d="M38.75,39.75h6a0,0,0,0,1,0,0v20a1,1,0,0,1-1,1h-5a0,0,0,0,1,0,0v-21a0,0,0,0,1,0,0Z"/><path class="cls-1" d="M48.75,65.5h-10a.75.75,0,0,1-.75-.75v-25a.75.75,0,0,1,.75-.75h10a.76.76,0,0,1,.75.75v25A.76.76,0,0,1,48.75,65.5ZM39.5,64H48V40.5H39.5Z"/><rect class="cls-2" x="28.75" y="44.75" width="10" height="20"/><path class="cls-3" d="M28.75,44.75h6a0,0,0,0,1,0,0v15a1,1,0,0,1-1,1h-5a0,0,0,0,1,0,0v-16A0,0,0,0,1,28.75,44.75Z"/><path class="cls-1" d="M38.75,65.5h-10a.75.75,0,0,1-.75-.75v-20a.75.75,0,0,1,.75-.75h10a.76.76,0,0,1,.75.75v20A.76.76,0,0,1,38.75,65.5ZM29.5,64H38V45.5H29.5Z"/><rect class="cls-2" x="18.75" y="37.75" width="10" height="27"/><path class="cls-3" d="M18.75,37.75h6a0,0,0,0,1,0,0v22a1,1,0,0,1-1,1h-5a0,0,0,0,1,0,0v-23A0,0,0,0,1,18.75,37.75Z"/><path class="cls-1" d="M28.75,65.5h-10a.75.75,0,0,1-.75-.75v-27a.75.75,0,0,1,.75-.75h10a.76.76,0,0,1,.75.75v27A.76.76,0,0,1,28.75,65.5ZM19.5,64H28V38.5H19.5Z"/><rect class="cls-2" x="8.75" y="47.75" width="10" height="17"/><path class="cls-3" d="M8.75,47.75h6a0,0,0,0,1,0,0v12a1,1,0,0,1-1,1h-5a0,0,0,0,1,0,0v-13A0,0,0,0,1,8.75,47.75Z"/><path class="cls-1" d="M18.75,65.5h-10A.75.75,0,0,1,8,64.75v-17A.75.75,0,0,1,8.75,47h10a.76.76,0,0,1,.75.75v17A.76.76,0,0,1,18.75,65.5ZM9.5,64H18V48.5H9.5Z"/><polygon class="cls-2" points="64.75 0.75 46.75 0.75 52.92 6.92 35.84 24 24.87 13.02 0.75 37.15 0.75 48.46 24.87 24.34 35.84 35.31 58.58 12.58 64.75 18.75 64.75 0.75"/><path class="cls-3" d="M64.75.75h-18l6.17,6.17L35.84,24l-11-11L.75,37.15v6.31L24.16,20a1,1,0,0,1,1.42,0l9.56,9.56a1,1,0,0,0,1.41,0L57.87,8.29a1,1,0,0,1,1.42,0l5.46,5.46Z"/><path class="cls-1" d="M.75,49.21a.75.75,0,0,1-.29-.06A.74.74,0,0,1,0,48.46V37.15a.75.75,0,0,1,.22-.53L24.34,12.49a.75.75,0,0,1,.53-.22h0a.75.75,0,0,1,.53.22L35.84,22.94l16-16L46.22,1.28a.75.75,0,0,1-.16-.82A.74.74,0,0,1,46.75,0h18a.76.76,0,0,1,.75.75v18a.75.75,0,0,1-1.28.53l-5.64-5.64L36.37,35.84a.77.77,0,0,1-1.06,0L24.87,25.4,1.28,49A.77.77,0,0,1,.75,49.21ZM1.5,37.46v9.19L24.34,23.81a.77.77,0,0,1,1.06,0L35.84,34.25l22.21-22.2a.77.77,0,0,1,1.06,0L64,16.94V1.5H48.56l4.89,4.89a.75.75,0,0,1,0,1.06L36.37,24.53a.75.75,0,0,1-.53.22h0a.77.77,0,0,1-.53-.22L24.87,14.08Z"/><path class="cls-1" d="M17.75,3.5h-4a.75.75,0,0,1,0-1.5h4a.75.75,0,0,1,0,1.5Z"/><path class="cls-1" d="M15.75,5.5A.76.76,0,0,1,15,4.75v-4a.75.75,0,0,1,1.5,0v4A.76.76,0,0,1,15.75,5.5Z"/><path class="cls-1" d="M36.75,11.5h-4a.75.75,0,0,1,0-1.5h4a.75.75,0,0,1,0,1.5Z"/><path class="cls-1" d="M34.75,13.5a.75.75,0,0,1-.75-.75v-4a.75.75,0,0,1,1.5,0v4A.74.74,0,0,1,34.75,13.5Z"/><path class="cls-1" d="M61.76,24.5h-4a.75.75,0,1,1,0-1.5h4a.75.75,0,0,1,0,1.5Z"/><path class="cls-1" d="M59.76,26.5a.74.74,0,0,1-.75-.75v-4a.75.75,0,1,1,1.5,0v4A.75.75,0,0,1,59.76,26.5Z"/><path class="cls-1" d="M9.75,19.5h-4a.75.75,0,0,1,0-1.5h4a.75.75,0,0,1,0,1.5Z"/><path class="cls-1" d="M7.75,21.5A.75.75,0,0,1,7,20.75v-4a.75.75,0,0,1,1.5,0v4A.75.75,0,0,1,7.75,21.5Z"/></g></g></svg>