<svg xmlns="http://www.w3.org/2000/svg" xmlns:xlink="http://www.w3.org/1999/xlink" width="514" height="478" viewBox="0 0 514 478">
  <defs>
    <style>
      .cls-1 {
        fill: #cd201f;
      }

      .cls-12, .cls-2, .cls-6 {
        fill: #aab0b6;
      }

      .cls-3 {
        fill: #467fcf;
      }

      .cls-4 {
        clip-path: url(#clip-Aidat);
      }

      .cls-11, .cls-15, .cls-17, .cls-5 {
        fill: #343a40;
      }

      .cls-5 {
        font-size: 25px;
      }

      .cls-10, .cls-11, .cls-12, .cls-14, .cls-15, .cls-5, .cls-6 {
        font-family: SourceSansPro-SemiBold, Source Sans Pro;
        font-weight: 600;
      }

      .cls-6 {
        font-size: 18px;
      }

      .cls-21, .cls-32, .cls-7 {
        fill: none;
      }

      .cls-18, .cls-7 {
        stroke: rgba(0,40,100,0.12);
      }

      .cls-8 {
        fill: #dbdde0;
      }

      .cls-9 {
        fill: #cfd4da;
      }

      .cls-10 {
        fill: #888e95;
        font-size: 14px;
      }

      .cls-11 {
        font-size: 16px;
      }

      .cls-12, .cls-15 {
        font-size: 13px;
      }

      .cls-13 {
        fill: #a41a19;
      }

      .cls-14, .cls-18, .cls-33 {
        fill: #fff;
      }

      .cls-14 {
        font-size: 11px;
      }

      .cls-16 {
        fill: #a31a19;
      }

      .cls-19 {
        clip-path: url(#clip-path);
      }

      .cls-20 {
        clip-path: url(#clip-path-2);
      }

      .cls-21 {
        stroke: #aab0b6;
        stroke-linecap: round;
        stroke-linejoin: round;
        stroke-width: 1.667px;
      }

      .cls-22 {
        clip-path: url(#clip-path-3);
      }

      .cls-23 {
        clip-path: url(#clip-path-4);
      }

      .cls-24 {
        clip-path: url(#clip-path-5);
      }

      .cls-25 {
        clip-path: url(#clip-path-6);
      }

      .cls-26 {
        clip-path: url(#clip-path-7);
      }

      .cls-27 {
        clip-path: url(#clip-path-8);
      }

      .cls-28 {
        clip-path: url(#clip-path-9);
      }

      .cls-29 {
        clip-path: url(#clip-path-10);
      }

      .cls-30 {
        clip-path: url(#clip-path-11);
      }

      .cls-31 {
        stroke: none;
      }

      .cls-34 {
        filter: url(#Line_105);
      }

      .cls-35 {
        filter: url(#Line_104);
      }

      .cls-36 {
        filter: url(#Line_103);
      }

      .cls-37 {
        filter: url(#Line_102);
      }

      .cls-38 {
        filter: url(#Line_101);
      }

      .cls-39 {
        filter: url(#Line_100);
      }

      .cls-40 {
        filter: url(#Line_99);
      }

      .cls-41 {
        filter: url(#Line_98);
      }

      .cls-42 {
        filter: url(#Line_54);
      }
    </style>
    <filter id="Line_54" x="-1.5" y="99" width="517" height="4" filterUnits="userSpaceOnUse">
      <feOffset dy="1" input="SourceAlpha"/>
      <feGaussianBlur stdDeviation="0.5" result="blur"/>
      <feFlood flood-opacity="0.122"/>
      <feComposite operator="in" in2="blur"/>
      <feComposite in="SourceGraphic"/>
    </filter>
    <clipPath id="clip-path">
      <rect id="Rectangle_603" data-name="Rectangle 603" class="cls-1" width="60" height="50" transform="translate(162 255)"/>
    </clipPath>
    <filter id="Line_98" x="306.5" y="177" width="183" height="4" filterUnits="userSpaceOnUse">
      <feOffset dy="1" input="SourceAlpha"/>
      <feGaussianBlur stdDeviation="0.5" result="blur-2"/>
      <feFlood flood-opacity="0.122"/>
      <feComposite operator="in" in2="blur-2"/>
      <feComposite in="SourceGraphic"/>
    </filter>
    <clipPath id="clip-path-2">
      <rect id="Rectangle_604" data-name="Rectangle 604" class="cls-2" width="15" height="15" transform="translate(157 253)"/>
    </clipPath>
    <clipPath id="clip-path-3">
      <rect id="Rectangle_120" data-name="Rectangle 120" class="cls-3" width="15" height="15" transform="translate(-0.417)"/>
    </clipPath>
    <filter id="Line_99" x="306.5" y="212" width="183" height="4" filterUnits="userSpaceOnUse">
      <feOffset dy="1" input="SourceAlpha"/>
      <feGaussianBlur stdDeviation="0.5" result="blur-3"/>
      <feFlood flood-opacity="0.122"/>
      <feComposite operator="in" in2="blur-3"/>
      <feComposite in="SourceGraphic"/>
    </filter>
    <filter id="Line_100" x="306.5" y="247" width="183" height="4" filterUnits="userSpaceOnUse">
      <feOffset dy="1" input="SourceAlpha"/>
      <feGaussianBlur stdDeviation="0.5" result="blur-4"/>
      <feFlood flood-opacity="0.122"/>
      <feComposite operator="in" in2="blur-4"/>
      <feComposite in="SourceGraphic"/>
    </filter>
    <filter id="Line_101" x="306.5" y="282" width="183" height="4" filterUnits="userSpaceOnUse">
      <feOffset dy="1" input="SourceAlpha"/>
      <feGaussianBlur stdDeviation="0.5" result="blur-5"/>
      <feFlood flood-opacity="0.122"/>
      <feComposite operator="in" in2="blur-5"/>
      <feComposite in="SourceGraphic"/>
    </filter>
    <filter id="Line_102" x="306.5" y="317" width="183" height="4" filterUnits="userSpaceOnUse">
      <feOffset dy="1" input="SourceAlpha"/>
      <feGaussianBlur stdDeviation="0.5" result="blur-6"/>
      <feFlood flood-opacity="0.122"/>
      <feComposite operator="in" in2="blur-6"/>
      <feComposite in="SourceGraphic"/>
    </filter>
    <filter id="Line_103" x="306.5" y="352" width="183" height="4" filterUnits="userSpaceOnUse">
      <feOffset dy="1" input="SourceAlpha"/>
      <feGaussianBlur stdDeviation="0.5" result="blur-7"/>
      <feFlood flood-opacity="0.122"/>
      <feComposite operator="in" in2="blur-7"/>
      <feComposite in="SourceGraphic"/>
    </filter>
    <filter id="Line_104" x="306.5" y="387" width="183" height="4" filterUnits="userSpaceOnUse">
      <feOffset dy="1" input="SourceAlpha"/>
      <feGaussianBlur stdDeviation="0.5" result="blur-8"/>
      <feFlood flood-opacity="0.122"/>
      <feComposite operator="in" in2="blur-8"/>
      <feComposite in="SourceGraphic"/>
    </filter>
    <filter id="Line_105" x="306.5" y="422" width="183" height="4" filterUnits="userSpaceOnUse">
      <feOffset dy="1" input="SourceAlpha"/>
      <feGaussianBlur stdDeviation="0.5" result="blur-9"/>
      <feFlood flood-opacity="0.122"/>
      <feComposite operator="in" in2="blur-9"/>
      <feComposite in="SourceGraphic"/>
    </filter>
    <clipPath id="clip-path-4">
      <rect id="Rectangle_625" data-name="Rectangle 625" class="cls-2" width="15" height="15" transform="translate(322 224)"/>
    </clipPath>
    <clipPath id="clip-path-5">
      <rect id="Rectangle_626" data-name="Rectangle 626" class="cls-2" width="15" height="15" transform="translate(318 258)"/>
    </clipPath>
    <clipPath id="clip-path-6">
      <rect id="Rectangle_626-2" data-name="Rectangle 626" class="cls-2" width="15" height="15" transform="translate(318 293)"/>
    </clipPath>
    <clipPath id="clip-path-7">
      <rect id="Rectangle_626-3" data-name="Rectangle 626" class="cls-2" width="15" height="15" transform="translate(318 328)"/>
    </clipPath>
    <clipPath id="clip-path-8">
      <rect id="Rectangle_626-4" data-name="Rectangle 626" class="cls-2" width="15" height="15" transform="translate(318 363)"/>
    </clipPath>
    <clipPath id="clip-path-9">
      <rect id="Rectangle_626-5" data-name="Rectangle 626" class="cls-2" width="15" height="15" transform="translate(318 398)"/>
    </clipPath>
    <clipPath id="clip-path-10">
      <rect id="Rectangle_626-6" data-name="Rectangle 626" class="cls-2" width="15" height="15" transform="translate(318 433)"/>
    </clipPath>
    <clipPath id="clip-path-11">
      <rect id="Rectangle_627" data-name="Rectangle 627" class="cls-2" width="15" height="15" transform="translate(318 494)"/>
    </clipPath>
    <clipPath id="clip-Aidat">
      <rect width="514" height="478"/>
    </clipPath>
  </defs>
  <g id="Aidat" class="cls-4">
    <rect class="cls-33" width="514" height="478"/>
    <text id="Aidat-2" data-name="Aidat" class="cls-5" transform="translate(20 45)"><tspan x="0" y="0">Aidat</tspan></text>
    <text id="Ödeme_Yapmayanlar" data-name="Ödeme Yapmayanlar" class="cls-6" transform="translate(20 75)"><tspan x="0" y="0">Ödeme Yapmayanlar</tspan></text>
    <g class="cls-42" transform="matrix(1, 0, 0, 1, 0, 0)">
      <line id="Line_54-2" data-name="Line 54" class="cls-7" x2="514" transform="translate(0 100)"/>
    </g>
    <circle id="_2222" data-name="2222" class="cls-8" cx="20" cy="20" r="20" transform="translate(20 229)"/>
    <circle id="_2222-2" data-name="2222" class="cls-8" cx="20" cy="20" r="20" transform="translate(20 306)"/>
    <circle id="_2222-3" data-name="2222" class="cls-8" cx="20" cy="20" r="20" transform="translate(20 383)"/>
    <g id="Grup_Red_1" data-name="Grup Red 1">
      <g id="Group_31" data-name="Group 31" transform="translate(-50 36)">
        <circle id="Ellipse_15" data-name="Ellipse 15" class="cls-9" cx="20" cy="20" r="20" transform="translate(70 84)"/>
        <text id="FU" class="cls-10" transform="translate(82 109)"><tspan x="0" y="0">FU</tspan></text>
      </g>
      <text id="Fatih_Uzun" data-name="Fatih Uzun" class="cls-11" transform="translate(70 136)"><tspan x="0" y="0">Fatih Uzun</tspan></text>
      <text id="Tutar:_600_00_Ödenen:_600_000_" data-name="Tutar: 600,00 ₺, Ödenen: 600,000  ₺" class="cls-12" transform="translate(71 183)"><tspan x="0" y="0" xml:space="preserve">Tutar: 600,00 ₺, Ödenen: 600,000  ₺</tspan></text>
      <text id="Kalan_Tutar:" data-name="Kalan Tutar:" class="cls-12" transform="translate(71 205)"><tspan x="0" y="0">Kalan Tutar:</tspan></text>
      <rect id="Rectangle_593" data-name="Rectangle 593" class="cls-13" width="148" height="20" rx="3" transform="translate(70 145)"/>
      <text id="ÖDEMESİ_365_GÜN_GECİKMİŞ_" data-name="ÖDEMESİ 365 GÜN GECİKMİŞ!" class="cls-14" transform="translate(75 159)"><tspan x="0" y="0">ÖDEMESİ 365 GÜN GECİKMİŞ!</tspan></text>
      <text id="_0_00_" data-name="0,00 ₺ " class="cls-15" transform="translate(143 205)"><tspan x="0" y="0">0,00 ₺ </tspan></text>
    </g>
    <rect id="Rectangle_601" data-name="Rectangle 601" class="cls-2" width="73" height="10" rx="5" transform="translate(70 231)"/>
    <rect id="Rectangle_613" data-name="Rectangle 613" class="cls-2" width="73" height="10" rx="5" transform="translate(70 308)"/>
    <rect id="Rectangle_628" data-name="Rectangle 628" class="cls-2" width="73" height="10" rx="5" transform="translate(70 385)"/>
    <rect id="Rectangle_605" data-name="Rectangle 605" class="cls-16" width="148" height="10" rx="5" transform="translate(70 246)"/>
    <rect id="Rectangle_612" data-name="Rectangle 612" class="cls-16" width="148" height="10" rx="5" transform="translate(70 323)"/>
    <rect id="Rectangle_617" data-name="Rectangle 617" class="cls-16" width="148" height="10" rx="5" transform="translate(70 400)"/>
    <rect id="Rectangle_606" data-name="Rectangle 606" class="cls-8" width="194" height="10" rx="5" transform="translate(70 261)"/>
    <rect id="Rectangle_610" data-name="Rectangle 610" class="cls-8" width="194" height="10" rx="5" transform="translate(70 338)"/>
    <rect id="Rectangle_616" data-name="Rectangle 616" class="cls-8" width="194" height="10" rx="5" transform="translate(70 415)"/>
    <rect id="Rectangle_607" data-name="Rectangle 607" class="cls-8" width="68" height="10" rx="5" transform="translate(70 276)"/>
    <rect id="Rectangle_611" data-name="Rectangle 611" class="cls-8" width="68" height="10" rx="5" transform="translate(70 353)"/>
    <rect id="Rectangle_614" data-name="Rectangle 614" class="cls-8" width="68" height="10" rx="5" transform="translate(70 430)"/>
    <rect id="Rectangle_608" data-name="Rectangle 608" class="cls-17" width="33" height="10" rx="5" transform="translate(143 276)"/>
    <rect id="Rectangle_609" data-name="Rectangle 609" class="cls-17" width="33" height="10" rx="5" transform="translate(143 353)"/>
    <rect id="Rectangle_615" data-name="Rectangle 615" class="cls-17" width="33" height="10" rx="5" transform="translate(143 430)"/>
    <g id="Rectangle_622" data-name="Rectangle 622" class="cls-18" transform="translate(308 143)">
      <rect class="cls-31" width="180" height="315"/>
      <rect class="cls-32" x="0.5" y="0.5" width="179" height="314"/>
    </g>
    <g id="el" class="cls-19" transform="translate(272 -230)">
      <path id="hand-holding-usd-solid" class="cls-1" d="M23.824,14.092l4.77,1.4a.823.823,0,0,1,.583.791.814.814,0,0,1-.8.82H25.246a2.409,2.409,0,0,1-.983-.215,1.161,1.161,0,0,0-1.345.2l-1.67,1.709a1.119,1.119,0,0,0-.2.26,1.222,1.222,0,0,0-.118.847,1.113,1.113,0,0,0,.459.69,6.875,6.875,0,0,0,3.033,1.123v1.729A1.55,1.55,0,0,0,25.951,25h1.527A1.55,1.55,0,0,0,29,23.438V21.719a5.465,5.465,0,0,0,4.7-6.152,5.684,5.684,0,0,0-4.092-4.658l-4.77-1.4a.823.823,0,0,1-.583-.791.814.814,0,0,1,.8-.82h3.129a2.409,2.409,0,0,1,.987.215,1.161,1.161,0,0,0,1.345-.2l1.67-1.709a1.086,1.086,0,0,0,.191-.254,1.223,1.223,0,0,0,.12-.849,1.115,1.115,0,0,0-.458-.692,6.879,6.879,0,0,0-3.034-1.123V1.563A1.55,1.55,0,0,0,27.487,0H25.96a1.55,1.55,0,0,0-1.527,1.563V3.281a5.468,5.468,0,0,0-4.7,6.152A5.689,5.689,0,0,0,23.824,14.092ZM49.682,32.041a2.69,2.69,0,0,0-3.744,0l-8.121,7.217A5.254,5.254,0,0,1,34.3,40.625H23.906a1.571,1.571,0,0,1,0-3.125h6.881a3.006,3.006,0,0,0,2.922-2.6,3.378,3.378,0,0,0,.04-.533,2.98,2.98,0,0,0-2.812-3.119H16.875a9.722,9.722,0,0,0-6.513,2.567L6.275,37.5H1.406A1.491,1.491,0,0,0,0,39.063v9.375A1.491,1.491,0,0,0,1.406,50H32.763a5.283,5.283,0,0,0,3.516-1.367L49.57,36.816a3.258,3.258,0,0,0,1.055-2.359,3.3,3.3,0,0,0-.942-2.417Z" transform="translate(166.687 255)"/>
    </g>
    <g class="cls-41" transform="matrix(1, 0, 0, 1, 0, 0)">
      <line id="Line_98-2" data-name="Line 98" class="cls-7" x2="180" transform="translate(308 178)"/>
    </g>
    <g id="Mask_Group_109" data-name="Mask Group 109" class="cls-20" transform="translate(322 -130)">
      <g id="more-vertical" transform="translate(154.5 250.5)">
        <circle id="Ellipse_70" data-name="Ellipse 70" class="cls-21" cx="0.833" cy="0.833" r="0.833" transform="translate(9.167 9.167)"/>
        <circle id="Ellipse_71" data-name="Ellipse 71" class="cls-21" cx="0.833" cy="0.833" r="0.833" transform="translate(9.167 3.333)"/>
        <circle id="Ellipse_72" data-name="Ellipse 72" class="cls-21" cx="0.833" cy="0.833" r="0.833" transform="translate(9.167 15)"/>
      </g>
    </g>
    <g id="Mask_Group_69" data-name="Mask Group 69" class="cls-22" transform="translate(318.417 153)">
      <path id="user-solid" class="cls-3" d="M6.563,7.5a3.75,3.75,0,1,0-3.75-3.75A3.75,3.75,0,0,0,6.563,7.5Zm2.625.937H8.7a5.1,5.1,0,0,1-4.271,0H3.938A3.939,3.939,0,0,0,0,12.375v1.219A1.407,1.407,0,0,0,1.406,15H11.719a1.407,1.407,0,0,0,1.406-1.406V12.375A3.939,3.939,0,0,0,9.188,8.438Z" transform="translate(0.632 -0.046)"/>
    </g>
    <rect id="Rectangle_623" data-name="Rectangle 623" class="cls-3" width="73" height="10" rx="5" transform="translate(343 157)"/>
    <g class="cls-40" transform="matrix(1, 0, 0, 1, 0, 0)">
      <line id="Line_99-2" data-name="Line 99" class="cls-7" x2="180" transform="translate(308 213)"/>
    </g>
    <g class="cls-39" transform="matrix(1, 0, 0, 1, 0, 0)">
      <line id="Line_100-2" data-name="Line 100" class="cls-7" x2="180" transform="translate(308 248)"/>
    </g>
    <g class="cls-38" transform="matrix(1, 0, 0, 1, 0, 0)">
      <line id="Line_101-2" data-name="Line 101" class="cls-7" x2="180" transform="translate(308 283)"/>
    </g>
    <g class="cls-37" transform="matrix(1, 0, 0, 1, 0, 0)">
      <line id="Line_102-2" data-name="Line 102" class="cls-7" x2="180" transform="translate(308 318)"/>
    </g>
    <g class="cls-36" transform="matrix(1, 0, 0, 1, 0, 0)">
      <line id="Line_103-2" data-name="Line 103" class="cls-7" x2="180" transform="translate(308 353)"/>
    </g>
    <g class="cls-35" transform="matrix(1, 0, 0, 1, 0, 0)">
      <line id="Line_104-2" data-name="Line 104" class="cls-7" x2="180" transform="translate(308 388)"/>
    </g>
    <g class="cls-34" transform="matrix(1, 0, 0, 1, 0, 0)">
      <line id="Line_105-2" data-name="Line 105" class="cls-7" x2="180" transform="translate(308 423)"/>
    </g>
    <text id="Ödeme_Al" data-name="Ödeme Al" class="cls-12" transform="translate(343 200)"><tspan x="0" y="0">Ödeme Al</tspan></text>
    <text id="Ödeme_İkazı" data-name="Ödeme İkazı" class="cls-12" transform="translate(343 235)"><tspan x="0" y="0">Ödeme İkazı</tspan></text>
    <text id="Kaydı_Pasifleştir" data-name="Kaydı Pasifleştir" class="cls-12" transform="translate(343 270)"><tspan x="0" y="0">Kaydı Pasifleştir</tspan></text>
    <text id="Veliye_Mesaj_Gönder" data-name="Veliye Mesaj Gönder" class="cls-12" transform="translate(343 305)"><tspan x="0" y="0">Veliye Mesaj Gönder</tspan></text>
    <text id="Düzenle" class="cls-12" transform="translate(343 340)"><tspan x="0" y="0">Düzenle</tspan></text>
    <text id="İletişim_Servisi" data-name="İletişim Servisi" class="cls-12" transform="translate(343 375)"><tspan x="0" y="0">İletişim Servisi</tspan></text>
    <text id="Aidat_Geçmişi" data-name="Aidat Geçmişi" class="cls-12" transform="translate(343 410)"><tspan x="0" y="0">Aidat Geçmişi</tspan></text>
    <text id="Tüm_Bilgileri" data-name="Tüm Bilgileri" class="cls-12" transform="translate(343 445)"><tspan x="0" y="0">Tüm Bilgileri</tspan></text>
    <g id="Mask_Group_111" data-name="Mask Group 111" class="cls-23" transform="translate(-4 -1)">
      <path id="exclamation-triangle-solid" class="cls-2" d="M14.831,10.743A1.174,1.174,0,0,1,13.748,12.5H1.251A1.174,1.174,0,0,1,.169,10.743L6.417.586a1.294,1.294,0,0,1,2.165,0l6.248,10.157ZM7.5,8.643A1.125,1.125,0,1,0,8.7,9.766,1.162,1.162,0,0,0,7.5,8.643ZM6.363,4.606l.193,3.32a.3.3,0,0,0,.312.277H8.132a.3.3,0,0,0,.312-.277l.193-3.32A.3.3,0,0,0,8.325,4.3H6.675a.3.3,0,0,0-.312.309Z" transform="translate(322 225.25)"/>
    </g>
    <g id="Mask_Group_112" data-name="Mask Group 112" class="cls-24">
      <path id="user-times-solid" class="cls-2" d="M13.82,5.626l1.069-1.069a.378.378,0,0,0,0-.534l-.534-.534a.378.378,0,0,0-.534,0L12.751,4.557,11.683,3.488a.378.378,0,0,0-.534,0l-.534.534a.378.378,0,0,0,0,.534l1.069,1.069L10.614,6.695a.378.378,0,0,0,0,.534l.534.534a.378.378,0,0,0,.534,0l1.069-1.069L13.82,7.763a.378.378,0,0,0,.534,0l.534-.534a.378.378,0,0,0,0-.534ZM5.251,6a3,3,0,1,0-3-3A3,3,0,0,0,5.251,6Zm2.1.75H6.959a4.08,4.08,0,0,1-3.418,0H3.15A3.151,3.151,0,0,0,0,9.9v.975A1.125,1.125,0,0,0,1.125,12H9.376A1.125,1.125,0,0,0,10.5,10.876V9.9A3.151,3.151,0,0,0,7.351,6.751Z" transform="translate(318 259.499)"/>
    </g>
    <g id="Mask_Group_113" data-name="Mask Group 113" class="cls-25">
      <path id="paper-plane-solid" class="cls-2" d="M13.943.094.366,7.926A.7.7,0,0,0,.431,9.192L3.544,10.5,11.96,3.081a.176.176,0,0,1,.252.243l-7.056,8.6v2.358a.7.7,0,0,0,1.245.463l1.86-2.264,3.65,1.529a.7.7,0,0,0,.967-.533L14.985.82A.7.7,0,0,0,13.943.094Z" transform="translate(318.002 293.001)"/>
    </g>
    <g id="Mask_Group_114" data-name="Mask Group 114" class="cls-26">
      <path id="pen-solid" class="cls-2" d="M8.518,2.732l3.75,3.75L4.124,14.626.78,15A.7.7,0,0,1,0,14.219l.372-3.346L8.518,2.732Zm6.07-.558L12.827.412a1.407,1.407,0,0,0-1.989,0L9.181,2.069l3.75,3.75,1.657-1.657a1.407,1.407,0,0,0,0-1.989Z" transform="translate(318 328)"/>
    </g>
    <g id="Mask_Group_115" data-name="Mask Group 115" class="cls-27">
      <path id="sms-solid" class="cls-2" d="M7.5.938C3.357.938,0,3.665,0,7.031A5.409,5.409,0,0,0,1.67,10.86,7.453,7.453,0,0,1,.064,13.667a.233.233,0,0,0-.044.255.229.229,0,0,0,.214.141,6.7,6.7,0,0,0,4.119-1.506,8.935,8.935,0,0,0,3.146.568c4.143,0,7.5-2.728,7.5-6.094S11.643.938,7.5.938ZM3.756,8.906H3.4a.235.235,0,0,1-.234-.234V8.2A.235.235,0,0,1,3.4,7.969h.36c.176,0,.3-.1.3-.193A.155.155,0,0,0,4,7.664L3.36,7.113a1.083,1.083,0,0,1-.39-.823A1.191,1.191,0,0,1,4.213,5.159H4.57a.235.235,0,0,1,.234.234v.469A.235.235,0,0,1,4.57,6.1H4.21c-.176,0-.3.1-.3.193a.155.155,0,0,0,.062.111l.642.551A1.083,1.083,0,0,1,5,7.775,1.189,1.189,0,0,1,3.756,8.906Zm5.619-.234a.235.235,0,0,1-.234.234H8.672a.235.235,0,0,1-.234-.234v-2L7.711,8.309a.234.234,0,0,1-.419,0L6.563,6.674v2a.235.235,0,0,1-.234.234H5.859a.235.235,0,0,1-.234-.234V5.625a.47.47,0,0,1,.469-.469h.469a.467.467,0,0,1,.419.258L7.5,6.451l.519-1.037a.47.47,0,0,1,.419-.258h.469a.47.47,0,0,1,.469.469Zm1.415.234h-.36a.235.235,0,0,1-.234-.234V8.2a.235.235,0,0,1,.234-.234h.36c.176,0,.3-.1.3-.193a.155.155,0,0,0-.062-.111l-.642-.551A1.083,1.083,0,0,1,10,6.29a1.191,1.191,0,0,1,1.242-1.131H11.6a.235.235,0,0,1,.234.234v.469A.235.235,0,0,1,11.6,6.1h-.36c-.176,0-.3.1-.3.193A.155.155,0,0,0,11,6.4l.642.551a1.083,1.083,0,0,1,.39.823A1.187,1.187,0,0,1,10.79,8.906Z" transform="translate(318 363)"/>
    </g>
    <g id="Mask_Group_116" data-name="Mask Group 116" class="cls-28">
      <path id="receipt-solid" class="cls-2" d="M10.5.094,9.374,1.406,7.78.094a.466.466,0,0,0-.562,0L5.624,1.406,4.031.094a.466.466,0,0,0-.562,0L1.875,1.406.75.094A.468.468,0,0,0,0,.469V14.53a.468.468,0,0,0,.75.375l1.125-1.312L3.468,14.9a.466.466,0,0,0,.562,0l1.594-1.312L7.218,14.9a.466.466,0,0,0,.562,0l1.594-1.312L10.5,14.9a.469.469,0,0,0,.75-.375V.469A.468.468,0,0,0,10.5.094ZM9.374,10.546a.235.235,0,0,1-.234.234H2.109a.235.235,0,0,1-.234-.234v-.469a.235.235,0,0,1,.234-.234H9.14a.235.235,0,0,1,.234.234Zm0-2.812a.235.235,0,0,1-.234.234H2.109a.235.235,0,0,1-.234-.234V7.265a.235.235,0,0,1,.234-.234H9.14a.235.235,0,0,1,.234.234Zm0-2.812a.235.235,0,0,1-.234.234H2.109a.235.235,0,0,1-.234-.234V4.453a.235.235,0,0,1,.234-.234H9.14a.235.235,0,0,1,.234.234Z" transform="translate(319.876 398.001)"/>
    </g>
    <g id="Mask_Group_117" data-name="Mask Group 117" class="cls-29">
      <path id="info-circle-solid" class="cls-2" d="M7.742.242a7.5,7.5,0,1,0,7.5,7.5A7.5,7.5,0,0,0,7.742.242Zm0,3.327a1.27,1.27,0,1,1-1.27,1.27A1.27,1.27,0,0,1,7.742,3.569ZM9.435,11.25a.363.363,0,0,1-.363.363H6.411a.363.363,0,0,1-.363-.363v-.726a.363.363,0,0,1,.363-.363h.363V8.226H6.411a.363.363,0,0,1-.363-.363V7.137a.363.363,0,0,1,.363-.363H8.347a.363.363,0,0,1,.363.363v3.024h.363a.363.363,0,0,1,.363.363Z" transform="translate(317.758 432.758)"/>
    </g>
    <g id="Mask_Group_118" data-name="Mask Group 118" class="cls-30" transform="translate(0 -306)">
      <path id="hand-holding-usd-solid-2" data-name="hand-holding-usd-solid" class="cls-2" d="M7.059,3.758l1.413.372a.224.224,0,0,1,.173.211.229.229,0,0,1-.237.219H7.48A.781.781,0,0,1,7.189,4.5a.373.373,0,0,0-.4.052L6.3,5.01a.3.3,0,0,0-.059.069.3.3,0,0,0,.1.41,2.181,2.181,0,0,0,.9.3V6.25a.437.437,0,0,0,.452.417h.452a.437.437,0,0,0,.453-.417V5.792A1.5,1.5,0,0,0,9.987,4.151,1.579,1.579,0,0,0,8.775,2.909L7.361,2.536a.224.224,0,0,1-.173-.211.229.229,0,0,1,.237-.219h.927a.781.781,0,0,1,.292.057.373.373,0,0,0,.4-.052l.495-.456A.294.294,0,0,0,9.6,1.589a.3.3,0,0,0-.1-.411,2.183,2.183,0,0,0-.9-.3V.417A.437.437,0,0,0,8.144,0H7.692a.437.437,0,0,0-.452.417V.875A1.5,1.5,0,0,0,5.846,2.516,1.581,1.581,0,0,0,7.059,3.758ZM14.72,8.544a.862.862,0,0,0-1.109,0L11.2,10.469a1.657,1.657,0,0,1-1.042.365H7.083a.417.417,0,0,1,0-.833H9.122a.864.864,0,0,0,.866-.693A.813.813,0,0,0,10,9.165a.833.833,0,0,0-.833-.832H5a3.064,3.064,0,0,0-1.93.685L1.859,10H.417A.417.417,0,0,0,0,10.416v2.5a.417.417,0,0,0,.417.417H9.707a1.667,1.667,0,0,0,1.042-.365l3.938-3.151a.833.833,0,0,0,.033-1.273Z" transform="translate(318 494.833)"/>
    </g>
  </g>
</svg>
