<svg xmlns="http://www.w3.org/2000/svg" viewBox="0 0 65.5 65.5"><defs><style>.cls-1{fill:#a3d4ff;}.cls-2{fill:#fff;}.cls-3{fill:#2b5185;}</style></defs><title>features_Asset 1</title><g id="Layer_2" data-name="Layer 2"><g id="Layer_2-2" data-name="Layer 2"><path class="cls-1" d="M3.75,13.75h58a0,0,0,0,1,0,0v49a2,2,0,0,1-2,2h-54a2,2,0,0,1-2-2v-49A0,0,0,0,1,3.75,13.75Z"/><path class="cls-2" d="M3.75,13.75h54a0,0,0,0,1,0,0v45a2,2,0,0,1-2,2h-52a0,0,0,0,1,0,0v-47A0,0,0,0,1,3.75,13.75Z"/><path class="cls-3" d="M59.75,65.5h-54A2.75,2.75,0,0,1,3,62.75v-49A.76.76,0,0,1,3.75,13h58a.76.76,0,0,1,.75.75v49A2.75,2.75,0,0,1,59.75,65.5ZM4.5,14.5V62.75A1.25,1.25,0,0,0,5.75,64h54A1.25,1.25,0,0,0,61,62.75V14.5Z"/><path class="cls-1" d="M62.48,32.32,32.75,39.75,3,32.32A3,3,0,0,1,.75,29.41V15.75a2,2,0,0,1,2-2h60a2,2,0,0,1,2,2V29.41A3,3,0,0,1,62.48,32.32Z"/><path class="cls-2" d="M56.48,29.32,23.77,37.51,3,32.32A3,3,0,0,1,.75,29.41V15.75a2,2,0,0,1,2-2h56V26.41A3,3,0,0,1,56.48,29.32Z"/><path class="cls-3" d="M32.75,40.5l-.18,0L2.84,33.05A3.75,3.75,0,0,1,0,29.41V15.75A2.75,2.75,0,0,1,2.75,13h60a2.75,2.75,0,0,1,2.75,2.75V29.41a3.75,3.75,0,0,1-2.84,3.64h0L32.93,40.48Zm-30-26A1.25,1.25,0,0,0,1.5,15.75V29.41a2.25,2.25,0,0,0,1.7,2.18L32.75,39,62.3,31.59A2.25,2.25,0,0,0,64,29.41V15.75a1.25,1.25,0,0,0-1.25-1.25ZM62.48,32.32h0Z"/><path class="cls-1" d="M26.75,33.75h12a2,2,0,0,1,2,2v3a5,5,0,0,1-5,5h-6a5,5,0,0,1-5-5v-3A2,2,0,0,1,26.75,33.75Z"/><path class="cls-2" d="M26.75,33.75h8a0,0,0,0,1,0,0v5a2,2,0,0,1-2,2h-7a1,1,0,0,1-1-1v-4A2,2,0,0,1,26.75,33.75Z"/><path class="cls-3" d="M35.75,44.5h-6A5.76,5.76,0,0,1,24,38.75v-3A2.75,2.75,0,0,1,26.75,33h12a2.75,2.75,0,0,1,2.75,2.75v3A5.76,5.76,0,0,1,35.75,44.5Zm-9-10a1.25,1.25,0,0,0-1.25,1.25v3A4.25,4.25,0,0,0,29.75,43h6A4.25,4.25,0,0,0,40,38.75v-3a1.25,1.25,0,0,0-1.25-1.25Z"/><circle class="cls-3" cx="32.75" cy="38.75" r="1"/><path class="cls-3" d="M44.75,14.5a.76.76,0,0,1-.75-.75v-8a.75.75,0,0,1,1.5,0v8A.76.76,0,0,1,44.75,14.5Z"/><path class="cls-3" d="M20.75,14.5a.76.76,0,0,1-.75-.75v-8a.75.75,0,0,1,1.5,0v8A.76.76,0,0,1,20.75,14.5Z"/><rect class="cls-1" x="17.75" y="0.75" width="30" height="5" rx="2"/><rect class="cls-2" x="17.75" y="0.75" width="22" height="5" rx="2"/><path class="cls-3" d="M45.75,6.5h-26A2.75,2.75,0,0,1,17,3.75v-1A2.75,2.75,0,0,1,19.75,0h26A2.75,2.75,0,0,1,48.5,2.75v1A2.75,2.75,0,0,1,45.75,6.5Zm-26-5A1.25,1.25,0,0,0,18.5,2.75v1A1.25,1.25,0,0,0,19.75,5h26A1.25,1.25,0,0,0,47,3.75v-1A1.25,1.25,0,0,0,45.75,1.5Z"/><path class="cls-3" d="M7.75,58.5A.76.76,0,0,1,7,57.75V49a.75.75,0,0,1,1.5,0v8.78A.76.76,0,0,1,7.75,58.5Z"/><path class="cls-3" d="M7.75,45.72A.76.76,0,0,1,7,45V42.75a.75.75,0,0,1,1.5,0V45A.76.76,0,0,1,7.75,45.72Z"/><path class="cls-3" d="M57.75,54.5a.76.76,0,0,1-.75-.75V45a.75.75,0,0,1,1.5,0v8.78A.75.75,0,0,1,57.75,54.5Z"/><path class="cls-3" d="M57.75,41.72A.76.76,0,0,1,57,41V38.75a.75.75,0,0,1,1.5,0V41A.75.75,0,0,1,57.75,41.72Z"/><path class="cls-3" d="M47.13,47.5H45.75a.75.75,0,0,1,0-1.5h1.38a.75.75,0,0,1,0,1.5Z"/><path class="cls-3" d="M51.75,47.5H50.36a.75.75,0,0,1,0-1.5h1.39a.75.75,0,0,1,0,1.5Z"/><path class="cls-3" d="M48.75,50.5a.74.74,0,0,1-.75-.75V48.37a.75.75,0,0,1,1.5,0v1.38A.75.75,0,0,1,48.75,50.5Z"/><path class="cls-3" d="M48.75,45.89a.75.75,0,0,1-.75-.75V43.75a.75.75,0,0,1,1.5,0v1.39A.76.76,0,0,1,48.75,45.89Z"/><path class="cls-3" d="M41.13,26.5H39.75a.75.75,0,0,1,0-1.5h1.38a.75.75,0,0,1,0,1.5Z"/><path class="cls-3" d="M45.75,26.5H44.36a.75.75,0,0,1,0-1.5h1.39a.75.75,0,0,1,0,1.5Z"/><path class="cls-3" d="M42.75,29.5a.75.75,0,0,1-.75-.75V27.37a.75.75,0,0,1,1.5,0v1.38A.76.76,0,0,1,42.75,29.5Z"/><path class="cls-3" d="M42.75,24.88a.74.74,0,0,1-.75-.75V22.75a.75.75,0,0,1,1.5,0v1.38A.75.75,0,0,1,42.75,24.88Z"/><path class="cls-3" d="M26.13,22.5H24.75a.75.75,0,0,1,0-1.5h1.38a.75.75,0,0,1,0,1.5Z"/><path class="cls-3" d="M30.75,22.5H29.36a.75.75,0,0,1,0-1.5h1.39a.75.75,0,0,1,0,1.5Z"/><path class="cls-3" d="M27.75,25.5a.75.75,0,0,1-.75-.75V23.37a.75.75,0,0,1,1.5,0v1.38A.76.76,0,0,1,27.75,25.5Z"/><path class="cls-3" d="M27.75,20.88a.74.74,0,0,1-.75-.75V18.75a.75.75,0,0,1,1.5,0v1.38A.75.75,0,0,1,27.75,20.88Z"/><path class="cls-3" d="M38.13,55.5H36.75a.75.75,0,0,1,0-1.5h1.38a.75.75,0,0,1,0,1.5Z"/><path class="cls-3" d="M42.75,55.5H41.36a.75.75,0,0,1,0-1.5h1.39a.75.75,0,0,1,0,1.5Z"/><path class="cls-3" d="M39.75,58.5a.74.74,0,0,1-.75-.75V56.37a.75.75,0,0,1,1.5,0v1.38A.75.75,0,0,1,39.75,58.5Z"/><path class="cls-3" d="M39.75,53.89a.75.75,0,0,1-.75-.75V51.75a.75.75,0,0,1,1.5,0v1.39A.76.76,0,0,1,39.75,53.89Z"/><path class="cls-3" d="M17.13,50.5H15.75a.75.75,0,0,1,0-1.5h1.38a.75.75,0,0,1,0,1.5Z"/><path class="cls-3" d="M21.75,50.5H20.36a.75.75,0,0,1,0-1.5h1.39a.75.75,0,0,1,0,1.5Z"/><path class="cls-3" d="M18.75,53.5a.74.74,0,0,1-.75-.75V51.37a.75.75,0,0,1,1.5,0v1.38A.75.75,0,0,1,18.75,53.5Z"/><path class="cls-3" d="M18.75,48.89a.75.75,0,0,1-.75-.75V46.75a.75.75,0,0,1,1.5,0v1.39A.76.76,0,0,1,18.75,48.89Z"/></g></g></svg>