<svg xmlns="http://www.w3.org/2000/svg" viewBox="0 0 65.5 65.5"><defs><style>.cls-1{fill:#2b5185;}.cls-2{fill:#a3d4ff;}.cls-3{fill:#fff;}</style></defs><title>features_Asset 1</title><g id="Layer_2" data-name="Layer 2"><g id="icon"><path class="cls-1" d="M52.75,65.5h-40A12.76,12.76,0,0,1,0,52.75v-40A12.76,12.76,0,0,1,12.75,0h40A12.76,12.76,0,0,1,65.5,12.75v40A12.76,12.76,0,0,1,52.75,65.5Zm-40-64A11.27,11.27,0,0,0,1.5,12.75v40A11.27,11.27,0,0,0,12.75,64h40A11.27,11.27,0,0,0,64,52.75v-40A11.27,11.27,0,0,0,52.75,1.5Z"/><path class="cls-2" d="M29.08,29.25l-5.7-1.5H10.13l-5.71,1.5A4.92,4.92,0,0,0,.75,34V52.75a12,12,0,0,0,12,12h20V34A4.92,4.92,0,0,0,29.08,29.25Z"/><path class="cls-3" d="M21.17,27.75h-11l-5.71,1.5A4.92,4.92,0,0,0,.75,34V52.75a12,12,0,0,0,12,12h15V36.12A8.54,8.54,0,0,0,21.17,27.75Z"/><path class="cls-1" d="M32.75,65.5h-20A12.76,12.76,0,0,1,0,52.75V34a5.68,5.68,0,0,1,4.23-5.49L9.94,27a.58.58,0,0,1,.19,0H23.38l.19,0,5.7,1.49h0A5.68,5.68,0,0,1,33.5,34V64.75A.76.76,0,0,1,32.75,65.5Zm-22.53-37L4.61,30A4.18,4.18,0,0,0,1.5,34V52.75A11.27,11.27,0,0,0,12.75,64H32V34a4.18,4.18,0,0,0-3.11-4L23.28,28.5Z"/><path class="cls-3" d="M21.64,30.14a3.38,3.38,0,0,0,1.74-2.39,5.11,5.11,0,0,1-2.74-3.58c0-.23-.08-1.69-.1-1.91H13c0,.26-.07,1.75-.13,2a5,5,0,0,1-2.7,3.47,3.4,3.4,0,0,0,1.74,2.39A8.6,8.6,0,0,0,21.64,30.14Z"/><path class="cls-1" d="M16.76,32.42a9.3,9.3,0,0,1-5.32-1.67c-1.35-.94-2-1.94-2.06-3a.73.73,0,0,1,.42-.69,4.19,4.19,0,0,0,2.3-2.94c0-.14.05-.81.07-1.17s0-.68,0-.79a.75.75,0,0,1,.74-.67h7.59a.74.74,0,0,1,.74.66c0,.1,0,.42,0,.79s0,.92.06,1.08a4.37,4.37,0,0,0,2.34,3,.78.78,0,0,1,.41.68c0,1-.71,2-2.06,3h0A9.26,9.26,0,0,1,16.76,32.42ZM11,28.14a3.74,3.74,0,0,0,1.33,1.38,7.81,7.81,0,0,0,8.91,0,3.68,3.68,0,0,0,1.33-1.4A5.84,5.84,0,0,1,19.9,24.3c0-.17,0-.54-.08-1.28H13.67v0a10.88,10.88,0,0,1-.09,1.38A5.62,5.62,0,0,1,11,28.14Zm10.67,2h0Z"/><path class="cls-3" d="M24.44,15.76c0,5.16-3.44,9.35-7.69,9.35s-7.69-4.19-7.69-9.35,3.44-7.88,7.69-7.88S24.44,10.6,24.44,15.76Z"/><path class="cls-1" d="M16.75,25.86c-4.66,0-8.44-4.53-8.44-10.1,0-5.16,3.39-8.63,8.44-8.63s8.44,3.47,8.44,8.63C25.19,21.33,21.41,25.86,16.75,25.86Zm0-17.23c-4.22,0-6.94,2.8-6.94,7.13,0,4.74,3.11,8.6,6.94,8.6s6.94-3.86,6.94-8.6C23.69,11.43,21,8.63,16.75,8.63Z"/><path class="cls-3" d="M10,11.56a8.75,8.75,0,0,0-1,4.2c0,5.16,3.44,9.35,7.69,9.35s7.69-4.19,7.69-9.35a9.4,9.4,0,0,0-.52-3.17C16.6,13.75,12.36,12.71,10,11.56Z"/><path class="cls-2" d="M23.92,12.59c-1.25.2-2.4.33-3.48.41a9.15,9.15,0,0,1,.4,2.76c0,4.41-2.51,8.09-5.89,9.08a6.38,6.38,0,0,0,1.8.27c4.25,0,7.69-4.19,7.69-9.35A9.4,9.4,0,0,0,23.92,12.59Z"/><path class="cls-1" d="M16.75,25.86c-4.66,0-8.44-4.53-8.44-10.1a9.41,9.41,0,0,1,1.07-4.55.74.74,0,0,1,1-.32c2.15,1.07,6.23,2.1,13.43,1a.76.76,0,0,1,.83.49,10.18,10.18,0,0,1,.56,3.42C25.19,21.33,21.41,25.86,16.75,25.86ZM10.4,12.55a8.2,8.2,0,0,0-.59,3.21c0,4.74,3.11,8.6,6.94,8.6s6.94-3.86,6.94-8.6a9.18,9.18,0,0,0-.29-2.33C16.87,14.37,12.8,13.55,10.4,12.55Z"/><path class="cls-2" d="M61.08,29.25l-5.7-1.5H42.13l-5.71,1.5A4.92,4.92,0,0,0,32.75,34V64.75h20a12,12,0,0,0,12-12V34A4.92,4.92,0,0,0,61.08,29.25Z"/><path class="cls-3" d="M58.08,28.25l-5.7-1.5H45.75l-3.62,1-5.71,1.5A4.92,4.92,0,0,0,32.75,34V54.75l23.17-4a7,7,0,0,0,5.83-6.92V33A4.92,4.92,0,0,0,58.08,28.25Z"/><path class="cls-1" d="M52.75,65.5h-20a.76.76,0,0,1-.75-.75V34a5.68,5.68,0,0,1,4.23-5.49L41.94,27a.58.58,0,0,1,.19,0H55.38l.19,0,5.7,1.49h0A5.68,5.68,0,0,1,65.5,34V52.75A12.76,12.76,0,0,1,52.75,65.5ZM33.5,64H52.75A11.27,11.27,0,0,0,64,52.75V34a4.18,4.18,0,0,0-3.11-4L55.28,28.5H42.22L36.61,30a4.18,4.18,0,0,0-3.11,4Z"/><path class="cls-3" d="M48.75,32.38s6.58-2,6.63-4.63a5.11,5.11,0,0,1-2.74-3.58c0-.23-.08-1.69-.1-1.91H45c0,.26-.07,1.75-.13,2a5,5,0,0,1-2.7,3.47C42.19,30.42,48.75,32.38,48.75,32.38Z"/><path class="cls-1" d="M48.75,33.13l-.21,0c-1.19-.35-7.1-2.27-7.16-5.33a.73.73,0,0,1,.42-.69,4.19,4.19,0,0,0,2.3-2.94c0-.14,0-.81.07-1.17s0-.68,0-.79a.75.75,0,0,1,.74-.67h7.59a.74.74,0,0,1,.74.66c0,.1,0,.42,0,.79s0,.92.06,1.08a4.37,4.37,0,0,0,2.34,3,.78.78,0,0,1,.41.68c-.05,3.07-6,5-7.17,5.34Zm-5.78-5c.56,1.32,3.52,2.75,5.78,3.46,2.27-.71,5.25-2.14,5.79-3.47A5.87,5.87,0,0,1,51.9,24.3c0-.17,0-.54-.08-1.28H45.67v0a10.88,10.88,0,0,1-.09,1.38A5.62,5.62,0,0,1,43,28.14Z"/><path class="cls-3" d="M56.44,15.63C56.44,20.79,53,25,48.75,25s-7.69-4.19-7.69-9.35,3.44-7.88,7.69-7.88S56.44,10.47,56.44,15.63Z"/><path class="cls-1" d="M48.75,25.73c-4.66,0-8.44-4.53-8.44-10.1C40.31,10.47,43.7,7,48.75,7s8.44,3.47,8.44,8.63C57.19,21.2,53.41,25.73,48.75,25.73Zm0-17.23c-4.22,0-6.94,2.8-6.94,7.13,0,4.74,3.11,8.6,6.94,8.6s6.94-3.86,6.94-8.6C55.69,11.3,53,8.5,48.75,8.5Z"/><path class="cls-3" d="M41.53,12.61a9.43,9.43,0,0,0-.47,3c0,5.16,3.44,9.35,7.69,9.35s7.69-4.19,7.69-9.35a9.2,9.2,0,0,0-.66-3.54c-1.58.34-3.25,1-5.53,1.57A13.8,13.8,0,0,1,41.53,12.61Z"/><path class="cls-2" d="M55.78,12.09c-1,.22-2.06.57-3.28.94a9.57,9.57,0,0,1,.34,2.6c0,4.41-2.51,8.09-5.89,9.08a6.38,6.38,0,0,0,1.8.27c4.25,0,7.69-4.19,7.69-9.35A9.2,9.2,0,0,0,55.78,12.09Z"/><path class="cls-1" d="M48.75,25.73c-4.66,0-8.44-4.53-8.44-10.1a10.21,10.21,0,0,1,.51-3.26.79.79,0,0,1,.41-.45.76.76,0,0,1,.61,0,13.06,13.06,0,0,0,8.23,1c1.09-.27,2.06-.57,2.92-.84s1.79-.55,2.63-.73a.75.75,0,0,1,.85.44,9.9,9.9,0,0,1,.72,3.83C57.19,21.2,53.41,25.73,48.75,25.73ZM42,13.63a9.36,9.36,0,0,0-.21,2c0,4.74,3.11,8.6,6.94,8.6s6.94-3.86,6.94-8.6A8.66,8.66,0,0,0,55.3,13c-.58.15-1.19.34-1.87.55-.87.27-1.87.57-3,.85A14.13,14.13,0,0,1,42,13.63Z"/><path class="cls-3" d="M61.08,57.25l-5.7-1.5H42.13l-5.71,1.5A4.93,4.93,0,0,0,32.75,62v2.74h20a12,12,0,0,0,10.53-6.24A4.89,4.89,0,0,0,61.08,57.25Z"/><path class="cls-2" d="M61.08,57.25,59.93,57l-1.73,1.6A12.77,12.77,0,0,1,50.06,62l-17.31.79v2h20a12,12,0,0,0,10.53-6.24A4.89,4.89,0,0,0,61.08,57.25Z"/><path class="cls-1" d="M52.75,65.5h-20a.76.76,0,0,1-.75-.75V62a5.67,5.67,0,0,1,4.23-5.48L41.94,55a.58.58,0,0,1,.19,0H55.38l.19,0,5.7,1.5h0A5.56,5.56,0,0,1,63.8,58a.74.74,0,0,1,.13.89A12.74,12.74,0,0,1,52.75,65.5ZM33.5,64H52.75a11.27,11.27,0,0,0,9.57-5.33A4.12,4.12,0,0,0,60.89,58L55.28,56.5H42.22L36.61,58a4.17,4.17,0,0,0-3.11,4Z"/><path class="cls-3" d="M53.64,58.14a3.36,3.36,0,0,0,1.74-2.39,5.11,5.11,0,0,1-2.74-3.58c0-.23-.08-1.69-.1-1.91H45c0,.25-.07,1.74-.13,2a4.93,4.93,0,0,1-2.7,3.46,3.38,3.38,0,0,0,1.74,2.39A8.6,8.6,0,0,0,53.64,58.14Z"/><path class="cls-1" d="M48.76,60.42a9.29,9.29,0,0,1-5.32-1.66c-1.35-.95-2-1.95-2.06-3a.74.74,0,0,1,.42-.69,4.19,4.19,0,0,0,2.3-2.94c0-.13,0-.81.07-1.17s0-.68,0-.79a.74.74,0,0,1,.74-.66h7.59a.75.75,0,0,1,.74.66c0,.1,0,.43,0,.79s0,.93.06,1.08a4.39,4.39,0,0,0,2.34,3.05.76.76,0,0,1,.41.68c0,1-.71,2-2.06,3h0A9.26,9.26,0,0,1,48.76,60.42ZM43,56.14a3.83,3.83,0,0,0,1.33,1.39,7.81,7.81,0,0,0,8.91,0,3.67,3.67,0,0,0,1.33-1.39,5.88,5.88,0,0,1-2.64-3.83c0-.18,0-.54-.08-1.29H45.67v0a11.12,11.12,0,0,1-.09,1.39A5.63,5.63,0,0,1,43,56.14Zm10.67,2h0Z"/><path class="cls-3" d="M56.44,43.64C56.44,48.8,53,53,48.75,53s-7.69-4.18-7.69-9.34,3.44-7.89,7.69-7.89S56.44,38.47,56.44,43.64Z"/><path class="cls-1" d="M48.75,53.73c-4.66,0-8.44-4.53-8.44-10.09,0-5.17,3.39-8.64,8.44-8.64s8.44,3.47,8.44,8.64C57.19,49.2,53.41,53.73,48.75,53.73Zm0-17.23c-4.22,0-6.94,2.8-6.94,7.14,0,4.74,3.11,8.59,6.94,8.59s6.94-3.85,6.94-8.59C55.69,39.3,53,36.5,48.75,36.5Z"/><path class="cls-3" d="M41.16,42.25a10.21,10.21,0,0,0-.1,1.39c0,5.16,3.44,9.34,7.69,9.34s7.69-4.18,7.69-9.34a10.42,10.42,0,0,0-.14-1.72A26,26,0,0,0,41.16,42.25Z"/><path class="cls-2" d="M56.3,41.92a25,25,0,0,0-3.42-.73A12.66,12.66,0,0,1,53,43c0,4.77-2.57,8.75-6,9.75a6.31,6.31,0,0,0,1.74.25c4.25,0,7.69-4.18,7.69-9.34A10.42,10.42,0,0,0,56.3,41.92Z"/><path class="cls-1" d="M48.75,53.73c-4.66,0-8.44-4.53-8.44-10.09a11.29,11.29,0,0,1,.1-1.49.76.76,0,0,1,.52-.62,26.88,26.88,0,0,1,15.58-.33.76.76,0,0,1,.53.59,11.27,11.27,0,0,1,.15,1.85C57.19,49.2,53.41,53.73,48.75,53.73Zm-6.9-10.91a7.63,7.63,0,0,0,0,.82c0,4.74,3.11,8.59,6.94,8.59s6.94-3.85,6.94-8.59a10.55,10.55,0,0,0-.06-1.13A25.38,25.38,0,0,0,41.85,42.82Z"/><path class="cls-3" d="M29.1,57.25l-5.71-1.5H10.14l-5.7,1.5a5,5,0,0,0-2.21,1.27,12,12,0,0,0,10.52,6.23h20V62A4.93,4.93,0,0,0,29.1,57.25Z"/><path class="cls-2" d="M30.3,57.76l-.64,2.09a4.11,4.11,0,0,1-3.92,2.9h-12a12,12,0,0,1-9.94-5.29,5,5,0,0,0-1.58,1.06,12,12,0,0,0,10.52,6.23h20V62A4.92,4.92,0,0,0,30.3,57.76Z"/><path class="cls-1" d="M32.77,65.5h-20A12.78,12.78,0,0,1,1.57,58.88.76.76,0,0,1,1.7,58a5.7,5.7,0,0,1,2.55-1.46L10,55a.58.58,0,0,1,.19,0H23.39a.69.69,0,0,1,.2,0l5.7,1.5h0A5.67,5.67,0,0,1,33.52,62v2.74A.76.76,0,0,1,32.77,65.5ZM3.19,58.68A11.26,11.26,0,0,0,12.75,64H32V62a4.17,4.17,0,0,0-3.11-4L23.3,56.5H10.24L4.63,58A4.1,4.1,0,0,0,3.19,58.68Z"/><path class="cls-3" d="M16.77,60.38s6.58-2,6.62-4.63a5.12,5.12,0,0,1-2.73-3.58c0-.23-.08-1.69-.1-1.91H13c0,.25-.07,1.74-.12,2a4.92,4.92,0,0,1-2.71,3.46C10.2,58.42,16.77,60.38,16.77,60.38Z"/><path class="cls-1" d="M16.77,61.13a.83.83,0,0,1-.22,0c-1.18-.35-7.09-2.27-7.16-5.33a.77.77,0,0,1,.42-.69,4.18,4.18,0,0,0,2.31-2.94c0-.13.05-.81.06-1.17s0-.68.05-.79a.74.74,0,0,1,.74-.66h7.59a.75.75,0,0,1,.74.66c0,.1,0,.43,0,.79s0,.93.06,1.08a4.39,4.39,0,0,0,2.34,3.05.74.74,0,0,1,.4.68c0,3.07-6,5-7.16,5.33Zm-5.78-5c.56,1.32,3.52,2.75,5.78,3.46,2.27-.71,5.25-2.14,5.79-3.46a5.88,5.88,0,0,1-2.64-3.83c0-.18-.05-.54-.08-1.29H13.68v0a13.8,13.8,0,0,1-.09,1.39A5.63,5.63,0,0,1,11,56.14Z"/><path class="cls-1" d="M16.77,65.5a.75.75,0,0,1-.75-.75V60.38a.75.75,0,0,1,1.5,0v4.37A.76.76,0,0,1,16.77,65.5Z"/><path class="cls-3" d="M24.44,43.64C24.44,48.8,21,53,16.75,53S9.06,48.8,9.06,43.64s3.44-7.89,7.69-7.89S24.44,38.47,24.44,43.64Z"/><path class="cls-1" d="M16.75,53.73c-4.66,0-8.44-4.53-8.44-10.09,0-5.17,3.39-8.64,8.44-8.64s8.44,3.47,8.44,8.64C25.19,49.2,21.41,53.73,16.75,53.73Zm0-17.23c-4.22,0-6.94,2.8-6.94,7.14,0,4.74,3.11,8.59,6.94,8.59s6.94-3.85,6.94-8.59C23.69,39.3,21,36.5,16.75,36.5Z"/><path class="cls-3" d="M16.74,41.57a12.52,12.52,0,0,0-7.36-.49,9.8,9.8,0,0,0-.32,2.56C9.06,48.8,12.5,53,16.75,53s7.69-4.18,7.69-9.34a9.88,9.88,0,0,0-.16-1.85A12.79,12.79,0,0,1,16.74,41.57Z"/><path class="cls-2" d="M24.28,41.79a14.27,14.27,0,0,1-3.45.46c-.18,5-3.55,8.94-7.68,8.94a5.69,5.69,0,0,1-1-.1A6.82,6.82,0,0,0,16.75,53c4.25,0,7.69-4.18,7.69-9.34A9.88,9.88,0,0,0,24.28,41.79Z"/><path class="cls-1" d="M16.75,53.73c-4.66,0-8.44-4.53-8.44-10.09a10.62,10.62,0,0,1,.35-2.75.74.74,0,0,1,.54-.53,13.08,13.08,0,0,1,7.8.51h0a12.09,12.09,0,0,0,7.09.2.71.71,0,0,1,.59.09.74.74,0,0,1,.34.5,11.49,11.49,0,0,1,.17,2C25.19,49.2,21.41,53.73,16.75,53.73ZM10,41.71a9.29,9.29,0,0,0-.19,1.93c0,4.74,3.11,8.59,6.94,8.59s6.94-3.85,6.94-8.59c0-.32,0-.63,0-.93a13.25,13.25,0,0,1-7.17-.43A11.79,11.79,0,0,0,10,41.71Z"/><path class="cls-1" d="M30,7.5H26A.75.75,0,0,1,26,6h4a.75.75,0,0,1,0,1.5Z"/><path class="cls-1" d="M28,9.5a.76.76,0,0,1-.75-.75v-4a.75.75,0,0,1,1.5,0v4A.76.76,0,0,1,28,9.5Z"/><path class="cls-1" d="M37,13.5H33A.75.75,0,0,1,33,12h4a.75.75,0,0,1,0,1.5Z"/><path class="cls-1" d="M35,15.5a.75.75,0,0,1-.75-.75v-4a.75.75,0,0,1,1.5,0v4A.74.74,0,0,1,35,15.5Z"/><path class="cls-1" d="M33,23.5H29A.75.75,0,0,1,29,22h4a.75.75,0,0,1,0,1.5Z"/><path class="cls-1" d="M31,25.5a.75.75,0,0,1-.75-.75v-4a.75.75,0,0,1,1.5,0v4A.74.74,0,0,1,31,25.5Z"/></g></g></svg>