<svg xmlns="http://www.w3.org/2000/svg" viewBox="0 0 65.5 65.5"><defs><style>.cls-1{fill:#a3d4ff;}.cls-2{fill:#fff;}.cls-3{fill:#2b5185;}</style></defs><title>Varlık 1</title><g id="katman_2" data-name="katman 2"><g id="layer_1" data-name="layer 1"><path class="cls-1" d="M10.75,10.75h44a0,0,0,0,1,0,0v52a2,2,0,0,1-2,2h-40a2,2,0,0,1-2-2v-52A0,0,0,0,1,10.75,10.75Z"/><path class="cls-2" d="M10.75,10.75h39a0,0,0,0,1,0,0v48a2,2,0,0,1-2,2h-37a0,0,0,0,1,0,0v-50A0,0,0,0,1,10.75,10.75Z"/><path class="cls-3" d="M52.75,65.5h-40A2.75,2.75,0,0,1,10,62.75v-52a.76.76,0,0,1,.75-.75h44a.75.75,0,0,1,.75.75v52A2.75,2.75,0,0,1,52.75,65.5ZM11.5,11.5V62.75A1.25,1.25,0,0,0,12.75,64h40A1.25,1.25,0,0,0,54,62.75V11.5Z"/><path class="cls-1" d="M12.75.75h40a2,2,0,0,1,2,2v8a0,0,0,0,1,0,0h-44a0,0,0,0,1,0,0v-8A2,2,0,0,1,12.75.75Z"/><path class="cls-2" d="M12.75.75h37a0,0,0,0,1,0,0v5a0,0,0,0,1,0,0h-39a0,0,0,0,1,0,0v-3a2,2,0,0,1,2-2Z"/><path class="cls-3" d="M54.75,11.5h-44a.76.76,0,0,1-.75-.75v-8A2.75,2.75,0,0,1,12.75,0h40A2.75,2.75,0,0,1,55.5,2.75v8A.75.75,0,0,1,54.75,11.5ZM11.5,10H54V2.75A1.25,1.25,0,0,0,52.75,1.5h-40A1.25,1.25,0,0,0,11.5,2.75Z"/><path class="cls-3" d="M39.76,6.5A.75.75,0,0,1,39,5.75a.74.74,0,0,1,.21-.53.77.77,0,0,1,1.06,0,.74.74,0,0,1,.23.53.75.75,0,0,1-.22.53A.79.79,0,0,1,39.76,6.5Z"/><path class="cls-3" d="M44,5.75A.75.75,0,0,1,44.76,5h0a.76.76,0,0,1,.75.75h0a.75.75,0,0,1-.75.75h0A.74.74,0,0,1,44,5.75Z"/><path class="cls-3" d="M49.76,6.5a.75.75,0,0,1-.53-1.28.78.78,0,0,1,1.06,0,.75.75,0,0,1,0,1.06A.77.77,0,0,1,49.76,6.5Z"/><path class="cls-1" d="M38.75,48.75H12a6,6,0,0,0-4,1.51L.75,56.75v-36a2,2,0,0,1,2-2h36a2,2,0,0,1,2,2v26A2,2,0,0,1,38.75,48.75Z"/><path class="cls-2" d="M34.75,44.75H10a6,6,0,0,0-4,1.51L.75,51V20.75a2,2,0,0,1,2-2h34v24A2,2,0,0,1,34.75,44.75Z"/><path class="cls-3" d="M.75,57.5a.7.7,0,0,1-.31-.07A.73.73,0,0,1,0,56.75v-36A2.75,2.75,0,0,1,2.75,18h36a2.75,2.75,0,0,1,2.75,2.75v26a2.75,2.75,0,0,1-2.75,2.75H12a5.26,5.26,0,0,0-3.49,1.33L1.25,57.31A.78.78,0,0,1,.75,57.5Zm2-38A1.25,1.25,0,0,0,1.5,20.75V55.08L7.55,49.7A6.74,6.74,0,0,1,12,48H38.75A1.25,1.25,0,0,0,40,46.75v-26a1.25,1.25,0,0,0-1.25-1.25Z"/><path class="cls-3" d="M20.75,32.5h-14a.75.75,0,0,1,0-1.5h14a.75.75,0,0,1,0,1.5Z"/><path class="cls-3" d="M20.75,26.5h-14a.75.75,0,0,1,0-1.5h14a.75.75,0,0,1,0,1.5Z"/><path class="cls-3" d="M15.75,38.5h-9a.75.75,0,0,1,0-1.5h9a.75.75,0,0,1,0,1.5Z"/><path class="cls-1" d="M64.75,64.75l-7.29-6.48a6,6,0,0,0-4-1.52H26.75a2,2,0,0,1-2-2v-27a2,2,0,0,1,2-2h36a2,2,0,0,1,2,2Z"/><path class="cls-2" d="M26.75,25.75a2,2,0,0,0-2,2v25H55.47a6,6,0,0,1,4,1.52l1.29,1.15V25.75Z"/><path class="cls-3" d="M64.75,65.5a.73.73,0,0,1-.5-.19L57,58.83a5.22,5.22,0,0,0-3.49-1.33H26.75A2.75,2.75,0,0,1,24,54.75v-27A2.75,2.75,0,0,1,26.75,25h36a2.75,2.75,0,0,1,2.75,2.75v37a.76.76,0,0,1-.44.69A.81.81,0,0,1,64.75,65.5Zm-38-39a1.25,1.25,0,0,0-1.25,1.25v27A1.25,1.25,0,0,0,26.75,56H53.47A6.71,6.71,0,0,1,58,57.71l6,5.37V27.75a1.25,1.25,0,0,0-1.25-1.25Z"/><path class="cls-2" d="M56.75,38.78a6.25,6.25,0,0,0-6.45-6,6.55,6.55,0,0,0-5.55,3,6.54,6.54,0,0,0-5.55-3,6.25,6.25,0,0,0-6.45,6c0,7.11,12,14,12,14S56.75,45.89,56.75,38.78Z"/><path class="cls-1" d="M50.3,32.75a6.7,6.7,0,0,0-3,.71,7.22,7.22,0,0,1,3.45,6.09c0,4.49-3.94,8.91-7.73,12.11,1,.7,1.73,1.09,1.73,1.09s12-6.86,12-14A6.25,6.25,0,0,0,50.3,32.75Z"/><path class="cls-3" d="M44.75,53.5a.69.69,0,0,1-.37-.1C43.87,53.11,32,46.24,32,38.78A7,7,0,0,1,39.2,32a7.41,7.41,0,0,1,5.55,2.48A7.41,7.41,0,0,1,50.3,32a7,7,0,0,1,7.2,6.78c0,7.46-11.87,14.33-12.38,14.62A.69.69,0,0,1,44.75,53.5Zm-5.55-20a5.51,5.51,0,0,0-5.7,5.28c0,5.92,9.26,11.88,11.25,13.1C46.74,50.66,56,44.7,56,38.78a5.51,5.51,0,0,0-5.7-5.28,5.86,5.86,0,0,0-4.92,2.62.77.77,0,0,1-1.26,0A5.86,5.86,0,0,0,39.2,33.5Z"/><path class="cls-3" d="M58.75,22.5a.76.76,0,0,1-.75-.75V10a.75.75,0,0,1,1.5,0V21.75A.75.75,0,0,1,58.75,22.5Z"/><path class="cls-3" d="M58.75,6.71A.75.75,0,0,1,58,6V3.75a.75.75,0,0,1,1.5,0V6A.74.74,0,0,1,58.75,6.71Z"/></g></g></svg>