<svg xmlns="http://www.w3.org/2000/svg" viewBox="0 0 65.5 65.5"><defs><style>.cls-1{fill:#a3d4ff;}.cls-2{fill:#fff;}.cls-3{fill:#2b5185;}</style></defs><title>features_Asset 1</title><g id="Layer_2" data-name="Layer 2"><g id="Layer_2-2" data-name="Layer 2"><rect class="cls-1" x="0.75" y="0.75" width="50" height="64" rx="3"/><path class="cls-2" d="M3.75.75h42a0,0,0,0,1,0,0v58a2,2,0,0,1-2,2H.75a0,0,0,0,1,0,0v-57A3,3,0,0,1,3.75.75Z"/><path class="cls-3" d="M47.75,65.5h-44A3.75,3.75,0,0,1,0,61.75v-58A3.76,3.76,0,0,1,3.75,0h44A3.76,3.76,0,0,1,51.5,3.75v58A3.75,3.75,0,0,1,47.75,65.5Zm-44-64A2.25,2.25,0,0,0,1.5,3.75v58A2.25,2.25,0,0,0,3.75,64h44A2.25,2.25,0,0,0,50,61.75v-58A2.25,2.25,0,0,0,47.75,1.5Z"/><path class="cls-1" d="M12.75.75h28a0,0,0,0,1,0,0v5a3,3,0,0,1-3,3h-22a3,3,0,0,1-3-3v-5A0,0,0,0,1,12.75.75Z"/><path class="cls-2" d="M12.75.75h25a0,0,0,0,1,0,0v4a1,1,0,0,1-1,1h-24a0,0,0,0,1,0,0v-5A0,0,0,0,1,12.75.75Z"/><path class="cls-3" d="M37.75,9.5h-22A3.75,3.75,0,0,1,12,5.75v-5A.76.76,0,0,1,12.75,0h28a.76.76,0,0,1,.75.75v5A3.75,3.75,0,0,1,37.75,9.5ZM13.5,1.5V5.75A2.25,2.25,0,0,0,15.75,8h22A2.25,2.25,0,0,0,40,5.75V1.5Z"/><polygon class="cls-1" points="60.13 17.26 32.6 44.79 28.75 53.26 37.22 49.41 64.75 21.88 63.98 18.03 60.13 17.26"/><polygon class="cls-2" points="60.13 17.26 32.6 44.79 30.5 49.41 36.55 46.07 64.08 18.55 63.98 18.03 60.13 17.26"/><path class="cls-3" d="M28.75,54A.75.75,0,0,1,28.07,53l3.85-8.47a.71.71,0,0,1,.15-.22L59.6,16.73a.77.77,0,0,1,.68-.21l3.85.77a.76.76,0,0,1,.59.59l.76,3.85a.74.74,0,0,1-.2.68L37.75,49.94a.86.86,0,0,1-.22.15l-8.47,3.85A.7.7,0,0,1,28.75,54Zm4.48-8.79-3,6.53,6.53-3L63.94,21.63l-.6-3-3-.6Z"/><polygon class="cls-2" points="41.38 36 45.23 36.77 46 40.63 37.22 49.41 36.45 45.56 32.6 44.79 41.38 36"/><path class="cls-3" d="M37.22,50.16l-.22,0a.76.76,0,0,1-.51-.58l-.68-3.36-3.36-.67a.74.74,0,0,1-.57-.52.75.75,0,0,1,.19-.74l8.78-8.79a.78.78,0,0,1,.68-.2l3.85.77a.75.75,0,0,1,.59.59l.77,3.85a.75.75,0,0,1-.2.67l-8.79,8.79A.75.75,0,0,1,37.22,50.16Zm-3.1-5.83,2.48.49a.75.75,0,0,1,.59.59l.49,2.47,7.51-7.5-.59-3-3-.59Z"/><path class="cls-3" d="M53.61,39.93a.74.74,0,0,1-.53-.22.75.75,0,0,1,0-1.06L63.15,28.58l-.95-4.74a.75.75,0,0,1,1.47-.29l1,5.13a.75.75,0,0,1-.21.68L54.14,39.71A.73.73,0,0,1,53.61,39.93Z"/><path class="cls-3" d="M64.75,4.5a.74.74,0,0,1-.53-.22l-3-3A.75.75,0,0,1,62.28.22l3,3a.75.75,0,0,1,0,1.06A.74.74,0,0,1,64.75,4.5Z"/><path class="cls-3" d="M61.75,4.5a.74.74,0,0,1-.53-.22.75.75,0,0,1,0-1.06l3-3a.75.75,0,0,1,1.06,1.06l-3,3A.74.74,0,0,1,61.75,4.5Z"/><path class="cls-3" d="M59.75,13.5a.77.77,0,0,1-.53-.21l-3-3a.77.77,0,0,1,0-1.07.75.75,0,0,1,1.06,0l3,3a.77.77,0,0,1,0,1.07A.77.77,0,0,1,59.75,13.5Z"/><path class="cls-3" d="M56.75,13.5a.77.77,0,0,1-.53-.21.77.77,0,0,1,0-1.07l3-3a.75.75,0,0,1,1.06,0,.77.77,0,0,1,0,1.07l-3,3A.77.77,0,0,1,56.75,13.5Z"/><path class="cls-3" d="M64.75,42.51a.79.79,0,0,1-.53-.22l-3-3a.75.75,0,0,1,0-1.06.74.74,0,0,1,1.06,0l3,3a.75.75,0,0,1,0,1.06A.79.79,0,0,1,64.75,42.51Z"/><path class="cls-3" d="M61.75,42.51a.79.79,0,0,1-.53-.22.75.75,0,0,1,0-1.06l3-3a.74.74,0,0,1,1.06,0,.75.75,0,0,1,0,1.06l-3,3A.79.79,0,0,1,61.75,42.51Z"/><path class="cls-3" d="M61.75,61.51a.74.74,0,0,1-.53-.22l-3-3a.75.75,0,0,1,1.06-1.06l3,3a.75.75,0,0,1,0,1.06A.74.74,0,0,1,61.75,61.51Z"/><path class="cls-3" d="M58.75,61.51a.74.74,0,0,1-.53-.22.75.75,0,0,1,0-1.06l3-3a.75.75,0,0,1,1.06,1.06l-3,3A.74.74,0,0,1,58.75,61.51Z"/><path class="cls-3" d="M57.75,52.51a.74.74,0,0,1-.53-.22l-3-3a.75.75,0,0,1,1.06-1.06l3,3a.75.75,0,0,1,0,1.06A.74.74,0,0,1,57.75,52.51Z"/><path class="cls-3" d="M54.75,52.51a.74.74,0,0,1-.53-.22.75.75,0,0,1,0-1.06l3-3a.75.75,0,0,1,1.06,1.06l-3,3A.74.74,0,0,1,54.75,52.51Z"/><rect class="cls-1" x="6.75" y="13.75" width="10" height="10" rx="2"/><path class="cls-2" d="M8.75,13.75h5a0,0,0,0,1,0,0v6a1,1,0,0,1-1,1h-6a0,0,0,0,1,0,0v-5A2,2,0,0,1,8.75,13.75Z"/><path class="cls-3" d="M14.75,24.5h-6A2.75,2.75,0,0,1,6,21.75v-6A2.75,2.75,0,0,1,8.75,13h6a2.75,2.75,0,0,1,2.75,2.75v6A2.75,2.75,0,0,1,14.75,24.5Zm-6-10A1.26,1.26,0,0,0,7.5,15.75v6A1.25,1.25,0,0,0,8.75,23h6A1.25,1.25,0,0,0,16,21.75v-6a1.26,1.26,0,0,0-1.25-1.25Z"/><path class="cls-3" d="M12.87,21.5h0a.76.76,0,0,1-.53-.21L9.22,18.16a.75.75,0,0,1,1.06-1.06l2.59,2.59,6.47-6.47a.75.75,0,0,1,1.06,1.07l-7,7A.74.74,0,0,1,12.87,21.5Z"/><rect class="cls-1" x="6.75" y="29.76" width="10" height="10" rx="2"/><path class="cls-2" d="M8.75,29.76h5a0,0,0,0,1,0,0v6a1,1,0,0,1-1,1h-6a0,0,0,0,1,0,0v-5A2,2,0,0,1,8.75,29.76Z"/><path class="cls-3" d="M14.75,40.51h-6A2.75,2.75,0,0,1,6,37.76v-6A2.75,2.75,0,0,1,8.75,29h6a2.75,2.75,0,0,1,2.75,2.75v6A2.75,2.75,0,0,1,14.75,40.51Zm-6-10A1.25,1.25,0,0,0,7.5,31.76v6A1.25,1.25,0,0,0,8.75,39h6A1.25,1.25,0,0,0,16,37.76v-6a1.25,1.25,0,0,0-1.25-1.25Z"/><path class="cls-3" d="M12.87,37.51h0a.77.77,0,0,1-.53-.22L9.22,34.16a.75.75,0,1,1,1.06-1.06l2.59,2.6,6.47-6.47a.75.75,0,0,1,1.06,1.06l-7,7A.75.75,0,0,1,12.87,37.51Z"/><rect class="cls-1" x="6.75" y="45.76" width="10" height="10" rx="2"/><path class="cls-2" d="M8.75,45.76h5a0,0,0,0,1,0,0v6a1,1,0,0,1-1,1h-6a0,0,0,0,1,0,0v-5A2,2,0,0,1,8.75,45.76Z"/><path class="cls-3" d="M14.75,56.51h-6A2.75,2.75,0,0,1,6,53.76v-6A2.75,2.75,0,0,1,8.75,45h6a2.75,2.75,0,0,1,2.75,2.75v6A2.75,2.75,0,0,1,14.75,56.51Zm-6-10A1.25,1.25,0,0,0,7.5,47.76v6A1.25,1.25,0,0,0,8.75,55h6A1.25,1.25,0,0,0,16,53.76v-6a1.25,1.25,0,0,0-1.25-1.25Z"/><path class="cls-3" d="M42.75,22h-6.1a.75.75,0,0,1,0-1.5h6.1a.75.75,0,0,1,0,1.5Z"/><path class="cls-3" d="M32.65,22h-9.9a.75.75,0,0,1,0-1.5h9.9a.75.75,0,0,1,0,1.5Z"/><path class="cls-3" d="M42.75,17h-10a.75.75,0,0,1,0-1.5h10a.75.75,0,0,1,0,1.5Z"/><path class="cls-3" d="M28.75,17h-6a.75.75,0,0,1,0-1.5h6a.75.75,0,0,1,0,1.5Z"/><path class="cls-3" d="M34.75,38h-12a.75.75,0,0,1,0-1.5h12a.75.75,0,0,1,0,1.5Z"/><path class="cls-3" d="M38.75,33h-6a.75.75,0,0,1,0-1.5h6a.75.75,0,1,1,0,1.5Z"/><path class="cls-3" d="M28.75,33h-6a.75.75,0,1,1,0-1.5h6a.75.75,0,0,1,0,1.5Z"/><path class="cls-3" d="M28.75,54h-6a.75.75,0,1,1,0-1.5h6a.75.75,0,0,1,0,1.5Z"/><path class="cls-3" d="M27,49H22.75a.75.75,0,1,1,0-1.5H27A.75.75,0,1,1,27,49Z"/></g></g></svg>