<svg xmlns="http://www.w3.org/2000/svg" xmlns:xlink="http://www.w3.org/1999/xlink" viewBox="0 0 5000 5000"><defs><style>.cls-1{fill:#43baa3;}.cls-2{fill:url(#linear-gradient);}.cls-3{fill:#db9958;}.cls-4{fill:#fff;}.cls-5{fill:#f0f9ff;}.cls-6{fill:#cad9ef;}.cls-7{fill:#228bd1;}.cls-8{fill:#d9eeff;}.cls-9{fill:#abd5ff;}.cls-10,.cls-11,.cls-24{fill:none;}.cls-10{stroke:#abd5ff;}.cls-10,.cls-11{stroke-miterlimit:10;stroke-width:5px;}.cls-11{stroke:#129583;stroke-linecap:round;}.cls-12{fill:#129583;}.cls-13{clip-path:url(#clip-path);}.cls-14{opacity:0.1;}.cls-15{clip-path:url(#clip-path-2);}.cls-16{clip-path:url(#clip-path-3);}.cls-17{fill:#fdc4af;}.cls-18{fill:#ce2e2e;}.cls-19{fill:#293160;}.cls-20{fill:#0054aa;}.cls-21{fill:#682e2d;}.cls-22{fill:#d3e0f4;}.cls-23{fill:#eaf0f4;}.cls-25{clip-path:url(#clip-path-4);}.cls-26{fill:#ec5352;}.cls-27{fill:#f4a795;}.cls-28{fill:#efcb73;}.cls-29{fill:#2b3568;}.cls-30{fill:#0e7c74;}.cls-31{fill:#2cc6af;}.cls-32{fill:#13b6a1;}.cls-33{fill:#19a195;}.cls-34{fill:#6596cc;}.cls-35{fill:#445aa4;}.cls-36{clip-path:url(#clip-path-5);}.cls-37{fill:#b77b44;}.cls-38{fill:#ff4946;}.cls-39{fill:#ececec;}.cls-40,.cls-41{fill:#4c4c4c;}.cls-41{opacity:0.31;}.cls-42{fill:url(#linear-gradient-3);}.cls-43{fill:#db3a3a;}.cls-44{fill:#ce3636;}.cls-45{fill:#f4ae98;}</style><linearGradient id="linear-gradient" x1="2871.97" y1="1827.01" x2="3121.69" y2="1827.01" gradientUnits="userSpaceOnUse"><stop offset="0.01" stop-color="#ee5a58"/><stop offset="0.96" stop-color="#ea4a4a"/><stop offset="1" stop-color="#ea4949"/></linearGradient><clipPath id="clip-path"><rect class="cls-1" x="3106.96" y="1378.23" width="102.58" height="36.92"/></clipPath><clipPath id="clip-path-2"><path class="cls-1" d="M3460.62,1437.07H3329.4a4.63,4.63,0,0,1-4.63-4.63v-71.5a4.63,4.63,0,0,1,4.63-4.63h131.22Z"/></clipPath><clipPath id="clip-path-3"><path class="cls-1" d="M3324.77,1429.17H3215.39a5.85,5.85,0,0,1-5.85-5.85v-53.27a5.85,5.85,0,0,1,5.85-5.85h109.38Z"/></clipPath><clipPath id="clip-path-4"><path class="cls-2" d="M2935.12,1553.69s5.15-18,20.59-22.9,41.72-.73,51.72,2.83,72,31.91,69,199.67,19.58,276.46,45.31,294c0,0-84.93,118.76-226.19,95.08,0,0-28.05-110.12-22.9-173.93S2914.28,1591.26,2935.12,1553.69Z"/></clipPath><clipPath id="clip-path-5"><path class="cls-3" d="M2761.44,1767.94s-39.11-.69-38.42-19.21,15.78-155.07,43.91-190.06,63.81-41.86,95.38-38.43,71.36,24,83,64.17l-11.33,46.5-20.23,3.23Z"/></clipPath><linearGradient id="linear-gradient-3" x1="3541.93" y1="2175.17" x2="3830.8" y2="2175.17" xlink:href="#linear-gradient"/></defs><title>09</title><g id="Layer_2" data-name="Layer 2"><g id="Layer_1-2" data-name="Layer 1"><rect class="cls-4" width="5000" height="5000"/><path class="cls-5" d="M1298,1825.19c17.93-110.36-34.46-301.61,125.79-429.19s322.88-11.62,547.24,64.82,364-42.15,442.39-234.6,583-162.89,741.36,94,89.21,488.28,637,504.93,713,694.07,442.86,846.39-459.15,314.31-382.07,575.26-377.15,695.07-788.7,435.92-612.66-290.15-1037.64-106.9-744.77-132.69-763.32-509.9-546.88-291.11-455.62-710.68S1273.77,1974.19,1298,1825.19Z"/><ellipse class="cls-6" cx="1433.48" cy="3816.7" rx="230.82" ry="81.77"/><ellipse class="cls-6" cx="4148.59" cy="3651.37" rx="160.56" ry="56.88"/><rect class="cls-7" x="1694.93" y="1938.7" width="855.28" height="673.96" rx="29.51"/><rect class="cls-8" x="1713.46" y="1956.38" width="818.23" height="638.62" rx="28.1"/><rect class="cls-9" x="1802.02" y="2026.62" width="523.87" height="24.7" rx="6.13"/><rect class="cls-9" x="1802.02" y="2121.3" width="523.87" height="24.7" rx="6.13"/><rect class="cls-9" x="1802.02" y="2215.99" width="523.87" height="24.7" rx="6.13"/><rect class="cls-9" x="1802.02" y="2310.68" width="523.87" height="24.7" rx="6.13"/><rect class="cls-9" x="1802.02" y="2405.37" width="523.87" height="24.7" rx="6.13"/><rect class="cls-9" x="1802.02" y="2500.06" width="523.87" height="24.7" rx="6.13"/><rect class="cls-10" x="2363.03" y="2003.58" width="74.62" height="74.62"/><rect class="cls-10" x="2363.03" y="2098.27" width="74.62" height="74.62"/><rect class="cls-10" x="2363.03" y="2192.96" width="74.62" height="74.62"/><rect class="cls-10" x="2363.03" y="2287.65" width="74.62" height="74.62"/><rect class="cls-10" x="2363.03" y="2382.34" width="74.62" height="74.62"/><rect class="cls-10" x="2363.03" y="2477.02" width="74.62" height="74.62"/><polyline class="cls-11" points="2352.96 2024.91 2397.22 2058.88 2467.21 1998.99"/><polyline class="cls-11" points="2352.96 2112.04 2397.22 2146.01 2467.21 2086.12"/><rect class="cls-12" x="3092.51" y="1371.41" width="16.47" height="50.56" rx="4.09"/><rect class="cls-12" x="3460.62" y="1345.68" width="20.58" height="102.02" rx="4.57"/><rect class="cls-1" x="3106.96" y="1378.23" width="102.58" height="36.92"/><g class="cls-13"><rect class="cls-14" x="3197.49" y="1370.32" width="18.35" height="49.75"/></g><path class="cls-1" d="M3460.62,1437.07H3329.4a4.63,4.63,0,0,1-4.63-4.63v-71.5a4.63,4.63,0,0,1,4.63-4.63h131.22Z"/><g class="cls-15"><rect class="cls-14" x="3443.47" y="1340.47" width="36.02" height="118.7"/></g><path class="cls-1" d="M3324.77,1429.17H3215.39a5.85,5.85,0,0,1-5.85-5.85v-53.27a5.85,5.85,0,0,1,5.85-5.85h109.38Z"/><g class="cls-16"><rect class="cls-14" x="3308.3" y="1356.31" width="21.66" height="79.78"/></g><path class="cls-17" d="M3241.19,1458s-17.14-30.32-18.19-44.29-14.24-56.43,30.05-50.36,47.73,6.32,48.25,32.43-28.47,70.13-28.47,70.13h-33.49Z"/><path class="cls-18" d="M2981.57,1545.46s9.86-18.5,29.16-10.74,152.65,133.73,186.61,132.7c0,0,24.63-167.7,24.16-199.32,0,0,26.76-14.24,57.12-.86,0,0-10.11,227.47-29.33,263.48-36.54,68.44-216.65-91.6-236.2-111.16S2970.63,1575.31,2981.57,1545.46Z"/><path class="cls-19" d="M2915.45,2707.86s-4.33,33.39,32.14,42.34c39,9.56,53.51,25.27,49.81,49.87s-50.36,22.81-76.22,9.58-73.6-9.47-85.25-24.1c0,0,2.71-38.23,13.13-54.82s7.66-39.85,7.66-39.85Z"/><path class="cls-19" d="M3345.06,2506.23s-5.83,43.87,30.64,52.82c39,9.57,53.51,25.28,49.82,49.88s-50.37,22.81-76.23,9.57-73.6-9.46-85.25-24.1c0,0,2.71-38.22,13.13-54.81s7.66-39.85,7.66-39.85Z"/><path class="cls-20" d="M3079.94,2039.83l30.54-10.29s159.47,46.79,217.72,62.95c66.9,18.56,101.55,39.79,84.39,133.79s-61.28,251-59.73,281.84c0,0-30.37,16.47-72.05-10.8,0,0,9.69-215.72,28.15-282.72,0,0-162.46-28.11-243.77-37.37,0,0-82.34,386.47-145.12,552.18,0,0-42.71,17.49-68.44-8.24,0,0,62.27-405.51,44.77-605.18Z"/><path class="cls-21" d="M3051.68,1370.66s49.4-15.61,24.7-67.07-81.82-53.52-100.35-41.17,1.55,32.42-18.52,42.2-51,3.6-65.87,59.18,37.31,105,73.85,110.13c0,0,16.46,9.78,29.84-9S3051.68,1370.66,3051.68,1370.66Z"/><rect class="cls-22" x="500" y="1592.84" width="933.48" height="1387.55"/><rect class="cls-23" x="516.79" y="1609.33" width="904.93" height="1351.32"/><polygon class="cls-4" points="1421.71 2283.16 975.35 2283.16 975.35 1609.33 955.1 1609.33 955.1 2283.16 516.79 2283.16 516.79 2308.26 955.1 2308.26 955.1 2960.65 975.35 2960.65 975.35 2308.26 1421.71 2308.26 1421.71 2283.16"/><rect class="cls-24" x="745.02" y="1948.94" width="448.01" height="673.62"/><path class="cls-4" d="M1203.16,1949h218.56v-12.57H1203.16V1609.33H1193v327.05H745V1609.33H734.89v327.05H516.79V1949h218.1v673.6H516.79v12.57h218.1v325.53H745V2635.12h448v325.53h10.13V2635.12h218.56v-12.57H1203.16ZM1193,2622.55H745V1949h448Z"/><path class="cls-22" d="M963.2,1609.33S862.62,2119,516.79,2205.1c0,0,74.84,412,74.84,755.55H516.79V1609.33Z"/><path class="cls-22" d="M975.61,1609.33S1076.19,2119,1422,2205.1c0,0-74.84,412-74.84,755.55H1422V1609.33Z"/><path class="cls-17" d="M3122.18,1687.66s-19.4-28.92-12.7-44,13.48-23.11,15.28-38.8,27.27-9.27,44,6.94,33.44,20.07,27.27,44.52-38.34,48.37-38.34,48.37Z"/><path class="cls-2" d="M2935.12,1553.69s5.15-18,20.59-22.9,41.72-.73,51.72,2.83,72,31.91,69,199.67,19.58,276.46,45.31,294c0,0-84.93,118.76-226.19,95.08,0,0-28.05-110.12-22.9-173.93S2914.28,1591.26,2935.12,1553.69Z"/><g class="cls-25"><path class="cls-14" d="M2863.34,1986.57s44.77,1.61,47.85-36.81,50.67-411.82,50.67-411.82l-49.12-9.38S2823.2,1899.7,2863.34,1986.57Z"/></g><path class="cls-17" d="M1526.39,2178.54s-21.28,46.37,0,89.6c0,0-30.88,25.73-66.56,3.09,0,0,9.26-19.22,4.8-44.95Z"/><path class="cls-26" d="M1528.39,3734.16c-50.31,50.48-126.91-34.12-139.81-49.17a118.44,118.44,0,0,1-1.48,23.36c-3.43,18.53-2.75,30.19,7.55,51.46s11,45.29,11,45.29,6.87,5.49,21.27,0v-52.83l55.24,49.23s57.64,11.32,105.32-12.18C1587.45,3789.32,1565.64,3751.44,1528.39,3734.16Z"/><path class="cls-27" d="M1528.39,3734.16a96.62,96.62,0,0,0-9.55-3.85s-54.16-31.56-64.13-53.52-9.29-490.59-9.29-490.59L1372,3174.53,1353.5,3195s-20.61,49.16-13.4,132.52,47,337.59,47,337.59a194.76,194.76,0,0,1,1.48,19.86C1401.48,3700,1478.08,3784.64,1528.39,3734.16Z"/><path class="cls-26" d="M1277.54,3683.44c-22.19,22.64-18.58,43.58-10,76.89,8.75,34,3.6,71.65,3.6,71.65,14.92,7.32,25.22,0,25.22,0l13.89-47.46,53.52,41.68c67.41,18,108.92-5.31,108.92-5.31-6.85-18.18-27.44-35.42-43.56-46.73C1360.22,3818.27,1296.1,3716.69,1277.54,3683.44Z"/><path class="cls-17" d="M1567.55,3232.86c13.73-26.76,9.61-61.76,9.61-63.82l-114.59,20.59c-63.81,43.23-136.88,353-150.78,408.6s-32.93,83.88-32.93,83.88c-.46.45-.88.89-1.32,1.33,18.56,33.25,82.68,134.83,151.59,90.72a245.62,245.62,0,0,0-21.1-13.32s-44.26-40.14-44.26-54.54,18.53-93.66,44.26-165.71S1553.83,3259.62,1567.55,3232.86Z"/><path class="cls-12" d="M1397.73,2642.09l-18.18,2.06s-24.7,71.35-62.44,137.22-14.41,225.06-10.29,268.29,33.62,142,33.62,142,148.89,43.22,242.21-10.29c0,0,38.42-256.62,29.5-341s-29.5-196.23-29.5-196.23Z"/><path class="cls-17" d="M1329.46,2721.18s7.34,34.84,39.11,6.4c24-21.49-5.49-29.38-5.49-29.38Z"/><path class="cls-3" d="M1414.38,2352.32c5.49-7.37,22.42-34,4.58-54.83s-55.18-24.73-81.68,1.22-136.08,143.12-136.08,143.12-29.72,25.45-15.62,59.12,138.75,225.76,138.75,225.76,36.15-7.2,41.46-32.87l-110.94-205.36S1379.58,2399.09,1414.38,2352.32Z"/><path class="cls-28" d="M1481.1,2268l-21.27,3.26s-59.64-3.49-97.09,15.26c0,0-11.31,78.25-1,160.05,11.32,90.05,20.59,169.47,17.84,197.61,0,0,111.84,42.54,203.1,0,0,0-4.08-62,9-131.74s48.45-123.51,40.78-229c0,0-43.74-16.32-106-15.27Z"/><path class="cls-29" d="M2164.56,2233a2.14,2.14,0,0,0,2.18-.48.36.36,0,0,1,.53,0l13,8.34,10.56,6.78a13.29,13.29,0,0,1,2.86,1.63c.43.26.43.44,0,.72a1.75,1.75,0,0,1-2.63-.9.64.64,0,0,0-.45-.44,107.64,107.64,0,0,0-22-5.62c-2.65-.41-5.32-.69-8-1a1.05,1.05,0,0,1-.7-.35c-3.28-3.51-6.57-7-10-10.35a85.2,85.2,0,0,0-11.64-9.55c-.32-.22-.64-.44-1-.64s-.3-.29-.14-.55c1.65-2.54,3.28-5.09,4.92-7.63l2.1-3.28c.24-.38.27-.39.65-.16a84.54,84.54,0,0,0,10.15,5.22c5,2.19,10.09,4,15.2,5.85.91.33,1.83.65,2.74,1a1.14,1.14,0,0,1,.54.45,123.38,123.38,0,0,0,10.57,15.75,88,88,0,0,0,8,8.81.54.54,0,0,0,.51.17,1.76,1.76,0,0,1,2,2.16c-.08.33-.22.4-.51.22a13.78,13.78,0,0,1-2.3-1.5,23.36,23.36,0,0,0-3.11-2.16c-1.06-.73-2.16-1.4-3.24-2.09l-3.22-2.07q-7.26-4.64-14.5-9.29a.33.33,0,0,1-.16-.47,2.25,2.25,0,0,0-1.43-2.82,2.27,2.27,0,0,0-2.84,1.33A2.3,2.3,0,0,0,2164.56,2233Z"/><rect class="cls-29" x="2063.92" y="2090.44" width="15.41" height="170.38" rx="3.82" transform="translate(-845.08 2895.24) rotate(-60.26)"/><path class="cls-17" d="M2002.91,2240.69s25.22-54,43.23-65.35,48.89-24.19,48.89-24.19,11.83-9.26,24.7,4.63,21.1,35.51,21.1,35.51,11.83,16.47-10.81,24.7-73.59,26.76-90.06,38.6-17,13.38-17,13.38Z"/><path class="cls-3" d="M1659.75,2295.32c-9.88-7.05-37.74-22.35-57.46.69-17.49,20.44-8.5,69.09,24.28,86.44s177.7,86.15,177.7,86.15,33.28,20.58,61.07-3.09,169.79-202.9,169.79-202.9-14.72-30.15-40.79-27.41l-161.93,168.11S1708.06,2329.82,1659.75,2295.32Z"/><rect class="cls-22" x="1750.75" y="2975.55" width="487.85" height="714.28"/><rect class="cls-22" x="2504.96" y="2817.05" width="487.85" height="872.77"/><rect class="cls-22" x="3259.17" y="2628.06" width="487.85" height="1061.77"/><path class="cls-30" d="M4126.72,3221.65s-33.21-282.81,2.47-390.84,110.13-183.41,188.29-137.11-113.9,384.17-111.2,538.86Z"/><path class="cls-31" d="M4112.88,3255.19s-351.13-474.33-241-575.63S4143.14,2935.09,4112.88,3255.19Z"/><path class="cls-30" d="M3906.09,2735A1251.6,1251.6,0,0,1,3998,2897.49a1368.45,1368.45,0,0,1,64.44,163.77,1539.58,1539.58,0,0,1,41.13,155.54q14.79,70.35,23.45,141.82c4.87,39.84,8.36,79.82,10.87,119.87.26,4.26.65,8.52.85,12.79.05,1.2,1.94,1.21,1.88,0-1.84-39.31-4.32-78.47-8.69-117.6q-7.81-69.88-21.3-139a1533.8,1533.8,0,0,0-39-155.9,1366.94,1366.94,0,0,0-61-161.72,1197.59,1197.59,0,0,0-89.6-163.69q-6.43-9.81-13.08-19.48c-.79-1.15-2.66-.08-1.88,1.09Z"/><path class="cls-30" d="M4093.83,3024.1c-1.13,32-1.64,64-3.31,95.93-.41,8-1.37,16.16-1,24.14,0,.86,1.41,1.15,1.59.21,1.29-6.73,1.46-13.8,1.89-20.63q.71-11.19,1.27-22.4c.81-16,1.35-32.09,1.52-48.15.1-9.7.14-19.4-.14-29.1a.93.93,0,0,0-1.86,0Z"/><path class="cls-30" d="M4039.15,2861.55c-1.13,32-1.64,64-3.31,95.93-.41,8-1.37,16.16-1,24.14,0,.87,1.41,1.16,1.59.22,1.3-6.73,1.46-13.81,1.89-20.64q.7-11.19,1.27-22.39c.81-16,1.35-32.09,1.52-48.15.1-9.71.14-19.4-.14-29.11a.93.93,0,0,0-1.86,0Z"/><path class="cls-30" d="M3959,2715.12c1.85,18,3,36,3.37,54,.17,9.33.18,18.67,0,28q-.14,6.87-.43,13.72a131.18,131.18,0,0,0-.27,13.73c.05.86,1.39,1.16,1.59.22,1.79-8.8,1.62-18.27,1.9-27.22.29-9.48.39-19,.2-28.45-.36-18.13-1.39-36.39-4.51-54.27-.18-1-1.94-.8-1.83.25Z"/><path class="cls-30" d="M3896.37,2799.6c15.3,9.63,30.23,19.82,44.67,30.71q11.48,8.66,22.62,17.77c6.8,5.58,13.26,12,20.52,16.94.8.55,1.54-.61,1-1.27-5.81-6.82-13.37-12.51-20.22-18.22-7.21-6-14.54-11.87-22-17.51-14.51-10.94-29.54-21.44-45.59-30a.93.93,0,0,0-.94,1.61Z"/><path class="cls-30" d="M3907.24,2828c15.31,9.62,30.24,19.81,44.67,30.7q11.49,8.66,22.62,17.77c6.8,5.58,13.26,12,20.52,16.94.8.55,1.54-.61,1-1.27-5.8-6.82-13.37-12.51-20.22-18.22-7.21-6-14.54-11.87-22-17.51-14.52-10.94-29.55-21.44-45.6-30a.94.94,0,0,0-.94,1.62Z"/><path class="cls-30" d="M3967.5,2971.2c15.3,9.63,30.23,19.81,44.67,30.7q11.48,8.66,22.62,17.77c6.8,5.58,13.26,12,20.52,16.94.8.55,1.54-.61,1-1.27-5.81-6.82-13.37-12.51-20.22-18.22-7.21-6-14.54-11.87-22-17.51-14.51-10.94-29.54-21.44-45.59-30a.93.93,0,0,0-.94,1.61Z"/><path class="cls-32" d="M4203,3156.77S4541.51,2673.36,4428.7,2575,4164.31,2837.58,4203,3156.77Z"/><path class="cls-30" d="M4394.12,2630.25a1187.86,1187.86,0,0,0-88.89,165.12,1348,1348,0,0,0-60.07,164.51A1515,1515,0,0,0,4208,3117.23q-12.84,70.77-19.53,142.47c-3.8,40.15-6.2,80.45-6.94,120.77-.08,4.34,0,8.68-.09,13a.94.94,0,0,0,1.88,0c.79-39,3.42-78.14,6.78-117q6.08-70.45,17.95-140.26a1559.15,1559.15,0,0,1,34.71-155.34,1394.23,1394.23,0,0,1,56.6-163.65,1259.23,1259.23,0,0,1,84.12-165.61q6.16-10.2,12.54-20.27c.75-1.18-1.12-2.26-1.88-1.09Z"/><path class="cls-30" d="M4214.08,2925.28c-.08,32.24,2.2,64.54,5,96.65.68,7.76,1,15.85,2.68,23.48.2.91,1.57.67,1.59-.22.18-7-.8-14.2-1.37-21.2q-.87-11-1.63-22c-1.08-15.88-2-31.76-2.88-47.66-.53-9.69-.95-19.39-1.55-29.08a.93.93,0,0,0-1.86,0Z"/><path class="cls-30" d="M4264.46,2761.35c-.08,32.24,2.2,64.55,5,96.65.69,7.77,1,15.85,2.69,23.48a.81.81,0,0,0,1.58-.21c.18-7-.8-14.2-1.36-21.2q-.89-11-1.63-22-1.62-23.82-2.89-47.66c-.53-9.7-.94-19.4-1.54-29.09a.94.94,0,0,0-1.87,0Z"/><path class="cls-30" d="M4340.8,2612.61c-2.65,18-3.21,36.22-3.09,54.35.07,9.49.41,19,.95,28.44.51,8.94.58,18.43,2.61,27.18a.81.81,0,0,0,1.59-.22,133.49,133.49,0,0,0-.63-13.7c-.31-4.42-.56-8.84-.78-13.26-.45-9.47-.69-19-.77-28.44-.14-18.06.57-36.1,1.95-54.1.08-1-1.68-1.3-1.83-.25Z"/><path class="cls-30" d="M4406.47,2694.05c-15.66,8.91-30.26,19.69-44.36,30.87-7.38,5.84-14.58,11.9-21.65,18.11-6.82,6-14.36,12-20.08,19.06-.53.65.17,1.85,1,1.27,7.12-5.17,13.4-11.71,20.06-17.47q10.66-9.22,21.72-18c14.27-11.4,29.07-22.08,44.27-32.21a.93.93,0,0,0-.94-1.61Z"/><path class="cls-30" d="M4396.35,2722.73c-15.66,8.92-30.26,19.69-44.37,30.87q-11.06,8.78-21.64,18.12c-6.82,6-14.37,12-20.09,19.05-.52.65.18,1.86,1,1.27,7.13-5.17,13.41-11.7,20.06-17.46q10.68-9.24,21.73-18c14.27-11.41,29.07-22.09,44.27-32.22a.93.93,0,0,0-.94-1.61Z"/><path class="cls-30" d="M4339.87,2867.45c-15.65,8.92-30.26,19.69-44.36,30.87q-11.06,8.78-21.64,18.11c-6.82,6-14.37,12-20.09,19.06-.52.65.18,1.86,1,1.27,7.13-5.17,13.41-11.71,20.06-17.46q10.68-9.24,21.72-18c14.28-11.4,29.08-22.08,44.28-32.21a.94.94,0,0,0-.95-1.61Z"/><path class="cls-33" d="M4117.83,3053.13s-203.34-554-69.08-620.19S4237,2754.51,4117.83,3053.13Z"/><path class="cls-30" d="M4065.92,2495.78a1113.39,1113.39,0,0,1,40.42,183.14c8.1,59.47,11.94,119.48,13,179.46,1,55.14-.39,110.29-2.57,165.39-1.93,48.9-4.63,97.78-5.92,146.7-1.06,39.9-1.43,80.14,3.16,119.85.46,4,1,8,1.65,12,.16,1,2,.8,1.85-.25-4.39-38.83-4.68-77.91-3.87-116.94,1-48.08,3.67-96.1,5.77-144.14,2.37-54.5,4.12-109,3.63-163.59-.52-59.27-3.58-118.54-10.77-177.39-7.53-61.62-19.35-122.82-37.23-182.31q-3.39-11.29-7.06-22.51c-.43-1.32-2.51-.77-2.09.57Z"/><path class="cls-30" d="M4164.63,2826c-10.6,32-23.18,63.16-35.6,94.47-3,7.53-6.45,15.19-8.38,23.07-.21.86,1,1.47,1.47.63,3.19-6.24,5.53-13,8.15-19.5,3-7.42,6-14.82,9.07-22.23,6.41-15.66,12.66-31.4,18.2-47.39,3.26-9.43,6.33-18.91,8.89-28.56a.93.93,0,0,0-1.8-.49Z"/><path class="cls-30" d="M4157.94,2654.67c-10.09,30.38-19.59,60.93-30.19,91.13-2.65,7.53-5.87,15.11-7.72,22.88-.21.86,1,1.47,1.48.62,3.14-6.09,5.28-12.84,7.62-19.27q3.82-10.53,7.53-21.13c5.29-15.16,10.33-30.41,15-45.77,2.83-9.28,5.6-18.57,8.07-28a.93.93,0,0,0-1.8-.5Z"/><path class="cls-30" d="M4122.24,2491.58c-3.28,17.76-7.21,35.38-12,52.8q-3.7,13.5-7.9,26.86c-1.38,4.37-2.81,8.71-4.28,13.05a130.71,130.71,0,0,0-4.13,13.09c-.19.85,1,1.46,1.48.62,4.21-7.94,6.7-17.08,9.49-25.59,2.95-9,5.71-18.09,8.2-27.24,4.77-17.5,8.91-35.3,10.95-53.34.12-1-1.64-1.28-1.83-.25Z"/><path class="cls-30" d="M4038.41,2555c12.09,13.68,23.66,27.8,34.54,42.48q8.4,11.34,16.37,23c5,7.27,9.36,15.2,14.92,22,.62.77,1.61-.21,1.27-1-3.66-8.18-9.31-15.77-14.28-23.19q-8-11.92-16.54-23.44c-10.76-14.41-22.12-28.57-35-41.2-.87-.85-2.11.42-1.32,1.32Z"/><path class="cls-30" d="M4040.84,2585.35c12.09,13.69,23.66,27.81,34.54,42.48q8.4,11.36,16.37,23c5,7.27,9.36,15.2,14.92,22,.62.77,1.61-.21,1.27-1-3.66-8.18-9.31-15.77-14.28-23.19q-8-11.91-16.53-23.43c-10.77-14.42-22.13-28.58-35-41.21-.87-.85-2.11.43-1.32,1.32Z"/><path class="cls-30" d="M4054.41,2735.11c12.09,13.69,23.66,27.81,34.54,42.49q8.4,11.34,16.37,23c5,7.27,9.36,15.19,14.92,22,.62.77,1.61-.21,1.27-1-3.66-8.18-9.31-15.77-14.28-23.19q-8-11.91-16.53-23.43c-10.77-14.42-22.12-28.58-35-41.21-.87-.85-2.11.43-1.32,1.32Z"/><path class="cls-31" d="M4137.17,3170s209.67-288.16,142.64-348.79S4117.31,2976.9,4137.17,3170Z"/><path class="cls-30" d="M4258,2854a705.55,705.55,0,0,0-55.65,98.62,807.29,807.29,0,0,0-38.15,98.74,909.66,909.66,0,0,0-24.23,94.92q-8.51,42.64-13.3,85.9c-2.7,24.1-4.57,48.31-5.31,72.55-.08,2.65-.11,5.31-.12,8a.94.94,0,0,0,1.88,0c1.73-23.54,3.15-47.07,5.62-70.55q4.44-42.39,12.39-84.3a945.9,945.9,0,0,1,22.65-93.33,845,845,0,0,1,36.06-98.53,776.25,776.25,0,0,1,52.18-98.59q3.87-6.19,7.86-12.3c.76-1.18-1.1-2.25-1.88-1.1Z"/><path class="cls-30" d="M4146.4,3030.4c-.26,13,.2,25.93.8,38.87.27,5.79.63,11.58,1,17.37.37,5.42.5,11,1.52,16.37.11.56.94.4,1-.13.18-5.38-.48-10.86-.8-16.24-.35-5.94-.64-11.88-.92-17.82-.61-12.8-.9-25.62-1.45-38.42a.57.57,0,0,0-1.13,0Z"/><path class="cls-30" d="M4178.61,2932c-.26,13,.2,25.93.8,38.87.27,5.79.64,11.58,1,17.37.36,5.42.49,11,1.51,16.37.11.56.94.41,1-.13.18-5.38-.48-10.86-.8-16.24-.35-5.94-.64-11.88-.92-17.82-.61-12.8-.89-25.61-1.45-38.42a.57.57,0,0,0-1.13,0Z"/><path class="cls-30" d="M4226.32,2843a216.76,216.76,0,0,0-2.45,32.79c-.07,5.69,0,11.37.25,17,.22,5.47.24,11.17,1.29,16.56.11.56.94.4,1-.13.22-5.45-.4-11-.56-16.43-.16-5.68-.2-11.36-.15-17,.11-10.9.75-21.78,1.77-32.64.06-.62-1-.77-1.11-.15Z"/><path class="cls-30" d="M4265.07,2892.9a216,216,0,0,0-27.52,18.46c-4.27,3.27-8.45,6.66-12.56,10.13-4.31,3.64-8.93,7.27-12.63,11.55-.34.39.11,1.11.59.76,4.16-3,7.92-6.66,11.86-10q6.88-5.74,14-11.21c8.66-6.65,17.63-12.86,26.82-18.76a.56.56,0,0,0-.57-1Z"/><path class="cls-30" d="M4258.65,2910.1a217.11,217.11,0,0,0-27.52,18.47c-4.27,3.27-8.45,6.66-12.56,10.13-4.31,3.64-8.94,7.27-12.64,11.54-.34.39.11,1.12.59.77,4.17-3,7.92-6.66,11.86-10q6.89-5.76,14-11.21c8.66-6.65,17.63-12.86,26.82-18.76a.57.57,0,0,0-.57-1Z"/><path class="cls-30" d="M4223,2996.86a217,217,0,0,0-27.52,18.46q-6.4,4.92-12.56,10.14c-4.31,3.64-8.93,7.27-12.63,11.54-.34.39.11,1.11.59.77,4.16-3,7.92-6.66,11.86-10q6.87-5.76,14-11.21c8.66-6.65,17.63-12.87,26.82-18.77a.56.56,0,0,0-.57-1Z"/><polygon class="cls-34" points="4277.97 3228.4 4276.48 3238.38 4273.33 3259.59 4242.99 3662.48 4061.98 3662.48 4031.63 3259.59 4028.49 3238.38 4026.99 3228.4 4277.97 3228.4"/><polygon class="cls-35" points="4276.48 3238.38 4273.33 3259.59 4031.63 3259.59 4028.49 3238.38 4276.48 3238.38"/><path class="cls-34" d="M4281.5,3247.53H4023.45a15,15,0,0,1-15-15h0a15,15,0,0,1,15-15H4281.5a15,15,0,0,1,15,15h0A15,15,0,0,1,4281.5,3247.53Z"/><path class="cls-3" d="M2761.44,1767.94s-39.11-.69-38.42-19.21,15.78-155.07,43.91-190.06,63.81-41.86,95.38-38.43,71.36,24,83,64.17l-11.33,46.5-20.23,3.23Z"/><g class="cls-36"><path class="cls-37" d="M2736.28,1771.22s23-171,44.25-199.66c20.59-27.79,42.2-35.34,85.08-25.73s71.71,47,75.14,82S2807,1634,2807,1635s-45.63,144.78-45.63,144.78Z"/></g><path class="cls-3" d="M2922,1559.1s17.37-22.66,33.71-28.31c17.21-6,52.07,1.7,51.72,2.83,0,0,81.3,24.7,114.75,87.49l-7.72,29.33s-35-52-89.54-72-77.19-18-90.57,0Z"/><path class="cls-21" d="M902.68,2151.15c-53.24,7.61-126.94,46.32-94,141.69s89.88,129.68,153.7,108.41,82.86-82,136.54-59c78.56,33.62,115.27-11.66,155.07-46,40.23-34.68,92.63,8.92,175.65-37.05s148.21-90.57,160.56-183.2-59-125.57-113.22-126.25-105,39.79-123.5,75.47-70,68.62-153,54.21-98.12-13-140.66,30.19S956.71,2143.43,902.68,2151.15Z"/><circle class="cls-38" cx="4108.35" cy="1782.38" r="318.61"/><circle class="cls-39" cx="4108.35" cy="1782.38" r="245.39"/><circle class="cls-38" cx="4108.35" cy="1782.38" r="177.19"/><circle class="cls-39" cx="4108.35" cy="1782.38" r="110.38"/><circle class="cls-38" cx="4108.35" cy="1782.38" r="49.8"/><polygon class="cls-40" points="4098.07 1778.39 4318.93 1558.05 4318.93 1528.89 4397.57 1448.89 4399.8 1478.21 4418.28 1493.19 4443.46 1494.15 4365.06 1575.73 4334.78 1575.1 4114.25 1792.76 4098.07 1778.39"/><polygon class="cls-41" points="4106.71 1786.06 4119.83 1773.46 4362.06 1975.13 4348.98 1991.22 4106.71 1786.06"/><polygon class="cls-42" points="3544.93 2074.65 3830.8 2183.06 3541.93 2275.69 3544.93 2074.65"/><rect class="cls-40" x="3536.44" y="2071.9" width="16.98" height="556.15"/><path class="cls-3" d="M2903.39,1849.77s22.73,56.09,88.6,25.89l12.35,21.28s-66.39,30.78-104.9-18.92l-3.94-6,4.63-27Z"/><path class="cls-28" d="M2782.71,1585.43s-29.5,116.64-32.93,199.66.69,159.19,54.89,173.6,77.45,2.74,84.35-6.18l48.08-343.75S2808.1,1578.56,2782.71,1585.43Z"/><rect class="cls-22" x="805.25" y="3238.98" width="199.19" height="73.75"/><rect class="cls-23" x="921.96" y="3312.73" width="199.19" height="73.75"/><rect class="cls-22" x="4184.1" y="2229.07" width="199.19" height="73.75"/><rect class="cls-23" x="4300.81" y="2302.82" width="199.19" height="73.75"/><rect class="cls-6" x="1593.04" y="1567.18" width="957.17" height="23.67"/><rect class="cls-6" x="1709.16" y="1586.73" width="17.34" height="113.9"/><rect class="cls-6" x="2411.34" y="1586.73" width="17.34" height="113.9"/><rect class="cls-6" x="1713.71" y="1414.12" width="55.23" height="165.84"/><rect class="cls-6" x="1777.52" y="1414.12" width="55.23" height="165.84"/><rect class="cls-6" x="1841.33" y="1414.12" width="55.23" height="165.84"/><rect class="cls-6" x="1905.14" y="1414.12" width="55.23" height="165.84"/><rect class="cls-6" x="1968.96" y="1414.12" width="55.23" height="165.84"/><rect class="cls-6" x="2032.77" y="1414.12" width="55.23" height="165.84"/><rect class="cls-6" x="2127.8" y="1226.9" width="372.3" height="340.27"/><rect class="cls-5" x="2159.79" y="1256.14" width="308.33" height="281.8"/><circle class="cls-6" cx="2312.99" cy="1397.8" r="76.85"/><path class="cls-43" d="M3022.09,1882.34c26.21-1.58,100.87-149.58,123.82-196.34-13.68-6.91-30-5.43-30-5.43-4.6,32-74.81,148.32-74.81,148.32s9.6-140.65,2.4-192.12-27.8-56.6-49.06-55.57a32.6,32.6,0,0,0-7.75,1.28C2988.43,1656.68,2996,1883.9,3022.09,1882.34Z"/><path class="cls-44" d="M3145.91,1686c-22.95,46.76-97.61,194.76-123.82,196.34-26.05,1.56-33.66-225.66-35.45-299.86-15.28,4.45-20.85,19.23-22.78,28.22-7.27,33.74,7.07,190.92,14.62,238.26s22.77,91.78,66,67.76c55.44-30.8,117.33-213.39,117.33-213.39C3158.65,1694.76,3152.6,1689.38,3145.91,1686Z"/><path class="cls-45" d="M3007.43,1474.44,2992,1452.83s-21,11.05-24.7,16.81c-4.08,6.41,0,8.67-1.58,24.61,5.64,1.67,16.66,5.61,38.08,14.51C3003.12,1498,3003.61,1485.32,3007.43,1474.44Z"/><path class="cls-17" d="M2965.71,1494.25c-1.41,13.87-4.26,28.88-10,36.54,0,0,23.41-5.66,51.72,2.83a147.38,147.38,0,0,1-3.64-24.86C2982.37,1499.86,2971.35,1495.92,2965.71,1494.25Z"/><path class="cls-17" d="M3049.28,1354.2s37.74,87.14,14.41,122.13-69.64-4.12-80.62-20.93c0,0-17.16,13.72-29.51-11.32s12-35,22.65-27.45,10.63-10.29,14.75-23,22.64-7.89,32.25-18.87S3031.44,1352.48,3049.28,1354.2Z"/></g></g></svg>