<svg xmlns="http://www.w3.org/2000/svg" xmlns:xlink="http://www.w3.org/1999/xlink" width="695" height="411" viewBox="0 0 695 411">
  <defs>
    <style>
      .cls-1 {
        fill: #f2f1fa;
      }

      .cls-2 {
        fill: #fd9644;
      }

      .cls-3 {
        fill: #dc6362;
      }

      .cls-4 {
        fill: #aab0b6;
      }

      .cls-5 {
        fill: #467fcf;
      }

      .cls-6 {
        clip-path: url(#clip-path);
      }

      .cls-7 {
        clip-path: url(#clip-path-2);
      }

      .cls-15, .cls-8 {
        fill: #fff;
      }

      .cls-17, .cls-9 {
        fill: none;
      }

      .cls-9 {
        stroke: rgba(0,40,100,0.12);
      }

      .cls-10 {
        fill: #cfd4da;
      }

      .cls-11 {
        fill: #888e95;
      }

      .cls-12 {
        fill: #343a40;
      }

      .cls-13 {
        clip-path: url(#clip-path-3);
      }

      .cls-14 {
        clip-path: url(#clip-path-4);
      }

      .cls-16 {
        clip-path: url(#clip-path-5);
      }

      .cls-17 {
        stroke: #aab0b6;
        stroke-linecap: round;
        stroke-width: 1.667px;
      }

      .cls-18 {
        clip-path: url(#clip-path-6);
      }

      .cls-19 {
        fill: #dbdde0;
      }

      .cls-20 {
        clip-path: url(#clip-path-8);
      }

      .cls-21 {
        fill: #fecd48;
      }

      .cls-22 {
        fill: #6dcdf7;
      }

      .cls-23 {
        fill: #fc6b6b;
      }

      .cls-24 {
        fill: #ffcb48;
      }

      .cls-25 {
        fill: #ffad4a;
      }

      .cls-26 {
        fill: #ff974a;
      }

      .cls-27 {
        fill: #ea4444;
      }

      .cls-28, .cls-29 {
        stroke: none;
      }

      .cls-29 {
        fill: rgba(0,40,100,0.12);
      }

      .cls-30 {
        filter: url(#Rectangle_622);
      }

      .cls-31 {
        filter: url(#Line_54);
      }

      .cls-32 {
        filter: url(#Path_1982);
      }
    </style>
    <filter id="Path_1982" x="0" y="0" width="695" height="411" filterUnits="userSpaceOnUse">
      <feOffset dy="6" input="SourceAlpha"/>
      <feGaussianBlur stdDeviation="7.5" result="blur"/>
      <feFlood flood-opacity="0.102"/>
      <feComposite operator="in" in2="blur"/>
      <feComposite in="SourceGraphic"/>
    </filter>
    <clipPath id="clip-path">
      <path id="Path_1983" data-name="Path 1983" class="cls-1" d="M10,0H640a10,10,0,0,1,10,10V356a10,10,0,0,1-10,10H10A10,10,0,0,1,0,356V10A10,10,0,0,1,10,0Z" transform="translate(836 2333)"/>
    </clipPath>
    <clipPath id="clip-path-2">
      <path id="Path_1984" data-name="Path 1984" d="M0,0H650V366H0Z"/>
    </clipPath>
    <filter id="Line_54" x="21" y="116.5" width="653" height="4" filterUnits="userSpaceOnUse">
      <feOffset dy="1" input="SourceAlpha"/>
      <feGaussianBlur stdDeviation="0.5" result="blur-2"/>
      <feFlood flood-opacity="0.122"/>
      <feComposite operator="in" in2="blur-2"/>
      <feComposite in="SourceGraphic"/>
    </filter>
    <clipPath id="clip-path-3">
      <path id="Rectangle_668" data-name="Rectangle 668" class="cls-2" d="M0,0H40V40H0Z" transform="translate(291 20)"/>
    </clipPath>
    <clipPath id="clip-path-4">
      <path id="Rectangle_208" data-name="Rectangle 208" class="cls-3" d="M0,0H13V13H0Z" transform="translate(129 314)"/>
    </clipPath>
    <clipPath id="clip-path-5">
      <path id="Rectangle_604" data-name="Rectangle 604" class="cls-4" d="M0,0H15V15H0Z" transform="translate(157 253)"/>
    </clipPath>
    <clipPath id="clip-path-6">
      <path id="Rectangle_120" data-name="Rectangle 120" class="cls-5" d="M0,0H15V15H0Z" transform="translate(-0.417)"/>
    </clipPath>
    <filter id="Rectangle_622" x="469" y="175" width="206" height="84" filterUnits="userSpaceOnUse">
      <feOffset dy="6" input="SourceAlpha"/>
      <feGaussianBlur stdDeviation="7.5" result="blur-3"/>
      <feFlood flood-opacity="0.161"/>
      <feComposite operator="in" in2="blur-3"/>
      <feComposite in="SourceGraphic"/>
    </filter>
    <clipPath id="clip-path-8">
      <path id="Rectangle_626" data-name="Rectangle 626" class="cls-4" d="M0,0H15V15H0Z" transform="translate(318 293)"/>
    </clipPath>
  </defs>
  <g id="dogumgunu" transform="translate(3066.5 -13250.5)">
    <g class="cls-32" transform="matrix(1, 0, 0, 1, -3066.5, 13250.5)">
      <path id="Path_1982-2" data-name="Path 1982" class="cls-1" d="M10,0H640a10,10,0,0,1,10,10V356a10,10,0,0,1-10,10H10A10,10,0,0,1,0,356V10A10,10,0,0,1,10,0Z" transform="translate(22.5 16.5)"/>
    </g>
    <g id="Mask_Group_319" data-name="Mask Group 319" class="cls-6" transform="translate(-3880 10934)">
      <g id="Mask_Group_324" data-name="Mask Group 324" class="cls-7" transform="translate(836 2333)">
        <path id="Path_1985" data-name="Path 1985" class="cls-8" d="M0,0H650V366H0Z"/>
        <g class="cls-31" transform="matrix(1, 0, 0, 1, -22.5, -16.5)">
          <path id="Line_54-2" data-name="Line 54" class="cls-9" d="M0,0H650" transform="translate(22.5 117.5)"/>
        </g>
        <path id="Öğrenciler" class="cls-4" d="M5.976.216A4.777,4.777,0,0,1,3.933-.216,4.55,4.55,0,0,1,2.34-1.449,5.78,5.78,0,0,1,1.3-3.393,8.327,8.327,0,0,1,.936-5.958,8.155,8.155,0,0,1,1.3-8.505,5.6,5.6,0,0,1,2.34-10.413a4.451,4.451,0,0,1,1.593-1.2,4.954,4.954,0,0,1,2.043-.414,4.863,4.863,0,0,1,2.043.423,4.633,4.633,0,0,1,1.6,1.206,5.515,5.515,0,0,1,1.044,1.908,8.091,8.091,0,0,1,.369,2.529,8.327,8.327,0,0,1-.369,2.565A5.69,5.69,0,0,1,9.621-1.449a4.636,4.636,0,0,1-1.6,1.233A4.777,4.777,0,0,1,5.976.216Zm0-1.314A2.984,2.984,0,0,0,7.407-1.44a3.216,3.216,0,0,0,1.1-.981,4.871,4.871,0,0,0,.711-1.53,7.375,7.375,0,0,0,.252-2.007,7.2,7.2,0,0,0-.252-1.98,4.546,4.546,0,0,0-.711-1.494,3.231,3.231,0,0,0-1.1-.945,3.049,3.049,0,0,0-1.431-.333,3.049,3.049,0,0,0-1.431.333,3.231,3.231,0,0,0-1.1.945,4.546,4.546,0,0,0-.711,1.494,7.2,7.2,0,0,0-.252,1.98,7.375,7.375,0,0,0,.252,2.007,4.871,4.871,0,0,0,.711,1.53,3.216,3.216,0,0,0,1.1.981A2.984,2.984,0,0,0,5.976-1.1ZM4.122-12.87a.855.855,0,0,1-.63-.252.855.855,0,0,1-.252-.63.847.847,0,0,1,.252-.639.872.872,0,0,1,.63-.243.864.864,0,0,1,.639.243A.864.864,0,0,1,5-13.752a.872.872,0,0,1-.243.63A.847.847,0,0,1,4.122-12.87Zm3.708,0a.847.847,0,0,1-.639-.252.872.872,0,0,1-.243-.63.864.864,0,0,1,.243-.639.864.864,0,0,1,.639-.243.872.872,0,0,1,.63.243.847.847,0,0,1,.252.639.855.855,0,0,1-.252.63A.855.855,0,0,1,7.83-12.87Zm8.55,16.9A6.6,6.6,0,0,1,14.9,3.879a3.59,3.59,0,0,1-1.143-.459,2.28,2.28,0,0,1-.738-.738,1.911,1.911,0,0,1-.261-1.008A1.861,1.861,0,0,1,13.1.612a3.593,3.593,0,0,1,.936-.918V-.378a1.713,1.713,0,0,1-.549-.549,1.587,1.587,0,0,1-.225-.873,1.59,1.59,0,0,1,.306-.972,2.76,2.76,0,0,1,.648-.648v-.072a3.58,3.58,0,0,1-.783-.963,2.722,2.722,0,0,1-.351-1.395,3.106,3.106,0,0,1,.261-1.3,2.928,2.928,0,0,1,.711-.981,3.136,3.136,0,0,1,1.053-.621,3.734,3.734,0,0,1,1.269-.216,3.44,3.44,0,0,1,.675.063,4.056,4.056,0,0,1,.567.153h3.042v1.134h-1.8a2.523,2.523,0,0,1,.513.774,2.508,2.508,0,0,1,.207,1.026,3.092,3.092,0,0,1-.252,1.269,2.774,2.774,0,0,1-.684.954,3.132,3.132,0,0,1-1.017.6,3.583,3.583,0,0,1-1.251.216,2.885,2.885,0,0,1-.666-.081,3.307,3.307,0,0,1-.648-.225,2.11,2.11,0,0,0-.4.441,1.064,1.064,0,0,0-.162.6.852.852,0,0,0,.324.684,2,2,0,0,0,1.224.27h1.692a4.275,4.275,0,0,1,2.3.495,1.756,1.756,0,0,1,.765,1.593A2.349,2.349,0,0,1,20.5,2.169a2.971,2.971,0,0,1-.882.963,4.626,4.626,0,0,1-1.395.657A6.482,6.482,0,0,1,16.38,4.032Zm0-7.794a1.772,1.772,0,0,0,.711-.144,1.831,1.831,0,0,0,.594-.414,1.869,1.869,0,0,0,.405-.657,2.49,2.49,0,0,0,.144-.873,2.013,2.013,0,0,0-.54-1.5,1.8,1.8,0,0,0-1.314-.531,1.8,1.8,0,0,0-1.314.531,2.013,2.013,0,0,0-.54,1.5,2.49,2.49,0,0,0,.144.873,1.869,1.869,0,0,0,.4.657,1.831,1.831,0,0,0,.594.414A1.772,1.772,0,0,0,16.38-3.762ZM16.6,3.006a3.992,3.992,0,0,0,1.143-.153,3.174,3.174,0,0,0,.873-.4,1.856,1.856,0,0,0,.558-.567,1.262,1.262,0,0,0,.2-.666.868.868,0,0,0-.45-.846A2.924,2.924,0,0,0,17.6.144H16.092q-.252,0-.549-.027A2.809,2.809,0,0,1,14.958,0a2.39,2.39,0,0,0-.684.72,1.512,1.512,0,0,0-.216.756,1.26,1.26,0,0,0,.675,1.116A3.558,3.558,0,0,0,16.6,3.006Zm.162-13.284a3.018,3.018,0,0,1-1.242-.234,2.4,2.4,0,0,1-.855-.621,2.7,2.7,0,0,1-.5-.873A3.783,3.783,0,0,1,13.95-13l.918-.144a3.064,3.064,0,0,0,.189.675,2.144,2.144,0,0,0,.369.6,1.759,1.759,0,0,0,.567.432,1.728,1.728,0,0,0,.765.162,1.728,1.728,0,0,0,.765-.162,1.759,1.759,0,0,0,.567-.432,2.144,2.144,0,0,0,.369-.6,3.064,3.064,0,0,0,.189-.675l.918.144a3.783,3.783,0,0,1-.207.99,2.619,2.619,0,0,1-.513.873,2.516,2.516,0,0,1-.855.621A2.955,2.955,0,0,1,16.758-10.278ZM22.5,0V-8.748h1.224l.126,1.584H23.9a4.042,4.042,0,0,1,1.089-1.314,2.255,2.255,0,0,1,1.4-.486,2.325,2.325,0,0,1,.936.18l-.288,1.3a3.328,3.328,0,0,0-.4-.108,2.35,2.35,0,0,0-.45-.036,1.96,1.96,0,0,0-1.161.45,3.581,3.581,0,0,0-1.053,1.566V0Zm9.612.216A4.283,4.283,0,0,1,30.465-.1,3.9,3.9,0,0,1,29.133-1a4.167,4.167,0,0,1-.891-1.431,5.357,5.357,0,0,1-.324-1.926,5.3,5.3,0,0,1,.333-1.935,4.528,4.528,0,0,1,.882-1.449,3.827,3.827,0,0,1,1.251-.909,3.524,3.524,0,0,1,1.458-.315,3.663,3.663,0,0,1,1.485.288,2.9,2.9,0,0,1,1.1.828,3.8,3.8,0,0,1,.675,1.3,5.71,5.71,0,0,1,.234,1.692q0,.234-.009.459a2.217,2.217,0,0,1-.045.387h-5.9a3.416,3.416,0,0,0,.873,2.223,2.7,2.7,0,0,0,2.043.819,3.44,3.44,0,0,0,1.161-.189,5.137,5.137,0,0,0,1.017-.5l.522.972a7.452,7.452,0,0,1-1.278.63A4.439,4.439,0,0,1,32.112.216ZM29.358-5.076h4.68A3.133,3.133,0,0,0,33.471-7.1a1.943,1.943,0,0,0-1.593-.693,2.252,2.252,0,0,0-.891.18,2.346,2.346,0,0,0-.765.531,2.911,2.911,0,0,0-.567.855A3.86,3.86,0,0,0,29.358-5.076ZM37.494,0V-8.748h1.224l.126,1.26H38.9a7.127,7.127,0,0,1,1.323-1.053,3.03,3.03,0,0,1,1.611-.423,2.352,2.352,0,0,1,2.025.864A4.27,4.27,0,0,1,44.5-5.544V0H43.02V-5.346a3.126,3.126,0,0,0-.4-1.791,1.448,1.448,0,0,0-1.26-.549,2.151,2.151,0,0,0-1.206.342A7.824,7.824,0,0,0,38.97-6.336V0ZM50.8.216a4.276,4.276,0,0,1-1.62-.306,3.64,3.64,0,0,1-1.305-.891,4.19,4.19,0,0,1-.864-1.44,5.57,5.57,0,0,1-.315-1.935,5.226,5.226,0,0,1,.342-1.953,4.4,4.4,0,0,1,.918-1.449,3.829,3.829,0,0,1,1.341-.9A4.3,4.3,0,0,1,50.9-8.964a3.271,3.271,0,0,1,1.476.306,4.982,4.982,0,0,1,1.08.72l-.756.972a3.706,3.706,0,0,0-.8-.558,2.048,2.048,0,0,0-.945-.216,2.5,2.5,0,0,0-1.1.243A2.469,2.469,0,0,0,49-6.8a3.435,3.435,0,0,0-.567,1.071,4.336,4.336,0,0,0-.207,1.377,4.43,4.43,0,0,0,.2,1.368,3.307,3.307,0,0,0,.549,1.053,2.427,2.427,0,0,0,.855.684,2.5,2.5,0,0,0,1.1.243,2.445,2.445,0,0,0,1.125-.261,4.549,4.549,0,0,0,.927-.621l.648.99a4.685,4.685,0,0,1-1.314.819A3.927,3.927,0,0,1,50.8.216ZM55.548,0V-8.748h1.476V0ZM56.3-10.548a1.044,1.044,0,0,1-.729-.27.884.884,0,0,1-.3-.684.877.877,0,0,1,.3-.693,1.065,1.065,0,0,1,.729-.261,1.065,1.065,0,0,1,.729.261.877.877,0,0,1,.3.693.884.884,0,0,1-.3.684A1.044,1.044,0,0,1,56.3-10.548ZM61.542.216a1.38,1.38,0,0,1-1.206-.5,2.528,2.528,0,0,1-.36-1.476V-12.816h1.476v11.16a.773.773,0,0,0,.126.5.375.375,0,0,0,.288.144H62a.763.763,0,0,0,.189-.036l.2,1.116a1.274,1.274,0,0,1-.342.108A2.9,2.9,0,0,1,61.542.216Zm6.57,0A4.283,4.283,0,0,1,66.465-.1,3.9,3.9,0,0,1,65.133-1a4.167,4.167,0,0,1-.891-1.431,5.357,5.357,0,0,1-.324-1.926,5.3,5.3,0,0,1,.333-1.935,4.528,4.528,0,0,1,.882-1.449,3.827,3.827,0,0,1,1.251-.909,3.524,3.524,0,0,1,1.458-.315,3.663,3.663,0,0,1,1.485.288,2.9,2.9,0,0,1,1.1.828,3.8,3.8,0,0,1,.675,1.3,5.71,5.71,0,0,1,.234,1.692q0,.234-.009.459a2.217,2.217,0,0,1-.045.387h-5.9a3.416,3.416,0,0,0,.873,2.223,2.7,2.7,0,0,0,2.043.819,3.44,3.44,0,0,0,1.161-.189,5.137,5.137,0,0,0,1.017-.5l.522.972a7.452,7.452,0,0,1-1.278.63A4.439,4.439,0,0,1,68.112.216ZM65.358-5.076h4.68A3.133,3.133,0,0,0,69.471-7.1a1.943,1.943,0,0,0-1.593-.693,2.252,2.252,0,0,0-.891.18,2.346,2.346,0,0,0-.765.531,2.91,2.91,0,0,0-.567.855A3.86,3.86,0,0,0,65.358-5.076ZM73.494,0V-8.748h1.224l.126,1.584H74.9a4.042,4.042,0,0,1,1.089-1.314,2.255,2.255,0,0,1,1.395-.486,2.325,2.325,0,0,1,.936.18l-.288,1.3a3.329,3.329,0,0,0-.4-.108,2.35,2.35,0,0,0-.45-.036,1.96,1.96,0,0,0-1.161.45A3.581,3.581,0,0,0,74.97-5.616V0Z" transform="translate(24 143)"/>
        <path id="Personeller" class="cls-4" d="M1.62,0V-11.808H4.986a8.439,8.439,0,0,1,1.809.18,3.825,3.825,0,0,1,1.4.585,2.756,2.756,0,0,1,.9,1.071,3.724,3.724,0,0,1,.324,1.638A3.844,3.844,0,0,1,9.1-6.714,3.016,3.016,0,0,1,8.208-5.58a3.939,3.939,0,0,1-1.377.675,6.546,6.546,0,0,1-1.773.225H3.114V0ZM3.114-5.9H4.878a3.7,3.7,0,0,0,2.3-.585A2.2,2.2,0,0,0,7.92-8.334a1.931,1.931,0,0,0-.783-1.773A4.417,4.417,0,0,0,4.806-10.6H3.114ZM14.778.216A4.283,4.283,0,0,1,13.131-.1,3.9,3.9,0,0,1,11.8-1a4.167,4.167,0,0,1-.891-1.431,5.357,5.357,0,0,1-.324-1.926,5.3,5.3,0,0,1,.333-1.935A4.528,4.528,0,0,1,11.8-7.74a3.827,3.827,0,0,1,1.251-.909,3.524,3.524,0,0,1,1.458-.315,3.663,3.663,0,0,1,1.485.288,2.9,2.9,0,0,1,1.1.828,3.8,3.8,0,0,1,.675,1.3A5.71,5.71,0,0,1,18-4.86q0,.234-.009.459a2.218,2.218,0,0,1-.045.387h-5.9a3.416,3.416,0,0,0,.873,2.223,2.7,2.7,0,0,0,2.043.819,3.44,3.44,0,0,0,1.161-.189,5.137,5.137,0,0,0,1.017-.5l.522.972a7.452,7.452,0,0,1-1.278.63A4.439,4.439,0,0,1,14.778.216ZM12.024-5.076H16.7A3.133,3.133,0,0,0,16.137-7.1a1.943,1.943,0,0,0-1.593-.693,2.252,2.252,0,0,0-.891.18,2.346,2.346,0,0,0-.765.531,2.911,2.911,0,0,0-.567.855A3.86,3.86,0,0,0,12.024-5.076ZM20.16,0V-8.748h1.224l.126,1.584h.054a4.042,4.042,0,0,1,1.089-1.314,2.255,2.255,0,0,1,1.4-.486,2.325,2.325,0,0,1,.936.18l-.288,1.3a3.328,3.328,0,0,0-.4-.108,2.35,2.35,0,0,0-.45-.036,1.96,1.96,0,0,0-1.161.45,3.581,3.581,0,0,0-1.053,1.566V0Zm8.46.216a4.71,4.71,0,0,1-1.782-.342A5.559,5.559,0,0,1,25.362-.99l.738-.99a5.922,5.922,0,0,0,1.179.756,3.2,3.2,0,0,0,1.4.288,1.861,1.861,0,0,0,1.3-.4A1.268,1.268,0,0,0,30.4-2.3a1,1,0,0,0-.18-.594,1.79,1.79,0,0,0-.459-.441,3.362,3.362,0,0,0-.639-.333L28.4-3.96q-.468-.162-.936-.369a3.738,3.738,0,0,1-.837-.5,2.55,2.55,0,0,1-.6-.693,1.843,1.843,0,0,1-.234-.954A2.359,2.359,0,0,1,26-7.461a2.259,2.259,0,0,1,.594-.792,2.814,2.814,0,0,1,.945-.522,3.915,3.915,0,0,1,1.26-.189,3.925,3.925,0,0,1,1.521.288,4.732,4.732,0,0,1,1.2.7l-.7.936A4.7,4.7,0,0,0,29.88-7.6a2.585,2.585,0,0,0-1.062-.216,1.685,1.685,0,0,0-1.215.378,1.2,1.2,0,0,0-.387.882.885.885,0,0,0,.162.531,1.535,1.535,0,0,0,.432.4,3.522,3.522,0,0,0,.621.306l.729.279q.468.18.945.378a3.623,3.623,0,0,1,.855.5,2.433,2.433,0,0,1,.621.729,2.1,2.1,0,0,1,.243,1.044,2.464,2.464,0,0,1-.207,1.008,2.4,2.4,0,0,1-.612.828A2.926,2.926,0,0,1,30,.009,4.231,4.231,0,0,1,28.62.216Zm8.658,0A3.936,3.936,0,0,1,35.739-.09a3.79,3.79,0,0,1-1.287-.891,4.337,4.337,0,0,1-.891-1.44,5.3,5.3,0,0,1-.333-1.935,5.352,5.352,0,0,1,.333-1.953,4.443,4.443,0,0,1,.891-1.449,3.734,3.734,0,0,1,1.287-.9,3.936,3.936,0,0,1,1.539-.306,3.936,3.936,0,0,1,1.539.306,3.734,3.734,0,0,1,1.287.9A4.443,4.443,0,0,1,41-6.309a5.352,5.352,0,0,1,.333,1.953A5.3,5.3,0,0,1,41-2.421,4.337,4.337,0,0,1,40.1-.981a3.79,3.79,0,0,1-1.287.891A3.936,3.936,0,0,1,37.278.216Zm0-1.224A2.193,2.193,0,0,0,38.3-1.251a2.358,2.358,0,0,0,.8-.684,3.251,3.251,0,0,0,.513-1.053,4.842,4.842,0,0,0,.18-1.368,4.937,4.937,0,0,0-.18-1.377A3.35,3.35,0,0,0,39.105-6.8a2.321,2.321,0,0,0-.8-.693,2.193,2.193,0,0,0-1.026-.243,2.193,2.193,0,0,0-1.026.243,2.321,2.321,0,0,0-.8.693,3.35,3.35,0,0,0-.513,1.071,4.937,4.937,0,0,0-.18,1.377,4.842,4.842,0,0,0,.18,1.368,3.251,3.251,0,0,0,.513,1.053,2.358,2.358,0,0,0,.8.684A2.193,2.193,0,0,0,37.278-1.008ZM43.632,0V-8.748h1.224l.126,1.26h.054a7.127,7.127,0,0,1,1.323-1.053,3.03,3.03,0,0,1,1.611-.423,2.352,2.352,0,0,1,2.025.864,4.27,4.27,0,0,1,.639,2.556V0H49.158V-5.346a3.126,3.126,0,0,0-.4-1.791,1.448,1.448,0,0,0-1.26-.549,2.151,2.151,0,0,0-1.206.342,7.824,7.824,0,0,0-1.188,1.008V0ZM57.024.216A4.283,4.283,0,0,1,55.377-.1,3.9,3.9,0,0,1,54.045-1a4.167,4.167,0,0,1-.891-1.431,5.357,5.357,0,0,1-.324-1.926,5.3,5.3,0,0,1,.333-1.935,4.528,4.528,0,0,1,.882-1.449A3.827,3.827,0,0,1,55.3-8.649a3.524,3.524,0,0,1,1.458-.315,3.663,3.663,0,0,1,1.485.288,2.9,2.9,0,0,1,1.1.828,3.8,3.8,0,0,1,.675,1.3,5.71,5.71,0,0,1,.234,1.692q0,.234-.009.459a2.218,2.218,0,0,1-.045.387h-5.9a3.416,3.416,0,0,0,.873,2.223A2.7,2.7,0,0,0,57.2-.972a3.44,3.44,0,0,0,1.161-.189,5.137,5.137,0,0,0,1.017-.5l.522.972a7.452,7.452,0,0,1-1.278.63A4.439,4.439,0,0,1,57.024.216ZM54.27-5.076h4.68A3.133,3.133,0,0,0,58.383-7.1a1.943,1.943,0,0,0-1.593-.693,2.252,2.252,0,0,0-.891.18,2.346,2.346,0,0,0-.765.531,2.911,2.911,0,0,0-.567.855A3.86,3.86,0,0,0,54.27-5.076Zm9.7,5.292a1.38,1.38,0,0,1-1.206-.5,2.528,2.528,0,0,1-.36-1.476V-12.816h1.476v11.16a.773.773,0,0,0,.126.5.375.375,0,0,0,.288.144h.135a.763.763,0,0,0,.189-.036l.2,1.116a1.274,1.274,0,0,1-.342.108A2.9,2.9,0,0,1,63.972.216Zm4.59,0a1.38,1.38,0,0,1-1.206-.5A2.528,2.528,0,0,1,67-1.764V-12.816h1.476v11.16a.773.773,0,0,0,.126.5.375.375,0,0,0,.288.144h.135a.763.763,0,0,0,.189-.036l.2,1.116a1.274,1.274,0,0,1-.342.108A2.9,2.9,0,0,1,68.562.216Zm6.57,0A4.283,4.283,0,0,1,73.485-.1,3.9,3.9,0,0,1,72.153-1a4.167,4.167,0,0,1-.891-1.431,5.357,5.357,0,0,1-.324-1.926,5.3,5.3,0,0,1,.333-1.935,4.529,4.529,0,0,1,.882-1.449A3.827,3.827,0,0,1,73.4-8.649a3.524,3.524,0,0,1,1.458-.315,3.663,3.663,0,0,1,1.485.288,2.9,2.9,0,0,1,1.1.828,3.8,3.8,0,0,1,.675,1.3,5.71,5.71,0,0,1,.234,1.692q0,.234-.009.459a2.218,2.218,0,0,1-.045.387H72.4a3.416,3.416,0,0,0,.873,2.223,2.7,2.7,0,0,0,2.043.819,3.44,3.44,0,0,0,1.161-.189,5.137,5.137,0,0,0,1.017-.5l.522.972a7.452,7.452,0,0,1-1.278.63A4.439,4.439,0,0,1,75.132.216ZM72.378-5.076h4.68A3.133,3.133,0,0,0,76.491-7.1,1.943,1.943,0,0,0,74.9-7.794a2.252,2.252,0,0,0-.891.18,2.345,2.345,0,0,0-.765.531,2.91,2.91,0,0,0-.567.855A3.86,3.86,0,0,0,72.378-5.076ZM80.514,0V-8.748h1.224l.126,1.584h.054a4.042,4.042,0,0,1,1.089-1.314A2.255,2.255,0,0,1,84.4-8.964a2.325,2.325,0,0,1,.936.18l-.288,1.3a3.329,3.329,0,0,0-.4-.108,2.35,2.35,0,0,0-.45-.036,1.96,1.96,0,0,0-1.161.45A3.581,3.581,0,0,0,81.99-5.616V0Z" transform="translate(24 274)"/>
        <path id="Ellipse_15" data-name="Ellipse 15" class="cls-10" d="M20,0A20,20,0,1,1,0,20,20,20,0,0,1,20,0Z" transform="translate(24 180)"/>
        <path id="FU" class="cls-11" d="M1.162,0V-9.156h5.53v1.372H2.786v2.59H6.118v1.372H2.786V0Zm10.57.168A4.189,4.189,0,0,1,10.3-.063,2.681,2.681,0,0,1,9.2-.8a3.4,3.4,0,0,1-.7-1.295A6.57,6.57,0,0,1,8.26-4.018V-9.156H9.884v5.264a5.051,5.051,0,0,0,.133,1.253,2.189,2.189,0,0,0,.378.819,1.392,1.392,0,0,0,.581.441,2.039,2.039,0,0,0,.756.133,2.151,2.151,0,0,0,.77-.133,1.423,1.423,0,0,0,.6-.441,2.2,2.2,0,0,0,.392-.819,4.809,4.809,0,0,0,.14-1.253V-9.156H15.19v5.138a6.751,6.751,0,0,1-.238,1.925A3.334,3.334,0,0,1,14.259-.8a2.681,2.681,0,0,1-1.092.735A4.189,4.189,0,0,1,11.732.168Z" transform="translate(36 205)"/>
        <path id="Doğum_Günü" data-name="Doğum Günü" class="cls-12" d="M2.075,0V-16.35H6.45a8.079,8.079,0,0,1,5.85,2.025Q14.4-12.3,14.4-8.25a10.9,10.9,0,0,1-.538,3.575,6.858,6.858,0,0,1-1.55,2.588A6.472,6.472,0,0,1,9.862-.525,9.469,9.469,0,0,1,6.6,0Zm2.9-2.35H6.25a4.984,4.984,0,0,0,3.837-1.438A6.378,6.378,0,0,0,11.425-8.25a6.059,6.059,0,0,0-1.35-4.375A5.118,5.118,0,0,0,6.25-14H4.975ZM22.475.3a5.809,5.809,0,0,1-2.2-.425,5.474,5.474,0,0,1-1.862-1.25A5.98,5.98,0,0,1,17.125-3.4a7.356,7.356,0,0,1-.475-2.725,7.356,7.356,0,0,1,.475-2.725,5.98,5.98,0,0,1,1.288-2.025,5.632,5.632,0,0,1,1.862-1.262,5.664,5.664,0,0,1,2.2-.438,5.756,5.756,0,0,1,2.212.438,5.467,5.467,0,0,1,1.862,1.262A6.245,6.245,0,0,1,27.837-8.85a7.188,7.188,0,0,1,.488,2.725A7.188,7.188,0,0,1,27.837-3.4,6.245,6.245,0,0,1,26.55-1.375a5.318,5.318,0,0,1-1.862,1.25A5.9,5.9,0,0,1,22.475.3Zm0-2.35A2.454,2.454,0,0,0,24.6-3.162a5.09,5.09,0,0,0,.775-2.963A5.138,5.138,0,0,0,24.6-9.112a2.454,2.454,0,0,0-2.125-1.113,2.423,2.423,0,0,0-2.113,1.113A5.2,5.2,0,0,0,19.6-6.125a5.153,5.153,0,0,0,.762,2.963A2.423,2.423,0,0,0,22.475-2.05ZM35.45,5.425a9.766,9.766,0,0,1-2.038-.2,5.326,5.326,0,0,1-1.612-.6,3.147,3.147,0,0,1-1.062-1,2.523,2.523,0,0,1-.388-1.4A2.508,2.508,0,0,1,30.8.788,4.208,4.208,0,0,1,32.1-.4V-.5a2.492,2.492,0,0,1-.787-.8A2.318,2.318,0,0,1,31-2.55a2.231,2.231,0,0,1,.413-1.312,3.97,3.97,0,0,1,.937-.963v-.1a4.392,4.392,0,0,1-1.112-1.313,3.781,3.781,0,0,1-.488-1.937,4.244,4.244,0,0,1,.4-1.875,4.2,4.2,0,0,1,1.063-1.387,4.535,4.535,0,0,1,1.537-.85,5.889,5.889,0,0,1,1.85-.288,5.169,5.169,0,0,1,.963.088,6.446,6.446,0,0,1,.838.213h4.4v2.125H39.55a2.909,2.909,0,0,1,.5.887,3.382,3.382,0,0,1,.2,1.187,4.207,4.207,0,0,1-.362,1.8,3.743,3.743,0,0,1-.987,1.3,4.343,4.343,0,0,1-1.475.8A5.9,5.9,0,0,1,35.6-3.9a4.745,4.745,0,0,1-.825-.075,4.1,4.1,0,0,1-.85-.25,2.609,2.609,0,0,0-.437.5,1.226,1.226,0,0,0-.162.675.948.948,0,0,0,.438.825,2.928,2.928,0,0,0,1.563.3H37.5a6.409,6.409,0,0,1,3.362.712A2.521,2.521,0,0,1,42,1.1a3.343,3.343,0,0,1-.463,1.7,4.2,4.2,0,0,1-1.312,1.375,7.016,7.016,0,0,1-2.062.913A10.112,10.112,0,0,1,35.45,5.425ZM35.6-5.7a2.026,2.026,0,0,0,1.5-.638,2.517,2.517,0,0,0,.625-1.837,2.475,2.475,0,0,0-.612-1.787A2.014,2.014,0,0,0,35.6-10.6a2.075,2.075,0,0,0-1.525.625,2.437,2.437,0,0,0-.625,1.8,2.517,2.517,0,0,0,.625,1.837A2.054,2.054,0,0,0,35.6-5.7Zm.3,9.25a4.4,4.4,0,0,0,2.412-.588,1.665,1.665,0,0,0,.912-1.388A.962.962,0,0,0,38.662.6,4.1,4.1,0,0,0,37.05.35H35.375A6.794,6.794,0,0,1,33.7.175,2.05,2.05,0,0,0,32.75,1.8a1.421,1.421,0,0,0,.838,1.287A4.819,4.819,0,0,0,35.9,3.55Zm.3-17.825a4.671,4.671,0,0,1-1.8-.313,3.412,3.412,0,0,1-1.238-.85,3.649,3.649,0,0,1-.737-1.237,5.4,5.4,0,0,1-.3-1.475l1.7-.275a4.254,4.254,0,0,0,.237.862,2.2,2.2,0,0,0,.463.725,2.472,2.472,0,0,0,.712.512,2.182,2.182,0,0,0,.963.2,2.182,2.182,0,0,0,.962-.2,2.472,2.472,0,0,0,.713-.512,2.2,2.2,0,0,0,.463-.725,4.254,4.254,0,0,0,.237-.862l1.7.275a5.4,5.4,0,0,1-.3,1.475,3.649,3.649,0,0,1-.737,1.237,3.412,3.412,0,0,1-1.237.85A4.671,4.671,0,0,1,36.2-14.275ZM47.825.3A3.287,3.287,0,0,1,44.95-.962a6.168,6.168,0,0,1-.9-3.612v-7.7h2.875V-4.95a3.82,3.82,0,0,0,.45,2.15,1.664,1.664,0,0,0,1.45.625,2.525,2.525,0,0,0,1.413-.4,5.775,5.775,0,0,0,1.313-1.3v-8.4h2.875V0h-2.35L51.85-1.8h-.075A7.213,7.213,0,0,1,50.037-.275,4.148,4.148,0,0,1,47.825.3ZM58.075,0V-12.275H60.45l.2,1.675h.1A8.613,8.613,0,0,1,62.438-12a3.787,3.787,0,0,1,2.063-.575A3.671,3.671,0,0,1,66.662-12,3.57,3.57,0,0,1,67.9-10.375a9.875,9.875,0,0,1,1.825-1.575,3.782,3.782,0,0,1,2.125-.625,3.327,3.327,0,0,1,2.875,1.263A6.04,6.04,0,0,1,75.65-7.7V0h-2.9V-7.325a3.736,3.736,0,0,0-.463-2.15,1.642,1.642,0,0,0-1.412-.625A3.866,3.866,0,0,0,68.3-8.575V0H65.425V-7.325a3.736,3.736,0,0,0-.463-2.15,1.67,1.67,0,0,0-1.437-.625A3.866,3.866,0,0,0,60.95-8.575V0ZM91.25.3a8.368,8.368,0,0,1-3.062-.55,6.783,6.783,0,0,1-2.45-1.625,7.421,7.421,0,0,1-1.612-2.65,10.459,10.459,0,0,1-.575-3.6,10.09,10.09,0,0,1,.6-3.587A7.966,7.966,0,0,1,85.787-14.4a6.908,6.908,0,0,1,2.45-1.675,7.978,7.978,0,0,1,3.037-.575,6.3,6.3,0,0,1,2.963.637,7.779,7.779,0,0,1,1.988,1.438L94.675-12.7a6.373,6.373,0,0,0-1.387-1.012,3.986,3.986,0,0,0-1.912-.413,4.66,4.66,0,0,0-1.988.413,4.365,4.365,0,0,0-1.525,1.175,5.436,5.436,0,0,0-.987,1.863,8.145,8.145,0,0,0-.35,2.475,6.873,6.873,0,0,0,1.263,4.387,4.488,4.488,0,0,0,3.737,1.587,4.588,4.588,0,0,0,1.325-.187,2.72,2.72,0,0,0,1.025-.537V-6.475h-3.1V-8.85h5.7v7.2A6.624,6.624,0,0,1,94.287-.262,7.89,7.89,0,0,1,91.25.3ZM103.5.3a3.287,3.287,0,0,1-2.875-1.262,6.168,6.168,0,0,1-.9-3.612v-7.7H102.6V-4.95a3.82,3.82,0,0,0,.45,2.15,1.664,1.664,0,0,0,1.45.625,2.525,2.525,0,0,0,1.412-.4,5.775,5.775,0,0,0,1.313-1.3v-8.4H110.1V0h-2.35l-.225-1.8h-.075a7.213,7.213,0,0,1-1.738,1.525A4.148,4.148,0,0,1,103.5.3Zm-1.075-14.75a1.476,1.476,0,0,1-1.088-.437,1.476,1.476,0,0,1-.437-1.088,1.476,1.476,0,0,1,.438-1.087,1.476,1.476,0,0,1,1.088-.437,1.466,1.466,0,0,1,1.1.438,1.5,1.5,0,0,1,.425,1.087,1.5,1.5,0,0,1-.425,1.088A1.466,1.466,0,0,1,102.425-14.45Zm5.15,0a1.466,1.466,0,0,1-1.1-.437,1.5,1.5,0,0,1-.425-1.088,1.5,1.5,0,0,1,.425-1.087,1.466,1.466,0,0,1,1.1-.437,1.476,1.476,0,0,1,1.087.438,1.476,1.476,0,0,1,.438,1.087,1.476,1.476,0,0,1-.437,1.088A1.476,1.476,0,0,1,107.575-14.45ZM113.75,0V-12.275h2.375l.2,1.65h.1A9.731,9.731,0,0,1,118.213-12a4.279,4.279,0,0,1,2.238-.575,3.287,3.287,0,0,1,2.875,1.263,6.168,6.168,0,0,1,.9,3.613V0H121.35V-7.325a3.82,3.82,0,0,0-.45-2.15,1.693,1.693,0,0,0-1.475-.625,2.585,2.585,0,0,0-1.412.387,9.011,9.011,0,0,0-1.388,1.138V0ZM131.4.3a3.287,3.287,0,0,1-2.875-1.262,6.168,6.168,0,0,1-.9-3.612v-7.7H130.5V-4.95a3.82,3.82,0,0,0,.45,2.15,1.664,1.664,0,0,0,1.45.625,2.525,2.525,0,0,0,1.412-.4,5.775,5.775,0,0,0,1.313-1.3v-8.4H138V0h-2.35l-.225-1.8h-.075a7.213,7.213,0,0,1-1.738,1.525A4.148,4.148,0,0,1,131.4.3Zm-1.075-14.75a1.476,1.476,0,0,1-1.087-.437,1.476,1.476,0,0,1-.437-1.088,1.476,1.476,0,0,1,.438-1.087,1.476,1.476,0,0,1,1.087-.437,1.466,1.466,0,0,1,1.1.438,1.5,1.5,0,0,1,.425,1.087,1.5,1.5,0,0,1-.425,1.088A1.466,1.466,0,0,1,130.325-14.45Zm5.15,0a1.466,1.466,0,0,1-1.1-.437,1.5,1.5,0,0,1-.425-1.088,1.5,1.5,0,0,1,.425-1.087,1.466,1.466,0,0,1,1.1-.437,1.476,1.476,0,0,1,1.087.438A1.476,1.476,0,0,1,137-15.975a1.476,1.476,0,0,1-.437,1.088A1.476,1.476,0,0,1,135.475-14.45Z" transform="translate(24 49)"/>
        <path id="Mutlu_Yıllar" data-name="Mutlu Yıllar" class="cls-4" d="M1.44,0V-10.5h1.6L5.056-4.9q.192.544.376,1.1t.376,1.1h.064q.192-.544.36-1.1t.36-1.1l1.984-5.6h1.616V0H8.944V-5.776q0-.7.064-1.552T9.12-8.88H9.056L8.224-6.5,6.24-1.056H5.36L3.376-6.5,2.544-8.88H2.48q.048.7.1,1.552T2.64-5.776V0ZM15.216.192A2.109,2.109,0,0,1,13.4-.576a3.8,3.8,0,0,1-.568-2.272V-7.776H14.16v4.752A2.831,2.831,0,0,0,14.5-1.432a1.265,1.265,0,0,0,1.112.488,1.876,1.876,0,0,0,1.072-.312,5.03,5.03,0,0,0,1.024-1v-5.52h1.312V0H17.936l-.112-1.216h-.048A5.187,5.187,0,0,1,16.632-.192,2.57,2.57,0,0,1,15.216.192Zm8.88,0A2.538,2.538,0,0,1,23.048,0a1.8,1.8,0,0,1-.688-.528,2.057,2.057,0,0,1-.376-.816A4.649,4.649,0,0,1,21.872-2.4V-6.7H20.72V-7.7l1.216-.08.16-2.176h1.1v2.176h2.1V-6.7H23.2v4.32a1.981,1.981,0,0,0,.264,1.112A1.046,1.046,0,0,0,24.4-.88a1.744,1.744,0,0,0,.448-.064,3.412,3.412,0,0,0,.432-.144l.256.992a6.8,6.8,0,0,1-.7.2A3.257,3.257,0,0,1,24.1.192Zm4.352,0a1.227,1.227,0,0,1-1.072-.448,2.247,2.247,0,0,1-.32-1.312v-9.824h1.312v9.92a.687.687,0,0,0,.112.448.333.333,0,0,0,.256.128h.12a.678.678,0,0,0,.168-.032L29.2.064a1.132,1.132,0,0,1-.3.1A2.579,2.579,0,0,1,28.448.192Zm4.96,0a2.109,2.109,0,0,1-1.816-.768,3.8,3.8,0,0,1-.568-2.272V-7.776h1.328v4.752A2.831,2.831,0,0,0,32.7-1.432a1.265,1.265,0,0,0,1.112.488,1.876,1.876,0,0,0,1.072-.312,5.03,5.03,0,0,0,1.024-1v-5.52h1.312V0H36.128l-.112-1.216h-.048A5.187,5.187,0,0,1,34.824-.192,2.57,2.57,0,0,1,33.408.192ZM44.864,0V-4.064L41.712-10.5h1.424l1.36,2.96q.256.576.5,1.136T45.5-5.248h.064q.272-.592.544-1.152t.512-1.136l1.344-2.96H49.36L46.208-4.064V0Zm5.152,0V-7.776h1.312V0Zm5.328.192a1.227,1.227,0,0,1-1.072-.448,2.247,2.247,0,0,1-.32-1.312v-9.824h1.312v9.92a.687.687,0,0,0,.112.448.333.333,0,0,0,.256.128h.12a.678.678,0,0,0,.168-.032L56.1.064a1.132,1.132,0,0,1-.3.1A2.579,2.579,0,0,1,55.344.192Zm4.08,0a1.227,1.227,0,0,1-1.072-.448,2.247,2.247,0,0,1-.32-1.312v-9.824h1.312v9.92a.687.687,0,0,0,.112.448.333.333,0,0,0,.256.128h.12A.678.678,0,0,0,60-.928l.176.992a1.132,1.132,0,0,1-.3.1A2.579,2.579,0,0,1,59.424.192Zm4.48,0A2.354,2.354,0,0,1,62.28-.384a2.069,2.069,0,0,1-.648-1.632,2.159,2.159,0,0,1,1.136-1.96A9.381,9.381,0,0,1,66.4-4.928a3.584,3.584,0,0,0-.072-.72,1.8,1.8,0,0,0-.248-.624,1.3,1.3,0,0,0-.488-.44A1.66,1.66,0,0,0,64.8-6.88a3.15,3.15,0,0,0-1.264.256,6.166,6.166,0,0,0-1.056.576l-.512-.912A8.49,8.49,0,0,1,63.3-7.64a4.434,4.434,0,0,1,1.728-.328,2.389,2.389,0,0,1,2.064.872,3.848,3.848,0,0,1,.64,2.328V0H66.64l-.112-.928H66.48a6.579,6.579,0,0,1-1.2.792A2.974,2.974,0,0,1,63.9.192Zm.384-1.056a2.215,2.215,0,0,0,1.056-.264A5.292,5.292,0,0,0,66.4-1.9v-2.16a13.273,13.273,0,0,0-1.64.3,4.323,4.323,0,0,0-1.072.416,1.613,1.613,0,0,0-.592.552,1.315,1.315,0,0,0-.184.68,1.1,1.1,0,0,0,.4.96A1.626,1.626,0,0,0,64.288-.864ZM70.176,0V-7.776h1.088l.112,1.408h.048a3.593,3.593,0,0,1,.968-1.168,2,2,0,0,1,1.24-.432,2.067,2.067,0,0,1,.832.16l-.256,1.152a2.959,2.959,0,0,0-.352-.1,2.089,2.089,0,0,0-.4-.032,1.742,1.742,0,0,0-1.032.4,3.183,3.183,0,0,0-.936,1.392V0Z" transform="translate(24 73)"/>
        <g id="Mask_Group_339" data-name="Mask Group 339" class="cls-13" transform="translate(295 7)">
          <path id="birthday-cake-solid" class="cls-2" d="M35,30c-2.189,0-2.442-2.5-5.82-2.5S25.521,30,23.34,30c-2.164,0-2.457-2.5-5.84-2.5-3.347,0-3.689,2.5-5.82,2.5-2.2,0-2.438-2.5-5.84-2.5S2.2,30,0,30V23.75A3.751,3.751,0,0,1,3.75,20H5V8.75h5V20h5V8.75h5V20h5V8.75h5V20h1.25A3.751,3.751,0,0,1,35,23.75Zm0,10H0V32.5c3.387,0,3.654-2.5,5.84-2.5s2.442,2.5,5.84,2.5c3.347,0,3.689-2.5,5.82-2.5,2.2,0,2.438,2.5,5.84,2.5S26.994,30,29.18,30c2.148,0,2.442,2.5,5.82,2.5ZM7.5,7.5A2.492,2.492,0,0,1,5,5C5,2.578,7.5,3.2,7.5,0,8.438,0,10,2.3,10,4.375S8.887,7.5,7.5,7.5Zm10,0A2.492,2.492,0,0,1,15,5c0-2.422,2.5-1.8,2.5-5C18.438,0,20,2.3,20,4.375S18.887,7.5,17.5,7.5Zm10,0A2.492,2.492,0,0,1,25,5c0-2.422,2.5-1.8,2.5-5C28.438,0,30,2.3,30,4.375S28.887,7.5,27.5,7.5Z" transform="translate(293.5 20)"/>
        </g>
        <g id="Mask_Group_336" data-name="Mask Group 336" class="cls-14" transform="translate(-55 -97)">
          <path id="gift-solid" class="cls-3" d="M.813,11.375a.812.812,0,0,0,.813.813H5.688V8.125H.813Zm6.5.813h4.063a.812.812,0,0,0,.813-.812V8.125H7.313Zm4.875-8.125H11.119a2.214,2.214,0,0,0,.256-1.016A2.238,2.238,0,0,0,9.141.813c-1.056,0-1.739.541-2.615,1.734C5.649,1.353,4.966.813,3.91.813A2.238,2.238,0,0,0,1.676,3.047a2.183,2.183,0,0,0,.256,1.016H.813A.812.812,0,0,0,0,4.875V6.906a.407.407,0,0,0,.406.406H12.594A.407.407,0,0,0,13,6.906V4.875a.812.812,0,0,0-.812-.812Zm-8.28,0a1.016,1.016,0,0,1,0-2.031c.505,0,.879.084,2.186,2.031Zm5.233,0H6.954C8.26,2.12,8.623,2.031,9.141,2.031a1.016,1.016,0,0,1,0,2.031Z" transform="translate(129 314)"/>
        </g>
        <path id="Fatih_Uzun" data-name="Fatih Uzun" class="cls-12" d="M1.328,0V-10.464h6.32V-8.9H3.184v2.96H6.992v1.568H3.184V0Zm9.328.192A2.288,2.288,0,0,1,8.976-.44a2.245,2.245,0,0,1-.64-1.672A2.3,2.3,0,0,1,8.6-3.224a2.276,2.276,0,0,1,.832-.84,5.525,5.525,0,0,1,1.44-.592,13.167,13.167,0,0,1,2.088-.368,2.965,2.965,0,0,0-.088-.584,1.342,1.342,0,0,0-.24-.5,1.116,1.116,0,0,0-.44-.336,1.665,1.665,0,0,0-.672-.12,2.975,2.975,0,0,0-1.128.224,7.586,7.586,0,0,0-1.08.544L8.64-7.024a7.87,7.87,0,0,1,1.472-.72,5,5,0,0,1,1.76-.3,2.7,2.7,0,0,1,2.2.872,3.837,3.837,0,0,1,.728,2.52V0H13.28l-.128-.864h-.064a5.772,5.772,0,0,1-1.128.752A2.844,2.844,0,0,1,10.656.192Zm.592-1.44a1.726,1.726,0,0,0,.872-.224,4.682,4.682,0,0,0,.84-.64v-1.76a8.4,8.4,0,0,0-1.344.256,3.885,3.885,0,0,0-.88.36,1.283,1.283,0,0,0-.48.456,1.093,1.093,0,0,0-.144.544.9.9,0,0,0,.32.768A1.323,1.323,0,0,0,11.248-1.248ZM19.52.192a2.874,2.874,0,0,1-1.16-.208A1.967,1.967,0,0,1,17.592-.6a2.418,2.418,0,0,1-.432-.9,4.586,4.586,0,0,1-.136-1.16V-6.4H15.9V-7.776l1.216-.08L17.344-10H18.88v2.144h2V-6.4h-2v3.744q0,1.376,1.1,1.376a1.951,1.951,0,0,0,.424-.048,1.988,1.988,0,0,0,.392-.128L21.12-.1a6.124,6.124,0,0,1-.728.2A4.131,4.131,0,0,1,19.52.192ZM22.528,0V-7.856h1.84V0Zm.928-9.232a1.174,1.174,0,0,1-.816-.288.964.964,0,0,1-.32-.752.989.989,0,0,1,.32-.76,1.155,1.155,0,0,1,.816-.3,1.155,1.155,0,0,1,.816.3.989.989,0,0,1,.32.76.964.964,0,0,1-.32.752A1.174,1.174,0,0,1,23.456-9.232ZM26.72,0V-11.3h1.84v2.912L28.5-6.864a6.474,6.474,0,0,1,1.1-.824,2.7,2.7,0,0,1,1.416-.36,2.1,2.1,0,0,1,1.84.808,3.947,3.947,0,0,1,.576,2.312V0h-1.84V-4.688A2.445,2.445,0,0,0,31.3-6.064a1.084,1.084,0,0,0-.944-.4,1.655,1.655,0,0,0-.9.248,5.767,5.767,0,0,0-.888.728V0ZM42.928.192a4.787,4.787,0,0,1-1.64-.264,3.065,3.065,0,0,1-1.248-.84,3.891,3.891,0,0,1-.8-1.48,7.508,7.508,0,0,1-.28-2.2v-5.872h1.856v6.016a5.772,5.772,0,0,0,.152,1.432,2.5,2.5,0,0,0,.432.936,1.591,1.591,0,0,0,.664.5,2.331,2.331,0,0,0,.864.152,2.459,2.459,0,0,0,.88-.152,1.626,1.626,0,0,0,.688-.5,2.511,2.511,0,0,0,.448-.936,5.5,5.5,0,0,0,.16-1.432v-6.016H46.88v5.872a7.716,7.716,0,0,1-.272,2.2,3.81,3.81,0,0,1-.792,1.48,3.065,3.065,0,0,1-1.248.84A4.787,4.787,0,0,1,42.928.192ZM48.7,0V-.992L52.416-6.4h-3.3V-7.856h5.6v.976l-3.7,5.408h3.824V0Zm9.888.192a2.1,2.1,0,0,1-1.84-.808,3.947,3.947,0,0,1-.576-2.312V-7.856h1.84v4.688A2.445,2.445,0,0,0,58.3-1.792a1.065,1.065,0,0,0,.928.4,1.616,1.616,0,0,0,.9-.256,3.7,3.7,0,0,0,.84-.832V-7.856h1.84V0h-1.5l-.144-1.152H61.12a4.616,4.616,0,0,1-1.112.976A2.655,2.655,0,0,1,58.592.192ZM65.152,0V-7.856h1.52L66.8-6.8h.064a6.228,6.228,0,0,1,1.144-.88,2.739,2.739,0,0,1,1.432-.368,2.1,2.1,0,0,1,1.84.808,3.947,3.947,0,0,1,.576,2.312V0h-1.84V-4.688a2.445,2.445,0,0,0-.288-1.376,1.084,1.084,0,0,0-.944-.4,1.655,1.655,0,0,0-.9.248,5.767,5.767,0,0,0-.888.728V0Z" transform="translate(74 184)"/>
        <path id="_14_Ocak_Salı" data-name="14 Ocak, Salı" class="cls-4" d="M1.027,0V-.884h1.9v-6.11H1.417v-.689a6.483,6.483,0,0,0,.995-.253,3.979,3.979,0,0,0,.76-.358h.819v7.41H5.707V0Zm9.386,0V-2.288H6.682v-.7l3.549-5.3h1.2v5.148h1.131v.858H11.427V0Zm-2.6-3.146h2.6v-2.4q0-.338.019-.8t.045-.8h-.052q-.156.3-.325.585T9.75-5.98ZM19.838.156a3.45,3.45,0,0,1-1.476-.312,3.286,3.286,0,0,1-1.151-.89,4.175,4.175,0,0,1-.747-1.4A6.014,6.014,0,0,1,16.2-4.3a5.89,5.89,0,0,1,.267-1.839,4.045,4.045,0,0,1,.747-1.378,3.214,3.214,0,0,1,1.151-.865,3.578,3.578,0,0,1,1.476-.3,3.512,3.512,0,0,1,1.475.306,3.346,3.346,0,0,1,1.157.871,3.983,3.983,0,0,1,.754,1.378A5.844,5.844,0,0,1,23.491-4.3a6.014,6.014,0,0,1-.267,1.852,4.11,4.11,0,0,1-.754,1.4,3.348,3.348,0,0,1-1.157.89A3.45,3.45,0,0,1,19.838.156Zm0-.949a2.155,2.155,0,0,0,1.033-.247,2.323,2.323,0,0,0,.793-.709,3.518,3.518,0,0,0,.514-1.105A5.327,5.327,0,0,0,22.36-4.3a5.2,5.2,0,0,0-.182-1.43,3.284,3.284,0,0,0-.514-1.079,2.333,2.333,0,0,0-.793-.683,2.2,2.2,0,0,0-1.033-.241,2.2,2.2,0,0,0-1.034.241,2.333,2.333,0,0,0-.793.683A3.284,3.284,0,0,0,17.5-5.733a5.2,5.2,0,0,0-.182,1.43A5.327,5.327,0,0,0,17.5-2.854a3.518,3.518,0,0,0,.513,1.105,2.323,2.323,0,0,0,.793.709A2.155,2.155,0,0,0,19.838-.793Zm7.878.949a3.089,3.089,0,0,1-1.17-.221A2.629,2.629,0,0,1,25.6-.708a3.026,3.026,0,0,1-.624-1.04,4.023,4.023,0,0,1-.228-1.4A3.774,3.774,0,0,1,25-4.556,3.178,3.178,0,0,1,25.662-5.6a2.765,2.765,0,0,1,.969-.65,3.1,3.1,0,0,1,1.163-.221,2.362,2.362,0,0,1,1.066.221,3.6,3.6,0,0,1,.78.52l-.546.7a2.676,2.676,0,0,0-.579-.4,1.479,1.479,0,0,0-.682-.156,1.8,1.8,0,0,0-.793.175,1.783,1.783,0,0,0-.624.5,2.481,2.481,0,0,0-.409.773,3.131,3.131,0,0,0-.15.995A3.2,3.2,0,0,0,26-2.158a2.388,2.388,0,0,0,.4.76,1.753,1.753,0,0,0,.618.494,1.8,1.8,0,0,0,.793.175,1.766,1.766,0,0,0,.813-.188,3.285,3.285,0,0,0,.67-.448l.468.715a3.384,3.384,0,0,1-.949.592A2.836,2.836,0,0,1,27.716.156Zm4.758,0a1.913,1.913,0,0,1-1.319-.468,1.681,1.681,0,0,1-.526-1.326,1.754,1.754,0,0,1,.923-1.592A7.622,7.622,0,0,1,34.5-4a2.912,2.912,0,0,0-.058-.585,1.463,1.463,0,0,0-.2-.507,1.059,1.059,0,0,0-.4-.358A1.349,1.349,0,0,0,33.2-5.59a2.56,2.56,0,0,0-1.027.208,5.01,5.01,0,0,0-.858.468L30.9-5.655a6.9,6.9,0,0,1,1.079-.552,3.6,3.6,0,0,1,1.4-.266,1.941,1.941,0,0,1,1.677.708,3.127,3.127,0,0,1,.52,1.891V0H34.7l-.091-.754h-.039a5.346,5.346,0,0,1-.975.643A2.416,2.416,0,0,1,32.474.156ZM32.786-.7a1.8,1.8,0,0,0,.858-.215,4.3,4.3,0,0,0,.858-.631V-3.3a10.785,10.785,0,0,0-1.333.247,3.512,3.512,0,0,0-.871.338,1.31,1.31,0,0,0-.481.448,1.068,1.068,0,0,0-.149.553.9.9,0,0,0,.325.78A1.321,1.321,0,0,0,32.786-.7ZM37.57,0V-9.256h1.053V-2.99h.039l2.691-3.328h1.183L40.417-3.783,42.822,0h-1.17L39.806-3.042,38.623-1.664V0Zm6.409,2.21-.26-.624A2.167,2.167,0,0,0,44.59.93a1.432,1.432,0,0,0,.3-.93.456.456,0,0,1-.13.013.819.819,0,0,1-.54-.189.676.676,0,0,1-.228-.553.691.691,0,0,1,.234-.552.828.828,0,0,1,.559-.2.763.763,0,0,1,.657.338,1.566,1.566,0,0,1,.241.923,2.426,2.426,0,0,1-.455,1.469A2.92,2.92,0,0,1,43.979,2.21Zm8.5-2.054a4.08,4.08,0,0,1-1.664-.338,4.1,4.1,0,0,1-1.326-.923l.65-.754a3.557,3.557,0,0,0,1.073.774,2.958,2.958,0,0,0,1.28.293,2.018,2.018,0,0,0,1.313-.383,1.239,1.239,0,0,0,.468-1.008,1.256,1.256,0,0,0-.111-.553,1.2,1.2,0,0,0-.3-.39,2.168,2.168,0,0,0-.449-.293q-.26-.13-.559-.273l-1.222-.533a5.826,5.826,0,0,1-.611-.312,2.514,2.514,0,0,1-.559-.442,2.115,2.115,0,0,1-.4-.618,2.048,2.048,0,0,1-.156-.826,2.03,2.03,0,0,1,.2-.9,2.2,2.2,0,0,1,.559-.721,2.592,2.592,0,0,1,.845-.474,3.256,3.256,0,0,1,1.072-.169A3.413,3.413,0,0,1,54-8.392a3.557,3.557,0,0,1,1.1.761l-.585.7a3.04,3.04,0,0,0-.864-.591,2.576,2.576,0,0,0-1.073-.215,1.851,1.851,0,0,0-1.151.332A1.088,1.088,0,0,0,51-6.487a1.04,1.04,0,0,0,.124.527,1.3,1.3,0,0,0,.331.377,2.692,2.692,0,0,0,.455.286q.247.124.507.228l1.209.52a5.17,5.17,0,0,1,.689.357,2.468,2.468,0,0,1,.559.468,2.037,2.037,0,0,1,.37.624,2.305,2.305,0,0,1,.137.826,2.261,2.261,0,0,1-.2.949,2.282,2.282,0,0,1-.579.773,2.748,2.748,0,0,1-.91.52A3.613,3.613,0,0,1,52.481.156Zm5.928,0A1.913,1.913,0,0,1,57.09-.312a1.681,1.681,0,0,1-.527-1.326,1.754,1.754,0,0,1,.923-1.592A7.622,7.622,0,0,1,60.437-4a2.912,2.912,0,0,0-.058-.585,1.463,1.463,0,0,0-.2-.507,1.059,1.059,0,0,0-.4-.358,1.349,1.349,0,0,0-.644-.137,2.56,2.56,0,0,0-1.027.208,5.01,5.01,0,0,0-.858.468l-.416-.741a6.9,6.9,0,0,1,1.079-.552,3.6,3.6,0,0,1,1.4-.266A1.941,1.941,0,0,1,61-5.766a3.127,3.127,0,0,1,.52,1.891V0h-.884l-.091-.754H60.5a5.346,5.346,0,0,1-.975.643A2.416,2.416,0,0,1,58.409.156ZM58.721-.7a1.8,1.8,0,0,0,.858-.215,4.3,4.3,0,0,0,.858-.631V-3.3a10.785,10.785,0,0,0-1.333.247,3.512,3.512,0,0,0-.871.338,1.31,1.31,0,0,0-.481.448,1.068,1.068,0,0,0-.15.553.9.9,0,0,0,.325.78A1.321,1.321,0,0,0,58.721-.7Zm5.915.858a1,1,0,0,1-.871-.364,1.825,1.825,0,0,1-.26-1.066V-9.256h1.066V-1.2a.558.558,0,0,0,.091.364.271.271,0,0,0,.208.1h.1A.551.551,0,0,0,65.1-.754l.143.806A.92.92,0,0,1,65,.13,2.1,2.1,0,0,1,64.636.156ZM66.82,0V-6.318h1.066V0Z" transform="translate(74 206)"/>
        <path id="_25._Yaşını_Kutlarız_" data-name="25. Yaşını Kutlarız!" class="cls-4" d="M1.027,0V-.884h1.9v-6.11H1.417v-.689a6.483,6.483,0,0,0,.995-.253,3.979,3.979,0,0,0,.76-.358h.819v7.41H5.707V0ZM9.711.156A3.373,3.373,0,0,1,8.625-.013a2.569,2.569,0,0,1-.858-.475A2.284,2.284,0,0,1,7.2-1.209a2.006,2.006,0,0,1-.208-.91,2.011,2.011,0,0,1,.136-.748,2.579,2.579,0,0,1,.351-.624,2.666,2.666,0,0,1,.494-.494,3.954,3.954,0,0,1,.578-.371v-.052a3.744,3.744,0,0,1-.806-.787A1.8,1.8,0,0,1,7.4-6.318a2.035,2.035,0,0,1,.182-.871,2.055,2.055,0,0,1,.494-.67,2.248,2.248,0,0,1,.741-.436A2.72,2.72,0,0,1,9.75-8.45a2.738,2.738,0,0,1,.975.163,2.147,2.147,0,0,1,.734.455,1.958,1.958,0,0,1,.468.7,2.393,2.393,0,0,1,.163.891,1.786,1.786,0,0,1-.111.624,3.039,3.039,0,0,1-.273.559,2.81,2.81,0,0,1-.364.468,3.16,3.16,0,0,1-.4.351v.052a4.579,4.579,0,0,1,.533.358,2.7,2.7,0,0,1,.462.455,2.149,2.149,0,0,1,.325.578,2.076,2.076,0,0,1,.123.741,1.973,1.973,0,0,1-.195.871,2.138,2.138,0,0,1-.546.7,2.57,2.57,0,0,1-.845.468A3.357,3.357,0,0,1,9.711.156Zm.585-4.68a3.066,3.066,0,0,0,.644-.793,1.79,1.79,0,0,0,.227-.871,1.514,1.514,0,0,0-.377-1.047,1.354,1.354,0,0,0-1.066-.422,1.328,1.328,0,0,0-.962.364,1.293,1.293,0,0,0-.377.975,1.253,1.253,0,0,0,.156.643,1.676,1.676,0,0,0,.422.474,3.224,3.224,0,0,0,.611.371Q9.919-4.667,10.3-4.524ZM9.737-.637a1.693,1.693,0,0,0,1.177-.4,1.349,1.349,0,0,0,.448-1.053,1.257,1.257,0,0,0-.182-.689,1.749,1.749,0,0,0-.494-.5,4.172,4.172,0,0,0-.722-.39q-.409-.176-.851-.358a3.407,3.407,0,0,0-.825.787,1.673,1.673,0,0,0-.332,1.02,1.46,1.46,0,0,0,.136.637,1.573,1.573,0,0,0,.377.5,1.709,1.709,0,0,0,.566.332A2.057,2.057,0,0,0,9.737-.637Zm4.81.793a.752.752,0,0,1-.552-.228.784.784,0,0,1-.227-.579.817.817,0,0,1,.227-.6.752.752,0,0,1,.552-.227.737.737,0,0,1,.54.227.817.817,0,0,1,.227.6.784.784,0,0,1-.227.579A.737.737,0,0,1,14.547.156ZM21.307,0V-3.3L18.746-8.528H19.9l1.105,2.405q.208.468.4.923t.416.936h.052q.221-.481.442-.936t.416-.923l1.092-2.405H24.96L22.4-3.3V0ZM26.6.156a1.913,1.913,0,0,1-1.319-.468,1.681,1.681,0,0,1-.526-1.326,1.754,1.754,0,0,1,.923-1.592A7.622,7.622,0,0,1,28.626-4a2.912,2.912,0,0,0-.058-.585,1.463,1.463,0,0,0-.2-.507,1.059,1.059,0,0,0-.4-.358,1.349,1.349,0,0,0-.643-.137,2.56,2.56,0,0,0-1.027.208,5.01,5.01,0,0,0-.858.468l-.416-.741A6.9,6.9,0,0,1,26.1-6.207a3.6,3.6,0,0,1,1.4-.266,1.941,1.941,0,0,1,1.677.708,3.127,3.127,0,0,1,.52,1.891V0h-.884L28.73-.754h-.039a5.346,5.346,0,0,1-.975.643A2.416,2.416,0,0,1,26.6.156ZM26.91-.7a1.8,1.8,0,0,0,.858-.215,4.3,4.3,0,0,0,.858-.631V-3.3a10.785,10.785,0,0,0-1.332.247,3.512,3.512,0,0,0-.871.338,1.31,1.31,0,0,0-.481.448,1.068,1.068,0,0,0-.149.553.9.9,0,0,0,.325.78A1.321,1.321,0,0,0,26.91-.7Zm6.435.858a3.4,3.4,0,0,1-1.287-.247,4.015,4.015,0,0,1-1.066-.624l.533-.715a4.277,4.277,0,0,0,.851.546,2.312,2.312,0,0,0,1.007.208,1.344,1.344,0,0,0,.936-.286.915.915,0,0,0,.312-.7.719.719,0,0,0-.13-.429,1.293,1.293,0,0,0-.331-.319,2.428,2.428,0,0,0-.462-.24l-.52-.208q-.338-.117-.676-.267a2.7,2.7,0,0,1-.6-.364,1.842,1.842,0,0,1-.436-.5A1.331,1.331,0,0,1,31.3-4.68a1.7,1.7,0,0,1,.149-.708,1.631,1.631,0,0,1,.429-.572,2.033,2.033,0,0,1,.682-.377,2.828,2.828,0,0,1,.91-.136,2.835,2.835,0,0,1,1.1.208,3.418,3.418,0,0,1,.864.507l-.507.676a3.4,3.4,0,0,0-.676-.4,1.867,1.867,0,0,0-.767-.156,1.217,1.217,0,0,0-.877.273.863.863,0,0,0-.279.637.639.639,0,0,0,.117.383,1.108,1.108,0,0,0,.312.286,2.544,2.544,0,0,0,.448.221l.527.2q.338.13.682.273a2.617,2.617,0,0,1,.618.358,1.757,1.757,0,0,1,.449.526,1.516,1.516,0,0,1,.175.754,1.779,1.779,0,0,1-.15.728,1.733,1.733,0,0,1-.442.6,2.113,2.113,0,0,1-.728.409A3.056,3.056,0,0,1,33.345.156Zm-.962,2.782-.1-.52A3.436,3.436,0,0,0,33.4,2.2a.47.47,0,0,0,.3-.435.454.454,0,0,0-.221-.4,2.069,2.069,0,0,0-.78-.221l.572-1.183h.689l-.377.871a1.651,1.651,0,0,1,.7.312.754.754,0,0,1,.247.611.9.9,0,0,1-.552.851A4.077,4.077,0,0,1,32.383,2.938ZM37.141,0V-6.318h1.066V0Zm3.2,0V-6.318h.884l.091.91h.039a5.147,5.147,0,0,1,.956-.76,2.188,2.188,0,0,1,1.164-.306,1.7,1.7,0,0,1,1.462.624A3.084,3.084,0,0,1,45.4-4V0H44.33V-3.861a2.258,2.258,0,0,0-.286-1.294,1.046,1.046,0,0,0-.91-.4,1.553,1.553,0,0,0-.871.247,5.65,5.65,0,0,0-.858.728V0ZM47.45,0V-6.318h1.066V0Zm5.9,0V-8.528h1.079v4.277h.039l3.549-4.277h1.222l-2.665,3.25L59.657,0H58.448L55.9-4.433,54.431-2.7V0Zm9.087.156a1.713,1.713,0,0,1-1.475-.624A3.084,3.084,0,0,1,60.5-2.314v-4h1.079v3.861a2.3,2.3,0,0,0,.279,1.293,1.028,1.028,0,0,0,.9.4,1.524,1.524,0,0,0,.871-.254,4.087,4.087,0,0,0,.832-.812V-6.318h1.066V0h-.884l-.091-.988h-.039a4.214,4.214,0,0,1-.929.832A2.088,2.088,0,0,1,62.439.156Zm7.215,0A2.062,2.062,0,0,1,68.8,0a1.464,1.464,0,0,1-.559-.429,1.672,1.672,0,0,1-.306-.663,3.777,3.777,0,0,1-.091-.858v-3.5h-.936v-.806l.988-.065.13-1.768h.9v1.768h1.7v.871h-1.7v3.51a1.61,1.61,0,0,0,.215.9.85.85,0,0,0,.76.318,1.417,1.417,0,0,0,.364-.052,2.772,2.772,0,0,0,.351-.117l.208.806a5.527,5.527,0,0,1-.565.163A2.646,2.646,0,0,1,69.654.156Zm3.536,0a1,1,0,0,1-.871-.364,1.826,1.826,0,0,1-.26-1.066V-9.256h1.066V-1.2a.558.558,0,0,0,.091.364.271.271,0,0,0,.208.1h.1a.551.551,0,0,0,.136-.026L73.8.052a.92.92,0,0,1-.247.078A2.1,2.1,0,0,1,73.19.156Zm3.64,0a1.913,1.913,0,0,1-1.32-.468,1.681,1.681,0,0,1-.526-1.326,1.754,1.754,0,0,1,.923-1.592A7.622,7.622,0,0,1,78.858-4a2.912,2.912,0,0,0-.059-.585,1.463,1.463,0,0,0-.2-.507,1.059,1.059,0,0,0-.4-.358,1.349,1.349,0,0,0-.644-.137,2.56,2.56,0,0,0-1.027.208,5.01,5.01,0,0,0-.858.468l-.416-.741a6.9,6.9,0,0,1,1.079-.552,3.6,3.6,0,0,1,1.4-.266,1.941,1.941,0,0,1,1.677.708,3.127,3.127,0,0,1,.52,1.891V0h-.884l-.091-.754h-.039a5.345,5.345,0,0,1-.975.643A2.416,2.416,0,0,1,76.83.156ZM77.142-.7A1.8,1.8,0,0,0,78-.917a4.3,4.3,0,0,0,.858-.631V-3.3a10.785,10.785,0,0,0-1.333.247,3.512,3.512,0,0,0-.871.338,1.31,1.31,0,0,0-.481.448,1.068,1.068,0,0,0-.149.553.9.9,0,0,0,.325.78A1.321,1.321,0,0,0,77.142-.7Zm4.784.7V-6.318h.884L82.9-5.174h.039a2.919,2.919,0,0,1,.786-.949,1.629,1.629,0,0,1,1.007-.351,1.679,1.679,0,0,1,.676.13l-.208.936a2.4,2.4,0,0,0-.286-.078,1.7,1.7,0,0,0-.325-.026,1.416,1.416,0,0,0-.839.325,2.586,2.586,0,0,0-.76,1.131V0Zm4.511,0V-6.318H87.5V0Zm2.535,0V-.572L92.3-5.447H89.336v-.871h4.316v.572L90.324-.871h3.432V0ZM95.6-2.574l-.143-4.914L95.433-8.71h1.079l-.026,1.222-.143,4.914Zm.377,2.73a.752.752,0,0,1-.553-.228A.784.784,0,0,1,95.2-.65a.817.817,0,0,1,.227-.6.752.752,0,0,1,.553-.227.737.737,0,0,1,.539.227.817.817,0,0,1,.228.6.784.784,0,0,1-.228.579A.737.737,0,0,1,95.979.156Z" transform="translate(92 228)"/>
        <g id="Rectangle_622-2" data-name="Rectangle 622" class="cls-15" transform="translate(480 145)">
          <path class="cls-28" d="M0,0H140V38H0Z"/>
          <path class="cls-29" d="M 1 1 L 1 37 L 139 37 L 139 1 L 1 1 M 0 0 L 140 0 L 140 38 L 0 38 L 0 0 Z"/>
        </g>
        <g id="Mask_Group_333" data-name="Mask Group 333" class="cls-16" transform="translate(454 -128)">
          <path id="Ellipse_70" data-name="Ellipse 70" class="cls-17" d="M.833,0A.833.833,0,1,1,0,.833.833.833,0,0,1,.833,0Z" transform="translate(163.667 259.667)"/>
          <path id="Ellipse_71" data-name="Ellipse 71" class="cls-17" d="M.833,0A.833.833,0,1,1,0,.833.833.833,0,0,1,.833,0Z" transform="translate(163.667 253.833)"/>
          <path id="Ellipse_72" data-name="Ellipse 72" class="cls-17" d="M.833,0A.833.833,0,1,1,0,.833.833.833,0,0,1,.833,0Z" transform="translate(163.667 265.5)"/>
        </g>
        <g id="Mask_Group_330" data-name="Mask Group 330" class="cls-18" transform="translate(501.417 157)">
          <path id="user-solid" class="cls-5" d="M6.563,7.5a3.75,3.75,0,1,0-3.75-3.75A3.75,3.75,0,0,0,6.563,7.5Zm2.625.937H8.7a5.1,5.1,0,0,1-4.271,0H3.938A3.939,3.939,0,0,0,0,12.375v1.219A1.407,1.407,0,0,0,1.406,15H11.719a1.407,1.407,0,0,0,1.406-1.406V12.375A3.939,3.939,0,0,0,9.188,8.438Z" transform="translate(0.632 -0.046)"/>
        </g>
        <path id="Rectangle_623" data-name="Rectangle 623" class="cls-5" d="M4,0H69a4,4,0,0,1,0,8H4A4,4,0,0,1,4,0Z" transform="translate(526 161)"/>
        <g class="cls-30" transform="matrix(1, 0, 0, 1, -22.5, -16.5)">
          <g id="Rectangle_622-3" data-name="Rectangle 622" class="cls-15" transform="translate(491.5 191.5)">
            <path class="cls-28" d="M0,0H161V39H0Z"/>
            <path class="cls-29" d="M 1 1 L 1 38 L 160 38 L 160 1 L 1 1 M 0 0 L 161 0 L 161 39 L 0 39 L 0 0 Z"/>
          </g>
        </g>
        <path id="Rectangle_743" data-name="Rectangle 743" class="cls-4" d="M5,0H68a5,5,0,0,1,0,10H5A5,5,0,0,1,5,0Z" transform="translate(74 302)"/>
        <path id="Ellipse_15-2" data-name="Ellipse 15" class="cls-19" d="M20,0A20,20,0,1,1,0,20,20,20,0,0,1,20,0Z" transform="translate(24 299)"/>
        <path id="Rectangle_633" data-name="Rectangle 633" class="cls-19" d="M5,0H68a5,5,0,0,1,0,10H5A5,5,0,0,1,5,0Z" transform="translate(74 317)"/>
        <path id="Rectangle_670" data-name="Rectangle 670" class="cls-19" d="M5,0H98a5,5,0,0,1,0,10H5A5,5,0,0,1,5,0Z" transform="translate(92 332)"/>
        <path id="Rectangle_743-2" data-name="Rectangle 743" class="cls-4" d="M5,0H68a5,5,0,0,1,0,10H5A5,5,0,0,1,5,0Z" transform="translate(325 302)"/>
        <path id="Ellipse_15-3" data-name="Ellipse 15" class="cls-19" d="M20,0A20,20,0,1,1,0,20,20,20,0,0,1,20,0Z" transform="translate(275 299)"/>
        <path id="Rectangle_633-2" data-name="Rectangle 633" class="cls-19" d="M5,0H68a5,5,0,0,1,0,10H5A5,5,0,0,1,5,0Z" transform="translate(325 317)"/>
        <path id="Rectangle_670-2" data-name="Rectangle 670" class="cls-19" d="M5,0H98a5,5,0,0,1,0,10H5A5,5,0,0,1,5,0Z" transform="translate(343 332)"/>
        <path id="gift-solid-2" data-name="gift-solid" class="cls-3" d="M.813,11.375a.812.812,0,0,0,.813.813H5.688V8.125H.813Zm6.5.813h4.063a.812.812,0,0,0,.813-.812V8.125H7.313Zm4.875-8.125H11.119a2.214,2.214,0,0,0,.256-1.016A2.238,2.238,0,0,0,9.141.813c-1.056,0-1.739.541-2.615,1.734C5.649,1.353,4.966.813,3.91.813A2.238,2.238,0,0,0,1.676,3.047a2.183,2.183,0,0,0,.256,1.016H.813A.812.812,0,0,0,0,4.875V6.906a.407.407,0,0,0,.406.406H12.594A.407.407,0,0,0,13,6.906V4.875a.812.812,0,0,0-.812-.812Zm-8.28,0a1.016,1.016,0,0,1,0-2.031c.505,0,.879.084,2.186,2.031Zm5.233,0H6.954C8.26,2.12,8.623,2.031,9.141,2.031a1.016,1.016,0,0,1,0,2.031Z" transform="translate(324 330)"/>
        <path id="Rectangle_743-3" data-name="Rectangle 743" class="cls-4" d="M5,0H68a5,5,0,0,1,0,10H5A5,5,0,0,1,5,0Z" transform="translate(324 181)"/>
        <path id="Ellipse_15-4" data-name="Ellipse 15" class="cls-19" d="M20,0A20,20,0,1,1,0,20,20,20,0,0,1,20,0Z" transform="translate(274 178)"/>
        <path id="Rectangle_633-3" data-name="Rectangle 633" class="cls-19" d="M5,0H68a5,5,0,0,1,0,10H5A5,5,0,0,1,5,0Z" transform="translate(324 196)"/>
        <path id="Rectangle_670-3" data-name="Rectangle 670" class="cls-19" d="M5,0H98a5,5,0,0,1,0,10H5A5,5,0,0,1,5,0Z" transform="translate(342 211)"/>
        <path id="gift-solid-3" data-name="gift-solid" class="cls-3" d="M.813,11.375a.812.812,0,0,0,.813.813H5.688V8.125H.813Zm6.5.813h4.063a.812.812,0,0,0,.813-.812V8.125H7.313Zm4.875-8.125H11.119a2.214,2.214,0,0,0,.256-1.016A2.238,2.238,0,0,0,9.141.813c-1.056,0-1.739.541-2.615,1.734C5.649,1.353,4.966.813,3.91.813A2.238,2.238,0,0,0,1.676,3.047a2.183,2.183,0,0,0,.256,1.016H.813A.812.812,0,0,0,0,4.875V6.906a.407.407,0,0,0,.406.406H12.594A.407.407,0,0,0,13,6.906V4.875a.812.812,0,0,0-.812-.812Zm-8.28,0a1.016,1.016,0,0,1,0-2.031c.505,0,.879.084,2.186,2.031Zm5.233,0H6.954C8.26,2.12,8.623,2.031,9.141,2.031a1.016,1.016,0,0,1,0,2.031Z" transform="translate(324 209)"/>
        <path id="gift-solid-4" data-name="gift-solid" class="cls-3" d="M.813,11.375a.812.812,0,0,0,.813.813H5.688V8.125H.813Zm6.5.813h4.063a.812.812,0,0,0,.813-.812V8.125H7.313Zm4.875-8.125H11.119a2.214,2.214,0,0,0,.256-1.016A2.238,2.238,0,0,0,9.141.813c-1.056,0-1.739.541-2.615,1.734C5.649,1.353,4.966.813,3.91.813A2.238,2.238,0,0,0,1.676,3.047a2.183,2.183,0,0,0,.256,1.016H.813A.812.812,0,0,0,0,4.875V6.906a.407.407,0,0,0,.406.406H12.594A.407.407,0,0,0,13,6.906V4.875a.812.812,0,0,0-.812-.812Zm-8.28,0a1.016,1.016,0,0,1,0-2.031c.505,0,.879.084,2.186,2.031Zm5.233,0H6.954C8.26,2.12,8.623,2.031,9.141,2.031a1.016,1.016,0,0,1,0,2.031Z" transform="translate(74 330)"/>
        <g id="Mask_Group_327" data-name="Mask Group 327" class="cls-16" transform="translate(454 44)">
          <path id="Ellipse_80" data-name="Ellipse 80" class="cls-17" d="M.833,0A.833.833,0,1,1,0,.833.833.833,0,0,1,.833,0Z" transform="translate(163.667 259.667)"/>
          <path id="Ellipse_81" data-name="Ellipse 81" class="cls-17" d="M.833,0A.833.833,0,1,1,0,.833.833.833,0,0,1,.833,0Z" transform="translate(163.667 253.833)"/>
          <path id="Ellipse_82" data-name="Ellipse 82" class="cls-17" d="M.833,0A.833.833,0,1,1,0,.833.833.833,0,0,1,.833,0Z" transform="translate(163.667 265.5)"/>
        </g>
        <path id="Doğum_Günü_Mesajı_Gönder" data-name="Doğum Günü Mesajı Gönder" class="cls-4" d="M1.35,0V-9.84h1.5L4.74-4.59q.18.51.352,1.028t.352,1.027h.06q.18-.51.337-1.027T6.18-4.59L8.04-9.84H9.555V0H8.385V-5.415q0-.66.06-1.455t.1-1.455H8.49L7.71-6.09,5.85-.99H5.025l-1.86-5.1-.78-2.235h-.06q.045.66.1,1.455t.053,1.455V0ZM15.09.18a3.569,3.569,0,0,1-1.373-.263,3.253,3.253,0,0,1-1.11-.75,3.473,3.473,0,0,1-.743-1.193,4.464,4.464,0,0,1-.27-1.6,4.415,4.415,0,0,1,.278-1.612,3.774,3.774,0,0,1,.735-1.208,3.189,3.189,0,0,1,1.042-.757,2.937,2.937,0,0,1,1.215-.262,3.053,3.053,0,0,1,1.238.24,2.413,2.413,0,0,1,.915.69,3.166,3.166,0,0,1,.563,1.08,4.758,4.758,0,0,1,.195,1.41q0,.2-.007.383a1.848,1.848,0,0,1-.038.322H12.81a2.847,2.847,0,0,0,.728,1.852,2.248,2.248,0,0,0,1.7.683,2.866,2.866,0,0,0,.968-.157,4.281,4.281,0,0,0,.847-.413l.435.81a6.21,6.21,0,0,1-1.065.525A3.7,3.7,0,0,1,15.09.18ZM12.8-4.23h3.9a2.611,2.611,0,0,0-.472-1.687,1.619,1.619,0,0,0-1.328-.577,1.877,1.877,0,0,0-.742.15,1.955,1.955,0,0,0-.638.443,2.425,2.425,0,0,0-.472.713A3.217,3.217,0,0,0,12.8-4.23ZM21.48.18a3.925,3.925,0,0,1-1.485-.285,4.633,4.633,0,0,1-1.23-.72l.615-.825a4.935,4.935,0,0,0,.983.63,2.668,2.668,0,0,0,1.163.24,1.551,1.551,0,0,0,1.08-.33,1.056,1.056,0,0,0,.36-.81.829.829,0,0,0-.15-.495,1.492,1.492,0,0,0-.382-.368A2.8,2.8,0,0,0,21.9-3.06l-.6-.24q-.39-.135-.78-.308a3.115,3.115,0,0,1-.7-.42,2.125,2.125,0,0,1-.5-.577,1.536,1.536,0,0,1-.195-.8,1.965,1.965,0,0,1,.172-.817,1.882,1.882,0,0,1,.5-.66,2.345,2.345,0,0,1,.788-.435,3.263,3.263,0,0,1,1.05-.157,3.271,3.271,0,0,1,1.267.24,3.944,3.944,0,0,1,1,.585l-.585.78a3.919,3.919,0,0,0-.78-.465,2.154,2.154,0,0,0-.885-.18,1.4,1.4,0,0,0-1.012.315,1,1,0,0,0-.323.735.737.737,0,0,0,.135.442,1.279,1.279,0,0,0,.36.33,2.935,2.935,0,0,0,.517.255l.607.233q.39.15.788.315a3.019,3.019,0,0,1,.713.412,2.028,2.028,0,0,1,.517.608,1.749,1.749,0,0,1,.2.87,2.053,2.053,0,0,1-.173.84,2,2,0,0,1-.51.69,2.438,2.438,0,0,1-.84.473A3.526,3.526,0,0,1,21.48.18Zm6.06,0a2.207,2.207,0,0,1-1.522-.54,1.94,1.94,0,0,1-.608-1.53,2.024,2.024,0,0,1,1.065-1.837A8.8,8.8,0,0,1,29.88-4.62a3.36,3.36,0,0,0-.067-.675,1.688,1.688,0,0,0-.233-.585,1.221,1.221,0,0,0-.458-.413,1.556,1.556,0,0,0-.743-.158,2.953,2.953,0,0,0-1.185.24,5.78,5.78,0,0,0-.99.54l-.48-.855a7.959,7.959,0,0,1,1.245-.637,4.157,4.157,0,0,1,1.62-.307,2.239,2.239,0,0,1,1.935.817,3.608,3.608,0,0,1,.6,2.182V0H30.1L30-.87h-.045a6.168,6.168,0,0,1-1.125.742A2.788,2.788,0,0,1,27.54.18Zm.36-.99a2.076,2.076,0,0,0,.99-.248,4.961,4.961,0,0,0,.99-.728V-3.81a12.444,12.444,0,0,0-1.538.285,4.053,4.053,0,0,0-1,.39,1.512,1.512,0,0,0-.555.517,1.233,1.233,0,0,0-.173.638,1.033,1.033,0,0,0,.375.9A1.524,1.524,0,0,0,27.9-.81Zm4.77,4.065a2.849,2.849,0,0,1-.615-.06,3.307,3.307,0,0,1-.465-.135l.255-.93a2.832,2.832,0,0,0,.315.082,1.834,1.834,0,0,0,.375.038.718.718,0,0,0,.72-.375,2.479,2.479,0,0,0,.18-1.05V-7.29h1.23V.825a3.094,3.094,0,0,1-.45,1.77A1.734,1.734,0,0,1,32.67,3.255Zm1.4-12.045a.87.87,0,0,1-.607-.225.737.737,0,0,1-.248-.57.731.731,0,0,1,.248-.578.888.888,0,0,1,.607-.217.867.867,0,0,1,.592.217.731.731,0,0,1,.248.578.737.737,0,0,1-.248.57A.85.85,0,0,1,34.065-8.79ZM44.115.18a4.564,4.564,0,0,1-1.792-.345,3.891,3.891,0,0,1-1.4-1,4.651,4.651,0,0,1-.915-1.6,6.552,6.552,0,0,1-.33-2.153,6.3,6.3,0,0,1,.338-2.13,4.706,4.706,0,0,1,.938-1.605,4.041,4.041,0,0,1,1.432-1.012,4.588,4.588,0,0,1,1.807-.352,3.928,3.928,0,0,1,.938.1,3.87,3.87,0,0,1,.78.278,3.538,3.538,0,0,1,.63.39,4.258,4.258,0,0,1,.487.443l-.69.81a3.567,3.567,0,0,0-.87-.66,2.578,2.578,0,0,0-1.245-.27,3.179,3.179,0,0,0-1.35.278,2.825,2.825,0,0,0-1.02.795A3.766,3.766,0,0,0,41.2-6.6a5.458,5.458,0,0,0-.233,1.65,5.947,5.947,0,0,0,.217,1.673,3.719,3.719,0,0,0,.63,1.268,2.782,2.782,0,0,0,1.02.81,3.268,3.268,0,0,0,1.4.285,3.134,3.134,0,0,0,1-.157,2.159,2.159,0,0,0,.772-.428V-4.065H43.92V-5.1h3.225V-.96a3.691,3.691,0,0,1-1.26.818A4.6,4.6,0,0,1,44.115.18Zm8.1,0a3.28,3.28,0,0,1-1.282-.255A3.159,3.159,0,0,1,49.86-.817a3.615,3.615,0,0,1-.743-1.2A4.415,4.415,0,0,1,48.84-3.63a4.46,4.46,0,0,1,.278-1.627,3.7,3.7,0,0,1,.743-1.208,3.111,3.111,0,0,1,1.073-.75,3.28,3.28,0,0,1,1.282-.255,3.28,3.28,0,0,1,1.283.255,3.111,3.111,0,0,1,1.072.75,3.7,3.7,0,0,1,.743,1.208A4.46,4.46,0,0,1,55.59-3.63a4.415,4.415,0,0,1-.278,1.612,3.615,3.615,0,0,1-.743,1.2A3.159,3.159,0,0,1,53.5-.075,3.28,3.28,0,0,1,52.215.18Zm0-1.02a1.827,1.827,0,0,0,.855-.2,1.965,1.965,0,0,0,.668-.57,2.709,2.709,0,0,0,.427-.877,4.035,4.035,0,0,0,.15-1.14,4.114,4.114,0,0,0-.15-1.148,2.792,2.792,0,0,0-.427-.892,1.934,1.934,0,0,0-.668-.577,1.827,1.827,0,0,0-.855-.2,1.827,1.827,0,0,0-.855.2,1.934,1.934,0,0,0-.667.577,2.792,2.792,0,0,0-.427.892,4.114,4.114,0,0,0-.15,1.148,4.035,4.035,0,0,0,.15,1.14,2.709,2.709,0,0,0,.427.877,1.965,1.965,0,0,0,.667.57A1.827,1.827,0,0,0,52.215-.84Zm-1.44-7.965a.718.718,0,0,1-.54-.217.738.738,0,0,1-.21-.533.738.738,0,0,1,.21-.533.718.718,0,0,1,.54-.217.7.7,0,0,1,.525.217.738.738,0,0,1,.21.533.738.738,0,0,1-.21.533A.7.7,0,0,1,50.775-8.805Zm2.88,0a.7.7,0,0,1-.525-.217.738.738,0,0,1-.21-.533.738.738,0,0,1,.21-.533.7.7,0,0,1,.525-.217.718.718,0,0,1,.54.217.738.738,0,0,1,.21.533.738.738,0,0,1-.21.533A.718.718,0,0,1,53.655-8.805ZM57.51,0V-7.29h1.02l.1,1.05h.045a5.939,5.939,0,0,1,1.1-.877,2.525,2.525,0,0,1,1.343-.352,1.96,1.96,0,0,1,1.688.72,3.559,3.559,0,0,1,.532,2.13V0h-1.23V-4.455a2.605,2.605,0,0,0-.33-1.492,1.206,1.206,0,0,0-1.05-.457,1.792,1.792,0,0,0-1.005.285,6.52,6.52,0,0,0-.99.84V0Zm10.7.18a2.7,2.7,0,0,1-2.2-.99,4.318,4.318,0,0,1-.817-2.82,4.6,4.6,0,0,1,.262-1.6,3.794,3.794,0,0,1,.7-1.207,3.091,3.091,0,0,1,1-.765,2.77,2.77,0,0,1,1.2-.27,2.489,2.489,0,0,1,1.095.225,4.891,4.891,0,0,1,.945.615l-.06-1.245V-10.68H71.58V0H70.56l-.1-.855H70.41a4.61,4.61,0,0,1-1,.728A2.478,2.478,0,0,1,68.205.18Zm.27-1.035a1.962,1.962,0,0,0,.96-.247,3.453,3.453,0,0,0,.9-.758V-5.67a3.1,3.1,0,0,0-.893-.592,2.325,2.325,0,0,0-.877-.173,1.722,1.722,0,0,0-.818.2,2.063,2.063,0,0,0-.667.57,2.848,2.848,0,0,0-.45.878,3.692,3.692,0,0,0-.165,1.14A3.489,3.489,0,0,0,66.99-1.59,1.718,1.718,0,0,0,68.475-.855ZM76.995.18a3.569,3.569,0,0,1-1.372-.263,3.253,3.253,0,0,1-1.11-.75,3.473,3.473,0,0,1-.743-1.193,4.464,4.464,0,0,1-.27-1.6,4.415,4.415,0,0,1,.277-1.612,3.774,3.774,0,0,1,.735-1.208,3.189,3.189,0,0,1,1.043-.757A2.937,2.937,0,0,1,76.77-7.47a3.053,3.053,0,0,1,1.238.24,2.413,2.413,0,0,1,.915.69,3.166,3.166,0,0,1,.563,1.08,4.759,4.759,0,0,1,.195,1.41q0,.2-.007.383a1.847,1.847,0,0,1-.038.322h-4.92a2.847,2.847,0,0,0,.728,1.852,2.248,2.248,0,0,0,1.7.683,2.866,2.866,0,0,0,.967-.157,4.281,4.281,0,0,0,.848-.413l.435.81a6.21,6.21,0,0,1-1.065.525A3.7,3.7,0,0,1,76.995.18ZM74.7-4.23h3.9a2.611,2.611,0,0,0-.473-1.687A1.619,1.619,0,0,0,76.8-6.495a1.877,1.877,0,0,0-.743.15,1.955,1.955,0,0,0-.637.443,2.425,2.425,0,0,0-.473.713A3.217,3.217,0,0,0,74.7-4.23ZM81.48,0V-7.29H82.5l.105,1.32h.045a3.368,3.368,0,0,1,.908-1.095A1.879,1.879,0,0,1,84.72-7.47a1.938,1.938,0,0,1,.78.15l-.24,1.08a2.774,2.774,0,0,0-.33-.09,1.958,1.958,0,0,0-.375-.03,1.633,1.633,0,0,0-.967.375,2.984,2.984,0,0,0-.878,1.3V0Z" transform="translate(519 200)"/>
        <g id="Mask_Group_322" data-name="Mask Group 322" class="cls-20" transform="translate(176 -106)">
          <path id="paper-plane-solid" class="cls-4" d="M13.943.094.366,7.926A.7.7,0,0,0,.431,9.192L3.544,10.5,11.96,3.081a.176.176,0,0,1,.252.243l-7.056,8.6v2.358a.7.7,0,0,0,1.245.463l1.86-2.264,3.65,1.529a.7.7,0,0,0,.967-.533L14.985.82A.7.7,0,0,0,13.943.094Z" transform="translate(318.002 293.001)"/>
        </g>
      </g>
    </g>
    <path id="Path_1962" data-name="Path 1962" class="cls-21" d="M777,237.4l4.6,9.3,10.3,1.5-7.5,7.2,1.8,10.2-9.2-4.8-9.2,4.8,1.8-10.2-7.5-7.2,10.3-1.5Z" transform="translate(-3798 13253.6)"/>
    <path id="Path_1963" data-name="Path 1963" class="cls-22" d="M621,187.7l6.2,12.7,14,2-10.1,9.9,2.4,13.9L621,219.6l-12.5,6.6,2.4-13.9-10.1-9.9,14-2Z" transform="translate(-3406 13094.6)"/>
    <path id="Path_1964" data-name="Path 1964" class="cls-23" d="M621,187.7l6.2,12.7,14,2-10.1,9.9,2.4,13.9L621,219.6l-12.5,6.6,2.4-13.9-10.1-9.9,14-2Z" transform="translate(-3105 13361.6)"/>
    <path id="Path_1965" data-name="Path 1965" class="cls-23" d="M915,194.6l4.2,8.6,9.5,1.3-6.8,6.7,1.6,9.5-8.5-4.5-8.5,4.5,1.6-9.5-6.8-6.7,9.5-1.3Z" transform="translate(-3650 13311.6)"/>
    <path id="Path_1966" data-name="Path 1966" class="cls-22" d="M544.1,227.1l6-28.5-27,1.5Z" transform="translate(-3140 13320.6)"/>
    <path id="Path_1967" data-name="Path 1967" class="cls-24" d="M841.1,275.1l-3-39,22.5,21Z" transform="translate(-3648 13142.6)"/>
    <path id="Path_1968" data-name="Path 1968" class="cls-22" d="M1055.6,171.6l-36,9,24,16.5Z" transform="translate(-3915 13352.6)"/>
    <path id="Path_912" data-name="Path 912" class="cls-24" d="M648.4,356.168c6.173,0,7.538-2.957,8.773-6.368h5.361v50.752h-7.961v-38.73H648.4Z" transform="translate(-3155 13012.146)"/>
    <path id="Path_1986" data-name="Path 1986" class="cls-25" d="M0,0H2.794V50.752H0Z" transform="translate(-2495.26 13361.945)"/>
    <path id="Path_913" data-name="Path 913" class="cls-24" d="M722.277,399.754c-8.058,0-12.477-4.646-12.477-12.769v-4c0-4.841,1.462-8.643,4.939-10.592-3.347-1.82-4.939-5.231-4.939-10.235v-1.592c0-8.123,4.419-12.769,12.477-12.769s12.477,4.646,12.477,12.769v1.592c0,5-1.657,8.415-4.939,10.235,3.477,1.949,4.939,5.719,4.939,10.592v4C734.754,395.14,730.335,399.754,722.277,399.754Zm-4.484-36c0,4.061,1.885,5.361,4.484,5.361,2.534,0,4.484-1.3,4.484-5.361v-2.827c0-4.581-1.95-5.784-4.484-5.784s-4.484,1.235-4.484,5.784Zm4.484,28.755c2.534,0,4.419-1.235,4.484-5.719v-4.711c0-4-1.657-5.719-4.484-5.719s-4.484,1.755-4.484,5.719v4.711C717.793,391.274,719.743,392.509,722.277,392.509Z" transform="translate(-3196.45 13013.495)"/>
    <path id="Path_914" data-name="Path 914" class="cls-25" d="M752.633,372.564a8.645,8.645,0,0,1,3.412,3.509.113.113,0,0,1,.032.065,11.47,11.47,0,0,1,.52,1.1c.033.1.1.227.13.325,0,.032.032.065.032.1a.6.6,0,0,1,.065.227,1.166,1.166,0,0,0,.13.357c.065.195.1.357.163.552l.1.39a18.538,18.538,0,0,1,.39,3.932v4c0,.487-.032.975-.065,1.462,0,.13-.032.227-.032.357v.032a12.321,12.321,0,0,1-2.892,7.311h0a1.408,1.408,0,0,0-.195.227c-.195.195-.39.39-.585.552a9.688,9.688,0,0,1-1.3.975c-.227.13-.487.292-.715.422a6.7,6.7,0,0,1-.845.39,1.155,1.155,0,0,0-.292.13l-.292.1c-.1.032-.227.065-.325.1a7.986,7.986,0,0,1-.942.26c-.13.032-.227.065-.357.1-.1.032-.227.032-.325.065-.13.032-.227.032-.357.065-.227.033-.455.065-.715.1a4,4,0,0,1-.65.065c-.162,0-.325.033-.487.033-.227,0-.455.032-.682.032h-1.007a2.974,2.974,0,0,1-.552-.032h0a1.581,1.581,0,0,1-.39-.033c.228-.032.455-.032.682-.065A12.461,12.461,0,0,0,749.546,398a10.9,10.9,0,0,0,4.776-7.928,20.535,20.535,0,0,0,.227-2.924v-4a21.533,21.533,0,0,0-.195-2.957,12.561,12.561,0,0,0-.877-3.249,8.72,8.72,0,0,0-3.834-4.386,10.57,10.57,0,0,0,1.69-1.2h0A9.641,9.641,0,0,0,754,366.943a16.336,16.336,0,0,0,.585-4.581v-1.949a15.937,15.937,0,0,0-.357-3.412,11.1,11.1,0,0,0-2.664-5.426,9.84,9.84,0,0,0-3.379-2.4,14.6,14.6,0,0,0-4.549-1.1c.487-.032,1.007-.065,1.527-.065a15.187,15.187,0,0,1,5.2.812,11.224,11.224,0,0,1,1.1.455c.162.1.357.162.52.26l.682.39a.325.325,0,0,1,.162.13c.065.033.13.1.195.13.1.065.162.13.227.162.195.162.39.292.585.455h0a10.5,10.5,0,0,1,3.217,5.264c.032.1.065.227.1.325.033.065.033.162.065.227.032.162.065.292.1.455.032.1.032.195.065.325.032.1.032.227.065.325s.032.227.065.325a1.334,1.334,0,0,1,.032.357c0,.13.033.26.033.39a.553.553,0,0,0,.032.227c0,.13.032.227.032.357.032.455.032.91.032,1.365v1.592a16.115,16.115,0,0,1-.325,3.444,9.138,9.138,0,0,1-.26,1.007c-.032.065-.032.162-.065.227v.065a1.836,1.836,0,0,1-.13.39c-.032.13-.1.26-.13.357a.032.032,0,0,1-.032.033l-.1.195v.033c-.065.13-.1.26-.162.39a2.984,2.984,0,0,1-.227.455c-.033.033-.033.1-.065.13-.032.065-.1.162-.13.227a.678.678,0,0,1-.13.195c-.065.1-.13.227-.195.325a.032.032,0,0,1-.032.033h0A8.759,8.759,0,0,1,752.633,372.564Z" transform="translate(-3219.268 13013.361)"/>
    <path id="Path_915" data-name="Path 915" class="cls-24" d="M677.813,304.8c0-3.607-4.906-9-4.906-9s-4.906,5.394-4.906,9,2.209,6.531,4.906,6.531C675.636,311.3,677.813,308.407,677.813,304.8Z" transform="translate(-3168.231 13048.601)"/>
    <path id="Path_916" data-name="Path 916" class="cls-26" d="M679.914,316.994c0-2.177-2.957-5.394-2.957-5.394S674,314.849,674,316.994s1.332,3.932,2.957,3.932C678.614,320.925,679.914,319.171,679.914,316.994Z" transform="translate(-3172.282 13037.934)"/>
    <path id="Path_917" data-name="Path 917" class="cls-24" d="M743.713,304.8c0-3.607-4.906-9-4.906-9s-4.906,5.394-4.906,9,2.209,6.531,4.906,6.531C741.536,311.3,743.713,308.407,743.713,304.8Z" transform="translate(-3212.72 13048.601)"/>
    <path id="Path_918" data-name="Path 918" class="cls-26" d="M745.813,316.994c0-2.177-2.957-5.394-2.957-5.394s-2.957,3.249-2.957,5.394,1.332,3.932,2.957,3.932S745.813,319.171,745.813,316.994Z" transform="translate(-3216.77 13037.934)"/>
    <path id="Path_919" data-name="Path 919" class="cls-23" d="M667.4,498.642h7.96V495.1l-7.96,2.664Z" transform="translate(-3167.827 12914.056)"/>
    <path id="Path_920" data-name="Path 920" class="cls-23" d="M667.4,470.906l7.96-2.664V464.7l-7.96,2.664Z" transform="translate(-3167.827 12934.578)"/>
    <path id="Path_921" data-name="Path 921" class="cls-23" d="M667.4,440.538l7.96-2.7V434.3L667.4,437Z" transform="translate(-3167.827 12955.101)"/>
    <path id="Path_922" data-name="Path 922" class="cls-23" d="M667.4,410.206l7.96-2.664V404l-7.96,2.664Z" transform="translate(-3167.827 12975.556)"/>
    <path id="Path_923" data-name="Path 923" class="cls-23" d="M657.341,377.889v1.917l7.96-2.664V373.6l-12.8,4.289Z" transform="translate(-3157.768 12996.078)"/>
    <path id="Path_924" data-name="Path 924" class="cls-23" d="M669.3,353.667l7.343-2.469v-1.4h-5.361A12.427,12.427,0,0,1,669.3,353.667Z" transform="translate(-3169.109 13012.146)"/>
    <path id="Path_925" data-name="Path 925" class="cls-27" d="M683.3,496.01v2.632h2.794V495.1Z" transform="translate(-3178.56 12914.056)"/>
    <path id="Path_926" data-name="Path 926" class="cls-27" d="M683.3,465.642v3.542l2.794-.942V464.7Z" transform="translate(-3178.56 12934.578)"/>
    <path id="Path_927" data-name="Path 927" class="cls-27" d="M683.3,435.242v3.542l2.794-.942V434.3Z" transform="translate(-3178.56 12955.101)"/>
    <path id="Path_928" data-name="Path 928" class="cls-27" d="M683.3,404.942v3.509l2.794-.91V404Z" transform="translate(-3178.56 12975.556)"/>
    <path id="Path_929" data-name="Path 929" class="cls-27" d="M683.3,374.542v3.542l2.794-.942V373.6Z" transform="translate(-3178.56 12996.078)"/>
    <path id="Path_930" data-name="Path 930" class="cls-27" d="M683.3,349.8v2.339l2.794-.942v-1.4Z" transform="translate(-3178.56 13012.146)"/>
    <path id="Path_931" data-name="Path 931" class="cls-23" d="M745.77,500.207c4.191,0,7.376-1.267,9.488-3.607L744.6,500.174C745.022,500.207,745.38,500.207,745.77,500.207Z" transform="translate(-3219.943 12913.044)"/>
    <path id="Path_932" data-name="Path 932" class="cls-23" d="M724.64,470.346a3.923,3.923,0,0,1-3.672-1.82l-7.668,2.567a11.2,11.2,0,0,0,1.852,2.924l21.867-7.343a16.8,16.8,0,0,0,.1-1.852V463.1l-8.058,2.7C728.7,469.338,726.947,470.346,724.64,470.346Z" transform="translate(-3198.813 12935.659)"/>
    <path id="Path_933" data-name="Path 933" class="cls-23" d="M760.447,440.119l7.6-2.567a11.685,11.685,0,0,0-1.137-3.152l-7.213,2.437A7.1,7.1,0,0,1,760.447,440.119Z" transform="translate(-3230.136 12955.034)"/>
    <path id="Path_934" data-name="Path 934" class="cls-23" d="M717.793,451.275c0-.325.033-.65.033-.975L709.8,453v3.542l7.961-2.664v-2.6Z" transform="translate(-3196.45 12944.3)"/>
    <path id="Path_935" data-name="Path 935" class="cls-23" d="M716.764,409.558a8.976,8.976,0,0,0-3.964,4.711l22.029-7.376a11.069,11.069,0,0,0,1.657-4.094l-19.852,6.661C716.667,409.493,716.732,409.526,716.764,409.558Z" transform="translate(-3198.475 12976.366)"/>
    <path id="Path_936" data-name="Path 936" class="cls-23" d="M761.56,377.8v1.007l7.928-2.664a15.321,15.321,0,0,0-.552-3.347l-7.636,2.567A10.164,10.164,0,0,1,761.56,377.8Z" transform="translate(-3231.217 12996.619)"/>
    <path id="Path_937" data-name="Path 937" class="cls-23" d="M718,392.039V389.7l-7.9,2.664a13.028,13.028,0,0,0,.682,3.314l7.278-2.437C718.028,392.819,718,392.462,718,392.039Z" transform="translate(-3196.652 12985.21)"/>
    <path id="Path_938" data-name="Path 938" class="cls-23" d="M710.5,359.1l20.925-7.018a10.84,10.84,0,0,0-4.061-2.177l-15.629,5.231A13.185,13.185,0,0,0,710.5,359.1Z" transform="translate(-3196.922 13012.078)"/>
    <path id="Path_939" data-name="Path 939" class="cls-27" d="M755.357,496.6a1.41,1.41,0,0,0-.2.227,9.9,9.9,0,0,1-2.632,1.949c-.26.13-.552.26-.845.39a1.158,1.158,0,0,0-.292.13l-.292.1c-.1.033-.227.065-.325.1a7.967,7.967,0,0,1-.942.26c-.13.033-.227.065-.357.1-.1.033-.227.033-.325.065-.13.032-.228.032-.357.065-.227.032-.455.065-.715.1a4,4,0,0,1-.65.065c-.162,0-.325.033-.487.033-.227,0-.455.032-.682.032h-1.007a2.975,2.975,0,0,1-.552-.032l.26-.1a12.461,12.461,0,0,0,5.264-1.755Z" transform="translate(-3220.01 12913.044)"/>
    <path id="Path_940" data-name="Path 940" class="cls-27" d="M779.714,463.2v1.722c0,.487-.032.975-.065,1.462,0,.13-.033.227-.033.357v.033l-3.217,1.072a20.535,20.535,0,0,0,.228-2.924v-.682Z" transform="translate(-3241.41 12935.592)"/>
    <path id="Path_941" data-name="Path 941" class="cls-27" d="M777.569,437.552h0l-2.892.975a12.557,12.557,0,0,0-.877-3.249l2.664-.877h0a.113.113,0,0,1,.032.065,11.492,11.492,0,0,1,.52,1.1c.033.1.1.227.13.325,0,.032.032.065.032.1a.6.6,0,0,1,.065.227,1.163,1.163,0,0,0,.13.357c.065.195.1.357.162.552C777.537,437.292,777.569,437.422,777.569,437.552Z" transform="translate(-3239.655 12955.034)"/>
    <path id="Path_942" data-name="Path 942" class="cls-27" d="M773.211,402.8a9.124,9.124,0,0,1-.26,1.007c-.032.065-.032.162-.065.227v.065a1.83,1.83,0,0,1-.13.39c-.032.13-.1.26-.13.357a.032.032,0,0,1-.032.032l-.1.195v.033c-.065.13-.1.26-.162.39a2.968,2.968,0,0,1-.227.455c-.032.032-.032.1-.065.13-.032.065-.1.162-.13.227a.679.679,0,0,1-.13.195c-.065.1-.13.227-.195.325a.032.032,0,0,1-.032.033h0l-4.354,1.462a9.64,9.64,0,0,0,2.664-4.419Z" transform="translate(-3235.2 12976.366)"/>
    <path id="Path_943" data-name="Path 943" class="cls-27" d="M779.412,376.147l-3.054,1.007a15.937,15.937,0,0,0-.357-3.412l2.859-.942c.032.1.065.227.1.325.033.065.033.162.065.227.032.162.065.292.1.455.032.1.032.195.065.325.032.1.032.227.065.325s.033.227.065.325a1.334,1.334,0,0,1,.032.357c0,.13.032.26.032.39a.553.553,0,0,0,.032.227A.792.792,0,0,0,779.412,376.147Z" transform="translate(-3241.14 12996.619)"/>
    <path id="Path_944" data-name="Path 944" class="cls-27" d="M763.086,352.077h0l-2.307.78a9.841,9.841,0,0,0-3.379-2.4l1.592-.552.585.195a11.237,11.237,0,0,1,1.1.455c.162.1.357.162.52.26l.682.39a.325.325,0,0,1,.162.13c.065.033.13.1.2.13.1.065.162.13.227.162A4.323,4.323,0,0,1,763.086,352.077Z" transform="translate(-3228.584 13012.078)"/>
  </g>
</svg>
