<svg xmlns="http://www.w3.org/2000/svg" xmlns:xlink="http://www.w3.org/1999/xlink" width="826" height="423" viewBox="0 0 826 423">
  <defs>
    <style>
      .cls-1, .cls-9 {
        fill: #fff;
      }

      .cls-2 {
        clip-path: url(#clip-path);
      }

      .cls-3 {
        fill: #495057;
      }

      .cls-4 {
        fill: #8ecf4d;
      }

      .cls-5 {
        fill: #f3f4f5;
      }

      .cls-6 {
        fill: #aab0b6;
      }

      .cls-7 {
        fill: #dbdde0;
      }

      .cls-8 {
        fill: #497dcf;
      }

      .cls-10 {
        fill: #467fcf;
      }

      .cls-11 {
        fill: #343a40;
      }

      .cls-12, .cls-13 {
        stroke: none;
      }

      .cls-13 {
        fill: rgba(0,40,100,0.12);
      }

      .cls-14 {
        filter: url(#bg);
      }

      .cls-15 {
        filter: url(#Gruplar);
      }
    </style>
    <filter id="Gruplar" x="131" y="0" width="695" height="423" filterUnits="userSpaceOnUse">
      <feOffset dy="6" input="SourceAlpha"/>
      <feGaussianBlur stdDeviation="7.5" result="blur"/>
      <feFlood flood-opacity="0.102"/>
      <feComposite operator="in" in2="blur"/>
      <feComposite in="SourceGraphic"/>
    </filter>
    <clipPath id="clip-path">
      <path id="Path_1902" data-name="Path 1902" d="M10,0H640a10,10,0,0,1,10,10V369a10,10,0,0,1-10,10H10A10,10,0,0,1,0,369V10A10,10,0,0,1,10,0Z"/>
    </clipPath>
    <filter id="bg" x="0" y="67" width="465" height="185" filterUnits="userSpaceOnUse">
      <feOffset dy="6" input="SourceAlpha"/>
      <feGaussianBlur stdDeviation="7.5" result="blur-2"/>
      <feFlood flood-opacity="0.102"/>
      <feComposite operator="in" in2="blur-2"/>
      <feComposite in="SourceGraphic"/>
    </filter>
  </defs>
  <g id="gruplar-2" data-name="gruplar" transform="translate(2600.5 -12710.5)">
    <g class="cls-15" transform="matrix(1, 0, 0, 1, -2600.5, 12710.5)">
      <path id="Gruplar-3" data-name="Gruplar" class="cls-1" d="M10,0H640a10,10,0,0,1,10,10V368a10,10,0,0,1-10,10H10A10,10,0,0,1,0,368V10A10,10,0,0,1,10,0Z" transform="translate(153.5 16.5)"/>
    </g>
    <g id="Mask_Group_286" data-name="Mask Group 286" class="cls-2" transform="translate(-2447 12727)">
      <path id="Path_1903" data-name="Path 1903" class="cls-1" d="M0,0H650V379H0Z"/>
      <path id="Gruplar-4" data-name="Gruplar" class="cls-3" d="M10.353.348A9.706,9.706,0,0,1,6.8-.29,7.868,7.868,0,0,1,3.958-2.175,8.608,8.608,0,0,1,2.088-5.249a12.132,12.132,0,0,1-.667-4.176,11.7,11.7,0,0,1,.7-4.161,9.241,9.241,0,0,1,1.9-3.117,8.013,8.013,0,0,1,2.842-1.943,9.255,9.255,0,0,1,3.523-.667,7.311,7.311,0,0,1,3.437.74,9.024,9.024,0,0,1,2.306,1.668l-1.8,2.175a7.393,7.393,0,0,0-1.609-1.174,4.624,4.624,0,0,0-2.219-.479,5.405,5.405,0,0,0-2.305.479,5.063,5.063,0,0,0-1.769,1.363,6.305,6.305,0,0,0-1.146,2.161,9.449,9.449,0,0,0-.406,2.871A7.973,7.973,0,0,0,6.337-4.423a5.206,5.206,0,0,0,4.335,1.842A5.322,5.322,0,0,0,12.209-2.8,3.155,3.155,0,0,0,13.4-3.422V-7.511H9.8v-2.755h6.612v8.352A7.684,7.684,0,0,1,13.877-.3,9.152,9.152,0,0,1,10.353.348ZM20.329,0V-14.239h2.755l.232,2.523h.116a5.978,5.978,0,0,1,1.827-2.131,3.84,3.84,0,0,1,2.2-.74,3.816,3.816,0,0,1,1.624.29l-.58,2.9a6.089,6.089,0,0,0-.7-.174,4.469,4.469,0,0,0-.783-.058,3.107,3.107,0,0,0-1.769.652A5.041,5.041,0,0,0,23.664-8.7V0ZM35.38.348a3.813,3.813,0,0,1-3.335-1.465A7.155,7.155,0,0,1,31-5.307v-8.932h3.335v8.5a4.431,4.431,0,0,0,.522,2.494,1.931,1.931,0,0,0,1.682.725,2.929,2.929,0,0,0,1.638-.464A6.7,6.7,0,0,0,39.7-4.495v-9.744h3.335V0H40.31l-.261-2.088h-.087A8.367,8.367,0,0,1,37.946-.319,4.811,4.811,0,0,1,35.38.348ZM47.27,5.626V-14.239h2.755l.232,1.508h.116a10.191,10.191,0,0,1,2-1.305,5.062,5.062,0,0,1,2.291-.551,5.279,5.279,0,0,1,2.363.508,4.9,4.9,0,0,1,1.755,1.465,6.825,6.825,0,0,1,1.1,2.291,10.978,10.978,0,0,1,.377,2.987,9.754,9.754,0,0,1-.507,3.263,7.4,7.4,0,0,1-1.349,2.407A5.889,5.889,0,0,1,56.463-.174a5.291,5.291,0,0,1-2.291.522,4.6,4.6,0,0,1-1.856-.406,7.1,7.1,0,0,1-1.8-1.16L50.6,1.16V5.626Zm6.206-8.033a2.9,2.9,0,0,0,2.378-1.233,5.916,5.916,0,0,0,.957-3.669,6.421,6.421,0,0,0-.725-3.335,2.541,2.541,0,0,0-2.349-1.189,4.626,4.626,0,0,0-3.132,1.6V-3.6a4.983,4.983,0,0,0,1.508.928A4.033,4.033,0,0,0,53.476-2.407ZM66.874.348A2.821,2.821,0,0,1,64.351-.725a5.17,5.17,0,0,1-.725-2.929v-16.82h3.335V-3.48a1.241,1.241,0,0,0,.232.856.676.676,0,0,0,.493.246H67.9a1.23,1.23,0,0,0,.3-.058L68.643.058A4.5,4.5,0,0,1,66.874.348Zm8.062,0A4.146,4.146,0,0,1,71.891-.8a4.068,4.068,0,0,1-1.16-3.031,4.168,4.168,0,0,1,.479-2.016,4.125,4.125,0,0,1,1.508-1.523,10.014,10.014,0,0,1,2.61-1.073,23.865,23.865,0,0,1,3.785-.667,5.375,5.375,0,0,0-.16-1.058,2.433,2.433,0,0,0-.435-.9,2.023,2.023,0,0,0-.8-.609A3.017,3.017,0,0,0,76.5-11.89a5.392,5.392,0,0,0-2.045.406A13.749,13.749,0,0,0,72.5-10.5l-1.218-2.233a14.265,14.265,0,0,1,2.668-1.305,9.065,9.065,0,0,1,3.19-.551,4.9,4.9,0,0,1,3.987,1.581,6.955,6.955,0,0,1,1.32,4.568V0H79.692L79.46-1.566h-.116A10.462,10.462,0,0,1,77.3-.2,5.154,5.154,0,0,1,74.936.348Zm1.073-2.61a3.129,3.129,0,0,0,1.58-.406,8.486,8.486,0,0,0,1.523-1.16v-3.19a15.223,15.223,0,0,0-2.436.464,7.041,7.041,0,0,0-1.6.652,2.325,2.325,0,0,0-.87.827,1.98,1.98,0,0,0-.261.986A1.626,1.626,0,0,0,74.53-2.7,2.4,2.4,0,0,0,76.009-2.262ZM86.449,0V-14.239H89.2l.232,2.523h.116a5.978,5.978,0,0,1,1.827-2.131,3.84,3.84,0,0,1,2.2-.74,3.816,3.816,0,0,1,1.624.29l-.58,2.9a6.089,6.089,0,0,0-.7-.174,4.469,4.469,0,0,0-.783-.058,3.107,3.107,0,0,0-1.769.652,5.041,5.041,0,0,0-1.6,2.276V0Z" transform="translate(20 49)"/>
      <path id="_4" data-name="4" class="cls-4" d="M3,0H97a3,3,0,0,1,3,3V27a3,3,0,0,1-3,3H3a3,3,0,0,1-3-3V3A3,3,0,0,1,3,0Z" transform="translate(530 24)"/>
      <path id="Grup_Oluştur" data-name="Grup Oluştur" class="cls-1" d="M4.284.144A4.016,4.016,0,0,1,2.814-.12,3.256,3.256,0,0,1,1.638-.9,3.562,3.562,0,0,1,.864-2.172,5.02,5.02,0,0,1,.588-3.9,4.843,4.843,0,0,1,.876-5.622a3.824,3.824,0,0,1,.786-1.29,3.316,3.316,0,0,1,1.176-.8A3.83,3.83,0,0,1,4.3-7.992a3.025,3.025,0,0,1,1.422.306A3.734,3.734,0,0,1,6.672-7l-.744.9a3.059,3.059,0,0,0-.666-.486,1.913,1.913,0,0,0-.918-.2,2.237,2.237,0,0,0-.954.2,2.1,2.1,0,0,0-.732.564,2.609,2.609,0,0,0-.474.894,3.91,3.91,0,0,0-.168,1.188A3.3,3.3,0,0,0,2.622-1.83a2.154,2.154,0,0,0,1.794.762,2.2,2.2,0,0,0,.636-.09,1.305,1.305,0,0,0,.492-.258V-3.108H4.056v-1.14H6.792V-.792a3.18,3.18,0,0,1-1.05.666A3.787,3.787,0,0,1,4.284.144ZM8.412,0V-5.892h1.14l.1,1.044H9.7a2.473,2.473,0,0,1,.756-.882,1.589,1.589,0,0,1,.912-.306,1.579,1.579,0,0,1,.672.12l-.24,1.2a2.52,2.52,0,0,0-.288-.072,1.849,1.849,0,0,0-.324-.024,1.286,1.286,0,0,0-.732.27,2.086,2.086,0,0,0-.66.942V0ZM14.64.144a1.578,1.578,0,0,1-1.38-.606A2.961,2.961,0,0,1,12.828-2.2v-3.7h1.38v3.516a1.833,1.833,0,0,0,.216,1.032.8.8,0,0,0,.7.3,1.212,1.212,0,0,0,.678-.192,2.772,2.772,0,0,0,.63-.624V-5.892h1.38V0H16.68l-.108-.864h-.036a3.462,3.462,0,0,1-.834.732A1.991,1.991,0,0,1,14.64.144Zm4.92,2.184v-8.22H20.7l.1.624h.048a4.217,4.217,0,0,1,.828-.54,2.094,2.094,0,0,1,.948-.228,2.184,2.184,0,0,1,.978.21,2.028,2.028,0,0,1,.726.606,2.824,2.824,0,0,1,.456.948,4.543,4.543,0,0,1,.156,1.236,4.036,4.036,0,0,1-.21,1.35,3.063,3.063,0,0,1-.558,1,2.437,2.437,0,0,1-.8.618,2.19,2.19,0,0,1-.948.216,1.9,1.9,0,0,1-.768-.168A2.938,2.938,0,0,1,20.9-.5L20.94.48V2.328ZM22.128-1a1.2,1.2,0,0,0,.984-.51,2.448,2.448,0,0,0,.4-1.518,2.657,2.657,0,0,0-.3-1.38,1.051,1.051,0,0,0-.972-.492,1.914,1.914,0,0,0-1.3.66v2.748a2.062,2.062,0,0,0,.624.384A1.669,1.669,0,0,0,22.128-1ZM31.9.144a3.426,3.426,0,0,1-1.4-.282A3.04,3.04,0,0,1,29.4-.954a3.822,3.822,0,0,1-.708-1.29A5.414,5.414,0,0,1,28.44-3.96a5.317,5.317,0,0,1,.252-1.7A3.632,3.632,0,0,1,29.4-6.924a3.071,3.071,0,0,1,1.092-.792,3.49,3.49,0,0,1,1.4-.276,3.49,3.49,0,0,1,1.4.276,3.129,3.129,0,0,1,1.1.792,3.579,3.579,0,0,1,.714,1.266,5.317,5.317,0,0,1,.252,1.7,5.414,5.414,0,0,1-.252,1.716A3.765,3.765,0,0,1,34.4-.954a3.1,3.1,0,0,1-1.1.816A3.426,3.426,0,0,1,31.9.144Zm0-1.212a1.718,1.718,0,0,0,.84-.2,1.871,1.871,0,0,0,.636-.582,2.9,2.9,0,0,0,.408-.912,4.586,4.586,0,0,0,.144-1.194,3.457,3.457,0,0,0-.546-2.07A1.738,1.738,0,0,0,31.9-6.78a1.738,1.738,0,0,0-1.482.75,3.458,3.458,0,0,0-.546,2.07,4.586,4.586,0,0,0,.144,1.194,2.9,2.9,0,0,0,.408.912,1.871,1.871,0,0,0,.636.582A1.718,1.718,0,0,0,31.9-1.068ZM38.16.144A1.168,1.168,0,0,1,37.116-.3a2.139,2.139,0,0,1-.3-1.212v-6.96H38.2V-1.44a.514.514,0,0,0,.1.354.28.28,0,0,0,.2.1h.09a.509.509,0,0,0,.126-.024l.18,1.032A1.862,1.862,0,0,1,38.16.144Zm3.66,0a1.578,1.578,0,0,1-1.38-.606A2.961,2.961,0,0,1,40.008-2.2v-3.7h1.38v3.516A1.833,1.833,0,0,0,41.6-1.344a.8.8,0,0,0,.7.3,1.212,1.212,0,0,0,.678-.192,2.772,2.772,0,0,0,.63-.624V-5.892h1.38V0H43.86l-.108-.864h-.036a3.462,3.462,0,0,1-.834.732A1.991,1.991,0,0,1,41.82.144Zm6.564,0A3.265,3.265,0,0,1,47.178-.09a3.9,3.9,0,0,1-1.026-.582L46.8-1.56a3.746,3.746,0,0,0,.786.486,2.053,2.053,0,0,0,.846.174,1.061,1.061,0,0,0,.708-.2.644.644,0,0,0,.228-.51.5.5,0,0,0-.108-.318,1.038,1.038,0,0,0-.288-.246,2.768,2.768,0,0,0-.408-.2q-.228-.09-.456-.186-.288-.108-.588-.252a2.364,2.364,0,0,1-.534-.348A1.755,1.755,0,0,1,46.6-3.63a1.3,1.3,0,0,1-.15-.642,1.6,1.6,0,0,1,.576-1.272A2.342,2.342,0,0,1,48.6-6.036a2.719,2.719,0,0,1,1.1.216,4.11,4.11,0,0,1,.852.492l-.636.84a3.291,3.291,0,0,0-.63-.366,1.656,1.656,0,0,0-.666-.138.967.967,0,0,0-.654.186.592.592,0,0,0-.21.462.471.471,0,0,0,.1.306.945.945,0,0,0,.27.222,2.749,2.749,0,0,0,.39.18q.222.084.462.168.3.108.6.246a2.464,2.464,0,0,1,.546.342,1.56,1.56,0,0,1,.4.5,1.528,1.528,0,0,1,.15.7,1.7,1.7,0,0,1-.15.714,1.649,1.649,0,0,1-.438.576,2.133,2.133,0,0,1-.72.39A3.106,3.106,0,0,1,48.384.144Zm-.9,2.652-.12-.6a3.182,3.182,0,0,0,1-.174.411.411,0,0,0,.27-.39.4.4,0,0,0-.192-.336,1.846,1.846,0,0,0-.732-.2l.552-1.128h.84l-.348.78a1.639,1.639,0,0,1,.666.306.705.705,0,0,1,.234.57.9.9,0,0,1-.564.852A4.2,4.2,0,0,1,47.484,2.8ZM53.748.144a2.156,2.156,0,0,1-.87-.156A1.475,1.475,0,0,1,52.3-.45a1.813,1.813,0,0,1-.324-.672,3.439,3.439,0,0,1-.1-.87V-4.8h-.84V-5.832l.912-.06L52.116-7.5h1.152v1.608h1.5V-4.8h-1.5v2.808q0,1.032.828,1.032A1.463,1.463,0,0,0,54.414-1a1.491,1.491,0,0,0,.294-.1l.24,1.02a4.593,4.593,0,0,1-.546.15A3.1,3.1,0,0,1,53.748.144Zm4.008,0a1.578,1.578,0,0,1-1.38-.606A2.961,2.961,0,0,1,55.944-2.2v-3.7h1.38v3.516a1.833,1.833,0,0,0,.216,1.032.8.8,0,0,0,.7.3,1.212,1.212,0,0,0,.678-.192,2.772,2.772,0,0,0,.63-.624V-5.892h1.38V0H59.8l-.108-.864h-.036a3.462,3.462,0,0,1-.834.732A1.991,1.991,0,0,1,57.756.144ZM62.676,0V-5.892h1.14l.1,1.044h.048a2.474,2.474,0,0,1,.756-.882,1.589,1.589,0,0,1,.912-.306,1.579,1.579,0,0,1,.672.12l-.24,1.2a2.519,2.519,0,0,0-.288-.072,1.849,1.849,0,0,0-.324-.024,1.286,1.286,0,0,0-.732.27,2.086,2.086,0,0,0-.66.942V0Z" transform="translate(547 44)"/>
      <path id="bg-2" data-name="bg" class="cls-5" d="M3,0H292a3,3,0,0,1,3,3V128a3,3,0,0,1-3,3H3a3,3,0,0,1-3-3V3A3,3,0,0,1,3,0Z" transform="translate(20 228)"/>
      <path id="Rectangle_1078" data-name="Rectangle 1078" class="cls-6" d="M5,0H69a5,5,0,0,1,0,10H5A5,5,0,0,1,5,0Z" transform="translate(40 253)"/>
      <path id="Rectangle_1079" data-name="Rectangle 1079" class="cls-7" d="M4,0H40a4,4,0,0,1,0,8H4A4,4,0,0,1,4,0Z" transform="translate(40 273)"/>
      <path id="Rectangle_1074" data-name="Rectangle 1074" class="cls-7" d="M4,0H181a4,4,0,0,1,0,8H4A4,4,0,0,1,4,0Z" transform="translate(40 326)"/>
      <path id="Rectangle_1077" data-name="Rectangle 1077" class="cls-8" d="M5,0H55a5,5,0,0,1,0,10H5A5,5,0,0,1,5,0Z" transform="translate(235 253)"/>
      <path id="Rectangle_1076" data-name="Rectangle 1076" class="cls-7" d="M4,0H40a4,4,0,0,1,0,8H4A4,4,0,0,1,4,0Z" transform="translate(251 273)"/>
      <path id="Rectangle_1075" data-name="Rectangle 1075" class="cls-7" d="M4,0H46a4,4,0,0,1,0,8H4A4,4,0,0,1,4,0Z" transform="translate(245 326)"/>
      <path id="bg-3" data-name="bg" class="cls-5" d="M3,0H292a3,3,0,0,1,3,3V128a3,3,0,0,1-3,3H3a3,3,0,0,1-3-3V3A3,3,0,0,1,3,0Z" transform="translate(335 77)"/>
      <path id="Rectangle_1078-2" data-name="Rectangle 1078" class="cls-6" d="M5,0H69a5,5,0,0,1,0,10H5A5,5,0,0,1,5,0Z" transform="translate(355 102)"/>
      <path id="Rectangle_1079-2" data-name="Rectangle 1079" class="cls-7" d="M4,0H40a4,4,0,0,1,0,8H4A4,4,0,0,1,4,0Z" transform="translate(355 122)"/>
      <path id="Rectangle_1074-2" data-name="Rectangle 1074" class="cls-7" d="M4,0H181a4,4,0,0,1,0,8H4A4,4,0,0,1,4,0Z" transform="translate(355 175)"/>
      <path id="Rectangle_1077-2" data-name="Rectangle 1077" class="cls-8" d="M5,0H55a5,5,0,0,1,0,10H5A5,5,0,0,1,5,0Z" transform="translate(550 102)"/>
      <path id="Rectangle_1076-2" data-name="Rectangle 1076" class="cls-7" d="M4,0H40a4,4,0,0,1,0,8H4A4,4,0,0,1,4,0Z" transform="translate(566 122)"/>
      <path id="Rectangle_1075-2" data-name="Rectangle 1075" class="cls-7" d="M4,0H46a4,4,0,0,1,0,8H4A4,4,0,0,1,4,0Z" transform="translate(560 175)"/>
    </g>
    <g class="cls-14" transform="matrix(1, 0, 0, 1, -2600.5, 12710.5)">
      <path id="bg-4" data-name="bg" class="cls-1" d="M10,0H410a10,10,0,0,1,10,10V130a10,10,0,0,1-10,10H10A10,10,0,0,1,0,130V10A10,10,0,0,1,10,0Z" transform="translate(22.5 83.5)"/>
    </g>
    <path id="Rectangle_189" data-name="Rectangle 189" class="cls-4" d="M0,0H40V20H0Z" transform="translate(-2394 12893)"/>
    <path id="Rectangle_190" data-name="Rectangle 190" class="cls-4" d="M0,0H40V20H0Z" transform="translate(-2435 12893)"/>
    <path id="Rectangle_191" data-name="Rectangle 191" class="cls-4" d="M0,0H40V20H0Z" transform="translate(-2476 12893)"/>
    <path id="Rectangle_187" data-name="Rectangle 187" class="cls-7" d="M0,0H40V20H0Z" transform="translate(-2353 12893)"/>
    <path id="Rectangle_188" data-name="Rectangle 188" class="cls-4" d="M0,0H40V20H0Z" transform="translate(-2312 12893)"/>
    <g id="Düzenle" class="cls-9" transform="translate(-2242 12890)">
      <path class="cls-12" d="M2,0H62a2,2,0,0,1,2,2V24a2,2,0,0,1-2,2H2a2,2,0,0,1-2-2V2A2,2,0,0,1,2,0Z"/>
      <path class="cls-13" d="M 2 1 C 1.448600769042969 1 1 1.448600769042969 1 2 L 1 24 C 1 24.55139923095703 1.448600769042969 25 2 25 L 62 25 C 62.55139923095703 25 63 24.55139923095703 63 24 L 63 2 C 63 1.448600769042969 62.55139923095703 1 62 1 L 2 1 M 2 0 L 62 0 C 63.10456848144531 0 64 0.8954296112060547 64 2 L 64 24 C 64 25.10457038879395 63.10456848144531 26 62 26 L 2 26 C 0.8954315185546875 26 0 25.10457038879395 0 24 L 0 2 C 0 0.8954296112060547 0.8954315185546875 0 2 0 Z"/>
    </g>
    <path id="Rectangle_672" data-name="Rectangle 672" class="cls-10" d="M2,0H78a2,2,0,0,1,2,2V23a2,2,0,0,1-2,2H2a2,2,0,0,1-2-2V2A2,2,0,0,1,2,0Z" transform="translate(-2258 12819)"/>
    <path id="Saha_-_2" data-name="Saha - 2" class="cls-6" d="M3.808.168A4.394,4.394,0,0,1,2.016-.2,4.414,4.414,0,0,1,.588-1.19L1.288-2a3.831,3.831,0,0,0,1.155.833,3.186,3.186,0,0,0,1.379.315,2.173,2.173,0,0,0,1.414-.413,1.335,1.335,0,0,0,.5-1.085,1.353,1.353,0,0,0-.119-.6,1.3,1.3,0,0,0-.322-.42,2.335,2.335,0,0,0-.483-.315q-.28-.14-.6-.294L2.9-4.55a6.275,6.275,0,0,1-.658-.336,2.708,2.708,0,0,1-.6-.476A2.277,2.277,0,0,1,1.2-6.027a2.205,2.205,0,0,1-.168-.889,2.187,2.187,0,0,1,.217-.966,2.374,2.374,0,0,1,.6-.777,2.791,2.791,0,0,1,.91-.511A3.506,3.506,0,0,1,3.92-9.352a3.675,3.675,0,0,1,1.526.315,3.83,3.83,0,0,1,1.19.819l-.63.756A3.273,3.273,0,0,0,5.075-8.1,2.774,2.774,0,0,0,3.92-8.33a1.993,1.993,0,0,0-1.239.357,1.171,1.171,0,0,0-.469.987,1.12,1.12,0,0,0,.133.567,1.4,1.4,0,0,0,.357.406,2.9,2.9,0,0,0,.49.308q.266.133.546.245l1.3.56a5.568,5.568,0,0,1,.742.385,2.657,2.657,0,0,1,.6.5,2.193,2.193,0,0,1,.4.672,2.483,2.483,0,0,1,.147.889,2.434,2.434,0,0,1-.217,1.022A2.458,2.458,0,0,1,6.09-.6a2.959,2.959,0,0,1-.98.56A3.891,3.891,0,0,1,3.808.168Zm6.384,0a2.06,2.06,0,0,1-1.421-.5A1.811,1.811,0,0,1,8.2-1.764,1.889,1.889,0,0,1,9.2-3.479a8.208,8.208,0,0,1,3.178-.833,3.136,3.136,0,0,0-.063-.63,1.576,1.576,0,0,0-.217-.546,1.14,1.14,0,0,0-.427-.385,1.452,1.452,0,0,0-.693-.147A2.756,2.756,0,0,0,9.87-5.8a5.4,5.4,0,0,0-.924.5L8.5-6.09A7.429,7.429,0,0,1,9.66-6.685a3.88,3.88,0,0,1,1.512-.287,2.09,2.09,0,0,1,1.806.763,3.367,3.367,0,0,1,.56,2.037V0h-.952l-.1-.812h-.042a5.757,5.757,0,0,1-1.05.693A2.6,2.6,0,0,1,10.192.168Zm.336-.924a1.938,1.938,0,0,0,.924-.231,4.631,4.631,0,0,0,.924-.679v-1.89a11.614,11.614,0,0,0-1.435.266A3.782,3.782,0,0,0,10-2.926a1.411,1.411,0,0,0-.518.483,1.15,1.15,0,0,0-.161.6.964.964,0,0,0,.35.84A1.423,1.423,0,0,0,10.528-.756ZM15.68,0V-9.968h1.148v2.716l-.042,1.4a6.394,6.394,0,0,1,1.022-.791,2.321,2.321,0,0,1,1.246-.329,1.829,1.829,0,0,1,1.575.672,3.321,3.321,0,0,1,.5,1.988V0H19.978V-4.158a2.431,2.431,0,0,0-.308-1.393,1.126,1.126,0,0,0-.98-.427,1.673,1.673,0,0,0-.938.266,6.085,6.085,0,0,0-.924.784V0Zm9.184.168a2.06,2.06,0,0,1-1.421-.5,1.811,1.811,0,0,1-.567-1.428,1.889,1.889,0,0,1,.994-1.715,8.208,8.208,0,0,1,3.178-.833,3.136,3.136,0,0,0-.063-.63,1.576,1.576,0,0,0-.217-.546,1.14,1.14,0,0,0-.427-.385,1.452,1.452,0,0,0-.693-.147,2.756,2.756,0,0,0-1.106.224,5.4,5.4,0,0,0-.924.5l-.448-.8a7.428,7.428,0,0,1,1.162-.595,3.88,3.88,0,0,1,1.512-.287,2.09,2.09,0,0,1,1.806.763,3.367,3.367,0,0,1,.56,2.037V0h-.952l-.1-.812h-.042a5.757,5.757,0,0,1-1.05.693A2.6,2.6,0,0,1,24.864.168ZM25.2-.756a1.938,1.938,0,0,0,.924-.231,4.631,4.631,0,0,0,.924-.679v-1.89a11.614,11.614,0,0,0-1.435.266,3.782,3.782,0,0,0-.938.364,1.411,1.411,0,0,0-.518.483,1.15,1.15,0,0,0-.161.6.964.964,0,0,0,.35.84A1.423,1.423,0,0,0,25.2-.756Zm7.378-2.31v-.882H35.8v.882ZM39.718,0V-.686q1.008-1.008,1.792-1.82a17.884,17.884,0,0,0,1.316-1.505,7.468,7.468,0,0,0,.812-1.274,2.589,2.589,0,0,0,.28-1.127,1.868,1.868,0,0,0-.42-1.26,1.586,1.586,0,0,0-1.274-.49,1.84,1.84,0,0,0-1.036.315,4.318,4.318,0,0,0-.868.763l-.658-.658a5.147,5.147,0,0,1,1.19-.987A2.929,2.929,0,0,1,42.364-9.1a2.634,2.634,0,0,1,1.96.721,2.6,2.6,0,0,1,.714,1.911A3.2,3.2,0,0,1,44.765-5.2a7.151,7.151,0,0,1-.756,1.316,15.632,15.632,0,0,1-1.148,1.414Q42.2-1.736,41.4-.91l.756-.056q.392-.028.742-.028h2.59V0Z" transform="translate(-2225 12859)"/>
    <path id="Düzenle-2" data-name="Düzenle" class="cls-11" d="M.913,0V-7.194H2.838A3.555,3.555,0,0,1,5.412-6.3,3.551,3.551,0,0,1,6.336-3.63,4.794,4.794,0,0,1,6.1-2.057,3.017,3.017,0,0,1,5.418-.918a2.848,2.848,0,0,1-1.078.687A4.166,4.166,0,0,1,2.9,0ZM2.189-1.034H2.75a2.193,2.193,0,0,0,1.688-.633A2.806,2.806,0,0,0,5.027-3.63a2.666,2.666,0,0,0-.594-1.925A2.252,2.252,0,0,0,2.75-6.16H2.189ZM9.284.132A1.446,1.446,0,0,1,8.019-.424a2.714,2.714,0,0,1-.4-1.59V-5.4H8.888v3.223a1.681,1.681,0,0,0,.2.946.732.732,0,0,0,.638.275,1.111,1.111,0,0,0,.622-.176,2.541,2.541,0,0,0,.578-.572V-5.4h1.265V0H11.154l-.1-.792h-.033a3.174,3.174,0,0,1-.764.671A1.825,1.825,0,0,1,9.284.132Zm-.473-6.49a.65.65,0,0,1-.478-.192.65.65,0,0,1-.193-.478.65.65,0,0,1,.193-.479A.65.65,0,0,1,8.811-7.7a.645.645,0,0,1,.484.192.66.66,0,0,1,.187.479A.66.66,0,0,1,9.3-6.55.645.645,0,0,1,8.811-6.358Zm2.266,0a.645.645,0,0,1-.484-.192.66.66,0,0,1-.187-.478.66.66,0,0,1,.187-.479.645.645,0,0,1,.484-.192.65.65,0,0,1,.479.192.65.65,0,0,1,.192.479.65.65,0,0,1-.192.478A.65.65,0,0,1,11.077-6.358ZM13.365,0V-.682L15.917-4.4H13.651v-1H17.5v.671L14.96-1.012h2.629V0Zm7.5.132A2.8,2.8,0,0,1,19.822-.06a2.481,2.481,0,0,1-.847-.555,2.534,2.534,0,0,1-.566-.886A3.271,3.271,0,0,1,18.2-2.7a3.2,3.2,0,0,1,.209-1.188,2.725,2.725,0,0,1,.556-.891,2.461,2.461,0,0,1,.8-.561,2.277,2.277,0,0,1,.924-.2,2.35,2.35,0,0,1,.968.187,1.889,1.889,0,0,1,.7.528A2.323,2.323,0,0,1,22.781-4a3.56,3.56,0,0,1,.143,1.034q0,.187-.017.352a2.345,2.345,0,0,1-.038.264H19.437a1.744,1.744,0,0,0,.511,1.117,1.536,1.536,0,0,0,1.083.39,1.992,1.992,0,0,0,.655-.1,2.909,2.909,0,0,0,.6-.292l.429.792a3.884,3.884,0,0,1-.858.418A2.984,2.984,0,0,1,20.867.132ZM19.426-3.212h2.4a1.6,1.6,0,0,0-.269-.984.973.973,0,0,0-.831-.358,1.2,1.2,0,0,0-.847.341A1.617,1.617,0,0,0,19.426-3.212ZM24.134,0V-5.4h1.045l.088.726h.044a4.282,4.282,0,0,1,.787-.6,1.883,1.883,0,0,1,.984-.253,1.446,1.446,0,0,1,1.265.556,2.714,2.714,0,0,1,.4,1.589V0H27.478V-3.223a1.681,1.681,0,0,0-.2-.946.745.745,0,0,0-.649-.275,1.137,1.137,0,0,0-.622.171,3.965,3.965,0,0,0-.611.5V0Zm7.392.132a1.07,1.07,0,0,1-.957-.407,1.961,1.961,0,0,1-.275-1.111v-6.38h1.265V-1.32A.471.471,0,0,0,31.647-1a.257.257,0,0,0,.187.093h.083a.466.466,0,0,0,.115-.022L32.2.022A1.707,1.707,0,0,1,31.526.132Zm4.059,0A2.8,2.8,0,0,1,34.54-.06a2.481,2.481,0,0,1-.847-.555,2.534,2.534,0,0,1-.567-.886,3.271,3.271,0,0,1-.2-1.194,3.2,3.2,0,0,1,.209-1.188,2.725,2.725,0,0,1,.556-.891,2.461,2.461,0,0,1,.8-.561,2.277,2.277,0,0,1,.924-.2,2.35,2.35,0,0,1,.968.187,1.889,1.889,0,0,1,.7.528A2.323,2.323,0,0,1,37.5-4a3.56,3.56,0,0,1,.143,1.034q0,.187-.016.352a2.344,2.344,0,0,1-.038.264H34.155a1.744,1.744,0,0,0,.512,1.117,1.536,1.536,0,0,0,1.083.39,1.992,1.992,0,0,0,.654-.1,2.909,2.909,0,0,0,.6-.292l.429.792a3.884,3.884,0,0,1-.858.418A2.984,2.984,0,0,1,35.585.132ZM34.144-3.212h2.4a1.6,1.6,0,0,0-.27-.984.973.973,0,0,0-.83-.358,1.2,1.2,0,0,0-.847.341A1.617,1.617,0,0,0,34.144-3.212Z" transform="translate(-2229 12907)"/>
    <path id="_10:00_23:00" data-name="10:00 — 23:00" class="cls-1" d="M.888,0V-1.128h1.7V-6.144h-1.4v-.864a6.4,6.4,0,0,0,.99-.258,4.439,4.439,0,0,0,.774-.366H3.984v6.5h1.5V0Zm8.34.144a2.177,2.177,0,0,1-1.9-1.026,5.283,5.283,0,0,1-.7-2.97,5.1,5.1,0,0,1,.7-2.934,2.2,2.2,0,0,1,1.9-.99,2.194,2.194,0,0,1,1.9,1,5.1,5.1,0,0,1,.7,2.928,5.283,5.283,0,0,1-.7,2.97A2.177,2.177,0,0,1,9.228.144Zm0-1.08a.927.927,0,0,0,.51-.15,1.179,1.179,0,0,0,.4-.5,3.462,3.462,0,0,0,.264-.9,8.173,8.173,0,0,0,.1-1.368,7.975,7.975,0,0,0-.1-1.35,3.265,3.265,0,0,0-.264-.882,1.1,1.1,0,0,0-.4-.474.986.986,0,0,0-.51-.138.986.986,0,0,0-.51.138,1.1,1.1,0,0,0-.4.474,3.265,3.265,0,0,0-.264.882,7.975,7.975,0,0,0-.1,1.35,8.173,8.173,0,0,0,.1,1.368,3.462,3.462,0,0,0,.264.9,1.179,1.179,0,0,0,.4.5A.927.927,0,0,0,9.228-.936Zm4.74-3.024a.861.861,0,0,1-.642-.264.922.922,0,0,1-.258-.672.922.922,0,0,1,.258-.672.861.861,0,0,1,.642-.264.842.842,0,0,1,.636.264.934.934,0,0,1,.252.672.934.934,0,0,1-.252.672A.842.842,0,0,1,13.968-3.96Zm0,4.1a.861.861,0,0,1-.642-.264.922.922,0,0,1-.258-.672.922.922,0,0,1,.258-.672.861.861,0,0,1,.642-.264.842.842,0,0,1,.636.264.934.934,0,0,1,.252.672A.934.934,0,0,1,14.6-.12.842.842,0,0,1,13.968.144Zm4.716,0a2.177,2.177,0,0,1-1.9-1.026,5.283,5.283,0,0,1-.7-2.97,5.1,5.1,0,0,1,.7-2.934,2.2,2.2,0,0,1,1.9-.99,2.194,2.194,0,0,1,1.9,1,5.1,5.1,0,0,1,.7,2.928,5.283,5.283,0,0,1-.7,2.97A2.177,2.177,0,0,1,18.684.144Zm0-1.08a.927.927,0,0,0,.51-.15,1.179,1.179,0,0,0,.4-.5,3.463,3.463,0,0,0,.264-.9,8.173,8.173,0,0,0,.1-1.368,7.975,7.975,0,0,0-.1-1.35,3.265,3.265,0,0,0-.264-.882,1.1,1.1,0,0,0-.4-.474.986.986,0,0,0-.51-.138.986.986,0,0,0-.51.138,1.1,1.1,0,0,0-.4.474,3.265,3.265,0,0,0-.264.882,7.975,7.975,0,0,0-.1,1.35,8.173,8.173,0,0,0,.1,1.368,3.462,3.462,0,0,0,.264.9,1.179,1.179,0,0,0,.4.5A.927.927,0,0,0,18.684-.936ZM24.84.144a2.177,2.177,0,0,1-1.9-1.026,5.283,5.283,0,0,1-.7-2.97,5.1,5.1,0,0,1,.7-2.934,2.2,2.2,0,0,1,1.9-.99,2.194,2.194,0,0,1,1.9,1,5.1,5.1,0,0,1,.7,2.928,5.283,5.283,0,0,1-.7,2.97A2.177,2.177,0,0,1,24.84.144Zm0-1.08a.927.927,0,0,0,.51-.15,1.179,1.179,0,0,0,.4-.5,3.462,3.462,0,0,0,.264-.9,8.173,8.173,0,0,0,.1-1.368,7.975,7.975,0,0,0-.1-1.35,3.265,3.265,0,0,0-.264-.882,1.1,1.1,0,0,0-.4-.474.986.986,0,0,0-.51-.138.986.986,0,0,0-.51.138,1.1,1.1,0,0,0-.4.474,3.265,3.265,0,0,0-.264.882,7.975,7.975,0,0,0-.1,1.35,8.173,8.173,0,0,0,.1,1.368,3.463,3.463,0,0,0,.264.9,1.179,1.179,0,0,0,.4.5A.927.927,0,0,0,24.84-.936Zm5.988-1.632V-3.48H39.42v.912ZM42.78,0V-.8q.792-.768,1.434-1.416t1.092-1.2A5.715,5.715,0,0,0,46-4.452a2.043,2.043,0,0,0,.24-.912,1.376,1.376,0,0,0-.324-.966,1.205,1.205,0,0,0-.936-.354,1.4,1.4,0,0,0-.81.252,3.819,3.819,0,0,0-.678.6L42.72-6.6a4.415,4.415,0,0,1,1.086-.87,2.771,2.771,0,0,1,1.35-.306,2.8,2.8,0,0,1,1,.168,2.151,2.151,0,0,1,.756.474,2.138,2.138,0,0,1,.486.738,2.548,2.548,0,0,1,.174.96,2.609,2.609,0,0,1-.222,1.026,5.7,5.7,0,0,1-.6,1.056,12.478,12.478,0,0,1-.882,1.1q-.5.564-1.068,1.164l.648-.054q.348-.03.624-.03H47.94V0Zm8.58.144A3.473,3.473,0,0,1,49.8-.168a3.411,3.411,0,0,1-1.032-.768l.66-.888a3.538,3.538,0,0,0,.792.594,2.07,2.07,0,0,0,1.02.246,1.6,1.6,0,0,0,1.014-.306,1.016,1.016,0,0,0,.39-.846,1.3,1.3,0,0,0-.108-.54.959.959,0,0,0-.366-.408,2.025,2.025,0,0,0-.69-.258,5.42,5.42,0,0,0-1.08-.09V-4.44a4.151,4.151,0,0,0,.942-.09,1.808,1.808,0,0,0,.612-.252.943.943,0,0,0,.336-.39,1.191,1.191,0,0,0,.1-.492.957.957,0,0,0-.3-.75,1.193,1.193,0,0,0-.828-.27,1.7,1.7,0,0,0-.822.2,3.492,3.492,0,0,0-.714.522l-.708-.852a4.517,4.517,0,0,1,1.05-.7,2.868,2.868,0,0,1,1.242-.264,3.617,3.617,0,0,1,1.008.132,2.233,2.233,0,0,1,.78.39,1.78,1.78,0,0,1,.5.636,1.972,1.972,0,0,1,.18.858,1.648,1.648,0,0,1-.354,1.08,2.3,2.3,0,0,1-.978.672v.048a2.33,2.33,0,0,1,1.134.66,1.735,1.735,0,0,1,.45,1.236,2.016,2.016,0,0,1-.21.936,2.04,2.04,0,0,1-.576.69,2.673,2.673,0,0,1-.852.432A3.5,3.5,0,0,1,51.36.144Zm4.932-4.1a.861.861,0,0,1-.642-.264.922.922,0,0,1-.258-.672.922.922,0,0,1,.258-.672.861.861,0,0,1,.642-.264.842.842,0,0,1,.636.264.934.934,0,0,1,.252.672.934.934,0,0,1-.252.672A.842.842,0,0,1,56.292-3.96Zm0,4.1A.861.861,0,0,1,55.65-.12a.922.922,0,0,1-.258-.672.922.922,0,0,1,.258-.672.861.861,0,0,1,.642-.264.842.842,0,0,1,.636.264.934.934,0,0,1,.252.672.934.934,0,0,1-.252.672A.842.842,0,0,1,56.292.144Zm4.716,0a2.177,2.177,0,0,1-1.9-1.026,5.283,5.283,0,0,1-.7-2.97,5.1,5.1,0,0,1,.7-2.934,2.2,2.2,0,0,1,1.9-.99,2.194,2.194,0,0,1,1.9,1,5.1,5.1,0,0,1,.7,2.928,5.283,5.283,0,0,1-.7,2.97A2.177,2.177,0,0,1,61.008.144Zm0-1.08a.927.927,0,0,0,.51-.15,1.179,1.179,0,0,0,.4-.5,3.462,3.462,0,0,0,.264-.9,8.173,8.173,0,0,0,.1-1.368,7.976,7.976,0,0,0-.1-1.35,3.265,3.265,0,0,0-.264-.882,1.1,1.1,0,0,0-.4-.474.986.986,0,0,0-.51-.138.986.986,0,0,0-.51.138,1.1,1.1,0,0,0-.4.474,3.265,3.265,0,0,0-.264.882,7.975,7.975,0,0,0-.1,1.35,8.173,8.173,0,0,0,.1,1.368,3.462,3.462,0,0,0,.264.9,1.179,1.179,0,0,0,.4.5A.927.927,0,0,0,61.008-.936ZM67.164.144a2.177,2.177,0,0,1-1.9-1.026,5.283,5.283,0,0,1-.7-2.97,5.1,5.1,0,0,1,.7-2.934,2.2,2.2,0,0,1,1.9-.99,2.194,2.194,0,0,1,1.9,1,5.1,5.1,0,0,1,.7,2.928,5.283,5.283,0,0,1-.7,2.97A2.177,2.177,0,0,1,67.164.144Zm0-1.08a.927.927,0,0,0,.51-.15,1.179,1.179,0,0,0,.4-.5,3.463,3.463,0,0,0,.264-.9,8.173,8.173,0,0,0,.1-1.368,7.975,7.975,0,0,0-.1-1.35,3.265,3.265,0,0,0-.264-.882,1.1,1.1,0,0,0-.4-.474.986.986,0,0,0-.51-.138.986.986,0,0,0-.51.138,1.1,1.1,0,0,0-.4.474,3.265,3.265,0,0,0-.264.882,7.975,7.975,0,0,0-.1,1.35,8.173,8.173,0,0,0,.1,1.368,3.462,3.462,0,0,0,.264.9,1.179,1.179,0,0,0,.4.5A.927.927,0,0,0,67.164-.936Z" transform="translate(-2253 12836)"/>
    <path id="Çar" class="cls-1" d="M3.784.132A3.349,3.349,0,0,1,2.508-.11,2.83,2.83,0,0,1,1.479-.825,3.446,3.446,0,0,1,.792-1.991,4.6,4.6,0,0,1,.539-3.575,4.525,4.525,0,0,1,.8-5.154a3.532,3.532,0,0,1,.7-1.182,2.981,2.981,0,0,1,1.045-.737,3.262,3.262,0,0,1,1.281-.253,2.581,2.581,0,0,1,1.21.275,3.216,3.216,0,0,1,.869.638l-.682.825a2.484,2.484,0,0,0-.616-.456,1.606,1.606,0,0,0-.748-.171,1.8,1.8,0,0,0-.809.181,1.875,1.875,0,0,0-.638.517A2.432,2.432,0,0,0,2-4.7a3.707,3.707,0,0,0-.149,1.089,3.113,3.113,0,0,0,.534,1.931,1.724,1.724,0,0,0,1.446.7,1.766,1.766,0,0,0,.858-.2,2.689,2.689,0,0,0,.682-.534l.682.8a3.083,3.083,0,0,1-1.007.775A2.9,2.9,0,0,1,3.784.132ZM2.772,2.563l-.11-.55a2.917,2.917,0,0,0,.919-.159A.377.377,0,0,0,3.828,1.5a.362.362,0,0,0-.176-.308A1.692,1.692,0,0,0,2.981,1L3.487-.033h.77L3.938.682a1.5,1.5,0,0,1,.61.28.646.646,0,0,1,.214.523.825.825,0,0,1-.517.781A3.847,3.847,0,0,1,2.772,2.563ZM8.448.132A1.573,1.573,0,0,1,7.293-.3a1.543,1.543,0,0,1-.44-1.15,1.581,1.581,0,0,1,.182-.765,1.565,1.565,0,0,1,.572-.578A3.8,3.8,0,0,1,8.6-3.2a9.052,9.052,0,0,1,1.435-.253,2.039,2.039,0,0,0-.06-.4A.923.923,0,0,0,9.806-4.2a.767.767,0,0,0-.3-.231,1.145,1.145,0,0,0-.462-.082,2.045,2.045,0,0,0-.775.154,5.215,5.215,0,0,0-.743.374l-.462-.847a5.411,5.411,0,0,1,1.012-.495,3.439,3.439,0,0,1,1.21-.209,1.858,1.858,0,0,1,1.512.6A2.638,2.638,0,0,1,11.3-3.2V0H10.252l-.088-.594H10.12a3.968,3.968,0,0,1-.776.517A1.955,1.955,0,0,1,8.448.132Zm.407-.99a1.187,1.187,0,0,0,.6-.154,3.219,3.219,0,0,0,.577-.44v-1.21a5.774,5.774,0,0,0-.924.176,2.671,2.671,0,0,0-.6.247.882.882,0,0,0-.33.314.751.751,0,0,0-.1.374.617.617,0,0,0,.22.528A.91.91,0,0,0,8.855-.858ZM12.815,0V-5.4H13.86l.088.957h.044a2.267,2.267,0,0,1,.693-.808,1.457,1.457,0,0,1,.836-.28,1.448,1.448,0,0,1,.616.11l-.22,1.1a2.309,2.309,0,0,0-.264-.066,1.7,1.7,0,0,0-.3-.022,1.179,1.179,0,0,0-.671.247,1.912,1.912,0,0,0-.605.864V0Z" transform="translate(-2423 12907)"/>
    <path id="Per" class="cls-1" d="M.913,0V-7.194H3.179a5.256,5.256,0,0,1,1.105.11,2.386,2.386,0,0,1,.885.374,1.8,1.8,0,0,1,.583.688,2.362,2.362,0,0,1,.209,1.05,2.387,2.387,0,0,1-.209,1.034,2.026,2.026,0,0,1-.578.732,2.413,2.413,0,0,1-.869.429,4.078,4.078,0,0,1-1.083.138H2.189V0ZM2.189-3.663h.935q1.584,0,1.584-1.309A1.021,1.021,0,0,0,4.3-5.913,2.314,2.314,0,0,0,3.08-6.171H2.189ZM9.273.132A2.8,2.8,0,0,1,8.228-.06a2.481,2.481,0,0,1-.847-.555A2.534,2.534,0,0,1,6.814-1.5a3.271,3.271,0,0,1-.2-1.194A3.2,3.2,0,0,1,6.82-3.883a2.725,2.725,0,0,1,.556-.891,2.461,2.461,0,0,1,.8-.561,2.277,2.277,0,0,1,.924-.2,2.35,2.35,0,0,1,.968.187,1.889,1.889,0,0,1,.7.528A2.323,2.323,0,0,1,11.187-4,3.56,3.56,0,0,1,11.33-2.97q0,.187-.017.352a2.345,2.345,0,0,1-.038.264H7.843a1.744,1.744,0,0,0,.511,1.117,1.536,1.536,0,0,0,1.083.39,1.992,1.992,0,0,0,.655-.1,2.909,2.909,0,0,0,.6-.292l.429.792a3.884,3.884,0,0,1-.858.418A2.984,2.984,0,0,1,9.273.132ZM7.832-3.212h2.4A1.6,1.6,0,0,0,9.96-4.2a.973.973,0,0,0-.83-.358,1.2,1.2,0,0,0-.847.341A1.617,1.617,0,0,0,7.832-3.212ZM12.54,0V-5.4h1.045l.088.957h.044a2.267,2.267,0,0,1,.693-.808,1.457,1.457,0,0,1,.836-.28,1.448,1.448,0,0,1,.616.11l-.22,1.1a2.309,2.309,0,0,0-.264-.066,1.7,1.7,0,0,0-.3-.022,1.179,1.179,0,0,0-.671.247,1.912,1.912,0,0,0-.605.864V0Z" transform="translate(-2382 12907)"/>
    <path id="Cum" class="cls-6" d="M3.784.132A3.349,3.349,0,0,1,2.508-.11,2.83,2.83,0,0,1,1.479-.825,3.446,3.446,0,0,1,.792-1.991,4.6,4.6,0,0,1,.539-3.575,4.525,4.525,0,0,1,.8-5.154a3.532,3.532,0,0,1,.7-1.182,2.981,2.981,0,0,1,1.045-.737,3.262,3.262,0,0,1,1.281-.253,2.581,2.581,0,0,1,1.21.275,3.216,3.216,0,0,1,.869.638l-.682.825a2.484,2.484,0,0,0-.616-.456,1.606,1.606,0,0,0-.748-.171,1.8,1.8,0,0,0-.809.181,1.875,1.875,0,0,0-.638.517A2.432,2.432,0,0,0,2-4.7a3.707,3.707,0,0,0-.149,1.089,3.113,3.113,0,0,0,.534,1.931,1.724,1.724,0,0,0,1.446.7,1.766,1.766,0,0,0,.858-.2,2.689,2.689,0,0,0,.682-.534l.682.8a3.083,3.083,0,0,1-1.007.775A2.9,2.9,0,0,1,3.784.132Zm4.851,0A1.446,1.446,0,0,1,7.37-.424a2.714,2.714,0,0,1-.4-1.59V-5.4H8.239v3.223a1.681,1.681,0,0,0,.2.946.732.732,0,0,0,.638.275A1.111,1.111,0,0,0,9.7-1.133a2.541,2.541,0,0,0,.578-.572V-5.4h1.265V0H10.5l-.1-.792h-.033a3.174,3.174,0,0,1-.764.671A1.825,1.825,0,0,1,8.635.132ZM13.145,0V-5.4H14.19l.088.737h.044a3.79,3.79,0,0,1,.742-.616,1.666,1.666,0,0,1,.908-.253,1.615,1.615,0,0,1,.951.253,1.571,1.571,0,0,1,.545.715,4.345,4.345,0,0,1,.8-.693,1.664,1.664,0,0,1,.935-.275,1.464,1.464,0,0,1,1.265.556,2.658,2.658,0,0,1,.407,1.589V0H19.6V-3.223a1.644,1.644,0,0,0-.2-.946.723.723,0,0,0-.622-.275,1.7,1.7,0,0,0-1.133.671V0H16.379V-3.223a1.644,1.644,0,0,0-.2-.946.735.735,0,0,0-.633-.275,1.7,1.7,0,0,0-1.133.671V0Z" transform="translate(-2344 12907)"/>
    <path id="Cts" class="cls-1" d="M3.784.132A3.349,3.349,0,0,1,2.508-.11,2.83,2.83,0,0,1,1.479-.825,3.446,3.446,0,0,1,.792-1.991,4.6,4.6,0,0,1,.539-3.575,4.525,4.525,0,0,1,.8-5.154a3.532,3.532,0,0,1,.7-1.182,2.981,2.981,0,0,1,1.045-.737,3.262,3.262,0,0,1,1.281-.253,2.581,2.581,0,0,1,1.21.275,3.216,3.216,0,0,1,.869.638l-.682.825a2.484,2.484,0,0,0-.616-.456,1.606,1.606,0,0,0-.748-.171,1.8,1.8,0,0,0-.809.181,1.875,1.875,0,0,0-.638.517A2.432,2.432,0,0,0,2-4.7a3.707,3.707,0,0,0-.149,1.089,3.113,3.113,0,0,0,.534,1.931,1.724,1.724,0,0,0,1.446.7,1.766,1.766,0,0,0,.858-.2,2.689,2.689,0,0,0,.682-.534l.682.8a3.083,3.083,0,0,1-1.007.775A2.9,2.9,0,0,1,3.784.132Zm4.906,0a1.976,1.976,0,0,1-.8-.143,1.352,1.352,0,0,1-.528-.4,1.662,1.662,0,0,1-.3-.616,3.153,3.153,0,0,1-.094-.8V-4.4H6.2v-.946L7.04-5.4l.154-1.474H8.25V-5.4H9.625v1H8.25v2.574q0,.946.759.946A1.341,1.341,0,0,0,9.3-.913,1.367,1.367,0,0,0,9.57-1l.22.935a4.21,4.21,0,0,1-.5.138A2.84,2.84,0,0,1,8.69.132Zm3.465,0A2.993,2.993,0,0,1,11.05-.082a3.577,3.577,0,0,1-.941-.534L10.7-1.43a3.434,3.434,0,0,0,.72.445,1.881,1.881,0,0,0,.776.16.973.973,0,0,0,.649-.181.591.591,0,0,0,.209-.467.46.46,0,0,0-.1-.292.951.951,0,0,0-.264-.225,2.538,2.538,0,0,0-.374-.182q-.209-.082-.418-.17-.264-.1-.539-.231a2.167,2.167,0,0,1-.489-.319,1.609,1.609,0,0,1-.352-.434,1.194,1.194,0,0,1-.138-.589,1.462,1.462,0,0,1,.528-1.166,2.147,2.147,0,0,1,1.441-.451,2.492,2.492,0,0,1,1.012.2,3.767,3.767,0,0,1,.781.451l-.583.77a3.017,3.017,0,0,0-.577-.335,1.518,1.518,0,0,0-.611-.127.887.887,0,0,0-.6.171.543.543,0,0,0-.193.424.432.432,0,0,0,.094.28.866.866,0,0,0,.247.2,2.52,2.52,0,0,0,.358.165q.2.077.424.154.275.1.55.226a2.258,2.258,0,0,1,.5.314,1.43,1.43,0,0,1,.363.456,1.4,1.4,0,0,1,.138.644,1.563,1.563,0,0,1-.138.654,1.512,1.512,0,0,1-.4.528,1.955,1.955,0,0,1-.66.357A2.847,2.847,0,0,1,12.155.132Z" transform="translate(-2299 12907)"/>
    <path id="Sal" class="cls-1" d="M3.014.132a3.69,3.69,0,0,1-1.4-.275A3.66,3.66,0,0,1,.418-.924l.748-.869a3.216,3.216,0,0,0,.88.589,2.371,2.371,0,0,0,.99.225,1.48,1.48,0,0,0,.935-.253A.814.814,0,0,0,4.29-1.9a.783.783,0,0,0-.082-.374.847.847,0,0,0-.231-.27,1.99,1.99,0,0,0-.352-.214q-.2-.1-.445-.2l-.99-.429a3.408,3.408,0,0,1-.523-.275,2.289,2.289,0,0,1-.467-.4A1.833,1.833,0,0,1,.863-4.6a1.84,1.84,0,0,1-.127-.7,1.78,1.78,0,0,1,.181-.8,2.023,2.023,0,0,1,.5-.643,2.314,2.314,0,0,1,.765-.429,2.962,2.962,0,0,1,.974-.154,3.066,3.066,0,0,1,1.21.248,3.124,3.124,0,0,1,1,.665L4.719-5.6a3.2,3.2,0,0,0-.726-.451,2.05,2.05,0,0,0-.836-.165,1.367,1.367,0,0,0-.825.226.728.728,0,0,0-.308.622.657.657,0,0,0,.093.358.956.956,0,0,0,.253.264,2.063,2.063,0,0,0,.368.209q.209.093.429.181l.979.407a3.372,3.372,0,0,1,.583.308,2.121,2.121,0,0,1,.457.407,1.77,1.77,0,0,1,.3.533A2.039,2.039,0,0,1,5.6-2a1.961,1.961,0,0,1-.176.825A1.981,1.981,0,0,1,4.911-.5,2.51,2.51,0,0,1,4.1-.038,3.215,3.215,0,0,1,3.014.132Zm5.093,0A1.573,1.573,0,0,1,6.952-.3a1.543,1.543,0,0,1-.44-1.15,1.581,1.581,0,0,1,.181-.765,1.565,1.565,0,0,1,.572-.578,3.8,3.8,0,0,1,.99-.407,9.052,9.052,0,0,1,1.436-.253,2.039,2.039,0,0,0-.061-.4A.923.923,0,0,0,9.465-4.2a.767.767,0,0,0-.3-.231A1.145,1.145,0,0,0,8.7-4.51a2.045,2.045,0,0,0-.776.154,5.215,5.215,0,0,0-.742.374l-.462-.847a5.411,5.411,0,0,1,1.012-.495,3.439,3.439,0,0,1,1.21-.209,1.858,1.858,0,0,1,1.512.6,2.638,2.638,0,0,1,.5,1.733V0H9.911L9.823-.594H9.779A3.968,3.968,0,0,1,9-.077,1.955,1.955,0,0,1,8.107.132Zm.407-.99a1.187,1.187,0,0,0,.6-.154,3.219,3.219,0,0,0,.578-.44v-1.21a5.774,5.774,0,0,0-.924.176,2.671,2.671,0,0,0-.605.247.882.882,0,0,0-.33.314.751.751,0,0,0-.1.374.617.617,0,0,0,.22.528A.91.91,0,0,0,8.514-.858Zm5.192.99a1.07,1.07,0,0,1-.957-.407,1.961,1.961,0,0,1-.275-1.111v-6.38h1.265V-1.32A.471.471,0,0,0,13.827-1a.257.257,0,0,0,.187.093H14.1a.466.466,0,0,0,.116-.022l.165.946A1.707,1.707,0,0,1,13.706.132Z" transform="translate(-2463 12907)"/>
    <path id="Scoutive" class="cls-11" d="M5.754.252A7.045,7.045,0,0,1,3.077-.273,6.987,6.987,0,0,1,.8-1.764L2.226-3.423A6.139,6.139,0,0,0,3.906-2.3a4.526,4.526,0,0,0,1.89.43,2.826,2.826,0,0,0,1.785-.483A1.554,1.554,0,0,0,8.19-3.633a1.5,1.5,0,0,0-.157-.714,1.617,1.617,0,0,0-.441-.514,3.8,3.8,0,0,0-.672-.41q-.389-.189-.85-.378l-1.89-.819a6.506,6.506,0,0,1-1-.525,4.37,4.37,0,0,1-.892-.756,3.5,3.5,0,0,1-.64-1.029,3.513,3.513,0,0,1-.242-1.344,3.4,3.4,0,0,1,.346-1.523,3.862,3.862,0,0,1,.955-1.228,4.418,4.418,0,0,1,1.46-.819,5.654,5.654,0,0,1,1.859-.294,5.854,5.854,0,0,1,2.31.473,5.965,5.965,0,0,1,1.911,1.27L9.009-10.689a6.119,6.119,0,0,0-1.386-.861,3.913,3.913,0,0,0-1.6-.315,2.609,2.609,0,0,0-1.575.431,1.39,1.39,0,0,0-.588,1.186,1.255,1.255,0,0,0,.178.682,1.826,1.826,0,0,0,.483.5,3.938,3.938,0,0,0,.7.4q.4.178.819.346l1.869.777a6.437,6.437,0,0,1,1.113.588,4.049,4.049,0,0,1,.872.777,3.379,3.379,0,0,1,.578,1.018,3.892,3.892,0,0,1,.21,1.333,3.743,3.743,0,0,1-.336,1.575A3.782,3.782,0,0,1,9.377-.956a4.793,4.793,0,0,1-1.554.882A6.138,6.138,0,0,1,5.754.252Zm11.529,0A5.346,5.346,0,0,1,15.319-.1a4.425,4.425,0,0,1-1.586-1.05,4.855,4.855,0,0,1-1.05-1.7,6.487,6.487,0,0,1-.378-2.289,5.9,5.9,0,0,1,.42-2.289,5.033,5.033,0,0,1,1.134-1.7A4.937,4.937,0,0,1,15.508-10.2a5.317,5.317,0,0,1,1.964-.368,4.09,4.09,0,0,1,1.733.336,5.633,5.633,0,0,1,1.291.819L19.32-7.833a4,4,0,0,0-.83-.557,2.01,2.01,0,0,0-.892-.2,2.521,2.521,0,0,0-2.037.935,3.8,3.8,0,0,0-.777,2.509,3.8,3.8,0,0,0,.767,2.489,2.448,2.448,0,0,0,1.984.934,2.566,2.566,0,0,0,1.145-.262,5.143,5.143,0,0,0,.976-.619l.987,1.6a5.14,5.14,0,0,1-1.607.945A5.126,5.126,0,0,1,17.283.252Zm9.114,0A4.879,4.879,0,0,1,24.549-.1a4.6,4.6,0,0,1-1.565-1.05,5.023,5.023,0,0,1-1.081-1.7,6.179,6.179,0,0,1-.4-2.289,6.179,6.179,0,0,1,.4-2.289,5.023,5.023,0,0,1,1.081-1.7A4.731,4.731,0,0,1,24.549-10.2a4.758,4.758,0,0,1,1.848-.368,4.835,4.835,0,0,1,1.859.368A4.592,4.592,0,0,1,29.82-9.135a5.246,5.246,0,0,1,1.082,1.7,6.038,6.038,0,0,1,.41,2.289,6.038,6.038,0,0,1-.41,2.289,5.246,5.246,0,0,1-1.082,1.7A4.467,4.467,0,0,1,28.256-.1,4.959,4.959,0,0,1,26.4.252Zm0-1.974a2.061,2.061,0,0,0,1.785-.934,4.275,4.275,0,0,0,.651-2.489,4.316,4.316,0,0,0-.651-2.509A2.061,2.061,0,0,0,26.4-8.589a2.035,2.035,0,0,0-1.774.935,4.37,4.37,0,0,0-.64,2.509,4.329,4.329,0,0,0,.64,2.489A2.035,2.035,0,0,0,26.4-1.722ZM36.771.252a2.761,2.761,0,0,1-2.415-1.06A5.181,5.181,0,0,1,33.6-3.843v-6.468h2.415v6.153a3.209,3.209,0,0,0,.378,1.806,1.4,1.4,0,0,0,1.218.525A2.121,2.121,0,0,0,38.8-2.163a4.851,4.851,0,0,0,1.1-1.092v-7.056h2.415V0H40.341l-.189-1.512h-.063A6.059,6.059,0,0,1,38.63-.231,3.484,3.484,0,0,1,36.771.252Zm12.243,0a3.772,3.772,0,0,1-1.522-.273,2.581,2.581,0,0,1-1.008-.767,3.173,3.173,0,0,1-.567-1.176,6.019,6.019,0,0,1-.179-1.522V-8.4h-1.47v-1.806l1.6-.1.294-2.814h2.016v2.814H50.8V-8.4H48.174v4.914q0,1.806,1.449,1.806a2.561,2.561,0,0,0,.556-.063,2.609,2.609,0,0,0,.514-.168l.42,1.785a8.038,8.038,0,0,1-.955.263A5.421,5.421,0,0,1,49.014.252ZM52.962,0V-10.311h2.415V0ZM54.18-12.117a1.54,1.54,0,0,1-1.071-.378,1.265,1.265,0,0,1-.42-.987,1.3,1.3,0,0,1,.42-1,1.515,1.515,0,0,1,1.071-.389,1.515,1.515,0,0,1,1.071.389,1.3,1.3,0,0,1,.42,1,1.265,1.265,0,0,1-.42.987A1.54,1.54,0,0,1,54.18-12.117ZM60.774,0,57.183-10.311H59.64l1.638,5.355q.21.756.431,1.533t.431,1.575h.084q.231-.8.441-1.575T63.1-4.956l1.638-5.355h2.331L63.567,0ZM73.143.252a5.349,5.349,0,0,1-2-.368,4.737,4.737,0,0,1-1.617-1.06,4.838,4.838,0,0,1-1.082-1.69,6.244,6.244,0,0,1-.388-2.279,6.118,6.118,0,0,1,.4-2.268,5.2,5.2,0,0,1,1.061-1.7,4.7,4.7,0,0,1,1.522-1.071,4.347,4.347,0,0,1,1.764-.378,4.487,4.487,0,0,1,1.848.357A3.605,3.605,0,0,1,75.988-9.2,4.434,4.434,0,0,1,76.8-7.644,6.8,6.8,0,0,1,77.07-5.67q0,.357-.032.672a4.478,4.478,0,0,1-.074.5H70.413a3.329,3.329,0,0,0,.977,2.132,2.932,2.932,0,0,0,2.069.745,3.8,3.8,0,0,0,1.249-.2,5.553,5.553,0,0,0,1.145-.556l.819,1.512a7.415,7.415,0,0,1-1.638.8A5.7,5.7,0,0,1,73.143.252ZM70.392-6.132H74.97a3.058,3.058,0,0,0-.514-1.88,1.857,1.857,0,0,0-1.586-.682,2.287,2.287,0,0,0-1.617.651A3.086,3.086,0,0,0,70.392-6.132Z" transform="translate(-2558 12835)"/>
    <path id="Rectangle_192" data-name="Rectangle 192" class="cls-7" d="M0,0H40V20H0Z" transform="translate(-2517 12893)"/>
    <path id="Rectangle_193" data-name="Rectangle 193" class="cls-7" d="M0,0H40V20H0Z" transform="translate(-2558 12893)"/>
    <path id="Paz" class="cls-6" d="M.913,0V-7.194H3.179a5.256,5.256,0,0,1,1.105.11,2.386,2.386,0,0,1,.885.374,1.8,1.8,0,0,1,.583.688,2.362,2.362,0,0,1,.209,1.05,2.387,2.387,0,0,1-.209,1.034,2.026,2.026,0,0,1-.578.732,2.413,2.413,0,0,1-.869.429,4.078,4.078,0,0,1-1.083.138H2.189V0ZM2.189-3.663h.935q1.584,0,1.584-1.309A1.021,1.021,0,0,0,4.3-5.913,2.314,2.314,0,0,0,3.08-6.171H2.189ZM8.1.132A1.573,1.573,0,0,1,6.941-.3a1.543,1.543,0,0,1-.44-1.15,1.581,1.581,0,0,1,.181-.765,1.565,1.565,0,0,1,.572-.578,3.8,3.8,0,0,1,.99-.407A9.052,9.052,0,0,1,9.68-3.454a2.039,2.039,0,0,0-.061-.4A.923.923,0,0,0,9.455-4.2a.767.767,0,0,0-.3-.231A1.145,1.145,0,0,0,8.69-4.51a2.045,2.045,0,0,0-.776.154,5.215,5.215,0,0,0-.742.374L6.71-4.829a5.411,5.411,0,0,1,1.012-.495,3.439,3.439,0,0,1,1.21-.209,1.858,1.858,0,0,1,1.512.6,2.638,2.638,0,0,1,.5,1.733V0H9.9L9.812-.594H9.768a3.968,3.968,0,0,1-.776.517A1.955,1.955,0,0,1,8.1.132ZM8.5-.858a1.187,1.187,0,0,0,.6-.154,3.219,3.219,0,0,0,.578-.44v-1.21a5.774,5.774,0,0,0-.924.176,2.671,2.671,0,0,0-.605.247.882.882,0,0,0-.33.314.751.751,0,0,0-.1.374.617.617,0,0,0,.22.528A.91.91,0,0,0,8.5-.858ZM12.034,0V-.682L14.586-4.4H12.32v-1h3.85v.671L13.629-1.012h2.629V0Z" transform="translate(-2546 12907)"/>
    <path id="_1995-2000" data-name="1995-2000" class="cls-6" d="M1.106,0V-.952H3.15v-6.58H1.526v-.742A6.982,6.982,0,0,0,2.6-8.547a4.286,4.286,0,0,0,.819-.385H4.3v7.98H6.146V0Zm9.142-4.34a1.932,1.932,0,0,0,.945-.28,2.9,2.9,0,0,0,.931-.91,3.851,3.851,0,0,0-.616-1.988A1.61,1.61,0,0,0,10.15-8.19a1.371,1.371,0,0,0-.609.14,1.458,1.458,0,0,0-.5.4,1.93,1.93,0,0,0-.329.623,2.556,2.556,0,0,0-.119.8A2.15,2.15,0,0,0,9-4.844,1.5,1.5,0,0,0,10.248-4.34ZM9.828.168A2.8,2.8,0,0,1,8.575-.1a2.947,2.947,0,0,1-.9-.672L8.316-1.5a2.188,2.188,0,0,0,.665.518,1.752,1.752,0,0,0,.805.2,2.093,2.093,0,0,0,.9-.2,1.907,1.907,0,0,0,.742-.651,3.714,3.714,0,0,0,.518-1.183,7.44,7.44,0,0,0,.21-1.806,3.221,3.221,0,0,1-.98.84,2.306,2.306,0,0,1-1.12.308A2.5,2.5,0,0,1,8.2-4.158,2.816,2.816,0,0,1,7.518-6.23,3.122,3.122,0,0,1,7.728-7.4,2.829,2.829,0,0,1,8.3-8.3a2.531,2.531,0,0,1,.84-.588A2.519,2.519,0,0,1,10.15-9.1a2.848,2.848,0,0,1,1.225.266,2.643,2.643,0,0,1,.98.805A4,4,0,0,1,13-6.685,6.86,6.86,0,0,1,13.23-4.8a8.138,8.138,0,0,1-.28,2.289,4.479,4.479,0,0,1-.756,1.54A2.924,2.924,0,0,1,11.109-.1,3.1,3.1,0,0,1,9.828.168ZM17.206-4.34a1.932,1.932,0,0,0,.945-.28,2.9,2.9,0,0,0,.931-.91,3.851,3.851,0,0,0-.616-1.988,1.61,1.61,0,0,0-1.358-.672,1.371,1.371,0,0,0-.609.14,1.458,1.458,0,0,0-.5.4,1.93,1.93,0,0,0-.329.623,2.556,2.556,0,0,0-.119.8,2.15,2.15,0,0,0,.406,1.386A1.5,1.5,0,0,0,17.206-4.34ZM16.786.168A2.8,2.8,0,0,1,15.533-.1a2.947,2.947,0,0,1-.9-.672l.644-.728a2.188,2.188,0,0,0,.665.518,1.752,1.752,0,0,0,.8.2,2.093,2.093,0,0,0,.9-.2,1.907,1.907,0,0,0,.742-.651A3.714,3.714,0,0,0,18.9-2.814a7.44,7.44,0,0,0,.21-1.806,3.221,3.221,0,0,1-.98.84,2.306,2.306,0,0,1-1.12.308,2.5,2.5,0,0,1-1.848-.686,2.816,2.816,0,0,1-.686-2.072,3.122,3.122,0,0,1,.21-1.169,2.829,2.829,0,0,1,.567-.9,2.531,2.531,0,0,1,.84-.588,2.519,2.519,0,0,1,1.015-.21,2.848,2.848,0,0,1,1.225.266,2.643,2.643,0,0,1,.98.805,4,4,0,0,1,.644,1.344A6.86,6.86,0,0,1,20.188-4.8a8.138,8.138,0,0,1-.28,2.289,4.479,4.479,0,0,1-.756,1.54A2.924,2.924,0,0,1,18.067-.1,3.1,3.1,0,0,1,16.786.168Zm7.364,0a4.2,4.2,0,0,1-.973-.105,4.1,4.1,0,0,1-.8-.273A3.618,3.618,0,0,1,21.735-.6a4.07,4.07,0,0,1-.511-.455l.56-.756a4.134,4.134,0,0,0,.931.714,2.63,2.63,0,0,0,1.323.308A1.984,1.984,0,0,0,24.8-.931a1.888,1.888,0,0,0,.623-.413,1.925,1.925,0,0,0,.42-.644A2.207,2.207,0,0,0,26-2.828,1.949,1.949,0,0,0,25.48-4.27a1.873,1.873,0,0,0-1.386-.518,2.015,2.015,0,0,0-.791.14,4.806,4.806,0,0,0-.735.406l-.616-.392.294-4.3h4.466v.994H23.254l-.238,2.646a3.759,3.759,0,0,1,.644-.266,2.5,2.5,0,0,1,.728-.1,3.388,3.388,0,0,1,1.078.168,2.448,2.448,0,0,1,.882.511,2.377,2.377,0,0,1,.6.868,3.272,3.272,0,0,1,.217,1.253,3.11,3.11,0,0,1-.252,1.288,2.85,2.85,0,0,1-.672.945,2.938,2.938,0,0,1-.959.588A3.171,3.171,0,0,1,24.15.168Zm4.256-3.234v-.882h3.22v.882ZM32.746,0V-.686q1.008-1.008,1.792-1.82a17.884,17.884,0,0,0,1.316-1.505,7.468,7.468,0,0,0,.812-1.274,2.589,2.589,0,0,0,.28-1.127,1.868,1.868,0,0,0-.42-1.26,1.586,1.586,0,0,0-1.274-.49,1.84,1.84,0,0,0-1.036.315,4.318,4.318,0,0,0-.868.763l-.658-.658a5.147,5.147,0,0,1,1.19-.987A2.929,2.929,0,0,1,35.392-9.1a2.634,2.634,0,0,1,1.96.721,2.6,2.6,0,0,1,.714,1.911A3.2,3.2,0,0,1,37.793-5.2a7.151,7.151,0,0,1-.756,1.316,15.632,15.632,0,0,1-1.148,1.414q-.665.735-1.463,1.561l.756-.056q.392-.028.742-.028h2.59V0ZM42.63.168a2.369,2.369,0,0,1-2.114-1.2,6.534,6.534,0,0,1-.756-3.458,6.38,6.38,0,0,1,.756-3.43A2.381,2.381,0,0,1,42.63-9.1a2.369,2.369,0,0,1,2.1,1.176,6.38,6.38,0,0,1,.756,3.43,6.534,6.534,0,0,1-.756,3.458A2.358,2.358,0,0,1,42.63.168Zm0-.924a1.217,1.217,0,0,0,.707-.217,1.758,1.758,0,0,0,.546-.672,4.227,4.227,0,0,0,.357-1.162,9.761,9.761,0,0,0,.126-1.687,9.638,9.638,0,0,0-.126-1.68,4.015,4.015,0,0,0-.357-1.141,1.714,1.714,0,0,0-.546-.651,1.246,1.246,0,0,0-.707-.21,1.28,1.28,0,0,0-.714.21,1.686,1.686,0,0,0-.553.651,4.015,4.015,0,0,0-.357,1.141,9.638,9.638,0,0,0-.126,1.68,6.277,6.277,0,0,0,.483,2.849A1.434,1.434,0,0,0,42.63-.756Zm6.958.924a2.369,2.369,0,0,1-2.114-1.2,6.534,6.534,0,0,1-.756-3.458,6.38,6.38,0,0,1,.756-3.43A2.381,2.381,0,0,1,49.588-9.1a2.369,2.369,0,0,1,2.1,1.176,6.38,6.38,0,0,1,.756,3.43,6.534,6.534,0,0,1-.756,3.458A2.358,2.358,0,0,1,49.588.168Zm0-.924A1.217,1.217,0,0,0,50.3-.973a1.758,1.758,0,0,0,.546-.672A4.227,4.227,0,0,0,51.2-2.807a9.761,9.761,0,0,0,.126-1.687,9.638,9.638,0,0,0-.126-1.68,4.015,4.015,0,0,0-.357-1.141,1.714,1.714,0,0,0-.546-.651,1.246,1.246,0,0,0-.707-.21,1.28,1.28,0,0,0-.714.21,1.686,1.686,0,0,0-.553.651,4.015,4.015,0,0,0-.357,1.141,9.638,9.638,0,0,0-.126,1.68,6.277,6.277,0,0,0,.483,2.849A1.434,1.434,0,0,0,49.588-.756Zm6.958.924a2.369,2.369,0,0,1-2.114-1.2,6.534,6.534,0,0,1-.756-3.458,6.38,6.38,0,0,1,.756-3.43A2.381,2.381,0,0,1,56.546-9.1a2.369,2.369,0,0,1,2.1,1.176,6.38,6.38,0,0,1,.756,3.43,6.534,6.534,0,0,1-.756,3.458A2.358,2.358,0,0,1,56.546.168Zm0-.924a1.217,1.217,0,0,0,.707-.217,1.758,1.758,0,0,0,.546-.672,4.227,4.227,0,0,0,.357-1.162,9.761,9.761,0,0,0,.126-1.687,9.638,9.638,0,0,0-.126-1.68A4.015,4.015,0,0,0,57.8-7.315a1.714,1.714,0,0,0-.546-.651,1.246,1.246,0,0,0-.707-.21,1.28,1.28,0,0,0-.714.21,1.686,1.686,0,0,0-.553.651,4.015,4.015,0,0,0-.357,1.141,9.638,9.638,0,0,0-.126,1.68,6.277,6.277,0,0,0,.483,2.849A1.434,1.434,0,0,0,56.546-.756Z" transform="translate(-2558 12851.625)"/>
    <path id="Pts" class="cls-6" d="M.913,0V-7.194H3.179a5.256,5.256,0,0,1,1.105.11,2.386,2.386,0,0,1,.885.374,1.8,1.8,0,0,1,.583.688,2.362,2.362,0,0,1,.209,1.05,2.387,2.387,0,0,1-.209,1.034,2.026,2.026,0,0,1-.578.732,2.413,2.413,0,0,1-.869.429,4.078,4.078,0,0,1-1.083.138H2.189V0ZM2.189-3.663h.935q1.584,0,1.584-1.309A1.021,1.021,0,0,0,4.3-5.913,2.314,2.314,0,0,0,3.08-6.171H2.189ZM9.108.132a1.976,1.976,0,0,1-.8-.143,1.352,1.352,0,0,1-.528-.4,1.662,1.662,0,0,1-.3-.616,3.153,3.153,0,0,1-.093-.8V-4.4h-.77v-.946L7.458-5.4l.154-1.474H8.668V-5.4h1.375v1H8.668v2.574q0,.946.759.946a1.341,1.341,0,0,0,.292-.033A1.367,1.367,0,0,0,9.988-1l.22.935a4.21,4.21,0,0,1-.5.138A2.84,2.84,0,0,1,9.108.132Zm3.465,0a2.993,2.993,0,0,1-1.106-.214,3.577,3.577,0,0,1-.941-.534l.594-.814a3.434,3.434,0,0,0,.72.445,1.881,1.881,0,0,0,.776.16.973.973,0,0,0,.649-.181.591.591,0,0,0,.209-.467.46.46,0,0,0-.1-.292.951.951,0,0,0-.264-.225,2.538,2.538,0,0,0-.374-.182q-.209-.082-.418-.17-.264-.1-.539-.231a2.167,2.167,0,0,1-.489-.319,1.609,1.609,0,0,1-.352-.434,1.194,1.194,0,0,1-.138-.589,1.462,1.462,0,0,1,.528-1.166,2.147,2.147,0,0,1,1.441-.451,2.492,2.492,0,0,1,1.012.2,3.767,3.767,0,0,1,.781.451l-.583.77A3.017,3.017,0,0,0,13.4-4.45a1.518,1.518,0,0,0-.611-.127.887.887,0,0,0-.6.171A.543.543,0,0,0,12-3.982a.432.432,0,0,0,.094.28.866.866,0,0,0,.247.2,2.52,2.52,0,0,0,.358.165q.2.077.424.154.275.1.55.226a2.258,2.258,0,0,1,.5.314,1.43,1.43,0,0,1,.363.456,1.4,1.4,0,0,1,.138.644,1.563,1.563,0,0,1-.138.654,1.512,1.512,0,0,1-.4.528,1.955,1.955,0,0,1-.66.357A2.847,2.847,0,0,1,12.573.132Z" transform="translate(-2504 12907)"/>
    <path id="bg-5" data-name="bg" class="cls-5" d="M3,0H292a3,3,0,0,1,3,3V128a3,3,0,0,1-3,3H3a3,3,0,0,1-3-3V3A3,3,0,0,1,3,0Z" transform="translate(-2112 12955)"/>
    <path id="Rectangle_1078-3" data-name="Rectangle 1078" class="cls-6" d="M5,0H69a5,5,0,0,1,0,10H5A5,5,0,0,1,5,0Z" transform="translate(-2092 12980)"/>
    <path id="Rectangle_1079-3" data-name="Rectangle 1079" class="cls-7" d="M4,0H40a4,4,0,0,1,0,8H4A4,4,0,0,1,4,0Z" transform="translate(-2092 13000)"/>
    <path id="Rectangle_1074-3" data-name="Rectangle 1074" class="cls-7" d="M4,0H181a4,4,0,0,1,0,8H4A4,4,0,0,1,4,0Z" transform="translate(-2092 13053)"/>
    <path id="Rectangle_1077-3" data-name="Rectangle 1077" class="cls-8" d="M5,0H55a5,5,0,0,1,0,10H5A5,5,0,0,1,5,0Z" transform="translate(-1897 12980)"/>
    <path id="Rectangle_1076-3" data-name="Rectangle 1076" class="cls-7" d="M4,0H40a4,4,0,0,1,0,8H4A4,4,0,0,1,4,0Z" transform="translate(-1881 13000)"/>
    <path id="Rectangle_1075-3" data-name="Rectangle 1075" class="cls-7" d="M4,0H46a4,4,0,0,1,0,8H4A4,4,0,0,1,4,0Z" transform="translate(-1887 13053)"/>
  </g>
</svg>
