<svg xmlns="http://www.w3.org/2000/svg" xmlns:xlink="http://www.w3.org/1999/xlink" width="695" height="522" viewBox="0 0 695 522">
  <defs>
    <style>
      .cls-1, .cls-24, .cls-45, .cls-9 {
        fill: #fff;
      }

      .cls-2 {
        fill: #c63737;
      }

      .cls-3 {
        fill: #149cf6;
      }

      .cls-4 {
        clip-path: url(#clip-path);
      }

      .cls-5 {
        fill: #495057;
      }

      .cls-6 {
        fill: #f8f9fb;
      }

      .cls-18, .cls-20, .cls-23, .cls-26, .cls-28, .cls-30, .cls-36, .cls-38, .cls-41, .cls-7 {
        fill: none;
      }

      .cls-24, .cls-7 {
        stroke: rgba(0,40,100,0.12);
      }

      .cls-8 {
        fill: #9ba0ab;
      }

      .cls-10 {
        fill: #343a40;
      }

      .cls-11 {
        fill: #cfd4da;
      }

      .cls-12 {
        fill: #888e95;
      }

      .cls-13 {
        fill: #5eba00;
      }

      .cls-14 {
        fill: #8ecf4d;
      }

      .cls-15 {
        fill: #f1c40f;
      }

      .cls-16 {
        fill: #dc6362;
      }

      .cls-17 {
        clip-path: url(#clip-path-2);
      }

      .cls-18, .cls-20, .cls-23 {
        stroke: #fff;
      }

      .cls-18, .cls-20, .cls-23, .cls-26, .cls-28, .cls-30, .cls-36, .cls-38 {
        stroke-linecap: round;
      }

      .cls-18, .cls-28, .cls-38 {
        stroke-linejoin: round;
      }

      .cls-18 {
        stroke-width: 1.275px;
      }

      .cls-19 {
        clip-path: url(#clip-path-3);
      }

      .cls-20 {
        stroke-width: 1.091px;
      }

      .cls-21 {
        clip-path: url(#clip-path-4);
      }

      .cls-22 {
        clip-path: url(#clip-path-5);
      }

      .cls-23 {
        stroke-width: 1.27px;
      }

      .cls-25 {
        clip-path: url(#clip-path-6);
      }

      .cls-26, .cls-28, .cls-30 {
        stroke: #343a40;
      }

      .cls-26 {
        stroke-width: 1.455px;
      }

      .cls-27 {
        clip-path: url(#clip-path-7);
      }

      .cls-28 {
        stroke-width: 1.7px;
      }

      .cls-29 {
        clip-path: url(#clip-path-8);
      }

      .cls-30 {
        stroke-width: 1.45px;
      }

      .cls-31, .cls-32, .cls-47 {
        fill: #dbdde0;
      }

      .cls-33 {
        fill: #8ed14d;
      }

      .cls-34 {
        fill: #f0c60e;
      }

      .cls-35 {
        fill: #efc80d;
      }

      .cls-36 {
        stroke: #aab0b6;
        stroke-width: 1.667px;
      }

      .cls-37 {
        clip-path: url(#clip-path-9);
      }

      .cls-38 {
        stroke: #485057;
      }

      .cls-39 {
        fill: #485057;
      }

      .cls-40, .cls-46 {
        fill: #9de0f6;
      }

      .cls-42 {
        fill: #547dc9;
      }

      .cls-43, .cls-44, .cls-45, .cls-46, .cls-47 {
        stroke: none;
      }

      .cls-44 {
        fill: rgba(0,40,100,0.12);
      }

      .cls-48 {
        filter: url(#Path_1978);
      }

      .cls-49 {
        filter: url(#Path_1981);
      }

      .cls-50 {
        filter: url(#Rectangle_798-3);
      }

      .cls-51 {
        filter: url(#Rectangle_798-2);
      }

      .cls-52 {
        filter: url(#Rectangle_798);
      }

      .cls-53 {
        filter: url(#Rectangle_854);
      }

      .cls-54 {
        filter: url(#Path_1979);
      }
    </style>
    <filter id="Path_1979" x="0" y="0" width="695" height="378" filterUnits="userSpaceOnUse">
      <feOffset dy="6" input="SourceAlpha"/>
      <feGaussianBlur stdDeviation="7.5" result="blur"/>
      <feFlood flood-opacity="0.102"/>
      <feComposite operator="in" in2="blur"/>
      <feComposite in="SourceGraphic"/>
    </filter>
    <clipPath id="clip-path">
      <path id="Path_1980" data-name="Path 1980" class="cls-1" d="M10,0H640a10,10,0,0,1,10,10V323a10,10,0,0,1-10,10H10A10,10,0,0,1,0,323V10A10,10,0,0,1,10,0Z" transform="translate(836 2333)"/>
    </clipPath>
    <filter id="Rectangle_854" x="12.5" y="10.5" width="668" height="351" filterUnits="userSpaceOnUse">
      <feOffset dy="3" input="SourceAlpha"/>
      <feGaussianBlur stdDeviation="3" result="blur-2"/>
      <feFlood flood-opacity="0.161"/>
      <feComposite operator="in" in2="blur-2"/>
      <feComposite in="SourceGraphic"/>
    </filter>
    <clipPath id="clip-path-2">
      <path id="Rectangle_836" data-name="Rectangle 836" class="cls-1" d="M0,0H11V11H0Z" transform="translate(302 141)"/>
    </clipPath>
    <clipPath id="clip-path-3">
      <path id="Rectangle_837" data-name="Rectangle 837" class="cls-1" d="M0,0H11V11H0Z" transform="translate(329 141)"/>
    </clipPath>
    <clipPath id="clip-path-4">
      <path id="Rectangle_838" data-name="Rectangle 838" class="cls-1" d="M0,0H11V11H0Z" transform="translate(356 141)"/>
    </clipPath>
    <clipPath id="clip-path-5">
      <path id="Rectangle_839" data-name="Rectangle 839" class="cls-1" d="M0,0H10V10H0Z" transform="translate(385 141)"/>
    </clipPath>
    <filter id="Rectangle_798" x="466.5" y="149.5" width="39" height="31" filterUnits="userSpaceOnUse">
      <feOffset dy="1" input="SourceAlpha"/>
      <feGaussianBlur stdDeviation="0.5" result="blur-3"/>
      <feFlood flood-opacity="0.051"/>
      <feComposite operator="in" in2="blur-3"/>
      <feComposite in="SourceGraphic"/>
    </filter>
    <filter id="Rectangle_798-2" x="509.5" y="149.5" width="39" height="31" filterUnits="userSpaceOnUse">
      <feOffset dy="1" input="SourceAlpha"/>
      <feGaussianBlur stdDeviation="0.5" result="blur-4"/>
      <feFlood flood-opacity="0.051"/>
      <feComposite operator="in" in2="blur-4"/>
      <feComposite in="SourceGraphic"/>
    </filter>
    <filter id="Rectangle_798-3" x="552.5" y="149.5" width="39" height="31" filterUnits="userSpaceOnUse">
      <feOffset dy="1" input="SourceAlpha"/>
      <feGaussianBlur stdDeviation="0.5" result="blur-5"/>
      <feFlood flood-opacity="0.051"/>
      <feComposite operator="in" in2="blur-5"/>
      <feComposite in="SourceGraphic"/>
    </filter>
    <clipPath id="clip-path-6">
      <path id="Rectangle_832" data-name="Rectangle 832" class="cls-2" d="M0,0H13V13H0Z" transform="translate(683 137)"/>
    </clipPath>
    <clipPath id="clip-path-7">
      <path id="Rectangle_834" data-name="Rectangle 834" class="cls-2" d="M0,0H13V13H0Z" transform="translate(640 137)"/>
    </clipPath>
    <clipPath id="clip-path-8">
      <path id="Rectangle_833" data-name="Rectangle 833" class="cls-2" d="M0,0H13V13H0Z" transform="translate(726 137)"/>
    </clipPath>
    <filter id="Path_1981" x="575" y="122" width="95" height="95" filterUnits="userSpaceOnUse">
      <feOffset dy="6" input="SourceAlpha"/>
      <feGaussianBlur stdDeviation="7.5" result="blur-6"/>
      <feFlood flood-opacity="0.161"/>
      <feComposite operator="in" in2="blur-6"/>
      <feComposite in="SourceGraphic"/>
    </filter>
    <clipPath id="clip-path-9">
      <path id="Rectangle_96" data-name="Rectangle 96" class="cls-3" d="M0,0H20V20H0Z" transform="translate(134 406)"/>
    </clipPath>
    <filter id="Path_1978" x="188" y="177" width="483" height="345" filterUnits="userSpaceOnUse">
      <feOffset dy="6" input="SourceAlpha"/>
      <feGaussianBlur stdDeviation="7.5" result="blur-7"/>
      <feFlood flood-opacity="0.102"/>
      <feComposite operator="in" in2="blur-7"/>
      <feComposite in="SourceGraphic"/>
    </filter>
  </defs>
  <g id="yoklama" transform="translate(2061.5 -12891.5)">
    <g class="cls-54" transform="matrix(1, 0, 0, 1, -2061.5, 12891.5)">
      <path id="Path_1979-2" data-name="Path 1979" class="cls-1" d="M10,0H640a10,10,0,0,1,10,10V323a10,10,0,0,1-10,10H10A10,10,0,0,1,0,323V10A10,10,0,0,1,10,0Z" transform="translate(22.5 16.5)"/>
    </g>
    <g id="Mask_Group_302" data-name="Mask Group 302" class="cls-4" transform="translate(-2876 10575)">
      <g class="cls-53" transform="matrix(1, 0, 0, 1, 814.5, 2316.5)">
        <path id="Rectangle_854-2" data-name="Rectangle 854" class="cls-1" d="M0,0H650V333H0Z" transform="translate(21.5 16.5)"/>
      </g>
      <path id="Yoklamalar_Öğrenci_Yoklama_Al" data-name="Yoklamalar — Öğrenci — Yoklama Al" class="cls-5" d="M4.8,0V-6.075L-.1-16.35H3l1.775,4.175q.35.925.7,1.787t.75,1.813h.1q.4-.95.775-1.813t.725-1.787L9.6-16.35h3.025L7.7-6.075V0ZM18.175.3a5.809,5.809,0,0,1-2.2-.425,5.474,5.474,0,0,1-1.863-1.25A5.98,5.98,0,0,1,12.825-3.4a7.356,7.356,0,0,1-.475-2.725,7.356,7.356,0,0,1,.475-2.725,5.98,5.98,0,0,1,1.288-2.025,5.632,5.632,0,0,1,1.863-1.262,5.664,5.664,0,0,1,2.2-.438,5.756,5.756,0,0,1,2.213.438,5.467,5.467,0,0,1,1.862,1.262A6.245,6.245,0,0,1,23.537-8.85a7.188,7.188,0,0,1,.488,2.725A7.188,7.188,0,0,1,23.537-3.4,6.245,6.245,0,0,1,22.25-1.375a5.318,5.318,0,0,1-1.862,1.25A5.9,5.9,0,0,1,18.175.3Zm0-2.35A2.454,2.454,0,0,0,20.3-3.162a5.09,5.09,0,0,0,.775-2.963A5.138,5.138,0,0,0,20.3-9.112a2.454,2.454,0,0,0-2.125-1.113,2.423,2.423,0,0,0-2.112,1.113A5.2,5.2,0,0,0,15.3-6.125a5.153,5.153,0,0,0,.763,2.963A2.423,2.423,0,0,0,18.175-2.05ZM26.875,0V-17.65H29.7V-6.625h.075l4.55-5.65h3.15l-4.2,5L37.9,0H34.775l-3.15-5.325L29.7-3.125V0Zm15.85.3A2.432,2.432,0,0,1,40.55-.625a4.457,4.457,0,0,1-.625-2.525v-14.5H42.8V-3a1.07,1.07,0,0,0,.2.738.583.583,0,0,0,.425.212h.188a1.06,1.06,0,0,0,.263-.05L44.25.05A3.88,3.88,0,0,1,42.725.3Zm6.95,0A3.574,3.574,0,0,1,47.05-.687a3.507,3.507,0,0,1-1-2.612,3.593,3.593,0,0,1,.413-1.737,3.556,3.556,0,0,1,1.3-1.313,8.633,8.633,0,0,1,2.25-.925,20.573,20.573,0,0,1,3.263-.575,4.633,4.633,0,0,0-.138-.912,2.1,2.1,0,0,0-.375-.775,1.744,1.744,0,0,0-.687-.525,2.6,2.6,0,0,0-1.05-.187,4.648,4.648,0,0,0-1.763.35,11.852,11.852,0,0,0-1.687.85l-1.05-1.925a12.3,12.3,0,0,1,2.3-1.125,7.815,7.815,0,0,1,2.75-.475,4.223,4.223,0,0,1,3.438,1.363A6,6,0,0,1,56.15-7.275V0H53.775l-.2-1.35h-.1A9.019,9.019,0,0,1,51.713-.175,4.443,4.443,0,0,1,49.675.3ZM50.6-1.95a2.7,2.7,0,0,0,1.363-.35,7.316,7.316,0,0,0,1.313-1V-6.05a13.123,13.123,0,0,0-2.1.4,6.07,6.07,0,0,0-1.375.563,2,2,0,0,0-.75.713,1.707,1.707,0,0,0-.225.85,1.4,1.4,0,0,0,.5,1.2A2.067,2.067,0,0,0,50.6-1.95ZM59.6,0V-12.275h2.375l.2,1.675h.1A8.613,8.613,0,0,1,63.963-12a3.787,3.787,0,0,1,2.062-.575A3.671,3.671,0,0,1,68.188-12a3.57,3.57,0,0,1,1.238,1.625A9.875,9.875,0,0,1,71.25-11.95a3.782,3.782,0,0,1,2.125-.625,3.327,3.327,0,0,1,2.875,1.263A6.04,6.04,0,0,1,77.175-7.7V0h-2.9V-7.325a3.736,3.736,0,0,0-.463-2.15A1.642,1.642,0,0,0,72.4-10.1a3.866,3.866,0,0,0-2.575,1.525V0H66.95V-7.325a3.736,3.736,0,0,0-.463-2.15A1.67,1.67,0,0,0,65.05-10.1a3.866,3.866,0,0,0-2.575,1.525V0ZM83.65.3a3.574,3.574,0,0,1-2.625-.988,3.507,3.507,0,0,1-1-2.612,3.593,3.593,0,0,1,.412-1.737,3.556,3.556,0,0,1,1.3-1.313,8.633,8.633,0,0,1,2.25-.925A20.573,20.573,0,0,1,87.25-7.85a4.633,4.633,0,0,0-.138-.912,2.1,2.1,0,0,0-.375-.775,1.744,1.744,0,0,0-.687-.525A2.6,2.6,0,0,0,85-10.25a4.648,4.648,0,0,0-1.763.35,11.853,11.853,0,0,0-1.687.85L80.5-10.975A12.3,12.3,0,0,1,82.8-12.1a7.815,7.815,0,0,1,2.75-.475,4.223,4.223,0,0,1,3.438,1.363,6,6,0,0,1,1.138,3.938V0H87.75l-.2-1.35h-.1A9.018,9.018,0,0,1,85.688-.175,4.443,4.443,0,0,1,83.65.3Zm.925-2.25a2.7,2.7,0,0,0,1.363-.35,7.316,7.316,0,0,0,1.313-1V-6.05a13.123,13.123,0,0,0-2.1.4,6.07,6.07,0,0,0-1.375.563,2,2,0,0,0-.75.713,1.707,1.707,0,0,0-.225.85,1.4,1.4,0,0,0,.5,1.2A2.067,2.067,0,0,0,84.575-1.95ZM96.375.3A2.432,2.432,0,0,1,94.2-.625a4.457,4.457,0,0,1-.625-2.525v-14.5H96.45V-3a1.07,1.07,0,0,0,.2.738.583.583,0,0,0,.425.212h.188a1.06,1.06,0,0,0,.263-.05L97.9.05A3.88,3.88,0,0,1,96.375.3Zm6.95,0A3.574,3.574,0,0,1,100.7-.687a3.507,3.507,0,0,1-1-2.612,3.593,3.593,0,0,1,.412-1.737,3.556,3.556,0,0,1,1.3-1.313,8.633,8.633,0,0,1,2.25-.925,20.573,20.573,0,0,1,3.263-.575,4.633,4.633,0,0,0-.138-.912,2.1,2.1,0,0,0-.375-.775,1.744,1.744,0,0,0-.687-.525,2.6,2.6,0,0,0-1.05-.187,4.648,4.648,0,0,0-1.763.35,11.853,11.853,0,0,0-1.687.85l-1.05-1.925a12.3,12.3,0,0,1,2.3-1.125,7.815,7.815,0,0,1,2.75-.475,4.223,4.223,0,0,1,3.438,1.363A6,6,0,0,1,109.8-7.275V0h-2.375l-.2-1.35h-.1a9.018,9.018,0,0,1-1.762,1.175A4.443,4.443,0,0,1,103.325.3Zm.925-2.25a2.7,2.7,0,0,0,1.363-.35,7.316,7.316,0,0,0,1.313-1V-6.05a13.123,13.123,0,0,0-2.1.4,6.07,6.07,0,0,0-1.375.563,2,2,0,0,0-.75.713,1.707,1.707,0,0,0-.225.85,1.4,1.4,0,0,0,.5,1.2A2.067,2.067,0,0,0,104.25-1.95Zm9,1.95V-12.275h2.375l.2,2.175h.1a5.153,5.153,0,0,1,1.575-1.837,3.31,3.31,0,0,1,1.9-.638,3.29,3.29,0,0,1,1.4.25l-.5,2.5a5.249,5.249,0,0,0-.6-.15,3.853,3.853,0,0,0-.675-.05,2.679,2.679,0,0,0-1.525.562A4.345,4.345,0,0,0,116.125-7.5V0ZM126.8-5.35v-1.9h17.9v1.9ZM159.175.3a7.137,7.137,0,0,1-2.925-.588,6.333,6.333,0,0,1-2.275-1.7A7.962,7.962,0,0,1,152.5-4.675a11.28,11.28,0,0,1-.525-3.575,11.077,11.077,0,0,1,.525-3.538,7.565,7.565,0,0,1,1.475-2.637,6.4,6.4,0,0,1,2.275-1.65,7.27,7.27,0,0,1,2.925-.575,7.271,7.271,0,0,1,2.925.575,6.518,6.518,0,0,1,2.287,1.65,7.456,7.456,0,0,1,1.488,2.637A11.077,11.077,0,0,1,166.4-8.25a11.28,11.28,0,0,1-.525,3.575,7.843,7.843,0,0,1-1.488,2.688,6.449,6.449,0,0,1-2.287,1.7A7.137,7.137,0,0,1,159.175.3Zm0-2.525a3.579,3.579,0,0,0,1.75-.425,3.9,3.9,0,0,0,1.325-1.212,6.034,6.034,0,0,0,.85-1.9,9.555,9.555,0,0,0,.3-2.488,7.2,7.2,0,0,0-1.137-4.312,3.62,3.62,0,0,0-3.087-1.562,3.62,3.62,0,0,0-3.088,1.563A7.2,7.2,0,0,0,154.95-8.25a9.555,9.555,0,0,0,.3,2.488,6.034,6.034,0,0,0,.85,1.9,3.9,3.9,0,0,0,1.325,1.212A3.579,3.579,0,0,0,159.175-2.225ZM156.5-17.7a1.438,1.438,0,0,1-1.062-.412,1.438,1.438,0,0,1-.413-1.063,1.481,1.481,0,0,1,.413-1.075,1.416,1.416,0,0,1,1.063-.425,1.457,1.457,0,0,1,1.075.425A1.457,1.457,0,0,1,158-19.175a1.416,1.416,0,0,1-.425,1.063A1.481,1.481,0,0,1,156.5-17.7Zm5.35,0a1.481,1.481,0,0,1-1.075-.412,1.416,1.416,0,0,1-.425-1.063,1.457,1.457,0,0,1,.425-1.075,1.457,1.457,0,0,1,1.075-.425,1.416,1.416,0,0,1,1.063.425,1.481,1.481,0,0,1,.412,1.075,1.438,1.438,0,0,1-.412,1.063A1.438,1.438,0,0,1,161.85-17.7ZM173.7,5.425a9.766,9.766,0,0,1-2.038-.2,5.326,5.326,0,0,1-1.613-.6,3.147,3.147,0,0,1-1.062-1,2.523,2.523,0,0,1-.387-1.4,2.508,2.508,0,0,1,.45-1.438A4.208,4.208,0,0,1,170.35-.4V-.5a2.492,2.492,0,0,1-.788-.8,2.318,2.318,0,0,1-.312-1.25,2.231,2.231,0,0,1,.413-1.312,3.97,3.97,0,0,1,.938-.963v-.1a4.392,4.392,0,0,1-1.113-1.313A3.781,3.781,0,0,1,169-8.175a4.244,4.244,0,0,1,.4-1.875,4.2,4.2,0,0,1,1.063-1.387,4.535,4.535,0,0,1,1.537-.85,5.889,5.889,0,0,1,1.85-.288,5.169,5.169,0,0,1,.962.088,6.446,6.446,0,0,1,.838.213h4.4v2.125H177.8a2.909,2.909,0,0,1,.5.887,3.382,3.382,0,0,1,.2,1.187,4.207,4.207,0,0,1-.362,1.8,3.743,3.743,0,0,1-.988,1.3,4.344,4.344,0,0,1-1.475.8,5.9,5.9,0,0,1-1.825.275,4.745,4.745,0,0,1-.825-.075,4.1,4.1,0,0,1-.85-.25,2.609,2.609,0,0,0-.437.5,1.226,1.226,0,0,0-.162.675.948.948,0,0,0,.438.825,2.928,2.928,0,0,0,1.563.3h2.175a6.409,6.409,0,0,1,3.363.712A2.521,2.521,0,0,1,180.25,1.1a3.343,3.343,0,0,1-.462,1.7,4.2,4.2,0,0,1-1.312,1.375,7.016,7.016,0,0,1-2.062.913A10.112,10.112,0,0,1,173.7,5.425ZM173.85-5.7a2.026,2.026,0,0,0,1.5-.638,2.517,2.517,0,0,0,.625-1.837,2.475,2.475,0,0,0-.613-1.787,2.014,2.014,0,0,0-1.512-.637,2.075,2.075,0,0,0-1.525.625,2.437,2.437,0,0,0-.625,1.8,2.517,2.517,0,0,0,.625,1.837A2.054,2.054,0,0,0,173.85-5.7Zm.3,9.25a4.4,4.4,0,0,0,2.412-.588,1.665,1.665,0,0,0,.913-1.388A.962.962,0,0,0,176.913.6,4.1,4.1,0,0,0,175.3.35h-1.675A6.794,6.794,0,0,1,171.95.175,2.05,2.05,0,0,0,171,1.8a1.421,1.421,0,0,0,.838,1.287A4.819,4.819,0,0,0,174.15,3.55Zm.3-17.825a4.671,4.671,0,0,1-1.8-.313,3.412,3.412,0,0,1-1.238-.85,3.649,3.649,0,0,1-.738-1.237,5.4,5.4,0,0,1-.3-1.475l1.7-.275a4.255,4.255,0,0,0,.237.862,2.2,2.2,0,0,0,.463.725,2.472,2.472,0,0,0,.712.512,2.182,2.182,0,0,0,.963.2,2.182,2.182,0,0,0,.962-.2,2.472,2.472,0,0,0,.712-.512,2.2,2.2,0,0,0,.463-.725,4.255,4.255,0,0,0,.238-.862l1.7.275a5.4,5.4,0,0,1-.3,1.475,3.649,3.649,0,0,1-.738,1.237,3.412,3.412,0,0,1-1.238.85A4.671,4.671,0,0,1,174.45-14.275ZM182.425,0V-12.275H184.8L185-10.1h.1a5.153,5.153,0,0,1,1.575-1.837,3.31,3.31,0,0,1,1.9-.638,3.29,3.29,0,0,1,1.4.25l-.5,2.5a5.248,5.248,0,0,0-.6-.15,3.852,3.852,0,0,0-.675-.05,2.679,2.679,0,0,0-1.525.562A4.345,4.345,0,0,0,185.3-7.5V0ZM196.75.3a6.368,6.368,0,0,1-2.375-.438A5.64,5.64,0,0,1,192.45-1.4a5.759,5.759,0,0,1-1.287-2.012,7.433,7.433,0,0,1-.463-2.713,7.284,7.284,0,0,1,.475-2.7,6.194,6.194,0,0,1,1.262-2.025,5.594,5.594,0,0,1,1.813-1.275,5.175,5.175,0,0,1,2.1-.45,5.341,5.341,0,0,1,2.2.425,4.292,4.292,0,0,1,1.587,1.2A5.278,5.278,0,0,1,201.1-9.1a8.091,8.091,0,0,1,.325,2.35q0,.425-.038.8a5.327,5.327,0,0,1-.087.6h-7.8a3.963,3.963,0,0,0,1.163,2.537,3.49,3.49,0,0,0,2.462.888,4.526,4.526,0,0,0,1.488-.237,6.611,6.611,0,0,0,1.363-.663l.975,1.8a8.827,8.827,0,0,1-1.95.95A6.782,6.782,0,0,1,196.75.3Zm-3.275-7.6h5.45a3.641,3.641,0,0,0-.613-2.238,2.211,2.211,0,0,0-1.887-.813,2.723,2.723,0,0,0-1.925.775A3.674,3.674,0,0,0,193.475-7.3Zm10.7,7.3V-12.275h2.375l.2,1.65h.1A9.731,9.731,0,0,1,208.638-12a4.279,4.279,0,0,1,2.237-.575,3.287,3.287,0,0,1,2.875,1.263,6.168,6.168,0,0,1,.9,3.613V0h-2.875V-7.325a3.82,3.82,0,0,0-.45-2.15,1.693,1.693,0,0,0-1.475-.625,2.585,2.585,0,0,0-1.413.387,9.012,9.012,0,0,0-1.387,1.138V0ZM223.3.3a6.365,6.365,0,0,1-2.337-.425,5.267,5.267,0,0,1-1.887-1.25,5.78,5.78,0,0,1-1.25-2.025,7.722,7.722,0,0,1-.45-2.725,7.029,7.029,0,0,1,.5-2.725,5.991,5.991,0,0,1,1.35-2.025,5.877,5.877,0,0,1,1.962-1.262,6.33,6.33,0,0,1,2.338-.438,4.87,4.87,0,0,1,2.063.4,6.706,6.706,0,0,1,1.537.975l-1.4,1.875a4.761,4.761,0,0,0-.988-.663,2.393,2.393,0,0,0-1.062-.238,3,3,0,0,0-2.425,1.113,4.526,4.526,0,0,0-.925,2.987,4.527,4.527,0,0,0,.912,2.963A2.914,2.914,0,0,0,223.6-2.05a3.055,3.055,0,0,0,1.363-.312,6.122,6.122,0,0,0,1.162-.737L227.3-1.2a6.119,6.119,0,0,1-1.912,1.125A6.1,6.1,0,0,1,223.3.3Zm6.425-.3V-12.275H232.6V0Zm1.45-14.425a1.834,1.834,0,0,1-1.275-.45,1.506,1.506,0,0,1-.5-1.175,1.545,1.545,0,0,1,.5-1.187,1.8,1.8,0,0,1,1.275-.463,1.8,1.8,0,0,1,1.275.463,1.545,1.545,0,0,1,.5,1.187,1.506,1.506,0,0,1-.5,1.175A1.834,1.834,0,0,1,231.175-14.425ZM240.5-5.35v-1.9h17.9v1.9ZM269.25,0V-6.075l-4.9-10.275h3.1l1.775,4.175q.35.925.7,1.787t.75,1.813h.1q.4-.95.775-1.813t.725-1.787l1.775-4.175h3.025L272.15-6.075V0Zm13.375.3a5.809,5.809,0,0,1-2.2-.425,5.474,5.474,0,0,1-1.862-1.25A5.981,5.981,0,0,1,277.275-3.4a7.356,7.356,0,0,1-.475-2.725,7.356,7.356,0,0,1,.475-2.725,5.981,5.981,0,0,1,1.288-2.025,5.632,5.632,0,0,1,1.862-1.262,5.664,5.664,0,0,1,2.2-.438,5.756,5.756,0,0,1,2.212.438,5.467,5.467,0,0,1,1.862,1.262,6.244,6.244,0,0,1,1.288,2.025,7.188,7.188,0,0,1,.488,2.725,7.188,7.188,0,0,1-.488,2.725A6.244,6.244,0,0,1,286.7-1.375a5.318,5.318,0,0,1-1.862,1.25A5.9,5.9,0,0,1,282.625.3Zm0-2.35a2.454,2.454,0,0,0,2.125-1.112,5.09,5.09,0,0,0,.775-2.963,5.138,5.138,0,0,0-.775-2.987,2.454,2.454,0,0,0-2.125-1.113,2.423,2.423,0,0,0-2.113,1.113,5.2,5.2,0,0,0-.762,2.987,5.153,5.153,0,0,0,.762,2.963A2.423,2.423,0,0,0,282.625-2.05Zm8.7,2.05V-17.65h2.825V-6.625h.075l4.55-5.65h3.15l-4.2,5L302.35,0h-3.125l-3.15-5.325-1.925,2.2V0Zm15.85.3A2.432,2.432,0,0,1,305-.625a4.457,4.457,0,0,1-.625-2.525v-14.5h2.875V-3a1.07,1.07,0,0,0,.2.738.583.583,0,0,0,.425.212h.188a1.06,1.06,0,0,0,.262-.05L308.7.05A3.88,3.88,0,0,1,307.175.3Zm6.95,0A3.574,3.574,0,0,1,311.5-.687a3.507,3.507,0,0,1-1-2.612,3.593,3.593,0,0,1,.413-1.737,3.556,3.556,0,0,1,1.3-1.313,8.632,8.632,0,0,1,2.25-.925,20.573,20.573,0,0,1,3.262-.575,4.634,4.634,0,0,0-.137-.912,2.1,2.1,0,0,0-.375-.775,1.744,1.744,0,0,0-.687-.525,2.6,2.6,0,0,0-1.05-.187,4.648,4.648,0,0,0-1.762.35,11.851,11.851,0,0,0-1.687.85l-1.05-1.925a12.3,12.3,0,0,1,2.3-1.125,7.815,7.815,0,0,1,2.75-.475,4.223,4.223,0,0,1,3.438,1.363A6,6,0,0,1,320.6-7.275V0h-2.375l-.2-1.35h-.1a9.019,9.019,0,0,1-1.763,1.175A4.443,4.443,0,0,1,314.125.3Zm.925-2.25a2.7,2.7,0,0,0,1.362-.35,7.314,7.314,0,0,0,1.313-1V-6.05a13.123,13.123,0,0,0-2.1.4,6.07,6.07,0,0,0-1.375.563,2,2,0,0,0-.75.713,1.707,1.707,0,0,0-.225.85,1.4,1.4,0,0,0,.5,1.2A2.067,2.067,0,0,0,315.05-1.95Zm9,1.95V-12.275h2.375l.2,1.675h.1a8.613,8.613,0,0,1,1.688-1.4,3.787,3.787,0,0,1,2.063-.575,3.671,3.671,0,0,1,2.163.575,3.57,3.57,0,0,1,1.237,1.625A9.875,9.875,0,0,1,335.7-11.95a3.782,3.782,0,0,1,2.125-.625,3.327,3.327,0,0,1,2.875,1.263,6.04,6.04,0,0,1,.925,3.613V0h-2.9V-7.325a3.736,3.736,0,0,0-.462-2.15,1.642,1.642,0,0,0-1.413-.625,3.866,3.866,0,0,0-2.575,1.525V0H331.4V-7.325a3.736,3.736,0,0,0-.462-2.15A1.67,1.67,0,0,0,329.5-10.1a3.866,3.866,0,0,0-2.575,1.525V0ZM348.1.3a3.574,3.574,0,0,1-2.625-.988,3.507,3.507,0,0,1-1-2.612,3.593,3.593,0,0,1,.413-1.737,3.556,3.556,0,0,1,1.3-1.313,8.632,8.632,0,0,1,2.25-.925A20.573,20.573,0,0,1,351.7-7.85a4.634,4.634,0,0,0-.137-.912,2.1,2.1,0,0,0-.375-.775,1.744,1.744,0,0,0-.687-.525,2.6,2.6,0,0,0-1.05-.187,4.648,4.648,0,0,0-1.762.35A11.851,11.851,0,0,0,346-9.05l-1.05-1.925a12.3,12.3,0,0,1,2.3-1.125,7.815,7.815,0,0,1,2.75-.475,4.223,4.223,0,0,1,3.438,1.363,6,6,0,0,1,1.137,3.938V0H352.2L352-1.35h-.1a9.019,9.019,0,0,1-1.763,1.175A4.443,4.443,0,0,1,348.1.3Zm.925-2.25a2.7,2.7,0,0,0,1.362-.35,7.314,7.314,0,0,0,1.313-1V-6.05a13.123,13.123,0,0,0-2.1.4,6.07,6.07,0,0,0-1.375.563,2,2,0,0,0-.75.713,1.707,1.707,0,0,0-.225.85,1.4,1.4,0,0,0,.5,1.2A2.067,2.067,0,0,0,349.025-1.95Zm17.6-6.75-.575,2h4.175l-.575-2q-.4-1.3-.763-2.675t-.712-2.725h-.1q-.35,1.375-.7,2.738T366.625-8.7ZM361.15,0l5.325-16.35h3.4L375.2,0h-3.05l-1.275-4.425h-5.5L364.1,0Zm18.625.3A2.432,2.432,0,0,1,377.6-.625a4.457,4.457,0,0,1-.625-2.525v-14.5h2.875V-3a1.07,1.07,0,0,0,.2.738.583.583,0,0,0,.425.212h.188a1.06,1.06,0,0,0,.262-.05L381.3.05A3.88,3.88,0,0,1,379.775.3Z" transform="translate(860 2382)"/>
      <path id="Path_967" data-name="Path 967" class="cls-6" d="M1.974,0H600.026A1.987,1.987,0,0,1,602,2V35H0V2A1.987,1.987,0,0,1,1.974,0Z" transform="translate(860 2413)"/>
      <path id="Path_968" data-name="Path 968" class="cls-7" d="M1.982.5H600.518A1.491,1.491,0,0,1,602,2V34a.5.5,0,0,1-.494.5H.994A.5.5,0,0,1,.5,34V2A1.491,1.491,0,0,1,1.982.5Z" transform="translate(860 2413)"/>
      <path id="AD_SOYAD" data-name="AD SOYAD" class="cls-8" d="M2.387-3.828l-.253.88H3.971l-.253-.88Q3.542-4.4,3.383-5.005T3.069-6.2H3.025q-.154.6-.308,1.2T2.387-3.828ZM-.022,0,2.321-7.194h1.5L6.16,0H4.818L4.257-1.947H1.837L1.276,0ZM7.051,0V-7.194H8.976A3.555,3.555,0,0,1,11.55-6.3a3.551,3.551,0,0,1,.924,2.673,4.8,4.8,0,0,1-.236,1.573,3.017,3.017,0,0,1-.682,1.139,2.848,2.848,0,0,1-1.078.687A4.166,4.166,0,0,1,9.042,0ZM8.327-1.034h.561a2.193,2.193,0,0,0,1.688-.633,2.806,2.806,0,0,0,.589-1.964,2.666,2.666,0,0,0-.594-1.925A2.252,2.252,0,0,0,8.888-6.16H8.327Zm9.9,1.166a3.69,3.69,0,0,1-1.4-.275,3.66,3.66,0,0,1-1.194-.781l.748-.869a3.216,3.216,0,0,0,.88.589,2.371,2.371,0,0,0,.99.225,1.48,1.48,0,0,0,.935-.253A.814.814,0,0,0,19.5-1.9a.783.783,0,0,0-.083-.374.847.847,0,0,0-.231-.27,1.99,1.99,0,0,0-.352-.214q-.2-.1-.445-.2l-.99-.429a3.408,3.408,0,0,1-.523-.275,2.289,2.289,0,0,1-.467-.4,1.833,1.833,0,0,1-.336-.539,1.84,1.84,0,0,1-.126-.7,1.78,1.78,0,0,1,.181-.8,2.023,2.023,0,0,1,.5-.643,2.314,2.314,0,0,1,.764-.429,2.962,2.962,0,0,1,.974-.154,3.066,3.066,0,0,1,1.21.248,3.124,3.124,0,0,1,1,.665l-.649.814a3.2,3.2,0,0,0-.726-.451,2.05,2.05,0,0,0-.836-.165,1.367,1.367,0,0,0-.825.226.728.728,0,0,0-.308.622.657.657,0,0,0,.094.358.956.956,0,0,0,.253.264,2.063,2.063,0,0,0,.368.209q.209.093.429.181l.979.407a3.372,3.372,0,0,1,.583.308,2.121,2.121,0,0,1,.456.407,1.77,1.77,0,0,1,.3.533,2.039,2.039,0,0,1,.11.7,1.961,1.961,0,0,1-.176.825,1.981,1.981,0,0,1-.511.677,2.51,2.51,0,0,1-.814.462A3.215,3.215,0,0,1,18.227.132Zm6.688,0a3.14,3.14,0,0,1-1.287-.258,2.786,2.786,0,0,1-1-.748,3.5,3.5,0,0,1-.649-1.183,4.963,4.963,0,0,1-.231-1.573,4.874,4.874,0,0,1,.231-1.556,3.329,3.329,0,0,1,.649-1.161,2.815,2.815,0,0,1,1-.726,3.2,3.2,0,0,1,1.287-.253,3.2,3.2,0,0,1,1.287.253,2.868,2.868,0,0,1,1.007.726,3.281,3.281,0,0,1,.655,1.161,4.874,4.874,0,0,1,.231,1.556,4.963,4.963,0,0,1-.231,1.573,3.451,3.451,0,0,1-.655,1.183A2.838,2.838,0,0,1,26.2-.126,3.14,3.14,0,0,1,24.915.132Zm0-1.111a1.575,1.575,0,0,0,.77-.187,1.715,1.715,0,0,0,.583-.533,2.655,2.655,0,0,0,.374-.836,4.2,4.2,0,0,0,.132-1.095,3.169,3.169,0,0,0-.5-1.9,1.593,1.593,0,0,0-1.358-.687,1.593,1.593,0,0,0-1.359.688,3.169,3.169,0,0,0-.5,1.9,4.2,4.2,0,0,0,.132,1.095,2.655,2.655,0,0,0,.374.836,1.715,1.715,0,0,0,.583.533A1.575,1.575,0,0,0,24.915-.979Zm5.6.979V-2.673L28.358-7.194h1.364L30.5-5.357q.154.407.308.786t.33.8h.044q.176-.418.341-.8t.319-.786l.781-1.837h1.331L31.79-2.673V0Zm5.61-3.828-.253.88h1.837l-.253-.88q-.176-.572-.335-1.177t-.313-1.2h-.044q-.154.6-.308,1.2T36.124-3.828ZM33.715,0l2.343-7.194h1.5L39.9,0H38.555l-.561-1.947h-2.42L35.013,0Zm7.073,0V-7.194h1.925a3.555,3.555,0,0,1,2.574.891,3.551,3.551,0,0,1,.924,2.673,4.8,4.8,0,0,1-.236,1.573,3.017,3.017,0,0,1-.682,1.139,2.848,2.848,0,0,1-1.078.687A4.166,4.166,0,0,1,42.779,0Zm1.276-1.034h.561a2.193,2.193,0,0,0,1.688-.633A2.806,2.806,0,0,0,44.9-3.63a2.666,2.666,0,0,0-.594-1.925,2.252,2.252,0,0,0-1.683-.605h-.561Z" transform="translate(880 2435)"/>
      <path id="GRUP" class="cls-8" d="M3.927.132A3.682,3.682,0,0,1,2.579-.11,2.984,2.984,0,0,1,1.5-.825a3.265,3.265,0,0,1-.71-1.166A4.6,4.6,0,0,1,.539-3.575,4.44,4.44,0,0,1,.8-5.154a3.505,3.505,0,0,1,.721-1.182A3.04,3.04,0,0,1,2.6-7.073a3.511,3.511,0,0,1,1.337-.253,2.773,2.773,0,0,1,1.3.28,3.423,3.423,0,0,1,.875.633l-.682.825a2.8,2.8,0,0,0-.611-.445,1.754,1.754,0,0,0-.841-.181,2.05,2.05,0,0,0-.874.181,1.921,1.921,0,0,0-.671.517A2.392,2.392,0,0,0,2-4.7a3.584,3.584,0,0,0-.154,1.089A3.024,3.024,0,0,0,2.4-1.678a1.975,1.975,0,0,0,1.644.7,2.019,2.019,0,0,0,.583-.083A1.2,1.2,0,0,0,5.082-1.3V-2.849H3.718V-3.894H6.226V-.726a2.915,2.915,0,0,1-.962.611A3.472,3.472,0,0,1,3.927.132ZM7.821,0V-7.194h2.431a4.71,4.71,0,0,1,1.045.11,2.337,2.337,0,0,1,.836.357,1.729,1.729,0,0,1,.556.655,2.251,2.251,0,0,1,.2,1.012A2.119,2.119,0,0,1,12.5-3.729,2.149,2.149,0,0,1,11.462-3l1.716,3h-1.43L10.2-2.816H9.1V0ZM9.1-3.828H10.12a1.788,1.788,0,0,0,1.127-.308,1.1,1.1,0,0,0,.391-.924.94.94,0,0,0-.391-.869,2.156,2.156,0,0,0-1.127-.242H9.1ZM17.028.132A3.291,3.291,0,0,1,15.9-.049a2.107,2.107,0,0,1-.858-.577,2.675,2.675,0,0,1-.55-1.018A5.162,5.162,0,0,1,14.3-3.157V-7.194h1.276v4.136a3.968,3.968,0,0,0,.1.985,1.72,1.72,0,0,0,.3.643,1.094,1.094,0,0,0,.457.346,1.6,1.6,0,0,0,.594.1,1.69,1.69,0,0,0,.6-.1,1.118,1.118,0,0,0,.473-.346,1.726,1.726,0,0,0,.308-.643,3.779,3.779,0,0,0,.11-.985V-7.194h1.221v4.037a5.3,5.3,0,0,1-.187,1.513,2.619,2.619,0,0,1-.545,1.018,2.107,2.107,0,0,1-.858.577A3.291,3.291,0,0,1,17.028.132ZM21.538,0V-7.194H23.8a5.256,5.256,0,0,1,1.105.11,2.386,2.386,0,0,1,.885.374,1.8,1.8,0,0,1,.583.688,2.362,2.362,0,0,1,.209,1.05,2.387,2.387,0,0,1-.209,1.034,2.026,2.026,0,0,1-.578.732,2.413,2.413,0,0,1-.869.429,4.078,4.078,0,0,1-1.083.138H22.814V0Zm1.276-3.663h.935q1.584,0,1.584-1.309a1.021,1.021,0,0,0-.413-.941A2.314,2.314,0,0,0,23.7-6.171h-.891Z" transform="translate(1065 2435)"/>
      <path id="SON_4_YOKLAMA" data-name="SON 4 YOKLAMA" class="cls-8" d="M3.014.132a3.69,3.69,0,0,1-1.4-.275A3.66,3.66,0,0,1,.418-.924l.748-.869a3.216,3.216,0,0,0,.88.589,2.371,2.371,0,0,0,.99.225,1.48,1.48,0,0,0,.935-.253A.814.814,0,0,0,4.29-1.9a.783.783,0,0,0-.082-.374.847.847,0,0,0-.231-.27,1.99,1.99,0,0,0-.352-.214q-.2-.1-.445-.2l-.99-.429a3.408,3.408,0,0,1-.523-.275,2.289,2.289,0,0,1-.467-.4A1.833,1.833,0,0,1,.863-4.6a1.84,1.84,0,0,1-.127-.7,1.78,1.78,0,0,1,.181-.8,2.023,2.023,0,0,1,.5-.643,2.314,2.314,0,0,1,.765-.429,2.962,2.962,0,0,1,.974-.154,3.066,3.066,0,0,1,1.21.248,3.124,3.124,0,0,1,1,.665L4.719-5.6a3.2,3.2,0,0,0-.726-.451,2.05,2.05,0,0,0-.836-.165,1.367,1.367,0,0,0-.825.226.728.728,0,0,0-.308.622.657.657,0,0,0,.093.358.956.956,0,0,0,.253.264,2.063,2.063,0,0,0,.368.209q.209.093.429.181l.979.407a3.372,3.372,0,0,1,.583.308,2.121,2.121,0,0,1,.457.407,1.77,1.77,0,0,1,.3.533A2.039,2.039,0,0,1,5.6-2a1.961,1.961,0,0,1-.176.825A1.981,1.981,0,0,1,4.911-.5,2.51,2.51,0,0,1,4.1-.038,3.215,3.215,0,0,1,3.014.132ZM9.7.132A3.14,3.14,0,0,1,8.415-.126a2.786,2.786,0,0,1-1-.748,3.5,3.5,0,0,1-.649-1.183A4.963,4.963,0,0,1,6.534-3.63a4.874,4.874,0,0,1,.231-1.556,3.329,3.329,0,0,1,.649-1.161,2.815,2.815,0,0,1,1-.726A3.2,3.2,0,0,1,9.7-7.326a3.2,3.2,0,0,1,1.287.253A2.868,2.868,0,0,1,12-6.347a3.281,3.281,0,0,1,.655,1.161,4.874,4.874,0,0,1,.231,1.556,4.963,4.963,0,0,1-.231,1.573A3.451,3.451,0,0,1,12-.874a2.838,2.838,0,0,1-1.006.748A3.14,3.14,0,0,1,9.7.132Zm0-1.111a1.575,1.575,0,0,0,.77-.187,1.715,1.715,0,0,0,.583-.533,2.655,2.655,0,0,0,.374-.836,4.2,4.2,0,0,0,.132-1.095,3.169,3.169,0,0,0-.5-1.9A1.593,1.593,0,0,0,9.7-6.215a1.593,1.593,0,0,0-1.358.688,3.169,3.169,0,0,0-.5,1.9,4.2,4.2,0,0,0,.132,1.095,2.655,2.655,0,0,0,.374.836,1.715,1.715,0,0,0,.583.533A1.575,1.575,0,0,0,9.7-.979ZM14.322,0V-7.194h1.309l2.244,4.048.737,1.529h.044q-.044-.561-.1-1.2t-.06-1.249V-7.194h1.221V0H18.4L16.159-4.048l-.737-1.529h-.044q.044.572.1,1.2t.061,1.232V0ZM26.114,0V-1.8H23.023v-.858L25.8-7H27.3v4.213h.88V-1.8H27.3V0ZM24.277-2.783h1.837V-4.367q0-.308.017-.726t.038-.726h-.044q-.132.275-.275.539l-.3.55ZM32.78,0V-2.673L30.624-7.194h1.364l.781,1.837q.154.407.308.786t.33.8h.044q.176-.418.341-.8t.319-.786l.781-1.837h1.331L34.056-2.673V0Zm6.93.132a3.14,3.14,0,0,1-1.287-.258,2.786,2.786,0,0,1-1-.748,3.5,3.5,0,0,1-.649-1.183,4.963,4.963,0,0,1-.231-1.573,4.874,4.874,0,0,1,.231-1.556,3.329,3.329,0,0,1,.649-1.161,2.815,2.815,0,0,1,1-.726,3.2,3.2,0,0,1,1.287-.253A3.2,3.2,0,0,1,41-7.073,2.868,2.868,0,0,1,42-6.347a3.281,3.281,0,0,1,.654,1.161,4.874,4.874,0,0,1,.231,1.556,4.963,4.963,0,0,1-.231,1.573A3.451,3.451,0,0,1,42-.874,2.838,2.838,0,0,1,41-.126,3.14,3.14,0,0,1,39.71.132Zm0-1.111a1.575,1.575,0,0,0,.77-.187,1.715,1.715,0,0,0,.583-.533,2.655,2.655,0,0,0,.374-.836,4.2,4.2,0,0,0,.132-1.095,3.169,3.169,0,0,0-.5-1.9,1.593,1.593,0,0,0-1.358-.687,1.593,1.593,0,0,0-1.359.688,3.169,3.169,0,0,0-.5,1.9,4.2,4.2,0,0,0,.132,1.095,2.655,2.655,0,0,0,.374.836,1.715,1.715,0,0,0,.583.533A1.575,1.575,0,0,0,39.71-.979ZM44.33,0V-7.194h1.276v3.267h.033L48.2-7.194h1.419l-2.211,2.8L49.995,0H48.587L46.64-3.388,45.606-2.1V0ZM50.9,0V-7.194h1.276v6.116h2.992V0Zm7-3.828-.253.88h1.837l-.253-.88q-.176-.572-.335-1.177t-.313-1.2h-.044q-.154.6-.308,1.2T57.893-3.828ZM55.484,0l2.343-7.194h1.5L61.666,0H60.324l-.561-1.947h-2.42L56.782,0Zm7.073,0V-7.194H64l1.276,3.52q.121.341.231.7t.231.71h.044q.121-.352.226-.71t.226-.7l1.243-3.52h1.452V0H67.749V-3.289q0-.253.017-.55t.038-.6q.022-.3.055-.594t.055-.544H67.87L67.287-3.9,66.11-.671h-.759L64.163-3.9l-.572-1.672h-.044q.022.253.049.544t.055.594q.028.3.044.6t.017.55V0Zm9.669-3.828-.253.88H73.81l-.253-.88q-.176-.572-.336-1.177t-.313-1.2h-.044q-.154.6-.308,1.2T72.226-3.828ZM69.817,0,72.16-7.194h1.5L76,0H74.657L74.1-1.947h-2.42L71.115,0Z" transform="translate(1145 2435)"/>
      <path id="DURUM" class="cls-8" d="M.913,0V-7.194H2.838A3.555,3.555,0,0,1,5.412-6.3,3.551,3.551,0,0,1,6.336-3.63,4.794,4.794,0,0,1,6.1-2.057,3.017,3.017,0,0,1,5.418-.918a2.848,2.848,0,0,1-1.078.687A4.166,4.166,0,0,1,2.9,0ZM2.189-1.034H2.75a2.193,2.193,0,0,0,1.688-.633A2.806,2.806,0,0,0,5.027-3.63a2.666,2.666,0,0,0-.594-1.925A2.252,2.252,0,0,0,2.75-6.16H2.189ZM10.483.132A3.291,3.291,0,0,1,9.356-.049,2.107,2.107,0,0,1,8.5-.627a2.675,2.675,0,0,1-.55-1.018,5.162,5.162,0,0,1-.193-1.513V-7.194H9.031v4.136a3.968,3.968,0,0,0,.1.985,1.72,1.72,0,0,0,.3.643,1.094,1.094,0,0,0,.457.346,1.6,1.6,0,0,0,.594.1,1.69,1.69,0,0,0,.6-.1,1.118,1.118,0,0,0,.473-.346,1.726,1.726,0,0,0,.308-.643,3.779,3.779,0,0,0,.11-.985V-7.194H13.2v4.037a5.3,5.3,0,0,1-.187,1.513,2.619,2.619,0,0,1-.545,1.018,2.107,2.107,0,0,1-.858.577A3.291,3.291,0,0,1,10.483.132ZM14.993,0V-7.194h2.431a4.71,4.71,0,0,1,1.045.11,2.337,2.337,0,0,1,.836.357,1.729,1.729,0,0,1,.556.655,2.251,2.251,0,0,1,.2,1.012,2.119,2.119,0,0,1-.39,1.331A2.149,2.149,0,0,1,18.634-3L20.35,0H18.92L17.369-2.816h-1.1V0Zm1.276-3.828h1.023a1.788,1.788,0,0,0,1.128-.308,1.105,1.105,0,0,0,.39-.924.94.94,0,0,0-.39-.869,2.156,2.156,0,0,0-1.128-.242H16.269ZM24.2.132a3.291,3.291,0,0,1-1.128-.181,2.107,2.107,0,0,1-.858-.577,2.675,2.675,0,0,1-.55-1.018,5.162,5.162,0,0,1-.193-1.513V-7.194h1.276v4.136a3.968,3.968,0,0,0,.1.985,1.72,1.72,0,0,0,.3.643,1.094,1.094,0,0,0,.456.346,1.6,1.6,0,0,0,.594.1,1.69,1.69,0,0,0,.6-.1,1.118,1.118,0,0,0,.473-.346,1.726,1.726,0,0,0,.308-.643,3.779,3.779,0,0,0,.11-.985V-7.194h1.221v4.037a5.3,5.3,0,0,1-.187,1.513,2.619,2.619,0,0,1-.545,1.018,2.107,2.107,0,0,1-.858.577A3.291,3.291,0,0,1,24.2.132ZM28.71,0V-7.194h1.441l1.276,3.52q.121.341.231.7t.231.71h.044q.121-.352.226-.71t.226-.7l1.243-3.52h1.452V0H33.9V-3.289q0-.253.017-.55t.038-.6q.022-.3.055-.594t.055-.544h-.044L33.44-3.9,32.263-.671H31.5L30.316-3.9l-.572-1.672H29.7q.022.253.049.544t.055.594q.028.3.044.6t.017.55V0Z" transform="translate(1283 2435)"/>
      <g id="Rectangle_814" data-name="Rectangle 814" class="cls-9" transform="translate(860 2447)">
        <path class="cls-43" d="M0,0H602V66H0Z"/>
        <path class="cls-44" d="M 1 1 L 1 65 L 601 65 L 601 1 L 1 1 M 0 0 L 602 0 L 602 66 L 0 66 L 0 0 Z"/>
      </g>
      <path id="Oğuzhan_Demiröz" data-name="Oğuzhan Demiröz" class="cls-10" d="M5.055.18A4.282,4.282,0,0,1,3.3-.172a3.8,3.8,0,0,1-1.365-1.02A4.777,4.777,0,0,1,1.05-2.805,6.768,6.768,0,0,1,.735-4.95,6.646,6.646,0,0,1,1.05-7.073a4.539,4.539,0,0,1,.885-1.583A3.838,3.838,0,0,1,3.3-9.645,4.362,4.362,0,0,1,5.055-9.99a4.362,4.362,0,0,1,1.755.345,3.911,3.911,0,0,1,1.372.99,4.474,4.474,0,0,1,.893,1.583A6.646,6.646,0,0,1,9.39-4.95a6.768,6.768,0,0,1-.315,2.145,4.706,4.706,0,0,1-.893,1.613A3.87,3.87,0,0,1,6.81-.172,4.282,4.282,0,0,1,5.055.18Zm0-1.515a2.147,2.147,0,0,0,1.05-.255,2.338,2.338,0,0,0,.8-.727,3.621,3.621,0,0,0,.51-1.14A5.733,5.733,0,0,0,7.59-4.95a4.322,4.322,0,0,0-.682-2.587,2.172,2.172,0,0,0-1.852-.938A2.172,2.172,0,0,0,3.2-7.537,4.322,4.322,0,0,0,2.52-4.95,5.733,5.733,0,0,0,2.7-3.457a3.621,3.621,0,0,0,.51,1.14A2.338,2.338,0,0,0,4-1.59,2.147,2.147,0,0,0,5.055-1.335Zm8.715,4.59a5.86,5.86,0,0,1-1.222-.12,3.2,3.2,0,0,1-.967-.36,1.888,1.888,0,0,1-.638-.6,1.514,1.514,0,0,1-.232-.84,1.5,1.5,0,0,1,.27-.863,2.525,2.525,0,0,1,.78-.713V-.3a1.5,1.5,0,0,1-.472-.48,1.391,1.391,0,0,1-.187-.75,1.339,1.339,0,0,1,.248-.787,2.382,2.382,0,0,1,.563-.578v-.06a2.635,2.635,0,0,1-.668-.788A2.268,2.268,0,0,1,10.95-4.9a2.546,2.546,0,0,1,.24-1.125,2.517,2.517,0,0,1,.637-.832,2.721,2.721,0,0,1,.923-.51,3.533,3.533,0,0,1,1.11-.173,3.1,3.1,0,0,1,.578.052,3.867,3.867,0,0,1,.5.128h2.64V-6.09H16.23a1.746,1.746,0,0,1,.3.532,2.029,2.029,0,0,1,.12.712,2.524,2.524,0,0,1-.218,1.08,2.246,2.246,0,0,1-.592.78,2.606,2.606,0,0,1-.885.48,3.537,3.537,0,0,1-1.1.165,2.847,2.847,0,0,1-.495-.045,2.461,2.461,0,0,1-.51-.15,1.566,1.566,0,0,0-.262.3.735.735,0,0,0-.1.405.569.569,0,0,0,.262.5,1.757,1.757,0,0,0,.938.18H15a3.846,3.846,0,0,1,2.017.427A1.513,1.513,0,0,1,17.7.66a2.006,2.006,0,0,1-.277,1.02,2.519,2.519,0,0,1-.788.825,4.21,4.21,0,0,1-1.238.548A6.067,6.067,0,0,1,13.77,3.255Zm.09-6.675a1.216,1.216,0,0,0,.9-.383,1.51,1.51,0,0,0,.375-1.1,1.485,1.485,0,0,0-.368-1.073,1.208,1.208,0,0,0-.908-.383,1.245,1.245,0,0,0-.915.375A1.462,1.462,0,0,0,12.57-4.9a1.51,1.51,0,0,0,.375,1.1A1.233,1.233,0,0,0,13.86-3.42Zm.18,5.55a2.64,2.64,0,0,0,1.448-.353,1,1,0,0,0,.548-.833A.577.577,0,0,0,15.7.36,2.462,2.462,0,0,0,14.73.21H13.725A4.076,4.076,0,0,1,12.72.105a1.23,1.23,0,0,0-.57.975.852.852,0,0,0,.5.773A2.891,2.891,0,0,0,14.04,2.13Zm.18-10.695a2.8,2.8,0,0,1-1.08-.188,2.047,2.047,0,0,1-.742-.51,2.189,2.189,0,0,1-.443-.743,3.238,3.238,0,0,1-.18-.885l1.02-.165a2.553,2.553,0,0,0,.142.518,1.32,1.32,0,0,0,.278.435,1.483,1.483,0,0,0,.427.307,1.309,1.309,0,0,0,.577.12A1.309,1.309,0,0,0,14.8-9.8a1.483,1.483,0,0,0,.427-.307,1.32,1.32,0,0,0,.278-.435,2.553,2.553,0,0,0,.142-.518l1.02.165a3.238,3.238,0,0,1-.18.885,2.189,2.189,0,0,1-.443.743,2.047,2.047,0,0,1-.743.51A2.8,2.8,0,0,1,14.22-8.565ZM21.195.18A1.972,1.972,0,0,1,19.47-.577a3.7,3.7,0,0,1-.54-2.167v-4.62h1.725V-2.97a2.292,2.292,0,0,0,.27,1.29,1,1,0,0,0,.87.375,1.515,1.515,0,0,0,.847-.24,3.465,3.465,0,0,0,.788-.78v-5.04h1.725V0h-1.41L23.61-1.08h-.045a4.328,4.328,0,0,1-1.043.915A2.489,2.489,0,0,1,21.195.18ZM26.76,0V-.93L30.24-6H27.15V-7.365H32.4v.915L28.935-1.38H32.52V0Zm7.23,0V-10.59h1.725v2.73l-.06,1.425a6.069,6.069,0,0,1,1.028-.773,2.531,2.531,0,0,1,1.328-.338,1.972,1.972,0,0,1,1.725.758,3.7,3.7,0,0,1,.54,2.168V0H38.55V-4.395a2.292,2.292,0,0,0-.27-1.29A1.016,1.016,0,0,0,37.4-6.06a1.551,1.551,0,0,0-.847.233,5.407,5.407,0,0,0-.833.682V0ZM44.145.18A2.145,2.145,0,0,1,42.57-.412a2.1,2.1,0,0,1-.6-1.568,2.156,2.156,0,0,1,.247-1.043A2.134,2.134,0,0,1,43-3.81a5.18,5.18,0,0,1,1.35-.555,12.344,12.344,0,0,1,1.958-.345,2.78,2.78,0,0,0-.083-.547A1.258,1.258,0,0,0,46-5.722a1.046,1.046,0,0,0-.412-.315,1.561,1.561,0,0,0-.63-.113,2.789,2.789,0,0,0-1.057.21,7.112,7.112,0,0,0-1.013.51l-.63-1.155a7.379,7.379,0,0,1,1.38-.675,4.689,4.689,0,0,1,1.65-.285,2.534,2.534,0,0,1,2.063.818,3.6,3.6,0,0,1,.682,2.362V0H46.6l-.12-.81h-.06a5.411,5.411,0,0,1-1.057.7A2.666,2.666,0,0,1,44.145.18ZM44.7-1.17a1.618,1.618,0,0,0,.817-.21,4.39,4.39,0,0,0,.788-.6V-3.63a7.874,7.874,0,0,0-1.26.24,3.642,3.642,0,0,0-.825.337,1.2,1.2,0,0,0-.45.428,1.024,1.024,0,0,0-.135.51.841.841,0,0,0,.3.72A1.24,1.24,0,0,0,44.7-1.17ZM50.1,0V-7.365h1.425l.12.99h.06A5.839,5.839,0,0,1,52.778-7.2a2.567,2.567,0,0,1,1.343-.345,1.972,1.972,0,0,1,1.725.758,3.7,3.7,0,0,1,.54,2.168V0H54.66V-4.395a2.292,2.292,0,0,0-.27-1.29,1.016,1.016,0,0,0-.885-.375,1.551,1.551,0,0,0-.847.233,5.407,5.407,0,0,0-.833.682V0ZM61.65,0V-9.81h2.625A4.848,4.848,0,0,1,67.785-8.6a4.843,4.843,0,0,1,1.26,3.645,6.538,6.538,0,0,1-.323,2.145,4.114,4.114,0,0,1-.93,1.553,3.883,3.883,0,0,1-1.47.937A5.681,5.681,0,0,1,64.365,0Zm1.74-1.41h.765a2.991,2.991,0,0,0,2.3-.863,3.827,3.827,0,0,0,.8-2.678,3.635,3.635,0,0,0-.81-2.625A3.071,3.071,0,0,0,64.155-8.4H63.39ZM74.025.18A3.821,3.821,0,0,1,72.6-.082,3.384,3.384,0,0,1,71.445-.84a3.456,3.456,0,0,1-.772-1.208,4.46,4.46,0,0,1-.278-1.628,4.37,4.37,0,0,1,.285-1.62,3.716,3.716,0,0,1,.757-1.215,3.356,3.356,0,0,1,1.088-.765,3.105,3.105,0,0,1,1.26-.27,3.2,3.2,0,0,1,1.32.255,2.575,2.575,0,0,1,.952.72,3.167,3.167,0,0,1,.578,1.11,4.855,4.855,0,0,1,.195,1.41q0,.255-.023.48a3.2,3.2,0,0,1-.052.36h-4.68a2.378,2.378,0,0,0,.7,1.523,2.094,2.094,0,0,0,1.478.533,2.716,2.716,0,0,0,.893-.142,3.966,3.966,0,0,0,.817-.4l.585,1.08a5.3,5.3,0,0,1-1.17.57A4.069,4.069,0,0,1,74.025.18ZM72.06-4.38h3.27a2.185,2.185,0,0,0-.368-1.342A1.327,1.327,0,0,0,73.83-6.21a1.634,1.634,0,0,0-1.155.465A2.2,2.2,0,0,0,72.06-4.38ZM78.48,0V-7.365H79.9l.12,1h.06A5.168,5.168,0,0,1,81.1-7.2a2.272,2.272,0,0,1,1.237-.345,2.2,2.2,0,0,1,1.3.345,2.142,2.142,0,0,1,.743.975,5.925,5.925,0,0,1,1.1-.945,2.269,2.269,0,0,1,1.275-.375,2,2,0,0,1,1.725.758,3.624,3.624,0,0,1,.555,2.168V0h-1.74V-4.395a2.242,2.242,0,0,0-.278-1.29.985.985,0,0,0-.847-.375,2.32,2.32,0,0,0-1.545.915V0H82.89V-4.395a2.242,2.242,0,0,0-.277-1.29,1,1,0,0,0-.863-.375,2.32,2.32,0,0,0-1.545.915V0ZM91.125,0V-7.365H92.85V0Zm.87-8.655a1.1,1.1,0,0,1-.765-.27.9.9,0,0,1-.3-.7.927.927,0,0,1,.3-.712,1.082,1.082,0,0,1,.765-.278,1.082,1.082,0,0,1,.765.278.927.927,0,0,1,.3.712.9.9,0,0,1-.3.7A1.1,1.1,0,0,1,91.995-8.655ZM95.055,0V-7.365H96.48l.12,1.3h.06a3.092,3.092,0,0,1,.945-1.1,1.986,1.986,0,0,1,1.14-.383,1.974,1.974,0,0,1,.84.15l-.3,1.5a3.149,3.149,0,0,0-.36-.09,2.312,2.312,0,0,0-.405-.03,1.607,1.607,0,0,0-.915.337A2.607,2.607,0,0,0,96.78-4.5V0Zm8.46.18a3.485,3.485,0,0,1-1.32-.255,3.284,3.284,0,0,1-1.118-.75,3.588,3.588,0,0,1-.772-1.215,4.414,4.414,0,0,1-.285-1.635,4.414,4.414,0,0,1,.285-1.635,3.588,3.588,0,0,1,.772-1.215,3.379,3.379,0,0,1,1.118-.758,3.4,3.4,0,0,1,1.32-.262,3.454,3.454,0,0,1,1.327.262,3.28,3.28,0,0,1,1.118.758,3.747,3.747,0,0,1,.772,1.215,4.313,4.313,0,0,1,.293,1.635,4.313,4.313,0,0,1-.293,1.635,3.747,3.747,0,0,1-.772,1.215,3.191,3.191,0,0,1-1.118.75A3.542,3.542,0,0,1,103.515.18Zm0-1.41A1.472,1.472,0,0,0,104.79-1.9a3.054,3.054,0,0,0,.465-1.778,3.083,3.083,0,0,0-.465-1.792,1.472,1.472,0,0,0-1.275-.668,1.454,1.454,0,0,0-1.268.668,3.121,3.121,0,0,0-.457,1.792,3.092,3.092,0,0,0,.457,1.778A1.454,1.454,0,0,0,103.515-1.23ZM101.97-8.67a.886.886,0,0,1-.653-.262.886.886,0,0,1-.262-.653.886.886,0,0,1,.262-.653.886.886,0,0,1,.653-.262.879.879,0,0,1,.66.262.9.9,0,0,1,.255.653.9.9,0,0,1-.255.653A.879.879,0,0,1,101.97-8.67Zm3.09,0a.879.879,0,0,1-.66-.262.9.9,0,0,1-.255-.653.9.9,0,0,1,.255-.653.879.879,0,0,1,.66-.262.886.886,0,0,1,.653.262.886.886,0,0,1,.262.653.886.886,0,0,1-.262.653A.886.886,0,0,1,105.06-8.67ZM108,0V-.93L111.48-6h-3.09V-7.365h5.25v.915l-3.465,5.07h3.585V0Z" transform="translate(926 2486)"/>
      <path id="Scoutive" class="cls-10" d="M4.08.18A4.708,4.708,0,0,1,2.16-.21,4.729,4.729,0,0,1,.63-1.275l.75-.87a4.1,4.1,0,0,0,1.238.893A3.413,3.413,0,0,0,4.1-.915,2.328,2.328,0,0,0,5.61-1.357,1.43,1.43,0,0,0,6.15-2.52a1.449,1.449,0,0,0-.128-.638,1.388,1.388,0,0,0-.345-.45,2.5,2.5,0,0,0-.517-.338q-.3-.15-.645-.315l-1.41-.615a6.723,6.723,0,0,1-.705-.36,2.9,2.9,0,0,1-.645-.51,2.44,2.44,0,0,1-.465-.713,2.363,2.363,0,0,1-.18-.952,2.343,2.343,0,0,1,.233-1.035,2.544,2.544,0,0,1,.645-.832,2.991,2.991,0,0,1,.975-.547A3.757,3.757,0,0,1,4.2-10.02a3.938,3.938,0,0,1,1.635.337,4.1,4.1,0,0,1,1.275.877l-.675.81a3.507,3.507,0,0,0-1-.682A2.972,2.972,0,0,0,4.2-8.925a2.135,2.135,0,0,0-1.327.382,1.255,1.255,0,0,0-.5,1.058,1.2,1.2,0,0,0,.142.608,1.5,1.5,0,0,0,.382.435,3.106,3.106,0,0,0,.525.33Q3.7-5.97,4-5.85l1.4.6a5.965,5.965,0,0,1,.795.413,2.847,2.847,0,0,1,.645.54,2.35,2.35,0,0,1,.427.72,2.66,2.66,0,0,1,.158.952,2.608,2.608,0,0,1-.233,1.1,2.633,2.633,0,0,1-.668.892,3.17,3.17,0,0,1-1.05.6A4.169,4.169,0,0,1,4.08.18Zm8.04,0a3.564,3.564,0,0,1-1.35-.255A3.033,3.033,0,0,1,9.682-.817a3.492,3.492,0,0,1-.72-1.2A4.642,4.642,0,0,1,8.7-3.63a4.355,4.355,0,0,1,.285-1.627A3.666,3.666,0,0,1,9.75-6.465a3.191,3.191,0,0,1,1.118-.75A3.581,3.581,0,0,1,12.21-7.47a2.726,2.726,0,0,1,1.23.255,4.151,4.151,0,0,1,.9.6l-.63.81a3.088,3.088,0,0,0-.667-.465,1.706,1.706,0,0,0-.788-.18,2.079,2.079,0,0,0-.915.2,2.058,2.058,0,0,0-.72.577,2.862,2.862,0,0,0-.472.892A3.613,3.613,0,0,0,9.975-3.63a3.692,3.692,0,0,0,.165,1.14,2.756,2.756,0,0,0,.457.877,2.023,2.023,0,0,0,.713.57,2.079,2.079,0,0,0,.915.2,2.037,2.037,0,0,0,.938-.217,3.791,3.791,0,0,0,.773-.517l.54.825a3.9,3.9,0,0,1-1.095.683A3.272,3.272,0,0,1,12.12.18Zm6.48,0a3.28,3.28,0,0,1-1.283-.255,3.159,3.159,0,0,1-1.073-.742,3.615,3.615,0,0,1-.742-1.2,4.415,4.415,0,0,1-.278-1.612A4.46,4.46,0,0,1,15.5-5.257a3.7,3.7,0,0,1,.742-1.208,3.111,3.111,0,0,1,1.073-.75A3.28,3.28,0,0,1,18.6-7.47a3.28,3.28,0,0,1,1.282.255,3.111,3.111,0,0,1,1.073.75A3.7,3.7,0,0,1,21.7-5.257a4.46,4.46,0,0,1,.278,1.627A4.415,4.415,0,0,1,21.7-2.017a3.615,3.615,0,0,1-.743,1.2,3.159,3.159,0,0,1-1.073.742A3.28,3.28,0,0,1,18.6.18Zm0-1.02a1.827,1.827,0,0,0,.855-.2,1.965,1.965,0,0,0,.667-.57,2.709,2.709,0,0,0,.427-.877,4.035,4.035,0,0,0,.15-1.14,4.114,4.114,0,0,0-.15-1.148,2.792,2.792,0,0,0-.427-.892,1.934,1.934,0,0,0-.667-.577,1.827,1.827,0,0,0-.855-.2,1.827,1.827,0,0,0-.855.2,1.934,1.934,0,0,0-.667.577,2.792,2.792,0,0,0-.427.892A4.114,4.114,0,0,0,16.5-3.63a4.035,4.035,0,0,0,.15,1.14,2.709,2.709,0,0,0,.427.877,1.965,1.965,0,0,0,.667.57A1.827,1.827,0,0,0,18.6-.84ZM26.025.18a1.977,1.977,0,0,1-1.7-.72,3.559,3.559,0,0,1-.532-2.13V-7.29h1.245v4.455a2.654,2.654,0,0,0,.322,1.492A1.186,1.186,0,0,0,26.4-.885a1.758,1.758,0,0,0,1-.293,4.716,4.716,0,0,0,.96-.938V-7.29H29.6V0h-1.02l-.1-1.14h-.045a4.863,4.863,0,0,1-1.073.96A2.409,2.409,0,0,1,26.025.18Zm8.325,0A2.379,2.379,0,0,1,33.368,0a1.69,1.69,0,0,1-.645-.5,1.929,1.929,0,0,1-.353-.765,4.358,4.358,0,0,1-.1-.99V-6.285h-1.08v-.93l1.14-.075.15-2.04H33.51v2.04h1.965v1.005H33.51v4.05a1.857,1.857,0,0,0,.247,1.043.981.981,0,0,0,.878.368,1.635,1.635,0,0,0,.42-.06,3.2,3.2,0,0,0,.4-.135l.24.93A6.377,6.377,0,0,1,35.048.1,3.053,3.053,0,0,1,34.35.18ZM37.125,0V-7.29h1.23V0Zm.63-8.79a.87.87,0,0,1-.608-.225.737.737,0,0,1-.247-.57.731.731,0,0,1,.247-.578.888.888,0,0,1,.608-.217.888.888,0,0,1,.607.217.731.731,0,0,1,.248.578.737.737,0,0,1-.248.57A.87.87,0,0,1,37.755-8.79ZM42.39,0,39.765-7.29H41.04l1.38,4.14q.165.54.338,1.08T43.095-1h.06q.165-.525.33-1.065l.33-1.08,1.38-4.14H46.41L43.83,0Zm8.325.18a3.569,3.569,0,0,1-1.373-.263,3.253,3.253,0,0,1-1.11-.75,3.473,3.473,0,0,1-.743-1.193,4.464,4.464,0,0,1-.27-1.6A4.415,4.415,0,0,1,47.5-5.242a3.774,3.774,0,0,1,.735-1.208,3.189,3.189,0,0,1,1.042-.757A2.937,2.937,0,0,1,50.49-7.47a3.053,3.053,0,0,1,1.238.24,2.413,2.413,0,0,1,.915.69A3.166,3.166,0,0,1,53.2-5.46,4.758,4.758,0,0,1,53.4-4.05q0,.2-.007.383a1.848,1.848,0,0,1-.037.322h-4.92a2.847,2.847,0,0,0,.728,1.852,2.248,2.248,0,0,0,1.7.683,2.866,2.866,0,0,0,.968-.157,4.281,4.281,0,0,0,.847-.413l.435.81a6.21,6.21,0,0,1-1.065.525A3.7,3.7,0,0,1,50.715.18Zm-2.3-4.41h3.9a2.611,2.611,0,0,0-.472-1.687,1.619,1.619,0,0,0-1.327-.577,1.877,1.877,0,0,0-.743.15,1.955,1.955,0,0,0-.638.443,2.425,2.425,0,0,0-.472.713A3.217,3.217,0,0,0,48.42-4.23Z" transform="translate(1065 2486)"/>
      <path id="Ellipse_15" data-name="Ellipse 15" class="cls-11" d="M18,0A18,18,0,1,1,0,18,18,18,0,0,1,18,0Z" transform="translate(880 2463)"/>
      <path id="OD" class="cls-12" d="M4.381.156A3.711,3.711,0,0,1,2.86-.149a3.293,3.293,0,0,1-1.183-.884,4.14,4.14,0,0,1-.767-1.4A5.866,5.866,0,0,1,.637-4.29,5.76,5.76,0,0,1,.91-6.129,3.934,3.934,0,0,1,1.677-7.5,3.327,3.327,0,0,1,2.86-8.359a3.781,3.781,0,0,1,1.521-.3,3.781,3.781,0,0,1,1.521.3A3.389,3.389,0,0,1,7.091-7.5a3.877,3.877,0,0,1,.774,1.372A5.76,5.76,0,0,1,8.138-4.29a5.866,5.866,0,0,1-.273,1.859,4.079,4.079,0,0,1-.774,1.4A3.354,3.354,0,0,1,5.9-.149,3.711,3.711,0,0,1,4.381.156Zm0-1.313a1.861,1.861,0,0,0,.91-.221,2.026,2.026,0,0,0,.689-.63A3.138,3.138,0,0,0,6.422-3,4.969,4.969,0,0,0,6.578-4.29a3.746,3.746,0,0,0-.591-2.242,1.882,1.882,0,0,0-1.605-.812,1.882,1.882,0,0,0-1.606.813A3.746,3.746,0,0,0,2.184-4.29,4.968,4.968,0,0,0,2.34-3a3.138,3.138,0,0,0,.442.988,2.026,2.026,0,0,0,.689.63A1.861,1.861,0,0,0,4.381-1.157ZM9.841,0V-8.5h2.275a4.2,4.2,0,0,1,3.042,1.053A4.2,4.2,0,0,1,16.25-4.29a5.666,5.666,0,0,1-.28,1.859,3.566,3.566,0,0,1-.806,1.345,3.365,3.365,0,0,1-1.274.813,4.924,4.924,0,0,1-1.7.273Zm1.508-1.222h.663a2.592,2.592,0,0,0,2-.748,3.316,3.316,0,0,0,.7-2.32A3.15,3.15,0,0,0,14-6.565a2.662,2.662,0,0,0-1.989-.715h-.663Z" transform="translate(890 2486)"/>
      <g id="Ellipse_84" data-name="Ellipse 84" class="cls-13" transform="translate(904 2489)">
        <path class="cls-43" d="M 5 9 C 2.794389963150024 9 1 7.205609798431396 1 5 C 1 2.794389963150024 2.794389963150024 1 5 1 C 7.205609798431396 1 9 2.794389963150024 9 5 C 9 7.205609798431396 7.205609798431396 9 5 9 Z"/>
        <path class="cls-45" d="M 5 2 C 3.345789909362793 2 2 3.345789909362793 2 5 C 2 6.654210090637207 3.345789909362793 8 5 8 C 6.654210090637207 8 8 6.654210090637207 8 5 C 8 3.345789909362793 6.654210090637207 2 5 2 M 5 0 C 7.761420249938965 0 10 2.238580226898193 10 5 C 10 7.761420249938965 7.761420249938965 10 5 10 C 2.238580226898193 10 0 7.761420249938965 0 5 C 0 2.238580226898193 2.238580226898193 0 5 0 Z"/>
      </g>
      <path id="Rectangle_127" data-name="Rectangle 127" class="cls-14" d="M0,0H28V18H0Z" transform="translate(1145 2471)"/>
      <path id="Rectangle_126" data-name="Rectangle 126" class="cls-15" d="M0,0H28V18H0Z" transform="translate(1173 2471)"/>
      <path id="Rectangle_756" data-name="Rectangle 756" class="cls-14" d="M0,0H28V18H0Z" transform="translate(1201 2471)"/>
      <path id="Rectangle_755" data-name="Rectangle 755" class="cls-16" d="M0,0H28V18H0Z" transform="translate(1229 2471)"/>
      <g id="Mask_Group_318" data-name="Mask Group 318" class="cls-17" transform="translate(852 2334)">
        <path id="check" class="cls-18" d="M11.9,3.824,5.47,10.25,2.549,7.329" transform="translate(300.277 139.584)"/>
      </g>
      <g id="Mask_Group_316" data-name="Mask Group 316" class="cls-19" transform="translate(853 2334)">
        <path id="Ellipse_94" data-name="Ellipse 94" class="cls-20" d="M5,0A5,5,0,1,1,0,5,5,5,0,0,1,5,0Z" transform="translate(329.5 141.5)"/>
        <path id="Line_168" data-name="Line 168" class="cls-20" d="M0,0V2" transform="translate(334.5 144.5)"/>
        <path id="Line_169" data-name="Line 169" class="cls-20" d="M0,0H0" transform="translate(334.5 148.5)"/>
      </g>
      <g id="Mask_Group_314" data-name="Mask Group 314" class="cls-21" transform="translate(854 2334)">
        <path id="check-2" data-name="check" class="cls-18" d="M11.9,3.824,5.47,10.25,2.549,7.329" transform="translate(354.277 139.584)"/>
      </g>
      <g id="Mask_Group_312" data-name="Mask Group 312" class="cls-22" transform="translate(853 2334)">
        <path id="Line_166" data-name="Line 166" class="cls-23" d="M8.093,0,0,8.093" transform="translate(385.954 141.954)"/>
        <path id="Line_167" data-name="Line 167" class="cls-23" d="M0,0,8.093,8.093" transform="translate(385.954 141.954)"/>
      </g>
      <g class="cls-52" transform="matrix(1, 0, 0, 1, 814.5, 2316.5)">
        <path id="Rectangle_798-4" data-name="Rectangle 798" class="cls-24" d="M2,0H33a2,2,0,0,1,2,2V25a2,2,0,0,1-2,2H2a2,2,0,0,1-2-2V2A2,2,0,0,1,2,0Z" transform="translate(468.5 150.5)"/>
      </g>
      <g class="cls-51" transform="matrix(1, 0, 0, 1, 814.5, 2316.5)">
        <path id="Rectangle_798-5" data-name="Rectangle 798" class="cls-24" d="M2,0H33a2,2,0,0,1,2,2V25a2,2,0,0,1-2,2H2a2,2,0,0,1-2-2V2A2,2,0,0,1,2,0Z" transform="translate(511.5 150.5)"/>
      </g>
      <g class="cls-50" transform="matrix(1, 0, 0, 1, 814.5, 2316.5)">
        <path id="Rectangle_798-6" data-name="Rectangle 798" class="cls-24" d="M2,0H33a2,2,0,0,1,2,2V25a2,2,0,0,1-2,2H2a2,2,0,0,1-2-2V2A2,2,0,0,1,2,0Z" transform="translate(554.5 150.5)"/>
      </g>
      <g id="Mask_Group_310" data-name="Mask Group 310" class="cls-25" transform="translate(654 2337)">
        <path id="Ellipse_93" data-name="Ellipse 93" class="cls-26" d="M5.909,0A5.909,5.909,0,1,1,0,5.909,5.909,5.909,0,0,1,5.909,0Z" transform="translate(683.591 137.591)"/>
        <path id="Line_162" data-name="Line 162" class="cls-26" d="M0,0V2.364" transform="translate(689.5 141.136)"/>
        <path id="Line_163" data-name="Line 163" class="cls-26" d="M0,0H.006" transform="translate(689.5 145.864)"/>
      </g>
      <g id="Mask_Group_308" data-name="Mask Group 308" class="cls-27" transform="translate(654 2337)">
        <path id="check-3" data-name="check" class="cls-28" d="M14.446,5.1l-7.6,7.594L3.4,9.241" transform="translate(637.577 134.747)"/>
      </g>
      <g id="Mask_Group_306" data-name="Mask Group 306" class="cls-29" transform="translate(654 2337)">
        <path id="Line_164" data-name="Line 164" class="cls-30" d="M10.52,0,0,10.52" transform="translate(727.24 138.24)"/>
        <path id="Line_165" data-name="Line 165" class="cls-30" d="M0,0,10.52,10.52" transform="translate(727.24 138.24)"/>
      </g>
      <g id="Rectangle_840" data-name="Rectangle 840" class="cls-9" transform="translate(860 2511)">
        <path class="cls-43" d="M0,0H602V66H0Z"/>
        <path class="cls-44" d="M 1 1 L 1 65 L 601 65 L 601 1 L 1 1 M 0 0 L 602 0 L 602 66 L 0 66 L 0 0 Z"/>
      </g>
      <path id="Ellipse_95" data-name="Ellipse 95" class="cls-11" d="M18,0A18,18,0,1,1,0,18,18,18,0,0,1,18,0Z" transform="translate(880 2526)"/>
      <g id="Ellipse_96" data-name="Ellipse 96" class="cls-31" transform="translate(904 2552)">
        <path class="cls-43" d="M 5 9 C 2.794389963150024 9 1 7.205609798431396 1 5 C 1 2.794389963150024 2.794389963150024 1 5 1 C 7.205609798431396 1 9 2.794389963150024 9 5 C 9 7.205609798431396 7.205609798431396 9 5 9 Z"/>
        <path class="cls-45" d="M 5 2 C 3.345789909362793 2 2 3.345789909362793 2 5 C 2 6.654210090637207 3.345789909362793 8 5 8 C 6.654210090637207 8 8 6.654210090637207 8 5 C 8 3.345789909362793 6.654210090637207 2 5 2 M 5 0 C 7.761420249938965 0 10 2.238580226898193 10 5 C 10 7.761420249938965 7.761420249938965 10 5 10 C 2.238580226898193 10 0 7.761420249938965 0 5 C 0 2.238580226898193 2.238580226898193 0 5 0 Z"/>
      </g>
      <path id="Rectangle_841" data-name="Rectangle 841" class="cls-32" d="M4,0H98a4,4,0,0,1,0,8H4A4,4,0,0,1,4,0Z" transform="translate(926 2540)"/>
      <path id="Rectangle_842" data-name="Rectangle 842" class="cls-32" d="M4,0H49a4,4,0,0,1,0,8H4A4,4,0,0,1,4,0Z" transform="translate(1065 2540)"/>
      <path id="Rectangle_843" data-name="Rectangle 843" class="cls-16" d="M4,0H28V8H4A4,4,0,0,1,0,4H0A4,4,0,0,1,4,0Z" transform="translate(1145 2540)"/>
      <path id="Rectangle_845" data-name="Rectangle 845" class="cls-33" d="M0,0H28V8H0Z" transform="translate(1201 2540)"/>
      <path id="Rectangle_844" data-name="Rectangle 844" class="cls-34" d="M0,0H28V8H0Z" transform="translate(1173 2540)"/>
      <path id="Rectangle_846" data-name="Rectangle 846" class="cls-16" d="M0,0H24a4,4,0,0,1,4,4h0a4,4,0,0,1-4,4H0Z" transform="translate(1229 2540)"/>
      <path id="Rectangle_848" data-name="Rectangle 848" class="cls-32" d="M2,0H33a2,2,0,0,1,2,2V6a2,2,0,0,1-2,2H2A2,2,0,0,1,0,6V2A2,2,0,0,1,2,0Z" transform="translate(1281 2540)"/>
      <path id="Rectangle_849" data-name="Rectangle 849" class="cls-32" d="M2,0H33a2,2,0,0,1,2,2V6a2,2,0,0,1-2,2H2A2,2,0,0,1,0,6V2A2,2,0,0,1,2,0Z" transform="translate(1324 2540)"/>
      <path id="Rectangle_850" data-name="Rectangle 850" class="cls-32" d="M2,0H33a2,2,0,0,1,2,2V6a2,2,0,0,1-2,2H2A2,2,0,0,1,0,6V2A2,2,0,0,1,2,0Z" transform="translate(1367 2540)"/>
      <path id="Rectangle_853" data-name="Rectangle 853" class="cls-32" d="M4,0h7a4,4,0,0,1,0,8H4A4,4,0,0,1,4,0Z" transform="translate(1422 2540)"/>
      <g id="Rectangle_840-2" data-name="Rectangle 840" class="cls-9" transform="translate(860 2576)">
        <path class="cls-43" d="M0,0H602V66H0Z"/>
        <path class="cls-44" d="M 1 1 L 1 65 L 601 65 L 601 1 L 1 1 M 0 0 L 602 0 L 602 66 L 0 66 L 0 0 Z"/>
      </g>
      <path id="Ellipse_95-2" data-name="Ellipse 95" class="cls-11" d="M18,0A18,18,0,1,1,0,18,18,18,0,0,1,18,0Z" transform="translate(880 2591)"/>
      <g id="Ellipse_96-2" data-name="Ellipse 96" class="cls-31" transform="translate(904 2617)">
        <path class="cls-43" d="M 5 9 C 2.794389963150024 9 1 7.205609798431396 1 5 C 1 2.794389963150024 2.794389963150024 1 5 1 C 7.205609798431396 1 9 2.794389963150024 9 5 C 9 7.205609798431396 7.205609798431396 9 5 9 Z"/>
        <path class="cls-45" d="M 5 2 C 3.345789909362793 2 2 3.345789909362793 2 5 C 2 6.654210090637207 3.345789909362793 8 5 8 C 6.654210090637207 8 8 6.654210090637207 8 5 C 8 3.345789909362793 6.654210090637207 2 5 2 M 5 0 C 7.761420249938965 0 10 2.238580226898193 10 5 C 10 7.761420249938965 7.761420249938965 10 5 10 C 2.238580226898193 10 0 7.761420249938965 0 5 C 0 2.238580226898193 2.238580226898193 0 5 0 Z"/>
      </g>
      <path id="Rectangle_841-2" data-name="Rectangle 841" class="cls-32" d="M4,0H98a4,4,0,0,1,0,8H4A4,4,0,0,1,4,0Z" transform="translate(926 2605)"/>
      <path id="Rectangle_842-2" data-name="Rectangle 842" class="cls-32" d="M4,0H49a4,4,0,0,1,0,8H4A4,4,0,0,1,4,0Z" transform="translate(1065 2605)"/>
      <path id="Rectangle_843-2" data-name="Rectangle 843" class="cls-16" d="M4,0H28V8H4A4,4,0,0,1,0,4H0A4,4,0,0,1,4,0Z" transform="translate(1145 2605)"/>
      <path id="Rectangle_845-2" data-name="Rectangle 845" class="cls-33" d="M0,0H28V8H0Z" transform="translate(1201 2605)"/>
      <path id="Rectangle_844-2" data-name="Rectangle 844" class="cls-34" d="M0,0H28V8H0Z" transform="translate(1173 2605)"/>
      <path id="Rectangle_846-2" data-name="Rectangle 846" class="cls-35" d="M0,0H24a4,4,0,0,1,4,4h0a4,4,0,0,1-4,4H0Z" transform="translate(1229 2605)"/>
      <path id="Rectangle_848-2" data-name="Rectangle 848" class="cls-32" d="M2,0H33a2,2,0,0,1,2,2V6a2,2,0,0,1-2,2H2A2,2,0,0,1,0,6V2A2,2,0,0,1,2,0Z" transform="translate(1281 2605)"/>
      <path id="Rectangle_849-2" data-name="Rectangle 849" class="cls-32" d="M2,0H33a2,2,0,0,1,2,2V6a2,2,0,0,1-2,2H2A2,2,0,0,1,0,6V2A2,2,0,0,1,2,0Z" transform="translate(1324 2605)"/>
      <path id="Rectangle_850-2" data-name="Rectangle 850" class="cls-32" d="M2,0H33a2,2,0,0,1,2,2V6a2,2,0,0,1-2,2H2A2,2,0,0,1,0,6V2A2,2,0,0,1,2,0Z" transform="translate(1367 2605)"/>
      <path id="Rectangle_853-2" data-name="Rectangle 853" class="cls-32" d="M4,0h7a4,4,0,0,1,0,8H4A4,4,0,0,1,4,0Z" transform="translate(1422 2605)"/>
      <path id="Ellipse_70" data-name="Ellipse 70" class="cls-36" d="M1,0A.928.928,0,0,1,2,.833a.928.928,0,0,1-1,.833A.928.928,0,0,1,0,.833.928.928,0,0,1,1,0Z" transform="translate(1433 2480.167)"/>
      <path id="Ellipse_71" data-name="Ellipse 71" class="cls-36" d="M1,0A.928.928,0,0,1,2,.833a.928.928,0,0,1-1,.833A.928.928,0,0,1,0,.833.928.928,0,0,1,1,0Z" transform="translate(1433 2475)"/>
      <path id="Ellipse_72" data-name="Ellipse 72" class="cls-36" d="M1,0A.928.928,0,0,1,2,.833a.928.928,0,0,1-1,.833A.928.928,0,0,1,0,.833.928.928,0,0,1,1,0Z" transform="translate(1433 2485.334)"/>
      <g class="cls-49" transform="matrix(1, 0, 0, 1, 814.5, 2316.5)">
        <g id="Path_1981-2" data-name="Path 1981" class="cls-9" transform="translate(597.5 138.5)">
          <path class="cls-43" d="M25,0A25,25,0,1,1,0,25,25,25,0,0,1,25,0Z"/>
          <path class="cls-44" d="M 25 2 C 21.89414024353027 2 18.88224029541016 2.607841491699219 16.04798126220703 3.806629180908203 C 13.30939102172852 4.964958190917969 10.84946823120117 6.623619079589844 8.736541748046875 8.736541748046875 C 6.623619079589844 10.84946823120117 4.964958190917969 13.30939102172852 3.806629180908203 16.04798126220703 C 2.607841491699219 18.88224029541016 2 21.89414024353027 2 25 C 2 28.10585975646973 2.607841491699219 31.11775970458984 3.806629180908203 33.95201873779297 C 4.964958190917969 36.69060897827148 6.623619079589844 39.15052795410156 8.736541748046875 41.26345825195312 C 10.84946823120117 43.37638092041016 13.30939102172852 45.03504180908203 16.04798126220703 46.1933708190918 C 18.88224029541016 47.39215850830078 21.89414024353027 48 25 48 C 28.10585975646973 48 31.11775970458984 47.39215850830078 33.95201873779297 46.1933708190918 C 36.69060897827148 45.03504180908203 39.15052795410156 43.37638092041016 41.26345825195312 41.26345825195312 C 43.37638092041016 39.15052795410156 45.03504180908203 36.69060897827148 46.1933708190918 33.95201873779297 C 47.39215850830078 31.11775970458984 48 28.10585975646973 48 25 C 48 21.89414024353027 47.39215850830078 18.88224029541016 46.1933708190918 16.04798126220703 C 45.03504180908203 13.30939102172852 43.37638092041016 10.84946823120117 41.26345825195312 8.736541748046875 C 39.15052795410156 6.623619079589844 36.69060897827148 4.964958190917969 33.95201873779297 3.806629180908203 C 31.11775970458984 2.607841491699219 28.10585975646973 2 25 2 M 25 0 C 38.80712127685547 0 50 11.19287872314453 50 25 C 50 38.80712127685547 38.80712127685547 50 25 50 C 11.19287872314453 50 0 38.80712127685547 0 25 C 0 11.19287872314453 11.19287872314453 0 25 0 Z"/>
        </g>
      </g>
      <g id="Mask_Group_304" data-name="Mask Group 304" class="cls-37" transform="translate(1293 2064)">
        <path id="Path_30" data-name="Path 30" class="cls-38" d="M9.681,3.227H3.406A1.793,1.793,0,0,0,1.614,5.02V17.571a1.793,1.793,0,0,0,1.793,1.793H15.958a1.793,1.793,0,0,0,1.793-1.793V11.3" transform="translate(133.282 405.656)"/>
        <path id="Path_31" data-name="Path 31" class="cls-38" d="M15.867,2.01c.743-.743,1.2,0,1.948.745s1.484,1.2.741,1.944L10.04,13.215l-3.585.9.9-3.585Z" transform="translate(133.821 405.527)"/>
      </g>
    </g>
    <g class="cls-48" transform="matrix(1, 0, 0, 1, -2061.5, 12891.5)">
      <path id="Path_1978-2" data-name="Path 1978" class="cls-1" d="M10,0H428a10,10,0,0,1,10,10V290a10,10,0,0,1-10,10H10A10,10,0,0,1,0,290V10A10,10,0,0,1,10,0Z" transform="translate(210.5 193.5)"/>
    </g>
    <path id="Path_1977" data-name="Path 1977" class="cls-39" d="M3.84,0V-4.86L-.08-13.08H2.4L3.82-9.74q.28.74.56,1.43t.6,1.45h.08q.32-.76.62-1.45t.58-1.43l1.42-3.34H10.1L6.16-4.86V0Zm10.7.24A4.647,4.647,0,0,1,12.78-.1a4.379,4.379,0,0,1-1.49-1,4.784,4.784,0,0,1-1.03-1.62A5.885,5.885,0,0,1,9.88-4.9a5.885,5.885,0,0,1,.38-2.18A4.784,4.784,0,0,1,11.29-8.7a4.506,4.506,0,0,1,1.49-1.01,4.531,4.531,0,0,1,1.76-.35,4.6,4.6,0,0,1,1.77.35A4.374,4.374,0,0,1,17.8-8.7a5,5,0,0,1,1.03,1.62,5.751,5.751,0,0,1,.39,2.18,5.751,5.751,0,0,1-.39,2.18A5,5,0,0,1,17.8-1.1a4.255,4.255,0,0,1-1.49,1A4.723,4.723,0,0,1,14.54.24Zm0-1.88a1.963,1.963,0,0,0,1.7-.89,4.072,4.072,0,0,0,.62-2.37,4.111,4.111,0,0,0-.62-2.39,1.963,1.963,0,0,0-1.7-.89,1.938,1.938,0,0,0-1.69.89,4.162,4.162,0,0,0-.61,2.39,4.122,4.122,0,0,0,.61,2.37A1.938,1.938,0,0,0,14.54-1.64ZM21.5,0V-14.12h2.26V-5.3h.06l3.64-4.52h2.52l-3.36,4L30.32,0h-2.5L25.3-4.26,23.76-2.5V0ZM34.18.24A1.946,1.946,0,0,1,32.44-.5a3.565,3.565,0,0,1-.5-2.02v-11.6h2.3V-2.4a.856.856,0,0,0,.16.59.466.466,0,0,0,.34.17h.15a.848.848,0,0,0,.21-.04L35.4.04A3.1,3.1,0,0,1,34.18.24Zm5.56,0a2.859,2.859,0,0,1-2.1-.79,2.806,2.806,0,0,1-.8-2.09,2.874,2.874,0,0,1,.33-1.39,2.845,2.845,0,0,1,1.04-1.05,6.906,6.906,0,0,1,1.8-.74,16.459,16.459,0,0,1,2.61-.46,3.706,3.706,0,0,0-.11-.73,1.678,1.678,0,0,0-.3-.62,1.4,1.4,0,0,0-.55-.42,2.081,2.081,0,0,0-.84-.15,3.719,3.719,0,0,0-1.41.28,9.482,9.482,0,0,0-1.35.68l-.84-1.54a9.838,9.838,0,0,1,1.84-.9,6.252,6.252,0,0,1,2.2-.38,3.378,3.378,0,0,1,2.75,1.09,4.8,4.8,0,0,1,.91,3.15V0h-1.9l-.16-1.08h-.08a7.215,7.215,0,0,1-1.41.94A3.555,3.555,0,0,1,39.74.24Zm.74-1.8a2.158,2.158,0,0,0,1.09-.28,5.852,5.852,0,0,0,1.05-.8v-2.2a10.5,10.5,0,0,0-1.68.32,4.856,4.856,0,0,0-1.1.45,1.6,1.6,0,0,0-.6.57,1.366,1.366,0,0,0-.18.68,1.122,1.122,0,0,0,.4.96A1.654,1.654,0,0,0,40.48-1.56ZM47.68,0V-9.82h1.9l.16,1.34h.08A6.89,6.89,0,0,1,51.17-9.6a3.03,3.03,0,0,1,1.65-.46,2.937,2.937,0,0,1,1.73.46,2.856,2.856,0,0,1,.99,1.3A7.9,7.9,0,0,1,57-9.56a3.026,3.026,0,0,1,1.7-.5A2.661,2.661,0,0,1,61-9.05a4.832,4.832,0,0,1,.74,2.89V0H59.42V-5.86a2.989,2.989,0,0,0-.37-1.72,1.314,1.314,0,0,0-1.13-.5,3.093,3.093,0,0,0-2.06,1.22V0h-2.3V-5.86a2.989,2.989,0,0,0-.37-1.72,1.336,1.336,0,0,0-1.15-.5,3.093,3.093,0,0,0-2.06,1.22V0ZM66.92.24a2.859,2.859,0,0,1-2.1-.79,2.806,2.806,0,0,1-.8-2.09,2.874,2.874,0,0,1,.33-1.39,2.845,2.845,0,0,1,1.04-1.05,6.906,6.906,0,0,1,1.8-.74,16.459,16.459,0,0,1,2.61-.46,3.707,3.707,0,0,0-.11-.73,1.678,1.678,0,0,0-.3-.62,1.4,1.4,0,0,0-.55-.42A2.081,2.081,0,0,0,68-8.2a3.719,3.719,0,0,0-1.41.28,9.482,9.482,0,0,0-1.35.68L64.4-8.78a9.838,9.838,0,0,1,1.84-.9,6.252,6.252,0,0,1,2.2-.38,3.378,3.378,0,0,1,2.75,1.09,4.8,4.8,0,0,1,.91,3.15V0H70.2l-.16-1.08h-.08a7.215,7.215,0,0,1-1.41.94A3.555,3.555,0,0,1,66.92.24Zm.74-1.8a2.158,2.158,0,0,0,1.09-.28,5.852,5.852,0,0,0,1.05-.8v-2.2a10.5,10.5,0,0,0-1.68.32,4.856,4.856,0,0,0-1.1.45,1.6,1.6,0,0,0-.6.57,1.366,1.366,0,0,0-.18.68,1.122,1.122,0,0,0,.4.96A1.654,1.654,0,0,0,67.66-1.56ZM79.06,0V-13.08h2.38l4.08,7.36,1.34,2.78h.08q-.08-1.02-.19-2.19T86.64-7.4v-5.68h2.22V0H86.48L82.4-7.36l-1.34-2.78h-.08q.08,1.04.19,2.18t.11,2.24V0ZM96,.24A4.647,4.647,0,0,1,94.24-.1a4.379,4.379,0,0,1-1.49-1,4.784,4.784,0,0,1-1.03-1.62,5.885,5.885,0,0,1-.38-2.18,5.885,5.885,0,0,1,.38-2.18A4.784,4.784,0,0,1,92.75-8.7a4.506,4.506,0,0,1,1.49-1.01A4.531,4.531,0,0,1,96-10.06a4.6,4.6,0,0,1,1.77.35A4.374,4.374,0,0,1,99.26-8.7a5,5,0,0,1,1.03,1.62,5.751,5.751,0,0,1,.39,2.18,5.751,5.751,0,0,1-.39,2.18A5,5,0,0,1,99.26-1.1a4.255,4.255,0,0,1-1.49,1A4.723,4.723,0,0,1,96,.24Zm0-1.88a1.963,1.963,0,0,0,1.7-.89,4.072,4.072,0,0,0,.62-2.37,4.111,4.111,0,0,0-.62-2.39A1.963,1.963,0,0,0,96-8.18a1.938,1.938,0,0,0-1.69.89A4.162,4.162,0,0,0,93.7-4.9a4.122,4.122,0,0,0,.61,2.37A1.938,1.938,0,0,0,96-1.64ZM105.98.24a3.593,3.593,0,0,1-1.45-.26,2.458,2.458,0,0,1-.96-.73,3.022,3.022,0,0,1-.54-1.12,5.732,5.732,0,0,1-.17-1.45V-8h-1.4V-9.72l1.52-.1.28-2.68h1.92v2.68h2.5V-8h-2.5v4.68q0,1.72,1.38,1.72a2.439,2.439,0,0,0,.53-.06,2.485,2.485,0,0,0,.49-.16l.4,1.7a7.655,7.655,0,0,1-.91.25A5.163,5.163,0,0,1,105.98.24Zm6.68,0a2.629,2.629,0,0,1-2.3-1.01,4.934,4.934,0,0,1-.72-2.89V-9.82h2.3v5.86a3.056,3.056,0,0,0,.36,1.72,1.331,1.331,0,0,0,1.16.5,2.02,2.02,0,0,0,1.13-.32,4.62,4.62,0,0,0,1.05-1.04V-9.82h2.3V0h-1.88l-.18-1.44h-.06a5.77,5.77,0,0,1-1.39,1.22A3.318,3.318,0,0,1,112.66.24Zm17.88,0a6.694,6.694,0,0,1-2.45-.44,5.426,5.426,0,0,1-1.96-1.3,5.937,5.937,0,0,1-1.29-2.12,8.367,8.367,0,0,1-.46-2.88,8.072,8.072,0,0,1,.48-2.87,6.373,6.373,0,0,1,1.31-2.15,5.527,5.527,0,0,1,1.96-1.34,6.383,6.383,0,0,1,2.43-.46,5.042,5.042,0,0,1,2.37.51,6.224,6.224,0,0,1,1.59,1.15l-1.24,1.5a5.1,5.1,0,0,0-1.11-.81,3.189,3.189,0,0,0-1.53-.33,3.728,3.728,0,0,0-1.59.33,3.492,3.492,0,0,0-1.22.94,4.348,4.348,0,0,0-.79,1.49,6.516,6.516,0,0,0-.28,1.98,5.5,5.5,0,0,0,1.01,3.51,3.59,3.59,0,0,0,2.99,1.27,3.67,3.67,0,0,0,1.06-.15,2.176,2.176,0,0,0,.82-.43V-5.18h-2.48v-1.9h4.56v5.76a5.3,5.3,0,0,1-1.75,1.11A6.312,6.312,0,0,1,130.54.24ZM137.42,0V-9.82h2.3V0Zm1.16-11.54a1.467,1.467,0,0,1-1.02-.36,1.205,1.205,0,0,1-.4-.94,1.236,1.236,0,0,1,.4-.95,1.443,1.443,0,0,1,1.02-.37,1.443,1.443,0,0,1,1.02.37,1.236,1.236,0,0,1,.4.95,1.205,1.205,0,0,1-.4.94A1.467,1.467,0,0,1,138.58-11.54ZM142.66,0V-9.82h1.9l.16,1.74h.08a4.122,4.122,0,0,1,1.26-1.47,2.648,2.648,0,0,1,1.52-.51,2.632,2.632,0,0,1,1.12.2l-.4,2a4.2,4.2,0,0,0-.48-.12,3.082,3.082,0,0,0-.54-.04,2.143,2.143,0,0,0-1.22.45A3.476,3.476,0,0,0,144.96-6V0Zm7.46,0V-9.82h2.3V0Zm1.16-11.54a1.467,1.467,0,0,1-1.02-.36,1.205,1.205,0,0,1-.4-.94,1.236,1.236,0,0,1,.4-.95,1.443,1.443,0,0,1,1.02-.37,1.443,1.443,0,0,1,1.02.37,1.236,1.236,0,0,1,.4.95,1.205,1.205,0,0,1-.4.94A1.467,1.467,0,0,1,151.28-11.54ZM155.36,0V-9.82h1.9l.16,1.32h.08a7.785,7.785,0,0,1,1.43-1.1,3.423,3.423,0,0,1,1.79-.46,2.629,2.629,0,0,1,2.3,1.01,4.934,4.934,0,0,1,.72,2.89V0h-2.3V-5.86a3.056,3.056,0,0,0-.36-1.72,1.354,1.354,0,0,0-1.18-.5,2.068,2.068,0,0,0-1.13.31,7.21,7.21,0,0,0-1.11.91V0Zm11.2,0V-9.82h2.3V0Zm1.16-11.54a1.467,1.467,0,0,1-1.02-.36,1.205,1.205,0,0,1-.4-.94,1.236,1.236,0,0,1,.4-.95,1.443,1.443,0,0,1,1.02-.37,1.443,1.443,0,0,1,1.02.37,1.236,1.236,0,0,1,.4.95,1.205,1.205,0,0,1-.4.94A1.467,1.467,0,0,1,167.72-11.54ZM171.02,0V-1.24L175.66-8h-4.12V-9.82h7V-8.6l-4.62,6.76h4.78V0Z" transform="translate(-1721 13205)"/>
    <path id="Path_1976" data-name="Path 1976" class="cls-39" d="M5.392.192A4.567,4.567,0,0,1,3.52-.184,4.053,4.053,0,0,1,2.064-1.272a5.1,5.1,0,0,1-.944-1.72A7.219,7.219,0,0,1,.784-5.28,7.089,7.089,0,0,1,1.12-7.544a4.842,4.842,0,0,1,.944-1.688A4.094,4.094,0,0,1,3.52-10.288a4.653,4.653,0,0,1,1.872-.368,4.653,4.653,0,0,1,1.872.368A4.171,4.171,0,0,1,8.728-9.232,4.772,4.772,0,0,1,9.68-7.544a7.089,7.089,0,0,1,.336,2.264A7.219,7.219,0,0,1,9.68-2.992a5.02,5.02,0,0,1-.952,1.72A4.128,4.128,0,0,1,7.264-.184,4.567,4.567,0,0,1,5.392.192Zm0-1.616A2.29,2.29,0,0,0,6.512-1.7a2.494,2.494,0,0,0,.848-.776A3.862,3.862,0,0,0,7.9-3.688,6.115,6.115,0,0,0,8.1-5.28a4.61,4.61,0,0,0-.728-2.76,2.317,2.317,0,0,0-1.976-1,2.317,2.317,0,0,0-1.976,1,4.61,4.61,0,0,0-.728,2.76A6.115,6.115,0,0,0,2.88-3.688a3.862,3.862,0,0,0,.544,1.216,2.494,2.494,0,0,0,.848.776A2.29,2.29,0,0,0,5.392-1.424Zm9.3,4.9a6.25,6.25,0,0,1-1.3-.128,3.409,3.409,0,0,1-1.032-.384,2.014,2.014,0,0,1-.68-.64,1.615,1.615,0,0,1-.248-.9A1.6,1.6,0,0,1,11.712.5a2.693,2.693,0,0,1,.832-.76V-.32a1.6,1.6,0,0,1-.5-.512,1.483,1.483,0,0,1-.2-.8,1.428,1.428,0,0,1,.264-.84,2.541,2.541,0,0,1,.6-.616v-.064a2.811,2.811,0,0,1-.712-.84,2.42,2.42,0,0,1-.312-1.24,2.716,2.716,0,0,1,.256-1.2,2.685,2.685,0,0,1,.68-.888,2.9,2.9,0,0,1,.984-.544,3.769,3.769,0,0,1,1.184-.184,3.308,3.308,0,0,1,.616.056,4.125,4.125,0,0,1,.536.136h2.816V-6.5h-1.44a1.862,1.862,0,0,1,.32.568,2.164,2.164,0,0,1,.128.76,2.692,2.692,0,0,1-.232,1.152,2.4,2.4,0,0,1-.632.832,2.78,2.78,0,0,1-.944.512,3.773,3.773,0,0,1-1.168.176,3.037,3.037,0,0,1-.528-.048,2.625,2.625,0,0,1-.544-.16,1.67,1.67,0,0,0-.28.32.785.785,0,0,0-.1.432.607.607,0,0,0,.28.528,1.874,1.874,0,0,0,1,.192H16a4.1,4.1,0,0,1,2.152.456A1.613,1.613,0,0,1,18.88.7a2.14,2.14,0,0,1-.3,1.088,2.687,2.687,0,0,1-.84.88,4.49,4.49,0,0,1-1.32.584A6.472,6.472,0,0,1,14.688,3.472Zm.1-7.12a1.3,1.3,0,0,0,.96-.408,1.611,1.611,0,0,0,.4-1.176,1.584,1.584,0,0,0-.392-1.144,1.289,1.289,0,0,0-.968-.408,1.328,1.328,0,0,0-.976.4,1.559,1.559,0,0,0-.4,1.152,1.611,1.611,0,0,0,.4,1.176A1.315,1.315,0,0,0,14.784-3.648Zm.192,5.92A2.816,2.816,0,0,0,16.52,1.9a1.066,1.066,0,0,0,.584-.888.616.616,0,0,0-.36-.624,2.626,2.626,0,0,0-1.032-.16H14.64A4.348,4.348,0,0,1,13.568.112a1.312,1.312,0,0,0-.608,1.04.909.909,0,0,0,.536.824A3.084,3.084,0,0,0,14.976,2.272Zm.192-11.408a2.989,2.989,0,0,1-1.152-.2,2.184,2.184,0,0,1-.792-.544,2.335,2.335,0,0,1-.472-.792,3.453,3.453,0,0,1-.192-.944l1.088-.176a2.723,2.723,0,0,0,.152.552,1.408,1.408,0,0,0,.3.464,1.582,1.582,0,0,0,.456.328,1.4,1.4,0,0,0,.616.128,1.4,1.4,0,0,0,.616-.128,1.582,1.582,0,0,0,.456-.328,1.408,1.408,0,0,0,.3-.464,2.723,2.723,0,0,0,.152-.552l1.088.176a3.454,3.454,0,0,1-.192.944,2.335,2.335,0,0,1-.472.792,2.184,2.184,0,0,1-.792.544A2.989,2.989,0,0,1,15.168-9.136ZM22.608.192a2.1,2.1,0,0,1-1.84-.808,3.947,3.947,0,0,1-.576-2.312V-7.856h1.84v4.688a2.445,2.445,0,0,0,.288,1.376,1.065,1.065,0,0,0,.928.4,1.616,1.616,0,0,0,.9-.256,3.7,3.7,0,0,0,.84-.832V-7.856h1.84V0h-1.5l-.144-1.152h-.048a4.616,4.616,0,0,1-1.112.976A2.655,2.655,0,0,1,22.608.192ZM28.544,0V-.992L32.256-6.4h-3.3V-7.856h5.6v.976l-3.7,5.408h3.824V0Zm7.712,0V-11.3H38.1v2.912l-.064,1.52a6.473,6.473,0,0,1,1.1-.824,2.7,2.7,0,0,1,1.416-.36,2.1,2.1,0,0,1,1.84.808,3.947,3.947,0,0,1,.576,2.312V0H41.12V-4.688a2.445,2.445,0,0,0-.288-1.376,1.084,1.084,0,0,0-.944-.4,1.655,1.655,0,0,0-.9.248,5.767,5.767,0,0,0-.888.728V0ZM47.088.192a2.288,2.288,0,0,1-1.68-.632,2.245,2.245,0,0,1-.64-1.672,2.3,2.3,0,0,1,.264-1.112,2.276,2.276,0,0,1,.832-.84,5.525,5.525,0,0,1,1.44-.592,13.167,13.167,0,0,1,2.088-.368,2.965,2.965,0,0,0-.088-.584,1.342,1.342,0,0,0-.24-.5,1.116,1.116,0,0,0-.44-.336,1.665,1.665,0,0,0-.672-.12,2.975,2.975,0,0,0-1.128.224,7.586,7.586,0,0,0-1.08.544l-.672-1.232a7.87,7.87,0,0,1,1.472-.72,5,5,0,0,1,1.76-.3,2.7,2.7,0,0,1,2.2.872,3.837,3.837,0,0,1,.728,2.52V0h-1.52l-.128-.864H49.52a5.772,5.772,0,0,1-1.128.752A2.844,2.844,0,0,1,47.088.192Zm.592-1.44a1.726,1.726,0,0,0,.872-.224,4.682,4.682,0,0,0,.84-.64v-1.76a8.4,8.4,0,0,0-1.344.256,3.885,3.885,0,0,0-.88.36,1.283,1.283,0,0,0-.48.456,1.093,1.093,0,0,0-.144.544.9.9,0,0,0,.32.768A1.323,1.323,0,0,0,47.68-1.248ZM53.44,0V-7.856h1.52L55.088-6.8h.064A6.228,6.228,0,0,1,56.3-7.68a2.739,2.739,0,0,1,1.432-.368,2.1,2.1,0,0,1,1.84.808,3.947,3.947,0,0,1,.576,2.312V0H58.3V-4.688a2.445,2.445,0,0,0-.288-1.376,1.084,1.084,0,0,0-.944-.4,1.655,1.655,0,0,0-.9.248,5.767,5.767,0,0,0-.888.728V0ZM65.76,0V-10.464h2.8a5.171,5.171,0,0,1,3.744,1.3A5.166,5.166,0,0,1,73.648-5.28,6.974,6.974,0,0,1,73.3-2.992a4.389,4.389,0,0,1-.992,1.656,4.142,4.142,0,0,1-1.568,1A6.06,6.06,0,0,1,68.656,0Zm1.856-1.5h.816a3.19,3.19,0,0,0,2.456-.92,4.082,4.082,0,0,0,.856-2.856,3.877,3.877,0,0,0-.864-2.8,3.276,3.276,0,0,0-2.448-.88h-.816ZM78.96.192a4.075,4.075,0,0,1-1.52-.28A3.609,3.609,0,0,1,76.208-.9a3.686,3.686,0,0,1-.824-1.288,4.757,4.757,0,0,1-.3-1.736,4.662,4.662,0,0,1,.3-1.728,3.964,3.964,0,0,1,.808-1.3,3.58,3.58,0,0,1,1.16-.816A3.312,3.312,0,0,1,78.7-8.048a3.418,3.418,0,0,1,1.408.272,2.747,2.747,0,0,1,1.016.768,3.378,3.378,0,0,1,.616,1.184,5.178,5.178,0,0,1,.208,1.5q0,.272-.024.512a3.411,3.411,0,0,1-.056.384H76.88A2.537,2.537,0,0,0,77.624-1.8a2.234,2.234,0,0,0,1.576.568,2.9,2.9,0,0,0,.952-.152,4.231,4.231,0,0,0,.872-.424l.624,1.152A5.65,5.65,0,0,1,80.4-.048,4.34,4.34,0,0,1,78.96.192Zm-2.1-4.864h3.488A2.33,2.33,0,0,0,79.96-6.1a1.415,1.415,0,0,0-1.208-.52,1.743,1.743,0,0,0-1.232.5A2.352,2.352,0,0,0,76.864-4.672ZM83.712,0V-7.856h1.52l.128,1.072h.064a5.512,5.512,0,0,1,1.08-.9,2.424,2.424,0,0,1,1.32-.368,2.35,2.35,0,0,1,1.384.368A2.285,2.285,0,0,1,90-6.64a6.32,6.32,0,0,1,1.168-1.008,2.421,2.421,0,0,1,1.36-.4,2.129,2.129,0,0,1,1.84.808,3.866,3.866,0,0,1,.592,2.312V0H93.1V-4.688a2.391,2.391,0,0,0-.3-1.376,1.051,1.051,0,0,0-.9-.4,2.474,2.474,0,0,0-1.648.976V0h-1.84V-4.688a2.391,2.391,0,0,0-.3-1.376,1.069,1.069,0,0,0-.92-.4,2.474,2.474,0,0,0-1.648.976V0ZM97.2,0V-7.856h1.84V0Zm.928-9.232a1.174,1.174,0,0,1-.816-.288.964.964,0,0,1-.32-.752.989.989,0,0,1,.32-.76,1.155,1.155,0,0,1,.816-.3,1.155,1.155,0,0,1,.816.3.989.989,0,0,1,.32.76.964.964,0,0,1-.32.752A1.174,1.174,0,0,1,98.128-9.232ZM101.392,0V-7.856h1.52l.128,1.392h.064a3.3,3.3,0,0,1,1.008-1.176,2.119,2.119,0,0,1,1.216-.408,2.105,2.105,0,0,1,.9.16l-.32,1.6a3.359,3.359,0,0,0-.384-.1,2.466,2.466,0,0,0-.432-.032,1.714,1.714,0,0,0-.976.36,2.781,2.781,0,0,0-.88,1.256V0Zm9.024.192a3.718,3.718,0,0,1-1.408-.272,3.5,3.5,0,0,1-1.192-.8,3.827,3.827,0,0,1-.824-1.3,4.708,4.708,0,0,1-.3-1.744,4.708,4.708,0,0,1,.3-1.744,3.827,3.827,0,0,1,.824-1.3,3.6,3.6,0,0,1,1.192-.808,3.625,3.625,0,0,1,1.408-.28,3.684,3.684,0,0,1,1.416.28,3.5,3.5,0,0,1,1.192.808,4,4,0,0,1,.824,1.3,4.6,4.6,0,0,1,.312,1.744,4.6,4.6,0,0,1-.312,1.744,4,4,0,0,1-.824,1.3,3.4,3.4,0,0,1-1.192.8A3.778,3.778,0,0,1,110.416.192Zm0-1.5a1.57,1.57,0,0,0,1.36-.712,3.257,3.257,0,0,0,.5-1.9,3.289,3.289,0,0,0-.5-1.912,1.57,1.57,0,0,0-1.36-.712,1.551,1.551,0,0,0-1.352.712,3.33,3.33,0,0,0-.488,1.912,3.3,3.3,0,0,0,.488,1.9A1.551,1.551,0,0,0,110.416-1.312Zm-1.648-7.936a.945.945,0,0,1-.7-.28.945.945,0,0,1-.28-.7.945.945,0,0,1,.28-.7.945.945,0,0,1,.7-.28.938.938,0,0,1,.7.28.96.96,0,0,1,.272.7.96.96,0,0,1-.272.7A.938.938,0,0,1,108.768-9.248Zm3.3,0a.938.938,0,0,1-.7-.28.959.959,0,0,1-.272-.7.959.959,0,0,1,.272-.7.938.938,0,0,1,.7-.28.945.945,0,0,1,.7.28.945.945,0,0,1,.28.7.945.945,0,0,1-.28.7A.945.945,0,0,1,112.064-9.248ZM115.2,0V-.992L118.912-6.4h-3.3V-7.856h5.6v.976l-3.7,5.408h3.824V0Zm12.848.192a2.354,2.354,0,0,1-1.624-.576,2.069,2.069,0,0,1-.648-1.632,2.159,2.159,0,0,1,1.136-1.96,9.381,9.381,0,0,1,3.632-.952,3.583,3.583,0,0,0-.072-.72,1.8,1.8,0,0,0-.248-.624,1.3,1.3,0,0,0-.488-.44,1.66,1.66,0,0,0-.792-.168,3.15,3.15,0,0,0-1.264.256,6.166,6.166,0,0,0-1.056.576l-.512-.912a8.49,8.49,0,0,1,1.328-.68,4.434,4.434,0,0,1,1.728-.328,2.389,2.389,0,0,1,2.064.872,3.848,3.848,0,0,1,.64,2.328V0h-1.088l-.112-.928h-.048a6.579,6.579,0,0,1-1.2.792A2.974,2.974,0,0,1,128.048.192Zm.384-1.056a2.215,2.215,0,0,0,1.056-.264,5.293,5.293,0,0,0,1.056-.776v-2.16a13.273,13.273,0,0,0-1.64.3,4.323,4.323,0,0,0-1.072.416,1.613,1.613,0,0,0-.592.552,1.315,1.315,0,0,0-.184.68,1.1,1.1,0,0,0,.4.96A1.626,1.626,0,0,0,128.432-.864ZM136.976.192a2.883,2.883,0,0,1-2.344-1.056,4.606,4.606,0,0,1-.872-3.008,4.9,4.9,0,0,1,.28-1.7,4.046,4.046,0,0,1,.744-1.288,3.3,3.3,0,0,1,1.072-.816,2.954,2.954,0,0,1,1.28-.288,2.655,2.655,0,0,1,1.168.24,5.218,5.218,0,0,1,1.008.656L139.248-8.4v-2.992h1.328V0h-1.088l-.112-.912h-.048a4.918,4.918,0,0,1-1.064.776A2.644,2.644,0,0,1,136.976.192Zm.288-1.1a2.092,2.092,0,0,0,1.024-.264,3.683,3.683,0,0,0,.96-.808V-6.048a3.305,3.305,0,0,0-.952-.632,2.48,2.48,0,0,0-.936-.184,1.836,1.836,0,0,0-.872.216,2.2,2.2,0,0,0-.712.608,3.038,3.038,0,0,0-.48.936,3.938,3.938,0,0,0-.176,1.216,3.722,3.722,0,0,0,.56,2.192A1.832,1.832,0,0,0,137.264-.912Zm7.328,1.1a1.227,1.227,0,0,1-1.072-.448,2.247,2.247,0,0,1-.32-1.312v-9.824h1.312v9.92a.687.687,0,0,0,.112.448.333.333,0,0,0,.256.128H145a.678.678,0,0,0,.168-.032l.176.992a1.132,1.132,0,0,1-.3.1A2.579,2.579,0,0,1,144.592.192ZM147.28,0V-7.776h1.312V0Zm10.16.192a3.5,3.5,0,0,1-1.368-.272,3.369,3.369,0,0,1-1.144-.792,3.856,3.856,0,0,1-.792-1.28,4.709,4.709,0,0,1-.3-1.72,4.757,4.757,0,0,1,.3-1.736,3.949,3.949,0,0,1,.792-1.288,3.319,3.319,0,0,1,1.144-.8,3.5,3.5,0,0,1,1.368-.272,3.5,3.5,0,0,1,1.368.272,3.319,3.319,0,0,1,1.144.8,3.949,3.949,0,0,1,.792,1.288,4.757,4.757,0,0,1,.3,1.736,4.709,4.709,0,0,1-.3,1.72,3.856,3.856,0,0,1-.792,1.28,3.369,3.369,0,0,1-1.144.792A3.5,3.5,0,0,1,157.44.192Zm0-1.088a1.949,1.949,0,0,0,.912-.216,2.1,2.1,0,0,0,.712-.608,2.89,2.89,0,0,0,.456-.936,4.3,4.3,0,0,0,.16-1.216,4.388,4.388,0,0,0-.16-1.224,2.978,2.978,0,0,0-.456-.952,2.063,2.063,0,0,0-.712-.616,1.949,1.949,0,0,0-.912-.216,1.949,1.949,0,0,0-.912.216,2.063,2.063,0,0,0-.712.616,2.978,2.978,0,0,0-.456.952,4.388,4.388,0,0,0-.16,1.224,4.3,4.3,0,0,0,.16,1.216,2.89,2.89,0,0,0,.456.936,2.1,2.1,0,0,0,.712.608A1.949,1.949,0,0,0,157.44-.9Zm-1.536-8.5a.765.765,0,0,1-.576-.232.787.787,0,0,1-.224-.568.787.787,0,0,1,.224-.568.765.765,0,0,1,.576-.232.746.746,0,0,1,.56.232.787.787,0,0,1,.224.568.787.787,0,0,1-.224.568A.746.746,0,0,1,155.9-9.392Zm3.072,0a.746.746,0,0,1-.56-.232.787.787,0,0,1-.224-.568.787.787,0,0,1,.224-.568.746.746,0,0,1,.56-.232.765.765,0,0,1,.576.232.787.787,0,0,1,.224.568.787.787,0,0,1-.224.568A.765.765,0,0,1,158.976-9.392Zm6.736,12.976a5.867,5.867,0,0,1-1.312-.136,3.191,3.191,0,0,1-1.016-.408,2.027,2.027,0,0,1-.656-.656,1.7,1.7,0,0,1-.232-.9,1.654,1.654,0,0,1,.3-.944,3.194,3.194,0,0,1,.832-.816V-.336a1.522,1.522,0,0,1-.488-.488,1.41,1.41,0,0,1-.2-.776,1.414,1.414,0,0,1,.272-.864,2.453,2.453,0,0,1,.576-.576V-3.1a3.182,3.182,0,0,1-.7-.856,2.42,2.42,0,0,1-.312-1.24,2.761,2.761,0,0,1,.232-1.152,2.6,2.6,0,0,1,.632-.872,2.788,2.788,0,0,1,.936-.552,3.319,3.319,0,0,1,1.128-.192,3.058,3.058,0,0,1,.6.056,3.606,3.606,0,0,1,.5.136h2.7v1.008h-1.6a2.243,2.243,0,0,1,.456.688,2.229,2.229,0,0,1,.184.912,2.748,2.748,0,0,1-.224,1.128,2.466,2.466,0,0,1-.608.848,2.784,2.784,0,0,1-.9.536,3.185,3.185,0,0,1-1.112.192,2.565,2.565,0,0,1-.592-.072,2.939,2.939,0,0,1-.576-.2,1.875,1.875,0,0,0-.352.392.945.945,0,0,0-.144.536.758.758,0,0,0,.288.608,1.775,1.775,0,0,0,1.088.24h1.5a3.8,3.8,0,0,1,2.04.44A1.561,1.561,0,0,1,169.648.9a2.089,2.089,0,0,1-.272,1.032,2.641,2.641,0,0,1-.784.856,4.111,4.111,0,0,1-1.24.584A5.762,5.762,0,0,1,165.712,3.584Zm0-6.928a1.575,1.575,0,0,0,.632-.128,1.628,1.628,0,0,0,.528-.368,1.661,1.661,0,0,0,.36-.584,2.213,2.213,0,0,0,.128-.776,1.789,1.789,0,0,0-.48-1.336,1.6,1.6,0,0,0-1.168-.472,1.6,1.6,0,0,0-1.168.472,1.789,1.789,0,0,0-.48,1.336,2.213,2.213,0,0,0,.128.776,1.662,1.662,0,0,0,.36.584,1.628,1.628,0,0,0,.528.368A1.575,1.575,0,0,0,165.712-3.344Zm.192,6.016a3.548,3.548,0,0,0,1.016-.136,2.822,2.822,0,0,0,.776-.352,1.65,1.65,0,0,0,.5-.5,1.122,1.122,0,0,0,.176-.592.771.771,0,0,0-.4-.752A2.6,2.6,0,0,0,166.8.128h-1.344q-.224,0-.488-.024a2.5,2.5,0,0,1-.52-.1,2.124,2.124,0,0,0-.608.64,1.344,1.344,0,0,0-.192.672,1.12,1.12,0,0,0,.6.992A3.163,3.163,0,0,0,165.9,2.672Zm.144-11.808a2.683,2.683,0,0,1-1.1-.208,2.137,2.137,0,0,1-.76-.552,2.4,2.4,0,0,1-.448-.776,3.362,3.362,0,0,1-.184-.88l.816-.128a2.724,2.724,0,0,0,.168.6,1.906,1.906,0,0,0,.328.536,1.564,1.564,0,0,0,.5.384,1.536,1.536,0,0,0,.68.144,1.536,1.536,0,0,0,.68-.144,1.564,1.564,0,0,0,.5-.384,1.906,1.906,0,0,0,.328-.536,2.724,2.724,0,0,0,.168-.6l.816.128a3.363,3.363,0,0,1-.184.88,2.328,2.328,0,0,1-.456.776,2.237,2.237,0,0,1-.76.552A2.627,2.627,0,0,1,166.048-9.136ZM171.152,0V-7.776h1.088l.112,1.408h.048a3.593,3.593,0,0,1,.968-1.168,2,2,0,0,1,1.24-.432,2.067,2.067,0,0,1,.832.16l-.256,1.152a2.959,2.959,0,0,0-.352-.1,2.089,2.089,0,0,0-.4-.032,1.742,1.742,0,0,0-1.032.4,3.183,3.183,0,0,0-.936,1.392V0ZM179.7.192a3.807,3.807,0,0,1-1.464-.28,3.47,3.47,0,0,1-1.184-.8,3.7,3.7,0,0,1-.792-1.272,4.761,4.761,0,0,1-.288-1.712,4.709,4.709,0,0,1,.3-1.72,4.025,4.025,0,0,1,.784-1.288,3.4,3.4,0,0,1,1.112-.808,3.132,3.132,0,0,1,1.3-.28,3.256,3.256,0,0,1,1.32.256,2.574,2.574,0,0,1,.976.736,3.377,3.377,0,0,1,.6,1.152,5.076,5.076,0,0,1,.208,1.5q0,.208-.008.408a1.972,1.972,0,0,1-.04.344h-5.248a3.037,3.037,0,0,0,.776,1.976,2.4,2.4,0,0,0,1.816.728,3.058,3.058,0,0,0,1.032-.168,4.566,4.566,0,0,0,.9-.44l.464.864a6.624,6.624,0,0,1-1.136.56A3.946,3.946,0,0,1,179.7.192Zm-2.448-4.7h4.16a2.785,2.785,0,0,0-.5-1.8,1.727,1.727,0,0,0-1.416-.616,2,2,0,0,0-.792.16,2.085,2.085,0,0,0-.68.472,2.587,2.587,0,0,0-.5.76A3.431,3.431,0,0,0,177.248-4.512ZM184.48,0V-7.776h1.088l.112,1.12h.048a6.335,6.335,0,0,1,1.176-.936,2.693,2.693,0,0,1,1.432-.376,2.09,2.09,0,0,1,1.8.768,3.8,3.8,0,0,1,.568,2.272V0h-1.312V-4.752a2.779,2.779,0,0,0-.352-1.592,1.287,1.287,0,0,0-1.12-.488,1.912,1.912,0,0,0-1.072.3,6.955,6.955,0,0,0-1.056.9V0ZM196.3.192a3.8,3.8,0,0,1-1.44-.272,3.235,3.235,0,0,1-1.16-.792,3.725,3.725,0,0,1-.768-1.28,4.951,4.951,0,0,1-.28-1.72,4.645,4.645,0,0,1,.3-1.736,3.911,3.911,0,0,1,.816-1.288,3.4,3.4,0,0,1,1.192-.8,3.82,3.82,0,0,1,1.432-.272,2.907,2.907,0,0,1,1.312.272,4.428,4.428,0,0,1,.96.64L198-6.192a3.294,3.294,0,0,0-.712-.5,1.82,1.82,0,0,0-.84-.192,2.217,2.217,0,0,0-.976.216,2.2,2.2,0,0,0-.768.616,3.053,3.053,0,0,0-.5.952,3.854,3.854,0,0,0-.184,1.224,3.938,3.938,0,0,0,.176,1.216,2.939,2.939,0,0,0,.488.936,2.158,2.158,0,0,0,.76.608,2.217,2.217,0,0,0,.976.216,2.173,2.173,0,0,0,1-.232,4.044,4.044,0,0,0,.824-.552l.576.88a4.165,4.165,0,0,1-1.168.728A3.49,3.49,0,0,1,196.3.192ZM200.528,0V-7.776h1.312V0Zm.672-9.376a.928.928,0,0,1-.648-.24.786.786,0,0,1-.264-.608.78.78,0,0,1,.264-.616.947.947,0,0,1,.648-.232.947.947,0,0,1,.648.232.78.78,0,0,1,.264.616.786.786,0,0,1-.264.608A.928.928,0,0,1,201.2-9.376ZM207.664,0V-7.776h1.312V0Zm.672-9.376a.928.928,0,0,1-.648-.24.786.786,0,0,1-.264-.608.78.78,0,0,1,.264-.616.947.947,0,0,1,.648-.232.947.947,0,0,1,.648.232.78.78,0,0,1,.264.616.786.786,0,0,1-.264.608A.928.928,0,0,1,208.336-9.376ZM214.672.192a3.8,3.8,0,0,1-1.44-.272,3.235,3.235,0,0,1-1.16-.792,3.725,3.725,0,0,1-.768-1.28,4.951,4.951,0,0,1-.28-1.72,4.645,4.645,0,0,1,.3-1.736,3.911,3.911,0,0,1,.816-1.288,3.4,3.4,0,0,1,1.192-.8,3.82,3.82,0,0,1,1.432-.272,2.907,2.907,0,0,1,1.312.272,4.428,4.428,0,0,1,.96.64l-.672.864a3.294,3.294,0,0,0-.712-.5,1.82,1.82,0,0,0-.84-.192,2.217,2.217,0,0,0-.976.216,2.2,2.2,0,0,0-.768.616,3.053,3.053,0,0,0-.5.952,3.854,3.854,0,0,0-.184,1.224,3.938,3.938,0,0,0,.176,1.216,2.939,2.939,0,0,0,.488.936,2.158,2.158,0,0,0,.76.608,2.217,2.217,0,0,0,.976.216,2.173,2.173,0,0,0,1-.232,4.044,4.044,0,0,0,.824-.552l.576.88a4.165,4.165,0,0,1-1.168.728A3.49,3.49,0,0,1,214.672.192Zm-1.424,3.424-.128-.64a4.23,4.23,0,0,0,1.376-.264.579.579,0,0,0,.368-.536.558.558,0,0,0-.272-.5,2.546,2.546,0,0,0-.96-.272l.7-1.456h.848l-.464,1.072a2.032,2.032,0,0,1,.864.384.928.928,0,0,1,.3.752,1.113,1.113,0,0,1-.68,1.048A5.018,5.018,0,0,1,213.248,3.616ZM218.9,0V-7.776h1.312V0Zm.672-9.376a.928.928,0,0,1-.648-.24.786.786,0,0,1-.264-.608.78.78,0,0,1,.264-.616.947.947,0,0,1,.648-.232.947.947,0,0,1,.648.232.78.78,0,0,1,.264.616.786.786,0,0,1-.264.608A.928.928,0,0,1,219.568-9.376ZM222.832,0V-7.776h1.088l.112,1.12h.048a6.335,6.335,0,0,1,1.176-.936,2.693,2.693,0,0,1,1.432-.376,2.09,2.09,0,0,1,1.8.768,3.8,3.8,0,0,1,.568,2.272V0h-1.312V-4.752a2.779,2.779,0,0,0-.352-1.592,1.287,1.287,0,0,0-1.12-.488,1.912,1.912,0,0,0-1.072.3,6.955,6.955,0,0,0-1.056.9V0Zm11.952,0V-7.776h1.088l.112,1.12h.048a6.335,6.335,0,0,1,1.176-.936,2.693,2.693,0,0,1,1.432-.376,2.09,2.09,0,0,1,1.8.768,3.8,3.8,0,0,1,.568,2.272V0H239.7V-4.752a2.779,2.779,0,0,0-.352-1.592,1.287,1.287,0,0,0-1.12-.488,1.912,1.912,0,0,0-1.072.3,6.955,6.955,0,0,0-1.056.9V0ZM246.56.192a3.5,3.5,0,0,1-1.368-.272,3.369,3.369,0,0,1-1.144-.792,3.856,3.856,0,0,1-.792-1.28,4.709,4.709,0,0,1-.3-1.72,4.757,4.757,0,0,1,.3-1.736,3.949,3.949,0,0,1,.792-1.288,3.319,3.319,0,0,1,1.144-.8,3.5,3.5,0,0,1,1.368-.272,3.5,3.5,0,0,1,1.368.272,3.319,3.319,0,0,1,1.144.8,3.949,3.949,0,0,1,.792,1.288,4.757,4.757,0,0,1,.3,1.736,4.709,4.709,0,0,1-.3,1.72,3.856,3.856,0,0,1-.792,1.28,3.369,3.369,0,0,1-1.144.792A3.5,3.5,0,0,1,246.56.192Zm0-1.088a1.949,1.949,0,0,0,.912-.216,2.1,2.1,0,0,0,.712-.608,2.89,2.89,0,0,0,.456-.936,4.3,4.3,0,0,0,.16-1.216,4.388,4.388,0,0,0-.16-1.224,2.978,2.978,0,0,0-.456-.952,2.063,2.063,0,0,0-.712-.616,1.949,1.949,0,0,0-.912-.216,1.949,1.949,0,0,0-.912.216,2.063,2.063,0,0,0-.712.616,2.978,2.978,0,0,0-.456.952,4.388,4.388,0,0,0-.16,1.224,4.3,4.3,0,0,0,.16,1.216,2.89,2.89,0,0,0,.456.936,2.1,2.1,0,0,0,.712.608A1.949,1.949,0,0,0,246.56-.9ZM254.384.192A2.538,2.538,0,0,1,253.336,0a1.8,1.8,0,0,1-.688-.528,2.057,2.057,0,0,1-.376-.816A4.649,4.649,0,0,1,252.16-2.4V-6.7h-1.152V-7.7l1.216-.08.16-2.176h1.1v2.176h2.1V-6.7h-2.1v4.32a1.981,1.981,0,0,0,.264,1.112,1.046,1.046,0,0,0,.936.392,1.744,1.744,0,0,0,.448-.064,3.413,3.413,0,0,0,.432-.144l.256.992a6.8,6.8,0,0,1-.7.2A3.256,3.256,0,0,1,254.384.192Zm8.784,3.392a5.867,5.867,0,0,1-1.312-.136,3.191,3.191,0,0,1-1.016-.408,2.027,2.027,0,0,1-.656-.656,1.7,1.7,0,0,1-.232-.9,1.654,1.654,0,0,1,.3-.944,3.194,3.194,0,0,1,.832-.816V-.336a1.522,1.522,0,0,1-.488-.488,1.41,1.41,0,0,1-.2-.776,1.414,1.414,0,0,1,.272-.864,2.453,2.453,0,0,1,.576-.576V-3.1a3.181,3.181,0,0,1-.7-.856,2.42,2.42,0,0,1-.312-1.24,2.761,2.761,0,0,1,.232-1.152,2.6,2.6,0,0,1,.632-.872,2.788,2.788,0,0,1,.936-.552,3.319,3.319,0,0,1,1.128-.192,3.058,3.058,0,0,1,.6.056,3.6,3.6,0,0,1,.5.136h2.7v1.008h-1.6a2.244,2.244,0,0,1,.456.688,2.23,2.23,0,0,1,.184.912,2.748,2.748,0,0,1-.224,1.128,2.465,2.465,0,0,1-.608.848,2.784,2.784,0,0,1-.9.536,3.185,3.185,0,0,1-1.112.192,2.565,2.565,0,0,1-.592-.072,2.94,2.94,0,0,1-.576-.2,1.876,1.876,0,0,0-.352.392.946.946,0,0,0-.144.536.758.758,0,0,0,.288.608,1.775,1.775,0,0,0,1.088.24h1.5a3.8,3.8,0,0,1,2.04.44A1.561,1.561,0,0,1,267.1.9a2.088,2.088,0,0,1-.272,1.032,2.641,2.641,0,0,1-.784.856,4.112,4.112,0,0,1-1.24.584A5.761,5.761,0,0,1,263.168,3.584Zm0-6.928a1.575,1.575,0,0,0,.632-.128,1.628,1.628,0,0,0,.528-.368,1.661,1.661,0,0,0,.36-.584,2.213,2.213,0,0,0,.128-.776,1.789,1.789,0,0,0-.48-1.336,1.6,1.6,0,0,0-1.168-.472A1.6,1.6,0,0,0,262-6.536a1.789,1.789,0,0,0-.48,1.336,2.213,2.213,0,0,0,.128.776,1.662,1.662,0,0,0,.36.584,1.628,1.628,0,0,0,.528.368A1.575,1.575,0,0,0,263.168-3.344Zm.192,6.016a3.548,3.548,0,0,0,1.016-.136,2.822,2.822,0,0,0,.776-.352,1.65,1.65,0,0,0,.5-.5,1.122,1.122,0,0,0,.176-.592.771.771,0,0,0-.4-.752,2.6,2.6,0,0,0-1.168-.208h-1.344q-.224,0-.488-.024a2.5,2.5,0,0,1-.52-.1,2.125,2.125,0,0,0-.608.64,1.344,1.344,0,0,0-.192.672,1.12,1.12,0,0,0,.6.992A3.163,3.163,0,0,0,263.36,2.672ZM268.608,0V-7.776h1.312V0Zm.672-9.376a.928.928,0,0,1-.648-.24.786.786,0,0,1-.264-.608.78.78,0,0,1,.264-.616.947.947,0,0,1,.648-.232.947.947,0,0,1,.648.232.78.78,0,0,1,.264.616.786.786,0,0,1-.264.608A.928.928,0,0,1,269.28-9.376ZM272.544,0V-7.776h1.088l.112,1.408h.048a3.593,3.593,0,0,1,.968-1.168A2,2,0,0,1,276-7.968a2.067,2.067,0,0,1,.832.16l-.256,1.152a2.958,2.958,0,0,0-.352-.1,2.089,2.089,0,0,0-.4-.032,1.742,1.742,0,0,0-1.032.4,3.183,3.183,0,0,0-.936,1.392V0ZM278.1,0V-7.776h1.312V0Zm.672-9.376a.928.928,0,0,1-.648-.24.786.786,0,0,1-.264-.608.78.78,0,0,1,.264-.616.947.947,0,0,1,.648-.232.947.947,0,0,1,.648.232.78.78,0,0,1,.264.616.786.786,0,0,1-.264.608A.928.928,0,0,1,278.768-9.376ZM282.032,0V-7.776h1.088l.112,1.12h.048a6.334,6.334,0,0,1,1.176-.936,2.693,2.693,0,0,1,1.432-.376,2.09,2.09,0,0,1,1.8.768,3.8,3.8,0,0,1,.568,2.272V0h-1.312V-4.752a2.779,2.779,0,0,0-.352-1.592,1.287,1.287,0,0,0-1.12-.488,1.912,1.912,0,0,0-1.072.3,6.956,6.956,0,0,0-1.056.9V0Zm8.752,0V-7.776H292.1V0Zm.672-9.376a.928.928,0,0,1-.648-.24.786.786,0,0,1-.264-.608.78.78,0,0,1,.264-.616.947.947,0,0,1,.648-.232.947.947,0,0,1,.648.232.78.78,0,0,1,.264.616.786.786,0,0,1-.264.608A.928.928,0,0,1,291.456-9.376ZM293.9,0V-.7l4.1-6h-3.648V-7.776h5.312v.7l-4.1,6h4.224V0Zm8.3-5.584a.926.926,0,0,1-.68-.28.965.965,0,0,1-.28-.712,1.006,1.006,0,0,1,.28-.744.926.926,0,0,1,.68-.28.907.907,0,0,1,.664.28,1.006,1.006,0,0,1,.28.744.965.965,0,0,1-.28.712A.907.907,0,0,1,302.208-5.584Zm0,5.776a.926.926,0,0,1-.68-.28.965.965,0,0,1-.28-.712,1.006,1.006,0,0,1,.28-.744.926.926,0,0,1,.68-.28.907.907,0,0,1,.664.28,1.006,1.006,0,0,1,.28.744.965.965,0,0,1-.28.712A.907.907,0,0,1,302.208.192Z" transform="translate(-1784 13241)"/>
    <path id="Path_1974" data-name="Path 1974" class="cls-40" d="M3.51,38V12.416H6.747V38Zm1.6-27.846A2.262,2.262,0,0,1,3.53,9.569a1.96,1.96,0,0,1-.643-1.521A1.916,1.916,0,0,1,3.53,6.566a2.262,2.262,0,0,1,1.579-.585,2.262,2.262,0,0,1,1.58.585,1.916,1.916,0,0,1,.643,1.482,1.96,1.96,0,0,1-.643,1.521A2.262,2.262,0,0,1,5.109,10.154Z" transform="translate(-1637 13114)"/>
    <g id="Path_1975" data-name="Path 1975" class="cls-41" transform="translate(-1662 13105)">
      <path class="cls-43" d="M30,0A30,30,0,1,1,0,30,30,30,0,0,1,30,0Z"/>
      <path class="cls-46" d="M 30 2 C 26.21913909912109 2 22.55244064331055 2.740039825439453 19.10174942016602 4.199558258056641 C 15.76776885986328 5.609710693359375 12.77312850952148 7.628890991210938 10.20101165771484 10.20101165771484 C 7.628890991210938 12.77312850952148 5.609710693359375 15.76776885986328 4.199558258056641 19.10174942016602 C 2.740039825439453 22.55244064331055 2 26.21913909912109 2 30 C 2 33.78086090087891 2.740039825439453 37.44755935668945 4.199558258056641 40.89825057983398 C 5.609710693359375 44.23223114013672 7.628890991210938 47.22686767578125 10.20101165771484 49.79898834228516 C 12.77312850952148 52.37110900878906 15.76776885986328 54.39028930664062 19.10174942016602 55.80043792724609 C 22.55244064331055 57.25996017456055 26.21913909912109 58 30 58 C 33.78086090087891 58 37.44755935668945 57.25996017456055 40.89825057983398 55.80043792724609 C 44.23223114013672 54.39028930664062 47.22686767578125 52.37110900878906 49.79898834228516 49.79898834228516 C 52.37110900878906 47.22686767578125 54.39028930664062 44.23223114013672 55.80043792724609 40.89825057983398 C 57.25996017456055 37.44755935668945 58 33.78086090087891 58 30 C 58 26.21913909912109 57.25996017456055 22.55244064331055 55.80043792724609 19.10174942016602 C 54.39028930664062 15.76776885986328 52.37110900878906 12.77312850952148 49.79898834228516 10.20101165771484 C 47.22686767578125 7.628890991210938 44.23223114013672 5.609710693359375 40.89825057983398 4.199558258056641 C 37.44755935668945 2.740039825439453 33.78086090087891 2 30 2 M 30 0 C 46.56853866577148 0 60 13.43146133422852 60 30 C 60 46.56853866577148 46.56853866577148 60 30 60 C 13.43146133422852 60 0 46.56853866577148 0 30 C 0 13.43146133422852 13.43146133422852 0 30 0 Z"/>
    </g>
    <g id="Path_1973" data-name="Path 1973" class="cls-9" transform="translate(-1822 13265)">
      <path class="cls-43" d="M 377 34.5 L 3 34.5 C 1.621500015258789 34.5 0.5 33.37850189208984 0.5 32 L 0.5 3 C 0.5 1.621500015258789 1.621500015258789 0.5 3 0.5 L 377 0.5 C 378.3785095214844 0.5 379.5 1.621500015258789 379.5 3 L 379.5 32 C 379.5 33.37850189208984 378.3785095214844 34.5 377 34.5 Z"/>
      <path class="cls-47" d="M 3 1 C 1.897186279296875 1 1 1.897201538085938 1 3 L 1 32 C 1 33.10279846191406 1.897186279296875 34 3 34 L 377 34 C 378.1028137207031 34 379 33.10279846191406 379 32 L 379 3 C 379 1.897201538085938 378.1028137207031 1 377 1 L 3 1 M 3 0 L 377 0 C 378.6568603515625 0 380 1.343151092529297 380 3 L 380 32 C 380 33.6568489074707 378.6568603515625 35 377 35 L 3 35 C 1.3431396484375 35 0 33.6568489074707 0 32 L 0 3 C 0 1.343151092529297 1.3431396484375 0 3 0 Z"/>
    </g>
    <path id="Path_1969" data-name="Path 1969" class="cls-12" d="M3,0H87a3,3,0,0,1,3,3V37a3,3,0,0,1-3,3H3a3,3,0,0,1-3-3V3A3,3,0,0,1,3,0Z" transform="translate(-1732 13320)"/>
    <path id="Path_1970" data-name="Path 1970" class="cls-42" d="M3,0H97a3,3,0,0,1,3,3V37a3,3,0,0,1-3,3H3a3,3,0,0,1-3-3V3A3,3,0,0,1,3,0Z" transform="translate(-1632 13320)"/>
    <path id="Path_1971" data-name="Path 1971" class="cls-1" d="M1.35,0V-9.84H2.595V0Zm.615-10.71a.87.87,0,0,1-.607-.225.754.754,0,0,1-.247-.585.737.737,0,0,1,.247-.57.87.87,0,0,1,.607-.225.87.87,0,0,1,.608.225.737.737,0,0,1,.247.57.754.754,0,0,1-.247.585A.87.87,0,0,1,1.965-10.71ZM5.175,3.075V-7.29h1.02l.105.84h.045a5.546,5.546,0,0,1,1.088-.72,2.705,2.705,0,0,1,1.238-.3,2.814,2.814,0,0,1,1.245.262,2.418,2.418,0,0,1,.9.75,3.517,3.517,0,0,1,.548,1.17A5.807,5.807,0,0,1,11.55-3.75,5,5,0,0,1,11.3-2.093,3.843,3.843,0,0,1,10.6-.855a2.919,2.919,0,0,1-1,.773A2.836,2.836,0,0,1,8.4.18,2.458,2.458,0,0,1,7.387-.045,5.126,5.126,0,0,1,6.375-.66L6.4.615v2.46ZM8.19-.855a1.752,1.752,0,0,0,.833-.2,1.989,1.989,0,0,0,.66-.57,2.786,2.786,0,0,0,.435-.908,4.337,4.337,0,0,0,.157-1.215,5.287,5.287,0,0,0-.1-1.1,2.447,2.447,0,0,0-.337-.847,1.617,1.617,0,0,0-.6-.548,1.848,1.848,0,0,0-.878-.195,1.961,1.961,0,0,0-.937.255A5.483,5.483,0,0,0,6.4-5.445V-1.62a3.275,3.275,0,0,0,.96.593A2.413,2.413,0,0,0,8.19-.855ZM15.54.18A2.379,2.379,0,0,1,14.558,0a1.69,1.69,0,0,1-.645-.5,1.929,1.929,0,0,1-.352-.765,4.358,4.358,0,0,1-.105-.99V-6.285h-1.08v-.93l1.14-.075.15-2.04H14.7v2.04h1.965v1.005H14.7v4.05a1.857,1.857,0,0,0,.247,1.043.981.981,0,0,0,.878.368,1.635,1.635,0,0,0,.42-.06,3.2,3.2,0,0,0,.4-.135l.24.93A6.377,6.377,0,0,1,16.238.1,3.053,3.053,0,0,1,15.54.18Zm4.14,0a2.207,2.207,0,0,1-1.522-.54,1.94,1.94,0,0,1-.608-1.53,2.024,2.024,0,0,1,1.065-1.837A8.8,8.8,0,0,1,22.02-4.62a3.36,3.36,0,0,0-.068-.675,1.688,1.688,0,0,0-.232-.585,1.221,1.221,0,0,0-.458-.413,1.556,1.556,0,0,0-.743-.158,2.953,2.953,0,0,0-1.185.24,5.78,5.78,0,0,0-.99.54l-.48-.855a7.959,7.959,0,0,1,1.245-.637,4.157,4.157,0,0,1,1.62-.307,2.239,2.239,0,0,1,1.935.817,3.608,3.608,0,0,1,.6,2.182V0h-1.02l-.1-.87H22.1a6.168,6.168,0,0,1-1.125.742A2.788,2.788,0,0,1,19.68.18Zm.36-.99a2.076,2.076,0,0,0,.99-.248,4.961,4.961,0,0,0,.99-.728V-3.81a12.444,12.444,0,0,0-1.538.285,4.053,4.053,0,0,0-1,.39,1.512,1.512,0,0,0-.555.517,1.233,1.233,0,0,0-.173.638,1.033,1.033,0,0,0,.375.9A1.524,1.524,0,0,0,20.04-.81Zm6.825.99a1.15,1.15,0,0,1-1-.42,2.106,2.106,0,0,1-.3-1.23v-9.21h1.23v9.3a.644.644,0,0,0,.1.42.313.313,0,0,0,.24.12h.112a.636.636,0,0,0,.158-.03l.165.93a1.061,1.061,0,0,1-.285.09A2.418,2.418,0,0,1,26.865.18Z" transform="translate(-1701 13346)"/>
    <path id="Path_1972" data-name="Path 1972" class="cls-1" d="M4.98.18a3.981,3.981,0,0,1-1.7-.36A3.791,3.791,0,0,1,1.95-1.207a4.817,4.817,0,0,1-.862-1.62A6.939,6.939,0,0,1,.78-4.965a6.8,6.8,0,0,1,.307-2.122,4.667,4.667,0,0,1,.862-1.59,3.709,3.709,0,0,1,1.328-1,4.128,4.128,0,0,1,1.7-.345,4.053,4.053,0,0,1,1.7.352A3.86,3.86,0,0,1,8.017-8.662a4.6,4.6,0,0,1,.87,1.59,6.743,6.743,0,0,1,.307,2.108,6.939,6.939,0,0,1-.307,2.138,4.742,4.742,0,0,1-.87,1.62A3.863,3.863,0,0,1,6.682-.18,3.981,3.981,0,0,1,4.98.18Zm0-1.1A2.487,2.487,0,0,0,6.173-1.2a2.68,2.68,0,0,0,.915-.817A4.059,4.059,0,0,0,7.68-3.293a6.146,6.146,0,0,0,.21-1.673,6,6,0,0,0-.21-1.65A3.789,3.789,0,0,0,7.088-7.86a2.692,2.692,0,0,0-.915-.788A2.541,2.541,0,0,0,4.98-8.925a2.541,2.541,0,0,0-1.193.278,2.692,2.692,0,0,0-.915.788A3.789,3.789,0,0,0,2.28-6.615a6,6,0,0,0-.21,1.65,6.146,6.146,0,0,0,.21,1.673,4.059,4.059,0,0,0,.592,1.275,2.68,2.68,0,0,0,.915.817A2.487,2.487,0,0,0,4.98-.915ZM11.19,0V-7.29h1.02l.105,1.05h.045a5.939,5.939,0,0,1,1.1-.877,2.525,2.525,0,0,1,1.343-.352,1.96,1.96,0,0,1,1.688.72,3.559,3.559,0,0,1,.532,2.13V0H15.8V-4.455a2.6,2.6,0,0,0-.33-1.492,1.206,1.206,0,0,0-1.05-.457,1.792,1.792,0,0,0-1.005.285,6.52,6.52,0,0,0-.99.84V0Zm9.885.18a2.207,2.207,0,0,1-1.522-.54,1.94,1.94,0,0,1-.608-1.53A2.024,2.024,0,0,1,20.01-3.727a8.8,8.8,0,0,1,3.405-.892,3.36,3.36,0,0,0-.068-.675,1.688,1.688,0,0,0-.232-.585,1.221,1.221,0,0,0-.458-.413,1.556,1.556,0,0,0-.743-.158,2.953,2.953,0,0,0-1.185.24,5.78,5.78,0,0,0-.99.54l-.48-.855a7.959,7.959,0,0,1,1.245-.637,4.157,4.157,0,0,1,1.62-.307,2.239,2.239,0,0,1,1.935.817,3.608,3.608,0,0,1,.6,2.182V0H23.64l-.1-.87H23.49a6.168,6.168,0,0,1-1.125.742A2.788,2.788,0,0,1,21.075.18Zm.36-.99a2.076,2.076,0,0,0,.99-.248,4.961,4.961,0,0,0,.99-.728V-3.81a12.444,12.444,0,0,0-1.538.285,4.053,4.053,0,0,0-1,.39,1.512,1.512,0,0,0-.555.517,1.233,1.233,0,0,0-.173.638,1.033,1.033,0,0,0,.375.9A1.524,1.524,0,0,0,21.435-.81Zm5.64,3.945A2.654,2.654,0,0,1,26.61,3.1a1.862,1.862,0,0,1-.39-.112l.24-.975.27.068a1.176,1.176,0,0,0,.285.037,1.318,1.318,0,0,0,1.027-.442A3.127,3.127,0,0,0,28.665.555l.165-.54-2.925-7.3H27.18l1.485,4.035q.165.48.352,1.012T29.37-1.2h.06q.165-.5.315-1.035t.3-1.02L31.35-7.29h1.2L29.805.6a8.439,8.439,0,0,1-.435,1.005,3.307,3.307,0,0,1-.57.8,2.535,2.535,0,0,1-.75.532A2.293,2.293,0,0,1,27.075,3.135ZM35.265.18A1.15,1.15,0,0,1,34.26-.24a2.106,2.106,0,0,1-.3-1.23v-9.21h1.23v9.3a.644.644,0,0,0,.1.42.313.313,0,0,0,.24.12h.112a.636.636,0,0,0,.158-.03l.165.93a1.061,1.061,0,0,1-.285.09A2.418,2.418,0,0,1,35.265.18Zm4.2,0a2.207,2.207,0,0,1-1.522-.54,1.94,1.94,0,0,1-.608-1.53A2.024,2.024,0,0,1,38.4-3.727a8.8,8.8,0,0,1,3.4-.892,3.36,3.36,0,0,0-.068-.675,1.689,1.689,0,0,0-.232-.585,1.221,1.221,0,0,0-.458-.413,1.556,1.556,0,0,0-.743-.158,2.953,2.953,0,0,0-1.185.24,5.78,5.78,0,0,0-.99.54l-.48-.855A7.959,7.959,0,0,1,38.9-7.162a4.157,4.157,0,0,1,1.62-.307,2.239,2.239,0,0,1,1.935.817,3.608,3.608,0,0,1,.6,2.182V0H42.03l-.1-.87H41.88a6.168,6.168,0,0,1-1.125.742A2.788,2.788,0,0,1,39.465.18Zm.36-.99a2.076,2.076,0,0,0,.99-.248,4.962,4.962,0,0,0,.99-.728V-3.81a12.444,12.444,0,0,0-1.537.285,4.053,4.053,0,0,0-1.005.39,1.512,1.512,0,0,0-.555.517,1.233,1.233,0,0,0-.173.638,1.033,1.033,0,0,0,.375.9A1.524,1.524,0,0,0,39.825-.81Z" transform="translate(-1604 13346)"/>
  </g>
</svg>
