<svg id="Home" xmlns="http://www.w3.org/2000/svg" width="890" height="4" viewBox="0 0 890 4">
  <defs>
    <style>
      .cls-1 {
        fill: #dbdde0;
        fill-rule: evenodd;
      }
    </style>
  </defs>
  <g id="Shake_Homepage_01">
    <g id="Live-Demo-Box">
      <path id="Fill-13" class="cls-1" d="M856.475,4c-13.183,0-25.4-.292-33.53-.8-6.858-.43-17.989-.687-29.774-.687s-22.918.257-29.779.687c-8.123.51-20.345.8-33.525.8s-25.4-.292-33.527-.8c-6.858-.43-17.992-.687-29.777-.687s-22.918.257-29.779.687c-8.123.51-20.342.8-33.525.8s-25.4-.292-33.527-.8c-6.858-.43-17.989-.687-29.777-.687s-22.916.257-29.774.687c-8.125.51-20.347.8-33.527.8s-25.4-.292-33.527-.8c-6.858-.43-17.992-.687-29.777-.687s-22.918.257-29.777.687c-8.125.51-20.347.8-33.527.8s-25.4-.292-33.527-.8c-6.858-.43-17.992-.687-29.777-.687s-22.918.257-29.777.687c-8.125.51-20.345.8-33.527.8s-25.4-.292-33.526-.8c-6.859-.43-17.992-.687-29.778-.687s-22.917.257-29.776.687c-8.126.51-20.347.8-33.528.8s-25.4-.292-33.526-.8c-6.859-.43-17.991-.687-29.778-.687S10.609,2.768,3.75,3.2L0,.8C8.125.292,20.344,0,33.526,0s25.4.292,33.528.8c6.859.43,17.99.687,29.776.687S119.748,1.232,126.608.8c8.124-.51,20.344-.8,33.525-.8s25.4.292,33.528.8c6.858.43,17.991.687,29.776.687S246.356,1.232,253.217.8c8.123-.51,20.342-.8,33.525-.8s25.4.292,33.527.8c6.858.43,17.989.687,29.777.687S372.964,1.232,379.822.8c8.125-.51,20.345-.8,33.527-.8s25.4.292,33.527.8c6.858.43,17.989.687,29.777.687S499.572,1.232,506.43.8c8.125-.51,20.345-.8,33.525-.8s25.4.292,33.527.8c6.858.43,17.992.687,29.777.687S626.177,1.232,633.036.8c8.125-.51,20.345-.8,33.527-.8s25.4.292,33.525.8c6.861.43,17.992.687,29.779.687S752.783,1.232,759.642.8c8.128-.51,20.347-.8,33.53-.8s25.4.292,33.525.8c6.861.43,17.992.687,29.779.687S879.391,1.232,886.25.8L890,3.2c-8.125.51-20.345.8-33.525.8"/>
    </g>
  </g>
</svg>
