<svg id="Layer_1" data-name="Layer 1" xmlns="http://www.w3.org/2000/svg" viewBox="0 0 1000 1000"><defs><style>.cls-1{fill:#7abcff;}.cls-2{fill:#ffa792;}.cls-3{fill:#fc957b;}.cls-4{fill:#fc9d86;}.cls-5{fill:#474136;}</style></defs><title>Like</title><path class="cls-1" d="M871.18,771.76a337.78,337.78,0,0,1-46.09,57.08C752.87,901.2,645.4,949.69,538.14,960.28q-8.39.84-16.77,1.36C203,981.3,56.35,781.22,129.87,591.7q2.94-7.62,6.38-15.2c47-103.94,47.66-225.41,79.36-310.36,7.85-21.06,17.59-39.86,30.46-55.61,26-31.88,64.56-51.24,125.54-51.24,5.86,0,11.77,0,17.68.15,208.18,3.43,437.62,70.38,517.23,417.07C923,648.18,907.38,714.78,871.18,771.76Z"/><path class="cls-2" d="M868.86,771.26c-.12.62-.27,1.26-.43,1.88-2.79,11-10.26,20.22-17.84,28.73-55.88,62.78-128.88,109.95-208.7,136.21a475.08,475.08,0,0,1-70.5,17.41q-16.29,2.73-32.75,4.27c-7.91-105.63-52.7-216.48-145.22-268-1.55-.87-2.83-1.69-3.92-2.46-4.75-3.24-6.48-5.14-13.36-2-1.28.58-2.6,1.2-4,1.84-9.19,4.23-20.07,9.19-28,11.59-4.27,1.28-8.65,2.52-13.13,3.68-44.94,11.73-99.23,16.69-140.7-6.57-39.73-22.28-65.28-70-58.81-114.16a89.33,89.33,0,0,1,5-19.23c-1.05-1-2.09-2-3.12-3a1.16,1.16,0,0,1-.17-.17c-15.32-15.32-27.34-35.09-27.34-56.62,0-23,18-46.75,41-46.77-39.94-32.71-51.17-95.55-25-140.1,25.11-42.77,81.76-63.69,128.78-48.49,1.4.47,2.81.95,4.19,1.49.52.19,1,.37,1.55.58-2.58-1-5.21-18.13-5.93-21.08q-2.7-11.06-4.56-22.32a318.1,318.1,0,0,1-4.25-45.35c-.68-30.4-1.34-61.19,6.5-90.55,5.27-19.74,15-42.58,32.86-54a46.76,46.76,0,0,1,36.7-5.86c13.67,3.55,25.13,13.34,33,25C365,78.4,367.75,103.55,373.22,127.9c11.48,51.15,39.22,92.66,79.75,125.62,32,26,68.11,46.36,102.55,69,147.94,97.25,268.22,243.7,310.53,415.62C868.72,749,871.07,760.38,868.86,771.26Z"/><path class="cls-3" d="M641.89,938.08a475.08,475.08,0,0,1-70.5,17.41q-16.29,2.73-32.75,4.27c-7.91-105.63-52.7-216.48-145.22-268-1.55-.87-2.83-1.69-3.92-2.46A269.77,269.77,0,0,1,336,704.66a10.56,10.56,0,0,1-5.06-.27c-9.15-2.73-11.63-17.66-.41-19.66a255,255,0,0,0,87.85-33,9.38,9.38,0,0,1,7.31-1.3c29.06-22,46.92-63.52,29.61-98A437.21,437.21,0,0,1,262.18,613c-13.3.95-13.2-19.72,0-20.65a412.05,412.05,0,0,0,127.33-30,10.59,10.59,0,0,1,4.52-3.1,149.68,149.68,0,0,0,47.81-28.83,1.2,1.2,0,0,1,.1-.17c21.7-36.49-12.43-79.47-52.85-67.18-.37.1-.74.19-1.1.27A444.62,444.62,0,0,1,169.25,470c-13-2.87-7.45-22.78,5.49-19.91a422.14,422.14,0,0,0,207.58-6.69,10.69,10.69,0,0,1,4.75-3.45,31.35,31.35,0,0,0,9-5.14,8.34,8.34,0,0,1,2-1.86c9.5-9.31,12.6-24.12,9-37.34-3.06-11.23-9.85-20.07-18.5-26.91a114.27,114.27,0,0,0-54.62-17.78,8.82,8.82,0,0,1-1.26.35c-29.49,6.44-57.74-4.25-75.36-24.95C229.32,309,195.37,302,162.6,308c-9.38,1.69-18.3-9.75-10.06-17.26,25.34-23.07,61.44-31.58,94.11-21.27a12,12,0,0,1,3.94-.14,10.78,10.78,0,0,1,4.19,1.49,9.92,9.92,0,0,1,3.28,3c41.4,2.56,78.47-20.15,94.89-59,5.16-12.2,22.94-1.67,17.84,10.43-17.55,41.53-58.36,68.42-102.53,69.49,12.85,19.19,34,30.89,57.51,32.11a10.25,10.25,0,0,1,4.69-1.05c35.19,0,75.25,1.38,101.52,28.46,18.9,19.51,25.94,48.88,18.63,74.84,27.82,19,44.5,50.93,43.16,84.81a11,11,0,0,1-.83,3.82c2,21.23,19.31,36.66,39.65,42.25,24.6,6.77,50.06.68,73.77-6.73,5.91-1.84,10.24,1.47,11.91,5.95,2.81,4.48,2,20.4-4.15,23.31-36.41,17.18-97.78,17.27-132.1-10.18,2.11,20.4-3,40.93-13.09,59A146.72,146.72,0,0,1,530,672.8c14.33,16.36,19.18,36.88,26.25,57q34.54,97.67,78,191.83C636.79,927.07,639.33,932.59,641.89,938.08Z"/><path class="cls-3" d="M299.48,70.6c-27.92-.43-52.84,28.91-45.7,56.65,8.18,31.74,55.9,24.21,52.94-8.73-1.18-13.13-21.84-13.25-20.65,0,.71,8-7.7,13-12,4.81-3.16-6,1.08-16.08,4.62-21,7.68-10.71,22.12-14.84,33.38-6.9,12.45,8.78,9.92,28.23,6.19,41-4.2,14.33-16.17,29.15-32.82,25.59-13-2.77-18.5,17.13-5.49,19.91C346.08,196.06,368.6,71.68,299.48,70.6Z"/><path class="cls-4" d="M204.91,582.86c-12.7-2.6-25.34-5.58-37.83-9.07-8.49-2.36-21.21-4.39-29.82-9.54a3.07,3.07,0,0,1-1.33,1.69,89.35,89.35,0,0,0-4.45,17.72c6.55,3,13.63,5,20.9,7.23,16.15,4.87,32.53,8.94,49,12.33C214.47,605.89,217.92,585.51,204.91,582.86Z"/><path class="cls-5" d="M876.18,863.17c-5.4-41.86-12.86-83.47-23.33-124.31-5.19-20.43-11.31-40.6-18-60.57s-14.51-39.53-22.92-58.8a620.9,620.9,0,0,0-61.78-109.66,607.46,607.46,0,0,0-83.06-94.43q-23.09-21.44-48-40.84c-16.58-12.95-33.64-25.3-51-37.3s-35-23.62-52.62-35.32-35.32-23.48-52.54-36.08-34-26.08-49.11-41.63-28.25-33.53-36.78-54a139.64,139.64,0,0,1-9.15-31.77c-1.75-10.64-3.15-21-5.1-31.18a198.92,198.92,0,0,0-7.65-29.76c-3.42-9.47-8-18.42-14.17-25.58a46.67,46.67,0,0,0-5-5,21.22,21.22,0,0,0-2.75-2.11c-1-.66-1.84-1.37-2.83-2a45.31,45.31,0,0,0-12.78-5.48c-8.82-2.25-18-.63-26.11,4S276.4,53.13,270.62,61.17a112,112,0,0,0-13.9,26.54c-.85,2.36-1.63,4.73-2.33,7.14l-1.94,7.41c-1.12,5-2.19,10-2.92,15.07a245.93,245.93,0,0,0-2.61,30.78c-.42,20.72,1.36,41.59,3.72,62.5l1.86,15.71,1,7.88.48,3.94.52,3.73A134.88,134.88,0,0,0,262.77,271c7.7,18.81,19,36.5,34,49.78A72.24,72.24,0,0,0,322,335.66a51.71,51.71,0,0,0,7,1.75c1.11.23,2.51.45,3.84.66l4,.7q8,1.47,15.87,3.51a171.38,171.38,0,0,1,30.82,11c9.89,4.79,19.58,10.83,27.34,19.52a50,50,0,0,1,9.22,15,43.48,43.48,0,0,1,2.78,17.57,40.31,40.31,0,0,1-4.7,17.26,52.79,52.79,0,0,1-10.74,13.73c-8.41,7.79-18.25,13.15-28.24,17.51A199.28,199.28,0,0,1,348.34,464a362.22,362.22,0,0,1-63.53,9.29,449.49,449.49,0,0,1-64-.53c-10.66-.89-21.29-2.19-31.86-4.11a179.85,179.85,0,0,1-31.33-8.35,73.39,73.39,0,0,1-14.91-7.49A79.18,79.18,0,0,1,130,442a82.23,82.23,0,0,1-10-13.18c-1.53-2.3-2.74-4.78-4.06-7.19-.63-1.22-1.16-2.49-1.74-3.73s-1.16-2.49-1.62-3.78a103.9,103.9,0,0,1-7.29-31.86c-.14-1.36-.2-2.73-.21-4.09l-.08-4.1c.12-2.74.12-5.47.45-8.2a81.26,81.26,0,0,1,3.07-16.18,63.24,63.24,0,0,1,6.59-15.25,48.32,48.32,0,0,1,10.82-12.86,45.7,45.7,0,0,1,14.8-8.17,55,55,0,0,1,16.62-2.2,2.83,2.83,0,0,1,0,5.66h-.15a49.33,49.33,0,0,0-14.69,2.1,39.75,39.75,0,0,0-12.72,7.22,42.25,42.25,0,0,0-9.37,11.42,57,57,0,0,0-5.8,13.87,74.74,74.74,0,0,0-2.66,15c-.29,2.53-.25,5.09-.34,7.64l.12,3.83c0,1.28.09,2.55.24,3.83a97,97,0,0,0,7.14,29.69c.44,1.2,1,2.34,1.54,3.49s1.06,2.32,1.65,3.44c1.25,2.21,2.38,4.49,3.82,6.58a76.58,76.58,0,0,0,9.28,11.93,71.77,71.77,0,0,0,11.49,9.63,65.88,65.88,0,0,0,13.45,6.6,172.3,172.3,0,0,0,30,7.72c10.27,1.78,20.67,3,31.1,3.76a441.07,441.07,0,0,0,62.81,0A353.42,353.42,0,0,0,346.08,455a190.12,190.12,0,0,0,29.32-9.89c9.32-4.14,18.27-9.21,25.36-15.91a43,43,0,0,0,8.66-11.19,30.32,30.32,0,0,0,3.46-13.12,33.43,33.43,0,0,0-2.24-13.53,39.82,39.82,0,0,0-7.43-11.82c-6.43-7.11-15.06-12.54-24.19-16.84a160.91,160.91,0,0,0-29-10q-7.5-1.88-15.14-3.22l-7.8-1.29a61.75,61.75,0,0,1-8.41-2,83.24,83.24,0,0,1-29.24-16.89c-16.83-14.76-29-33.65-37.39-53.85a146.44,146.44,0,0,1-9.18-31.71l-.6-4.13-.5-3.93-1-7.87-2-15.8c-2.5-21.11-4.49-42.49-4.17-64.12a240.58,240.58,0,0,1,2.65-32.43c.77-5.4,1.91-10.75,3.12-16.08l2.08-7.95c.77-2.67,1.64-5.33,2.59-7.95a124.29,124.29,0,0,1,15.48-29.52c6.55-9.07,14.59-17.5,24.91-23.39a51.07,51.07,0,0,1,17-6,45.59,45.59,0,0,1,18.17.8,57.68,57.68,0,0,1,16.29,6.94c1.24.78,2.44,1.7,3.66,2.55a30.79,30.79,0,0,1,3.53,2.72,59.09,59.09,0,0,1,6.23,6.24C358,52.67,363.06,63,366.82,73.37A210.77,210.77,0,0,1,375,105c2,10.56,3.34,21.24,5,31.49a127.51,127.51,0,0,0,8.2,29.14c7.7,18.74,19.76,35.61,34.06,50.48s30.55,28.14,47.39,40.63,34.36,24.29,51.9,36.1,35.19,23.57,52.58,35.75,34.55,24.77,51.24,38,32.88,27.09,48.41,41.68a616.84,616.84,0,0,1,83.76,96.38,629.53,629.53,0,0,1,62,111.55q12.6,29.34,22.6,59.67c6.53,20.23,12.49,40.65,17.51,61.29,10.13,41.27,17.2,83.21,22.19,125.33a2.82,2.82,0,0,1-5.6.7Z"/><path class="cls-5" d="M407.07,457.3a57.24,57.24,0,0,1,19.28,2.1,47.64,47.64,0,0,1,17.34,9.26,47.16,47.16,0,0,1,12.1,15.72,51.54,51.54,0,0,1,4.87,19.2,66.23,66.23,0,0,1-9.41,37.69,91.18,91.18,0,0,1-5.32,8.16c-1,1.29-2,2.53-3,3.79l-1.52,1.89-1.63,1.78a124.75,124.75,0,0,1-13.94,13.2,164.57,164.57,0,0,1-32.23,20.15c-2.84,1.43-5.79,2.53-8.68,3.81s-5.8,2.52-8.8,3.49l-8.93,3.14-9.09,2.61c-1.52.42-3,.88-4.55,1.28l-4.61,1c-3.08.67-6.14,1.42-9.23,2-6.21,1-12.39,2.23-18.65,2.81a271.94,271.94,0,0,1-37.6,1.9,312.14,312.14,0,0,1-74.29-10.23L204.62,601l-4.5-1.33c-3-.9-6-1.73-9-2.7-5.92-2-11.88-3.92-17.72-6.25s-11.64-4.8-17.3-7.62q-4.25-2.11-8.39-4.45c-1.38-.78-2.75-1.58-4.11-2.4s-2.78-1.81-4.16-2.72a80,80,0,0,1-25-29.8,84.87,84.87,0,0,1-9.13-37.46,64,64,0,0,1,2.89-19.37,49.84,49.84,0,0,1,9.47-17.33,48.86,48.86,0,0,1,15.5-12.08,65.16,65.16,0,0,1,18.41-5.79,2.83,2.83,0,0,1,1.06,5.56h-.07a59.13,59.13,0,0,0-16.42,5.87,42.08,42.08,0,0,0-13,10.93c-7,8.92-10,20.57-9.65,32.1a76.22,76.22,0,0,0,9.11,33.33c5.46,10.23,13.16,19.31,22.59,25.57l3.62,2.23c1.29.73,2.6,1.44,3.91,2.14q3.94,2.09,8,4c5.42,2.5,11,4.77,16.61,6.85s11.44,3.82,17.18,5.67c2.89.88,5.82,1.61,8.73,2.43l4.37,1.19,4.41,1,8.83,2,8.9,1.68c3,.6,5.94,1,8.92,1.5s6,1,8.95,1.34c6,.65,12,1.47,18,1.79,3,.19,6,.55,9,.63l9,.32a295.58,295.58,0,0,0,36-1.41c6-.45,11.91-1.53,17.86-2.38,3-.51,5.88-1.19,8.82-1.77l4.41-.91c1.46-.35,2.9-.76,4.34-1.14l8.68-2.33,8.51-2.83c2.87-.87,5.62-2,8.39-3.17s5.59-2.16,8.26-3.45a161.32,161.32,0,0,0,30.55-18.28,114.92,114.92,0,0,0,13.13-11.8l1.53-1.58,1.41-1.67c.93-1.12,1.91-2.21,2.81-3.35a81.91,81.91,0,0,0,4.93-7.16A57.49,57.49,0,0,0,452.43,504a44.62,44.62,0,0,0-3.57-16.48,39.88,39.88,0,0,0-9.75-13.64,41,41,0,0,0-14.65-8.49,51.26,51.26,0,0,0-17.12-2.48h-.06a2.82,2.82,0,0,1-.2-5.64Z"/><path class="cls-5" d="M410.5,513.59a42.94,42.94,0,0,1,18.36,2.33,52.16,52.16,0,0,1,15.89,9.29c9.4,7.89,16.41,18,21.52,29a83.49,83.49,0,0,1,5.82,17.32,48.45,48.45,0,0,1,1.06,9.49c0,.81-.05,1.69-.1,2.54s-.2,1.54-.29,2.32l-.65,4.52c-1.92,12-6.56,23.51-12.6,33.95a136.86,136.86,0,0,1-22.24,28.25A195.85,195.85,0,0,1,409.59,675,264.63,264.63,0,0,1,346,706.14a255.15,255.15,0,0,1-34.29,9.07A196.73,196.73,0,0,1,276.27,719a295.12,295.12,0,0,1-35.38-1.92A196.91,196.91,0,0,1,206,709.76a132.34,132.34,0,0,1-32.59-15.14,94.5,94.5,0,0,1-40.71-57.78,136.31,136.31,0,0,1-3.63-35.25,2.83,2.83,0,0,1,5.66,0A129.94,129.94,0,0,0,139.6,635a92.77,92.77,0,0,0,14.48,29.78,88.3,88.3,0,0,0,24.34,22.07A122.65,122.65,0,0,0,209,699.95c21.56,6,44.49,7.64,67,7.12,22.31-.82,44.61-5.89,66.09-12.8,21.44-7.14,42.26-16.5,61.15-28.8a184.71,184.71,0,0,0,26.5-20.7,131.92,131.92,0,0,0,21.1-25.67,90,90,0,0,0,12.26-30.4l.69-4.05c.1-.65.28-1.4.31-2s.14-1.16.12-1.79a39.85,39.85,0,0,0-.67-7.73,75.19,75.19,0,0,0-4.8-15.64c-4.33-10.12-10.43-19.71-18.54-27a45.55,45.55,0,0,0-13.57-8.66,36.93,36.93,0,0,0-15.69-2.6h-.07a2.82,2.82,0,0,1-.38-5.63Z"/><path class="cls-5" d="M293.27,654.54a210.08,210.08,0,0,1,27.5,4.46c9,2.05,18,4.39,26.78,7.32a296.75,296.75,0,0,1,51,22.09,279.16,279.16,0,0,1,45.93,31.7A248.27,248.27,0,0,1,483,760.76c1.41,1.86,2.89,3.68,4.25,5.58l3.92,5.82L495,778c.63,1,1.32,1.93,1.91,2.94l1.74,3c2.31,4.06,4.66,8.1,6.92,12.19l6,12.63c1,2.12,2.1,4.17,2.91,6.36l2.59,6.49,2.58,6.49c.86,2.16,1.76,4.31,2.42,6.54,2.85,8.86,5.92,17.64,7.94,26.71,9.19,36,12.52,73.1,11.49,109.84a2.83,2.83,0,0,1-5.66,0c-1-36.34-5.78-72.52-15.78-107.12A294.64,294.64,0,0,0,473,768.29c-21.05-28.84-48.5-52.87-79.42-71.08a287.54,287.54,0,0,0-48.71-23.1c-8.43-3.19-17.05-5.9-25.76-8.29Q312.57,664,306,662.61c-4.38-1-8.88-1.83-13.2-2.44l-.12,0a2.82,2.82,0,0,1,.64-5.6Z"/></svg>